M48
; DRILL file {KiCad 8.0.5} date 2024-09-28T10:08:34+0200
; FORMAT={-:-/ absolute / inch / decimal}
; #@! TF.CreationDate,2024-09-28T10:08:34+02:00
; #@! TF.GenerationSoftware,Kicad,Pcbnew,8.0.5
; #@! TF.FileFunction,Plated,1,2,PTH
FMAT,2
INCH
; #@! TA.AperFunction,Plated,PTH,ComponentDrill
T1C0.0079
; #@! TA.AperFunction,Plated,PTH,ViaDrill
T2C0.0118
; #@! TA.AperFunction,Plated,PTH,ComponentDrill
T3C0.0157
; #@! TA.AperFunction,Plated,PTH,ComponentDrill
T4C0.0236
; #@! TA.AperFunction,Plated,PTH,ComponentDrill
T5C0.0394
; #@! TA.AperFunction,Plated,PTH,ComponentDrill
T6C0.0433
; #@! TA.AperFunction,Plated,PTH,ComponentDrill
T7C0.0866
%
G90
G05
T1
X2.5904Y-1.7071
X2.5904Y-1.7622
X2.6179Y-1.6795
X2.6179Y-1.7346
X2.6179Y-1.7898
X2.6455Y-1.7071
X2.6455Y-1.7622
X2.673Y-1.6795
X2.673Y-1.7346
X2.673Y-1.7898
X2.7006Y-1.7071
X2.7006Y-1.7622
T2
X1.5374Y-1.5079
X1.5709Y-1.5079
X1.6083Y-1.5699
X1.6398Y-1.2687
X1.6683Y-1.2687
X1.8294Y-2.1431
X1.8597Y-1.9331
X1.8597Y-1.9626
X1.8597Y-1.9902
X1.9006Y-1.6988
X1.9006Y-1.7333
X1.9373Y-1.6253
X1.9871Y-2.1284
X2.0059Y-1.372
X2.0069Y-1.3287
X2.1216Y-2.037
X2.1216Y-2.072
X2.1466Y-2.052
X2.2416Y-1.802
X2.2516Y-1.777
X2.2666Y-1.812
X2.2682Y-2.1924
X2.3066Y-1.7372
X2.4626Y-1.9272
X2.4636Y-1.8848
X2.4882Y-1.9272
X2.4892Y-1.8848
X2.5492Y-1.248
X2.565Y-1.6358
X2.5955Y-1.6358
X2.623Y-1.6368
X2.8376Y-1.2569
X3.2166Y-1.772
X3.2316Y-1.802
X3.2402Y-2.2972
X3.3216Y-1.847
X3.326Y-1.767
X3.3266Y-1.697
X3.3266Y-1.737
X3.4045Y-2.4094
X3.4055Y-2.2195
X3.4439Y-1.4016
X3.4466Y-1.367
X3.4606Y-1.5069
X3.4675Y-1.7628
X3.4716Y-1.387
X3.498Y-1.8051
X3.5366Y-2.012
X3.5666Y-2.037
X3.5916Y-2.062
X3.5925Y-2.1929
X3.6016Y-1.902
X3.6102Y-2.2589
X3.628Y-2.2766
X3.6366Y-1.907
X3.6416Y-1.392
X3.6416Y-1.8051
X3.6666Y-1.367
X3.7866Y-1.392
X3.8216Y-1.392
X3.8533Y-2.3612
X3.873Y-1.5768
X3.8809Y-2.3612
X4.0066Y-1.587
X4.0116Y-1.517
T3
X2.1266Y-1.932
X2.1456Y-1.8861
X2.1456Y-1.978
X2.1916Y-1.8671
X2.1916Y-1.997
X2.2375Y-1.8861
X2.2375Y-1.978
X2.2565Y-1.932
T5
X2.4016Y-2.412
X2.4016Y-2.592
X2.5016Y-2.412
X2.5016Y-2.592
X2.6016Y-2.412
X2.6016Y-2.592
X2.7016Y-2.412
X2.7016Y-2.592
X2.8016Y-2.412
X2.8016Y-2.592
X2.9016Y-2.412
X2.9016Y-2.592
X3.0016Y-2.412
X3.0016Y-2.592
X3.1016Y-2.412
X3.1016Y-2.592
X3.2016Y-2.412
X3.2016Y-2.592
T6
X3.5283Y-1.2677
X3.6283Y-1.2677
X3.7283Y-1.2677
X3.8283Y-1.2677
X3.9283Y-1.2677
T7
X2.1916Y-1.932
T4
G00X1.505Y-2.062
M15
G01X1.4735Y-2.062
M16
G05
G00X1.505Y-2.4021
M15
G01X1.4735Y-2.4021
M16
G05
G00X1.6755Y-2.062
M15
G01X1.6322Y-2.062
M16
G05
G00X1.6755Y-2.4021
M15
G01X1.6322Y-2.4021
M16
G05
M30
