%TF.GenerationSoftware,KiCad,Pcbnew,8.0.5*%
%TF.CreationDate,2024-09-28T10:08:31+02:00*%
%TF.ProjectId,Master,4d617374-6572-42e6-9b69-6361645f7063,rev?*%
%TF.SameCoordinates,Original*%
%TF.FileFunction,Soldermask,Top*%
%TF.FilePolarity,Negative*%
%FSLAX46Y46*%
G04 Gerber Fmt 4.6, Leading zero omitted, Abs format (unit mm)*
G04 Created by KiCad (PCBNEW 8.0.5) date 2024-09-28 10:08:31*
%MOMM*%
%LPD*%
G01*
G04 APERTURE LIST*
G04 Aperture macros list*
%AMRoundRect*
0 Rectangle with rounded corners*
0 $1 Rounding radius*
0 $2 $3 $4 $5 $6 $7 $8 $9 X,Y pos of 4 corners*
0 Add a 4 corners polygon primitive as box body*
4,1,4,$2,$3,$4,$5,$6,$7,$8,$9,$2,$3,0*
0 Add four circle primitives for the rounded corners*
1,1,$1+$1,$2,$3*
1,1,$1+$1,$4,$5*
1,1,$1+$1,$6,$7*
1,1,$1+$1,$8,$9*
0 Add four rect primitives between the rounded corners*
20,1,$1+$1,$2,$3,$4,$5,0*
20,1,$1+$1,$4,$5,$6,$7,0*
20,1,$1+$1,$6,$7,$8,$9,0*
20,1,$1+$1,$8,$9,$2,$3,0*%
G04 Aperture macros list end*
%ADD10RoundRect,0.237500X0.237500X-0.250000X0.237500X0.250000X-0.237500X0.250000X-0.237500X-0.250000X0*%
%ADD11C,0.650000*%
%ADD12RoundRect,0.150000X-0.425000X0.150000X-0.425000X-0.150000X0.425000X-0.150000X0.425000X0.150000X0*%
%ADD13RoundRect,0.075000X-0.500000X0.075000X-0.500000X-0.075000X0.500000X-0.075000X0.500000X0.075000X0*%
%ADD14O,2.100000X1.000000*%
%ADD15O,1.800000X1.000000*%
%ADD16R,1.200000X1.200000*%
%ADD17RoundRect,0.237500X-0.237500X0.300000X-0.237500X-0.300000X0.237500X-0.300000X0.237500X0.300000X0*%
%ADD18RoundRect,0.237500X0.237500X-0.300000X0.237500X0.300000X-0.237500X0.300000X-0.237500X-0.300000X0*%
%ADD19RoundRect,0.150000X-0.150000X0.587500X-0.150000X-0.587500X0.150000X-0.587500X0.150000X0.587500X0*%
%ADD20RoundRect,0.237500X-0.237500X0.287500X-0.237500X-0.287500X0.237500X-0.287500X0.237500X0.287500X0*%
%ADD21RoundRect,0.237500X0.300000X0.237500X-0.300000X0.237500X-0.300000X-0.237500X0.300000X-0.237500X0*%
%ADD22C,0.700000*%
%ADD23C,4.400000*%
%ADD24RoundRect,0.237500X-0.237500X0.250000X-0.237500X-0.250000X0.237500X-0.250000X0.237500X0.250000X0*%
%ADD25RoundRect,0.237500X-0.300000X-0.237500X0.300000X-0.237500X0.300000X0.237500X-0.300000X0.237500X0*%
%ADD26RoundRect,0.237500X-0.250000X-0.237500X0.250000X-0.237500X0.250000X0.237500X-0.250000X0.237500X0*%
%ADD27RoundRect,0.237500X0.250000X0.237500X-0.250000X0.237500X-0.250000X-0.237500X0.250000X-0.237500X0*%
%ADD28RoundRect,0.102000X-0.350000X0.600000X-0.350000X-0.600000X0.350000X-0.600000X0.350000X0.600000X0*%
%ADD29RoundRect,0.102000X0.250000X0.175000X-0.250000X0.175000X-0.250000X-0.175000X0.250000X-0.175000X0*%
%ADD30RoundRect,0.102000X0.200000X-0.240000X0.200000X0.240000X-0.200000X0.240000X-0.200000X-0.240000X0*%
%ADD31RoundRect,0.100500X0.301500X-0.986500X0.301500X0.986500X-0.301500X0.986500X-0.301500X-0.986500X0*%
%ADD32RoundRect,0.059250X-0.177750X0.602750X-0.177750X-0.602750X0.177750X-0.602750X0.177750X0.602750X0*%
%ADD33RoundRect,0.150000X-0.587500X-0.150000X0.587500X-0.150000X0.587500X0.150000X-0.587500X0.150000X0*%
%ADD34R,1.700000X1.700000*%
%ADD35O,1.700000X1.700000*%
%ADD36R,0.850000X1.600000*%
%ADD37RoundRect,0.100500X-0.986500X-0.301500X0.986500X-0.301500X0.986500X0.301500X-0.986500X0.301500X0*%
%ADD38RoundRect,0.102000X-0.750000X-0.450000X0.750000X-0.450000X0.750000X0.450000X-0.750000X0.450000X0*%
%ADD39RoundRect,0.102000X-0.450000X-0.750000X0.450000X-0.750000X0.450000X0.750000X-0.450000X0.750000X0*%
%ADD40RoundRect,0.102000X-0.450000X-0.450000X0.450000X-0.450000X0.450000X0.450000X-0.450000X0.450000X0*%
%ADD41RoundRect,0.102000X-0.200000X0.240000X-0.200000X-0.240000X0.200000X-0.240000X0.200000X0.240000X0*%
%ADD42RoundRect,0.102000X-0.525000X-0.325000X0.525000X-0.325000X0.525000X0.325000X-0.525000X0.325000X0*%
%ADD43RoundRect,0.100500X-0.301500X0.986500X-0.301500X-0.986500X0.301500X-0.986500X0.301500X0.986500X0*%
%ADD44RoundRect,0.102000X-1.650000X1.205000X-1.650000X-1.205000X1.650000X-1.205000X1.650000X1.205000X0*%
%ADD45RoundRect,0.102000X-1.075000X-2.750000X1.075000X-2.750000X1.075000X2.750000X-1.075000X2.750000X0*%
%ADD46R,2.200000X2.200000*%
%ADD47C,2.200000*%
G04 APERTURE END LIST*
D10*
%TO.C,R3*%
X55150000Y-44662500D03*
X55150000Y-42837500D03*
%TD*%
D11*
%TO.C,J1*%
X41507000Y-53804000D03*
X41507000Y-59584000D03*
D12*
X42582000Y-53494000D03*
X42582000Y-54294000D03*
D13*
X42582000Y-55444000D03*
X42582000Y-56444000D03*
X42582000Y-56944000D03*
X42582000Y-57944000D03*
D12*
X42582000Y-59094000D03*
X42582000Y-59894000D03*
X42582000Y-59894000D03*
X42582000Y-59094000D03*
D13*
X42582000Y-58444000D03*
X42582000Y-57444000D03*
X42582000Y-55944000D03*
X42582000Y-54944000D03*
D12*
X42582000Y-54294000D03*
X42582000Y-53494000D03*
D14*
X42007000Y-52374000D03*
D15*
X37827000Y-52374000D03*
D14*
X42007000Y-61014000D03*
D15*
X37827000Y-61014000D03*
%TD*%
D16*
%TO.C,D1*%
X47552000Y-52444000D03*
X44752000Y-52444000D03*
%TD*%
D17*
%TO.C,C1*%
X49400000Y-52337500D03*
X49400000Y-54062500D03*
%TD*%
D10*
%TO.C,R20*%
X40835000Y-43190500D03*
X40835000Y-41365500D03*
%TD*%
D18*
%TO.C,C13*%
X97104000Y-39918500D03*
X97104000Y-38193500D03*
%TD*%
%TO.C,C7*%
X56936000Y-37136000D03*
X56936000Y-35411000D03*
%TD*%
D19*
%TO.C,Q3*%
X57481500Y-63884500D03*
X55581500Y-63884500D03*
X56531500Y-65759500D03*
%TD*%
D20*
%TO.C,D5*%
X53600000Y-42875000D03*
X53600000Y-44625000D03*
%TD*%
D21*
%TO.C,C19*%
X96637500Y-45975000D03*
X94912500Y-45975000D03*
%TD*%
D18*
%TO.C,C6*%
X55188000Y-37136000D03*
X55188000Y-35411000D03*
%TD*%
D22*
%TO.C,H1*%
X57316000Y-49074000D03*
X56832726Y-50240726D03*
X56832726Y-47907274D03*
X55666000Y-50724000D03*
D23*
X55666000Y-49074000D03*
D22*
X55666000Y-47424000D03*
X54499274Y-50240726D03*
X54499274Y-47907274D03*
X54016000Y-49074000D03*
%TD*%
D24*
%TO.C,R6*%
X67293000Y-31810500D03*
X67293000Y-33635500D03*
%TD*%
D25*
%TO.C,C11*%
X84521500Y-52503000D03*
X86246500Y-52503000D03*
%TD*%
D26*
%TO.C,R16*%
X84662500Y-54800000D03*
X86487500Y-54800000D03*
%TD*%
D17*
%TO.C,C21*%
X50360000Y-39348000D03*
X50360000Y-41073000D03*
%TD*%
D27*
%TO.C,R13*%
X89762500Y-38225000D03*
X87937500Y-38225000D03*
%TD*%
D26*
%TO.C,R19*%
X44240500Y-48628000D03*
X46065500Y-48628000D03*
%TD*%
D28*
%TO.C,D7*%
X48328000Y-42161000D03*
X48328000Y-38461000D03*
%TD*%
D17*
%TO.C,C16*%
X83479000Y-44401500D03*
X83479000Y-46126500D03*
%TD*%
D29*
%TO.C,U5*%
X84850000Y-64275000D03*
X84850000Y-63625000D03*
X84850000Y-62975000D03*
X84850000Y-62325000D03*
X86450000Y-62325000D03*
X86450000Y-62975000D03*
X86450000Y-63625000D03*
X86450000Y-64275000D03*
%TD*%
D18*
%TO.C,C14*%
X88178000Y-64068500D03*
X88178000Y-62343500D03*
%TD*%
D30*
%TO.C,D2*%
X49650000Y-57885000D03*
X49650000Y-56565000D03*
%TD*%
%TO.C,D4*%
X50875000Y-53660000D03*
X50875000Y-52340000D03*
%TD*%
D31*
%TO.C,U7*%
X95595000Y-57070000D03*
X96865000Y-57070000D03*
X98135000Y-57070000D03*
X99405000Y-57070000D03*
X99405000Y-52130000D03*
X98135000Y-52130000D03*
X96865000Y-52130000D03*
X95595000Y-52130000D03*
%TD*%
D26*
%TO.C,R7*%
X80762500Y-40900000D03*
X82587500Y-40900000D03*
%TD*%
D17*
%TO.C,C8*%
X56936000Y-39475000D03*
X56936000Y-41200000D03*
%TD*%
D18*
%TO.C,C9*%
X71181000Y-33585500D03*
X71181000Y-31860500D03*
%TD*%
D24*
%TO.C,R22*%
X42613000Y-45175500D03*
X42613000Y-47000500D03*
%TD*%
D26*
%TO.C,R24*%
X55619000Y-59996000D03*
X57444000Y-59996000D03*
%TD*%
D32*
%TO.C,U2*%
X84483000Y-48038500D03*
X83983000Y-48038500D03*
X83483000Y-48038500D03*
X82983000Y-48038500D03*
X82983000Y-50848500D03*
X83483000Y-50848500D03*
X83983000Y-50848500D03*
X84483000Y-50848500D03*
%TD*%
D33*
%TO.C,Q2*%
X84700000Y-56500000D03*
X84700000Y-58400000D03*
X86575000Y-57450000D03*
%TD*%
D27*
%TO.C,R17*%
X57444000Y-61774000D03*
X55619000Y-61774000D03*
%TD*%
D18*
%TO.C,C12*%
X95326000Y-39918500D03*
X95326000Y-38193500D03*
%TD*%
D26*
%TO.C,R2*%
X44537500Y-59075000D03*
X46362500Y-59075000D03*
%TD*%
D24*
%TO.C,R23*%
X40835000Y-45175500D03*
X40835000Y-47000500D03*
%TD*%
D18*
%TO.C,C4*%
X42500035Y-35801455D03*
X42500035Y-34076455D03*
%TD*%
D10*
%TO.C,R4*%
X55158000Y-41250000D03*
X55158000Y-39425000D03*
%TD*%
D18*
%TO.C,C10*%
X65593000Y-33573000D03*
X65593000Y-31848000D03*
%TD*%
D25*
%TO.C,C18*%
X98287500Y-45950000D03*
X100012500Y-45950000D03*
%TD*%
D34*
%TO.C,J5*%
X81320000Y-65838000D03*
D35*
X78780000Y-65838000D03*
X76240000Y-65838000D03*
X73700000Y-65838000D03*
X71160000Y-65838000D03*
X68620000Y-65838000D03*
X66080000Y-65838000D03*
X63540000Y-65838000D03*
X61000000Y-65838000D03*
%TD*%
D26*
%TO.C,R14*%
X91712500Y-38250000D03*
X93537500Y-38250000D03*
%TD*%
D36*
%TO.C,D6*%
X84481000Y-35273000D03*
X82731000Y-35273000D03*
X82731000Y-38773000D03*
X84481000Y-38773000D03*
%TD*%
D25*
%TO.C,C5*%
X39112500Y-34047000D03*
X40837500Y-34047000D03*
%TD*%
%TO.C,C20*%
X40825271Y-48613035D03*
X42550271Y-48613035D03*
%TD*%
D37*
%TO.C,U3*%
X88030000Y-39945000D03*
X88030000Y-41215000D03*
X88030000Y-42485000D03*
X88030000Y-43755000D03*
X92970000Y-43755000D03*
X92970000Y-42485000D03*
X92970000Y-41215000D03*
X92970000Y-39945000D03*
%TD*%
D24*
%TO.C,R5*%
X69459000Y-31810500D03*
X69459000Y-33635500D03*
%TD*%
D26*
%TO.C,R1*%
X44642000Y-54434000D03*
X46467000Y-54434000D03*
%TD*%
D38*
%TO.C,U1*%
X59945000Y-36340000D03*
X59945000Y-37610000D03*
X59945000Y-38880000D03*
X59945000Y-40150000D03*
X59945000Y-41420000D03*
X59945000Y-42690000D03*
X59945000Y-43960000D03*
X59945000Y-45230000D03*
X59945000Y-46500000D03*
X59945000Y-47770000D03*
X59945000Y-49040000D03*
X59945000Y-50310000D03*
X59945000Y-51580000D03*
X59945000Y-52850000D03*
D39*
X61710000Y-54100000D03*
X62980000Y-54100000D03*
X64250000Y-54100000D03*
X65520000Y-54100000D03*
X66790000Y-54100000D03*
X68060000Y-54100000D03*
X69330000Y-54100000D03*
X70600000Y-54100000D03*
X71870000Y-54100000D03*
X73140000Y-54100000D03*
X74410000Y-54100000D03*
X75680000Y-54100000D03*
D38*
X77445000Y-52850000D03*
X77445000Y-51580000D03*
X77445000Y-50310000D03*
X77445000Y-49040000D03*
X77445000Y-47770000D03*
X77445000Y-46500000D03*
X77445000Y-45230000D03*
X77445000Y-43960000D03*
X77445000Y-42690000D03*
X77445000Y-41420000D03*
X77445000Y-40150000D03*
X77445000Y-38880000D03*
X77445000Y-37610000D03*
X77445000Y-36340000D03*
D40*
X65795000Y-42660000D03*
X67195000Y-42660000D03*
X68595000Y-42660000D03*
X65795000Y-44060000D03*
X67195000Y-44060000D03*
X68595000Y-44060000D03*
X65795000Y-45460000D03*
X67195000Y-45460000D03*
X68595000Y-45460000D03*
%TD*%
D41*
%TO.C,D3*%
X47925000Y-54502500D03*
X47925000Y-55822500D03*
%TD*%
D42*
%TO.C,SW1*%
X73446000Y-31548000D03*
X77596000Y-31548000D03*
X73446000Y-33698000D03*
X77596000Y-33698000D03*
%TD*%
D26*
%TO.C,R18*%
X80836500Y-56434000D03*
X82661500Y-56434000D03*
%TD*%
D42*
%TO.C,SW2*%
X59696000Y-31548000D03*
X63846000Y-31548000D03*
X59696000Y-33698000D03*
X63846000Y-33698000D03*
%TD*%
D34*
%TO.C,J6*%
X81320000Y-61266000D03*
D35*
X78780000Y-61266000D03*
X76240000Y-61266000D03*
X73700000Y-61266000D03*
X71160000Y-61266000D03*
X68620000Y-61266000D03*
X66080000Y-61266000D03*
X63540000Y-61266000D03*
X61000000Y-61266000D03*
%TD*%
D43*
%TO.C,U9*%
X46423000Y-38090000D03*
X45153000Y-38090000D03*
X43883000Y-38090000D03*
X42613000Y-38090000D03*
X42613000Y-43040000D03*
X43883000Y-43040000D03*
X45153000Y-43040000D03*
X46423000Y-43040000D03*
D44*
X44518000Y-40565000D03*
%TD*%
D26*
%TO.C,R15*%
X96662500Y-49650000D03*
X98487500Y-49650000D03*
%TD*%
D45*
%TO.C,L1*%
X46625000Y-32775000D03*
X50475000Y-32775000D03*
%TD*%
D46*
%TO.C,J2*%
X89620000Y-32200000D03*
D47*
X92160000Y-32200000D03*
X94700000Y-32200000D03*
X97240000Y-32200000D03*
X99780000Y-32200000D03*
%TD*%
D25*
%TO.C,C2*%
X46550000Y-45159000D03*
X48275000Y-45159000D03*
%TD*%
%TO.C,C3*%
X46550000Y-46850000D03*
X48275000Y-46850000D03*
%TD*%
D18*
%TO.C,C15*%
X89725000Y-64062500D03*
X89725000Y-62337500D03*
%TD*%
D27*
%TO.C,R21*%
X40887500Y-35825000D03*
X39062500Y-35825000D03*
%TD*%
M02*
