G04 #@! TF.GenerationSoftware,KiCad,Pcbnew,8.0.5*
G04 #@! TF.CreationDate,2024-10-21T14:42:36+02:00*
G04 #@! TF.ProjectId,Master,4d617374-6572-42e6-9b69-6361645f7063,rev?*
G04 #@! TF.SameCoordinates,Original*
G04 #@! TF.FileFunction,Paste,Top*
G04 #@! TF.FilePolarity,Positive*
%FSLAX46Y46*%
G04 Gerber Fmt 4.6, Leading zero omitted, Abs format (unit mm)*
G04 Created by KiCad (PCBNEW 8.0.5) date 2024-10-21 14:42:36*
%MOMM*%
%LPD*%
G01*
G04 APERTURE LIST*
G04 Aperture macros list*
%AMRoundRect*
0 Rectangle with rounded corners*
0 $1 Rounding radius*
0 $2 $3 $4 $5 $6 $7 $8 $9 X,Y pos of 4 corners*
0 Add a 4 corners polygon primitive as box body*
4,1,4,$2,$3,$4,$5,$6,$7,$8,$9,$2,$3,0*
0 Add four circle primitives for the rounded corners*
1,1,$1+$1,$2,$3*
1,1,$1+$1,$4,$5*
1,1,$1+$1,$6,$7*
1,1,$1+$1,$8,$9*
0 Add four rect primitives between the rounded corners*
20,1,$1+$1,$2,$3,$4,$5,0*
20,1,$1+$1,$4,$5,$6,$7,0*
20,1,$1+$1,$6,$7,$8,$9,0*
20,1,$1+$1,$8,$9,$2,$3,0*%
G04 Aperture macros list end*
%ADD10C,0.010000*%
%ADD11RoundRect,0.237500X0.237500X-0.250000X0.237500X0.250000X-0.237500X0.250000X-0.237500X-0.250000X0*%
%ADD12RoundRect,0.150000X-0.425000X0.150000X-0.425000X-0.150000X0.425000X-0.150000X0.425000X0.150000X0*%
%ADD13RoundRect,0.075000X-0.500000X0.075000X-0.500000X-0.075000X0.500000X-0.075000X0.500000X0.075000X0*%
%ADD14O,2.100000X1.000000*%
%ADD15O,1.800000X1.000000*%
%ADD16R,1.200000X1.200000*%
%ADD17RoundRect,0.237500X-0.237500X0.300000X-0.237500X-0.300000X0.237500X-0.300000X0.237500X0.300000X0*%
%ADD18RoundRect,0.237500X-0.237500X0.250000X-0.237500X-0.250000X0.237500X-0.250000X0.237500X0.250000X0*%
%ADD19RoundRect,0.237500X0.237500X-0.300000X0.237500X0.300000X-0.237500X0.300000X-0.237500X-0.300000X0*%
%ADD20RoundRect,0.150000X-0.150000X0.587500X-0.150000X-0.587500X0.150000X-0.587500X0.150000X0.587500X0*%
%ADD21RoundRect,0.237500X-0.250000X-0.237500X0.250000X-0.237500X0.250000X0.237500X-0.250000X0.237500X0*%
%ADD22RoundRect,0.237500X-0.237500X0.287500X-0.237500X-0.287500X0.237500X-0.287500X0.237500X0.287500X0*%
%ADD23RoundRect,0.237500X0.300000X0.237500X-0.300000X0.237500X-0.300000X-0.237500X0.300000X-0.237500X0*%
%ADD24RoundRect,0.237500X-0.300000X-0.237500X0.300000X-0.237500X0.300000X0.237500X-0.300000X0.237500X0*%
%ADD25RoundRect,0.237500X0.250000X0.237500X-0.250000X0.237500X-0.250000X-0.237500X0.250000X-0.237500X0*%
%ADD26RoundRect,0.250000X-0.350000X-0.450000X0.350000X-0.450000X0.350000X0.450000X-0.350000X0.450000X0*%
%ADD27R,0.700000X1.200000*%
%ADD28R,0.400000X0.480000*%
%ADD29RoundRect,0.075000X0.225000X-0.910000X0.225000X0.910000X-0.225000X0.910000X-0.225000X-0.910000X0*%
%ADD30RoundRect,0.033750X-0.101250X0.526250X-0.101250X-0.526250X0.101250X-0.526250X0.101250X0.526250X0*%
%ADD31RoundRect,0.150000X-0.587500X-0.150000X0.587500X-0.150000X0.587500X0.150000X-0.587500X0.150000X0*%
%ADD32R,0.850000X1.600000*%
%ADD33RoundRect,0.075000X-0.910000X-0.225000X0.910000X-0.225000X0.910000X0.225000X-0.910000X0.225000X0*%
%ADD34R,1.500000X0.900000*%
%ADD35R,0.900000X1.500000*%
%ADD36R,0.900000X0.900000*%
%ADD37R,1.050000X0.650000*%
%ADD38RoundRect,0.075000X-0.225000X0.910000X-0.225000X-0.910000X0.225000X-0.910000X0.225000X0.910000X0*%
%ADD39R,2.150000X5.500000*%
%ADD40RoundRect,0.056250X0.188750X0.168750X-0.188750X0.168750X-0.188750X-0.168750X0.188750X-0.168750X0*%
%ADD41RoundRect,0.250000X0.350000X0.450000X-0.350000X0.450000X-0.350000X-0.450000X0.350000X-0.450000X0*%
G04 APERTURE END LIST*
D10*
X44383000Y-40430000D02*
X43143000Y-40430000D01*
X43143000Y-39630000D01*
X44383000Y-39630000D01*
X44383000Y-40430000D01*
G36*
X44383000Y-40430000D02*
G01*
X43143000Y-40430000D01*
X43143000Y-39630000D01*
X44383000Y-39630000D01*
X44383000Y-40430000D01*
G37*
X44383000Y-41500000D02*
X43143000Y-41500000D01*
X43143000Y-40700000D01*
X44383000Y-40700000D01*
X44383000Y-41500000D01*
G36*
X44383000Y-41500000D02*
G01*
X43143000Y-41500000D01*
X43143000Y-40700000D01*
X44383000Y-40700000D01*
X44383000Y-41500000D01*
G37*
X45893000Y-40430000D02*
X44653000Y-40430000D01*
X44653000Y-39630000D01*
X45893000Y-39630000D01*
X45893000Y-40430000D01*
G36*
X45893000Y-40430000D02*
G01*
X44653000Y-40430000D01*
X44653000Y-39630000D01*
X45893000Y-39630000D01*
X45893000Y-40430000D01*
G37*
X45893000Y-41500000D02*
X44653000Y-41500000D01*
X44653000Y-40700000D01*
X45893000Y-40700000D01*
X45893000Y-41500000D01*
G36*
X45893000Y-41500000D02*
G01*
X44653000Y-41500000D01*
X44653000Y-40700000D01*
X45893000Y-40700000D01*
X45893000Y-41500000D01*
G37*
D11*
X55150000Y-44662500D03*
X55150000Y-42837500D03*
D12*
X42423796Y-53494000D03*
X42423796Y-54294000D03*
D13*
X42423796Y-55444000D03*
X42423796Y-56444000D03*
X42423796Y-56944000D03*
X42423796Y-57944000D03*
D12*
X42423796Y-59094000D03*
X42423796Y-59894000D03*
X42423796Y-59894000D03*
X42423796Y-59094000D03*
D13*
X42423796Y-58444000D03*
X42423796Y-57444000D03*
X42423796Y-55944000D03*
X42423796Y-54944000D03*
D12*
X42423796Y-54294000D03*
X42423796Y-53494000D03*
D14*
X41848796Y-52374000D03*
D15*
X37668796Y-52374000D03*
D14*
X41848796Y-61014000D03*
D15*
X37668796Y-61014000D03*
D16*
X47393796Y-52444000D03*
X44593796Y-52444000D03*
D17*
X49241796Y-52337500D03*
X49241796Y-54062500D03*
X92242000Y-54561500D03*
X92242000Y-56286500D03*
D11*
X40835000Y-43190500D03*
X40835000Y-41365500D03*
D18*
X84893000Y-60250000D03*
X84893000Y-62075000D03*
D19*
X97104000Y-39918500D03*
X97104000Y-38193500D03*
X58095000Y-37202500D03*
X58095000Y-35477500D03*
D20*
X57481500Y-63884500D03*
X55581500Y-63884500D03*
X56531500Y-65759500D03*
D21*
X93087500Y-47550000D03*
X94912500Y-47550000D03*
D22*
X53600000Y-42875000D03*
X53600000Y-44625000D03*
D23*
X96637500Y-45975000D03*
X94912500Y-45975000D03*
D11*
X87416000Y-51002500D03*
X87416000Y-49177500D03*
D19*
X56480000Y-37202500D03*
X56480000Y-35477500D03*
D18*
X67293000Y-31810500D03*
X67293000Y-33635500D03*
D24*
X81119000Y-52630000D03*
X82844000Y-52630000D03*
X84521500Y-52630000D03*
X86246500Y-52630000D03*
D21*
X84662500Y-54800000D03*
X86487500Y-54800000D03*
D11*
X85892000Y-49986500D03*
X85892000Y-48161500D03*
D17*
X50360000Y-39348000D03*
X50360000Y-41073000D03*
D25*
X89762500Y-38225000D03*
X87937500Y-38225000D03*
D26*
X44344732Y-48846943D03*
X46344732Y-48846943D03*
D27*
X48328000Y-42161000D03*
X48328000Y-38461000D03*
D17*
X83990000Y-44417500D03*
X83990000Y-46142500D03*
D19*
X90458000Y-64574000D03*
X90458000Y-62849000D03*
D28*
X49491796Y-57885000D03*
X49491796Y-56565000D03*
X50716796Y-53660000D03*
X50716796Y-52340000D03*
D29*
X95595000Y-57070000D03*
X96865000Y-57070000D03*
X98135000Y-57070000D03*
X99405000Y-57070000D03*
X99405000Y-52130000D03*
X98135000Y-52130000D03*
X96865000Y-52130000D03*
X95595000Y-52130000D03*
D21*
X80762500Y-40900000D03*
X82587500Y-40900000D03*
D19*
X71181000Y-33585500D03*
X71181000Y-31860500D03*
D17*
X82442797Y-44401500D03*
X82442797Y-46126500D03*
D11*
X84893000Y-65480500D03*
X84893000Y-63655500D03*
D18*
X42613000Y-45175500D03*
X42613000Y-47000500D03*
D21*
X55619000Y-59996000D03*
X57444000Y-59996000D03*
D30*
X84483000Y-48038500D03*
X83983000Y-48038500D03*
X83483000Y-48038500D03*
X82983000Y-48038500D03*
X82983000Y-50848500D03*
X83483000Y-50848500D03*
X83983000Y-50848500D03*
X84483000Y-50848500D03*
D31*
X84700000Y-56500000D03*
X84700000Y-58400000D03*
X86575000Y-57450000D03*
D25*
X57444000Y-61774000D03*
X55619000Y-61774000D03*
D19*
X95326000Y-39918500D03*
X95326000Y-38193500D03*
D21*
X44379296Y-59075000D03*
X46204296Y-59075000D03*
D18*
X40835000Y-45175500D03*
X40835000Y-47000500D03*
X80812000Y-44605500D03*
X80812000Y-46430500D03*
D19*
X42500035Y-35801455D03*
X42500035Y-34076455D03*
X65593000Y-33573000D03*
X65593000Y-31848000D03*
D17*
X93766000Y-54561500D03*
X93766000Y-56286500D03*
D24*
X98287500Y-45950000D03*
X100012500Y-45950000D03*
D21*
X91712500Y-38250000D03*
X93537500Y-38250000D03*
D32*
X84481000Y-35273000D03*
X82731000Y-35273000D03*
X82731000Y-38773000D03*
X84481000Y-38773000D03*
D24*
X39112500Y-34047000D03*
X40837500Y-34047000D03*
X40825271Y-48613035D03*
X42550271Y-48613035D03*
D33*
X88030000Y-39945000D03*
X88030000Y-41215000D03*
X88030000Y-42485000D03*
X88030000Y-43755000D03*
X92970000Y-43755000D03*
X92970000Y-42485000D03*
X92970000Y-41215000D03*
X92970000Y-39945000D03*
D18*
X69459000Y-31810500D03*
X69459000Y-33635500D03*
D21*
X44483796Y-54434000D03*
X46308796Y-54434000D03*
D34*
X59945000Y-36340000D03*
X59945000Y-37610000D03*
X59945000Y-38880000D03*
X59945000Y-40150000D03*
X59945000Y-41420000D03*
X59945000Y-42690000D03*
X59945000Y-43960000D03*
X59945000Y-45230000D03*
X59945000Y-46500000D03*
X59945000Y-47770000D03*
X59945000Y-49040000D03*
X59945000Y-50310000D03*
X59945000Y-51580000D03*
X59945000Y-52850000D03*
D35*
X61710000Y-54100000D03*
X62980000Y-54100000D03*
X64250000Y-54100000D03*
X65520000Y-54100000D03*
X66790000Y-54100000D03*
X68060000Y-54100000D03*
X69330000Y-54100000D03*
X70600000Y-54100000D03*
X71870000Y-54100000D03*
X73140000Y-54100000D03*
X74410000Y-54100000D03*
X75680000Y-54100000D03*
D34*
X77445000Y-52850000D03*
X77445000Y-51580000D03*
X77445000Y-50310000D03*
X77445000Y-49040000D03*
X77445000Y-47770000D03*
X77445000Y-46500000D03*
X77445000Y-45230000D03*
X77445000Y-43960000D03*
X77445000Y-42690000D03*
X77445000Y-41420000D03*
X77445000Y-40150000D03*
X77445000Y-38880000D03*
X77445000Y-37610000D03*
X77445000Y-36340000D03*
D36*
X65795000Y-42660000D03*
X67195000Y-42660000D03*
X68595000Y-42660000D03*
X65795000Y-44060000D03*
X67195000Y-44060000D03*
X68595000Y-44060000D03*
X65795000Y-45460000D03*
X67195000Y-45460000D03*
X68595000Y-45460000D03*
D28*
X47766796Y-54502500D03*
X47766796Y-55822500D03*
D37*
X73446000Y-31548000D03*
X77596000Y-31548000D03*
X73446000Y-33698000D03*
X77596000Y-33698000D03*
D18*
X79288000Y-45725000D03*
X79288000Y-47550000D03*
D21*
X80836500Y-56434000D03*
X82661500Y-56434000D03*
D37*
X59696000Y-31548000D03*
X63846000Y-31548000D03*
X59696000Y-33698000D03*
X63846000Y-33698000D03*
D38*
X46423000Y-38090000D03*
X45153000Y-38090000D03*
X43883000Y-38090000D03*
X42613000Y-38090000D03*
X42613000Y-43040000D03*
X43883000Y-43040000D03*
X45153000Y-43040000D03*
X46423000Y-43040000D03*
D21*
X96662500Y-49650000D03*
X98487500Y-49650000D03*
D39*
X46625000Y-32775000D03*
X50475000Y-32775000D03*
D24*
X46550000Y-45159000D03*
X48275000Y-45159000D03*
X46550000Y-46850000D03*
X48275000Y-46850000D03*
D40*
X86440000Y-64778500D03*
X86440000Y-64128500D03*
X86440000Y-63478500D03*
X86440000Y-62828500D03*
X88380000Y-62828500D03*
X88380000Y-63478500D03*
X88380000Y-64128500D03*
X88380000Y-64778500D03*
D19*
X92005000Y-64568000D03*
X92005000Y-62843000D03*
D41*
X40784231Y-35824832D03*
X38784231Y-35824832D03*
M02*
