G04 #@! TF.GenerationSoftware,KiCad,Pcbnew,8.0.5*
G04 #@! TF.CreationDate,2024-10-21T14:28:59+02:00*
G04 #@! TF.ProjectId,Slave,536c6176-652e-46b6-9963-61645f706362,rev?*
G04 #@! TF.SameCoordinates,Original*
G04 #@! TF.FileFunction,Copper,L1,Top*
G04 #@! TF.FilePolarity,Positive*
%FSLAX46Y46*%
G04 Gerber Fmt 4.6, Leading zero omitted, Abs format (unit mm)*
G04 Created by KiCad (PCBNEW 8.0.5) date 2024-10-21 14:28:59*
%MOMM*%
%LPD*%
G01*
G04 APERTURE LIST*
G04 Aperture macros list*
%AMRoundRect*
0 Rectangle with rounded corners*
0 $1 Rounding radius*
0 $2 $3 $4 $5 $6 $7 $8 $9 X,Y pos of 4 corners*
0 Add a 4 corners polygon primitive as box body*
4,1,4,$2,$3,$4,$5,$6,$7,$8,$9,$2,$3,0*
0 Add four circle primitives for the rounded corners*
1,1,$1+$1,$2,$3*
1,1,$1+$1,$4,$5*
1,1,$1+$1,$6,$7*
1,1,$1+$1,$8,$9*
0 Add four rect primitives between the rounded corners*
20,1,$1+$1,$2,$3,$4,$5,0*
20,1,$1+$1,$4,$5,$6,$7,0*
20,1,$1+$1,$6,$7,$8,$9,0*
20,1,$1+$1,$8,$9,$2,$3,0*%
%AMOutline5P*
0 Free polygon, 5 corners , with rotation*
0 The origin of the aperture is its center*
0 number of corners: always 5*
0 $1 to $10 corner X, Y*
0 $11 Rotation angle, in degrees counterclockwise*
0 create outline with 5 corners*
4,1,5,$1,$2,$3,$4,$5,$6,$7,$8,$9,$10,$1,$2,$11*%
%AMOutline6P*
0 Free polygon, 6 corners , with rotation*
0 The origin of the aperture is its center*
0 number of corners: always 6*
0 $1 to $12 corner X, Y*
0 $13 Rotation angle, in degrees counterclockwise*
0 create outline with 6 corners*
4,1,6,$1,$2,$3,$4,$5,$6,$7,$8,$9,$10,$11,$12,$1,$2,$13*%
%AMOutline7P*
0 Free polygon, 7 corners , with rotation*
0 The origin of the aperture is its center*
0 number of corners: always 7*
0 $1 to $14 corner X, Y*
0 $15 Rotation angle, in degrees counterclockwise*
0 create outline with 7 corners*
4,1,7,$1,$2,$3,$4,$5,$6,$7,$8,$9,$10,$11,$12,$13,$14,$1,$2,$15*%
%AMOutline8P*
0 Free polygon, 8 corners , with rotation*
0 The origin of the aperture is its center*
0 number of corners: always 8*
0 $1 to $16 corner X, Y*
0 $17 Rotation angle, in degrees counterclockwise*
0 create outline with 8 corners*
4,1,8,$1,$2,$3,$4,$5,$6,$7,$8,$9,$10,$11,$12,$13,$14,$15,$16,$1,$2,$17*%
%AMFreePoly0*
4,1,19,0.550000,-0.750000,0.000000,-0.750000,0.000000,-0.744911,-0.071157,-0.744911,-0.207708,-0.704816,-0.327430,-0.627875,-0.420627,-0.520320,-0.479746,-0.390866,-0.500000,-0.250000,-0.500000,0.250000,-0.479746,0.390866,-0.420627,0.520320,-0.327430,0.627875,-0.207708,0.704816,-0.071157,0.744911,0.000000,0.744911,0.000000,0.750000,0.550000,0.750000,0.550000,-0.750000,0.550000,-0.750000,
$1*%
%AMFreePoly1*
4,1,19,0.000000,0.744911,0.071157,0.744911,0.207708,0.704816,0.327430,0.627875,0.420627,0.520320,0.479746,0.390866,0.500000,0.250000,0.500000,-0.250000,0.479746,-0.390866,0.420627,-0.520320,0.327430,-0.627875,0.207708,-0.704816,0.071157,-0.744911,0.000000,-0.744911,0.000000,-0.750000,-0.550000,-0.750000,-0.550000,0.750000,0.000000,0.750000,0.000000,0.744911,0.000000,0.744911,
$1*%
%AMFreePoly2*
4,1,53,0.180798,1.454629,0.352531,1.394537,0.506585,1.297738,0.635238,1.169085,0.732037,1.015031,0.792129,0.843298,0.812500,0.662500,0.792129,0.481702,0.732037,0.309969,0.635238,0.155915,0.506585,0.027262,0.352531,-0.069537,0.180798,-0.129629,0.000000,-0.150000,-0.180798,-0.129629,-0.352531,-0.069537,-0.506585,0.027262,-0.635238,0.155915,-0.732037,0.309969,-0.792129,0.481702,
-0.812500,0.662500,-0.517770,0.662500,-0.496797,0.516627,-0.435576,0.382572,-0.339067,0.271196,-0.215089,0.191520,-0.073686,0.150000,0.073686,0.150000,0.215089,0.191520,0.339067,0.271196,0.435576,0.382572,0.496797,0.516627,0.517770,0.662500,0.496797,0.808373,0.435576,0.942428,0.339067,1.053804,0.215089,1.133480,0.073686,1.175000,-0.073686,1.175000,-0.215089,1.133480,
-0.339067,1.053804,-0.435576,0.942428,-0.496797,0.808373,-0.517770,0.662500,-0.812500,0.662500,-0.792129,0.843298,-0.732037,1.015031,-0.635238,1.169085,-0.506585,1.297738,-0.352531,1.394537,-0.180798,1.454629,0.000000,1.475000,0.180798,1.454629,0.180798,1.454629,$1*%
G04 Aperture macros list end*
G04 #@! TA.AperFunction,ComponentPad*
%ADD10R,1.700000X1.700000*%
G04 #@! TD*
G04 #@! TA.AperFunction,ComponentPad*
%ADD11O,1.700000X1.700000*%
G04 #@! TD*
G04 #@! TA.AperFunction,SMDPad,CuDef*
%ADD12RoundRect,0.237500X0.250000X0.237500X-0.250000X0.237500X-0.250000X-0.237500X0.250000X-0.237500X0*%
G04 #@! TD*
G04 #@! TA.AperFunction,SMDPad,CuDef*
%ADD13RoundRect,0.237500X-0.300000X-0.237500X0.300000X-0.237500X0.300000X0.237500X-0.300000X0.237500X0*%
G04 #@! TD*
G04 #@! TA.AperFunction,SMDPad,CuDef*
%ADD14RoundRect,0.237500X-0.237500X0.300000X-0.237500X-0.300000X0.237500X-0.300000X0.237500X0.300000X0*%
G04 #@! TD*
G04 #@! TA.AperFunction,SMDPad,CuDef*
%ADD15RoundRect,0.237500X0.300000X0.237500X-0.300000X0.237500X-0.300000X-0.237500X0.300000X-0.237500X0*%
G04 #@! TD*
G04 #@! TA.AperFunction,SMDPad,CuDef*
%ADD16RoundRect,0.237500X0.237500X-0.250000X0.237500X0.250000X-0.237500X0.250000X-0.237500X-0.250000X0*%
G04 #@! TD*
G04 #@! TA.AperFunction,SMDPad,CuDef*
%ADD17RoundRect,0.150000X0.150000X0.425000X-0.150000X0.425000X-0.150000X-0.425000X0.150000X-0.425000X0*%
G04 #@! TD*
G04 #@! TA.AperFunction,SMDPad,CuDef*
%ADD18RoundRect,0.075000X0.075000X0.500000X-0.075000X0.500000X-0.075000X-0.500000X0.075000X-0.500000X0*%
G04 #@! TD*
G04 #@! TA.AperFunction,ComponentPad*
%ADD19O,1.000000X2.100000*%
G04 #@! TD*
G04 #@! TA.AperFunction,ComponentPad*
%ADD20O,1.000000X1.800000*%
G04 #@! TD*
G04 #@! TA.AperFunction,SMDPad,CuDef*
%ADD21RoundRect,0.237500X0.237500X-0.300000X0.237500X0.300000X-0.237500X0.300000X-0.237500X-0.300000X0*%
G04 #@! TD*
G04 #@! TA.AperFunction,SMDPad,CuDef*
%ADD22RoundRect,0.150000X0.587500X0.150000X-0.587500X0.150000X-0.587500X-0.150000X0.587500X-0.150000X0*%
G04 #@! TD*
G04 #@! TA.AperFunction,SMDPad,CuDef*
%ADD23RoundRect,0.033750X0.526250X0.101250X-0.526250X0.101250X-0.526250X-0.101250X0.526250X-0.101250X0*%
G04 #@! TD*
G04 #@! TA.AperFunction,ComponentPad*
%ADD24R,2.200000X2.200000*%
G04 #@! TD*
G04 #@! TA.AperFunction,ComponentPad*
%ADD25C,2.200000*%
G04 #@! TD*
G04 #@! TA.AperFunction,SMDPad,CuDef*
%ADD26FreePoly0,0.000000*%
G04 #@! TD*
G04 #@! TA.AperFunction,SMDPad,CuDef*
%ADD27R,1.000000X1.500000*%
G04 #@! TD*
G04 #@! TA.AperFunction,SMDPad,CuDef*
%ADD28FreePoly1,0.000000*%
G04 #@! TD*
G04 #@! TA.AperFunction,SMDPad,CuDef*
%ADD29R,0.600000X0.522000*%
G04 #@! TD*
G04 #@! TA.AperFunction,SMDPad,CuDef*
%ADD30FreePoly2,270.000000*%
G04 #@! TD*
G04 #@! TA.AperFunction,SMDPad,CuDef*
%ADD31RoundRect,0.237500X-0.250000X-0.237500X0.250000X-0.237500X0.250000X0.237500X-0.250000X0.237500X0*%
G04 #@! TD*
G04 #@! TA.AperFunction,SMDPad,CuDef*
%ADD32R,0.600000X1.750000*%
G04 #@! TD*
G04 #@! TA.AperFunction,SMDPad,CuDef*
%ADD33RoundRect,0.075000X0.910000X0.225000X-0.910000X0.225000X-0.910000X-0.225000X0.910000X-0.225000X0*%
G04 #@! TD*
G04 #@! TA.AperFunction,SMDPad,CuDef*
%ADD34R,0.650000X1.050000*%
G04 #@! TD*
G04 #@! TA.AperFunction,SMDPad,CuDef*
%ADD35RoundRect,0.150000X0.150000X-0.850000X0.150000X0.850000X-0.150000X0.850000X-0.150000X-0.850000X0*%
G04 #@! TD*
G04 #@! TA.AperFunction,SMDPad,CuDef*
%ADD36R,0.400000X0.800000*%
G04 #@! TD*
G04 #@! TA.AperFunction,SMDPad,CuDef*
%ADD37R,0.800000X0.400000*%
G04 #@! TD*
G04 #@! TA.AperFunction,SMDPad,CuDef*
%ADD38Outline5P,-0.600000X0.204000X-0.204000X0.600000X0.600000X0.600000X0.600000X-0.600000X-0.600000X-0.600000X270.000000*%
G04 #@! TD*
G04 #@! TA.AperFunction,SMDPad,CuDef*
%ADD39R,1.200000X1.200000*%
G04 #@! TD*
G04 #@! TA.AperFunction,SMDPad,CuDef*
%ADD40R,0.800000X0.800000*%
G04 #@! TD*
G04 #@! TA.AperFunction,ComponentPad*
%ADD41C,0.700000*%
G04 #@! TD*
G04 #@! TA.AperFunction,ComponentPad*
%ADD42C,4.400000*%
G04 #@! TD*
G04 #@! TA.AperFunction,SMDPad,CuDef*
%ADD43RoundRect,0.075000X-0.225000X0.910000X-0.225000X-0.910000X0.225000X-0.910000X0.225000X0.910000X0*%
G04 #@! TD*
G04 #@! TA.AperFunction,SMDPad,CuDef*
%ADD44R,0.480000X0.400000*%
G04 #@! TD*
G04 #@! TA.AperFunction,SMDPad,CuDef*
%ADD45R,1.600000X0.850000*%
G04 #@! TD*
G04 #@! TA.AperFunction,SMDPad,CuDef*
%ADD46RoundRect,0.056250X-0.188750X-0.168750X0.188750X-0.168750X0.188750X0.168750X-0.188750X0.168750X0*%
G04 #@! TD*
G04 #@! TA.AperFunction,ViaPad*
%ADD47C,0.600000*%
G04 #@! TD*
G04 #@! TA.AperFunction,Conductor*
%ADD48C,0.600000*%
G04 #@! TD*
G04 #@! TA.AperFunction,Conductor*
%ADD49C,0.300000*%
G04 #@! TD*
G04 #@! TA.AperFunction,Conductor*
%ADD50C,0.400000*%
G04 #@! TD*
G04 #@! TA.AperFunction,Conductor*
%ADD51C,0.500000*%
G04 #@! TD*
G04 APERTURE END LIST*
D10*
X34798000Y-52324000D03*
D11*
X34798000Y-54864000D03*
X34798000Y-57404000D03*
X34798000Y-59944000D03*
X34798000Y-62484000D03*
X34798000Y-65024000D03*
X34798000Y-67564000D03*
D12*
X61142500Y-62880000D03*
X59317500Y-62880000D03*
D13*
X67163500Y-73365500D03*
X68888500Y-73365500D03*
D14*
X62611000Y-62945000D03*
X62611000Y-64670000D03*
D15*
X49630500Y-69342000D03*
X47905500Y-69342000D03*
X56412500Y-46736000D03*
X54687500Y-46736000D03*
D14*
X52762000Y-78385500D03*
X52762000Y-80110500D03*
D16*
X44390000Y-42312500D03*
X44390000Y-40487500D03*
D14*
X22724000Y-56649600D03*
X22724000Y-58374600D03*
D17*
X41402000Y-44704000D03*
X40602000Y-44704000D03*
D18*
X39452000Y-44704000D03*
X38452000Y-44704000D03*
X37952000Y-44704000D03*
X36952000Y-44704000D03*
D17*
X35802000Y-44704000D03*
X35002000Y-44704000D03*
X35002000Y-44704000D03*
X35802000Y-44704000D03*
D18*
X36452000Y-44704000D03*
X37452000Y-44704000D03*
X38952000Y-44704000D03*
X39952000Y-44704000D03*
D17*
X40602000Y-44704000D03*
X41402000Y-44704000D03*
D19*
X42522000Y-44129000D03*
D20*
X42522000Y-39949000D03*
D19*
X33882000Y-44129000D03*
D20*
X33882000Y-39949000D03*
D13*
X50699500Y-46482000D03*
X52424500Y-46482000D03*
D14*
X23448000Y-52645500D03*
X23448000Y-54370500D03*
D21*
X71374000Y-65886500D03*
X71374000Y-64161500D03*
D12*
X62732500Y-61270000D03*
X60907500Y-61270000D03*
D22*
X40662500Y-71512000D03*
X40662500Y-69612000D03*
X38787500Y-70562000D03*
D23*
X60206000Y-65774000D03*
X60206000Y-65274000D03*
X60206000Y-64774000D03*
X60206000Y-64274000D03*
X57396000Y-64274000D03*
X57396000Y-64774000D03*
X57396000Y-65274000D03*
X57396000Y-65774000D03*
D24*
X73660000Y-78770000D03*
D25*
X71120000Y-78770000D03*
X68580000Y-78770000D03*
X66040000Y-78770000D03*
X63500000Y-78770000D03*
D26*
X69947000Y-69215000D03*
D27*
X71247000Y-69215000D03*
D28*
X72547000Y-69215000D03*
D12*
X67160500Y-71501000D03*
X65335500Y-71501000D03*
D14*
X54356000Y-78385500D03*
X54356000Y-80110500D03*
D10*
X48504000Y-79248000D03*
D11*
X45964000Y-79248000D03*
X43424000Y-79248000D03*
X40884000Y-79248000D03*
D29*
X27942000Y-58514000D03*
X27942000Y-57692000D03*
D30*
X26379500Y-56440000D03*
D29*
X26142000Y-57692000D03*
X26142000Y-58514000D03*
X27042000Y-58514000D03*
D31*
X55983500Y-79756000D03*
X57808500Y-79756000D03*
D32*
X23042000Y-62484000D03*
X24042000Y-60734000D03*
X25042000Y-62484000D03*
X26042000Y-60734000D03*
X27042000Y-62484000D03*
X28042000Y-60734000D03*
X29042000Y-62484000D03*
D15*
X65522500Y-73400000D03*
X63797500Y-73400000D03*
D33*
X59765000Y-76635000D03*
X59765000Y-75365000D03*
X59765000Y-74095000D03*
X59765000Y-72825000D03*
X54825000Y-72825000D03*
X54825000Y-74095000D03*
X54825000Y-75365000D03*
X54825000Y-76635000D03*
D12*
X36332500Y-46736000D03*
X34507500Y-46736000D03*
D34*
X54356000Y-44958000D03*
X54356000Y-40808000D03*
X56506000Y-44958000D03*
X56506000Y-40808000D03*
D16*
X37338000Y-63904500D03*
X37338000Y-62079500D03*
D35*
X40360000Y-67220000D03*
X41630000Y-67220000D03*
X42900000Y-67220000D03*
X44170000Y-67220000D03*
X45440000Y-67220000D03*
X46710000Y-67220000D03*
X47980000Y-67220000D03*
X49250000Y-67220000D03*
X49250000Y-62220000D03*
X47980000Y-62220000D03*
X46710000Y-62220000D03*
X45440000Y-62220000D03*
X44170000Y-62220000D03*
X42900000Y-62220000D03*
X41630000Y-62220000D03*
X40360000Y-62220000D03*
D36*
X71218000Y-44196000D03*
X70368000Y-44196000D03*
X69518000Y-44196000D03*
X68668000Y-44196000D03*
X67818000Y-44196000D03*
X66968000Y-44196000D03*
X66118000Y-44196000D03*
X65268000Y-44196000D03*
X64418000Y-44196000D03*
X63568000Y-44196000D03*
X62718000Y-44196000D03*
X61868000Y-44196000D03*
X61018000Y-44196000D03*
X60168000Y-44196000D03*
X59318000Y-44196000D03*
D37*
X58268000Y-45246000D03*
X58268000Y-46096000D03*
X58268000Y-46946000D03*
X58268000Y-47796000D03*
X58268000Y-48646000D03*
X58268000Y-49496000D03*
X58268000Y-50346000D03*
X58268000Y-51196000D03*
X58268000Y-52046000D03*
X58268000Y-52896000D03*
X58268000Y-53746000D03*
X58268000Y-54596000D03*
X58268000Y-55446000D03*
X58268000Y-56296000D03*
X58268000Y-57146000D03*
D36*
X59318000Y-58196000D03*
X60168000Y-58196000D03*
X61018000Y-58196000D03*
X61868000Y-58196000D03*
X62718000Y-58196000D03*
X63568000Y-58196000D03*
X64418000Y-58196000D03*
X65268000Y-58196000D03*
X66118000Y-58196000D03*
X66968000Y-58196000D03*
X67818000Y-58196000D03*
X68668000Y-58196000D03*
X69518000Y-58196000D03*
X70368000Y-58196000D03*
X71218000Y-58196000D03*
D37*
X72268000Y-57146000D03*
X72268000Y-56296000D03*
X72268000Y-55446000D03*
X72268000Y-54596000D03*
X72268000Y-53746000D03*
X72268000Y-52896000D03*
X72268000Y-52046000D03*
X72268000Y-51196000D03*
X72268000Y-50346000D03*
X72268000Y-49496000D03*
X72268000Y-48646000D03*
X72268000Y-47796000D03*
X72268000Y-46946000D03*
X72268000Y-46096000D03*
X72268000Y-45246000D03*
D38*
X66918000Y-49546000D03*
D39*
X65268000Y-49546000D03*
X63618000Y-49546000D03*
X66918000Y-51196000D03*
X65268000Y-51196000D03*
X63618000Y-51196000D03*
X66918000Y-52846000D03*
X65268000Y-52846000D03*
X63618000Y-52846000D03*
D40*
X72268000Y-44196000D03*
X58268000Y-44196000D03*
X58268000Y-58196000D03*
X72268000Y-58196000D03*
D14*
X46736000Y-71127500D03*
X46736000Y-72852500D03*
D15*
X45415096Y-49066380D03*
X43690096Y-49066380D03*
D16*
X64770000Y-42314500D03*
X64770000Y-40489500D03*
D13*
X43180500Y-74626000D03*
X44905500Y-74626000D03*
D41*
X24350000Y-49150000D03*
X24833274Y-47983274D03*
X24833274Y-50316726D03*
X26000000Y-47500000D03*
D42*
X26000000Y-49150000D03*
D41*
X26000000Y-50800000D03*
X27166726Y-47983274D03*
X27166726Y-50316726D03*
X27650000Y-49150000D03*
D43*
X68072000Y-64332000D03*
X66802000Y-64332000D03*
X65532000Y-64332000D03*
X64262000Y-64332000D03*
X64262000Y-69272000D03*
X65532000Y-69272000D03*
X66802000Y-69272000D03*
X68072000Y-69272000D03*
D31*
X68683500Y-71501000D03*
X70508500Y-71501000D03*
D39*
X45342000Y-47130000D03*
X42542000Y-47130000D03*
D21*
X71374000Y-42264500D03*
X71374000Y-40539500D03*
D44*
X40422553Y-47133701D03*
X39102553Y-47133701D03*
D16*
X37338000Y-67206500D03*
X37338000Y-65381500D03*
D21*
X69850000Y-65886500D03*
X69850000Y-64161500D03*
D16*
X48366441Y-72887568D03*
X48366441Y-71062568D03*
X43281000Y-72895000D03*
X43281000Y-71070000D03*
D14*
X24248000Y-56649600D03*
X24248000Y-58374600D03*
D15*
X55726500Y-66294000D03*
X54001500Y-66294000D03*
D31*
X54637500Y-48260000D03*
X56462500Y-48260000D03*
D16*
X44805000Y-72895000D03*
X44805000Y-71070000D03*
D14*
X38582000Y-73295500D03*
X38582000Y-75020500D03*
D31*
X55475500Y-71120000D03*
X57300500Y-71120000D03*
X56685329Y-69565453D03*
X58510329Y-69565453D03*
D34*
X52578000Y-40808000D03*
X52578000Y-44958000D03*
X50428000Y-40808000D03*
X50428000Y-44958000D03*
D45*
X59210000Y-40273000D03*
X59210000Y-42023000D03*
X62710000Y-42023000D03*
X62710000Y-40273000D03*
D14*
X25010000Y-52604500D03*
X25010000Y-54329500D03*
D44*
X44388938Y-50539396D03*
X45708938Y-50539396D03*
D46*
X28266000Y-52365000D03*
X28266000Y-53015000D03*
X28266000Y-53665000D03*
X28266000Y-54315000D03*
X26326000Y-54315000D03*
X26326000Y-53665000D03*
X26326000Y-53015000D03*
X26326000Y-52365000D03*
D16*
X49988511Y-72888203D03*
X49988511Y-71063203D03*
D12*
X59290000Y-78232000D03*
X57465000Y-78232000D03*
D21*
X69850000Y-42264500D03*
X69850000Y-40539500D03*
D13*
X54001500Y-67818000D03*
X55726500Y-67818000D03*
D14*
X62611000Y-66320500D03*
X62611000Y-68045500D03*
D41*
X51690000Y-62865000D03*
X52173274Y-61698274D03*
X52173274Y-64031726D03*
X53340000Y-61215000D03*
D42*
X53340000Y-62865000D03*
D41*
X53340000Y-64515000D03*
X54506726Y-61698274D03*
X54506726Y-64031726D03*
X54990000Y-62865000D03*
D12*
X52474500Y-48006000D03*
X50649500Y-48006000D03*
D44*
X36940000Y-48514000D03*
X38260000Y-48514000D03*
D47*
X57658000Y-79248000D03*
X45466000Y-48006000D03*
X44903000Y-48967000D03*
X55559000Y-69409000D03*
X51588500Y-78385500D03*
X70231000Y-73406000D03*
X47244000Y-40386000D03*
X60452000Y-69088000D03*
X57404000Y-44196000D03*
X39116000Y-42418000D03*
X39370000Y-51816000D03*
X22724000Y-61214000D03*
X44196000Y-39370000D03*
X67100000Y-80520000D03*
X42037000Y-45720000D03*
X41402000Y-48260000D03*
X66548000Y-57023000D03*
X40132000Y-39878000D03*
X69750000Y-61380000D03*
X26026000Y-62738000D03*
X22724000Y-50546000D03*
X64040000Y-62190000D03*
X63246000Y-46990000D03*
X63246000Y-76454000D03*
X54102000Y-50038000D03*
X36576000Y-60960000D03*
X45974000Y-43434000D03*
X52070000Y-67818000D03*
X51562000Y-72644000D03*
X65913000Y-62484000D03*
X56896000Y-61468000D03*
X60706000Y-51054000D03*
X23232000Y-60452000D03*
X56134000Y-61722000D03*
X22470000Y-51308000D03*
X38100000Y-56896000D03*
X57404000Y-74726800D03*
X33655000Y-46482000D03*
X40640000Y-48260000D03*
X51562000Y-73406000D03*
X47244000Y-41402000D03*
X57658000Y-41910000D03*
X69980000Y-62040000D03*
X69596000Y-57150000D03*
X37465000Y-78232000D03*
X72644000Y-59537600D03*
X53594000Y-39624000D03*
X50927000Y-58039000D03*
X35560000Y-39878000D03*
X39370000Y-56896000D03*
X52959000Y-67945000D03*
X53848000Y-46736000D03*
X28312000Y-51054000D03*
X47498000Y-64770000D03*
X43053000Y-45593000D03*
X62611000Y-73533000D03*
X60706000Y-71374000D03*
X22570000Y-60452000D03*
X70480000Y-61480000D03*
X35560000Y-71628000D03*
X62992000Y-69088000D03*
X57150000Y-76200000D03*
X35560000Y-70612000D03*
X74676000Y-76200000D03*
X36322000Y-42418000D03*
X63627000Y-57150000D03*
X59690000Y-71374000D03*
X69469000Y-77216000D03*
X67056000Y-46990000D03*
X46482000Y-76962000D03*
X57404000Y-58166000D03*
X38100000Y-51816000D03*
X61214000Y-66802000D03*
X43180000Y-50546000D03*
X50038000Y-80518000D03*
X23232000Y-51308000D03*
X43434000Y-64770000D03*
X68834000Y-57150000D03*
X73660000Y-76200000D03*
X37318436Y-77221756D03*
X28058000Y-62738000D03*
X38608000Y-57912000D03*
X67310000Y-40894000D03*
X33528000Y-47244000D03*
X71374000Y-38862000D03*
X65024000Y-67310000D03*
X34163000Y-42545000D03*
X52451000Y-68580000D03*
X69850000Y-38862000D03*
X40894000Y-76454000D03*
X29050000Y-51150000D03*
X48006000Y-40894000D03*
X42418000Y-64770000D03*
X49022000Y-46228000D03*
X28800000Y-50400000D03*
X69088000Y-75692000D03*
X68326000Y-77089000D03*
X51487978Y-47713840D03*
X70713600Y-59436000D03*
X69538000Y-42940000D03*
X42418000Y-59944000D03*
X53594000Y-48514000D03*
X25010000Y-52832000D03*
X60706000Y-42926000D03*
X24248000Y-59182000D03*
X38354000Y-62992000D03*
X70500000Y-42940000D03*
X43434000Y-59944000D03*
X26153000Y-58547000D03*
X35802000Y-45593000D03*
X40663500Y-45823500D03*
X70485000Y-67564000D03*
X61018000Y-57092000D03*
D48*
X44903000Y-48967000D02*
X45315716Y-48967000D01*
X56528876Y-69409000D02*
X56685329Y-69565453D01*
X45315716Y-48967000D02*
X45415096Y-49066380D01*
X57658000Y-78425000D02*
X57465000Y-78232000D01*
X45466000Y-49015476D02*
X45415096Y-49066380D01*
X45466000Y-48006000D02*
X45466000Y-49015476D01*
X56685329Y-69565453D02*
X56685329Y-69910171D01*
X57658000Y-79605500D02*
X57808500Y-79756000D01*
X45466000Y-48006000D02*
X45466000Y-47254000D01*
X54356000Y-77104000D02*
X54825000Y-76635000D01*
X55559000Y-69409000D02*
X56528876Y-69409000D01*
X57658000Y-79248000D02*
X57658000Y-78425000D01*
X45415096Y-50245554D02*
X45708938Y-50539396D01*
X51588500Y-78385500D02*
X52762000Y-78385500D01*
X57658000Y-79248000D02*
X57658000Y-79605500D01*
X55559000Y-69409000D02*
X55726500Y-69241500D01*
D49*
X55726500Y-66294000D02*
X55726500Y-66272360D01*
D48*
X55726500Y-69241500D02*
X55726500Y-66294000D01*
X45415096Y-49066380D02*
X45415096Y-50245554D01*
X52762000Y-78385500D02*
X54356000Y-78385500D01*
X45466000Y-47254000D02*
X45342000Y-47130000D01*
X54356000Y-78385500D02*
X54356000Y-77104000D01*
D49*
X56724860Y-65274000D02*
X57396000Y-65274000D01*
D48*
X56685329Y-69910171D02*
X55475500Y-71120000D01*
D49*
X55726500Y-66272360D02*
X56724860Y-65274000D01*
D48*
X43180000Y-50546000D02*
X43180000Y-49784000D01*
X23232000Y-60452000D02*
X22570000Y-60452000D01*
X72644000Y-59537600D02*
X72644000Y-58572000D01*
D50*
X44805000Y-72895000D02*
X46693500Y-72895000D01*
D48*
X22724000Y-61214000D02*
X22724000Y-60960000D01*
X54687500Y-46736000D02*
X52678500Y-46736000D01*
X24248000Y-56649600D02*
X26032400Y-56649600D01*
X71374000Y-40539500D02*
X69850000Y-40539500D01*
D50*
X26680294Y-54315000D02*
X26326000Y-54315000D01*
X26326000Y-54315000D02*
X25024500Y-54315000D01*
D48*
X44382334Y-50546000D02*
X44388938Y-50539396D01*
X59097000Y-41910000D02*
X59210000Y-42023000D01*
D50*
X46693500Y-72895000D02*
X46736000Y-72852500D01*
D48*
X41656000Y-48260000D02*
X42456000Y-49060000D01*
X69469000Y-77216000D02*
X69469000Y-77881000D01*
X50445500Y-80110500D02*
X54356000Y-80110500D01*
X72644000Y-58572000D02*
X72268000Y-58196000D01*
X22724000Y-60960000D02*
X23232000Y-60452000D01*
D50*
X45680000Y-72020000D02*
X45680000Y-70260000D01*
D48*
X68580000Y-78770000D02*
X68580000Y-77343000D01*
X41402000Y-48260000D02*
X41656000Y-48260000D01*
D49*
X61214000Y-65610860D02*
X61214000Y-66802000D01*
D48*
X50038000Y-80518000D02*
X50445500Y-80110500D01*
X43180000Y-50546000D02*
X44382334Y-50546000D01*
X70368000Y-44196000D02*
X72268000Y-44196000D01*
X69596000Y-58118000D02*
X69518000Y-58196000D01*
X57658000Y-41910000D02*
X58166000Y-41910000D01*
D50*
X45470000Y-70050000D02*
X45470000Y-67250000D01*
D48*
X22724000Y-56649600D02*
X22724000Y-55295600D01*
X69469000Y-77881000D02*
X68580000Y-78770000D01*
D50*
X25024500Y-54315000D02*
X25010000Y-54329500D01*
D48*
X58268000Y-44196000D02*
X58268000Y-42012000D01*
D50*
X28266000Y-51100000D02*
X28266000Y-52365000D01*
D48*
X40640000Y-48260000D02*
X41402000Y-48260000D01*
D50*
X45680000Y-70260000D02*
X45470000Y-70050000D01*
D48*
X36576000Y-60960000D02*
X36322000Y-60960000D01*
X68683500Y-71501000D02*
X68683500Y-73160500D01*
D50*
X26717000Y-53015000D02*
X26971000Y-53269000D01*
D48*
X23042000Y-62484000D02*
X23042000Y-61532000D01*
X40422553Y-47133701D02*
X40422553Y-48042553D01*
X54356000Y-40808000D02*
X54356000Y-44958000D01*
X72349000Y-41514500D02*
X71374000Y-40539500D01*
X54687500Y-45289500D02*
X54356000Y-44958000D01*
X68834000Y-58030000D02*
X68668000Y-58196000D01*
X62760000Y-62945000D02*
X63285000Y-62945000D01*
X54687500Y-46736000D02*
X54687500Y-45289500D01*
D50*
X25042600Y-54498000D02*
X25010000Y-54530600D01*
D48*
X52424500Y-46482000D02*
X52424500Y-45111500D01*
X68929000Y-73406000D02*
X68888500Y-73365500D01*
X57404000Y-58166000D02*
X58238000Y-58166000D01*
X25010000Y-54530600D02*
X25010000Y-55887600D01*
X58268000Y-44196000D02*
X57404000Y-44196000D01*
X43180000Y-49784000D02*
X42456000Y-49060000D01*
D50*
X45470000Y-67250000D02*
X45440000Y-67220000D01*
D48*
X22724000Y-55295600D02*
X23448000Y-54571600D01*
X22570000Y-61060000D02*
X22724000Y-61214000D01*
X34507500Y-46736000D02*
X34507500Y-45198500D01*
X41402000Y-44704000D02*
X41402000Y-45085000D01*
X23448000Y-54571600D02*
X24969000Y-54571600D01*
X23042000Y-61532000D02*
X22724000Y-61214000D01*
X27942000Y-57692000D02*
X27825371Y-57692000D01*
X62611000Y-73533000D02*
X63664500Y-73533000D01*
X52424500Y-45111500D02*
X52578000Y-44958000D01*
X40422553Y-48042553D02*
X40640000Y-48260000D01*
X66802000Y-63373000D02*
X65913000Y-62484000D01*
X58268000Y-42012000D02*
X58166000Y-41910000D01*
X41402000Y-45085000D02*
X42037000Y-45720000D01*
X52678500Y-46736000D02*
X52424500Y-46482000D01*
X42456000Y-49060000D02*
X43097500Y-49060000D01*
X34507500Y-46736000D02*
X34036000Y-46736000D01*
D50*
X44905500Y-74626000D02*
X44905500Y-77766500D01*
D48*
X34507500Y-45198500D02*
X35002000Y-44704000D01*
X72268000Y-44196000D02*
X72268000Y-58196000D01*
X22570000Y-60452000D02*
X22570000Y-61060000D01*
D50*
X28312000Y-51054000D02*
X28266000Y-51100000D01*
D48*
X52726281Y-40940281D02*
X52637000Y-40851000D01*
X63664500Y-73533000D02*
X63797500Y-73400000D01*
X25010000Y-55887600D02*
X24248000Y-56649600D01*
X36322000Y-60960000D02*
X34798000Y-62484000D01*
X63285000Y-62945000D02*
X64040000Y-62190000D01*
X52578000Y-44958000D02*
X52578000Y-40808000D01*
D50*
X44805000Y-74525500D02*
X44905500Y-74626000D01*
D48*
X61903000Y-72825000D02*
X62611000Y-73533000D01*
X68580000Y-77343000D02*
X68326000Y-77089000D01*
D50*
X44805000Y-72895000D02*
X45680000Y-72020000D01*
D48*
X68683500Y-73160500D02*
X68888500Y-73365500D01*
X72268000Y-44196000D02*
X72349000Y-44115000D01*
D49*
X60877140Y-65274000D02*
X60206000Y-65274000D01*
D48*
X26032400Y-56649600D02*
X26242000Y-56440000D01*
X27825371Y-57692000D02*
X27373371Y-57240000D01*
X58166000Y-41910000D02*
X59097000Y-41910000D01*
X24969000Y-54571600D02*
X25010000Y-54530600D01*
D50*
X26971000Y-54024294D02*
X26680294Y-54315000D01*
X44805000Y-72895000D02*
X44805000Y-74525500D01*
D48*
X66802000Y-64332000D02*
X66802000Y-63373000D01*
X34036000Y-46736000D02*
X33528000Y-47244000D01*
D50*
X26326000Y-53015000D02*
X26717000Y-53015000D01*
X26971000Y-53269000D02*
X26971000Y-54024294D01*
D48*
X72349000Y-44115000D02*
X72349000Y-41514500D01*
X59765000Y-72825000D02*
X61903000Y-72825000D01*
X68834000Y-57150000D02*
X68834000Y-58030000D01*
X69596000Y-57150000D02*
X69596000Y-58118000D01*
D49*
X61214000Y-65610860D02*
X60877140Y-65274000D01*
D48*
X70231000Y-73406000D02*
X68929000Y-73406000D01*
X58238000Y-58166000D02*
X58268000Y-58196000D01*
X24248000Y-56649600D02*
X22724000Y-56649600D01*
D50*
X44905500Y-77766500D02*
X43424000Y-79248000D01*
X56506000Y-40808000D02*
X57866000Y-39448000D01*
D48*
X56506000Y-46388500D02*
X56412500Y-46482000D01*
X56462500Y-48260000D02*
X56462500Y-46532000D01*
X56506000Y-40808000D02*
X56506000Y-44958000D01*
D50*
X68668000Y-40220000D02*
X68668000Y-44196000D01*
D48*
X56462500Y-46532000D02*
X56412500Y-46482000D01*
X56506000Y-44958000D02*
X56506000Y-46388500D01*
D50*
X57866000Y-39448000D02*
X67896000Y-39448000D01*
X67896000Y-39448000D02*
X68668000Y-40220000D01*
X71218000Y-58931600D02*
X71218000Y-58196000D01*
D48*
X50699500Y-46482000D02*
X50546000Y-46482000D01*
D50*
X51195818Y-48006000D02*
X50649500Y-48006000D01*
D48*
X50649500Y-48006000D02*
X50546000Y-47902500D01*
X50546000Y-47902500D02*
X50546000Y-46482000D01*
X50546000Y-40926000D02*
X50428000Y-40808000D01*
X50546000Y-46482000D02*
X50546000Y-40926000D01*
D50*
X51487978Y-47713840D02*
X51195818Y-48006000D01*
X70713600Y-59436000D02*
X71218000Y-58931600D01*
D48*
X69850000Y-42264500D02*
X69518000Y-42596500D01*
D50*
X25249500Y-52365000D02*
X25010000Y-52604500D01*
D48*
X24248000Y-58374600D02*
X22724000Y-58374600D01*
X38787500Y-68792500D02*
X38787500Y-68656000D01*
X53594000Y-48514000D02*
X54383500Y-48514000D01*
X69518000Y-42596500D02*
X69518000Y-42960000D01*
D50*
X26326000Y-53665000D02*
X25971706Y-53665000D01*
D48*
X42418000Y-59944000D02*
X43434000Y-59944000D01*
D50*
X27261706Y-52365000D02*
X27911706Y-53015000D01*
X25010000Y-52604500D02*
X23489000Y-52604500D01*
D48*
X40360000Y-67220000D02*
X38787500Y-68792500D01*
D50*
X25138706Y-52832000D02*
X25010000Y-52832000D01*
D48*
X69538000Y-42940000D02*
X69518000Y-42960000D01*
X61124773Y-63134773D02*
X61124773Y-62700227D01*
X34798000Y-59944000D02*
X33782000Y-59944000D01*
X61124773Y-62700227D02*
X62555000Y-61270000D01*
D50*
X23448000Y-52645500D02*
X23545500Y-52548000D01*
D48*
X69518000Y-42960000D02*
X69518000Y-44196000D01*
D50*
X25971706Y-53665000D02*
X25138706Y-52832000D01*
D48*
X38787500Y-73090000D02*
X38582000Y-73295500D01*
X62738000Y-64362500D02*
X62352500Y-64362500D01*
X66338000Y-65995999D02*
X72091999Y-65995999D01*
D50*
X23489000Y-52604500D02*
X23448000Y-52645500D01*
X26326000Y-52365000D02*
X25249500Y-52365000D01*
X26326000Y-52365000D02*
X27261706Y-52365000D01*
D48*
X62838500Y-66040000D02*
X62738000Y-65939500D01*
X62555000Y-61270000D02*
X62732500Y-61270000D01*
X72768000Y-76462000D02*
X71120000Y-78110000D01*
X38787500Y-68656000D02*
X37338000Y-67206500D01*
X71374000Y-42264500D02*
X69850000Y-42264500D01*
X72091999Y-65995999D02*
X72768000Y-66672000D01*
X41636001Y-59944000D02*
X42418000Y-59944000D01*
X38250500Y-62992000D02*
X37338000Y-63904500D01*
X65532000Y-65189999D02*
X66338000Y-65995999D01*
X24248000Y-59182000D02*
X24248000Y-58374600D01*
X66293999Y-66040000D02*
X62838500Y-66040000D01*
X52982500Y-48514000D02*
X52474500Y-48006000D01*
X62611000Y-65151000D02*
X62738000Y-65024000D01*
X71120000Y-78110000D02*
X71120000Y-78770000D01*
X24042000Y-59692600D02*
X24042000Y-60734000D01*
X66338000Y-65995999D02*
X66293999Y-66040000D01*
X68260000Y-81630000D02*
X71120000Y-78770000D01*
X38787500Y-68792500D02*
X38787500Y-70562000D01*
X40360000Y-61220001D02*
X41636001Y-59944000D01*
X60706000Y-41902000D02*
X62335000Y-40273000D01*
D49*
X61214000Y-64774000D02*
X62326500Y-64774000D01*
D48*
X22724000Y-58374600D02*
X24042000Y-59692600D01*
X54383500Y-48514000D02*
X54637500Y-48260000D01*
X65532000Y-64332000D02*
X65532000Y-65189999D01*
X62335000Y-40273000D02*
X62710000Y-40273000D01*
X38354000Y-62992000D02*
X38250500Y-62992000D01*
X37338000Y-63904500D02*
X37441500Y-63904500D01*
X24042000Y-59692600D02*
X24248000Y-59486600D01*
X53594000Y-48514000D02*
X52982500Y-48514000D01*
X33312000Y-77216000D02*
X37726000Y-81630000D01*
X62611000Y-66320500D02*
X62611000Y-65151000D01*
X40360000Y-62220000D02*
X40360000Y-67220000D01*
D50*
X27911706Y-53015000D02*
X28266000Y-53015000D01*
D48*
X33782000Y-59944000D02*
X33312000Y-60414000D01*
D49*
X62326500Y-64774000D02*
X62738000Y-64362500D01*
X60206000Y-64774000D02*
X61214000Y-64774000D01*
D48*
X69538000Y-42940000D02*
X70500000Y-42940000D01*
X38787500Y-70562000D02*
X38787500Y-73090000D01*
X37726000Y-81630000D02*
X68260000Y-81630000D01*
X62352500Y-64362500D02*
X61124773Y-63134773D01*
X60706000Y-42926000D02*
X60706000Y-41902000D01*
X40360000Y-62220000D02*
X40360000Y-61220001D01*
X72768000Y-66672000D02*
X72768000Y-76462000D01*
X62738000Y-65024000D02*
X62738000Y-64362500D01*
X24248000Y-59486600D02*
X24248000Y-59182000D01*
X33312000Y-60414000D02*
X33312000Y-77216000D01*
D50*
X23448000Y-52645500D02*
X23523358Y-52645500D01*
X43281000Y-74525500D02*
X43180500Y-74626000D01*
X42900000Y-69274500D02*
X40662500Y-71512000D01*
X42900000Y-67220000D02*
X42900000Y-69274500D01*
X43180500Y-76951500D02*
X40884000Y-79248000D01*
X41898000Y-71512000D02*
X43281000Y-72895000D01*
X43180500Y-74626000D02*
X43180500Y-76951500D01*
X43281000Y-72895000D02*
X43281000Y-74525500D01*
X40662500Y-71512000D02*
X41898000Y-71512000D01*
X49250000Y-67220000D02*
X49250000Y-70324692D01*
X49250000Y-70324692D02*
X49988511Y-71063203D01*
X46710000Y-67220000D02*
X46710000Y-71101500D01*
X46710000Y-71101500D02*
X46736000Y-71127500D01*
X48366441Y-72887568D02*
X48366441Y-76845559D01*
X48366441Y-76845559D02*
X45964000Y-79248000D01*
X49988511Y-77763489D02*
X48504000Y-79248000D01*
X49988511Y-72888203D02*
X49988511Y-77763489D01*
X58380000Y-77594000D02*
X59436000Y-78650000D01*
X59436000Y-79756000D02*
X59690000Y-80010000D01*
X59436000Y-78650000D02*
X59436000Y-79756000D01*
X59690000Y-80010000D02*
X62260000Y-80010000D01*
D48*
X65532000Y-69272000D02*
X65532000Y-76738000D01*
X65532000Y-76738000D02*
X63500000Y-78770000D01*
D50*
X58380000Y-75765001D02*
X58380000Y-77594000D01*
X62260000Y-80010000D02*
X63500000Y-78770000D01*
X59765000Y-75365000D02*
X58780001Y-75365000D01*
X58780001Y-75365000D02*
X58380000Y-75765001D01*
D48*
X66802000Y-69272000D02*
X66802000Y-78008000D01*
D50*
X56210000Y-79832000D02*
X57009000Y-80631000D01*
X57009000Y-80631000D02*
X64179000Y-80631000D01*
X56210000Y-75765001D02*
X56210000Y-79832000D01*
X55809999Y-75365000D02*
X56210000Y-75765001D01*
D48*
X66802000Y-78008000D02*
X66040000Y-78770000D01*
D50*
X64179000Y-80631000D02*
X66040000Y-78770000D01*
D49*
X57394218Y-52046000D02*
X58268000Y-52046000D01*
X38452000Y-47914200D02*
X38702900Y-48165100D01*
X38452000Y-44704000D02*
X38452000Y-47914200D01*
X38289000Y-45629000D02*
X38452000Y-45466000D01*
X42480800Y-51943000D02*
X57291218Y-51943000D01*
X37452000Y-44704000D02*
X37452000Y-45382120D01*
X38452000Y-45466000D02*
X38452000Y-44704000D01*
X38260000Y-48514000D02*
X38354000Y-48514000D01*
X37698880Y-45629000D02*
X38289000Y-45629000D01*
X57291218Y-51943000D02*
X57394218Y-52046000D01*
X38354000Y-48514000D02*
X38702900Y-48165100D01*
X37452000Y-45382120D02*
X37698880Y-45629000D01*
X38702900Y-48165100D02*
X42480800Y-51943000D01*
D48*
X35802000Y-44704000D02*
X35802000Y-45593000D01*
X41970000Y-47130000D02*
X42034000Y-47130000D01*
X40663500Y-45823500D02*
X41970000Y-47130000D01*
X40602000Y-45762000D02*
X40663500Y-45823500D01*
X40602000Y-44704000D02*
X40602000Y-45762000D01*
D49*
X38705120Y-43779000D02*
X38198880Y-43779000D01*
X38952000Y-44025880D02*
X38705120Y-43779000D01*
X57516000Y-51196000D02*
X58268000Y-51196000D01*
X37952000Y-44025880D02*
X37952000Y-44704000D01*
X38198880Y-43779000D02*
X37952000Y-44025880D01*
X38952000Y-44704000D02*
X38952000Y-47698950D01*
X38952000Y-47698950D02*
X42688050Y-51435000D01*
X38952000Y-44704000D02*
X38952000Y-44025880D01*
X57277000Y-51435000D02*
X57516000Y-51196000D01*
X42688050Y-51435000D02*
X57277000Y-51435000D01*
D48*
X64770000Y-40489500D02*
X63236500Y-42023000D01*
X63236500Y-42023000D02*
X62710000Y-42023000D01*
D49*
X39452000Y-44025880D02*
X41165380Y-42312500D01*
X41165380Y-42312500D02*
X44390000Y-42312500D01*
X39452000Y-44704000D02*
X39452000Y-44025880D01*
X36332500Y-46736000D02*
X36452000Y-46616500D01*
X36452000Y-46616500D02*
X36452000Y-44704000D01*
D51*
X27134000Y-59746000D02*
X27942000Y-58938000D01*
X27942000Y-58938000D02*
X27942000Y-58514000D01*
D50*
X58268000Y-55446000D02*
X36756000Y-55446000D01*
D51*
X27134000Y-62392000D02*
X27134000Y-59746000D01*
D50*
X27042000Y-62484000D02*
X27134000Y-62392000D01*
X36756000Y-55446000D02*
X34798000Y-57404000D01*
D51*
X25526000Y-57669000D02*
X26069000Y-57669000D01*
D50*
X25042000Y-62484000D02*
X25123000Y-62403000D01*
X35066000Y-54596000D02*
X34798000Y-54864000D01*
D51*
X25050000Y-62380000D02*
X25042000Y-62388000D01*
X25042000Y-62388000D02*
X25042000Y-62484000D01*
X25042000Y-62484000D02*
X25173000Y-62353000D01*
D50*
X58268000Y-54596000D02*
X35066000Y-54596000D01*
D51*
X25173000Y-62353000D02*
X25173000Y-60857000D01*
X25250000Y-57945000D02*
X25526000Y-57669000D01*
X25250000Y-60780000D02*
X25250000Y-57945000D01*
X25173000Y-60857000D02*
X25250000Y-60780000D01*
X26042000Y-59818000D02*
X27042000Y-58818000D01*
X26042000Y-60734000D02*
X26042000Y-59818000D01*
D50*
X58268000Y-52896000D02*
X35370000Y-52896000D01*
D51*
X27042000Y-58818000D02*
X27042000Y-58514000D01*
D50*
X35370000Y-52896000D02*
X34798000Y-52324000D01*
X60386858Y-60395000D02*
X59299773Y-61482085D01*
X59317500Y-62880000D02*
X59317500Y-63062500D01*
X59317500Y-63062500D02*
X58156000Y-64224000D01*
X62718000Y-58196000D02*
X62718000Y-59306000D01*
X62718000Y-59306000D02*
X62229000Y-59795000D01*
X62229000Y-59795000D02*
X61533972Y-59795000D01*
X59299773Y-61482085D02*
X59299773Y-62586968D01*
X60933972Y-60395000D02*
X60386858Y-60395000D01*
X58156000Y-64224000D02*
X57396000Y-64224000D01*
X61533972Y-59795000D02*
X60933972Y-60395000D01*
X61782500Y-60395000D02*
X62541000Y-60395000D01*
X60206000Y-61971500D02*
X61782500Y-60395000D01*
X60206000Y-64224000D02*
X60206000Y-61971500D01*
X62541000Y-60395000D02*
X63568000Y-59368000D01*
X63568000Y-59368000D02*
X63568000Y-58196000D01*
X57300500Y-72899900D02*
X56105400Y-74095000D01*
X57572829Y-65950829D02*
X57572829Y-70073595D01*
X57531000Y-65909000D02*
X57572829Y-65950829D01*
D49*
X55293120Y-74095000D02*
X54825000Y-74095000D01*
D50*
X57572829Y-70073595D02*
X57300500Y-70345924D01*
X56105400Y-74095000D02*
X55293120Y-74095000D01*
X57300500Y-70345924D02*
X57300500Y-72899900D01*
D49*
X57396000Y-65774000D02*
X57531000Y-65909000D01*
D50*
X59765000Y-74095000D02*
X58780001Y-74095000D01*
X58380000Y-67060000D02*
X59600000Y-65840000D01*
X58780001Y-74095000D02*
X58380000Y-73694999D01*
X58380000Y-73694999D02*
X58380000Y-67060000D01*
D48*
X64770000Y-42314500D02*
X64418000Y-42666500D01*
X64418000Y-42666500D02*
X64418000Y-44196000D01*
D50*
X29378059Y-59964663D02*
X29389146Y-59512194D01*
X29378059Y-62147941D02*
X29378059Y-59964663D01*
X29378059Y-59501107D02*
X29378059Y-54422765D01*
X43409705Y-56296000D02*
X34798000Y-64907705D01*
X28620294Y-53665000D02*
X28266000Y-53665000D01*
X58268000Y-56296000D02*
X43409705Y-56296000D01*
X34798000Y-64907705D02*
X34798000Y-65024000D01*
X29389146Y-59512194D02*
X29378059Y-59501107D01*
X29378059Y-54422765D02*
X28620294Y-53665000D01*
X29042000Y-62484000D02*
X29378059Y-62147941D01*
X45440000Y-61220001D02*
X45440000Y-62220000D01*
X59318000Y-58196000D02*
X59318000Y-58746000D01*
X54960000Y-58980000D02*
X47680001Y-58980000D01*
X59068000Y-58996000D02*
X55016000Y-58996000D01*
X54980000Y-58960000D02*
X54960000Y-58980000D01*
X47680001Y-58980000D02*
X45440000Y-61220001D01*
X59318000Y-58746000D02*
X59068000Y-58996000D01*
X55016000Y-58996000D02*
X54980000Y-58960000D01*
D48*
X65278000Y-58928000D02*
X65278000Y-60198000D01*
X68072000Y-62992000D02*
X68072000Y-64205000D01*
X65268000Y-58196000D02*
X65268000Y-58918000D01*
D50*
X68072000Y-64205000D02*
X68199000Y-64332000D01*
D48*
X65268000Y-58918000D02*
X65278000Y-58928000D01*
X65278000Y-60198000D02*
X68072000Y-62992000D01*
D50*
X64262000Y-64332000D02*
X64389000Y-64332000D01*
D48*
X64262000Y-63651748D02*
X64262000Y-64332000D01*
X64845874Y-63067874D02*
X64262000Y-63651748D01*
X64845874Y-61797874D02*
X64845874Y-63067874D01*
X64418000Y-61370000D02*
X64845874Y-61797874D01*
X64418000Y-58196000D02*
X64418000Y-61370000D01*
D50*
X59316528Y-59596000D02*
X60168000Y-58744528D01*
X48334001Y-59596000D02*
X59316528Y-59596000D01*
X46710000Y-61220001D02*
X48334001Y-59596000D01*
X46710000Y-62220000D02*
X46710000Y-61220001D01*
X60168000Y-58744528D02*
X60168000Y-58196000D01*
X39340000Y-63657000D02*
X35433000Y-67564000D01*
X35433000Y-67564000D02*
X34798000Y-67564000D01*
X28724000Y-55164000D02*
X28266000Y-54706000D01*
X58268000Y-57146000D02*
X43408233Y-57146000D01*
X28042000Y-60734000D02*
X28724000Y-60052000D01*
X39340000Y-61214233D02*
X39340000Y-63657000D01*
X43408233Y-57146000D02*
X39340000Y-61214233D01*
X28724000Y-60052000D02*
X28724000Y-55164000D01*
X28266000Y-54706000D02*
X28266000Y-54315000D01*
X41630000Y-68644500D02*
X41630000Y-67220000D01*
X40662500Y-69612000D02*
X41630000Y-68644500D01*
X47980000Y-70676127D02*
X48366441Y-71062568D01*
X47980000Y-67220000D02*
X47980000Y-70676127D01*
X44170000Y-67220000D02*
X44170000Y-70435000D01*
X43535000Y-71070000D02*
X44170000Y-70435000D01*
X43281000Y-71070000D02*
X44805000Y-71070000D01*
X43281000Y-71070000D02*
X43535000Y-71070000D01*
X44170000Y-70435000D02*
X44805000Y-71070000D01*
D49*
X60159040Y-59845000D02*
X56486000Y-63518040D01*
X61868000Y-58196000D02*
X61868000Y-58646000D01*
X56486000Y-64550000D02*
X56710000Y-64774000D01*
X61868000Y-58646000D02*
X60669000Y-59845000D01*
X56710000Y-64774000D02*
X57396000Y-64774000D01*
X56486000Y-63518040D02*
X56486000Y-64550000D01*
X60669000Y-59845000D02*
X60159040Y-59845000D01*
D48*
X68072000Y-69272000D02*
X68072000Y-67945000D01*
X70739000Y-67564000D02*
X71247000Y-68072000D01*
D50*
X61018000Y-57092000D02*
X61018000Y-58196000D01*
D48*
X68072000Y-67945000D02*
X68453000Y-67564000D01*
X68453000Y-67564000D02*
X70485000Y-67564000D01*
X71247000Y-68072000D02*
X71247000Y-69215000D01*
X70485000Y-67564000D02*
X70739000Y-67564000D01*
X70508500Y-71501000D02*
X69947000Y-70939500D01*
X69947000Y-70939500D02*
X69947000Y-69215000D01*
G04 #@! TA.AperFunction,Conductor*
G36*
X36367119Y-67723050D02*
G01*
X36423052Y-67764922D01*
X36429323Y-67774135D01*
X36517657Y-67917346D01*
X36517660Y-67917350D01*
X36639650Y-68039340D01*
X36786484Y-68129908D01*
X36950247Y-68184174D01*
X37051323Y-68194500D01*
X37142559Y-68194499D01*
X37209597Y-68214183D01*
X37230240Y-68230818D01*
X37950681Y-68951259D01*
X37984166Y-69012582D01*
X37987000Y-69038940D01*
X37987000Y-69711496D01*
X37967315Y-69778535D01*
X37926121Y-69818228D01*
X37798138Y-69893916D01*
X37798129Y-69893923D01*
X37681923Y-70010129D01*
X37681917Y-70010137D01*
X37598255Y-70151603D01*
X37598254Y-70151606D01*
X37552402Y-70309426D01*
X37552401Y-70309432D01*
X37549500Y-70346298D01*
X37549500Y-70777701D01*
X37552401Y-70814567D01*
X37552402Y-70814573D01*
X37598254Y-70972393D01*
X37598255Y-70972396D01*
X37681917Y-71113862D01*
X37681923Y-71113870D01*
X37798129Y-71230076D01*
X37798133Y-71230079D01*
X37798135Y-71230081D01*
X37926121Y-71305771D01*
X37973804Y-71356840D01*
X37987000Y-71412503D01*
X37987000Y-72279706D01*
X37967315Y-72346745D01*
X37928097Y-72385244D01*
X37883653Y-72412657D01*
X37883649Y-72412660D01*
X37761661Y-72534648D01*
X37671093Y-72681481D01*
X37671091Y-72681486D01*
X37657982Y-72721047D01*
X37616826Y-72845247D01*
X37616826Y-72845248D01*
X37616825Y-72845248D01*
X37606500Y-72946315D01*
X37606500Y-73644669D01*
X37606501Y-73644687D01*
X37616825Y-73745752D01*
X37633545Y-73796208D01*
X37664624Y-73889998D01*
X37671092Y-73909515D01*
X37671093Y-73909518D01*
X37675718Y-73917016D01*
X37761659Y-74056349D01*
X37761661Y-74056351D01*
X37775982Y-74070672D01*
X37809467Y-74131995D01*
X37804483Y-74201687D01*
X37775985Y-74246032D01*
X37762052Y-74259965D01*
X37671551Y-74406688D01*
X37671546Y-74406699D01*
X37617319Y-74570347D01*
X37607000Y-74671345D01*
X37607000Y-74770500D01*
X39556999Y-74770500D01*
X39556999Y-74671360D01*
X39556998Y-74671345D01*
X39546680Y-74570347D01*
X39492453Y-74406699D01*
X39492448Y-74406688D01*
X39401947Y-74259965D01*
X39401944Y-74259961D01*
X39388017Y-74246034D01*
X39354532Y-74184711D01*
X39359516Y-74115019D01*
X39388017Y-74070672D01*
X39402340Y-74056350D01*
X39492908Y-73909516D01*
X39547174Y-73745753D01*
X39557500Y-73644677D01*
X39557499Y-73334388D01*
X39559882Y-73310197D01*
X39588000Y-73168844D01*
X39588000Y-72347127D01*
X39607685Y-72280088D01*
X39660489Y-72234333D01*
X39729647Y-72224389D01*
X39775120Y-72240394D01*
X39814602Y-72263744D01*
X39844978Y-72272569D01*
X39972426Y-72309597D01*
X39972429Y-72309597D01*
X39972431Y-72309598D01*
X40009306Y-72312500D01*
X40009314Y-72312500D01*
X41315686Y-72312500D01*
X41315694Y-72312500D01*
X41352569Y-72309598D01*
X41352571Y-72309597D01*
X41352573Y-72309597D01*
X41394191Y-72297505D01*
X41510398Y-72263744D01*
X41521041Y-72257449D01*
X41588762Y-72240266D01*
X41655025Y-72262424D01*
X41671843Y-72276500D01*
X42269181Y-72873837D01*
X42302666Y-72935160D01*
X42305500Y-72961517D01*
X42305500Y-73194168D01*
X42305501Y-73194187D01*
X42315825Y-73295252D01*
X42328794Y-73334389D01*
X42367840Y-73452221D01*
X42370092Y-73459015D01*
X42370093Y-73459018D01*
X42460661Y-73605852D01*
X42465138Y-73611513D01*
X42463233Y-73613018D01*
X42491191Y-73664219D01*
X42486207Y-73733911D01*
X42444335Y-73789844D01*
X42435126Y-73796113D01*
X42419652Y-73805657D01*
X42297661Y-73927648D01*
X42207093Y-74074481D01*
X42207091Y-74074486D01*
X42193660Y-74115019D01*
X42152826Y-74238247D01*
X42152826Y-74238248D01*
X42152825Y-74238248D01*
X42142500Y-74339315D01*
X42142500Y-74912669D01*
X42142501Y-74912687D01*
X42152825Y-75013752D01*
X42182158Y-75102272D01*
X42207092Y-75177516D01*
X42297660Y-75324350D01*
X42419650Y-75446340D01*
X42421098Y-75447233D01*
X42421882Y-75448104D01*
X42425317Y-75450821D01*
X42424852Y-75451407D01*
X42467821Y-75499180D01*
X42480000Y-75552771D01*
X42480000Y-76609980D01*
X42460315Y-76677019D01*
X42443681Y-76697661D01*
X41255994Y-77885347D01*
X41194671Y-77918832D01*
X41136225Y-77917442D01*
X41119410Y-77912937D01*
X40884001Y-77892341D01*
X40883999Y-77892341D01*
X40648596Y-77912936D01*
X40648586Y-77912938D01*
X40420344Y-77974094D01*
X40420335Y-77974098D01*
X40206171Y-78073964D01*
X40206169Y-78073965D01*
X40012597Y-78209505D01*
X39845505Y-78376597D01*
X39709965Y-78570169D01*
X39709964Y-78570171D01*
X39616401Y-78770816D01*
X39610479Y-78783519D01*
X39610098Y-78784335D01*
X39610094Y-78784344D01*
X39548938Y-79012586D01*
X39548936Y-79012596D01*
X39528341Y-79247999D01*
X39528341Y-79248000D01*
X39548936Y-79483403D01*
X39548938Y-79483413D01*
X39610094Y-79711655D01*
X39610096Y-79711659D01*
X39610097Y-79711663D01*
X39689801Y-79882588D01*
X39709965Y-79925830D01*
X39709967Y-79925834D01*
X39793624Y-80045308D01*
X39845505Y-80119401D01*
X40012599Y-80286495D01*
X40102285Y-80349294D01*
X40206165Y-80422032D01*
X40206167Y-80422033D01*
X40206170Y-80422035D01*
X40420337Y-80521903D01*
X40648592Y-80583063D01*
X40648597Y-80583063D01*
X40650411Y-80583384D01*
X40651141Y-80583746D01*
X40653821Y-80584464D01*
X40653676Y-80585002D01*
X40713014Y-80614410D01*
X40748905Y-80674356D01*
X40746689Y-80744191D01*
X40707070Y-80801741D01*
X40642625Y-80828736D01*
X40628880Y-80829500D01*
X38108940Y-80829500D01*
X38041901Y-80809815D01*
X38021259Y-80793181D01*
X34148819Y-76920741D01*
X34115334Y-76859418D01*
X34112500Y-76833060D01*
X34112500Y-75369654D01*
X37607001Y-75369654D01*
X37617319Y-75470652D01*
X37671546Y-75634300D01*
X37671551Y-75634311D01*
X37762052Y-75781034D01*
X37762055Y-75781038D01*
X37883961Y-75902944D01*
X37883965Y-75902947D01*
X38030688Y-75993448D01*
X38030699Y-75993453D01*
X38194347Y-76047680D01*
X38295352Y-76057999D01*
X38332000Y-76057999D01*
X38832000Y-76057999D01*
X38868640Y-76057999D01*
X38868654Y-76057998D01*
X38969652Y-76047680D01*
X39133300Y-75993453D01*
X39133311Y-75993448D01*
X39280034Y-75902947D01*
X39280038Y-75902944D01*
X39401944Y-75781038D01*
X39401947Y-75781034D01*
X39492448Y-75634311D01*
X39492453Y-75634300D01*
X39546680Y-75470652D01*
X39556999Y-75369654D01*
X39557000Y-75369641D01*
X39557000Y-75270500D01*
X38832000Y-75270500D01*
X38832000Y-76057999D01*
X38332000Y-76057999D01*
X38332000Y-75270500D01*
X37607001Y-75270500D01*
X37607001Y-75369654D01*
X34112500Y-75369654D01*
X34112500Y-68929099D01*
X34132185Y-68862060D01*
X34184989Y-68816305D01*
X34254147Y-68806361D01*
X34288899Y-68816715D01*
X34334337Y-68837903D01*
X34562592Y-68899063D01*
X34750918Y-68915539D01*
X34797999Y-68919659D01*
X34798000Y-68919659D01*
X34798001Y-68919659D01*
X34837234Y-68916226D01*
X35033408Y-68899063D01*
X35261663Y-68837903D01*
X35475830Y-68738035D01*
X35669401Y-68602495D01*
X35836495Y-68435401D01*
X35972035Y-68241830D01*
X36071903Y-68027663D01*
X36104264Y-67906886D01*
X36136356Y-67851299D01*
X36236106Y-67751549D01*
X36297427Y-67718066D01*
X36367119Y-67723050D01*
G37*
G04 #@! TD.AperFunction*
G04 #@! TA.AperFunction,Conductor*
G36*
X50760003Y-78124690D02*
G01*
X50796723Y-78184133D01*
X50800362Y-78230828D01*
X50797390Y-78257196D01*
X50795788Y-78267494D01*
X50788000Y-78306652D01*
X50788000Y-78333585D01*
X50787220Y-78347469D01*
X50782935Y-78385498D01*
X50782935Y-78385501D01*
X50787220Y-78423529D01*
X50788000Y-78437414D01*
X50788000Y-78464344D01*
X50795788Y-78503503D01*
X50797390Y-78513803D01*
X50797959Y-78518848D01*
X50802888Y-78562594D01*
X50803132Y-78564752D01*
X50803133Y-78564760D01*
X50811476Y-78588604D01*
X50816050Y-78605360D01*
X50818762Y-78618996D01*
X50839009Y-78667877D01*
X50841486Y-78674367D01*
X50862590Y-78734677D01*
X50862712Y-78735024D01*
X50869209Y-78745365D01*
X50878768Y-78763865D01*
X50879103Y-78764673D01*
X50879105Y-78764679D01*
X50915723Y-78819482D01*
X50917614Y-78822400D01*
X50958680Y-78887757D01*
X50958682Y-78887760D01*
X50958684Y-78887762D01*
X51086238Y-79015316D01*
X51095520Y-79021148D01*
X51151631Y-79056405D01*
X51154540Y-79058290D01*
X51209321Y-79094894D01*
X51210106Y-79095219D01*
X51228634Y-79104789D01*
X51238978Y-79111289D01*
X51299675Y-79132528D01*
X51306107Y-79134984D01*
X51325238Y-79142908D01*
X51354997Y-79155235D01*
X51354998Y-79155235D01*
X51355003Y-79155237D01*
X51368639Y-79157949D01*
X51385398Y-79162523D01*
X51409245Y-79170868D01*
X51460214Y-79176610D01*
X51470492Y-79178209D01*
X51490424Y-79182174D01*
X51509657Y-79186000D01*
X51509658Y-79186000D01*
X51536585Y-79186000D01*
X51550469Y-79186780D01*
X51588498Y-79191065D01*
X51588500Y-79191065D01*
X51588502Y-79191065D01*
X51626531Y-79186780D01*
X51640415Y-79186000D01*
X51821013Y-79186000D01*
X51888052Y-79205685D01*
X51933807Y-79258489D01*
X51943751Y-79327647D01*
X51926551Y-79375097D01*
X51851551Y-79496688D01*
X51851546Y-79496699D01*
X51797319Y-79660347D01*
X51787000Y-79761345D01*
X51787000Y-79860500D01*
X54482000Y-79860500D01*
X54549039Y-79880185D01*
X54594794Y-79932989D01*
X54606000Y-79984500D01*
X54606000Y-80236500D01*
X54586315Y-80303539D01*
X54533511Y-80349294D01*
X54482000Y-80360500D01*
X51787001Y-80360500D01*
X51787001Y-80459654D01*
X51797319Y-80560652D01*
X51832392Y-80666496D01*
X51834794Y-80736325D01*
X51799062Y-80796366D01*
X51736541Y-80827559D01*
X51714686Y-80829500D01*
X49512251Y-80829500D01*
X49445212Y-80809815D01*
X49399457Y-80757011D01*
X49389513Y-80687853D01*
X49418538Y-80624297D01*
X49468918Y-80589318D01*
X49596328Y-80541797D01*
X49596327Y-80541797D01*
X49596331Y-80541796D01*
X49711546Y-80455546D01*
X49797796Y-80340331D01*
X49848091Y-80205483D01*
X49854500Y-80145873D01*
X49854499Y-78939518D01*
X49874184Y-78872480D01*
X49890818Y-78851838D01*
X50532622Y-78210035D01*
X50532623Y-78210034D01*
X50532623Y-78210033D01*
X50532625Y-78210032D01*
X50574040Y-78148048D01*
X50627651Y-78103245D01*
X50696976Y-78094536D01*
X50760003Y-78124690D01*
G37*
G04 #@! TD.AperFunction*
G04 #@! TA.AperFunction,Conductor*
G36*
X68067482Y-78982292D02*
G01*
X68139890Y-79107708D01*
X68242292Y-79210110D01*
X68367708Y-79282518D01*
X68409765Y-79293787D01*
X67635819Y-80067732D01*
X67635819Y-80067733D01*
X67636634Y-80068429D01*
X67851368Y-80200019D01*
X68084043Y-80296396D01*
X68173144Y-80317787D01*
X68233736Y-80352577D01*
X68265900Y-80414604D01*
X68259424Y-80484172D01*
X68231879Y-80526042D01*
X68159423Y-80598499D01*
X67964739Y-80793182D01*
X67903419Y-80826666D01*
X67877060Y-80829500D01*
X65270519Y-80829500D01*
X65203480Y-80809815D01*
X65157725Y-80757011D01*
X65147781Y-80687853D01*
X65176806Y-80624297D01*
X65182828Y-80617827D01*
X65462446Y-80338209D01*
X65523765Y-80304727D01*
X65579069Y-80305318D01*
X65788852Y-80355683D01*
X66040000Y-80375449D01*
X66291148Y-80355683D01*
X66536111Y-80296873D01*
X66768859Y-80200466D01*
X66983659Y-80068836D01*
X67175224Y-79905224D01*
X67338836Y-79713659D01*
X67419879Y-79581408D01*
X67437919Y-79558526D01*
X68056212Y-78940233D01*
X68067482Y-78982292D01*
G37*
G04 #@! TD.AperFunction*
G04 #@! TA.AperFunction,Conductor*
G36*
X61718886Y-65444185D02*
G01*
X61764641Y-65496989D01*
X61774585Y-65566147D01*
X61757387Y-65613593D01*
X61729625Y-65658603D01*
X61700093Y-65706481D01*
X61700091Y-65706486D01*
X61694652Y-65722900D01*
X61645826Y-65870247D01*
X61645826Y-65870248D01*
X61645825Y-65870248D01*
X61635500Y-65971315D01*
X61635500Y-66669669D01*
X61635501Y-66669687D01*
X61645825Y-66770752D01*
X61670532Y-66845311D01*
X61700092Y-66934516D01*
X61790659Y-67081349D01*
X61790661Y-67081351D01*
X61804982Y-67095672D01*
X61838467Y-67156995D01*
X61833483Y-67226687D01*
X61804985Y-67271032D01*
X61791052Y-67284965D01*
X61700551Y-67431688D01*
X61700546Y-67431699D01*
X61646319Y-67595347D01*
X61636000Y-67696345D01*
X61636000Y-67795500D01*
X62737000Y-67795500D01*
X62804039Y-67815185D01*
X62849794Y-67867989D01*
X62861000Y-67919500D01*
X62861000Y-69082999D01*
X62897640Y-69082999D01*
X62897654Y-69082998D01*
X62998652Y-69072680D01*
X63162300Y-69018453D01*
X63162307Y-69018450D01*
X63272402Y-68950542D01*
X63339795Y-68932101D01*
X63406458Y-68953023D01*
X63451228Y-69006665D01*
X63461500Y-69056080D01*
X63461500Y-70219727D01*
X63476313Y-70332235D01*
X63476313Y-70332236D01*
X63533153Y-70469461D01*
X63534302Y-70472233D01*
X63626549Y-70592451D01*
X63746767Y-70684698D01*
X63886764Y-70742687D01*
X63999280Y-70757500D01*
X63999287Y-70757500D01*
X64308334Y-70757500D01*
X64375373Y-70777185D01*
X64421128Y-70829989D01*
X64431072Y-70899147D01*
X64413874Y-70946595D01*
X64412095Y-70949479D01*
X64412091Y-70949486D01*
X64404499Y-70972398D01*
X64357826Y-71113247D01*
X64357826Y-71113248D01*
X64357825Y-71113248D01*
X64347500Y-71214315D01*
X64347500Y-71787669D01*
X64347501Y-71787687D01*
X64357825Y-71888752D01*
X64388891Y-71982500D01*
X64407878Y-72039800D01*
X64412092Y-72052515D01*
X64412093Y-72052518D01*
X64427830Y-72078032D01*
X64502660Y-72199350D01*
X64624650Y-72321340D01*
X64672598Y-72350914D01*
X64719321Y-72402859D01*
X64731500Y-72456451D01*
X64731500Y-72464872D01*
X64711815Y-72531911D01*
X64659011Y-72577666D01*
X64589853Y-72587610D01*
X64542403Y-72570411D01*
X64411305Y-72489548D01*
X64411300Y-72489546D01*
X64247652Y-72435319D01*
X64146654Y-72425000D01*
X64047500Y-72425000D01*
X64047500Y-74374999D01*
X64146640Y-74374999D01*
X64146654Y-74374998D01*
X64247652Y-74364680D01*
X64411300Y-74310453D01*
X64411307Y-74310450D01*
X64542402Y-74229589D01*
X64609795Y-74211148D01*
X64676458Y-74232070D01*
X64721228Y-74285712D01*
X64731500Y-74335127D01*
X64731500Y-76355059D01*
X64711815Y-76422098D01*
X64695181Y-76442740D01*
X63963512Y-77174408D01*
X63902189Y-77207893D01*
X63846884Y-77207301D01*
X63751151Y-77184317D01*
X63500000Y-77164551D01*
X63248848Y-77184317D01*
X63003889Y-77243126D01*
X62771140Y-77339533D01*
X62556346Y-77471160D01*
X62556343Y-77471161D01*
X62364776Y-77634776D01*
X62201161Y-77826343D01*
X62201160Y-77826346D01*
X62069533Y-78041140D01*
X61973126Y-78273889D01*
X61914317Y-78518848D01*
X61894551Y-78770000D01*
X61914317Y-79021150D01*
X61932021Y-79094892D01*
X61946508Y-79155236D01*
X61946825Y-79156553D01*
X61943334Y-79226335D01*
X61902670Y-79283153D01*
X61837744Y-79308966D01*
X61826251Y-79309500D01*
X60260500Y-79309500D01*
X60193461Y-79289815D01*
X60147706Y-79237011D01*
X60136500Y-79185500D01*
X60136500Y-78943369D01*
X60154962Y-78878272D01*
X60212897Y-78784344D01*
X60213408Y-78783516D01*
X60267674Y-78619753D01*
X60278000Y-78518677D01*
X60277999Y-77945324D01*
X60277043Y-77935970D01*
X60267674Y-77844247D01*
X60261741Y-77826343D01*
X60213408Y-77680484D01*
X60178935Y-77624595D01*
X60160496Y-77557205D01*
X60181418Y-77490541D01*
X60235060Y-77445771D01*
X60284475Y-77435500D01*
X60712713Y-77435500D01*
X60712720Y-77435500D01*
X60825236Y-77420687D01*
X60965233Y-77362698D01*
X61085451Y-77270451D01*
X61177698Y-77150233D01*
X61235687Y-77010236D01*
X61250500Y-76897720D01*
X61250500Y-76372280D01*
X61235687Y-76259764D01*
X61188605Y-76146098D01*
X61177699Y-76119769D01*
X61177697Y-76119766D01*
X61143720Y-76075486D01*
X61118526Y-76010317D01*
X61132564Y-75941872D01*
X61143720Y-75924514D01*
X61149598Y-75916853D01*
X61177698Y-75880233D01*
X61235687Y-75740236D01*
X61250500Y-75627720D01*
X61250500Y-75102280D01*
X61235687Y-74989764D01*
X61177698Y-74849767D01*
X61143720Y-74805486D01*
X61118526Y-74740317D01*
X61132564Y-74671872D01*
X61143720Y-74654514D01*
X61153077Y-74642319D01*
X61177698Y-74610233D01*
X61235687Y-74470236D01*
X61250500Y-74357720D01*
X61250500Y-73832280D01*
X61235687Y-73719764D01*
X61221972Y-73686654D01*
X62760001Y-73686654D01*
X62770319Y-73787652D01*
X62824546Y-73951300D01*
X62824551Y-73951311D01*
X62915052Y-74098034D01*
X62915055Y-74098038D01*
X63036961Y-74219944D01*
X63036965Y-74219947D01*
X63183688Y-74310448D01*
X63183699Y-74310453D01*
X63347347Y-74364680D01*
X63448351Y-74374999D01*
X63547500Y-74374998D01*
X63547500Y-73650000D01*
X62760001Y-73650000D01*
X62760001Y-73686654D01*
X61221972Y-73686654D01*
X61189393Y-73608000D01*
X61177699Y-73579769D01*
X61177697Y-73579765D01*
X61143406Y-73535077D01*
X61118211Y-73469908D01*
X61132249Y-73401463D01*
X61143405Y-73384103D01*
X61177263Y-73339978D01*
X61235198Y-73200108D01*
X61235199Y-73200104D01*
X61246622Y-73113345D01*
X62760000Y-73113345D01*
X62760000Y-73150000D01*
X63547500Y-73150000D01*
X63547500Y-72424999D01*
X63448360Y-72425000D01*
X63448344Y-72425001D01*
X63347347Y-72435319D01*
X63183699Y-72489546D01*
X63183688Y-72489551D01*
X63036965Y-72580052D01*
X63036961Y-72580055D01*
X62915055Y-72701961D01*
X62915052Y-72701965D01*
X62824551Y-72848688D01*
X62824546Y-72848699D01*
X62770319Y-73012347D01*
X62760000Y-73113345D01*
X61246622Y-73113345D01*
X61249999Y-73087697D01*
X61250000Y-73087683D01*
X61250000Y-73075000D01*
X59639000Y-73075000D01*
X59571961Y-73055315D01*
X59526206Y-73002511D01*
X59515000Y-72951000D01*
X59515000Y-72575000D01*
X60015000Y-72575000D01*
X61250000Y-72575000D01*
X61250000Y-72562316D01*
X61249999Y-72562302D01*
X61235199Y-72449895D01*
X61235198Y-72449891D01*
X61177263Y-72310021D01*
X61085094Y-72189905D01*
X60964978Y-72097736D01*
X60825108Y-72039801D01*
X60825104Y-72039800D01*
X60712697Y-72025000D01*
X60015000Y-72025000D01*
X60015000Y-72575000D01*
X59515000Y-72575000D01*
X59515000Y-72025000D01*
X59204500Y-72025000D01*
X59137461Y-72005315D01*
X59091706Y-71952511D01*
X59080500Y-71901000D01*
X59080500Y-70541770D01*
X59100185Y-70474731D01*
X59139401Y-70436233D01*
X59221179Y-70385793D01*
X59343169Y-70263803D01*
X59433737Y-70116969D01*
X59488003Y-69953206D01*
X59498329Y-69852130D01*
X59498328Y-69278777D01*
X59493319Y-69229745D01*
X59488003Y-69177700D01*
X59468929Y-69120140D01*
X59433737Y-69013937D01*
X59343169Y-68867103D01*
X59221179Y-68745113D01*
X59221175Y-68745110D01*
X59139403Y-68694672D01*
X59092678Y-68642724D01*
X59080500Y-68589134D01*
X59080500Y-68394654D01*
X61636001Y-68394654D01*
X61646319Y-68495652D01*
X61700546Y-68659300D01*
X61700551Y-68659311D01*
X61791052Y-68806034D01*
X61791055Y-68806038D01*
X61912961Y-68927944D01*
X61912965Y-68927947D01*
X62059688Y-69018448D01*
X62059699Y-69018453D01*
X62223347Y-69072680D01*
X62324352Y-69082999D01*
X62361000Y-69082999D01*
X62361000Y-68295500D01*
X61636001Y-68295500D01*
X61636001Y-68394654D01*
X59080500Y-68394654D01*
X59080500Y-67401519D01*
X59100185Y-67334480D01*
X59116819Y-67313838D01*
X59984838Y-66445819D01*
X60046161Y-66412334D01*
X60072519Y-66409500D01*
X60774072Y-66409500D01*
X60774078Y-66409500D01*
X60859931Y-66399190D01*
X60996553Y-66345313D01*
X61113574Y-66256574D01*
X61202313Y-66139553D01*
X61256190Y-66002931D01*
X61266500Y-65917078D01*
X61266500Y-65630922D01*
X61258377Y-65563283D01*
X61269927Y-65494377D01*
X61316898Y-65442653D01*
X61381492Y-65424500D01*
X61651847Y-65424500D01*
X61718886Y-65444185D01*
G37*
G04 #@! TD.AperFunction*
G04 #@! TA.AperFunction,Conductor*
G36*
X46929039Y-72622185D02*
G01*
X46974794Y-72674989D01*
X46986000Y-72726500D01*
X46986000Y-73889999D01*
X47022640Y-73889999D01*
X47022654Y-73889998D01*
X47123652Y-73879680D01*
X47287300Y-73825453D01*
X47287311Y-73825448D01*
X47434034Y-73734947D01*
X47434038Y-73734944D01*
X47454260Y-73714723D01*
X47515583Y-73681238D01*
X47585275Y-73686222D01*
X47641208Y-73728094D01*
X47665625Y-73793558D01*
X47665941Y-73802404D01*
X47665941Y-76504039D01*
X47646256Y-76571078D01*
X47629622Y-76591720D01*
X46335994Y-77885347D01*
X46274671Y-77918832D01*
X46216225Y-77917442D01*
X46199410Y-77912937D01*
X45964001Y-77892341D01*
X45963999Y-77892341D01*
X45728596Y-77912936D01*
X45728586Y-77912938D01*
X45500344Y-77974094D01*
X45500335Y-77974098D01*
X45286171Y-78073964D01*
X45286169Y-78073965D01*
X45092597Y-78209505D01*
X44925508Y-78376594D01*
X44795269Y-78562595D01*
X44740692Y-78606219D01*
X44671193Y-78613412D01*
X44608839Y-78581890D01*
X44592119Y-78562594D01*
X44462113Y-78376926D01*
X44462108Y-78376920D01*
X44295082Y-78209894D01*
X44101578Y-78074399D01*
X43887492Y-77974570D01*
X43887486Y-77974567D01*
X43674000Y-77917364D01*
X43674000Y-78814988D01*
X43616993Y-78782075D01*
X43489826Y-78748000D01*
X43358174Y-78748000D01*
X43231007Y-78782075D01*
X43174000Y-78814988D01*
X43174000Y-78000018D01*
X43193685Y-77932979D01*
X43210319Y-77912337D01*
X43724607Y-77398049D01*
X43724613Y-77398043D01*
X43730207Y-77389672D01*
X43801275Y-77283311D01*
X43842280Y-77184317D01*
X43854080Y-77155829D01*
X43867192Y-77089909D01*
X43881000Y-77020493D01*
X43881000Y-75552771D01*
X43900685Y-75485732D01*
X43935933Y-75451129D01*
X43935687Y-75450818D01*
X43938580Y-75448529D01*
X43939901Y-75447233D01*
X43941350Y-75446340D01*
X43955671Y-75432018D01*
X44016989Y-75398533D01*
X44086681Y-75403514D01*
X44131034Y-75432017D01*
X44144961Y-75445944D01*
X44144965Y-75445947D01*
X44291688Y-75536448D01*
X44291699Y-75536453D01*
X44455347Y-75590680D01*
X44556351Y-75600999D01*
X45155500Y-75600999D01*
X45254640Y-75600999D01*
X45254654Y-75600998D01*
X45355652Y-75590680D01*
X45519300Y-75536453D01*
X45519311Y-75536448D01*
X45666034Y-75445947D01*
X45666038Y-75445944D01*
X45787944Y-75324038D01*
X45787947Y-75324034D01*
X45878448Y-75177311D01*
X45878453Y-75177300D01*
X45932680Y-75013652D01*
X45942999Y-74912654D01*
X45943000Y-74912641D01*
X45943000Y-74876000D01*
X45155500Y-74876000D01*
X45155500Y-75600999D01*
X44556351Y-75600999D01*
X44655500Y-75600998D01*
X44655500Y-73925500D01*
X44645731Y-73915731D01*
X44611961Y-73905815D01*
X44566206Y-73853011D01*
X44555000Y-73801500D01*
X44555000Y-73145000D01*
X45055000Y-73145000D01*
X45055000Y-73608000D01*
X45064768Y-73617768D01*
X45098539Y-73627685D01*
X45144294Y-73680489D01*
X45155500Y-73732000D01*
X45155500Y-74376000D01*
X45942999Y-74376000D01*
X45942999Y-74339360D01*
X45942998Y-74339345D01*
X45932680Y-74238347D01*
X45878453Y-74074699D01*
X45878448Y-74074688D01*
X45787947Y-73927965D01*
X45787944Y-73927961D01*
X45666038Y-73806055D01*
X45666034Y-73806052D01*
X45650075Y-73796208D01*
X45603351Y-73744259D01*
X45592131Y-73675297D01*
X45619976Y-73611215D01*
X45623537Y-73607319D01*
X45624943Y-73605540D01*
X45662647Y-73544412D01*
X45714594Y-73497687D01*
X45783557Y-73486464D01*
X45847639Y-73514307D01*
X45873724Y-73544410D01*
X45916054Y-73613037D01*
X46037961Y-73734944D01*
X46037965Y-73734947D01*
X46184688Y-73825448D01*
X46184699Y-73825453D01*
X46348347Y-73879680D01*
X46449352Y-73889999D01*
X46486000Y-73889999D01*
X46486000Y-73102500D01*
X45823000Y-73102500D01*
X45816819Y-73108681D01*
X45755496Y-73142166D01*
X45729138Y-73145000D01*
X45055000Y-73145000D01*
X44555000Y-73145000D01*
X44555000Y-72769000D01*
X44574685Y-72701961D01*
X44627489Y-72656206D01*
X44679000Y-72645000D01*
X45718000Y-72645000D01*
X45724181Y-72638819D01*
X45785504Y-72605334D01*
X45811862Y-72602500D01*
X46862000Y-72602500D01*
X46929039Y-72622185D01*
G37*
G04 #@! TD.AperFunction*
G04 #@! TA.AperFunction,Conductor*
G36*
X71899005Y-70474102D02*
G01*
X71950142Y-70521713D01*
X71967500Y-70584986D01*
X71967500Y-76079059D01*
X71947815Y-76146098D01*
X71931181Y-76166740D01*
X70949774Y-77148146D01*
X70888451Y-77181631D01*
X70871835Y-77184082D01*
X70868852Y-77184317D01*
X70623889Y-77243126D01*
X70391140Y-77339533D01*
X70176346Y-77471160D01*
X70176343Y-77471161D01*
X69984776Y-77634776D01*
X69821166Y-77826338D01*
X69740126Y-77958581D01*
X69722080Y-77981471D01*
X69103787Y-78599764D01*
X69092518Y-78557708D01*
X69020110Y-78432292D01*
X68917708Y-78329890D01*
X68792292Y-78257482D01*
X68750234Y-78246212D01*
X69524179Y-77472266D01*
X69523362Y-77471568D01*
X69308631Y-77339980D01*
X69075956Y-77243603D01*
X68831072Y-77184812D01*
X68580000Y-77165052D01*
X68328927Y-77184812D01*
X68084043Y-77243603D01*
X67851368Y-77339980D01*
X67791290Y-77376797D01*
X67723844Y-77395042D01*
X67657242Y-77373926D01*
X67612628Y-77320154D01*
X67602500Y-77271070D01*
X67602500Y-74423943D01*
X67622185Y-74356904D01*
X67674989Y-74311149D01*
X67687482Y-74306242D01*
X67777516Y-74276408D01*
X67924350Y-74185840D01*
X67938671Y-74171518D01*
X67999989Y-74138033D01*
X68069681Y-74143014D01*
X68114034Y-74171517D01*
X68127961Y-74185444D01*
X68127965Y-74185447D01*
X68274688Y-74275948D01*
X68274699Y-74275953D01*
X68438347Y-74330180D01*
X68539351Y-74340499D01*
X69138500Y-74340499D01*
X69237640Y-74340499D01*
X69237654Y-74340498D01*
X69338652Y-74330180D01*
X69502300Y-74275953D01*
X69502311Y-74275948D01*
X69649034Y-74185447D01*
X69649038Y-74185444D01*
X69770944Y-74063538D01*
X69770947Y-74063534D01*
X69861448Y-73916811D01*
X69861453Y-73916800D01*
X69915680Y-73753152D01*
X69925999Y-73652154D01*
X69926000Y-73652141D01*
X69926000Y-73615500D01*
X69138500Y-73615500D01*
X69138500Y-74340499D01*
X68539351Y-74340499D01*
X68638500Y-74340498D01*
X68638500Y-72519000D01*
X68557500Y-72519000D01*
X68490461Y-72499315D01*
X68444706Y-72446511D01*
X68433500Y-72395000D01*
X68433500Y-71375000D01*
X68453185Y-71307961D01*
X68505989Y-71262206D01*
X68557500Y-71251000D01*
X68809500Y-71251000D01*
X68876539Y-71270685D01*
X68922294Y-71323489D01*
X68933500Y-71375000D01*
X68933500Y-72347500D01*
X69014500Y-72347500D01*
X69081539Y-72367185D01*
X69127294Y-72419989D01*
X69138500Y-72471500D01*
X69138500Y-73115500D01*
X69925999Y-73115500D01*
X69925999Y-73078860D01*
X69925998Y-73078845D01*
X69915680Y-72977847D01*
X69861453Y-72814199D01*
X69861448Y-72814188D01*
X69770947Y-72667465D01*
X69770944Y-72667461D01*
X69649038Y-72545555D01*
X69649034Y-72545552D01*
X69502308Y-72455050D01*
X69497513Y-72452814D01*
X69445072Y-72406643D01*
X69425918Y-72339450D01*
X69446131Y-72272569D01*
X69462233Y-72252749D01*
X69507965Y-72207017D01*
X69569288Y-72173532D01*
X69638980Y-72178516D01*
X69683327Y-72207017D01*
X69797650Y-72321340D01*
X69944484Y-72411908D01*
X70108247Y-72466174D01*
X70209323Y-72476500D01*
X70807676Y-72476499D01*
X70807684Y-72476498D01*
X70807687Y-72476498D01*
X70863030Y-72470844D01*
X70908753Y-72466174D01*
X71072516Y-72411908D01*
X71219350Y-72321340D01*
X71341340Y-72199350D01*
X71431908Y-72052516D01*
X71486174Y-71888753D01*
X71496500Y-71787677D01*
X71496499Y-71214324D01*
X71492277Y-71172997D01*
X71486174Y-71113247D01*
X71454725Y-71018342D01*
X71431908Y-70949484D01*
X71341340Y-70802650D01*
X71219350Y-70680660D01*
X71215870Y-70677180D01*
X71182385Y-70615857D01*
X71187369Y-70546165D01*
X71229241Y-70490232D01*
X71294705Y-70465815D01*
X71303551Y-70465499D01*
X71794871Y-70465499D01*
X71794872Y-70465499D01*
X71830246Y-70461696D01*
X71899005Y-70474102D01*
G37*
G04 #@! TD.AperFunction*
G04 #@! TA.AperFunction,Conductor*
G36*
X51992021Y-60316185D02*
G01*
X52037776Y-60368989D01*
X52047720Y-60438147D01*
X52018695Y-60501703D01*
X51989132Y-60526617D01*
X51803421Y-60638881D01*
X51803416Y-60638886D01*
X51615030Y-60786474D01*
X51615029Y-60786476D01*
X52757262Y-61928709D01*
X52623398Y-62025967D01*
X52500967Y-62148398D01*
X52403709Y-62282262D01*
X51261476Y-61140029D01*
X51261474Y-61140030D01*
X51113886Y-61328416D01*
X51113881Y-61328422D01*
X50944898Y-61607956D01*
X50944897Y-61607958D01*
X50810839Y-61905824D01*
X50810835Y-61905835D01*
X50713667Y-62217658D01*
X50654786Y-62538961D01*
X50635065Y-62865000D01*
X50654786Y-63191038D01*
X50713667Y-63512341D01*
X50810835Y-63824164D01*
X50810839Y-63824175D01*
X50944897Y-64122041D01*
X50944898Y-64122043D01*
X51113881Y-64401576D01*
X51261476Y-64589968D01*
X52403708Y-63447736D01*
X52500967Y-63581602D01*
X52623398Y-63704033D01*
X52757262Y-63801290D01*
X51615030Y-64943522D01*
X51615030Y-64943523D01*
X51803423Y-65091118D01*
X52082956Y-65260101D01*
X52082958Y-65260102D01*
X52380824Y-65394160D01*
X52380835Y-65394164D01*
X52692661Y-65491333D01*
X52692658Y-65491333D01*
X52955328Y-65539468D01*
X53017721Y-65570914D01*
X53053209Y-65631101D01*
X53050524Y-65700919D01*
X53038518Y-65726531D01*
X53028549Y-65742694D01*
X53028546Y-65742699D01*
X52974319Y-65906347D01*
X52964000Y-66007345D01*
X52964000Y-66044000D01*
X54127500Y-66044000D01*
X54194539Y-66063685D01*
X54240294Y-66116489D01*
X54251500Y-66168000D01*
X54251500Y-68792999D01*
X54350640Y-68792999D01*
X54350654Y-68792998D01*
X54451652Y-68782680D01*
X54615300Y-68728453D01*
X54615311Y-68728448D01*
X54736903Y-68653449D01*
X54804295Y-68635008D01*
X54870959Y-68655930D01*
X54915728Y-68709572D01*
X54926000Y-68758987D01*
X54926000Y-68876080D01*
X54906993Y-68942054D01*
X54888093Y-68972132D01*
X54886204Y-68975047D01*
X54849604Y-69029824D01*
X54849600Y-69029832D01*
X54849266Y-69030639D01*
X54839713Y-69049127D01*
X54833212Y-69059474D01*
X54833210Y-69059477D01*
X54811982Y-69120140D01*
X54809504Y-69126631D01*
X54789264Y-69175496D01*
X54789263Y-69175502D01*
X54786550Y-69189140D01*
X54781975Y-69205898D01*
X54773634Y-69229735D01*
X54773632Y-69229742D01*
X54767890Y-69280696D01*
X54766288Y-69290994D01*
X54758500Y-69330152D01*
X54758500Y-69357085D01*
X54757720Y-69370969D01*
X54753435Y-69408998D01*
X54753435Y-69409001D01*
X54757720Y-69447029D01*
X54758500Y-69460914D01*
X54758500Y-69487844D01*
X54766288Y-69527003D01*
X54767890Y-69537303D01*
X54773632Y-69588252D01*
X54773633Y-69588260D01*
X54781976Y-69612104D01*
X54786550Y-69628860D01*
X54789262Y-69642496D01*
X54809509Y-69691377D01*
X54811988Y-69697872D01*
X54833212Y-69758524D01*
X54839709Y-69768865D01*
X54849268Y-69787365D01*
X54849603Y-69788173D01*
X54849605Y-69788179D01*
X54886223Y-69842982D01*
X54888114Y-69845900D01*
X54929180Y-69911257D01*
X54929182Y-69911260D01*
X55006328Y-69988406D01*
X55039813Y-70049729D01*
X55034829Y-70119421D01*
X54992957Y-70175354D01*
X54957653Y-70193792D01*
X54911490Y-70209089D01*
X54911481Y-70209093D01*
X54764648Y-70299661D01*
X54642661Y-70421648D01*
X54552093Y-70568481D01*
X54552091Y-70568486D01*
X54524719Y-70651088D01*
X54497826Y-70732247D01*
X54497826Y-70732248D01*
X54497825Y-70732248D01*
X54487500Y-70833315D01*
X54487500Y-71406669D01*
X54487501Y-71406687D01*
X54497825Y-71507752D01*
X54552092Y-71671515D01*
X54552093Y-71671518D01*
X54577319Y-71712416D01*
X54642660Y-71818350D01*
X54642662Y-71818352D01*
X54646802Y-71823587D01*
X54672943Y-71888382D01*
X54659905Y-71957024D01*
X54611825Y-72007721D01*
X54549537Y-72024500D01*
X53877272Y-72024500D01*
X53764764Y-72039313D01*
X53764763Y-72039313D01*
X53624770Y-72097300D01*
X53624767Y-72097301D01*
X53624767Y-72097302D01*
X53504549Y-72189549D01*
X53412433Y-72309597D01*
X53412300Y-72309770D01*
X53354313Y-72449763D01*
X53354313Y-72449764D01*
X53339500Y-72562272D01*
X53339500Y-73087727D01*
X53354313Y-73200235D01*
X53354313Y-73200236D01*
X53412301Y-73340233D01*
X53446279Y-73384514D01*
X53471473Y-73449684D01*
X53457434Y-73518129D01*
X53446279Y-73535486D01*
X53412301Y-73579766D01*
X53354313Y-73719763D01*
X53354313Y-73719764D01*
X53339500Y-73832272D01*
X53339500Y-74357727D01*
X53354313Y-74470235D01*
X53354313Y-74470236D01*
X53412301Y-74610233D01*
X53446279Y-74654514D01*
X53471473Y-74719684D01*
X53457434Y-74788129D01*
X53446279Y-74805486D01*
X53412301Y-74849766D01*
X53354313Y-74989763D01*
X53354313Y-74989764D01*
X53339500Y-75102272D01*
X53339500Y-75627727D01*
X53354313Y-75740235D01*
X53354313Y-75740236D01*
X53412301Y-75880233D01*
X53446279Y-75924514D01*
X53471473Y-75989684D01*
X53457434Y-76058129D01*
X53446279Y-76075486D01*
X53412301Y-76119766D01*
X53354313Y-76259763D01*
X53354313Y-76259764D01*
X53339500Y-76372272D01*
X53339500Y-76897727D01*
X53354313Y-77010235D01*
X53354313Y-77010236D01*
X53412300Y-77150230D01*
X53412302Y-77150233D01*
X53471937Y-77227951D01*
X53497131Y-77293120D01*
X53483093Y-77361565D01*
X53434279Y-77411554D01*
X53366187Y-77427218D01*
X53321079Y-77412969D01*
X53320064Y-77415146D01*
X53313518Y-77412093D01*
X53313516Y-77412092D01*
X53149753Y-77357826D01*
X53149751Y-77357825D01*
X53048678Y-77347500D01*
X52475330Y-77347500D01*
X52475312Y-77347501D01*
X52374247Y-77357825D01*
X52210484Y-77412092D01*
X52210481Y-77412093D01*
X52063648Y-77502661D01*
X52017629Y-77548681D01*
X51956306Y-77582166D01*
X51929948Y-77585000D01*
X51640415Y-77585000D01*
X51626531Y-77584220D01*
X51588502Y-77579935D01*
X51588498Y-77579935D01*
X51550469Y-77584220D01*
X51536585Y-77585000D01*
X51509652Y-77585000D01*
X51470494Y-77592788D01*
X51460196Y-77594390D01*
X51409242Y-77600132D01*
X51409235Y-77600134D01*
X51385398Y-77608475D01*
X51368640Y-77613050D01*
X51355002Y-77615763D01*
X51354996Y-77615764D01*
X51306131Y-77636004D01*
X51299640Y-77638482D01*
X51238977Y-77659710D01*
X51238974Y-77659712D01*
X51228627Y-77666213D01*
X51210139Y-77675766D01*
X51209332Y-77676100D01*
X51209324Y-77676104D01*
X51154547Y-77712704D01*
X51151632Y-77714592D01*
X51086242Y-77755680D01*
X51086235Y-77755686D01*
X50958686Y-77883235D01*
X50958680Y-77883242D01*
X50917592Y-77948632D01*
X50915701Y-77951550D01*
X50905533Y-77966767D01*
X50851920Y-78011572D01*
X50782595Y-78020278D01*
X50719568Y-77990122D01*
X50682850Y-77930679D01*
X50680815Y-77873685D01*
X50689011Y-77832483D01*
X50689011Y-77694495D01*
X50689011Y-73770255D01*
X50708696Y-73703216D01*
X50725330Y-73682574D01*
X50763235Y-73644669D01*
X50808851Y-73599053D01*
X50899419Y-73452219D01*
X50953685Y-73288456D01*
X50964011Y-73187380D01*
X50964010Y-72589027D01*
X50962849Y-72577666D01*
X50953685Y-72487950D01*
X50939953Y-72446511D01*
X50899419Y-72324187D01*
X50808851Y-72177353D01*
X50694882Y-72063384D01*
X50661397Y-72002061D01*
X50666381Y-71932369D01*
X50694882Y-71888022D01*
X50743714Y-71839190D01*
X50808851Y-71774053D01*
X50899419Y-71627219D01*
X50953685Y-71463456D01*
X50964011Y-71362380D01*
X50964010Y-70764027D01*
X50955118Y-70676983D01*
X50953685Y-70662950D01*
X50940838Y-70624181D01*
X50899419Y-70499187D01*
X50808851Y-70352353D01*
X50686861Y-70230363D01*
X50581797Y-70165559D01*
X50535075Y-70113613D01*
X50523852Y-70044650D01*
X50541358Y-69994925D01*
X50603903Y-69893524D01*
X50603902Y-69893524D01*
X50603908Y-69893516D01*
X50658174Y-69729753D01*
X50668500Y-69628677D01*
X50668499Y-69055324D01*
X50666825Y-69038940D01*
X50658174Y-68954247D01*
X50649458Y-68927944D01*
X50603908Y-68790484D01*
X50513340Y-68643650D01*
X50391350Y-68521660D01*
X50251502Y-68435401D01*
X50244518Y-68431093D01*
X50244513Y-68431091D01*
X50109781Y-68386445D01*
X50052336Y-68346672D01*
X50025513Y-68282156D01*
X50029709Y-68234144D01*
X50047597Y-68172573D01*
X50047598Y-68172567D01*
X50050499Y-68135701D01*
X50050500Y-68135694D01*
X50050500Y-68104654D01*
X52964001Y-68104654D01*
X52974319Y-68205652D01*
X53028546Y-68369300D01*
X53028551Y-68369311D01*
X53119052Y-68516034D01*
X53119055Y-68516038D01*
X53240961Y-68637944D01*
X53240965Y-68637947D01*
X53387688Y-68728448D01*
X53387699Y-68728453D01*
X53551347Y-68782680D01*
X53652351Y-68792999D01*
X53751500Y-68792998D01*
X53751500Y-68068000D01*
X52964001Y-68068000D01*
X52964001Y-68104654D01*
X50050500Y-68104654D01*
X50050500Y-67531345D01*
X52964000Y-67531345D01*
X52964000Y-67568000D01*
X53751500Y-67568000D01*
X53751500Y-66544000D01*
X52964001Y-66544000D01*
X52964001Y-66580654D01*
X52974319Y-66681652D01*
X53028546Y-66845300D01*
X53028551Y-66845311D01*
X53118354Y-66990903D01*
X53136795Y-67058295D01*
X53118354Y-67121097D01*
X53028551Y-67266688D01*
X53028546Y-67266699D01*
X52974319Y-67430347D01*
X52964000Y-67531345D01*
X50050500Y-67531345D01*
X50050500Y-66304306D01*
X50047598Y-66267431D01*
X50044443Y-66256573D01*
X50001745Y-66109606D01*
X50001744Y-66109603D01*
X50001744Y-66109602D01*
X49918081Y-65968135D01*
X49918079Y-65968133D01*
X49918076Y-65968129D01*
X49801870Y-65851923D01*
X49801862Y-65851917D01*
X49682219Y-65781161D01*
X49660398Y-65768256D01*
X49660397Y-65768255D01*
X49660396Y-65768255D01*
X49660393Y-65768254D01*
X49502573Y-65722402D01*
X49502567Y-65722401D01*
X49465701Y-65719500D01*
X49465694Y-65719500D01*
X49034306Y-65719500D01*
X49034298Y-65719500D01*
X48997432Y-65722401D01*
X48997426Y-65722402D01*
X48839606Y-65768254D01*
X48839603Y-65768255D01*
X48698137Y-65851917D01*
X48691969Y-65856702D01*
X48690072Y-65854256D01*
X48641358Y-65880857D01*
X48571666Y-65875873D01*
X48539296Y-65855069D01*
X48538031Y-65856702D01*
X48531862Y-65851917D01*
X48412219Y-65781161D01*
X48390398Y-65768256D01*
X48390397Y-65768255D01*
X48390396Y-65768255D01*
X48390393Y-65768254D01*
X48232573Y-65722402D01*
X48232567Y-65722401D01*
X48195701Y-65719500D01*
X48195694Y-65719500D01*
X47764306Y-65719500D01*
X47764298Y-65719500D01*
X47727432Y-65722401D01*
X47727426Y-65722402D01*
X47569606Y-65768254D01*
X47569603Y-65768255D01*
X47428137Y-65851917D01*
X47421969Y-65856702D01*
X47420072Y-65854256D01*
X47371358Y-65880857D01*
X47301666Y-65875873D01*
X47269296Y-65855069D01*
X47268031Y-65856702D01*
X47261862Y-65851917D01*
X47142219Y-65781161D01*
X47120398Y-65768256D01*
X47120397Y-65768255D01*
X47120396Y-65768255D01*
X47120393Y-65768254D01*
X46962573Y-65722402D01*
X46962567Y-65722401D01*
X46925701Y-65719500D01*
X46925694Y-65719500D01*
X46494306Y-65719500D01*
X46494298Y-65719500D01*
X46457432Y-65722401D01*
X46457426Y-65722402D01*
X46299606Y-65768254D01*
X46299603Y-65768255D01*
X46158140Y-65851915D01*
X46151974Y-65856699D01*
X46150174Y-65854379D01*
X46100913Y-65881230D01*
X46031225Y-65876193D01*
X45998992Y-65855461D01*
X45997722Y-65857100D01*
X45991552Y-65852314D01*
X45850196Y-65768717D01*
X45850193Y-65768716D01*
X45692494Y-65722900D01*
X45692497Y-65722900D01*
X45690000Y-65722703D01*
X45690000Y-68717295D01*
X45690001Y-68717295D01*
X45692488Y-68717100D01*
X45692494Y-68717099D01*
X45850905Y-68671077D01*
X45920775Y-68671276D01*
X45979445Y-68709218D01*
X46008288Y-68772857D01*
X46009500Y-68790153D01*
X46009500Y-70221448D01*
X45989815Y-70288487D01*
X45973181Y-70309129D01*
X45915660Y-70366649D01*
X45915657Y-70366653D01*
X45878351Y-70427136D01*
X45826403Y-70473861D01*
X45757441Y-70485082D01*
X45693359Y-70457239D01*
X45667275Y-70427136D01*
X45625342Y-70359153D01*
X45625339Y-70359149D01*
X45503351Y-70237161D01*
X45503350Y-70237160D01*
X45387270Y-70165561D01*
X45356518Y-70146593D01*
X45356513Y-70146591D01*
X45320897Y-70134789D01*
X45192753Y-70092326D01*
X45192751Y-70092325D01*
X45091684Y-70082000D01*
X45091677Y-70082000D01*
X44994500Y-70082000D01*
X44927461Y-70062315D01*
X44881706Y-70009511D01*
X44870500Y-69958000D01*
X44870500Y-68790153D01*
X44890185Y-68723114D01*
X44942989Y-68677359D01*
X45012147Y-68667415D01*
X45029095Y-68671077D01*
X45187505Y-68717099D01*
X45187511Y-68717100D01*
X45189998Y-68717295D01*
X45190000Y-68717295D01*
X45190000Y-65722703D01*
X45187503Y-65722900D01*
X45029806Y-65768716D01*
X45029803Y-65768717D01*
X44888449Y-65852313D01*
X44882283Y-65857097D01*
X44880389Y-65854655D01*
X44831580Y-65881239D01*
X44761894Y-65876179D01*
X44729227Y-65855159D01*
X44728031Y-65856702D01*
X44721862Y-65851917D01*
X44602219Y-65781161D01*
X44580398Y-65768256D01*
X44580397Y-65768255D01*
X44580396Y-65768255D01*
X44580393Y-65768254D01*
X44422573Y-65722402D01*
X44422567Y-65722401D01*
X44385701Y-65719500D01*
X44385694Y-65719500D01*
X43954306Y-65719500D01*
X43954298Y-65719500D01*
X43917432Y-65722401D01*
X43917426Y-65722402D01*
X43759606Y-65768254D01*
X43759603Y-65768255D01*
X43618137Y-65851917D01*
X43611969Y-65856702D01*
X43610072Y-65854256D01*
X43561358Y-65880857D01*
X43491666Y-65875873D01*
X43459296Y-65855069D01*
X43458031Y-65856702D01*
X43451862Y-65851917D01*
X43332219Y-65781161D01*
X43310398Y-65768256D01*
X43310397Y-65768255D01*
X43310396Y-65768255D01*
X43310393Y-65768254D01*
X43152573Y-65722402D01*
X43152567Y-65722401D01*
X43115701Y-65719500D01*
X43115694Y-65719500D01*
X42684306Y-65719500D01*
X42684298Y-65719500D01*
X42647432Y-65722401D01*
X42647426Y-65722402D01*
X42489606Y-65768254D01*
X42489603Y-65768255D01*
X42348137Y-65851917D01*
X42341969Y-65856702D01*
X42340072Y-65854256D01*
X42291358Y-65880857D01*
X42221666Y-65875873D01*
X42189296Y-65855069D01*
X42188031Y-65856702D01*
X42181862Y-65851917D01*
X42062219Y-65781161D01*
X42040398Y-65768256D01*
X42040397Y-65768255D01*
X42040396Y-65768255D01*
X42040393Y-65768254D01*
X41882573Y-65722402D01*
X41882567Y-65722401D01*
X41845701Y-65719500D01*
X41845694Y-65719500D01*
X41414306Y-65719500D01*
X41414298Y-65719500D01*
X41377432Y-65722401D01*
X41319094Y-65739350D01*
X41249224Y-65739149D01*
X41190555Y-65701207D01*
X41161712Y-65637568D01*
X41160500Y-65620273D01*
X41160500Y-63819205D01*
X41180185Y-63752166D01*
X41232989Y-63706411D01*
X41302147Y-63696467D01*
X41319095Y-63700129D01*
X41377505Y-63717099D01*
X41377511Y-63717100D01*
X41379998Y-63717295D01*
X41380000Y-63717295D01*
X41880000Y-63717295D01*
X41880001Y-63717295D01*
X41882486Y-63717100D01*
X42040198Y-63671281D01*
X42181552Y-63587685D01*
X42187722Y-63582900D01*
X42189546Y-63585252D01*
X42238595Y-63558445D01*
X42308288Y-63563402D01*
X42341063Y-63584465D01*
X42342278Y-63582900D01*
X42348447Y-63587685D01*
X42489801Y-63671281D01*
X42647514Y-63717100D01*
X42647511Y-63717100D01*
X42649998Y-63717295D01*
X42650000Y-63717295D01*
X42650000Y-62470000D01*
X41880000Y-62470000D01*
X41880000Y-63717295D01*
X41380000Y-63717295D01*
X41380000Y-62094000D01*
X41399685Y-62026961D01*
X41452489Y-61981206D01*
X41504000Y-61970000D01*
X43026000Y-61970000D01*
X43093039Y-61989685D01*
X43138794Y-62042489D01*
X43150000Y-62094000D01*
X43150000Y-63717295D01*
X43150001Y-63717295D01*
X43152486Y-63717100D01*
X43310198Y-63671281D01*
X43451550Y-63587686D01*
X43457717Y-63582903D01*
X43459630Y-63585369D01*
X43508222Y-63558802D01*
X43577917Y-63563749D01*
X43610762Y-63584853D01*
X43611969Y-63583298D01*
X43618132Y-63588078D01*
X43618135Y-63588081D01*
X43759602Y-63671744D01*
X43801224Y-63683836D01*
X43917426Y-63717597D01*
X43917429Y-63717597D01*
X43917431Y-63717598D01*
X43954306Y-63720500D01*
X43954314Y-63720500D01*
X44385686Y-63720500D01*
X44385694Y-63720500D01*
X44422569Y-63717598D01*
X44422571Y-63717597D01*
X44422573Y-63717597D01*
X44482697Y-63700129D01*
X44580398Y-63671744D01*
X44721865Y-63588081D01*
X44721870Y-63588075D01*
X44728031Y-63583298D01*
X44729933Y-63585750D01*
X44778579Y-63559155D01*
X44848274Y-63564104D01*
X44880695Y-63584940D01*
X44881969Y-63583298D01*
X44888132Y-63588078D01*
X44888135Y-63588081D01*
X45029602Y-63671744D01*
X45071224Y-63683836D01*
X45187426Y-63717597D01*
X45187429Y-63717597D01*
X45187431Y-63717598D01*
X45224306Y-63720500D01*
X45224314Y-63720500D01*
X45655686Y-63720500D01*
X45655694Y-63720500D01*
X45692569Y-63717598D01*
X45692571Y-63717597D01*
X45692573Y-63717597D01*
X45752697Y-63700129D01*
X45850398Y-63671744D01*
X45991865Y-63588081D01*
X45991870Y-63588075D01*
X45998031Y-63583298D01*
X45999933Y-63585750D01*
X46048579Y-63559155D01*
X46118274Y-63564104D01*
X46150695Y-63584940D01*
X46151969Y-63583298D01*
X46158132Y-63588078D01*
X46158135Y-63588081D01*
X46299602Y-63671744D01*
X46341224Y-63683836D01*
X46457426Y-63717597D01*
X46457429Y-63717597D01*
X46457431Y-63717598D01*
X46494306Y-63720500D01*
X46494314Y-63720500D01*
X46925686Y-63720500D01*
X46925694Y-63720500D01*
X46962569Y-63717598D01*
X46962571Y-63717597D01*
X46962573Y-63717597D01*
X47022697Y-63700129D01*
X47120398Y-63671744D01*
X47261865Y-63588081D01*
X47261868Y-63588077D01*
X47268026Y-63583301D01*
X47269839Y-63585638D01*
X47318949Y-63558798D01*
X47388643Y-63563756D01*
X47420996Y-63584551D01*
X47422278Y-63582900D01*
X47428447Y-63587685D01*
X47569801Y-63671281D01*
X47727514Y-63717100D01*
X47727511Y-63717100D01*
X47729998Y-63717295D01*
X47730000Y-63717295D01*
X48230000Y-63717295D01*
X48230001Y-63717295D01*
X48232486Y-63717100D01*
X48390198Y-63671281D01*
X48531552Y-63587685D01*
X48537722Y-63582900D01*
X48539546Y-63585252D01*
X48588595Y-63558445D01*
X48658288Y-63563402D01*
X48691063Y-63584465D01*
X48692278Y-63582900D01*
X48698447Y-63587685D01*
X48839801Y-63671281D01*
X48997514Y-63717100D01*
X48997511Y-63717100D01*
X48999998Y-63717295D01*
X49000000Y-63717295D01*
X49500000Y-63717295D01*
X49500001Y-63717295D01*
X49502486Y-63717100D01*
X49660198Y-63671281D01*
X49801552Y-63587685D01*
X49801561Y-63587678D01*
X49917678Y-63471561D01*
X49917685Y-63471552D01*
X50001282Y-63330196D01*
X50001283Y-63330193D01*
X50047099Y-63172495D01*
X50047100Y-63172489D01*
X50049999Y-63135649D01*
X50050000Y-63135634D01*
X50050000Y-62470000D01*
X49500000Y-62470000D01*
X49500000Y-63717295D01*
X49000000Y-63717295D01*
X49000000Y-62470000D01*
X48230000Y-62470000D01*
X48230000Y-63717295D01*
X47730000Y-63717295D01*
X47730000Y-62094000D01*
X47749685Y-62026961D01*
X47802489Y-61981206D01*
X47854000Y-61970000D01*
X49000000Y-61970000D01*
X49500000Y-61970000D01*
X50050000Y-61970000D01*
X50050000Y-61304365D01*
X50049999Y-61304350D01*
X50047100Y-61267510D01*
X50047099Y-61267504D01*
X50001283Y-61109806D01*
X50001282Y-61109803D01*
X49917685Y-60968447D01*
X49917678Y-60968438D01*
X49801561Y-60852321D01*
X49801552Y-60852314D01*
X49660196Y-60768717D01*
X49660193Y-60768716D01*
X49502494Y-60722900D01*
X49502497Y-60722900D01*
X49500000Y-60722703D01*
X49500000Y-61970000D01*
X49000000Y-61970000D01*
X49000000Y-60722703D01*
X48997503Y-60722900D01*
X48839806Y-60768716D01*
X48839803Y-60768717D01*
X48698447Y-60852314D01*
X48692278Y-60857100D01*
X48690457Y-60854753D01*
X48641358Y-60881564D01*
X48571666Y-60876580D01*
X48538930Y-60855541D01*
X48537722Y-60857100D01*
X48531552Y-60852314D01*
X48383483Y-60764747D01*
X48384306Y-60763355D01*
X48337644Y-60724524D01*
X48316626Y-60657891D01*
X48334969Y-60590472D01*
X48352908Y-60567749D01*
X48587841Y-60332816D01*
X48649162Y-60299334D01*
X48675520Y-60296500D01*
X51924982Y-60296500D01*
X51992021Y-60316185D01*
G37*
G04 #@! TD.AperFunction*
G04 #@! TA.AperFunction,Conductor*
G36*
X75442539Y-73915685D02*
G01*
X75488294Y-73968489D01*
X75499500Y-74020000D01*
X75499500Y-77537099D01*
X75479815Y-77604138D01*
X75427011Y-77649893D01*
X75357853Y-77659837D01*
X75294297Y-77630812D01*
X75256523Y-77572034D01*
X75254824Y-77565616D01*
X75254092Y-77562520D01*
X75248930Y-77548681D01*
X75220019Y-77471164D01*
X75203797Y-77427671D01*
X75203793Y-77427664D01*
X75117547Y-77312455D01*
X75117544Y-77312452D01*
X75002335Y-77226206D01*
X75002328Y-77226202D01*
X74867482Y-77175908D01*
X74867483Y-77175908D01*
X74807883Y-77169501D01*
X74807881Y-77169500D01*
X74807873Y-77169500D01*
X74807865Y-77169500D01*
X73490005Y-77169500D01*
X73422966Y-77149815D01*
X73377211Y-77097011D01*
X73367267Y-77027853D01*
X73386903Y-76976609D01*
X73477390Y-76841185D01*
X73477390Y-76841184D01*
X73477394Y-76841179D01*
X73537737Y-76695497D01*
X73568500Y-76540842D01*
X73568500Y-76383158D01*
X73568500Y-74020000D01*
X73588185Y-73952961D01*
X73640989Y-73907206D01*
X73692500Y-73896000D01*
X75375500Y-73896000D01*
X75442539Y-73915685D01*
G37*
G04 #@! TD.AperFunction*
G04 #@! TA.AperFunction,Conductor*
G36*
X57604592Y-73688978D02*
G01*
X57660526Y-73730850D01*
X57682876Y-73780968D01*
X57706418Y-73899321D01*
X57706421Y-73899331D01*
X57759222Y-74026806D01*
X57835887Y-74141544D01*
X58336662Y-74642319D01*
X58370147Y-74703642D01*
X58365163Y-74773334D01*
X58336662Y-74817681D01*
X57835886Y-75318457D01*
X57830516Y-75326495D01*
X57830513Y-75326500D01*
X57759228Y-75433183D01*
X57759221Y-75433196D01*
X57706421Y-75560668D01*
X57706418Y-75560678D01*
X57679500Y-75696005D01*
X57679500Y-77132500D01*
X57659815Y-77199539D01*
X57607011Y-77245294D01*
X57555500Y-77256500D01*
X57165830Y-77256500D01*
X57165812Y-77256501D01*
X57064739Y-77266826D01*
X57060449Y-77267745D01*
X56990775Y-77262526D01*
X56934983Y-77220466D01*
X56910787Y-77154920D01*
X56910500Y-77146491D01*
X56910500Y-75696005D01*
X56883581Y-75560678D01*
X56883580Y-75560677D01*
X56883580Y-75560673D01*
X56851641Y-75483564D01*
X56830778Y-75433196D01*
X56830771Y-75433183D01*
X56759487Y-75326500D01*
X56759484Y-75326495D01*
X56754113Y-75318457D01*
X56754112Y-75318455D01*
X56366358Y-74930701D01*
X56332873Y-74869378D01*
X56337857Y-74799686D01*
X56379729Y-74743753D01*
X56406579Y-74728462D01*
X56437211Y-74715775D01*
X56551943Y-74639114D01*
X57473578Y-73717479D01*
X57534901Y-73683994D01*
X57604592Y-73688978D01*
G37*
G04 #@! TD.AperFunction*
G04 #@! TA.AperFunction,Conductor*
G36*
X45816796Y-71740257D02*
G01*
X45842884Y-71770363D01*
X45915657Y-71888346D01*
X45915660Y-71888350D01*
X45929982Y-71902672D01*
X45963467Y-71963995D01*
X45958483Y-72033687D01*
X45929985Y-72078032D01*
X45916053Y-72091963D01*
X45847510Y-72203089D01*
X45795562Y-72249813D01*
X45726599Y-72261034D01*
X45662517Y-72233190D01*
X45636433Y-72203087D01*
X45624945Y-72184462D01*
X45511017Y-72070534D01*
X45477532Y-72009211D01*
X45482516Y-71939519D01*
X45511013Y-71895176D01*
X45625340Y-71780850D01*
X45631805Y-71770367D01*
X45683751Y-71723641D01*
X45752713Y-71712416D01*
X45816796Y-71740257D01*
G37*
G04 #@! TD.AperFunction*
G04 #@! TA.AperFunction,Conductor*
G36*
X67856100Y-66816184D02*
G01*
X67901855Y-66868988D01*
X67911799Y-66938146D01*
X67882774Y-67001702D01*
X67876742Y-67008180D01*
X67561711Y-67323211D01*
X67526423Y-67358499D01*
X67450209Y-67434712D01*
X67362609Y-67565814D01*
X67362602Y-67565827D01*
X67302261Y-67711505D01*
X67301801Y-67713024D01*
X67301343Y-67713721D01*
X67299932Y-67717130D01*
X67299285Y-67716862D01*
X67263500Y-67771460D01*
X67199686Y-67799913D01*
X67166958Y-67799959D01*
X67144808Y-67797043D01*
X67064727Y-67786500D01*
X67064720Y-67786500D01*
X66539280Y-67786500D01*
X66539272Y-67786500D01*
X66426764Y-67801313D01*
X66426763Y-67801313D01*
X66286766Y-67859301D01*
X66242486Y-67893279D01*
X66177316Y-67918473D01*
X66108871Y-67904434D01*
X66091514Y-67893279D01*
X66047233Y-67859301D01*
X65940726Y-67815185D01*
X65907236Y-67801313D01*
X65893171Y-67799461D01*
X65794727Y-67786500D01*
X65794720Y-67786500D01*
X65269280Y-67786500D01*
X65269272Y-67786500D01*
X65156764Y-67801313D01*
X65156763Y-67801313D01*
X65016766Y-67859301D01*
X64972486Y-67893279D01*
X64907316Y-67918473D01*
X64838871Y-67904434D01*
X64821514Y-67893279D01*
X64777233Y-67859301D01*
X64670726Y-67815185D01*
X64637236Y-67801313D01*
X64623171Y-67799461D01*
X64524727Y-67786500D01*
X64524720Y-67786500D01*
X63999280Y-67786500D01*
X63999272Y-67786500D01*
X63886764Y-67801313D01*
X63886760Y-67801314D01*
X63757451Y-67854875D01*
X63687982Y-67862344D01*
X63625503Y-67831068D01*
X63589851Y-67770979D01*
X63585999Y-67740314D01*
X63585999Y-67696360D01*
X63585998Y-67696345D01*
X63575680Y-67595347D01*
X63521453Y-67431699D01*
X63521448Y-67431688D01*
X63430947Y-67284965D01*
X63430944Y-67284961D01*
X63417017Y-67271034D01*
X63383532Y-67209711D01*
X63388516Y-67140019D01*
X63417017Y-67095672D01*
X63431340Y-67081350D01*
X63521908Y-66934516D01*
X63524898Y-66925491D01*
X63564673Y-66868049D01*
X63629189Y-66841228D01*
X63642603Y-66840500D01*
X66372843Y-66840500D01*
X66372844Y-66840499D01*
X66449151Y-66825320D01*
X66527487Y-66809739D01*
X66527488Y-66809738D01*
X66527496Y-66809737D01*
X66536670Y-66805936D01*
X66584120Y-66796499D01*
X67789061Y-66796499D01*
X67856100Y-66816184D01*
G37*
G04 #@! TD.AperFunction*
G04 #@! TA.AperFunction,Conductor*
G36*
X73011039Y-38020185D02*
G01*
X73056794Y-38072989D01*
X73068000Y-38124500D01*
X73068000Y-43232950D01*
X73048315Y-43299989D01*
X72995511Y-43345744D01*
X72926353Y-43355688D01*
X72900667Y-43349132D01*
X72775380Y-43302403D01*
X72775372Y-43302401D01*
X72715844Y-43296000D01*
X72518000Y-43296000D01*
X72518000Y-45037638D01*
X72498315Y-45104677D01*
X72481681Y-45125319D01*
X72468000Y-45139000D01*
X72468000Y-57253000D01*
X72481681Y-57266681D01*
X72515166Y-57328004D01*
X72518000Y-57354362D01*
X72518000Y-59096000D01*
X72715828Y-59096000D01*
X72715844Y-59095999D01*
X72775372Y-59089598D01*
X72775376Y-59089597D01*
X72900666Y-59042867D01*
X72970358Y-59037883D01*
X73031681Y-59071368D01*
X73065166Y-59132691D01*
X73068000Y-59159049D01*
X73068000Y-65540559D01*
X73048315Y-65607598D01*
X72995511Y-65653353D01*
X72926353Y-65663297D01*
X72862797Y-65634272D01*
X72856319Y-65628240D01*
X72602291Y-65374212D01*
X72602287Y-65374209D01*
X72471184Y-65286608D01*
X72471171Y-65286601D01*
X72325500Y-65226263D01*
X72325490Y-65226260D01*
X72299719Y-65221134D01*
X72237808Y-65188748D01*
X72218376Y-65164619D01*
X72194340Y-65125650D01*
X72180017Y-65111327D01*
X72146532Y-65050004D01*
X72151516Y-64980312D01*
X72180021Y-64935960D01*
X72193947Y-64922035D01*
X72284448Y-64775311D01*
X72284453Y-64775300D01*
X72338680Y-64611652D01*
X72348999Y-64510654D01*
X72349000Y-64510641D01*
X72349000Y-64411500D01*
X69724000Y-64411500D01*
X69656961Y-64391815D01*
X69611206Y-64339011D01*
X69600000Y-64287500D01*
X69600000Y-63911500D01*
X70100000Y-63911500D01*
X71124000Y-63911500D01*
X71624000Y-63911500D01*
X72348999Y-63911500D01*
X72348999Y-63812360D01*
X72348998Y-63812345D01*
X72338680Y-63711347D01*
X72284453Y-63547699D01*
X72284448Y-63547688D01*
X72193947Y-63400965D01*
X72193944Y-63400961D01*
X72072038Y-63279055D01*
X72072034Y-63279052D01*
X71925311Y-63188551D01*
X71925300Y-63188546D01*
X71761652Y-63134319D01*
X71660654Y-63124000D01*
X71624000Y-63124000D01*
X71624000Y-63911500D01*
X71124000Y-63911500D01*
X71124000Y-63124000D01*
X71087361Y-63124000D01*
X71087343Y-63124001D01*
X70986347Y-63134319D01*
X70822699Y-63188546D01*
X70822688Y-63188551D01*
X70677097Y-63278354D01*
X70609705Y-63296795D01*
X70546903Y-63278354D01*
X70401311Y-63188551D01*
X70401300Y-63188546D01*
X70237652Y-63134319D01*
X70136654Y-63124000D01*
X70100000Y-63124000D01*
X70100000Y-63911500D01*
X69600000Y-63911500D01*
X69600000Y-63124000D01*
X69563361Y-63124000D01*
X69563343Y-63124001D01*
X69462347Y-63134319D01*
X69298699Y-63188546D01*
X69298688Y-63188551D01*
X69151965Y-63279052D01*
X69151961Y-63279055D01*
X69084181Y-63346836D01*
X69022858Y-63380321D01*
X68953166Y-63375337D01*
X68897233Y-63333465D01*
X68872816Y-63268001D01*
X68872500Y-63259155D01*
X68872500Y-62913158D01*
X68872499Y-62913155D01*
X68868399Y-62892536D01*
X68868399Y-62892535D01*
X68845549Y-62777665D01*
X68841738Y-62758503D01*
X68781394Y-62612821D01*
X68781392Y-62612818D01*
X68781390Y-62612814D01*
X68693789Y-62481711D01*
X68693786Y-62481707D01*
X66114819Y-59902740D01*
X66081334Y-59841417D01*
X66078500Y-59815059D01*
X66078500Y-59220499D01*
X66098185Y-59153460D01*
X66150989Y-59107705D01*
X66202500Y-59096499D01*
X66365871Y-59096499D01*
X66365872Y-59096499D01*
X66425483Y-59090091D01*
X66499667Y-59062421D01*
X66569358Y-59057438D01*
X66586327Y-59062420D01*
X66613619Y-59072599D01*
X66659192Y-59089597D01*
X66660517Y-59090091D01*
X66720127Y-59096500D01*
X67215872Y-59096499D01*
X67275483Y-59090091D01*
X67349667Y-59062421D01*
X67419358Y-59057438D01*
X67436327Y-59062420D01*
X67463619Y-59072599D01*
X67509192Y-59089597D01*
X67510517Y-59090091D01*
X67570127Y-59096500D01*
X68065872Y-59096499D01*
X68125483Y-59090091D01*
X68200380Y-59062155D01*
X68270071Y-59057171D01*
X68287049Y-59062156D01*
X68360621Y-59089597D01*
X68420155Y-59095999D01*
X68420172Y-59096000D01*
X68468000Y-59096000D01*
X68868000Y-59096000D01*
X68915828Y-59096000D01*
X68915844Y-59095999D01*
X68975371Y-59089598D01*
X69049666Y-59061888D01*
X69119358Y-59056904D01*
X69136334Y-59061888D01*
X69210628Y-59089598D01*
X69210627Y-59089598D01*
X69270155Y-59095999D01*
X69270172Y-59096000D01*
X69318000Y-59096000D01*
X69318000Y-58396000D01*
X68868000Y-58396000D01*
X68868000Y-59096000D01*
X68468000Y-59096000D01*
X68468000Y-58844068D01*
X68475817Y-58800737D01*
X68512091Y-58703483D01*
X68518500Y-58643873D01*
X68518499Y-57996000D01*
X68868000Y-57996000D01*
X69318000Y-57996000D01*
X69318000Y-57748135D01*
X69667500Y-57748135D01*
X69667500Y-58643870D01*
X69667501Y-58643876D01*
X69673908Y-58703481D01*
X69673909Y-58703483D01*
X69710182Y-58800737D01*
X69718000Y-58844068D01*
X69718000Y-59096000D01*
X69765828Y-59096000D01*
X69765837Y-59095999D01*
X69797913Y-59092550D01*
X69866673Y-59104953D01*
X69917812Y-59152562D01*
X69935093Y-59220261D01*
X69929514Y-59249892D01*
X69929782Y-59249953D01*
X69928230Y-59256750D01*
X69908035Y-59435996D01*
X69908035Y-59436003D01*
X69928230Y-59615249D01*
X69928231Y-59615254D01*
X69987811Y-59785523D01*
X70038644Y-59866422D01*
X70083784Y-59938262D01*
X70211338Y-60065816D01*
X70364078Y-60161789D01*
X70534345Y-60221368D01*
X70534350Y-60221369D01*
X70713596Y-60241565D01*
X70713600Y-60241565D01*
X70713604Y-60241565D01*
X70892849Y-60221369D01*
X70892852Y-60221368D01*
X70892855Y-60221368D01*
X71063122Y-60161789D01*
X71215862Y-60065816D01*
X71343416Y-59938262D01*
X71439389Y-59785522D01*
X71475608Y-59682011D01*
X71504964Y-59635291D01*
X71762113Y-59378143D01*
X71767073Y-59370720D01*
X71838775Y-59263411D01*
X71876412Y-59172546D01*
X71920251Y-59118145D01*
X71986545Y-59096079D01*
X71990972Y-59096000D01*
X72018000Y-59096000D01*
X72018000Y-57346000D01*
X71666069Y-57346000D01*
X71622736Y-57338182D01*
X71525486Y-57301910D01*
X71525485Y-57301909D01*
X71525483Y-57301909D01*
X71465873Y-57295500D01*
X71465863Y-57295500D01*
X70970129Y-57295500D01*
X70970123Y-57295501D01*
X70910516Y-57301908D01*
X70836332Y-57329577D01*
X70766640Y-57334561D01*
X70749668Y-57329577D01*
X70675488Y-57301910D01*
X70675484Y-57301909D01*
X70675483Y-57301909D01*
X70615873Y-57295500D01*
X70615863Y-57295500D01*
X70120129Y-57295500D01*
X70120123Y-57295501D01*
X70060516Y-57301908D01*
X69985617Y-57329844D01*
X69915926Y-57334828D01*
X69898952Y-57329844D01*
X69825379Y-57302403D01*
X69825372Y-57302401D01*
X69765844Y-57296000D01*
X69718000Y-57296000D01*
X69718000Y-57547930D01*
X69710182Y-57591263D01*
X69673908Y-57688517D01*
X69667501Y-57748116D01*
X69667501Y-57748123D01*
X69667500Y-57748135D01*
X69318000Y-57748135D01*
X69318000Y-57296000D01*
X69270155Y-57296000D01*
X69210627Y-57302401D01*
X69210617Y-57302403D01*
X69136332Y-57330110D01*
X69066641Y-57335094D01*
X69049668Y-57330110D01*
X68975382Y-57302403D01*
X68975372Y-57302401D01*
X68915844Y-57296000D01*
X68868000Y-57296000D01*
X68868000Y-57996000D01*
X68518499Y-57996000D01*
X68518499Y-57748128D01*
X68512091Y-57688517D01*
X68493776Y-57639413D01*
X68475818Y-57591263D01*
X68468000Y-57547930D01*
X68468000Y-57296000D01*
X68420155Y-57296000D01*
X68360627Y-57302401D01*
X68360623Y-57302402D01*
X68287046Y-57329844D01*
X68217354Y-57334827D01*
X68200382Y-57329843D01*
X68125488Y-57301910D01*
X68125484Y-57301909D01*
X68125483Y-57301909D01*
X68065873Y-57295500D01*
X68065863Y-57295500D01*
X67570129Y-57295500D01*
X67570123Y-57295501D01*
X67510516Y-57301908D01*
X67436332Y-57329577D01*
X67366640Y-57334561D01*
X67349668Y-57329577D01*
X67275488Y-57301910D01*
X67275484Y-57301909D01*
X67275483Y-57301909D01*
X67215873Y-57295500D01*
X67215863Y-57295500D01*
X66720129Y-57295500D01*
X66720123Y-57295501D01*
X66660516Y-57301908D01*
X66586332Y-57329577D01*
X66516640Y-57334561D01*
X66499668Y-57329577D01*
X66425488Y-57301910D01*
X66425484Y-57301909D01*
X66425483Y-57301909D01*
X66365873Y-57295500D01*
X66365863Y-57295500D01*
X65870129Y-57295500D01*
X65870123Y-57295501D01*
X65810516Y-57301908D01*
X65736332Y-57329577D01*
X65666640Y-57334561D01*
X65649668Y-57329577D01*
X65575488Y-57301910D01*
X65575484Y-57301909D01*
X65575483Y-57301909D01*
X65515873Y-57295500D01*
X65515863Y-57295500D01*
X65020129Y-57295500D01*
X65020123Y-57295501D01*
X64960516Y-57301908D01*
X64886332Y-57329577D01*
X64816640Y-57334561D01*
X64799668Y-57329577D01*
X64725488Y-57301910D01*
X64725484Y-57301909D01*
X64725483Y-57301909D01*
X64665873Y-57295500D01*
X64665863Y-57295500D01*
X64170129Y-57295500D01*
X64170123Y-57295501D01*
X64110516Y-57301908D01*
X64036332Y-57329577D01*
X63966640Y-57334561D01*
X63949668Y-57329577D01*
X63875488Y-57301910D01*
X63875484Y-57301909D01*
X63875483Y-57301909D01*
X63815873Y-57295500D01*
X63815863Y-57295500D01*
X63320129Y-57295500D01*
X63320123Y-57295501D01*
X63260516Y-57301908D01*
X63186332Y-57329577D01*
X63116640Y-57334561D01*
X63099668Y-57329577D01*
X63025488Y-57301910D01*
X63025484Y-57301909D01*
X63025483Y-57301909D01*
X62965873Y-57295500D01*
X62965863Y-57295500D01*
X62470129Y-57295500D01*
X62470123Y-57295501D01*
X62410516Y-57301908D01*
X62336332Y-57329577D01*
X62266640Y-57334561D01*
X62249668Y-57329577D01*
X62175485Y-57301909D01*
X62175483Y-57301908D01*
X62115883Y-57295501D01*
X62115881Y-57295500D01*
X62115873Y-57295500D01*
X62115865Y-57295500D01*
X61939392Y-57295500D01*
X61872353Y-57275815D01*
X61826598Y-57223011D01*
X61816172Y-57157616D01*
X61823565Y-57092002D01*
X61823565Y-57091996D01*
X61803369Y-56912750D01*
X61803368Y-56912745D01*
X61752337Y-56766908D01*
X61743789Y-56742478D01*
X61733541Y-56726169D01*
X61656454Y-56603485D01*
X61647816Y-56589738D01*
X61601922Y-56543844D01*
X71368000Y-56543844D01*
X71374401Y-56603372D01*
X71374403Y-56603382D01*
X71402110Y-56677668D01*
X71407094Y-56747359D01*
X71402110Y-56764332D01*
X71374403Y-56838617D01*
X71374401Y-56838627D01*
X71368000Y-56898155D01*
X71368000Y-56946000D01*
X72068000Y-56946000D01*
X72068000Y-56496000D01*
X71368000Y-56496000D01*
X71368000Y-56543844D01*
X61601922Y-56543844D01*
X61520262Y-56462184D01*
X61465956Y-56428061D01*
X61367523Y-56366211D01*
X61197254Y-56306631D01*
X61197249Y-56306630D01*
X61018004Y-56286435D01*
X61017996Y-56286435D01*
X60838750Y-56306630D01*
X60838745Y-56306631D01*
X60668476Y-56366211D01*
X60515737Y-56462184D01*
X60388184Y-56589737D01*
X60292211Y-56742476D01*
X60232631Y-56912745D01*
X60232630Y-56912750D01*
X60212435Y-57091996D01*
X60212435Y-57092005D01*
X60219827Y-57157618D01*
X60207772Y-57226440D01*
X60160422Y-57277818D01*
X60096608Y-57295500D01*
X59920130Y-57295500D01*
X59920123Y-57295501D01*
X59860516Y-57301908D01*
X59786332Y-57329577D01*
X59716640Y-57334561D01*
X59699668Y-57329577D01*
X59625485Y-57301909D01*
X59625483Y-57301908D01*
X59565883Y-57295501D01*
X59565881Y-57295500D01*
X59565873Y-57295500D01*
X59565865Y-57295500D01*
X59292499Y-57295500D01*
X59225460Y-57275815D01*
X59179705Y-57223011D01*
X59168499Y-57171500D01*
X59168499Y-56898129D01*
X59168498Y-56898123D01*
X59162091Y-56838518D01*
X59160447Y-56834110D01*
X59134421Y-56764332D01*
X59129438Y-56694642D01*
X59134420Y-56677672D01*
X59162091Y-56603483D01*
X59168500Y-56543873D01*
X59168499Y-56048128D01*
X59162091Y-55988517D01*
X59134421Y-55914332D01*
X59129438Y-55844642D01*
X59134420Y-55827672D01*
X59162091Y-55753483D01*
X59168500Y-55693873D01*
X59168500Y-55693844D01*
X71368000Y-55693844D01*
X71374401Y-55753372D01*
X71374403Y-55753382D01*
X71402110Y-55827668D01*
X71407094Y-55897359D01*
X71402110Y-55914332D01*
X71374403Y-55988617D01*
X71374401Y-55988627D01*
X71368000Y-56048155D01*
X71368000Y-56096000D01*
X72068000Y-56096000D01*
X72068000Y-55646000D01*
X71368000Y-55646000D01*
X71368000Y-55693844D01*
X59168500Y-55693844D01*
X59168499Y-55198128D01*
X59162091Y-55138517D01*
X59134421Y-55064332D01*
X59129438Y-54994642D01*
X59134420Y-54977672D01*
X59162091Y-54903483D01*
X59168500Y-54843873D01*
X59168500Y-54843844D01*
X71368000Y-54843844D01*
X71374401Y-54903372D01*
X71374403Y-54903382D01*
X71402110Y-54977668D01*
X71407094Y-55047359D01*
X71402110Y-55064332D01*
X71374403Y-55138617D01*
X71374401Y-55138627D01*
X71368000Y-55198155D01*
X71368000Y-55246000D01*
X72068000Y-55246000D01*
X72068000Y-54796000D01*
X71368000Y-54796000D01*
X71368000Y-54843844D01*
X59168500Y-54843844D01*
X59168499Y-54348128D01*
X59162091Y-54288517D01*
X59134421Y-54214332D01*
X59129438Y-54144642D01*
X59134420Y-54127672D01*
X59162091Y-54053483D01*
X59168500Y-53993873D01*
X59168500Y-53993844D01*
X71368000Y-53993844D01*
X71374401Y-54053372D01*
X71374403Y-54053382D01*
X71402110Y-54127668D01*
X71407094Y-54197359D01*
X71402110Y-54214332D01*
X71374403Y-54288617D01*
X71374401Y-54288627D01*
X71368000Y-54348155D01*
X71368000Y-54396000D01*
X72068000Y-54396000D01*
X72068000Y-53946000D01*
X71368000Y-53946000D01*
X71368000Y-53993844D01*
X59168500Y-53993844D01*
X59168499Y-53498128D01*
X59168038Y-53493844D01*
X62518000Y-53493844D01*
X62524401Y-53553372D01*
X62524403Y-53553379D01*
X62574645Y-53688086D01*
X62574649Y-53688093D01*
X62660809Y-53803187D01*
X62660812Y-53803190D01*
X62775906Y-53889350D01*
X62775913Y-53889354D01*
X62910620Y-53939596D01*
X62910627Y-53939598D01*
X62970155Y-53945999D01*
X62970172Y-53946000D01*
X63368000Y-53946000D01*
X63868000Y-53946000D01*
X64265828Y-53946000D01*
X64265844Y-53945999D01*
X64325371Y-53939598D01*
X64399666Y-53911888D01*
X64469358Y-53906904D01*
X64486334Y-53911888D01*
X64560628Y-53939598D01*
X64560627Y-53939598D01*
X64620155Y-53945999D01*
X64620172Y-53946000D01*
X65018000Y-53946000D01*
X65518000Y-53946000D01*
X65915828Y-53946000D01*
X65915844Y-53945999D01*
X65975371Y-53939598D01*
X66049666Y-53911888D01*
X66119358Y-53906904D01*
X66136334Y-53911888D01*
X66210628Y-53939598D01*
X66210627Y-53939598D01*
X66270155Y-53945999D01*
X66270172Y-53946000D01*
X66668000Y-53946000D01*
X67168000Y-53946000D01*
X67565828Y-53946000D01*
X67565844Y-53945999D01*
X67625372Y-53939598D01*
X67625379Y-53939596D01*
X67760086Y-53889354D01*
X67760093Y-53889350D01*
X67875187Y-53803190D01*
X67875190Y-53803187D01*
X67961350Y-53688093D01*
X67961354Y-53688086D01*
X68011596Y-53553379D01*
X68011598Y-53553372D01*
X68017999Y-53493844D01*
X68018000Y-53493827D01*
X68018000Y-53143844D01*
X71368000Y-53143844D01*
X71374401Y-53203372D01*
X71374403Y-53203382D01*
X71402110Y-53277668D01*
X71407094Y-53347359D01*
X71402110Y-53364332D01*
X71374403Y-53438617D01*
X71374401Y-53438627D01*
X71368000Y-53498155D01*
X71368000Y-53546000D01*
X72068000Y-53546000D01*
X72068000Y-53096000D01*
X71368000Y-53096000D01*
X71368000Y-53143844D01*
X68018000Y-53143844D01*
X68018000Y-53096000D01*
X67168000Y-53096000D01*
X67168000Y-53946000D01*
X66668000Y-53946000D01*
X66668000Y-53096000D01*
X65518000Y-53096000D01*
X65518000Y-53946000D01*
X65018000Y-53946000D01*
X65018000Y-53096000D01*
X63868000Y-53096000D01*
X63868000Y-53946000D01*
X63368000Y-53946000D01*
X63368000Y-53096000D01*
X62518000Y-53096000D01*
X62518000Y-53493844D01*
X59168038Y-53493844D01*
X59162091Y-53438517D01*
X59134421Y-53364332D01*
X59129438Y-53294642D01*
X59134420Y-53277672D01*
X59162091Y-53203483D01*
X59168500Y-53143873D01*
X59168499Y-52648128D01*
X59162091Y-52588517D01*
X59134421Y-52514332D01*
X59129438Y-52444642D01*
X59134420Y-52427672D01*
X59162091Y-52353483D01*
X59168500Y-52293873D01*
X59168499Y-51843844D01*
X62518000Y-51843844D01*
X62524401Y-51903372D01*
X62524403Y-51903382D01*
X62552110Y-51977668D01*
X62557094Y-52047359D01*
X62552110Y-52064332D01*
X62524403Y-52138617D01*
X62524401Y-52138627D01*
X62518000Y-52198155D01*
X62518000Y-52596000D01*
X63368000Y-52596000D01*
X63868000Y-52596000D01*
X65018000Y-52596000D01*
X65518000Y-52596000D01*
X66668000Y-52596000D01*
X67168000Y-52596000D01*
X68018000Y-52596000D01*
X68018000Y-52293844D01*
X71368000Y-52293844D01*
X71374401Y-52353372D01*
X71374403Y-52353382D01*
X71402110Y-52427668D01*
X71407094Y-52497359D01*
X71402110Y-52514332D01*
X71374403Y-52588617D01*
X71374401Y-52588627D01*
X71368000Y-52648155D01*
X71368000Y-52696000D01*
X72068000Y-52696000D01*
X72068000Y-52246000D01*
X71368000Y-52246000D01*
X71368000Y-52293844D01*
X68018000Y-52293844D01*
X68018000Y-52198172D01*
X68017999Y-52198155D01*
X68011598Y-52138628D01*
X67983888Y-52064334D01*
X67978904Y-51994642D01*
X67983888Y-51977666D01*
X68011598Y-51903371D01*
X68017999Y-51843844D01*
X68018000Y-51843827D01*
X68018000Y-51446000D01*
X67168000Y-51446000D01*
X67168000Y-52596000D01*
X66668000Y-52596000D01*
X66668000Y-51446000D01*
X65518000Y-51446000D01*
X65518000Y-52596000D01*
X65018000Y-52596000D01*
X65018000Y-51446000D01*
X63868000Y-51446000D01*
X63868000Y-52596000D01*
X63368000Y-52596000D01*
X63368000Y-51446000D01*
X62518000Y-51446000D01*
X62518000Y-51843844D01*
X59168499Y-51843844D01*
X59168499Y-51798128D01*
X59162091Y-51738517D01*
X59134421Y-51664332D01*
X59129438Y-51594642D01*
X59134420Y-51577672D01*
X59162091Y-51503483D01*
X59168500Y-51443873D01*
X59168500Y-51443844D01*
X71368000Y-51443844D01*
X71374401Y-51503372D01*
X71374403Y-51503382D01*
X71402110Y-51577668D01*
X71407094Y-51647359D01*
X71402110Y-51664332D01*
X71374403Y-51738617D01*
X71374401Y-51738627D01*
X71368000Y-51798155D01*
X71368000Y-51846000D01*
X72068000Y-51846000D01*
X72068000Y-51396000D01*
X71368000Y-51396000D01*
X71368000Y-51443844D01*
X59168500Y-51443844D01*
X59168499Y-50948128D01*
X59162091Y-50888517D01*
X59134421Y-50814332D01*
X59129438Y-50744642D01*
X59134420Y-50727672D01*
X59162091Y-50653483D01*
X59168500Y-50593873D01*
X59168499Y-50193844D01*
X62518000Y-50193844D01*
X62524401Y-50253372D01*
X62524403Y-50253382D01*
X62552110Y-50327668D01*
X62557094Y-50397359D01*
X62552110Y-50414332D01*
X62524403Y-50488617D01*
X62524401Y-50488627D01*
X62518000Y-50548155D01*
X62518000Y-50946000D01*
X63368000Y-50946000D01*
X63868000Y-50946000D01*
X65018000Y-50946000D01*
X65518000Y-50946000D01*
X66668000Y-50946000D01*
X67168000Y-50946000D01*
X68018000Y-50946000D01*
X68018000Y-50593844D01*
X71368000Y-50593844D01*
X71374401Y-50653372D01*
X71374403Y-50653382D01*
X71402110Y-50727668D01*
X71407094Y-50797359D01*
X71402110Y-50814332D01*
X71374403Y-50888617D01*
X71374401Y-50888627D01*
X71368000Y-50948155D01*
X71368000Y-50996000D01*
X72068000Y-50996000D01*
X72068000Y-50546000D01*
X71368000Y-50546000D01*
X71368000Y-50593844D01*
X68018000Y-50593844D01*
X68018000Y-50548172D01*
X68017999Y-50548155D01*
X68011598Y-50488628D01*
X67983888Y-50414334D01*
X67978904Y-50344642D01*
X67983888Y-50327666D01*
X68011598Y-50253371D01*
X68017999Y-50193844D01*
X68018000Y-50193827D01*
X68018000Y-49796000D01*
X67168000Y-49796000D01*
X67168000Y-50946000D01*
X66668000Y-50946000D01*
X66668000Y-49796000D01*
X65518000Y-49796000D01*
X65518000Y-50946000D01*
X65018000Y-50946000D01*
X65018000Y-49796000D01*
X63868000Y-49796000D01*
X63868000Y-50946000D01*
X63368000Y-50946000D01*
X63368000Y-49796000D01*
X62518000Y-49796000D01*
X62518000Y-50193844D01*
X59168499Y-50193844D01*
X59168499Y-50098128D01*
X59162091Y-50038517D01*
X59134421Y-49964332D01*
X59129438Y-49894642D01*
X59134420Y-49877672D01*
X59162091Y-49803483D01*
X59168500Y-49743873D01*
X59168500Y-49743844D01*
X71368000Y-49743844D01*
X71374401Y-49803372D01*
X71374403Y-49803382D01*
X71402110Y-49877668D01*
X71407094Y-49947359D01*
X71402110Y-49964332D01*
X71374403Y-50038617D01*
X71374401Y-50038627D01*
X71368000Y-50098155D01*
X71368000Y-50146000D01*
X72068000Y-50146000D01*
X72068000Y-49696000D01*
X71368000Y-49696000D01*
X71368000Y-49743844D01*
X59168500Y-49743844D01*
X59168499Y-49248128D01*
X59162091Y-49188517D01*
X59134421Y-49114332D01*
X59129438Y-49044642D01*
X59134420Y-49027672D01*
X59162091Y-48953483D01*
X59168040Y-48898155D01*
X62518000Y-48898155D01*
X62518000Y-49296000D01*
X63368000Y-49296000D01*
X63868000Y-49296000D01*
X65018000Y-49296000D01*
X65518000Y-49296000D01*
X66668000Y-49296000D01*
X67168000Y-49296000D01*
X68017364Y-49296000D01*
X68007449Y-49217074D01*
X67952429Y-49084241D01*
X67900507Y-49017403D01*
X67900496Y-49017390D01*
X67776950Y-48893844D01*
X71368000Y-48893844D01*
X71374401Y-48953372D01*
X71374403Y-48953382D01*
X71402110Y-49027668D01*
X71407094Y-49097359D01*
X71402110Y-49114332D01*
X71374403Y-49188617D01*
X71374401Y-49188627D01*
X71368000Y-49248155D01*
X71368000Y-49296000D01*
X72068000Y-49296000D01*
X72068000Y-48846000D01*
X71368000Y-48846000D01*
X71368000Y-48893844D01*
X67776950Y-48893844D01*
X67446609Y-48563503D01*
X67446596Y-48563492D01*
X67379758Y-48511570D01*
X67246926Y-48456549D01*
X67246922Y-48456548D01*
X67168000Y-48446634D01*
X67168000Y-49296000D01*
X66668000Y-49296000D01*
X66668000Y-48446000D01*
X66270155Y-48446000D01*
X66210627Y-48452401D01*
X66210617Y-48452403D01*
X66136332Y-48480110D01*
X66066641Y-48485094D01*
X66049668Y-48480110D01*
X65975382Y-48452403D01*
X65975372Y-48452401D01*
X65915844Y-48446000D01*
X65518000Y-48446000D01*
X65518000Y-49296000D01*
X65018000Y-49296000D01*
X65018000Y-48446000D01*
X64620155Y-48446000D01*
X64560627Y-48452401D01*
X64560617Y-48452403D01*
X64486332Y-48480110D01*
X64416641Y-48485094D01*
X64399668Y-48480110D01*
X64325382Y-48452403D01*
X64325372Y-48452401D01*
X64265844Y-48446000D01*
X63868000Y-48446000D01*
X63868000Y-49296000D01*
X63368000Y-49296000D01*
X63368000Y-48446000D01*
X62970155Y-48446000D01*
X62910627Y-48452401D01*
X62910620Y-48452403D01*
X62775913Y-48502645D01*
X62775906Y-48502649D01*
X62660812Y-48588809D01*
X62660809Y-48588812D01*
X62574649Y-48703906D01*
X62574645Y-48703913D01*
X62524403Y-48838620D01*
X62524401Y-48838627D01*
X62518000Y-48898155D01*
X59168040Y-48898155D01*
X59168500Y-48893873D01*
X59168499Y-48398128D01*
X59162091Y-48338517D01*
X59134421Y-48264332D01*
X59129438Y-48194642D01*
X59134420Y-48177672D01*
X59162091Y-48103483D01*
X59168500Y-48043873D01*
X59168500Y-48043844D01*
X71368000Y-48043844D01*
X71374401Y-48103372D01*
X71374403Y-48103382D01*
X71402110Y-48177668D01*
X71407094Y-48247359D01*
X71402110Y-48264332D01*
X71374403Y-48338617D01*
X71374401Y-48338627D01*
X71368000Y-48398155D01*
X71368000Y-48446000D01*
X72068000Y-48446000D01*
X72068000Y-47996000D01*
X71368000Y-47996000D01*
X71368000Y-48043844D01*
X59168500Y-48043844D01*
X59168499Y-47548128D01*
X59162091Y-47488517D01*
X59134421Y-47414332D01*
X59129438Y-47344642D01*
X59134420Y-47327672D01*
X59162091Y-47253483D01*
X59168500Y-47193873D01*
X59168500Y-47193844D01*
X71368000Y-47193844D01*
X71374401Y-47253372D01*
X71374403Y-47253382D01*
X71402110Y-47327668D01*
X71407094Y-47397359D01*
X71402110Y-47414332D01*
X71374403Y-47488617D01*
X71374401Y-47488627D01*
X71368000Y-47548155D01*
X71368000Y-47596000D01*
X72068000Y-47596000D01*
X72068000Y-47146000D01*
X71368000Y-47146000D01*
X71368000Y-47193844D01*
X59168500Y-47193844D01*
X59168499Y-46698128D01*
X59162091Y-46638517D01*
X59134421Y-46564332D01*
X59129438Y-46494642D01*
X59134420Y-46477672D01*
X59162091Y-46403483D01*
X59168500Y-46343873D01*
X59168500Y-46343844D01*
X71368000Y-46343844D01*
X71374401Y-46403372D01*
X71374403Y-46403382D01*
X71402110Y-46477668D01*
X71407094Y-46547359D01*
X71402110Y-46564332D01*
X71374403Y-46638617D01*
X71374401Y-46638627D01*
X71368000Y-46698155D01*
X71368000Y-46746000D01*
X72068000Y-46746000D01*
X72068000Y-46296000D01*
X71368000Y-46296000D01*
X71368000Y-46343844D01*
X59168500Y-46343844D01*
X59168499Y-45848128D01*
X59162091Y-45788517D01*
X59134421Y-45714332D01*
X59129438Y-45644642D01*
X59134420Y-45627672D01*
X59162091Y-45553483D01*
X59168500Y-45493873D01*
X59168500Y-45493844D01*
X71368000Y-45493844D01*
X71374401Y-45553372D01*
X71374403Y-45553382D01*
X71402110Y-45627668D01*
X71407094Y-45697359D01*
X71402110Y-45714332D01*
X71374403Y-45788617D01*
X71374401Y-45788627D01*
X71368000Y-45848155D01*
X71368000Y-45896000D01*
X72068000Y-45896000D01*
X72068000Y-45446000D01*
X71368000Y-45446000D01*
X71368000Y-45493844D01*
X59168500Y-45493844D01*
X59168499Y-45220497D01*
X59188183Y-45153460D01*
X59240987Y-45107705D01*
X59292499Y-45096499D01*
X59565871Y-45096499D01*
X59565872Y-45096499D01*
X59625483Y-45090091D01*
X59699667Y-45062421D01*
X59769358Y-45057438D01*
X59786327Y-45062420D01*
X59844186Y-45084000D01*
X59859192Y-45089597D01*
X59860517Y-45090091D01*
X59920127Y-45096500D01*
X60415872Y-45096499D01*
X60475483Y-45090091D01*
X60549667Y-45062421D01*
X60619358Y-45057438D01*
X60636327Y-45062420D01*
X60694186Y-45084000D01*
X60709192Y-45089597D01*
X60710517Y-45090091D01*
X60770127Y-45096500D01*
X61265872Y-45096499D01*
X61325483Y-45090091D01*
X61399667Y-45062421D01*
X61469358Y-45057438D01*
X61486327Y-45062420D01*
X61544186Y-45084000D01*
X61559192Y-45089597D01*
X61560517Y-45090091D01*
X61620127Y-45096500D01*
X62115872Y-45096499D01*
X62175483Y-45090091D01*
X62249667Y-45062421D01*
X62319358Y-45057438D01*
X62336327Y-45062420D01*
X62394186Y-45084000D01*
X62409192Y-45089597D01*
X62410517Y-45090091D01*
X62470127Y-45096500D01*
X62965872Y-45096499D01*
X63025483Y-45090091D01*
X63099667Y-45062421D01*
X63169358Y-45057438D01*
X63186327Y-45062420D01*
X63244186Y-45084000D01*
X63259192Y-45089597D01*
X63260517Y-45090091D01*
X63320127Y-45096500D01*
X63815872Y-45096499D01*
X63875483Y-45090091D01*
X63949667Y-45062421D01*
X64019358Y-45057438D01*
X64036327Y-45062420D01*
X64094186Y-45084000D01*
X64109192Y-45089597D01*
X64110517Y-45090091D01*
X64170127Y-45096500D01*
X64665872Y-45096499D01*
X64725483Y-45090091D01*
X64799667Y-45062421D01*
X64869358Y-45057438D01*
X64886327Y-45062420D01*
X64944186Y-45084000D01*
X64959192Y-45089597D01*
X64960517Y-45090091D01*
X65020127Y-45096500D01*
X65515872Y-45096499D01*
X65575483Y-45090091D01*
X65649667Y-45062421D01*
X65719358Y-45057438D01*
X65736327Y-45062420D01*
X65794186Y-45084000D01*
X65809192Y-45089597D01*
X65810517Y-45090091D01*
X65870127Y-45096500D01*
X66365872Y-45096499D01*
X66425483Y-45090091D01*
X66499667Y-45062421D01*
X66569358Y-45057438D01*
X66586327Y-45062420D01*
X66644186Y-45084000D01*
X66659192Y-45089597D01*
X66660517Y-45090091D01*
X66720127Y-45096500D01*
X67215872Y-45096499D01*
X67275483Y-45090091D01*
X67349667Y-45062421D01*
X67419358Y-45057438D01*
X67436327Y-45062420D01*
X67494186Y-45084000D01*
X67509192Y-45089597D01*
X67510517Y-45090091D01*
X67570127Y-45096500D01*
X68065872Y-45096499D01*
X68125483Y-45090091D01*
X68199667Y-45062421D01*
X68269358Y-45057438D01*
X68286327Y-45062420D01*
X68344186Y-45084000D01*
X68359192Y-45089597D01*
X68360517Y-45090091D01*
X68420127Y-45096500D01*
X68915872Y-45096499D01*
X68975483Y-45090091D01*
X69049667Y-45062421D01*
X69119358Y-45057438D01*
X69136327Y-45062420D01*
X69194186Y-45084000D01*
X69209192Y-45089597D01*
X69210517Y-45090091D01*
X69270127Y-45096500D01*
X69765872Y-45096499D01*
X69825483Y-45090091D01*
X69900380Y-45062155D01*
X69970071Y-45057171D01*
X69987049Y-45062156D01*
X70060621Y-45089597D01*
X70120155Y-45095999D01*
X70120172Y-45096000D01*
X70168000Y-45096000D01*
X70568000Y-45096000D01*
X70615828Y-45096000D01*
X70615844Y-45095999D01*
X70675371Y-45089598D01*
X70749666Y-45061888D01*
X70819358Y-45056904D01*
X70836334Y-45061888D01*
X70910628Y-45089598D01*
X70910627Y-45089598D01*
X70970155Y-45095999D01*
X70970172Y-45096000D01*
X71018000Y-45096000D01*
X71018000Y-45046000D01*
X71418000Y-45046000D01*
X72018000Y-45046000D01*
X72018000Y-44446000D01*
X71418000Y-44446000D01*
X71418000Y-45046000D01*
X71018000Y-45046000D01*
X71018000Y-44396000D01*
X70568000Y-44396000D01*
X70568000Y-45096000D01*
X70168000Y-45096000D01*
X70168000Y-44844068D01*
X70175817Y-44800737D01*
X70212091Y-44703483D01*
X70218500Y-44643873D01*
X70218499Y-44621319D01*
X70227937Y-44573867D01*
X70287737Y-44429497D01*
X70318500Y-44274842D01*
X70318500Y-44120000D01*
X70338185Y-44052961D01*
X70390989Y-44007206D01*
X70442500Y-43996000D01*
X71325000Y-43996000D01*
X71338681Y-43982319D01*
X71400004Y-43948834D01*
X71426362Y-43946000D01*
X72018000Y-43946000D01*
X72018000Y-43250070D01*
X72037685Y-43183031D01*
X72067905Y-43153366D01*
X72066683Y-43151821D01*
X72072344Y-43147343D01*
X72072350Y-43147340D01*
X72194340Y-43025350D01*
X72284908Y-42878516D01*
X72339174Y-42714753D01*
X72349500Y-42613677D01*
X72349499Y-41915324D01*
X72339174Y-41814247D01*
X72284908Y-41650484D01*
X72194340Y-41503650D01*
X72180017Y-41489327D01*
X72146532Y-41428004D01*
X72151516Y-41358312D01*
X72180021Y-41313960D01*
X72193947Y-41300035D01*
X72284448Y-41153311D01*
X72284453Y-41153300D01*
X72338680Y-40989652D01*
X72348999Y-40888654D01*
X72349000Y-40888641D01*
X72349000Y-40789500D01*
X69724000Y-40789500D01*
X69656961Y-40769815D01*
X69611206Y-40717011D01*
X69600000Y-40665500D01*
X69600000Y-40289500D01*
X70100000Y-40289500D01*
X71124000Y-40289500D01*
X71624000Y-40289500D01*
X72348999Y-40289500D01*
X72348999Y-40190360D01*
X72348998Y-40190345D01*
X72338680Y-40089347D01*
X72284453Y-39925699D01*
X72284448Y-39925688D01*
X72193947Y-39778965D01*
X72193944Y-39778961D01*
X72072038Y-39657055D01*
X72072034Y-39657052D01*
X71925311Y-39566551D01*
X71925300Y-39566546D01*
X71761652Y-39512319D01*
X71660654Y-39502000D01*
X71624000Y-39502000D01*
X71624000Y-40289500D01*
X71124000Y-40289500D01*
X71124000Y-39502000D01*
X71087361Y-39502000D01*
X71087343Y-39502001D01*
X70986347Y-39512319D01*
X70822699Y-39566546D01*
X70822688Y-39566551D01*
X70677097Y-39656354D01*
X70609705Y-39674795D01*
X70546903Y-39656354D01*
X70401311Y-39566551D01*
X70401300Y-39566546D01*
X70237652Y-39512319D01*
X70136654Y-39502000D01*
X70100000Y-39502000D01*
X70100000Y-40289500D01*
X69600000Y-40289500D01*
X69600000Y-39502000D01*
X69563361Y-39502000D01*
X69563343Y-39502001D01*
X69462347Y-39512319D01*
X69298699Y-39566546D01*
X69298690Y-39566550D01*
X69200618Y-39627042D01*
X69133226Y-39645482D01*
X69066562Y-39624559D01*
X69047841Y-39609184D01*
X68342546Y-38903888D01*
X68342545Y-38903887D01*
X68227807Y-38827222D01*
X68100332Y-38774421D01*
X68100322Y-38774418D01*
X67964996Y-38747500D01*
X67964994Y-38747500D01*
X67964993Y-38747500D01*
X57797007Y-38747500D01*
X57797005Y-38747500D01*
X57735365Y-38759761D01*
X57704545Y-38765892D01*
X57679971Y-38770779D01*
X57661668Y-38774420D01*
X57661660Y-38774423D01*
X57608865Y-38796292D01*
X57534191Y-38827223D01*
X57435472Y-38893186D01*
X57419460Y-38903884D01*
X57419454Y-38903889D01*
X56577160Y-39746181D01*
X56515837Y-39779666D01*
X56489479Y-39782500D01*
X56133130Y-39782500D01*
X56133123Y-39782501D01*
X56073516Y-39788908D01*
X55938671Y-39839202D01*
X55938664Y-39839206D01*
X55823455Y-39925452D01*
X55823452Y-39925455D01*
X55737206Y-40040664D01*
X55737202Y-40040671D01*
X55686908Y-40175517D01*
X55682020Y-40220989D01*
X55680501Y-40235123D01*
X55680500Y-40235135D01*
X55680500Y-41380870D01*
X55680501Y-41380876D01*
X55686908Y-41440481D01*
X55697682Y-41469366D01*
X55705500Y-41512700D01*
X55705500Y-44253299D01*
X55697682Y-44296632D01*
X55686908Y-44325516D01*
X55680501Y-44385116D01*
X55680500Y-44385135D01*
X55680500Y-45530870D01*
X55680501Y-45530876D01*
X55686908Y-45590481D01*
X55686909Y-45590483D01*
X55695449Y-45613381D01*
X55697682Y-45619366D01*
X55705500Y-45662700D01*
X55705500Y-45813238D01*
X55685815Y-45880277D01*
X55656016Y-45909533D01*
X55657317Y-45911179D01*
X55651648Y-45915661D01*
X55637325Y-45929984D01*
X55576001Y-45963468D01*
X55506309Y-45958482D01*
X55461965Y-45929982D01*
X55448038Y-45916055D01*
X55448034Y-45916052D01*
X55301311Y-45825551D01*
X55301298Y-45825545D01*
X55232616Y-45802787D01*
X55175171Y-45763015D01*
X55148347Y-45698499D01*
X55155438Y-45641747D01*
X55174595Y-45590383D01*
X55174598Y-45590372D01*
X55180999Y-45530844D01*
X55181000Y-45530827D01*
X55181000Y-45208000D01*
X54230000Y-45208000D01*
X54162961Y-45188315D01*
X54117206Y-45135511D01*
X54106000Y-45084000D01*
X54106000Y-44708000D01*
X54606000Y-44708000D01*
X55181000Y-44708000D01*
X55181000Y-44385172D01*
X55180999Y-44385155D01*
X55174598Y-44325627D01*
X55174596Y-44325620D01*
X55124354Y-44190913D01*
X55124350Y-44190906D01*
X55038190Y-44075812D01*
X55038187Y-44075809D01*
X54923093Y-43989649D01*
X54923086Y-43989645D01*
X54788379Y-43939403D01*
X54788372Y-43939401D01*
X54728844Y-43933000D01*
X54606000Y-43933000D01*
X54606000Y-44708000D01*
X54106000Y-44708000D01*
X54106000Y-43933000D01*
X53983155Y-43933000D01*
X53923627Y-43939401D01*
X53923620Y-43939403D01*
X53788913Y-43989645D01*
X53788906Y-43989649D01*
X53673812Y-44075809D01*
X53673809Y-44075812D01*
X53587649Y-44190906D01*
X53587645Y-44190913D01*
X53583182Y-44202881D01*
X53541311Y-44258815D01*
X53475846Y-44283232D01*
X53407573Y-44268380D01*
X53358168Y-44218975D01*
X53350818Y-44202881D01*
X53346354Y-44190913D01*
X53346350Y-44190906D01*
X53260190Y-44075812D01*
X53260187Y-44075809D01*
X53145093Y-43989649D01*
X53145086Y-43989645D01*
X53010379Y-43939403D01*
X53010372Y-43939401D01*
X52950844Y-43933000D01*
X52828000Y-43933000D01*
X52828000Y-45902000D01*
X52808315Y-45969039D01*
X52755511Y-46014794D01*
X52704000Y-46026000D01*
X52674500Y-46026000D01*
X52674500Y-46608000D01*
X52654815Y-46675039D01*
X52602011Y-46720794D01*
X52550500Y-46732000D01*
X52298500Y-46732000D01*
X52231461Y-46712315D01*
X52185706Y-46659511D01*
X52174500Y-46608000D01*
X52174500Y-45588000D01*
X52194185Y-45520961D01*
X52246989Y-45475206D01*
X52298500Y-45464000D01*
X52328000Y-45464000D01*
X52328000Y-45208000D01*
X51753000Y-45208000D01*
X51753000Y-45530849D01*
X51753019Y-45531206D01*
X51753000Y-45531286D01*
X51753000Y-45534149D01*
X51752323Y-45534149D01*
X51736931Y-45599198D01*
X51694296Y-45643343D01*
X51663964Y-45662052D01*
X51650032Y-45675985D01*
X51588708Y-45709468D01*
X51519016Y-45704482D01*
X51474672Y-45675982D01*
X51460349Y-45661659D01*
X51405402Y-45627767D01*
X51358678Y-45575819D01*
X51346500Y-45522229D01*
X51346500Y-44385155D01*
X51753000Y-44385155D01*
X51753000Y-44708000D01*
X52328000Y-44708000D01*
X52328000Y-43933000D01*
X52205155Y-43933000D01*
X52145627Y-43939401D01*
X52145620Y-43939403D01*
X52010913Y-43989645D01*
X52010906Y-43989649D01*
X51895812Y-44075809D01*
X51895809Y-44075812D01*
X51809649Y-44190906D01*
X51809645Y-44190913D01*
X51759403Y-44325620D01*
X51759401Y-44325627D01*
X51753000Y-44385155D01*
X51346500Y-44385155D01*
X51346500Y-41380844D01*
X51753000Y-41380844D01*
X51759401Y-41440372D01*
X51759403Y-41440379D01*
X51809645Y-41575086D01*
X51809649Y-41575093D01*
X51895809Y-41690187D01*
X51895812Y-41690190D01*
X52010906Y-41776350D01*
X52010913Y-41776354D01*
X52145620Y-41826596D01*
X52145627Y-41826598D01*
X52205155Y-41832999D01*
X52205172Y-41833000D01*
X52328000Y-41833000D01*
X52828000Y-41833000D01*
X52950828Y-41833000D01*
X52950844Y-41832999D01*
X53010372Y-41826598D01*
X53010379Y-41826596D01*
X53145086Y-41776354D01*
X53145093Y-41776350D01*
X53260187Y-41690190D01*
X53260190Y-41690187D01*
X53346350Y-41575093D01*
X53346353Y-41575088D01*
X53350817Y-41563120D01*
X53392688Y-41507185D01*
X53458152Y-41482767D01*
X53526425Y-41497618D01*
X53575831Y-41547022D01*
X53583183Y-41563120D01*
X53587646Y-41575088D01*
X53587649Y-41575093D01*
X53673809Y-41690187D01*
X53673812Y-41690190D01*
X53788906Y-41776350D01*
X53788913Y-41776354D01*
X53923620Y-41826596D01*
X53923627Y-41826598D01*
X53983155Y-41832999D01*
X53983172Y-41833000D01*
X54106000Y-41833000D01*
X54606000Y-41833000D01*
X54728828Y-41833000D01*
X54728844Y-41832999D01*
X54788372Y-41826598D01*
X54788379Y-41826596D01*
X54923086Y-41776354D01*
X54923093Y-41776350D01*
X55038187Y-41690190D01*
X55038190Y-41690187D01*
X55124350Y-41575093D01*
X55124354Y-41575086D01*
X55174596Y-41440379D01*
X55174598Y-41440372D01*
X55180999Y-41380844D01*
X55181000Y-41380827D01*
X55181000Y-41058000D01*
X54606000Y-41058000D01*
X54606000Y-41833000D01*
X54106000Y-41833000D01*
X54106000Y-40558000D01*
X54606000Y-40558000D01*
X55181000Y-40558000D01*
X55181000Y-40235172D01*
X55180999Y-40235155D01*
X55174598Y-40175627D01*
X55174596Y-40175620D01*
X55124354Y-40040913D01*
X55124350Y-40040906D01*
X55038190Y-39925812D01*
X55038187Y-39925809D01*
X54923093Y-39839649D01*
X54923086Y-39839645D01*
X54788379Y-39789403D01*
X54788372Y-39789401D01*
X54728844Y-39783000D01*
X54606000Y-39783000D01*
X54606000Y-40558000D01*
X54106000Y-40558000D01*
X54106000Y-39783000D01*
X53983155Y-39783000D01*
X53923627Y-39789401D01*
X53923620Y-39789403D01*
X53788913Y-39839645D01*
X53788906Y-39839649D01*
X53673812Y-39925809D01*
X53673809Y-39925812D01*
X53587649Y-40040906D01*
X53587645Y-40040913D01*
X53583182Y-40052881D01*
X53541311Y-40108815D01*
X53475846Y-40133232D01*
X53407573Y-40118380D01*
X53358168Y-40068975D01*
X53350818Y-40052881D01*
X53346354Y-40040913D01*
X53346350Y-40040906D01*
X53260190Y-39925812D01*
X53260187Y-39925809D01*
X53145093Y-39839649D01*
X53145086Y-39839645D01*
X53010379Y-39789403D01*
X53010372Y-39789401D01*
X52950844Y-39783000D01*
X52828000Y-39783000D01*
X52828000Y-41833000D01*
X52328000Y-41833000D01*
X52328000Y-41058000D01*
X51753000Y-41058000D01*
X51753000Y-41380844D01*
X51346500Y-41380844D01*
X51346500Y-40847158D01*
X51345230Y-40840775D01*
X51345229Y-40840769D01*
X51335031Y-40789500D01*
X51315737Y-40692503D01*
X51278942Y-40603672D01*
X51268447Y-40578334D01*
X51262938Y-40565033D01*
X51253499Y-40517581D01*
X51253499Y-40235155D01*
X51753000Y-40235155D01*
X51753000Y-40558000D01*
X52328000Y-40558000D01*
X52328000Y-39783000D01*
X52205155Y-39783000D01*
X52145627Y-39789401D01*
X52145620Y-39789403D01*
X52010913Y-39839645D01*
X52010906Y-39839649D01*
X51895812Y-39925809D01*
X51895809Y-39925812D01*
X51809649Y-40040906D01*
X51809645Y-40040913D01*
X51759403Y-40175620D01*
X51759401Y-40175627D01*
X51753000Y-40235155D01*
X51253499Y-40235155D01*
X51253499Y-40235129D01*
X51253498Y-40235123D01*
X51253497Y-40235116D01*
X51247091Y-40175517D01*
X51244356Y-40168185D01*
X51196797Y-40040671D01*
X51196793Y-40040664D01*
X51110547Y-39925455D01*
X51110544Y-39925452D01*
X50995335Y-39839206D01*
X50995328Y-39839202D01*
X50860486Y-39788910D01*
X50860485Y-39788909D01*
X50860483Y-39788909D01*
X50800873Y-39782500D01*
X50800863Y-39782500D01*
X50055129Y-39782500D01*
X50055123Y-39782501D01*
X49995516Y-39788908D01*
X49860671Y-39839202D01*
X49860664Y-39839206D01*
X49745455Y-39925452D01*
X49745452Y-39925455D01*
X49659206Y-40040664D01*
X49659202Y-40040671D01*
X49608908Y-40175517D01*
X49604020Y-40220989D01*
X49602501Y-40235123D01*
X49602500Y-40235135D01*
X49602500Y-41380870D01*
X49602501Y-41380876D01*
X49608908Y-41440483D01*
X49659202Y-41575328D01*
X49659206Y-41575335D01*
X49720766Y-41657568D01*
X49745184Y-41723032D01*
X49745500Y-41731879D01*
X49745500Y-44034121D01*
X49725815Y-44101160D01*
X49720766Y-44108432D01*
X49659206Y-44190664D01*
X49659202Y-44190671D01*
X49608908Y-44325517D01*
X49602501Y-44385116D01*
X49602500Y-44385135D01*
X49602500Y-45530870D01*
X49602501Y-45530876D01*
X49608908Y-45590483D01*
X49659202Y-45725328D01*
X49659204Y-45725331D01*
X49714875Y-45799698D01*
X49739292Y-45865162D01*
X49727991Y-45926411D01*
X49726093Y-45930479D01*
X49699804Y-46009815D01*
X49671826Y-46094247D01*
X49671826Y-46094248D01*
X49671825Y-46094248D01*
X49661500Y-46195315D01*
X49661500Y-46768669D01*
X49661501Y-46768687D01*
X49671825Y-46869752D01*
X49671826Y-46869755D01*
X49726091Y-47033514D01*
X49726092Y-47033516D01*
X49727037Y-47035048D01*
X49727395Y-47036311D01*
X49729144Y-47040061D01*
X49728539Y-47040343D01*
X49745500Y-47100147D01*
X49745500Y-47387853D01*
X49728539Y-47447658D01*
X49729144Y-47447940D01*
X49727398Y-47451683D01*
X49727040Y-47452947D01*
X49726093Y-47454481D01*
X49726092Y-47454484D01*
X49671826Y-47618247D01*
X49671826Y-47618248D01*
X49671825Y-47618248D01*
X49661500Y-47719315D01*
X49661500Y-48292669D01*
X49661501Y-48292687D01*
X49671825Y-48393752D01*
X49707909Y-48502645D01*
X49711958Y-48514864D01*
X49726092Y-48557515D01*
X49726093Y-48557518D01*
X49749495Y-48595459D01*
X49816660Y-48704350D01*
X49938650Y-48826340D01*
X50085484Y-48916908D01*
X50249247Y-48971174D01*
X50350323Y-48981500D01*
X50948676Y-48981499D01*
X50948684Y-48981498D01*
X50948687Y-48981498D01*
X51010350Y-48975199D01*
X51049753Y-48971174D01*
X51213516Y-48916908D01*
X51360350Y-48826340D01*
X51474319Y-48712371D01*
X51535642Y-48678886D01*
X51605334Y-48683870D01*
X51649681Y-48712371D01*
X51763650Y-48826340D01*
X51910484Y-48916908D01*
X52074247Y-48971174D01*
X52175323Y-48981500D01*
X52266559Y-48981499D01*
X52333597Y-49001183D01*
X52354240Y-49017818D01*
X52360711Y-49024289D01*
X52416532Y-49080110D01*
X52472212Y-49135790D01*
X52554491Y-49190767D01*
X52603321Y-49223394D01*
X52706333Y-49266062D01*
X52749002Y-49283737D01*
X52903652Y-49314499D01*
X52903655Y-49314500D01*
X52903657Y-49314500D01*
X52903658Y-49314500D01*
X53515158Y-49314500D01*
X53542085Y-49314500D01*
X53555969Y-49315280D01*
X53593998Y-49319565D01*
X53594000Y-49319565D01*
X53594002Y-49319565D01*
X53632031Y-49315280D01*
X53645915Y-49314500D01*
X54462344Y-49314500D01*
X54462345Y-49314499D01*
X54616997Y-49283737D01*
X54710665Y-49244937D01*
X54758118Y-49235499D01*
X54936670Y-49235499D01*
X54936676Y-49235499D01*
X55037753Y-49225174D01*
X55201516Y-49170908D01*
X55348350Y-49080340D01*
X55462319Y-48966371D01*
X55523642Y-48932886D01*
X55593334Y-48937870D01*
X55637681Y-48966371D01*
X55751650Y-49080340D01*
X55898484Y-49170908D01*
X56062247Y-49225174D01*
X56163323Y-49235500D01*
X56761676Y-49235499D01*
X56761684Y-49235498D01*
X56761687Y-49235498D01*
X56817030Y-49229844D01*
X56862753Y-49225174D01*
X57026516Y-49170908D01*
X57173350Y-49080340D01*
X57173358Y-49080331D01*
X57173453Y-49080257D01*
X57173541Y-49080221D01*
X57179497Y-49076548D01*
X57180124Y-49077564D01*
X57238245Y-49054108D01*
X57306889Y-49067139D01*
X57357591Y-49115213D01*
X57374253Y-49183067D01*
X57373667Y-49190767D01*
X57367500Y-49248127D01*
X57367500Y-49248128D01*
X57367500Y-49248132D01*
X57367500Y-49743870D01*
X57367501Y-49743876D01*
X57373908Y-49803483D01*
X57401577Y-49877667D01*
X57406561Y-49947358D01*
X57401577Y-49964331D01*
X57373909Y-50038514D01*
X57373908Y-50038516D01*
X57368287Y-50090804D01*
X57367501Y-50098123D01*
X57367500Y-50098135D01*
X57367500Y-50470560D01*
X57347815Y-50537599D01*
X57295011Y-50583354D01*
X57290954Y-50585121D01*
X57207873Y-50619534D01*
X57101329Y-50690724D01*
X57080043Y-50712011D01*
X57043871Y-50748182D01*
X56982551Y-50781666D01*
X56956192Y-50784500D01*
X46627461Y-50784500D01*
X46560422Y-50764815D01*
X46514667Y-50712011D01*
X46504723Y-50642853D01*
X46505844Y-50636308D01*
X46509438Y-50618240D01*
X46509438Y-50460550D01*
X46509437Y-50460548D01*
X46489254Y-50359081D01*
X46478675Y-50305898D01*
X46418331Y-50160217D01*
X46418328Y-50160213D01*
X46415487Y-50154896D01*
X46408669Y-50139790D01*
X46392734Y-50097065D01*
X46392731Y-50097061D01*
X46392731Y-50097060D01*
X46306486Y-49981853D01*
X46306484Y-49981850D01*
X46306482Y-49981848D01*
X46306479Y-49981845D01*
X46291987Y-49970997D01*
X46250115Y-49915064D01*
X46245131Y-49845372D01*
X46278614Y-49784051D01*
X46297936Y-49764730D01*
X46388504Y-49617896D01*
X46442770Y-49454133D01*
X46453096Y-49353057D01*
X46453095Y-48779704D01*
X46451273Y-48761872D01*
X46442770Y-48678627D01*
X46388504Y-48514864D01*
X46297936Y-48368030D01*
X46297935Y-48368029D01*
X46297934Y-48368027D01*
X46293458Y-48362367D01*
X46295974Y-48360377D01*
X46269334Y-48311590D01*
X46266500Y-48285232D01*
X46266500Y-48171954D01*
X46286185Y-48104915D01*
X46294374Y-48094753D01*
X46294231Y-48094646D01*
X46311254Y-48071906D01*
X46385796Y-47972331D01*
X46436091Y-47837483D01*
X46442500Y-47777873D01*
X46442499Y-46482128D01*
X46436091Y-46422517D01*
X46433247Y-46414893D01*
X46385797Y-46287671D01*
X46385793Y-46287664D01*
X46299547Y-46172455D01*
X46299544Y-46172452D01*
X46184335Y-46086206D01*
X46184328Y-46086202D01*
X46049482Y-46035908D01*
X46049483Y-46035908D01*
X45989883Y-46029501D01*
X45989881Y-46029500D01*
X45989873Y-46029500D01*
X45989864Y-46029500D01*
X44694129Y-46029500D01*
X44694123Y-46029501D01*
X44634516Y-46035908D01*
X44499671Y-46086202D01*
X44499664Y-46086206D01*
X44384455Y-46172452D01*
X44384452Y-46172455D01*
X44298206Y-46287664D01*
X44298202Y-46287671D01*
X44247908Y-46422517D01*
X44241979Y-46477668D01*
X44241501Y-46482123D01*
X44241500Y-46482135D01*
X44241500Y-47777870D01*
X44241501Y-47777876D01*
X44247909Y-47837484D01*
X44285300Y-47937737D01*
X44290284Y-48007428D01*
X44256798Y-48068751D01*
X44195475Y-48102235D01*
X44146989Y-48102317D01*
X44146982Y-48102387D01*
X44146313Y-48102318D01*
X44143170Y-48102324D01*
X44140250Y-48101699D01*
X44039250Y-48091380D01*
X43940096Y-48091380D01*
X43940096Y-49192380D01*
X43920411Y-49259419D01*
X43867607Y-49305174D01*
X43816096Y-49316380D01*
X42652597Y-49316380D01*
X42652597Y-49353034D01*
X42662915Y-49454032D01*
X42717142Y-49617680D01*
X42717147Y-49617691D01*
X42807648Y-49764414D01*
X42807651Y-49764418D01*
X42929557Y-49886324D01*
X42929561Y-49886327D01*
X43076284Y-49976828D01*
X43076295Y-49976833D01*
X43239943Y-50031060D01*
X43340947Y-50041379D01*
X43547849Y-50041379D01*
X43614889Y-50061063D01*
X43660644Y-50113867D01*
X43670588Y-50183025D01*
X43664033Y-50208708D01*
X43655342Y-50232010D01*
X43655339Y-50232023D01*
X43648938Y-50291551D01*
X43648938Y-50339396D01*
X44464938Y-50339396D01*
X44531977Y-50359081D01*
X44577732Y-50411885D01*
X44588938Y-50463396D01*
X44588938Y-50615396D01*
X44569253Y-50682435D01*
X44516449Y-50728190D01*
X44464938Y-50739396D01*
X43648938Y-50739396D01*
X43640153Y-50748181D01*
X43578830Y-50781666D01*
X43552472Y-50784500D01*
X43008858Y-50784500D01*
X42941819Y-50764815D01*
X42921177Y-50748181D01*
X40202306Y-48029310D01*
X40168821Y-47967987D01*
X40173805Y-47898295D01*
X40202306Y-47853948D01*
X40222553Y-47833701D01*
X40222553Y-47057701D01*
X40242238Y-46990662D01*
X40295042Y-46944907D01*
X40346553Y-46933701D01*
X40498553Y-46933701D01*
X40565592Y-46953386D01*
X40611347Y-47006190D01*
X40622553Y-47057701D01*
X40622553Y-47833701D01*
X40710381Y-47833701D01*
X40710397Y-47833700D01*
X40769925Y-47827299D01*
X40769932Y-47827297D01*
X40904639Y-47777055D01*
X40904646Y-47777051D01*
X41019739Y-47690891D01*
X41096268Y-47588664D01*
X41152202Y-47546793D01*
X41221894Y-47541809D01*
X41283216Y-47575294D01*
X41405393Y-47697471D01*
X41438878Y-47758794D01*
X41441006Y-47774585D01*
X41441146Y-47774571D01*
X41447909Y-47837483D01*
X41498202Y-47972328D01*
X41498206Y-47972335D01*
X41584452Y-48087544D01*
X41584455Y-48087547D01*
X41699664Y-48173793D01*
X41699671Y-48173797D01*
X41834517Y-48224091D01*
X41834516Y-48224091D01*
X41841444Y-48224835D01*
X41894127Y-48230500D01*
X42670499Y-48230499D01*
X42737537Y-48250183D01*
X42783292Y-48302987D01*
X42793236Y-48372146D01*
X42776037Y-48419596D01*
X42717144Y-48515074D01*
X42717142Y-48515079D01*
X42662915Y-48678727D01*
X42652596Y-48779725D01*
X42652596Y-48816380D01*
X43440096Y-48816380D01*
X43440096Y-48194119D01*
X43459781Y-48127080D01*
X43489781Y-48094855D01*
X43499546Y-48087546D01*
X43585796Y-47972331D01*
X43636091Y-47837483D01*
X43642500Y-47777873D01*
X43642499Y-46482128D01*
X43636091Y-46422517D01*
X43633247Y-46414893D01*
X43585797Y-46287671D01*
X43585793Y-46287664D01*
X43499547Y-46172455D01*
X43499544Y-46172452D01*
X43384335Y-46086206D01*
X43384328Y-46086202D01*
X43249482Y-46035908D01*
X43249483Y-46035908D01*
X43189883Y-46029501D01*
X43189881Y-46029500D01*
X43189873Y-46029500D01*
X43189865Y-46029500D01*
X42052940Y-46029500D01*
X41985901Y-46009815D01*
X41965259Y-45993181D01*
X41856216Y-45884138D01*
X41822731Y-45822815D01*
X41827715Y-45753123D01*
X41869587Y-45697190D01*
X41880776Y-45689725D01*
X41953550Y-45646686D01*
X41953553Y-45646683D01*
X41980348Y-45619889D01*
X42041671Y-45586403D01*
X42111363Y-45591387D01*
X42115483Y-45593008D01*
X42230308Y-45640569D01*
X42272000Y-45648862D01*
X42272000Y-44845988D01*
X42281940Y-44863205D01*
X42337795Y-44919060D01*
X42406204Y-44958556D01*
X42482504Y-44979000D01*
X42561496Y-44979000D01*
X42637796Y-44958556D01*
X42706205Y-44919060D01*
X42762060Y-44863205D01*
X42772000Y-44845988D01*
X42772000Y-45648862D01*
X42813690Y-45640569D01*
X42813692Y-45640569D01*
X42995671Y-45565192D01*
X42995684Y-45565185D01*
X43159462Y-45455751D01*
X43159466Y-45455748D01*
X43298748Y-45316466D01*
X43298751Y-45316462D01*
X43408185Y-45152684D01*
X43408192Y-45152671D01*
X43483569Y-44970693D01*
X43483572Y-44970681D01*
X43521999Y-44777495D01*
X43522000Y-44777492D01*
X43522000Y-44379000D01*
X42822000Y-44379000D01*
X42822000Y-43879000D01*
X43522000Y-43879000D01*
X43522000Y-43480508D01*
X43521999Y-43480504D01*
X43483572Y-43287318D01*
X43483569Y-43287306D01*
X43474609Y-43265675D01*
X43467139Y-43196206D01*
X43498413Y-43133727D01*
X43558501Y-43098073D01*
X43628326Y-43100566D01*
X43676850Y-43130540D01*
X43691650Y-43145340D01*
X43838484Y-43235908D01*
X44002247Y-43290174D01*
X44103323Y-43300500D01*
X44676676Y-43300499D01*
X44676684Y-43300498D01*
X44676687Y-43300498D01*
X44733260Y-43294719D01*
X44777753Y-43290174D01*
X44941516Y-43235908D01*
X45088350Y-43145340D01*
X45210340Y-43023350D01*
X45300908Y-42876516D01*
X45355174Y-42712753D01*
X45365500Y-42611677D01*
X45365499Y-42013324D01*
X45355174Y-41912247D01*
X45300908Y-41748484D01*
X45210340Y-41601650D01*
X45096017Y-41487327D01*
X45062532Y-41426004D01*
X45067516Y-41356312D01*
X45096017Y-41311964D01*
X45209948Y-41198033D01*
X45300448Y-41051311D01*
X45300453Y-41051300D01*
X45354680Y-40887652D01*
X45364999Y-40786654D01*
X45365000Y-40786641D01*
X45365000Y-40737500D01*
X44264000Y-40737500D01*
X44196961Y-40717815D01*
X44151206Y-40665011D01*
X44140000Y-40613500D01*
X44140000Y-40237500D01*
X44640000Y-40237500D01*
X45364999Y-40237500D01*
X45364999Y-40188360D01*
X45364998Y-40188345D01*
X45354680Y-40087347D01*
X45300453Y-39923699D01*
X45300448Y-39923688D01*
X45209947Y-39776965D01*
X45209944Y-39776961D01*
X45088038Y-39655055D01*
X45088034Y-39655052D01*
X44941311Y-39564551D01*
X44941300Y-39564546D01*
X44777652Y-39510319D01*
X44676654Y-39500000D01*
X44640000Y-39500000D01*
X44640000Y-40237500D01*
X44140000Y-40237500D01*
X44140000Y-39500000D01*
X44103361Y-39500000D01*
X44103343Y-39500001D01*
X44002347Y-39510319D01*
X43838699Y-39564546D01*
X43838694Y-39564548D01*
X43711097Y-39643252D01*
X43643705Y-39661692D01*
X43577041Y-39640770D01*
X43532271Y-39587128D01*
X43522000Y-39537713D01*
X43522000Y-39450508D01*
X43521999Y-39450504D01*
X43483572Y-39257318D01*
X43483569Y-39257306D01*
X43408192Y-39075328D01*
X43408185Y-39075315D01*
X43298751Y-38911537D01*
X43298748Y-38911533D01*
X43159466Y-38772251D01*
X43159462Y-38772248D01*
X42995684Y-38662814D01*
X42995671Y-38662807D01*
X42813691Y-38587429D01*
X42813683Y-38587427D01*
X42772000Y-38579135D01*
X42772000Y-39382011D01*
X42762060Y-39364795D01*
X42706205Y-39308940D01*
X42637796Y-39269444D01*
X42561496Y-39249000D01*
X42482504Y-39249000D01*
X42406204Y-39269444D01*
X42337795Y-39308940D01*
X42281940Y-39364795D01*
X42272000Y-39382011D01*
X42272000Y-38579136D01*
X42271999Y-38579135D01*
X42230316Y-38587427D01*
X42230308Y-38587429D01*
X42048328Y-38662807D01*
X42048315Y-38662814D01*
X41884537Y-38772248D01*
X41884533Y-38772251D01*
X41745251Y-38911533D01*
X41745248Y-38911537D01*
X41635814Y-39075315D01*
X41635807Y-39075328D01*
X41560430Y-39257306D01*
X41560427Y-39257318D01*
X41522000Y-39450504D01*
X41522000Y-39699000D01*
X42222000Y-39699000D01*
X42222000Y-40199000D01*
X41522000Y-40199000D01*
X41522000Y-40447495D01*
X41560427Y-40640681D01*
X41560430Y-40640693D01*
X41635807Y-40822671D01*
X41635814Y-40822684D01*
X41745248Y-40986462D01*
X41745251Y-40986466D01*
X41884533Y-41125748D01*
X41884537Y-41125751D01*
X42048315Y-41235185D01*
X42048328Y-41235192D01*
X42230308Y-41310569D01*
X42272000Y-41318862D01*
X42272000Y-40515988D01*
X42281940Y-40533205D01*
X42337795Y-40589060D01*
X42406204Y-40628556D01*
X42482504Y-40649000D01*
X42561496Y-40649000D01*
X42637796Y-40628556D01*
X42706205Y-40589060D01*
X42762060Y-40533205D01*
X42772000Y-40515988D01*
X42772000Y-41318862D01*
X42813690Y-41310569D01*
X42813692Y-41310569D01*
X42995671Y-41235192D01*
X42995684Y-41235185D01*
X43159461Y-41125752D01*
X43276257Y-41008956D01*
X43337580Y-40975471D01*
X43407272Y-40980455D01*
X43463206Y-41022326D01*
X43475231Y-41045350D01*
X43476497Y-41044760D01*
X43479551Y-41051311D01*
X43570052Y-41198034D01*
X43570055Y-41198038D01*
X43683982Y-41311965D01*
X43717467Y-41373288D01*
X43712483Y-41442980D01*
X43683983Y-41487327D01*
X43569660Y-41601650D01*
X43568766Y-41603098D01*
X43567895Y-41603882D01*
X43565179Y-41607317D01*
X43564592Y-41606852D01*
X43516820Y-41649821D01*
X43463229Y-41662000D01*
X41101309Y-41662000D01*
X40975641Y-41686997D01*
X40975635Y-41686999D01*
X40857250Y-41736035D01*
X40750711Y-41807222D01*
X40750704Y-41807228D01*
X39289566Y-43268367D01*
X39228243Y-43301852D01*
X39158551Y-43296868D01*
X39123221Y-43276540D01*
X39119790Y-43273724D01*
X39117276Y-43272044D01*
X39013247Y-43202535D01*
X38997967Y-43196206D01*
X38894864Y-43153499D01*
X38894858Y-43153497D01*
X38769191Y-43128500D01*
X38769189Y-43128500D01*
X38134811Y-43128500D01*
X38134809Y-43128500D01*
X38009141Y-43153497D01*
X38009135Y-43153499D01*
X37890754Y-43202534D01*
X37784206Y-43273726D01*
X37784205Y-43273727D01*
X37465752Y-43592181D01*
X37404429Y-43625666D01*
X37378071Y-43628500D01*
X37339272Y-43628500D01*
X37252393Y-43639938D01*
X37226764Y-43643313D01*
X37226762Y-43643313D01*
X37218708Y-43644374D01*
X37218316Y-43641399D01*
X37185684Y-43641399D01*
X37185292Y-43644374D01*
X37177237Y-43643313D01*
X37177236Y-43643313D01*
X37148271Y-43639499D01*
X37064727Y-43628500D01*
X37064720Y-43628500D01*
X36839280Y-43628500D01*
X36839272Y-43628500D01*
X36752393Y-43639938D01*
X36726764Y-43643313D01*
X36726762Y-43643313D01*
X36718708Y-43644374D01*
X36718316Y-43641399D01*
X36685684Y-43641399D01*
X36685292Y-43644374D01*
X36677237Y-43643313D01*
X36677236Y-43643313D01*
X36648271Y-43639499D01*
X36564727Y-43628500D01*
X36564720Y-43628500D01*
X36339280Y-43628500D01*
X36339272Y-43628500D01*
X36226766Y-43643312D01*
X36224026Y-43644446D01*
X36212905Y-43649053D01*
X36143438Y-43656521D01*
X36130865Y-43653568D01*
X36088979Y-43641399D01*
X36054570Y-43631402D01*
X36054567Y-43631401D01*
X36017701Y-43628500D01*
X36017694Y-43628500D01*
X36002816Y-43628500D01*
X35935777Y-43608815D01*
X35890022Y-43556011D01*
X35883041Y-43536593D01*
X35863377Y-43463204D01*
X35848281Y-43406865D01*
X35846317Y-43403464D01*
X35816722Y-43352204D01*
X35772515Y-43275635D01*
X35665365Y-43168485D01*
X35572446Y-43114838D01*
X35534136Y-43092719D01*
X35458672Y-43072499D01*
X35387766Y-43053500D01*
X35236234Y-43053500D01*
X35089863Y-43092719D01*
X35024357Y-43130540D01*
X34958635Y-43168485D01*
X34958633Y-43168486D01*
X34951597Y-43172549D01*
X34950327Y-43170349D01*
X34896995Y-43190960D01*
X34828552Y-43176914D01*
X34778568Y-43128094D01*
X34772131Y-43114838D01*
X34768192Y-43105328D01*
X34768185Y-43105315D01*
X34658751Y-42941537D01*
X34658748Y-42941533D01*
X34519466Y-42802251D01*
X34519462Y-42802248D01*
X34355684Y-42692814D01*
X34355671Y-42692807D01*
X34173691Y-42617429D01*
X34173683Y-42617427D01*
X34132000Y-42609135D01*
X34132000Y-43412011D01*
X34122060Y-43394795D01*
X34066205Y-43338940D01*
X33997796Y-43299444D01*
X33921496Y-43279000D01*
X33842504Y-43279000D01*
X33766204Y-43299444D01*
X33697795Y-43338940D01*
X33641940Y-43394795D01*
X33632000Y-43412011D01*
X33632000Y-42609136D01*
X33631999Y-42609135D01*
X33590316Y-42617427D01*
X33590308Y-42617429D01*
X33408328Y-42692807D01*
X33408315Y-42692814D01*
X33244537Y-42802248D01*
X33244533Y-42802251D01*
X33212181Y-42834604D01*
X33150858Y-42868089D01*
X33081166Y-42863105D01*
X33025233Y-42821233D01*
X33000816Y-42755769D01*
X33000500Y-42746923D01*
X33000500Y-41181077D01*
X33020185Y-41114038D01*
X33072989Y-41068283D01*
X33142147Y-41058339D01*
X33205703Y-41087364D01*
X33212181Y-41093396D01*
X33244533Y-41125748D01*
X33244537Y-41125751D01*
X33408315Y-41235185D01*
X33408328Y-41235192D01*
X33590308Y-41310569D01*
X33632000Y-41318862D01*
X33632000Y-40515988D01*
X33641940Y-40533205D01*
X33697795Y-40589060D01*
X33766204Y-40628556D01*
X33842504Y-40649000D01*
X33921496Y-40649000D01*
X33997796Y-40628556D01*
X34066205Y-40589060D01*
X34122060Y-40533205D01*
X34132000Y-40515988D01*
X34132000Y-41318862D01*
X34173690Y-41310569D01*
X34173692Y-41310569D01*
X34355671Y-41235192D01*
X34355684Y-41235185D01*
X34519462Y-41125751D01*
X34519466Y-41125748D01*
X34658748Y-40986466D01*
X34658751Y-40986462D01*
X34768185Y-40822684D01*
X34768192Y-40822671D01*
X34843569Y-40640693D01*
X34843572Y-40640681D01*
X34881999Y-40447495D01*
X34882000Y-40447492D01*
X34882000Y-40199000D01*
X34182000Y-40199000D01*
X34182000Y-39699000D01*
X34882000Y-39699000D01*
X34882000Y-39450508D01*
X34881999Y-39450504D01*
X34843572Y-39257318D01*
X34843569Y-39257306D01*
X34768192Y-39075328D01*
X34768185Y-39075315D01*
X34658751Y-38911537D01*
X34658748Y-38911533D01*
X34519466Y-38772251D01*
X34519462Y-38772248D01*
X34355684Y-38662814D01*
X34355671Y-38662807D01*
X34173691Y-38587429D01*
X34173683Y-38587427D01*
X34132000Y-38579135D01*
X34132000Y-39382011D01*
X34122060Y-39364795D01*
X34066205Y-39308940D01*
X33997796Y-39269444D01*
X33921496Y-39249000D01*
X33842504Y-39249000D01*
X33766204Y-39269444D01*
X33697795Y-39308940D01*
X33641940Y-39364795D01*
X33632000Y-39382011D01*
X33632000Y-38579136D01*
X33631999Y-38579135D01*
X33590316Y-38587427D01*
X33590308Y-38587429D01*
X33408328Y-38662807D01*
X33408315Y-38662814D01*
X33244537Y-38772248D01*
X33244533Y-38772251D01*
X33212181Y-38804604D01*
X33150858Y-38838089D01*
X33081166Y-38833105D01*
X33025233Y-38791233D01*
X33000816Y-38725769D01*
X33000500Y-38716923D01*
X33000500Y-38706092D01*
X33001097Y-38693938D01*
X33012744Y-38575681D01*
X33017483Y-38551857D01*
X33050203Y-38443990D01*
X33059499Y-38421549D01*
X33112632Y-38322144D01*
X33126133Y-38301940D01*
X33197635Y-38214814D01*
X33214815Y-38197634D01*
X33301939Y-38126132D01*
X33322143Y-38112632D01*
X33421549Y-38059499D01*
X33443990Y-38050203D01*
X33551856Y-38017483D01*
X33575682Y-38012744D01*
X33675730Y-38002890D01*
X33693940Y-38001097D01*
X33706093Y-38000500D01*
X33765892Y-38000500D01*
X72944000Y-38000500D01*
X73011039Y-38020185D01*
G37*
G04 #@! TD.AperFunction*
G04 #@! TA.AperFunction,Conductor*
G36*
X55418522Y-64589968D02*
G01*
X55418523Y-64589968D01*
X55566111Y-64401586D01*
X55605383Y-64336624D01*
X55656911Y-64289437D01*
X55725770Y-64277598D01*
X55790099Y-64304867D01*
X55829473Y-64362585D01*
X55835500Y-64400774D01*
X55835500Y-64614073D01*
X55858990Y-64732162D01*
X55860498Y-64739742D01*
X55897688Y-64829525D01*
X55909535Y-64858127D01*
X55977668Y-64960097D01*
X55998545Y-65026773D01*
X55980060Y-65094153D01*
X55962247Y-65116666D01*
X55868337Y-65210576D01*
X55796731Y-65282182D01*
X55735408Y-65315666D01*
X55709050Y-65318500D01*
X55377331Y-65318500D01*
X55377312Y-65318501D01*
X55276247Y-65328825D01*
X55112484Y-65383092D01*
X55112481Y-65383093D01*
X54965648Y-65473661D01*
X54951325Y-65487984D01*
X54890001Y-65521468D01*
X54820309Y-65516482D01*
X54775965Y-65487982D01*
X54762038Y-65474055D01*
X54762034Y-65474052D01*
X54678020Y-65422231D01*
X54631295Y-65370283D01*
X54620074Y-65301320D01*
X54647917Y-65237239D01*
X54678968Y-65210576D01*
X54876582Y-65091115D01*
X54876583Y-65091113D01*
X55064968Y-64943523D01*
X55064968Y-64943522D01*
X53922737Y-63801290D01*
X54056602Y-63704033D01*
X54179033Y-63581602D01*
X54276290Y-63447737D01*
X55418522Y-64589968D01*
G37*
G04 #@! TD.AperFunction*
G04 #@! TA.AperFunction,Conductor*
G36*
X22165335Y-59346622D02*
G01*
X22165629Y-59345736D01*
X22172482Y-59348006D01*
X22172484Y-59348008D01*
X22336247Y-59402274D01*
X22437323Y-59412600D01*
X22578558Y-59412599D01*
X22645598Y-59432283D01*
X22666240Y-59448918D01*
X23205181Y-59987859D01*
X23238666Y-60049182D01*
X23241500Y-60075540D01*
X23241500Y-61656870D01*
X23241501Y-61656876D01*
X23247908Y-61716481D01*
X23256997Y-61740850D01*
X23284182Y-61813737D01*
X23292000Y-61857068D01*
X23292000Y-62234000D01*
X23842000Y-62234000D01*
X23842000Y-62233499D01*
X23861685Y-62166460D01*
X23914489Y-62120705D01*
X23965997Y-62109499D01*
X24117500Y-62109499D01*
X24184539Y-62129184D01*
X24230294Y-62181988D01*
X24241500Y-62233499D01*
X24241500Y-63406870D01*
X24241501Y-63406876D01*
X24247908Y-63466483D01*
X24298202Y-63601328D01*
X24298206Y-63601335D01*
X24384452Y-63716544D01*
X24384455Y-63716547D01*
X24464186Y-63776234D01*
X24506057Y-63832167D01*
X24511041Y-63901859D01*
X24477556Y-63963182D01*
X24416232Y-63996666D01*
X24389875Y-63999500D01*
X23693291Y-63999500D01*
X23626252Y-63979815D01*
X23580497Y-63927011D01*
X23570553Y-63857853D01*
X23599578Y-63794297D01*
X23618980Y-63776233D01*
X23699190Y-63716186D01*
X23785350Y-63601093D01*
X23785354Y-63601086D01*
X23835596Y-63466379D01*
X23835598Y-63466372D01*
X23841999Y-63406844D01*
X23842000Y-63406827D01*
X23842000Y-62734000D01*
X22916000Y-62734000D01*
X22848961Y-62714315D01*
X22803206Y-62661511D01*
X22792000Y-62610000D01*
X22792000Y-61109000D01*
X22694155Y-61109000D01*
X22634627Y-61115401D01*
X22634620Y-61115403D01*
X22499913Y-61165645D01*
X22499906Y-61165649D01*
X22384812Y-61251809D01*
X22384809Y-61251812D01*
X22298649Y-61366906D01*
X22298645Y-61366913D01*
X22248403Y-61501620D01*
X22248401Y-61501626D01*
X22247789Y-61507325D01*
X22221051Y-61571875D01*
X22163658Y-61611723D01*
X22093833Y-61614216D01*
X22033744Y-61578563D01*
X22002470Y-61516083D01*
X22000500Y-61494068D01*
X22000500Y-59462451D01*
X22020185Y-59395412D01*
X22072989Y-59349657D01*
X22142147Y-59339713D01*
X22165335Y-59346622D01*
G37*
G04 #@! TD.AperFunction*
G04 #@! TA.AperFunction,Conductor*
G36*
X26184539Y-62129184D02*
G01*
X26230294Y-62181988D01*
X26241500Y-62233499D01*
X26241500Y-63406870D01*
X26241501Y-63406876D01*
X26247908Y-63466483D01*
X26298202Y-63601328D01*
X26298206Y-63601335D01*
X26384452Y-63716544D01*
X26384455Y-63716547D01*
X26464186Y-63776234D01*
X26506057Y-63832167D01*
X26511041Y-63901859D01*
X26477556Y-63963182D01*
X26416232Y-63996666D01*
X26389875Y-63999500D01*
X25694125Y-63999500D01*
X25627086Y-63979815D01*
X25581331Y-63927011D01*
X25571387Y-63857853D01*
X25600412Y-63794297D01*
X25619814Y-63776234D01*
X25694265Y-63720499D01*
X25699546Y-63716546D01*
X25785796Y-63601331D01*
X25836091Y-63466483D01*
X25842500Y-63406873D01*
X25842499Y-62722498D01*
X25851938Y-62675046D01*
X25852306Y-62674157D01*
X25894658Y-62571913D01*
X25912602Y-62481707D01*
X25923500Y-62426920D01*
X25923500Y-62233499D01*
X25943185Y-62166460D01*
X25995989Y-62120705D01*
X26047500Y-62109499D01*
X26117500Y-62109499D01*
X26184539Y-62129184D01*
G37*
G04 #@! TD.AperFunction*
G04 #@! TA.AperFunction,Conductor*
G36*
X28184539Y-62129184D02*
G01*
X28230294Y-62181988D01*
X28241500Y-62233499D01*
X28241500Y-63406870D01*
X28241501Y-63406876D01*
X28247908Y-63466483D01*
X28298202Y-63601328D01*
X28298206Y-63601335D01*
X28384452Y-63716544D01*
X28384455Y-63716547D01*
X28464186Y-63776234D01*
X28506057Y-63832167D01*
X28511041Y-63901859D01*
X28477556Y-63963182D01*
X28416232Y-63996666D01*
X28389875Y-63999500D01*
X27694125Y-63999500D01*
X27627086Y-63979815D01*
X27581331Y-63927011D01*
X27571387Y-63857853D01*
X27600412Y-63794297D01*
X27619814Y-63776234D01*
X27694265Y-63720499D01*
X27699546Y-63716546D01*
X27785796Y-63601331D01*
X27836091Y-63466483D01*
X27842500Y-63406873D01*
X27842499Y-62667345D01*
X27851940Y-62619889D01*
X27854868Y-62612821D01*
X27855658Y-62610913D01*
X27867809Y-62549826D01*
X27884500Y-62465920D01*
X27884500Y-62233499D01*
X27904185Y-62166460D01*
X27956989Y-62120705D01*
X28008500Y-62109499D01*
X28117500Y-62109499D01*
X28184539Y-62129184D01*
G37*
G04 #@! TD.AperFunction*
G04 #@! TA.AperFunction,Conductor*
G36*
X65851577Y-61904101D02*
G01*
X65858055Y-61910133D01*
X66587385Y-62639463D01*
X66620870Y-62700786D01*
X66615886Y-62770478D01*
X66574014Y-62826411D01*
X66515890Y-62850083D01*
X66426896Y-62861800D01*
X66426891Y-62861801D01*
X66287019Y-62919737D01*
X66242894Y-62953595D01*
X66177724Y-62978788D01*
X66109280Y-62964749D01*
X66091924Y-62953595D01*
X66047233Y-62919302D01*
X66047229Y-62919300D01*
X65979073Y-62891069D01*
X65907236Y-62861313D01*
X65893171Y-62859461D01*
X65794727Y-62846500D01*
X65794720Y-62846500D01*
X65770374Y-62846500D01*
X65703335Y-62826815D01*
X65657580Y-62774011D01*
X65646374Y-62722500D01*
X65646374Y-61997814D01*
X65666059Y-61930775D01*
X65718863Y-61885020D01*
X65788021Y-61875076D01*
X65851577Y-61904101D01*
G37*
G04 #@! TD.AperFunction*
G04 #@! TA.AperFunction,Conductor*
G36*
X63789675Y-61874461D02*
G01*
X63797902Y-61881981D01*
X64009055Y-62093133D01*
X64042540Y-62154456D01*
X64045374Y-62180814D01*
X64045374Y-62684932D01*
X64025689Y-62751971D01*
X64009054Y-62772614D01*
X63955211Y-62826456D01*
X63893888Y-62859940D01*
X63888154Y-62860939D01*
X63886763Y-62861312D01*
X63757451Y-62914875D01*
X63687982Y-62922344D01*
X63625503Y-62891069D01*
X63589851Y-62830979D01*
X63585999Y-62800314D01*
X63585999Y-62595860D01*
X63585998Y-62595845D01*
X63575680Y-62494847D01*
X63521453Y-62331199D01*
X63521450Y-62331192D01*
X63451242Y-62217369D01*
X63432801Y-62149976D01*
X63453723Y-62083313D01*
X63469089Y-62064600D01*
X63565340Y-61968350D01*
X63604682Y-61904565D01*
X63656630Y-61857841D01*
X63725592Y-61846618D01*
X63789675Y-61874461D01*
G37*
G04 #@! TD.AperFunction*
G04 #@! TA.AperFunction,Conductor*
G36*
X58555271Y-60316185D02*
G01*
X58601026Y-60368989D01*
X58610970Y-60438147D01*
X58581945Y-60501703D01*
X58575913Y-60508181D01*
X56249688Y-62834404D01*
X56188365Y-62867889D01*
X56118673Y-62862905D01*
X56062740Y-62821033D01*
X56038323Y-62755569D01*
X56038233Y-62754210D01*
X56025213Y-62538961D01*
X55966332Y-62217658D01*
X55869164Y-61905835D01*
X55869160Y-61905824D01*
X55735102Y-61607958D01*
X55735101Y-61607956D01*
X55566118Y-61328423D01*
X55418522Y-61140030D01*
X54276290Y-62282262D01*
X54179033Y-62148398D01*
X54056602Y-62025967D01*
X53922736Y-61928709D01*
X55064968Y-60786476D01*
X54876576Y-60638881D01*
X54690868Y-60526617D01*
X54643681Y-60475089D01*
X54631842Y-60406230D01*
X54659111Y-60341901D01*
X54716829Y-60302527D01*
X54755018Y-60296500D01*
X58488232Y-60296500D01*
X58555271Y-60316185D01*
G37*
G04 #@! TD.AperFunction*
G04 #@! TA.AperFunction,Conductor*
G36*
X42336225Y-56166185D02*
G01*
X42381980Y-56218989D01*
X42391924Y-56288147D01*
X42362899Y-56351703D01*
X42356867Y-56358181D01*
X37659865Y-61055181D01*
X37598542Y-61088666D01*
X37572184Y-61091500D01*
X37051330Y-61091500D01*
X37051312Y-61091501D01*
X36950247Y-61101825D01*
X36786484Y-61156092D01*
X36786481Y-61156093D01*
X36639648Y-61246661D01*
X36517661Y-61368648D01*
X36427093Y-61515481D01*
X36427091Y-61515486D01*
X36399719Y-61598088D01*
X36372826Y-61679247D01*
X36372826Y-61679248D01*
X36372825Y-61679248D01*
X36362500Y-61780315D01*
X36362500Y-62164919D01*
X36342815Y-62231958D01*
X36290011Y-62277713D01*
X36220853Y-62287657D01*
X36157297Y-62258632D01*
X36119523Y-62199854D01*
X36118725Y-62197012D01*
X36071433Y-62020516D01*
X36071429Y-62020507D01*
X35971600Y-61806422D01*
X35971599Y-61806420D01*
X35836113Y-61612926D01*
X35836108Y-61612920D01*
X35669078Y-61445890D01*
X35483405Y-61315879D01*
X35439780Y-61261302D01*
X35432588Y-61191804D01*
X35464110Y-61129449D01*
X35483406Y-61112730D01*
X35669401Y-60982495D01*
X35836495Y-60815401D01*
X35972035Y-60621830D01*
X36071903Y-60407663D01*
X36133063Y-60179408D01*
X36153659Y-59944000D01*
X36133063Y-59708592D01*
X36086626Y-59535285D01*
X36071905Y-59480344D01*
X36071904Y-59480343D01*
X36071903Y-59480337D01*
X35972035Y-59266171D01*
X35970103Y-59263411D01*
X35836494Y-59072597D01*
X35669402Y-58905506D01*
X35669396Y-58905501D01*
X35483842Y-58775575D01*
X35440217Y-58720998D01*
X35433023Y-58651500D01*
X35464546Y-58589145D01*
X35483842Y-58572425D01*
X35506327Y-58556681D01*
X35669401Y-58442495D01*
X35836495Y-58275401D01*
X35972035Y-58081830D01*
X36071903Y-57867663D01*
X36133063Y-57639408D01*
X36153659Y-57404000D01*
X36133063Y-57168592D01*
X36128558Y-57151779D01*
X36130219Y-57081932D01*
X36160649Y-57032006D01*
X37009838Y-56182819D01*
X37071161Y-56149334D01*
X37097519Y-56146500D01*
X42269186Y-56146500D01*
X42336225Y-56166185D01*
G37*
G04 #@! TD.AperFunction*
G04 #@! TA.AperFunction,Conductor*
G36*
X57311039Y-57866185D02*
G01*
X57356794Y-57918989D01*
X57361188Y-57939188D01*
X57368000Y-57946000D01*
X58394000Y-57946000D01*
X58461039Y-57965685D01*
X58506794Y-58018489D01*
X58518000Y-58070000D01*
X58518000Y-58171500D01*
X58498315Y-58238539D01*
X58445511Y-58284294D01*
X58394000Y-58295500D01*
X55230914Y-58295500D01*
X55190382Y-58287438D01*
X55190155Y-58288188D01*
X55184322Y-58286418D01*
X55048996Y-58259500D01*
X55048994Y-58259500D01*
X54911006Y-58259500D01*
X54911004Y-58259500D01*
X54822441Y-58277117D01*
X54798249Y-58279500D01*
X47611005Y-58279500D01*
X47475678Y-58306418D01*
X47475668Y-58306421D01*
X47348193Y-58359222D01*
X47233455Y-58435887D01*
X44895888Y-60773454D01*
X44895885Y-60773458D01*
X44874223Y-60805878D01*
X44820610Y-60850683D01*
X44751285Y-60859390D01*
X44708000Y-60843719D01*
X44589187Y-60773454D01*
X44580398Y-60768256D01*
X44580397Y-60768255D01*
X44580396Y-60768255D01*
X44580393Y-60768254D01*
X44422573Y-60722402D01*
X44422567Y-60722401D01*
X44385701Y-60719500D01*
X44385694Y-60719500D01*
X44089940Y-60719500D01*
X44022901Y-60699815D01*
X43977146Y-60647011D01*
X43967202Y-60577853D01*
X43996227Y-60514297D01*
X44002259Y-60507819D01*
X44008375Y-60501703D01*
X44063816Y-60446262D01*
X44104931Y-60380825D01*
X44106777Y-60377979D01*
X44143389Y-60323186D01*
X44143394Y-60323179D01*
X44143720Y-60322390D01*
X44153287Y-60303868D01*
X44159789Y-60293522D01*
X44181023Y-60232837D01*
X44183484Y-60226389D01*
X44203737Y-60177497D01*
X44206448Y-60163862D01*
X44211023Y-60147100D01*
X44219368Y-60123255D01*
X44225110Y-60072283D01*
X44226707Y-60062017D01*
X44234500Y-60022842D01*
X44234500Y-59995914D01*
X44235280Y-59982029D01*
X44239565Y-59944001D01*
X44239565Y-59943998D01*
X44235280Y-59905969D01*
X44234500Y-59892085D01*
X44234500Y-59865157D01*
X44232109Y-59853140D01*
X44226709Y-59825992D01*
X44225110Y-59815714D01*
X44219368Y-59764745D01*
X44211023Y-59740898D01*
X44206449Y-59724139D01*
X44203737Y-59710503D01*
X44202947Y-59708596D01*
X44195253Y-59690021D01*
X44183484Y-59661607D01*
X44181028Y-59655175D01*
X44159789Y-59594478D01*
X44153289Y-59584134D01*
X44143719Y-59565606D01*
X44143394Y-59564821D01*
X44106790Y-59510040D01*
X44104905Y-59507131D01*
X44063816Y-59441738D01*
X43936262Y-59314184D01*
X43936260Y-59314182D01*
X43936257Y-59314180D01*
X43870900Y-59273114D01*
X43867982Y-59271223D01*
X43813179Y-59234605D01*
X43813173Y-59234603D01*
X43812365Y-59234268D01*
X43793865Y-59224709D01*
X43783524Y-59218212D01*
X43783523Y-59218211D01*
X43783522Y-59218211D01*
X43722867Y-59196986D01*
X43716377Y-59194509D01*
X43708074Y-59191070D01*
X43706330Y-59190347D01*
X43667496Y-59174262D01*
X43653860Y-59171550D01*
X43637104Y-59166976D01*
X43613260Y-59158633D01*
X43613256Y-59158632D01*
X43613255Y-59158632D01*
X43592575Y-59156301D01*
X43562303Y-59152890D01*
X43552003Y-59151288D01*
X43512844Y-59143500D01*
X43512842Y-59143500D01*
X43485915Y-59143500D01*
X43472031Y-59142720D01*
X43434002Y-59138435D01*
X43433998Y-59138435D01*
X43395969Y-59142720D01*
X43382085Y-59143500D01*
X42700751Y-59143500D01*
X42633712Y-59123815D01*
X42587957Y-59071011D01*
X42578013Y-59001853D01*
X42607038Y-58938297D01*
X42613070Y-58931819D01*
X43078998Y-58465892D01*
X43662071Y-57882819D01*
X43723394Y-57849334D01*
X43749752Y-57846500D01*
X57244000Y-57846500D01*
X57311039Y-57866185D01*
G37*
G04 #@! TD.AperFunction*
G04 #@! TA.AperFunction,Conductor*
G36*
X33205703Y-45417364D02*
G01*
X33212181Y-45423396D01*
X33244533Y-45455748D01*
X33244537Y-45455751D01*
X33408315Y-45565185D01*
X33408328Y-45565192D01*
X33590306Y-45640569D01*
X33590318Y-45640572D01*
X33774885Y-45677285D01*
X33836796Y-45709669D01*
X33871370Y-45770385D01*
X33867631Y-45840155D01*
X33826765Y-45896827D01*
X33815793Y-45904439D01*
X33796964Y-45916052D01*
X33675055Y-46037961D01*
X33675052Y-46037965D01*
X33584551Y-46184688D01*
X33584546Y-46184699D01*
X33530319Y-46348347D01*
X33520000Y-46449345D01*
X33520000Y-46486000D01*
X34633500Y-46486000D01*
X34700539Y-46505685D01*
X34746294Y-46558489D01*
X34757500Y-46610000D01*
X34757500Y-47710999D01*
X34806640Y-47710999D01*
X34806654Y-47710998D01*
X34907652Y-47700680D01*
X35071300Y-47646453D01*
X35071311Y-47646448D01*
X35218033Y-47555948D01*
X35331964Y-47442017D01*
X35393287Y-47408532D01*
X35462979Y-47413516D01*
X35507327Y-47442017D01*
X35621650Y-47556340D01*
X35768484Y-47646908D01*
X35932247Y-47701174D01*
X36033323Y-47711500D01*
X36297949Y-47711499D01*
X36364987Y-47731183D01*
X36410742Y-47783987D01*
X36420686Y-47853146D01*
X36391661Y-47916701D01*
X36372261Y-47934764D01*
X36342810Y-47956811D01*
X36342809Y-47956812D01*
X36256649Y-48071906D01*
X36256645Y-48071913D01*
X36206403Y-48206620D01*
X36206401Y-48206627D01*
X36200000Y-48266155D01*
X36200000Y-48314000D01*
X37016000Y-48314000D01*
X37083039Y-48333685D01*
X37128794Y-48386489D01*
X37140000Y-48438000D01*
X37140000Y-49214000D01*
X37227828Y-49214000D01*
X37227844Y-49213999D01*
X37287372Y-49207598D01*
X37287379Y-49207596D01*
X37422086Y-49157354D01*
X37422089Y-49157352D01*
X37525271Y-49080110D01*
X37590735Y-49055692D01*
X37659008Y-49070543D01*
X37673888Y-49080105D01*
X37777076Y-49157352D01*
X37777668Y-49157795D01*
X37777671Y-49157797D01*
X37812819Y-49170906D01*
X37912517Y-49208091D01*
X37972127Y-49214500D01*
X38547872Y-49214499D01*
X38607483Y-49208091D01*
X38691934Y-49176592D01*
X38761623Y-49171608D01*
X38822946Y-49205092D01*
X41601673Y-51983819D01*
X41635158Y-52045142D01*
X41630174Y-52114834D01*
X41588302Y-52170767D01*
X41522838Y-52195184D01*
X41513992Y-52195500D01*
X36272499Y-52195500D01*
X36205460Y-52175815D01*
X36159705Y-52123011D01*
X36148499Y-52071500D01*
X36148499Y-51426129D01*
X36148498Y-51426123D01*
X36148497Y-51426116D01*
X36142091Y-51366517D01*
X36091796Y-51231669D01*
X36091795Y-51231668D01*
X36091793Y-51231664D01*
X36005547Y-51116455D01*
X36005544Y-51116452D01*
X35890335Y-51030206D01*
X35890328Y-51030202D01*
X35755482Y-50979908D01*
X35755483Y-50979908D01*
X35695883Y-50973501D01*
X35695881Y-50973500D01*
X35695873Y-50973500D01*
X35695864Y-50973500D01*
X33900129Y-50973500D01*
X33900123Y-50973501D01*
X33840516Y-50979908D01*
X33705671Y-51030202D01*
X33705664Y-51030206D01*
X33590455Y-51116452D01*
X33590452Y-51116455D01*
X33504206Y-51231664D01*
X33504202Y-51231671D01*
X33453908Y-51366517D01*
X33447501Y-51426116D01*
X33447501Y-51426123D01*
X33447500Y-51426135D01*
X33447500Y-53221870D01*
X33447501Y-53221876D01*
X33453908Y-53281483D01*
X33504202Y-53416328D01*
X33504206Y-53416335D01*
X33590452Y-53531544D01*
X33590455Y-53531547D01*
X33705664Y-53617793D01*
X33705671Y-53617797D01*
X33837081Y-53666810D01*
X33893015Y-53708681D01*
X33917432Y-53774145D01*
X33902580Y-53842418D01*
X33881430Y-53870673D01*
X33759503Y-53992600D01*
X33623965Y-54186169D01*
X33623964Y-54186171D01*
X33524098Y-54400335D01*
X33524094Y-54400344D01*
X33462938Y-54628586D01*
X33462936Y-54628596D01*
X33442341Y-54863999D01*
X33442341Y-54864000D01*
X33462936Y-55099403D01*
X33462938Y-55099413D01*
X33524094Y-55327655D01*
X33524096Y-55327659D01*
X33524097Y-55327663D01*
X33592653Y-55474682D01*
X33623965Y-55541830D01*
X33623967Y-55541834D01*
X33759501Y-55735395D01*
X33759506Y-55735402D01*
X33926597Y-55902493D01*
X33926603Y-55902498D01*
X34112158Y-56032425D01*
X34155783Y-56087002D01*
X34162977Y-56156500D01*
X34131454Y-56218855D01*
X34112158Y-56235575D01*
X33926597Y-56365505D01*
X33759505Y-56532597D01*
X33623965Y-56726169D01*
X33623964Y-56726171D01*
X33524098Y-56940335D01*
X33524094Y-56940344D01*
X33462938Y-57168586D01*
X33462936Y-57168596D01*
X33442341Y-57403999D01*
X33442341Y-57404000D01*
X33462936Y-57639403D01*
X33462938Y-57639413D01*
X33524094Y-57867655D01*
X33524096Y-57867659D01*
X33524097Y-57867663D01*
X33609020Y-58049780D01*
X33623965Y-58081830D01*
X33623967Y-58081834D01*
X33759501Y-58275395D01*
X33759506Y-58275402D01*
X33926597Y-58442493D01*
X33926603Y-58442498D01*
X34112158Y-58572425D01*
X34155783Y-58627002D01*
X34162977Y-58696500D01*
X34131454Y-58758855D01*
X34112158Y-58775575D01*
X33926597Y-58905505D01*
X33759504Y-59072598D01*
X33739499Y-59101169D01*
X33684922Y-59144794D01*
X33662117Y-59151662D01*
X33548507Y-59174261D01*
X33548501Y-59174263D01*
X33507927Y-59191070D01*
X33507926Y-59191070D01*
X33402827Y-59234602D01*
X33402814Y-59234609D01*
X33271713Y-59322208D01*
X33271711Y-59322210D01*
X33271711Y-59322211D01*
X33271710Y-59322212D01*
X33223202Y-59370720D01*
X33201504Y-59392418D01*
X33140180Y-59425902D01*
X33070489Y-59420917D01*
X33014555Y-59379046D01*
X32991350Y-59324134D01*
X32963553Y-59148631D01*
X32915422Y-59000500D01*
X32890568Y-58924008D01*
X32890566Y-58924005D01*
X32890566Y-58924003D01*
X32827757Y-58800734D01*
X32783343Y-58713567D01*
X32745629Y-58661659D01*
X32722150Y-58595853D01*
X32726173Y-58556681D01*
X32750500Y-58465892D01*
X32750500Y-58334108D01*
X32716392Y-58206814D01*
X32650500Y-58092686D01*
X32650498Y-58092684D01*
X32647217Y-58087001D01*
X32630744Y-58019101D01*
X32647217Y-57962999D01*
X32650498Y-57957315D01*
X32650500Y-57957314D01*
X32716392Y-57843186D01*
X32750500Y-57715892D01*
X32750500Y-57584108D01*
X32716392Y-57456814D01*
X32650500Y-57342686D01*
X32650498Y-57342684D01*
X32647217Y-57337001D01*
X32630744Y-57269101D01*
X32647217Y-57212999D01*
X32650498Y-57207315D01*
X32650500Y-57207314D01*
X32716392Y-57093186D01*
X32750500Y-56965892D01*
X32750500Y-56834108D01*
X32716392Y-56706814D01*
X32709364Y-56694642D01*
X32700037Y-56678487D01*
X32650500Y-56592686D01*
X32650498Y-56592684D01*
X32647217Y-56587001D01*
X32630744Y-56519101D01*
X32647217Y-56462999D01*
X32650498Y-56457315D01*
X32650500Y-56457314D01*
X32716392Y-56343186D01*
X32750500Y-56215892D01*
X32750500Y-56084108D01*
X32716392Y-55956814D01*
X32716391Y-55956813D01*
X32716385Y-55956789D01*
X32718048Y-55886939D01*
X32735839Y-55851815D01*
X32783343Y-55786433D01*
X32890568Y-55575992D01*
X32963553Y-55351368D01*
X32967307Y-55327664D01*
X33000500Y-55118097D01*
X33000500Y-48761844D01*
X36200000Y-48761844D01*
X36206401Y-48821372D01*
X36206403Y-48821379D01*
X36256645Y-48956086D01*
X36256649Y-48956093D01*
X36342809Y-49071187D01*
X36342812Y-49071190D01*
X36457906Y-49157350D01*
X36457913Y-49157354D01*
X36592620Y-49207596D01*
X36592627Y-49207598D01*
X36652155Y-49213999D01*
X36652172Y-49214000D01*
X36740000Y-49214000D01*
X36740000Y-48714000D01*
X36200000Y-48714000D01*
X36200000Y-48761844D01*
X33000500Y-48761844D01*
X33000500Y-47022654D01*
X33520001Y-47022654D01*
X33530319Y-47123652D01*
X33584546Y-47287300D01*
X33584551Y-47287311D01*
X33675052Y-47434034D01*
X33675055Y-47434038D01*
X33796961Y-47555944D01*
X33796965Y-47555947D01*
X33943688Y-47646448D01*
X33943699Y-47646453D01*
X34107347Y-47700680D01*
X34208351Y-47710999D01*
X34257499Y-47710998D01*
X34257500Y-47710998D01*
X34257500Y-46986000D01*
X33520001Y-46986000D01*
X33520001Y-47022654D01*
X33000500Y-47022654D01*
X33000500Y-45511077D01*
X33020185Y-45444038D01*
X33072989Y-45398283D01*
X33142147Y-45388339D01*
X33205703Y-45417364D01*
G37*
G04 #@! TD.AperFunction*
G04 #@! TA.AperFunction,Conductor*
G36*
X24219550Y-46994392D02*
G01*
X24263633Y-47048600D01*
X24265984Y-47062431D01*
X25417262Y-48213709D01*
X25283398Y-48310967D01*
X25160967Y-48433398D01*
X25063709Y-48567262D01*
X23921476Y-47425029D01*
X23921474Y-47425030D01*
X23773886Y-47613416D01*
X23773881Y-47613422D01*
X23604898Y-47892956D01*
X23604897Y-47892958D01*
X23470839Y-48190824D01*
X23470835Y-48190835D01*
X23373667Y-48502658D01*
X23314786Y-48823961D01*
X23295065Y-49150000D01*
X23314786Y-49476038D01*
X23373667Y-49797341D01*
X23470835Y-50109164D01*
X23470839Y-50109175D01*
X23604897Y-50407041D01*
X23604898Y-50407043D01*
X23773881Y-50686576D01*
X23921476Y-50874968D01*
X25063708Y-49732736D01*
X25160967Y-49866602D01*
X25283398Y-49989033D01*
X25417262Y-50086290D01*
X24275030Y-51228522D01*
X24275030Y-51228523D01*
X24463424Y-51376119D01*
X24463423Y-51376119D01*
X24503860Y-51400563D01*
X24551049Y-51452090D01*
X24562888Y-51520949D01*
X24535621Y-51585278D01*
X24478721Y-51624385D01*
X24458491Y-51631089D01*
X24458481Y-51631093D01*
X24311648Y-51721661D01*
X24292557Y-51740752D01*
X24231234Y-51774236D01*
X24161542Y-51769250D01*
X24139782Y-51758608D01*
X23999522Y-51672095D01*
X23999517Y-51672093D01*
X23999516Y-51672092D01*
X23835753Y-51617826D01*
X23835751Y-51617825D01*
X23734678Y-51607500D01*
X23161330Y-51607500D01*
X23161312Y-51607501D01*
X23060247Y-51617825D01*
X22896484Y-51672092D01*
X22896481Y-51672093D01*
X22749648Y-51762661D01*
X22627661Y-51884648D01*
X22537093Y-52031481D01*
X22537091Y-52031486D01*
X22523832Y-52071500D01*
X22482826Y-52195247D01*
X22482826Y-52195248D01*
X22482825Y-52195248D01*
X22472500Y-52296315D01*
X22472500Y-52994669D01*
X22472501Y-52994687D01*
X22482825Y-53095752D01*
X22498768Y-53143864D01*
X22537092Y-53259516D01*
X22622370Y-53397774D01*
X22627661Y-53406351D01*
X22641982Y-53420672D01*
X22675467Y-53481995D01*
X22670483Y-53551687D01*
X22641985Y-53596032D01*
X22628052Y-53609965D01*
X22537551Y-53756688D01*
X22537546Y-53756699D01*
X22483319Y-53920347D01*
X22473000Y-54021345D01*
X22473000Y-54120500D01*
X23992000Y-54120500D01*
X23996681Y-54115819D01*
X24058004Y-54082334D01*
X24084362Y-54079500D01*
X25344187Y-54079500D01*
X25411226Y-54099185D01*
X25431863Y-54115814D01*
X25525163Y-54209114D01*
X25639895Y-54285775D01*
X25639898Y-54285777D01*
X25773005Y-54340911D01*
X25771913Y-54343546D01*
X25820153Y-54375223D01*
X25848551Y-54439062D01*
X25837927Y-54508119D01*
X25791655Y-54560470D01*
X25725645Y-54579500D01*
X25260000Y-54579500D01*
X25260000Y-55366999D01*
X25296640Y-55366999D01*
X25296654Y-55366998D01*
X25397652Y-55356680D01*
X25561300Y-55302453D01*
X25561311Y-55302448D01*
X25708034Y-55211947D01*
X25708038Y-55211944D01*
X25829946Y-55090036D01*
X25839725Y-55074181D01*
X25891671Y-55027454D01*
X25960633Y-55016229D01*
X25990759Y-55023920D01*
X26004309Y-55029263D01*
X26004314Y-55029265D01*
X26093696Y-55039999D01*
X26093705Y-55040000D01*
X26100999Y-55039999D01*
X26101000Y-55039998D01*
X26101000Y-54514500D01*
X26120685Y-54447461D01*
X26173489Y-54401706D01*
X26225000Y-54390500D01*
X26427000Y-54390500D01*
X26494039Y-54410185D01*
X26539794Y-54462989D01*
X26551000Y-54514500D01*
X26551000Y-55046243D01*
X26576974Y-55093811D01*
X26571990Y-55163503D01*
X26530118Y-55219436D01*
X26509610Y-55231889D01*
X26418564Y-55275734D01*
X26263529Y-55373149D01*
X26263527Y-55373150D01*
X26175126Y-55443647D01*
X26045647Y-55573126D01*
X25975153Y-55661524D01*
X25975146Y-55661533D01*
X25912641Y-55761009D01*
X26503951Y-56352319D01*
X26537436Y-56413642D01*
X26532452Y-56483334D01*
X26503950Y-56527682D01*
X26467180Y-56564451D01*
X26405856Y-56597936D01*
X26336165Y-56592950D01*
X26291819Y-56564450D01*
X25781271Y-56053902D01*
X25768196Y-56091272D01*
X25743034Y-56201516D01*
X25743031Y-56201529D01*
X25719016Y-56414676D01*
X25719406Y-56423298D01*
X25719349Y-56428061D01*
X25720779Y-56440004D01*
X25720796Y-56440144D01*
X25720860Y-56440684D01*
X25718086Y-56457071D01*
X25743031Y-56678470D01*
X25743034Y-56678487D01*
X25763216Y-56766908D01*
X25758943Y-56836646D01*
X25717644Y-56893004D01*
X25652432Y-56918087D01*
X25642325Y-56918500D01*
X25452077Y-56918500D01*
X25341777Y-56940440D01*
X25272185Y-56934213D01*
X25229905Y-56906504D01*
X25223001Y-56899600D01*
X22598000Y-56899600D01*
X22530961Y-56879915D01*
X22485206Y-56827111D01*
X22474000Y-56775600D01*
X22474000Y-55612100D01*
X22437361Y-55612100D01*
X22437343Y-55612101D01*
X22336347Y-55622419D01*
X22165842Y-55678919D01*
X22165036Y-55676489D01*
X22107817Y-55685176D01*
X22044036Y-55656651D01*
X22005801Y-55598171D01*
X22000500Y-55562303D01*
X22000500Y-54719654D01*
X22473001Y-54719654D01*
X22483319Y-54820652D01*
X22537546Y-54984300D01*
X22537551Y-54984311D01*
X22628052Y-55131034D01*
X22628055Y-55131038D01*
X22749961Y-55252944D01*
X22749965Y-55252947D01*
X22896688Y-55343448D01*
X22896699Y-55343453D01*
X22978001Y-55370394D01*
X23035446Y-55410167D01*
X23062269Y-55474682D01*
X23049954Y-55543458D01*
X23002411Y-55594658D01*
X22987280Y-55598819D01*
X22974000Y-55612100D01*
X22974000Y-56399600D01*
X23998000Y-56399600D01*
X24498000Y-56399600D01*
X25222999Y-56399600D01*
X25222999Y-56300460D01*
X25222998Y-56300445D01*
X25212680Y-56199447D01*
X25158453Y-56035799D01*
X25158448Y-56035788D01*
X25067947Y-55889065D01*
X25067944Y-55889061D01*
X24946038Y-55767155D01*
X24946034Y-55767152D01*
X24799311Y-55676651D01*
X24799300Y-55676646D01*
X24635652Y-55622419D01*
X24534654Y-55612100D01*
X24498000Y-55612100D01*
X24498000Y-56399600D01*
X23998000Y-56399600D01*
X23998000Y-55612100D01*
X23958198Y-55612101D01*
X23958197Y-55610863D01*
X23895062Y-55595720D01*
X23857454Y-55556483D01*
X23836989Y-55608193D01*
X23780235Y-55648945D01*
X23778222Y-55649632D01*
X23696697Y-55676647D01*
X23696688Y-55676651D01*
X23551097Y-55766454D01*
X23483705Y-55784895D01*
X23420903Y-55766454D01*
X23275311Y-55676651D01*
X23275300Y-55676646D01*
X23193993Y-55649704D01*
X23136548Y-55609931D01*
X23109725Y-55545416D01*
X23122040Y-55476640D01*
X23169583Y-55425440D01*
X23184724Y-55421275D01*
X23198000Y-55407999D01*
X23198000Y-54620500D01*
X23698000Y-54620500D01*
X23698000Y-55407999D01*
X23737802Y-55407999D01*
X23737802Y-55409276D01*
X23800793Y-55424295D01*
X23838534Y-55463565D01*
X23859112Y-55411775D01*
X23915920Y-55371098D01*
X23917780Y-55370466D01*
X23999296Y-55343455D01*
X23999311Y-55343448D01*
X24146034Y-55252947D01*
X24146037Y-55252945D01*
X24165364Y-55233618D01*
X24226686Y-55200131D01*
X24296378Y-55205114D01*
X24318144Y-55215759D01*
X24458688Y-55302448D01*
X24458699Y-55302453D01*
X24622347Y-55356680D01*
X24723352Y-55366999D01*
X24760000Y-55366999D01*
X24760000Y-54579500D01*
X24466000Y-54579500D01*
X24461319Y-54584181D01*
X24399996Y-54617666D01*
X24373638Y-54620500D01*
X23698000Y-54620500D01*
X23198000Y-54620500D01*
X22473001Y-54620500D01*
X22473001Y-54719654D01*
X22000500Y-54719654D01*
X22000500Y-50503051D01*
X22000649Y-50496967D01*
X22005067Y-50407041D01*
X22019460Y-50114055D01*
X22020653Y-50101951D01*
X22021220Y-50098128D01*
X22076457Y-49725747D01*
X22078824Y-49713845D01*
X22171238Y-49344907D01*
X22174765Y-49333280D01*
X22302901Y-48975166D01*
X22307536Y-48963977D01*
X22470163Y-48620130D01*
X22475878Y-48609438D01*
X22671410Y-48283213D01*
X22678153Y-48273120D01*
X22904727Y-47967621D01*
X22912430Y-47958236D01*
X23167851Y-47676421D01*
X23176421Y-47667851D01*
X23458236Y-47412430D01*
X23467621Y-47404727D01*
X23773120Y-47178153D01*
X23783213Y-47171410D01*
X24085537Y-46990204D01*
X24153158Y-46972623D01*
X24219550Y-46994392D01*
G37*
G04 #@! TD.AperFunction*
G04 #@! TA.AperFunction,Conductor*
G36*
X27276703Y-53371100D02*
G01*
X27283181Y-53377132D01*
X27465163Y-53559114D01*
X27465377Y-53559257D01*
X27465464Y-53559361D01*
X27469878Y-53562984D01*
X27469191Y-53563820D01*
X27510189Y-53612863D01*
X27520500Y-53662368D01*
X27520500Y-53877334D01*
X27528746Y-53945999D01*
X27532193Y-53974702D01*
X27529476Y-53975028D01*
X27529476Y-54004971D01*
X27532193Y-54005298D01*
X27531245Y-54013191D01*
X27531245Y-54013192D01*
X27520500Y-54102666D01*
X27520500Y-54102672D01*
X27520500Y-54527334D01*
X27531244Y-54616805D01*
X27531245Y-54616810D01*
X27546177Y-54654673D01*
X27556854Y-54681748D01*
X27565500Y-54727237D01*
X27565500Y-54774994D01*
X27565500Y-54774996D01*
X27565499Y-54774996D01*
X27592418Y-54910322D01*
X27592421Y-54910332D01*
X27644510Y-55036087D01*
X27651979Y-55105556D01*
X27620703Y-55168035D01*
X27560614Y-55203687D01*
X27490789Y-55201193D01*
X27488995Y-55200581D01*
X27390734Y-55166198D01*
X27390732Y-55166197D01*
X27280483Y-55141034D01*
X27280471Y-55141032D01*
X27098547Y-55120534D01*
X27025977Y-55121643D01*
X27020295Y-55121599D01*
X26985460Y-55120534D01*
X26985453Y-55120534D01*
X26975753Y-55121627D01*
X26906931Y-55109569D01*
X26855554Y-55062217D01*
X26837933Y-54994606D01*
X26859663Y-54928201D01*
X26886951Y-54899601D01*
X26911777Y-54880775D01*
X27004168Y-54758938D01*
X27004169Y-54758937D01*
X27060264Y-54616689D01*
X27060265Y-54616685D01*
X27069475Y-54540000D01*
X26873566Y-54540000D01*
X26806527Y-54520315D01*
X26760772Y-54467511D01*
X26750828Y-54398353D01*
X26779853Y-54334797D01*
X26798641Y-54317196D01*
X26803984Y-54313143D01*
X26912133Y-54231133D01*
X26981942Y-54139074D01*
X27038134Y-54097552D01*
X27067371Y-54092370D01*
X27069473Y-54090000D01*
X27059381Y-54005950D01*
X27061376Y-53974890D01*
X27059807Y-53974702D01*
X27071500Y-53877334D01*
X27071500Y-53464813D01*
X27091185Y-53397774D01*
X27143989Y-53352019D01*
X27213147Y-53342075D01*
X27276703Y-53371100D01*
G37*
G04 #@! TD.AperFunction*
G04 #@! TA.AperFunction,Conductor*
G36*
X27914461Y-46990204D02*
G01*
X27927603Y-46998081D01*
X28137271Y-47123751D01*
X28216773Y-47171402D01*
X28226888Y-47178160D01*
X28328313Y-47253382D01*
X28532367Y-47404719D01*
X28541773Y-47412439D01*
X28823568Y-47667842D01*
X28832157Y-47676431D01*
X29007782Y-47870204D01*
X29087560Y-47958226D01*
X29095280Y-47967632D01*
X29321837Y-48273108D01*
X29328597Y-48283226D01*
X29502565Y-48573475D01*
X29524109Y-48609418D01*
X29529844Y-48620146D01*
X29689802Y-48958350D01*
X29692454Y-48963956D01*
X29697104Y-48975184D01*
X29790248Y-49235500D01*
X29825229Y-49333266D01*
X29828761Y-49344910D01*
X29921171Y-49713828D01*
X29923545Y-49725764D01*
X29979346Y-50101951D01*
X29980539Y-50114060D01*
X29999351Y-50496966D01*
X29999500Y-50503051D01*
X29999500Y-53754186D01*
X29979815Y-53821225D01*
X29927011Y-53866980D01*
X29857853Y-53876924D01*
X29794297Y-53847899D01*
X29787819Y-53841867D01*
X29066840Y-53120888D01*
X29066832Y-53120882D01*
X29066605Y-53120730D01*
X29066512Y-53120619D01*
X29062129Y-53117022D01*
X29062811Y-53116190D01*
X29021802Y-53067116D01*
X29011500Y-53017631D01*
X29011500Y-52802665D01*
X28999807Y-52705298D01*
X29001375Y-52705109D01*
X28999381Y-52674042D01*
X29009474Y-52589999D01*
X29005505Y-52585524D01*
X28953707Y-52570315D01*
X28921942Y-52540925D01*
X28852133Y-52448867D01*
X28738641Y-52362804D01*
X28697118Y-52306612D01*
X28692566Y-52236890D01*
X28726431Y-52175776D01*
X28787960Y-52142673D01*
X28813566Y-52140000D01*
X29009473Y-52140000D01*
X29000265Y-52063314D01*
X28944169Y-51921062D01*
X28944168Y-51921061D01*
X28851776Y-51799223D01*
X28729938Y-51706831D01*
X28729937Y-51706830D01*
X28587689Y-51650735D01*
X28587685Y-51650734D01*
X28498300Y-51640000D01*
X28491000Y-51640000D01*
X28491000Y-52165500D01*
X28471315Y-52232539D01*
X28418511Y-52278294D01*
X28367000Y-52289500D01*
X28228225Y-52289500D01*
X28161186Y-52269815D01*
X28140544Y-52253181D01*
X28077319Y-52189956D01*
X28043834Y-52128633D01*
X28041000Y-52102275D01*
X28041000Y-51640000D01*
X28033700Y-51640001D01*
X27944313Y-51650735D01*
X27802062Y-51706830D01*
X27802060Y-51706831D01*
X27748542Y-51747416D01*
X27683231Y-51772239D01*
X27614867Y-51757811D01*
X27604729Y-51751716D01*
X27593523Y-51744229D01*
X27593522Y-51744228D01*
X27593517Y-51744225D01*
X27593514Y-51744224D01*
X27593513Y-51744223D01*
X27466034Y-51691420D01*
X27466032Y-51691419D01*
X27440182Y-51686277D01*
X27378272Y-51653890D01*
X27343700Y-51593173D01*
X27347442Y-51523403D01*
X27388310Y-51466733D01*
X27400228Y-51458543D01*
X27536582Y-51376115D01*
X27536583Y-51376113D01*
X27724968Y-51228523D01*
X27724968Y-51228522D01*
X26582737Y-50086290D01*
X26716602Y-49989033D01*
X26839033Y-49866602D01*
X26936290Y-49732737D01*
X28078522Y-50874968D01*
X28078523Y-50874968D01*
X28226112Y-50686586D01*
X28395101Y-50407043D01*
X28395102Y-50407041D01*
X28529160Y-50109175D01*
X28529164Y-50109164D01*
X28626332Y-49797341D01*
X28685213Y-49476038D01*
X28704934Y-49150000D01*
X28685213Y-48823961D01*
X28626332Y-48502658D01*
X28529164Y-48190835D01*
X28529160Y-48190824D01*
X28395102Y-47892958D01*
X28395101Y-47892956D01*
X28226118Y-47613423D01*
X28078522Y-47425030D01*
X26936290Y-48567262D01*
X26839033Y-48433398D01*
X26716602Y-48310967D01*
X26582736Y-48213709D01*
X27737201Y-47059243D01*
X27742537Y-47035947D01*
X27792481Y-46987085D01*
X27860912Y-46972982D01*
X27914461Y-46990204D01*
G37*
G04 #@! TD.AperFunction*
G04 #@! TA.AperFunction,Conductor*
G36*
X53582187Y-46926125D02*
G01*
X53633387Y-46973668D01*
X53650188Y-47024481D01*
X53660319Y-47123652D01*
X53714546Y-47287300D01*
X53714551Y-47287311D01*
X53804060Y-47432426D01*
X53822501Y-47499818D01*
X53804061Y-47562619D01*
X53747598Y-47654161D01*
X53695650Y-47700886D01*
X53628176Y-47712285D01*
X53594004Y-47708435D01*
X53594002Y-47708435D01*
X53594000Y-47708435D01*
X53585985Y-47709337D01*
X53517164Y-47697281D01*
X53465786Y-47649931D01*
X53455666Y-47624223D01*
X53454304Y-47624675D01*
X53450573Y-47613416D01*
X53397908Y-47454484D01*
X53307937Y-47308619D01*
X53289498Y-47241227D01*
X53307939Y-47178425D01*
X53397450Y-47033307D01*
X53397455Y-47033296D01*
X53409124Y-46998081D01*
X53448895Y-46940635D01*
X53513411Y-46913811D01*
X53582187Y-46926125D01*
G37*
G04 #@! TD.AperFunction*
G04 #@! TA.AperFunction,Conductor*
G36*
X34951222Y-44085797D02*
G01*
X34952174Y-44084557D01*
X34954819Y-44086586D01*
X34955755Y-44087867D01*
X34957203Y-44088529D01*
X34963681Y-44094561D01*
X34964382Y-44095262D01*
X34962517Y-44097126D01*
X34996029Y-44143008D01*
X35002964Y-44194699D01*
X35001500Y-44213295D01*
X35001500Y-44830000D01*
X34981815Y-44897039D01*
X34929011Y-44942794D01*
X34877500Y-44954000D01*
X34283000Y-44954000D01*
X34215961Y-44934315D01*
X34170206Y-44881511D01*
X34159000Y-44830000D01*
X34159000Y-44799223D01*
X34161556Y-44794796D01*
X34182000Y-44718496D01*
X34182000Y-44508088D01*
X34231489Y-44465206D01*
X34283000Y-44454000D01*
X34752000Y-44454000D01*
X34752000Y-44182242D01*
X34771685Y-44115203D01*
X34824489Y-44069448D01*
X34893647Y-44059504D01*
X34951222Y-44085797D01*
G37*
G04 #@! TD.AperFunction*
G04 #@! TA.AperFunction,Conductor*
G36*
X41571334Y-44066060D02*
G01*
X41627267Y-44107932D01*
X41651684Y-44173396D01*
X41652000Y-44182242D01*
X41652000Y-44830000D01*
X41632315Y-44897039D01*
X41579511Y-44942794D01*
X41528000Y-44954000D01*
X41526500Y-44954000D01*
X41459461Y-44934315D01*
X41413706Y-44881511D01*
X41402500Y-44830000D01*
X41402500Y-44213313D01*
X41402498Y-44213285D01*
X41401679Y-44202881D01*
X41401036Y-44194704D01*
X41415397Y-44126327D01*
X41440802Y-44096446D01*
X41439618Y-44095262D01*
X41440319Y-44094561D01*
X41444213Y-44092434D01*
X41449198Y-44086572D01*
X41451844Y-44084543D01*
X41453857Y-44087168D01*
X41501642Y-44061076D01*
X41571334Y-44066060D01*
G37*
G04 #@! TD.AperFunction*
G04 #@! TA.AperFunction,Conductor*
G36*
X57828833Y-40578334D02*
G01*
X57884767Y-40620205D01*
X57909184Y-40685670D01*
X57909500Y-40694514D01*
X57909500Y-40745869D01*
X57909501Y-40745876D01*
X57915908Y-40805483D01*
X57966202Y-40940328D01*
X57966206Y-40940335D01*
X58052452Y-41055544D01*
X58057584Y-41060676D01*
X58091069Y-41121999D01*
X58086085Y-41191691D01*
X58057584Y-41236038D01*
X58052809Y-41240812D01*
X57966649Y-41355906D01*
X57966645Y-41355913D01*
X57916403Y-41490620D01*
X57916401Y-41490627D01*
X57910000Y-41550155D01*
X57910000Y-41773000D01*
X59336000Y-41773000D01*
X59403039Y-41792685D01*
X59448794Y-41845489D01*
X59460000Y-41897000D01*
X59460000Y-42948000D01*
X59792100Y-42948000D01*
X59859139Y-42967685D01*
X59904894Y-43020489D01*
X59915320Y-43058114D01*
X59920631Y-43105252D01*
X59920633Y-43105260D01*
X59928976Y-43129104D01*
X59933550Y-43145861D01*
X59936815Y-43162274D01*
X59930588Y-43231866D01*
X59887726Y-43287044D01*
X59858531Y-43302649D01*
X59786333Y-43329577D01*
X59716641Y-43334561D01*
X59699668Y-43329577D01*
X59625488Y-43301910D01*
X59625484Y-43301909D01*
X59625483Y-43301909D01*
X59565873Y-43295500D01*
X59565863Y-43295500D01*
X59070129Y-43295500D01*
X59070123Y-43295501D01*
X59010516Y-43301908D01*
X58935617Y-43329844D01*
X58865926Y-43334828D01*
X58848952Y-43329844D01*
X58775379Y-43302403D01*
X58775372Y-43302401D01*
X58715844Y-43296000D01*
X58518000Y-43296000D01*
X58518000Y-44322000D01*
X58498315Y-44389039D01*
X58445511Y-44434794D01*
X58394000Y-44446000D01*
X58142000Y-44446000D01*
X58074961Y-44426315D01*
X58029206Y-44373511D01*
X58018000Y-44322000D01*
X58018000Y-43296000D01*
X57820155Y-43296000D01*
X57760627Y-43302401D01*
X57760620Y-43302403D01*
X57625913Y-43352645D01*
X57625906Y-43352649D01*
X57504811Y-43443302D01*
X57439347Y-43467720D01*
X57371074Y-43452869D01*
X57321668Y-43403464D01*
X57306500Y-43344036D01*
X57306500Y-42495844D01*
X57910000Y-42495844D01*
X57916401Y-42555372D01*
X57916403Y-42555379D01*
X57966645Y-42690086D01*
X57966649Y-42690093D01*
X58052809Y-42805187D01*
X58052812Y-42805190D01*
X58167906Y-42891350D01*
X58167913Y-42891354D01*
X58302620Y-42941596D01*
X58302627Y-42941598D01*
X58362155Y-42947999D01*
X58362172Y-42948000D01*
X58960000Y-42948000D01*
X58960000Y-42273000D01*
X57910000Y-42273000D01*
X57910000Y-42495844D01*
X57306500Y-42495844D01*
X57306500Y-41512700D01*
X57314318Y-41469366D01*
X57323291Y-41445310D01*
X57325091Y-41440483D01*
X57331500Y-41380873D01*
X57331499Y-41024517D01*
X57351183Y-40957479D01*
X57367814Y-40936841D01*
X57697822Y-40606833D01*
X57759142Y-40573350D01*
X57828833Y-40578334D01*
G37*
G04 #@! TD.AperFunction*
G04 #@! TA.AperFunction,Conductor*
G36*
X67621520Y-40168185D02*
G01*
X67642162Y-40184819D01*
X67931181Y-40473838D01*
X67964666Y-40535161D01*
X67967500Y-40561519D01*
X67967500Y-43171500D01*
X67947815Y-43238539D01*
X67895011Y-43284294D01*
X67843500Y-43295500D01*
X67570130Y-43295500D01*
X67570123Y-43295501D01*
X67510516Y-43301908D01*
X67436332Y-43329577D01*
X67366640Y-43334561D01*
X67349668Y-43329577D01*
X67275488Y-43301910D01*
X67275484Y-43301909D01*
X67275483Y-43301909D01*
X67215873Y-43295500D01*
X67215863Y-43295500D01*
X66720129Y-43295500D01*
X66720123Y-43295501D01*
X66660516Y-43301908D01*
X66586332Y-43329577D01*
X66516640Y-43334561D01*
X66499668Y-43329577D01*
X66425488Y-43301910D01*
X66425484Y-43301909D01*
X66425483Y-43301909D01*
X66365873Y-43295500D01*
X66365863Y-43295500D01*
X65870129Y-43295500D01*
X65870123Y-43295501D01*
X65810516Y-43301908D01*
X65736332Y-43329577D01*
X65666640Y-43334561D01*
X65649668Y-43329577D01*
X65568216Y-43299198D01*
X65569136Y-43296731D01*
X65519456Y-43268427D01*
X65487084Y-43206509D01*
X65493327Y-43136918D01*
X65521022Y-43094667D01*
X65590340Y-43025350D01*
X65680908Y-42878516D01*
X65735174Y-42714753D01*
X65745500Y-42613677D01*
X65745499Y-42015324D01*
X65745295Y-42013330D01*
X65735174Y-41914247D01*
X65729459Y-41897000D01*
X65680908Y-41750484D01*
X65590340Y-41603650D01*
X65476371Y-41489681D01*
X65442886Y-41428358D01*
X65447870Y-41358666D01*
X65476371Y-41314319D01*
X65522800Y-41267890D01*
X65590340Y-41200350D01*
X65680908Y-41053516D01*
X65735174Y-40889753D01*
X65745500Y-40788677D01*
X65745499Y-40272499D01*
X65765183Y-40205461D01*
X65817987Y-40159706D01*
X65869499Y-40148500D01*
X67554481Y-40148500D01*
X67621520Y-40168185D01*
G37*
G04 #@! TD.AperFunction*
M02*
