M48
; DRILL file {KiCad 8.0.5} date 2024-09-28T10:16:17+0200
; FORMAT={-:-/ absolute / inch / decimal}
; #@! TF.CreationDate,2024-09-28T10:16:17+02:00
; #@! TF.GenerationSoftware,Kicad,Pcbnew,8.0.5
; #@! TF.FileFunction,Plated,1,2,PTH
FMAT,2
INCH
; #@! TA.AperFunction,Plated,PTH,ViaDrill
T1C0.0118
; #@! TA.AperFunction,Plated,PTH,ComponentDrill
T2C0.0157
; #@! TA.AperFunction,Plated,PTH,ComponentDrill
T3C0.0236
; #@! TA.AperFunction,Plated,PTH,ComponentDrill
T4C0.0394
; #@! TA.AperFunction,Plated,PTH,ComponentDrill
T5C0.0433
; #@! TA.AperFunction,Plated,PTH,ComponentDrill
T6C0.0866
%
G90
G05
T1
X0.8915Y-2.38
X0.9Y-2.02
X0.91Y-1.99
X0.91Y-2.41
X0.93Y-2.02
X0.93Y-2.38
X0.97Y-2.33
X1.0Y-2.08
X1.045Y-2.305
X1.14Y-2.02
X1.15Y-1.98
X1.16Y-2.0
X1.32Y-1.86
X1.325Y-1.83
X1.345Y-1.675
X1.4095Y-1.795
X1.44Y-2.42
X1.44Y-2.445
X1.4692Y-3.0402
X1.475Y-3.08
X1.6009Y-1.8041
X1.655Y-1.8
X1.69Y-1.985
X1.695Y-1.795
X1.74Y-1.55
X1.7626Y-1.8925
X1.7626Y-1.9331
X2.005Y-2.285
X2.025Y-3.1
X2.0271Y-1.8785
X2.05Y-2.67
X2.065Y-2.7
X2.085Y-2.675
X2.11Y-1.91
X2.12Y-1.84
X2.1975Y-2.7225
X2.26Y-1.74
X2.26Y-2.29
X2.27Y-1.65
X2.27Y-3.12
X2.39Y-1.69
X2.42Y-2.615
X2.465Y-2.895
X2.475Y-2.415
X2.5Y-2.445
X2.505Y-2.415
X2.69Y-3.035
X2.71Y-2.25
X2.71Y-2.36
X2.735Y-3.04
X2.735Y-2.5968
X2.7377Y-1.6906
X2.74Y-2.25
X2.755Y-2.71
X2.76Y-2.59
X2.765Y-2.735
X2.765Y-2.89
X2.7756Y-1.6906
X2.86Y-2.44
T2
X0.965Y-1.935
X0.9841Y-1.8891
X0.9841Y-1.9809
X1.03Y-1.87
X1.03Y-2.0
X1.0759Y-1.8891
X1.0759Y-1.9809
X1.095Y-1.935
X2.0191Y-2.4791
X2.0381Y-2.4331
X2.0381Y-2.525
X2.0841Y-2.4141
X2.0841Y-2.544
X2.13Y-2.4331
X2.13Y-2.525
X2.149Y-2.4791
T4
X1.37Y-2.06
X1.37Y-2.16
X1.37Y-2.26
X1.37Y-2.36
X1.37Y-2.46
X1.37Y-2.56
X1.37Y-2.66
X1.6096Y-3.12
X1.7096Y-3.12
X1.8096Y-3.12
X1.9096Y-3.12
T5
X2.5Y-3.1012
X2.6Y-3.1012
X2.7Y-3.1012
X2.8Y-3.1012
X2.9Y-3.1012
T6
X1.03Y-1.935
X2.0841Y-2.4791
T3
G00X1.3339Y-1.5885
M15
G01X1.3339Y-1.557
M16
G05
G00X1.3339Y-1.759
M15
G01X1.3339Y-1.7157
M16
G05
G00X1.6741Y-1.5885
M15
G01X1.6741Y-1.557
M16
G05
G00X1.6741Y-1.759
M15
G01X1.6741Y-1.7157
M16
G05
M30
