G04 #@! TF.GenerationSoftware,KiCad,Pcbnew,8.0.5*
G04 #@! TF.CreationDate,2024-10-21T14:28:59+02:00*
G04 #@! TF.ProjectId,Slave,536c6176-652e-46b6-9963-61645f706362,rev?*
G04 #@! TF.SameCoordinates,Original*
G04 #@! TF.FileFunction,Copper,L2,Bot*
G04 #@! TF.FilePolarity,Positive*
%FSLAX46Y46*%
G04 Gerber Fmt 4.6, Leading zero omitted, Abs format (unit mm)*
G04 Created by KiCad (PCBNEW 8.0.5) date 2024-10-21 14:28:59*
%MOMM*%
%LPD*%
G01*
G04 APERTURE LIST*
G04 #@! TA.AperFunction,ComponentPad*
%ADD10R,1.700000X1.700000*%
G04 #@! TD*
G04 #@! TA.AperFunction,ComponentPad*
%ADD11O,1.700000X1.700000*%
G04 #@! TD*
G04 #@! TA.AperFunction,ComponentPad*
%ADD12O,1.000000X2.100000*%
G04 #@! TD*
G04 #@! TA.AperFunction,ComponentPad*
%ADD13O,1.000000X1.800000*%
G04 #@! TD*
G04 #@! TA.AperFunction,ComponentPad*
%ADD14R,2.200000X2.200000*%
G04 #@! TD*
G04 #@! TA.AperFunction,ComponentPad*
%ADD15C,2.200000*%
G04 #@! TD*
G04 #@! TA.AperFunction,ComponentPad*
%ADD16C,0.700000*%
G04 #@! TD*
G04 #@! TA.AperFunction,ComponentPad*
%ADD17C,4.400000*%
G04 #@! TD*
G04 #@! TA.AperFunction,ViaPad*
%ADD18C,0.600000*%
G04 #@! TD*
G04 #@! TA.AperFunction,Conductor*
%ADD19C,0.600000*%
G04 #@! TD*
G04 #@! TA.AperFunction,Conductor*
%ADD20C,0.400000*%
G04 #@! TD*
G04 APERTURE END LIST*
D10*
X34798000Y-52324000D03*
D11*
X34798000Y-54864000D03*
X34798000Y-57404000D03*
X34798000Y-59944000D03*
X34798000Y-62484000D03*
X34798000Y-65024000D03*
X34798000Y-67564000D03*
D12*
X42522000Y-44129000D03*
D13*
X42522000Y-39949000D03*
D12*
X33882000Y-44129000D03*
D13*
X33882000Y-39949000D03*
D14*
X73660000Y-78770000D03*
D15*
X71120000Y-78770000D03*
X68580000Y-78770000D03*
X66040000Y-78770000D03*
X63500000Y-78770000D03*
D10*
X48504000Y-79248000D03*
D11*
X45964000Y-79248000D03*
X43424000Y-79248000D03*
X40884000Y-79248000D03*
D16*
X24350000Y-49150000D03*
X24833274Y-47983274D03*
X24833274Y-50316726D03*
X26000000Y-47500000D03*
D17*
X26000000Y-49150000D03*
D16*
X26000000Y-50800000D03*
X27166726Y-47983274D03*
X27166726Y-50316726D03*
X27650000Y-49150000D03*
X51690000Y-62865000D03*
X52173274Y-61698274D03*
X52173274Y-64031726D03*
X53340000Y-61215000D03*
D17*
X53340000Y-62865000D03*
D16*
X53340000Y-64515000D03*
X54506726Y-61698274D03*
X54506726Y-64031726D03*
X54990000Y-62865000D03*
D18*
X57658000Y-79248000D03*
X45466000Y-48006000D03*
X44903000Y-48967000D03*
X55559000Y-69409000D03*
X51588500Y-78385500D03*
X70231000Y-73406000D03*
X47244000Y-40386000D03*
X60452000Y-69088000D03*
X57404000Y-44196000D03*
X39116000Y-42418000D03*
X39370000Y-51816000D03*
X22724000Y-61214000D03*
X44196000Y-39370000D03*
X67100000Y-80520000D03*
X42037000Y-45720000D03*
X41402000Y-48260000D03*
X66548000Y-57023000D03*
X40132000Y-39878000D03*
X69750000Y-61380000D03*
X26026000Y-62738000D03*
X22724000Y-50546000D03*
X64040000Y-62190000D03*
X63246000Y-46990000D03*
X63246000Y-76454000D03*
X54102000Y-50038000D03*
X36576000Y-60960000D03*
X45974000Y-43434000D03*
X52070000Y-67818000D03*
X51562000Y-72644000D03*
X65913000Y-62484000D03*
X56896000Y-61468000D03*
X60706000Y-51054000D03*
X23232000Y-60452000D03*
X56134000Y-61722000D03*
X22470000Y-51308000D03*
X38100000Y-56896000D03*
X57404000Y-74726800D03*
X33655000Y-46482000D03*
X40640000Y-48260000D03*
X51562000Y-73406000D03*
X47244000Y-41402000D03*
X57658000Y-41910000D03*
X69980000Y-62040000D03*
X69596000Y-57150000D03*
X37465000Y-78232000D03*
X72644000Y-59537600D03*
X53594000Y-39624000D03*
X50927000Y-58039000D03*
X35560000Y-39878000D03*
X39370000Y-56896000D03*
X52959000Y-67945000D03*
X53848000Y-46736000D03*
X28312000Y-51054000D03*
X47498000Y-64770000D03*
X43053000Y-45593000D03*
X62611000Y-73533000D03*
X60706000Y-71374000D03*
X22570000Y-60452000D03*
X70480000Y-61480000D03*
X35560000Y-71628000D03*
X62992000Y-69088000D03*
X57150000Y-76200000D03*
X35560000Y-70612000D03*
X74676000Y-76200000D03*
X36322000Y-42418000D03*
X63627000Y-57150000D03*
X59690000Y-71374000D03*
X69469000Y-77216000D03*
X67056000Y-46990000D03*
X46482000Y-76962000D03*
X57404000Y-58166000D03*
X38100000Y-51816000D03*
X61214000Y-66802000D03*
X43180000Y-50546000D03*
X50038000Y-80518000D03*
X23232000Y-51308000D03*
X43434000Y-64770000D03*
X68834000Y-57150000D03*
X73660000Y-76200000D03*
X37318436Y-77221756D03*
X28058000Y-62738000D03*
X38608000Y-57912000D03*
X67310000Y-40894000D03*
X33528000Y-47244000D03*
X71374000Y-38862000D03*
X65024000Y-67310000D03*
X34163000Y-42545000D03*
X52451000Y-68580000D03*
X69850000Y-38862000D03*
X40894000Y-76454000D03*
X29050000Y-51150000D03*
X48006000Y-40894000D03*
X42418000Y-64770000D03*
X49022000Y-46228000D03*
X28800000Y-50400000D03*
X69088000Y-75692000D03*
X68326000Y-77089000D03*
X51487978Y-47713840D03*
X70713600Y-59436000D03*
X69538000Y-42940000D03*
X42418000Y-59944000D03*
X53594000Y-48514000D03*
X25010000Y-52832000D03*
X60706000Y-42926000D03*
X24248000Y-59182000D03*
X38354000Y-62992000D03*
X70500000Y-42940000D03*
X43434000Y-59944000D03*
X26153000Y-58547000D03*
X35802000Y-45593000D03*
X40663500Y-45823500D03*
X70485000Y-67564000D03*
X61018000Y-57092000D03*
D19*
X70185086Y-81485086D02*
X70944914Y-81485086D01*
X37369706Y-81499706D02*
X50765706Y-81499706D01*
X51588500Y-75665500D02*
X51588500Y-78385500D01*
X50765706Y-81499706D02*
X50780326Y-81485086D01*
X51588500Y-78385500D02*
X51588500Y-80676912D01*
X44903000Y-48967000D02*
X44340000Y-49530000D01*
X45466000Y-48006000D02*
X45466000Y-48404000D01*
X51588500Y-80676912D02*
X50765706Y-81499706D01*
X53086000Y-74168000D02*
X51588500Y-75665500D01*
X57912000Y-79248000D02*
X57658000Y-79248000D01*
X70944914Y-81485086D02*
X73660000Y-78770000D01*
X33340000Y-50480000D02*
X33340000Y-77470000D01*
X34290000Y-49530000D02*
X33340000Y-50480000D01*
X50780326Y-81485086D02*
X70185086Y-81485086D01*
X55559000Y-69409000D02*
X53086000Y-71882000D01*
X57912000Y-81457086D02*
X57912000Y-79248000D01*
X33340000Y-77470000D02*
X37369706Y-81499706D01*
X53086000Y-71882000D02*
X53086000Y-74168000D01*
X45466000Y-48404000D02*
X44903000Y-48967000D01*
X44340000Y-49530000D02*
X34290000Y-49530000D01*
X51487978Y-47713840D02*
X51490374Y-47713840D01*
D20*
X54572000Y-47714000D02*
X51490534Y-47714000D01*
X70713600Y-59436000D02*
X57150000Y-59436000D01*
X56642000Y-49784000D02*
X54572000Y-47714000D01*
X56642000Y-58928000D02*
X56642000Y-49784000D01*
X57150000Y-59436000D02*
X56642000Y-58928000D01*
D19*
X51490374Y-47713840D02*
X51490534Y-47714000D01*
X38354000Y-59944000D02*
X38354000Y-62992000D01*
X43688000Y-59944000D02*
X47752000Y-55880000D01*
X49784000Y-42926000D02*
X60706000Y-42926000D01*
X70476000Y-42926000D02*
X70480000Y-42930000D01*
X52578000Y-49530000D02*
X52705000Y-49403000D01*
X52705000Y-49403000D02*
X53594000Y-48514000D01*
X24248000Y-59182000D02*
X25518000Y-59182000D01*
X47752000Y-44958000D02*
X49784000Y-42926000D01*
X47752000Y-49530000D02*
X52578000Y-49530000D01*
X38354000Y-59944000D02*
X43688000Y-59944000D01*
X26153000Y-53975000D02*
X25010000Y-52832000D01*
X34798000Y-59944000D02*
X38354000Y-59944000D01*
X25518000Y-59182000D02*
X26153000Y-58547000D01*
X47752000Y-55880000D02*
X47752000Y-49530000D01*
X60706000Y-42926000D02*
X70476000Y-42926000D01*
X47752000Y-49530000D02*
X47752000Y-44958000D01*
X26153000Y-58547000D02*
X26153000Y-53975000D01*
X36056000Y-45847000D02*
X40640000Y-45847000D01*
X35802000Y-45593000D02*
X36056000Y-45847000D01*
X40640000Y-45847000D02*
X40663500Y-45823500D01*
D20*
X61849000Y-56261000D02*
X70485000Y-56261000D01*
X71628000Y-66421000D02*
X70485000Y-67564000D01*
X70485000Y-56261000D02*
X71628000Y-57404000D01*
X71628000Y-57404000D02*
X71628000Y-66421000D01*
X61018000Y-57092000D02*
X61849000Y-56261000D01*
G04 #@! TA.AperFunction,Conductor*
G36*
X73011039Y-38020185D02*
G01*
X73056794Y-38072989D01*
X73068000Y-38124500D01*
X73068000Y-73896000D01*
X75375500Y-73896000D01*
X75442539Y-73915685D01*
X75488294Y-73968489D01*
X75499500Y-74020000D01*
X75499500Y-77537099D01*
X75479815Y-77604138D01*
X75427011Y-77649893D01*
X75357853Y-77659837D01*
X75294297Y-77630812D01*
X75256523Y-77572034D01*
X75254824Y-77565616D01*
X75254092Y-77562520D01*
X75203797Y-77427671D01*
X75203793Y-77427664D01*
X75117547Y-77312455D01*
X75117544Y-77312452D01*
X75002335Y-77226206D01*
X75002328Y-77226202D01*
X74867482Y-77175908D01*
X74867483Y-77175908D01*
X74807883Y-77169501D01*
X74807881Y-77169500D01*
X74807873Y-77169500D01*
X74807864Y-77169500D01*
X72512129Y-77169500D01*
X72512123Y-77169501D01*
X72452516Y-77175908D01*
X72317671Y-77226202D01*
X72317664Y-77226206D01*
X72202455Y-77312452D01*
X72145072Y-77389105D01*
X72089138Y-77430976D01*
X72019446Y-77435959D01*
X71981016Y-77420520D01*
X71848859Y-77339533D01*
X71616110Y-77243126D01*
X71371151Y-77184317D01*
X71120000Y-77164551D01*
X70868848Y-77184317D01*
X70623889Y-77243126D01*
X70391140Y-77339533D01*
X70176346Y-77471160D01*
X70176343Y-77471161D01*
X69984776Y-77634776D01*
X69821166Y-77826338D01*
X69740126Y-77958581D01*
X69722080Y-77981471D01*
X69103787Y-78599764D01*
X69092518Y-78557708D01*
X69020110Y-78432292D01*
X68917708Y-78329890D01*
X68792292Y-78257482D01*
X68750234Y-78246212D01*
X69524179Y-77472266D01*
X69523362Y-77471568D01*
X69308631Y-77339980D01*
X69075956Y-77243603D01*
X68831072Y-77184812D01*
X68580000Y-77165052D01*
X68328927Y-77184812D01*
X68084043Y-77243603D01*
X67851368Y-77339980D01*
X67636637Y-77471567D01*
X67635819Y-77472266D01*
X68409765Y-78246212D01*
X68367708Y-78257482D01*
X68242292Y-78329890D01*
X68139890Y-78432292D01*
X68067482Y-78557708D01*
X68056212Y-78599765D01*
X67437919Y-77981472D01*
X67419876Y-77958586D01*
X67338836Y-77826341D01*
X67175224Y-77634776D01*
X67011206Y-77494691D01*
X66983656Y-77471161D01*
X66983653Y-77471160D01*
X66768859Y-77339533D01*
X66536110Y-77243126D01*
X66291151Y-77184317D01*
X66040000Y-77164551D01*
X65788848Y-77184317D01*
X65543889Y-77243126D01*
X65311140Y-77339533D01*
X65096346Y-77471160D01*
X65096343Y-77471161D01*
X64904776Y-77634776D01*
X64864290Y-77682179D01*
X64805783Y-77720372D01*
X64735915Y-77720870D01*
X64676869Y-77683516D01*
X64675710Y-77682179D01*
X64656628Y-77659837D01*
X64635224Y-77634776D01*
X64471206Y-77494691D01*
X64443656Y-77471161D01*
X64443653Y-77471160D01*
X64228859Y-77339533D01*
X63996110Y-77243126D01*
X63751151Y-77184317D01*
X63500000Y-77164551D01*
X63248848Y-77184317D01*
X63003889Y-77243126D01*
X62771140Y-77339533D01*
X62556346Y-77471160D01*
X62556343Y-77471161D01*
X62364776Y-77634776D01*
X62201161Y-77826343D01*
X62201160Y-77826346D01*
X62069533Y-78041140D01*
X61973126Y-78273889D01*
X61914317Y-78518848D01*
X61894551Y-78770000D01*
X61914317Y-79021151D01*
X61973126Y-79266110D01*
X62069533Y-79498859D01*
X62201160Y-79713653D01*
X62201161Y-79713656D01*
X62232424Y-79750260D01*
X62364776Y-79905224D01*
X62471362Y-79996257D01*
X62556343Y-80068838D01*
X62556346Y-80068839D01*
X62771140Y-80200466D01*
X62977893Y-80286105D01*
X63003889Y-80296873D01*
X63248852Y-80355683D01*
X63500000Y-80375449D01*
X63751148Y-80355683D01*
X63996111Y-80296873D01*
X64228859Y-80200466D01*
X64443659Y-80068836D01*
X64635224Y-79905224D01*
X64675710Y-79857819D01*
X64734216Y-79819627D01*
X64804084Y-79819128D01*
X64863130Y-79856482D01*
X64864235Y-79857756D01*
X64894048Y-79892663D01*
X64904776Y-79905224D01*
X65096343Y-80068838D01*
X65096346Y-80068839D01*
X65311140Y-80200466D01*
X65517893Y-80286105D01*
X65543889Y-80296873D01*
X65788852Y-80355683D01*
X66040000Y-80375449D01*
X66291148Y-80355683D01*
X66536111Y-80296873D01*
X66768859Y-80200466D01*
X66983659Y-80068836D01*
X67175224Y-79905224D01*
X67338836Y-79713659D01*
X67419879Y-79581408D01*
X67437919Y-79558526D01*
X68056212Y-78940234D01*
X68067482Y-78982292D01*
X68139890Y-79107708D01*
X68242292Y-79210110D01*
X68367708Y-79282518D01*
X68409765Y-79293787D01*
X67635819Y-80067732D01*
X67635819Y-80067733D01*
X67636634Y-80068429D01*
X67851368Y-80200019D01*
X68084043Y-80296396D01*
X68328927Y-80355187D01*
X68580000Y-80374947D01*
X68831072Y-80355187D01*
X69075956Y-80296396D01*
X69308631Y-80200019D01*
X69523361Y-80068432D01*
X69523363Y-80068430D01*
X69524180Y-80067732D01*
X68750234Y-79293787D01*
X68792292Y-79282518D01*
X68917708Y-79210110D01*
X69020110Y-79107708D01*
X69092518Y-78982292D01*
X69103787Y-78940234D01*
X69722079Y-79558526D01*
X69740125Y-79581417D01*
X69821160Y-79713653D01*
X69821161Y-79713656D01*
X69852424Y-79750260D01*
X69984776Y-79905224D01*
X70091362Y-79996257D01*
X70176343Y-80068838D01*
X70176346Y-80068839D01*
X70391140Y-80200466D01*
X70507515Y-80248669D01*
X70623889Y-80296873D01*
X70712730Y-80318201D01*
X70773321Y-80352991D01*
X70805486Y-80415017D01*
X70799010Y-80484586D01*
X70771465Y-80526456D01*
X70740363Y-80557559D01*
X70649653Y-80648268D01*
X70588333Y-80681752D01*
X70561974Y-80684586D01*
X58836500Y-80684586D01*
X58769461Y-80664901D01*
X58723706Y-80612097D01*
X58712500Y-80560586D01*
X58712500Y-79169155D01*
X58712499Y-79169153D01*
X58703693Y-79124883D01*
X58681737Y-79014503D01*
X58680947Y-79012596D01*
X58621397Y-78868827D01*
X58621390Y-78868814D01*
X58533789Y-78737711D01*
X58533786Y-78737707D01*
X58422292Y-78626213D01*
X58422288Y-78626210D01*
X58291185Y-78538609D01*
X58291172Y-78538602D01*
X58145501Y-78478264D01*
X58145489Y-78478261D01*
X57990845Y-78447500D01*
X57990842Y-78447500D01*
X57709915Y-78447500D01*
X57696031Y-78446720D01*
X57658002Y-78442435D01*
X57657998Y-78442435D01*
X57619969Y-78446720D01*
X57606085Y-78447500D01*
X57579152Y-78447500D01*
X57539994Y-78455288D01*
X57529696Y-78456890D01*
X57478742Y-78462632D01*
X57478735Y-78462634D01*
X57454898Y-78470975D01*
X57438140Y-78475550D01*
X57424502Y-78478263D01*
X57424496Y-78478264D01*
X57375631Y-78498504D01*
X57369140Y-78500982D01*
X57308477Y-78522210D01*
X57308474Y-78522212D01*
X57298127Y-78528713D01*
X57279639Y-78538266D01*
X57278832Y-78538600D01*
X57278824Y-78538604D01*
X57278821Y-78538605D01*
X57278821Y-78538606D01*
X57231580Y-78570171D01*
X57224047Y-78575204D01*
X57221132Y-78577092D01*
X57155742Y-78618180D01*
X57155735Y-78618186D01*
X57028186Y-78745735D01*
X57028180Y-78745742D01*
X56987092Y-78811132D01*
X56985209Y-78814038D01*
X56962584Y-78847901D01*
X56948604Y-78868824D01*
X56948600Y-78868832D01*
X56948266Y-78869639D01*
X56938713Y-78888127D01*
X56932212Y-78898474D01*
X56932210Y-78898477D01*
X56910982Y-78959140D01*
X56908504Y-78965631D01*
X56888264Y-79014496D01*
X56888263Y-79014502D01*
X56885550Y-79028140D01*
X56880975Y-79044898D01*
X56872634Y-79068735D01*
X56872632Y-79068742D01*
X56866890Y-79119696D01*
X56865288Y-79129994D01*
X56857500Y-79169152D01*
X56857500Y-79196085D01*
X56856720Y-79209969D01*
X56852435Y-79247998D01*
X56852435Y-79248001D01*
X56856720Y-79286029D01*
X56857500Y-79299914D01*
X56857500Y-79326844D01*
X56865288Y-79366003D01*
X56866890Y-79376303D01*
X56872435Y-79425511D01*
X56872632Y-79427252D01*
X56872633Y-79427260D01*
X56880976Y-79451104D01*
X56885550Y-79467860D01*
X56888262Y-79481496D01*
X56908509Y-79530377D01*
X56910986Y-79536867D01*
X56926575Y-79581417D01*
X56932212Y-79597524D01*
X56938709Y-79607865D01*
X56948268Y-79626365D01*
X56948603Y-79627173D01*
X56948605Y-79627179D01*
X56985223Y-79681982D01*
X56987114Y-79684900D01*
X57028180Y-79750257D01*
X57028182Y-79750260D01*
X57075181Y-79797259D01*
X57108666Y-79858582D01*
X57111500Y-79884940D01*
X57111500Y-80560586D01*
X57091815Y-80627625D01*
X57039011Y-80673380D01*
X56987500Y-80684586D01*
X52513000Y-80684586D01*
X52445961Y-80664901D01*
X52400206Y-80612097D01*
X52389000Y-80560586D01*
X52389000Y-78437414D01*
X52389780Y-78423529D01*
X52394065Y-78385501D01*
X52394065Y-78385498D01*
X52389780Y-78347469D01*
X52389000Y-78333585D01*
X52389000Y-76048440D01*
X52408685Y-75981401D01*
X52425319Y-75960759D01*
X53707786Y-74678292D01*
X53707789Y-74678289D01*
X53795394Y-74547179D01*
X53855737Y-74401497D01*
X53886500Y-74246842D01*
X53886500Y-74089157D01*
X53886500Y-72264940D01*
X53906185Y-72197901D01*
X53922819Y-72177259D01*
X54839867Y-71260211D01*
X56180789Y-69919289D01*
X56188816Y-69911262D01*
X56229921Y-69845842D01*
X56231778Y-69842976D01*
X56268393Y-69788179D01*
X56268719Y-69787389D01*
X56278293Y-69768859D01*
X56284789Y-69758522D01*
X56306017Y-69697852D01*
X56308493Y-69691368D01*
X56328737Y-69642497D01*
X56331450Y-69628852D01*
X56336020Y-69612107D01*
X56344368Y-69588255D01*
X56350110Y-69537285D01*
X56351708Y-69527011D01*
X56359500Y-69487843D01*
X56359500Y-69460914D01*
X56360280Y-69447029D01*
X56364565Y-69409001D01*
X56364565Y-69408998D01*
X56360280Y-69370969D01*
X56359500Y-69357085D01*
X56359500Y-69330157D01*
X56351711Y-69291003D01*
X56350110Y-69280714D01*
X56344368Y-69229745D01*
X56336023Y-69205898D01*
X56331449Y-69189139D01*
X56328737Y-69175503D01*
X56328735Y-69175498D01*
X56328734Y-69175494D01*
X56308492Y-69126627D01*
X56306022Y-69120160D01*
X56284789Y-69059478D01*
X56278288Y-69049132D01*
X56268720Y-69030611D01*
X56268393Y-69029821D01*
X56231794Y-68975046D01*
X56229909Y-68972137D01*
X56188816Y-68906738D01*
X56061260Y-68779182D01*
X56061257Y-68779180D01*
X55995854Y-68738085D01*
X55992962Y-68736211D01*
X55954011Y-68710185D01*
X55938184Y-68699610D01*
X55938181Y-68699608D01*
X55938179Y-68699607D01*
X55938175Y-68699605D01*
X55938165Y-68699600D01*
X55937375Y-68699273D01*
X55918868Y-68689712D01*
X55908522Y-68683211D01*
X55878585Y-68672735D01*
X55847856Y-68661982D01*
X55841363Y-68659503D01*
X55792497Y-68639263D01*
X55792493Y-68639262D01*
X55778860Y-68636550D01*
X55762104Y-68631976D01*
X55738260Y-68623633D01*
X55738256Y-68623632D01*
X55738255Y-68623632D01*
X55717575Y-68621301D01*
X55687303Y-68617890D01*
X55677003Y-68616288D01*
X55637844Y-68608500D01*
X55637842Y-68608500D01*
X55610915Y-68608500D01*
X55597031Y-68607720D01*
X55559002Y-68603435D01*
X55558998Y-68603435D01*
X55520969Y-68607720D01*
X55507085Y-68608500D01*
X55480153Y-68608500D01*
X55440995Y-68616288D01*
X55430695Y-68617890D01*
X55379741Y-68623632D01*
X55355900Y-68631975D01*
X55339139Y-68636550D01*
X55325504Y-68639262D01*
X55276627Y-68659507D01*
X55270133Y-68661986D01*
X55209475Y-68683212D01*
X55199127Y-68689714D01*
X55180627Y-68699272D01*
X55179825Y-68699604D01*
X55179824Y-68699604D01*
X55125035Y-68736211D01*
X55122123Y-68738098D01*
X55056738Y-68779183D01*
X55056735Y-68779186D01*
X52575711Y-71260211D01*
X52519960Y-71315962D01*
X52464209Y-71371712D01*
X52376609Y-71502814D01*
X52376602Y-71502827D01*
X52316264Y-71648498D01*
X52316261Y-71648510D01*
X52285500Y-71803153D01*
X52285500Y-73785060D01*
X52265815Y-73852099D01*
X52249181Y-73872741D01*
X51078211Y-75043711D01*
X51022460Y-75099462D01*
X50966709Y-75155212D01*
X50879109Y-75286314D01*
X50879102Y-75286327D01*
X50818764Y-75431998D01*
X50818761Y-75432010D01*
X50788000Y-75586653D01*
X50788000Y-78333585D01*
X50787220Y-78347469D01*
X50782935Y-78385498D01*
X50782935Y-78385501D01*
X50787220Y-78423529D01*
X50788000Y-78437414D01*
X50788000Y-80293972D01*
X50768315Y-80361011D01*
X50751681Y-80381653D01*
X50470447Y-80662887D01*
X50409124Y-80696372D01*
X50382766Y-80699206D01*
X49758615Y-80699206D01*
X49691576Y-80679521D01*
X49645821Y-80626717D01*
X49635877Y-80557559D01*
X49664902Y-80494003D01*
X49684303Y-80475940D01*
X49711546Y-80455546D01*
X49797796Y-80340331D01*
X49848091Y-80205483D01*
X49854500Y-80145873D01*
X49854499Y-78350128D01*
X49848091Y-78290517D01*
X49846810Y-78287083D01*
X49797797Y-78155671D01*
X49797793Y-78155664D01*
X49711547Y-78040455D01*
X49711544Y-78040452D01*
X49596335Y-77954206D01*
X49596328Y-77954202D01*
X49461482Y-77903908D01*
X49461483Y-77903908D01*
X49401883Y-77897501D01*
X49401881Y-77897500D01*
X49401873Y-77897500D01*
X49401864Y-77897500D01*
X47606129Y-77897500D01*
X47606123Y-77897501D01*
X47546516Y-77903908D01*
X47411671Y-77954202D01*
X47411664Y-77954206D01*
X47296455Y-78040452D01*
X47296452Y-78040455D01*
X47210206Y-78155664D01*
X47210203Y-78155669D01*
X47161189Y-78287083D01*
X47119317Y-78343016D01*
X47053853Y-78367433D01*
X46985580Y-78352581D01*
X46957326Y-78331430D01*
X46835402Y-78209506D01*
X46835395Y-78209501D01*
X46641834Y-78073967D01*
X46641830Y-78073965D01*
X46571439Y-78041141D01*
X46427663Y-77974097D01*
X46427659Y-77974096D01*
X46427655Y-77974094D01*
X46199413Y-77912938D01*
X46199403Y-77912936D01*
X45964001Y-77892341D01*
X45963999Y-77892341D01*
X45728596Y-77912936D01*
X45728586Y-77912938D01*
X45500344Y-77974094D01*
X45500335Y-77974098D01*
X45286171Y-78073964D01*
X45286169Y-78073965D01*
X45092597Y-78209505D01*
X44925508Y-78376594D01*
X44795269Y-78562595D01*
X44740692Y-78606219D01*
X44671193Y-78613412D01*
X44608839Y-78581890D01*
X44592119Y-78562594D01*
X44462113Y-78376926D01*
X44462108Y-78376920D01*
X44295082Y-78209894D01*
X44101578Y-78074399D01*
X43887492Y-77974570D01*
X43887486Y-77974567D01*
X43674000Y-77917364D01*
X43674000Y-78814988D01*
X43616993Y-78782075D01*
X43489826Y-78748000D01*
X43358174Y-78748000D01*
X43231007Y-78782075D01*
X43174000Y-78814988D01*
X43174000Y-77917364D01*
X43173999Y-77917364D01*
X42960513Y-77974567D01*
X42960507Y-77974570D01*
X42746422Y-78074399D01*
X42746420Y-78074400D01*
X42552926Y-78209886D01*
X42552920Y-78209891D01*
X42385891Y-78376920D01*
X42385890Y-78376922D01*
X42255880Y-78562595D01*
X42201303Y-78606219D01*
X42131804Y-78613412D01*
X42069450Y-78581890D01*
X42052730Y-78562594D01*
X41922494Y-78376597D01*
X41755402Y-78209506D01*
X41755395Y-78209501D01*
X41561834Y-78073967D01*
X41561830Y-78073965D01*
X41491439Y-78041141D01*
X41347663Y-77974097D01*
X41347659Y-77974096D01*
X41347655Y-77974094D01*
X41119413Y-77912938D01*
X41119403Y-77912936D01*
X40884001Y-77892341D01*
X40883999Y-77892341D01*
X40648596Y-77912936D01*
X40648586Y-77912938D01*
X40420344Y-77974094D01*
X40420335Y-77974098D01*
X40206171Y-78073964D01*
X40206169Y-78073965D01*
X40012597Y-78209505D01*
X39845505Y-78376597D01*
X39709965Y-78570169D01*
X39709964Y-78570171D01*
X39610098Y-78784335D01*
X39610094Y-78784344D01*
X39548938Y-79012586D01*
X39548936Y-79012596D01*
X39528341Y-79247999D01*
X39528341Y-79248000D01*
X39548936Y-79483403D01*
X39548938Y-79483413D01*
X39610094Y-79711655D01*
X39610096Y-79711659D01*
X39610097Y-79711663D01*
X39689801Y-79882588D01*
X39709965Y-79925830D01*
X39709967Y-79925834D01*
X39763929Y-80002899D01*
X39845505Y-80119401D01*
X40012599Y-80286495D01*
X40096630Y-80345334D01*
X40206165Y-80422032D01*
X40206167Y-80422033D01*
X40206170Y-80422035D01*
X40293644Y-80462824D01*
X40346082Y-80508996D01*
X40365234Y-80576190D01*
X40345018Y-80643071D01*
X40291853Y-80688405D01*
X40241238Y-80699206D01*
X37752646Y-80699206D01*
X37685607Y-80679521D01*
X37664965Y-80662887D01*
X34176819Y-77174741D01*
X34143334Y-77113418D01*
X34140500Y-77087060D01*
X34140500Y-68942156D01*
X34160185Y-68875117D01*
X34212989Y-68829362D01*
X34282147Y-68819418D01*
X34316903Y-68829773D01*
X34334337Y-68837903D01*
X34562592Y-68899063D01*
X34750918Y-68915539D01*
X34797999Y-68919659D01*
X34798000Y-68919659D01*
X34798001Y-68919659D01*
X34837234Y-68916226D01*
X35033408Y-68899063D01*
X35261663Y-68837903D01*
X35475830Y-68738035D01*
X35669401Y-68602495D01*
X35836495Y-68435401D01*
X35972035Y-68241830D01*
X36071903Y-68027663D01*
X36133063Y-67799408D01*
X36153659Y-67564000D01*
X36133063Y-67328592D01*
X36071903Y-67100337D01*
X35972035Y-66886171D01*
X35938454Y-66838211D01*
X35836494Y-66692597D01*
X35669402Y-66525506D01*
X35669396Y-66525501D01*
X35483842Y-66395575D01*
X35440217Y-66340998D01*
X35433023Y-66271500D01*
X35464546Y-66209145D01*
X35483842Y-66192425D01*
X35571790Y-66130843D01*
X35669401Y-66062495D01*
X35836495Y-65895401D01*
X35972035Y-65701830D01*
X36071903Y-65487663D01*
X36133063Y-65259408D01*
X36153659Y-65024000D01*
X36133063Y-64788592D01*
X36071903Y-64560337D01*
X35972035Y-64346171D01*
X35836495Y-64152599D01*
X35836494Y-64152597D01*
X35669402Y-63985506D01*
X35669401Y-63985505D01*
X35483405Y-63855269D01*
X35439781Y-63800692D01*
X35432588Y-63731193D01*
X35464110Y-63668839D01*
X35483405Y-63652119D01*
X35669082Y-63522105D01*
X35836105Y-63355082D01*
X35971600Y-63161578D01*
X36071429Y-62947492D01*
X36071432Y-62947486D01*
X36128636Y-62734000D01*
X35231012Y-62734000D01*
X35263925Y-62676993D01*
X35298000Y-62549826D01*
X35298000Y-62418174D01*
X35263925Y-62291007D01*
X35231012Y-62234000D01*
X36128636Y-62234000D01*
X36128635Y-62233999D01*
X36071432Y-62020513D01*
X36071429Y-62020507D01*
X35971600Y-61806422D01*
X35971599Y-61806420D01*
X35836113Y-61612926D01*
X35836108Y-61612920D01*
X35669078Y-61445890D01*
X35483405Y-61315879D01*
X35439780Y-61261302D01*
X35432588Y-61191804D01*
X35464110Y-61129449D01*
X35483406Y-61112730D01*
X35669401Y-60982495D01*
X35836495Y-60815401D01*
X35849116Y-60797375D01*
X35903693Y-60753752D01*
X35950691Y-60744500D01*
X37429500Y-60744500D01*
X37496539Y-60764185D01*
X37542294Y-60816989D01*
X37553500Y-60868500D01*
X37553500Y-62940085D01*
X37552720Y-62953969D01*
X37548435Y-62991998D01*
X37548435Y-62992001D01*
X37552720Y-63030029D01*
X37553500Y-63043914D01*
X37553500Y-63070844D01*
X37561288Y-63110003D01*
X37562890Y-63120303D01*
X37568632Y-63171252D01*
X37568633Y-63171260D01*
X37576976Y-63195104D01*
X37581550Y-63211860D01*
X37584262Y-63225496D01*
X37604509Y-63274377D01*
X37606988Y-63280872D01*
X37628212Y-63341524D01*
X37634709Y-63351865D01*
X37644268Y-63370365D01*
X37644603Y-63371173D01*
X37644605Y-63371179D01*
X37681223Y-63425982D01*
X37683114Y-63428900D01*
X37724180Y-63494257D01*
X37724182Y-63494260D01*
X37724184Y-63494262D01*
X37851738Y-63621816D01*
X37899965Y-63652119D01*
X37917131Y-63662905D01*
X37920040Y-63664790D01*
X37974821Y-63701394D01*
X37975606Y-63701719D01*
X37994134Y-63711289D01*
X38004478Y-63717789D01*
X38065175Y-63739028D01*
X38071607Y-63741484D01*
X38092401Y-63750097D01*
X38120497Y-63761735D01*
X38120498Y-63761735D01*
X38120503Y-63761737D01*
X38134139Y-63764449D01*
X38150898Y-63769023D01*
X38174745Y-63777368D01*
X38225714Y-63783110D01*
X38235992Y-63784709D01*
X38263140Y-63790109D01*
X38275157Y-63792500D01*
X38275158Y-63792500D01*
X38302085Y-63792500D01*
X38315969Y-63793280D01*
X38353998Y-63797565D01*
X38354000Y-63797565D01*
X38354002Y-63797565D01*
X38392031Y-63793280D01*
X38405915Y-63792500D01*
X38432841Y-63792500D01*
X38432842Y-63792500D01*
X38472017Y-63784707D01*
X38482283Y-63783110D01*
X38533255Y-63777368D01*
X38557100Y-63769023D01*
X38573862Y-63764448D01*
X38587497Y-63761737D01*
X38636389Y-63741484D01*
X38642837Y-63739023D01*
X38703522Y-63717789D01*
X38713868Y-63711287D01*
X38732390Y-63701720D01*
X38733179Y-63701394D01*
X38787987Y-63664771D01*
X38790825Y-63662931D01*
X38856262Y-63621816D01*
X38983816Y-63494262D01*
X39024931Y-63428825D01*
X39026777Y-63425979D01*
X39063389Y-63371186D01*
X39063394Y-63371179D01*
X39063720Y-63370390D01*
X39073287Y-63351868D01*
X39079789Y-63341522D01*
X39101023Y-63280837D01*
X39103490Y-63274377D01*
X39123737Y-63225497D01*
X39126449Y-63211860D01*
X39131023Y-63195100D01*
X39139368Y-63171255D01*
X39145110Y-63120283D01*
X39146707Y-63110017D01*
X39154500Y-63070842D01*
X39154500Y-63043914D01*
X39155280Y-63030029D01*
X39159565Y-62992001D01*
X39159565Y-62991998D01*
X39155280Y-62953969D01*
X39154500Y-62940085D01*
X39154500Y-62865000D01*
X50635065Y-62865000D01*
X50654786Y-63191038D01*
X50713667Y-63512341D01*
X50810835Y-63824164D01*
X50810839Y-63824175D01*
X50944897Y-64122041D01*
X50944898Y-64122043D01*
X51113881Y-64401576D01*
X51261476Y-64589968D01*
X52403708Y-63447736D01*
X52500967Y-63581602D01*
X52623398Y-63704033D01*
X52757262Y-63801290D01*
X51615030Y-64943522D01*
X51615030Y-64943523D01*
X51803423Y-65091118D01*
X52082956Y-65260101D01*
X52082958Y-65260102D01*
X52380824Y-65394160D01*
X52380835Y-65394164D01*
X52692658Y-65491332D01*
X53013961Y-65550213D01*
X53340000Y-65569934D01*
X53666038Y-65550213D01*
X53987341Y-65491332D01*
X54299164Y-65394164D01*
X54299175Y-65394160D01*
X54597041Y-65260102D01*
X54597043Y-65260101D01*
X54876586Y-65091112D01*
X55064968Y-64943523D01*
X55064968Y-64943522D01*
X53922737Y-63801290D01*
X54056602Y-63704033D01*
X54179033Y-63581602D01*
X54276290Y-63447737D01*
X55418522Y-64589968D01*
X55418523Y-64589968D01*
X55566112Y-64401586D01*
X55735101Y-64122043D01*
X55735102Y-64122041D01*
X55869160Y-63824175D01*
X55869164Y-63824164D01*
X55966332Y-63512341D01*
X56025213Y-63191038D01*
X56044934Y-62865000D01*
X56025213Y-62538961D01*
X55966332Y-62217658D01*
X55869164Y-61905835D01*
X55869160Y-61905824D01*
X55735102Y-61607958D01*
X55735101Y-61607956D01*
X55566118Y-61328423D01*
X55418522Y-61140030D01*
X54276290Y-62282262D01*
X54179033Y-62148398D01*
X54056602Y-62025967D01*
X53922736Y-61928709D01*
X55064968Y-60786476D01*
X54876576Y-60638881D01*
X54597043Y-60469898D01*
X54597041Y-60469897D01*
X54299175Y-60335839D01*
X54299164Y-60335835D01*
X53987341Y-60238667D01*
X53666038Y-60179786D01*
X53340000Y-60160065D01*
X53013961Y-60179786D01*
X52692658Y-60238667D01*
X52380835Y-60335835D01*
X52380824Y-60335839D01*
X52082958Y-60469897D01*
X52082956Y-60469898D01*
X51803422Y-60638881D01*
X51803416Y-60638886D01*
X51615030Y-60786474D01*
X51615029Y-60786476D01*
X52757262Y-61928709D01*
X52623398Y-62025967D01*
X52500967Y-62148398D01*
X52403709Y-62282262D01*
X51261476Y-61140029D01*
X51261474Y-61140030D01*
X51113886Y-61328416D01*
X51113881Y-61328422D01*
X50944898Y-61607956D01*
X50944897Y-61607958D01*
X50810839Y-61905824D01*
X50810835Y-61905835D01*
X50713667Y-62217658D01*
X50654786Y-62538961D01*
X50635065Y-62865000D01*
X39154500Y-62865000D01*
X39154500Y-60868500D01*
X39174185Y-60801461D01*
X39226989Y-60755706D01*
X39278500Y-60744500D01*
X42366085Y-60744500D01*
X42379969Y-60745280D01*
X42417998Y-60749565D01*
X42418000Y-60749565D01*
X42418002Y-60749565D01*
X42456031Y-60745280D01*
X42469915Y-60744500D01*
X43382085Y-60744500D01*
X43395969Y-60745280D01*
X43433998Y-60749565D01*
X43434000Y-60749565D01*
X43434002Y-60749565D01*
X43472031Y-60745280D01*
X43485915Y-60744500D01*
X43766844Y-60744500D01*
X43766845Y-60744499D01*
X43921497Y-60713737D01*
X44067179Y-60653394D01*
X44198289Y-60565789D01*
X48373789Y-56390289D01*
X48461394Y-56259179D01*
X48521737Y-56113497D01*
X48552500Y-55958842D01*
X48552500Y-55801158D01*
X48552500Y-50454500D01*
X48572185Y-50387461D01*
X48624989Y-50341706D01*
X48676500Y-50330500D01*
X52656844Y-50330500D01*
X52656845Y-50330499D01*
X52811497Y-50299737D01*
X52957179Y-50239394D01*
X53088289Y-50151789D01*
X53326789Y-49913289D01*
X54215789Y-49024289D01*
X54223816Y-49016262D01*
X54264931Y-48950825D01*
X54266777Y-48947979D01*
X54289287Y-48914291D01*
X54303394Y-48893179D01*
X54303720Y-48892390D01*
X54313287Y-48873868D01*
X54319789Y-48863522D01*
X54341023Y-48802837D01*
X54343484Y-48796389D01*
X54363737Y-48747497D01*
X54366070Y-48741866D01*
X54368628Y-48742925D01*
X54400335Y-48694446D01*
X54464120Y-48665930D01*
X54533197Y-48676426D01*
X54568467Y-48701124D01*
X55905181Y-50037838D01*
X55938666Y-50099161D01*
X55941500Y-50125519D01*
X55941500Y-58859006D01*
X55941500Y-58996994D01*
X55941500Y-58996996D01*
X55941499Y-58996996D01*
X55968418Y-59132322D01*
X55968421Y-59132332D01*
X56021222Y-59259807D01*
X56097887Y-59374545D01*
X56097888Y-59374546D01*
X56605886Y-59882542D01*
X56654836Y-59931492D01*
X56703459Y-59980115D01*
X56818182Y-60056771D01*
X56818189Y-60056775D01*
X56889951Y-60086499D01*
X56889953Y-60086501D01*
X56945666Y-60109578D01*
X56945671Y-60109580D01*
X56945680Y-60109581D01*
X56945681Y-60109582D01*
X56972545Y-60114925D01*
X56972551Y-60114926D01*
X56972591Y-60114934D01*
X57062937Y-60132905D01*
X57081006Y-60136500D01*
X57081007Y-60136500D01*
X70288106Y-60136500D01*
X70354077Y-60155506D01*
X70364074Y-60161787D01*
X70364075Y-60161787D01*
X70364078Y-60161789D01*
X70534345Y-60221368D01*
X70534350Y-60221369D01*
X70713596Y-60241565D01*
X70713600Y-60241565D01*
X70713602Y-60241565D01*
X70761342Y-60236185D01*
X70789616Y-60233000D01*
X70858438Y-60245054D01*
X70909817Y-60292403D01*
X70927500Y-60356220D01*
X70927500Y-66079480D01*
X70907815Y-66146519D01*
X70891181Y-66167161D01*
X70285709Y-66772632D01*
X70238984Y-66801992D01*
X70135476Y-66838211D01*
X70135475Y-66838212D01*
X69982737Y-66934184D01*
X69855184Y-67061737D01*
X69759211Y-67214476D01*
X69699631Y-67384745D01*
X69699630Y-67384750D01*
X69679435Y-67563996D01*
X69679435Y-67564003D01*
X69699630Y-67743249D01*
X69699631Y-67743254D01*
X69759211Y-67913523D01*
X69830931Y-68027664D01*
X69855184Y-68066262D01*
X69982738Y-68193816D01*
X70135478Y-68289789D01*
X70305745Y-68349368D01*
X70305750Y-68349369D01*
X70484996Y-68369565D01*
X70485000Y-68369565D01*
X70485004Y-68369565D01*
X70664249Y-68349369D01*
X70664252Y-68349368D01*
X70664255Y-68349368D01*
X70834522Y-68289789D01*
X70987262Y-68193816D01*
X71114816Y-68066262D01*
X71210789Y-67913522D01*
X71247007Y-67810013D01*
X71276365Y-67763290D01*
X72172114Y-66867543D01*
X72248775Y-66752811D01*
X72301580Y-66625328D01*
X72321436Y-66525506D01*
X72328500Y-66489996D01*
X72328500Y-57335007D01*
X72322622Y-57305461D01*
X72322622Y-57305457D01*
X72301581Y-57199679D01*
X72301580Y-57199672D01*
X72288708Y-57168596D01*
X72248777Y-57072192D01*
X72172112Y-56957454D01*
X70931545Y-55716887D01*
X70816807Y-55640222D01*
X70689332Y-55587421D01*
X70689322Y-55587418D01*
X70553996Y-55560500D01*
X70553994Y-55560500D01*
X70553993Y-55560500D01*
X61780007Y-55560500D01*
X61780003Y-55560500D01*
X61671590Y-55582065D01*
X61671589Y-55582065D01*
X61658139Y-55584741D01*
X61644673Y-55587419D01*
X61618268Y-55598356D01*
X61591866Y-55609292D01*
X61591864Y-55609293D01*
X61591863Y-55609292D01*
X61517191Y-55640223D01*
X61517188Y-55640225D01*
X61508003Y-55646363D01*
X61503311Y-55649498D01*
X61503308Y-55649500D01*
X61402461Y-55716883D01*
X61402453Y-55716889D01*
X60818710Y-56300631D01*
X60771985Y-56329991D01*
X60668476Y-56366211D01*
X60668475Y-56366212D01*
X60515737Y-56462184D01*
X60388184Y-56589737D01*
X60292211Y-56742476D01*
X60232631Y-56912745D01*
X60232630Y-56912750D01*
X60212435Y-57091996D01*
X60212435Y-57092003D01*
X60232630Y-57271249D01*
X60232631Y-57271254D01*
X60292211Y-57441523D01*
X60381804Y-57584108D01*
X60388184Y-57594262D01*
X60515738Y-57721816D01*
X60668478Y-57817789D01*
X60758720Y-57849366D01*
X60838745Y-57877368D01*
X60838750Y-57877369D01*
X61017996Y-57897565D01*
X61018000Y-57897565D01*
X61018004Y-57897565D01*
X61197249Y-57877369D01*
X61197252Y-57877368D01*
X61197255Y-57877368D01*
X61367522Y-57817789D01*
X61520262Y-57721816D01*
X61647816Y-57594262D01*
X61743789Y-57441522D01*
X61780008Y-57338011D01*
X61809366Y-57291289D01*
X62102837Y-56997819D01*
X62164160Y-56964334D01*
X62190518Y-56961500D01*
X70143481Y-56961500D01*
X70210520Y-56981185D01*
X70231162Y-56997819D01*
X70891181Y-57657838D01*
X70924666Y-57719161D01*
X70927500Y-57745519D01*
X70927500Y-58515779D01*
X70907815Y-58582818D01*
X70855011Y-58628573D01*
X70789617Y-58638999D01*
X70713604Y-58630435D01*
X70713596Y-58630435D01*
X70534350Y-58650630D01*
X70534345Y-58650631D01*
X70364074Y-58710212D01*
X70354077Y-58716494D01*
X70288106Y-58735500D01*
X57491519Y-58735500D01*
X57424480Y-58715815D01*
X57403836Y-58699179D01*
X57378817Y-58674159D01*
X57345333Y-58612836D01*
X57342500Y-58586480D01*
X57342500Y-49715011D01*
X57342500Y-49715007D01*
X57342498Y-49714996D01*
X57341557Y-49710267D01*
X57341556Y-49710263D01*
X57315580Y-49579672D01*
X57272654Y-49476038D01*
X57262777Y-49452192D01*
X57186112Y-49337454D01*
X55018545Y-47169887D01*
X54903807Y-47093222D01*
X54776332Y-47040421D01*
X54776322Y-47040418D01*
X54640996Y-47013500D01*
X54640994Y-47013500D01*
X54640993Y-47013500D01*
X51916077Y-47013500D01*
X51868625Y-47004061D01*
X51861725Y-47001203D01*
X51843208Y-46991637D01*
X51837503Y-46988052D01*
X51834739Y-46987085D01*
X51792256Y-46972219D01*
X51785805Y-46969757D01*
X51723871Y-46944103D01*
X51704671Y-46940283D01*
X51687918Y-46935709D01*
X51667237Y-46928473D01*
X51667226Y-46928470D01*
X51621806Y-46923353D01*
X51611498Y-46921750D01*
X51569219Y-46913340D01*
X51569216Y-46913340D01*
X51539893Y-46913340D01*
X51526009Y-46912560D01*
X51487980Y-46908275D01*
X51487976Y-46908275D01*
X51449947Y-46912560D01*
X51436063Y-46913340D01*
X51409130Y-46913340D01*
X51369972Y-46921128D01*
X51359674Y-46922730D01*
X51308720Y-46928472D01*
X51308713Y-46928474D01*
X51284876Y-46936815D01*
X51268118Y-46941390D01*
X51254480Y-46944103D01*
X51254474Y-46944104D01*
X51205609Y-46964344D01*
X51199118Y-46966822D01*
X51138455Y-46988050D01*
X51138452Y-46988052D01*
X51128105Y-46994553D01*
X51109617Y-47004106D01*
X51108810Y-47004440D01*
X51108802Y-47004444D01*
X51054025Y-47041044D01*
X51051110Y-47042932D01*
X50985720Y-47084020D01*
X50985713Y-47084026D01*
X50858164Y-47211575D01*
X50858158Y-47211582D01*
X50817070Y-47276972D01*
X50815187Y-47279878D01*
X50814965Y-47280212D01*
X50778582Y-47334664D01*
X50778578Y-47334672D01*
X50778244Y-47335479D01*
X50768691Y-47353967D01*
X50762190Y-47364314D01*
X50762188Y-47364317D01*
X50740960Y-47424980D01*
X50738482Y-47431471D01*
X50718242Y-47480336D01*
X50718241Y-47480342D01*
X50715528Y-47493980D01*
X50710953Y-47510738D01*
X50702612Y-47534575D01*
X50702610Y-47534582D01*
X50696868Y-47585536D01*
X50695266Y-47595834D01*
X50687478Y-47634992D01*
X50687478Y-47661925D01*
X50686698Y-47675809D01*
X50682413Y-47713838D01*
X50682413Y-47713841D01*
X50686698Y-47751869D01*
X50687478Y-47765754D01*
X50687478Y-47792684D01*
X50695266Y-47831843D01*
X50696868Y-47842143D01*
X50702594Y-47892956D01*
X50702610Y-47893092D01*
X50702611Y-47893100D01*
X50710954Y-47916944D01*
X50715528Y-47933700D01*
X50718240Y-47947336D01*
X50738487Y-47996217D01*
X50740964Y-48002707D01*
X50757513Y-48050000D01*
X50762190Y-48063364D01*
X50768687Y-48073705D01*
X50778246Y-48092205D01*
X50778581Y-48093013D01*
X50778583Y-48093019D01*
X50815201Y-48147822D01*
X50817092Y-48150740D01*
X50858158Y-48216097D01*
X50858160Y-48216100D01*
X50858162Y-48216102D01*
X50985716Y-48343656D01*
X50988191Y-48345211D01*
X51051109Y-48384745D01*
X51054018Y-48386630D01*
X51108799Y-48423234D01*
X51109584Y-48423559D01*
X51128112Y-48433129D01*
X51138456Y-48439629D01*
X51199153Y-48460868D01*
X51205585Y-48463324D01*
X51233999Y-48475093D01*
X51254475Y-48483575D01*
X51254479Y-48483576D01*
X51254481Y-48483577D01*
X51254482Y-48483577D01*
X51254485Y-48483578D01*
X51256013Y-48483882D01*
X51256739Y-48484262D01*
X51260313Y-48485346D01*
X51260107Y-48486023D01*
X51317925Y-48516265D01*
X51352501Y-48576980D01*
X51348763Y-48646749D01*
X51307898Y-48703423D01*
X51242881Y-48729006D01*
X51231825Y-48729500D01*
X48676500Y-48729500D01*
X48609461Y-48709815D01*
X48563706Y-48657011D01*
X48552500Y-48605500D01*
X48552500Y-45340940D01*
X48572185Y-45273901D01*
X48588819Y-45253259D01*
X50079259Y-43762819D01*
X50140582Y-43729334D01*
X50166940Y-43726500D01*
X60627158Y-43726500D01*
X60654085Y-43726500D01*
X60667969Y-43727280D01*
X60705998Y-43731565D01*
X60706000Y-43731565D01*
X60706002Y-43731565D01*
X60744031Y-43727280D01*
X60757915Y-43726500D01*
X69361832Y-43726500D01*
X69375713Y-43727279D01*
X69393945Y-43729334D01*
X69537997Y-43745565D01*
X69538000Y-43745565D01*
X69538003Y-43745565D01*
X69682055Y-43729334D01*
X69700286Y-43727279D01*
X69714168Y-43726500D01*
X70323832Y-43726500D01*
X70337713Y-43727279D01*
X70355945Y-43729334D01*
X70499997Y-43745565D01*
X70500000Y-43745565D01*
X70500004Y-43745565D01*
X70679249Y-43725369D01*
X70679252Y-43725368D01*
X70679255Y-43725368D01*
X70849522Y-43665789D01*
X71002262Y-43569816D01*
X71129816Y-43442262D01*
X71225789Y-43289522D01*
X71285368Y-43119255D01*
X71285866Y-43114838D01*
X71305565Y-42940003D01*
X71305565Y-42939996D01*
X71285369Y-42760750D01*
X71285368Y-42760745D01*
X71261595Y-42692807D01*
X71225789Y-42590478D01*
X71129816Y-42437738D01*
X71002262Y-42310184D01*
X70885751Y-42236975D01*
X70882832Y-42235083D01*
X70855180Y-42216606D01*
X70855176Y-42216604D01*
X70853536Y-42215925D01*
X70849602Y-42214163D01*
X70845496Y-42212595D01*
X70709501Y-42156264D01*
X70709489Y-42156261D01*
X70554845Y-42125500D01*
X70554842Y-42125500D01*
X60784842Y-42125500D01*
X60757915Y-42125500D01*
X60744031Y-42124720D01*
X60706002Y-42120435D01*
X60705998Y-42120435D01*
X60667969Y-42124720D01*
X60654085Y-42125500D01*
X49705155Y-42125500D01*
X49550510Y-42156261D01*
X49550498Y-42156264D01*
X49404827Y-42216602D01*
X49404814Y-42216609D01*
X49273711Y-42304210D01*
X49273707Y-42304213D01*
X47726787Y-43851135D01*
X47241711Y-44336211D01*
X47198922Y-44379000D01*
X47130209Y-44447712D01*
X47042609Y-44578814D01*
X47042602Y-44578827D01*
X46982264Y-44724498D01*
X46982261Y-44724510D01*
X46951500Y-44879153D01*
X46951500Y-55497060D01*
X46931815Y-55564099D01*
X46915181Y-55584741D01*
X43392741Y-59107181D01*
X43331418Y-59140666D01*
X43305060Y-59143500D01*
X42469915Y-59143500D01*
X42456031Y-59142720D01*
X42418002Y-59138435D01*
X42417998Y-59138435D01*
X42379969Y-59142720D01*
X42366085Y-59143500D01*
X35950691Y-59143500D01*
X35883652Y-59123815D01*
X35849116Y-59090624D01*
X35836491Y-59072594D01*
X35669402Y-58905506D01*
X35669396Y-58905501D01*
X35483842Y-58775575D01*
X35440217Y-58720998D01*
X35433023Y-58651500D01*
X35464546Y-58589145D01*
X35483842Y-58572425D01*
X35520151Y-58547001D01*
X35669401Y-58442495D01*
X35836495Y-58275401D01*
X35972035Y-58081830D01*
X36071903Y-57867663D01*
X36133063Y-57639408D01*
X36153659Y-57404000D01*
X36133063Y-57168592D01*
X36076490Y-56957457D01*
X36071905Y-56940344D01*
X36071904Y-56940343D01*
X36071903Y-56940337D01*
X35972035Y-56726171D01*
X35958482Y-56706814D01*
X35836494Y-56532597D01*
X35669402Y-56365506D01*
X35669396Y-56365501D01*
X35483842Y-56235575D01*
X35440217Y-56180998D01*
X35433023Y-56111500D01*
X35464546Y-56049145D01*
X35483842Y-56032425D01*
X35567841Y-55973608D01*
X35669401Y-55902495D01*
X35836495Y-55735401D01*
X35972035Y-55541830D01*
X36071903Y-55327663D01*
X36133063Y-55099408D01*
X36153659Y-54864000D01*
X36133063Y-54628592D01*
X36071903Y-54400337D01*
X35972035Y-54186171D01*
X35836495Y-53992599D01*
X35714567Y-53870671D01*
X35681084Y-53809351D01*
X35686068Y-53739659D01*
X35727939Y-53683725D01*
X35758915Y-53666810D01*
X35890331Y-53617796D01*
X36005546Y-53531546D01*
X36091796Y-53416331D01*
X36142091Y-53281483D01*
X36148500Y-53221873D01*
X36148499Y-51426128D01*
X36142091Y-51366517D01*
X36091796Y-51231669D01*
X36091795Y-51231668D01*
X36091793Y-51231664D01*
X36005547Y-51116455D01*
X36005544Y-51116452D01*
X35890335Y-51030206D01*
X35890328Y-51030202D01*
X35755482Y-50979908D01*
X35755483Y-50979908D01*
X35695883Y-50973501D01*
X35695881Y-50973500D01*
X35695873Y-50973500D01*
X35695865Y-50973500D01*
X34277940Y-50973500D01*
X34210901Y-50953815D01*
X34165146Y-50901011D01*
X34155202Y-50831853D01*
X34184227Y-50768297D01*
X34190259Y-50761819D01*
X34585259Y-50366819D01*
X34646582Y-50333334D01*
X34672940Y-50330500D01*
X44418844Y-50330500D01*
X44418845Y-50330499D01*
X44573497Y-50299737D01*
X44719179Y-50239394D01*
X44850289Y-50151789D01*
X45524789Y-49477289D01*
X45532816Y-49469262D01*
X46087789Y-48914289D01*
X46121710Y-48863522D01*
X46175394Y-48783179D01*
X46235737Y-48637497D01*
X46241322Y-48609418D01*
X46242698Y-48602502D01*
X46242698Y-48602500D01*
X46263245Y-48499208D01*
X46266500Y-48482844D01*
X46266500Y-48057914D01*
X46267280Y-48044029D01*
X46271565Y-48006001D01*
X46271565Y-48005998D01*
X46267280Y-47967969D01*
X46266500Y-47954085D01*
X46266500Y-47927157D01*
X46259724Y-47893095D01*
X46258709Y-47887992D01*
X46257110Y-47877714D01*
X46251368Y-47826745D01*
X46243023Y-47802898D01*
X46238449Y-47786139D01*
X46235737Y-47772503D01*
X46235734Y-47772496D01*
X46227190Y-47751869D01*
X46215484Y-47723607D01*
X46213028Y-47717175D01*
X46191789Y-47656478D01*
X46185289Y-47646134D01*
X46175719Y-47627606D01*
X46175394Y-47626821D01*
X46138790Y-47572040D01*
X46136905Y-47569131D01*
X46115198Y-47534585D01*
X46095816Y-47503738D01*
X45968262Y-47376184D01*
X45968260Y-47376182D01*
X45968257Y-47376180D01*
X45902900Y-47335114D01*
X45899982Y-47333223D01*
X45845179Y-47296605D01*
X45845173Y-47296603D01*
X45844365Y-47296268D01*
X45825865Y-47286709D01*
X45815524Y-47280212D01*
X45815523Y-47280211D01*
X45815522Y-47280211D01*
X45754867Y-47258986D01*
X45748377Y-47256509D01*
X45699496Y-47236262D01*
X45685860Y-47233550D01*
X45669104Y-47228976D01*
X45645260Y-47220633D01*
X45645256Y-47220632D01*
X45645255Y-47220632D01*
X45624575Y-47218301D01*
X45594303Y-47214890D01*
X45584003Y-47213288D01*
X45544844Y-47205500D01*
X45544842Y-47205500D01*
X45517915Y-47205500D01*
X45504031Y-47204720D01*
X45466002Y-47200435D01*
X45465998Y-47200435D01*
X45427969Y-47204720D01*
X45414085Y-47205500D01*
X45387152Y-47205500D01*
X45347994Y-47213288D01*
X45337696Y-47214890D01*
X45286742Y-47220632D01*
X45286735Y-47220634D01*
X45262898Y-47228975D01*
X45246140Y-47233550D01*
X45232502Y-47236263D01*
X45232496Y-47236264D01*
X45183631Y-47256504D01*
X45177140Y-47258982D01*
X45116477Y-47280210D01*
X45116474Y-47280212D01*
X45106127Y-47286713D01*
X45087639Y-47296266D01*
X45086832Y-47296600D01*
X45086824Y-47296604D01*
X45032047Y-47333204D01*
X45029132Y-47335092D01*
X44963742Y-47376180D01*
X44963735Y-47376186D01*
X44836186Y-47503735D01*
X44836180Y-47503742D01*
X44795092Y-47569132D01*
X44793204Y-47572047D01*
X44756604Y-47626824D01*
X44756600Y-47626832D01*
X44756266Y-47627639D01*
X44746713Y-47646127D01*
X44740212Y-47656474D01*
X44740210Y-47656477D01*
X44718982Y-47717140D01*
X44716504Y-47723631D01*
X44696264Y-47772496D01*
X44696263Y-47772502D01*
X44693550Y-47786140D01*
X44688975Y-47802898D01*
X44680634Y-47826735D01*
X44680632Y-47826742D01*
X44674890Y-47877696D01*
X44673288Y-47887994D01*
X44665500Y-47927152D01*
X44665500Y-47954085D01*
X44664720Y-47967969D01*
X44660435Y-48005998D01*
X44660435Y-48006005D01*
X44660988Y-48010916D01*
X44648929Y-48079737D01*
X44625448Y-48112473D01*
X44400738Y-48337184D01*
X44044741Y-48693181D01*
X43983418Y-48726666D01*
X43957060Y-48729500D01*
X34211155Y-48729500D01*
X34056510Y-48760261D01*
X34056498Y-48760264D01*
X33910827Y-48820602D01*
X33910814Y-48820609D01*
X33779711Y-48908210D01*
X33779707Y-48908213D01*
X33212181Y-49475740D01*
X33150858Y-49509225D01*
X33081166Y-49504241D01*
X33025233Y-49462369D01*
X33000816Y-49396905D01*
X33000500Y-49388059D01*
X33000500Y-45511077D01*
X33020185Y-45444038D01*
X33072989Y-45398283D01*
X33142147Y-45388339D01*
X33205703Y-45417364D01*
X33212181Y-45423396D01*
X33244533Y-45455748D01*
X33244537Y-45455751D01*
X33408315Y-45565185D01*
X33408328Y-45565192D01*
X33590308Y-45640569D01*
X33632000Y-45648862D01*
X33632000Y-44845988D01*
X33641940Y-44863205D01*
X33697795Y-44919060D01*
X33766204Y-44958556D01*
X33842504Y-44979000D01*
X33921496Y-44979000D01*
X33997796Y-44958556D01*
X34066205Y-44919060D01*
X34122060Y-44863205D01*
X34132000Y-44845988D01*
X34132000Y-45648862D01*
X34173690Y-45640569D01*
X34173692Y-45640569D01*
X34288540Y-45592998D01*
X34996435Y-45592998D01*
X34996435Y-45593001D01*
X35000720Y-45631029D01*
X35001500Y-45644914D01*
X35001500Y-45671844D01*
X35009288Y-45711003D01*
X35010890Y-45721303D01*
X35016632Y-45772252D01*
X35016633Y-45772260D01*
X35024976Y-45796104D01*
X35029550Y-45812860D01*
X35032262Y-45826496D01*
X35052509Y-45875377D01*
X35054988Y-45881872D01*
X35076212Y-45942524D01*
X35082709Y-45952865D01*
X35092268Y-45971365D01*
X35092603Y-45972173D01*
X35092605Y-45972179D01*
X35129223Y-46026982D01*
X35131110Y-46029894D01*
X35135620Y-46037072D01*
X35172180Y-46095257D01*
X35172182Y-46095260D01*
X35172184Y-46095262D01*
X35180211Y-46103289D01*
X35434211Y-46357289D01*
X35545711Y-46468789D01*
X35545712Y-46468790D01*
X35676814Y-46556390D01*
X35676827Y-46556397D01*
X35822498Y-46616735D01*
X35822503Y-46616737D01*
X35822507Y-46616737D01*
X35822508Y-46616738D01*
X35977154Y-46647500D01*
X35977157Y-46647500D01*
X40718844Y-46647500D01*
X40718845Y-46647499D01*
X40873497Y-46616737D01*
X41019179Y-46556394D01*
X41150289Y-46468789D01*
X41285289Y-46333789D01*
X41293316Y-46325762D01*
X41334431Y-46260325D01*
X41336277Y-46257479D01*
X41372889Y-46202686D01*
X41372894Y-46202679D01*
X41373220Y-46201890D01*
X41382787Y-46183368D01*
X41389289Y-46173022D01*
X41410523Y-46112337D01*
X41412984Y-46105889D01*
X41433237Y-46056997D01*
X41435948Y-46043362D01*
X41440523Y-46026600D01*
X41448868Y-46002755D01*
X41454610Y-45951783D01*
X41456207Y-45941517D01*
X41464000Y-45902342D01*
X41464000Y-45875414D01*
X41464780Y-45861529D01*
X41469065Y-45823501D01*
X41469065Y-45823498D01*
X41464780Y-45785469D01*
X41464000Y-45771585D01*
X41464000Y-45744657D01*
X41459354Y-45721303D01*
X41456209Y-45705492D01*
X41454610Y-45695214D01*
X41448868Y-45644245D01*
X41440523Y-45620398D01*
X41435949Y-45603639D01*
X41433237Y-45590003D01*
X41412984Y-45541107D01*
X41410528Y-45534675D01*
X41389289Y-45473978D01*
X41382789Y-45463634D01*
X41373219Y-45445106D01*
X41372894Y-45444321D01*
X41336290Y-45389540D01*
X41334405Y-45386631D01*
X41293316Y-45321238D01*
X41165762Y-45193684D01*
X41165760Y-45193682D01*
X41165757Y-45193680D01*
X41105999Y-45156132D01*
X41100394Y-45152610D01*
X41097482Y-45150723D01*
X41042679Y-45114105D01*
X41042673Y-45114103D01*
X41041865Y-45113768D01*
X41023365Y-45104209D01*
X41013024Y-45097712D01*
X41013023Y-45097711D01*
X41013022Y-45097711D01*
X40952367Y-45076486D01*
X40945877Y-45074009D01*
X40896996Y-45053762D01*
X40883360Y-45051050D01*
X40866604Y-45046476D01*
X40842760Y-45038133D01*
X40842756Y-45038132D01*
X40842755Y-45038132D01*
X40822075Y-45035801D01*
X40791803Y-45032390D01*
X40781503Y-45030788D01*
X40742344Y-45023000D01*
X40742342Y-45023000D01*
X40715415Y-45023000D01*
X40701531Y-45022220D01*
X40663502Y-45017935D01*
X40663498Y-45017935D01*
X40625469Y-45022220D01*
X40611585Y-45023000D01*
X40584652Y-45023000D01*
X40545494Y-45030788D01*
X40535195Y-45032390D01*
X40484245Y-45038132D01*
X40480216Y-45039541D01*
X40439263Y-45046500D01*
X36438940Y-45046500D01*
X36371901Y-45026815D01*
X36351259Y-45010181D01*
X36304260Y-44963182D01*
X36304257Y-44963180D01*
X36238900Y-44922114D01*
X36235982Y-44920223D01*
X36181179Y-44883605D01*
X36181173Y-44883603D01*
X36180365Y-44883268D01*
X36161865Y-44873709D01*
X36151524Y-44867212D01*
X36151523Y-44867211D01*
X36151522Y-44867211D01*
X36090867Y-44845986D01*
X36084377Y-44843509D01*
X36035496Y-44823262D01*
X36021860Y-44820550D01*
X36005104Y-44815976D01*
X35981260Y-44807633D01*
X35981256Y-44807632D01*
X35981255Y-44807632D01*
X35960575Y-44805301D01*
X35930303Y-44801890D01*
X35920003Y-44800288D01*
X35880844Y-44792500D01*
X35880842Y-44792500D01*
X35853915Y-44792500D01*
X35840031Y-44791720D01*
X35802002Y-44787435D01*
X35801998Y-44787435D01*
X35763969Y-44791720D01*
X35750085Y-44792500D01*
X35723152Y-44792500D01*
X35683994Y-44800288D01*
X35673696Y-44801890D01*
X35622742Y-44807632D01*
X35622735Y-44807634D01*
X35598898Y-44815975D01*
X35582140Y-44820550D01*
X35568502Y-44823263D01*
X35568496Y-44823264D01*
X35519631Y-44843504D01*
X35513140Y-44845982D01*
X35452477Y-44867210D01*
X35452474Y-44867212D01*
X35442127Y-44873713D01*
X35423639Y-44883266D01*
X35422832Y-44883600D01*
X35422824Y-44883604D01*
X35368047Y-44920204D01*
X35365132Y-44922092D01*
X35299742Y-44963180D01*
X35299735Y-44963186D01*
X35172186Y-45090735D01*
X35172180Y-45090742D01*
X35131092Y-45156132D01*
X35129204Y-45159047D01*
X35092604Y-45213824D01*
X35092600Y-45213832D01*
X35092266Y-45214639D01*
X35082713Y-45233127D01*
X35076212Y-45243474D01*
X35076210Y-45243477D01*
X35054982Y-45304140D01*
X35052504Y-45310631D01*
X35032264Y-45359496D01*
X35032263Y-45359502D01*
X35029550Y-45373140D01*
X35024975Y-45389898D01*
X35016634Y-45413735D01*
X35016632Y-45413742D01*
X35010890Y-45464696D01*
X35009288Y-45474994D01*
X35001500Y-45514152D01*
X35001500Y-45541085D01*
X35000720Y-45554969D01*
X34996435Y-45592998D01*
X34288540Y-45592998D01*
X34355671Y-45565192D01*
X34355684Y-45565185D01*
X34519462Y-45455751D01*
X34519466Y-45455748D01*
X34658748Y-45316466D01*
X34658751Y-45316462D01*
X34768185Y-45152684D01*
X34768192Y-45152671D01*
X34843569Y-44970693D01*
X34843572Y-44970681D01*
X34881999Y-44777495D01*
X34882000Y-44777492D01*
X34882000Y-44260044D01*
X34901685Y-44193005D01*
X34954489Y-44147250D01*
X35023647Y-44137306D01*
X35068000Y-44152657D01*
X35089865Y-44165281D01*
X35236234Y-44204500D01*
X35236236Y-44204500D01*
X35387764Y-44204500D01*
X35387766Y-44204500D01*
X35534135Y-44165281D01*
X35665365Y-44089515D01*
X35772515Y-43982365D01*
X35848281Y-43851135D01*
X35887500Y-43704766D01*
X35887500Y-43553234D01*
X40516500Y-43553234D01*
X40516500Y-43704766D01*
X40522324Y-43726500D01*
X40555719Y-43851136D01*
X40571807Y-43879000D01*
X40631485Y-43982365D01*
X40738635Y-44089515D01*
X40869865Y-44165281D01*
X41016234Y-44204500D01*
X41016236Y-44204500D01*
X41167764Y-44204500D01*
X41167766Y-44204500D01*
X41314135Y-44165281D01*
X41335999Y-44152657D01*
X41403897Y-44136184D01*
X41469925Y-44159035D01*
X41513117Y-44213955D01*
X41522000Y-44260044D01*
X41522000Y-44777495D01*
X41560427Y-44970681D01*
X41560430Y-44970693D01*
X41635807Y-45152671D01*
X41635814Y-45152684D01*
X41745248Y-45316462D01*
X41745251Y-45316466D01*
X41884533Y-45455748D01*
X41884537Y-45455751D01*
X42048315Y-45565185D01*
X42048328Y-45565192D01*
X42230308Y-45640569D01*
X42272000Y-45648862D01*
X42272000Y-44845988D01*
X42281940Y-44863205D01*
X42337795Y-44919060D01*
X42406204Y-44958556D01*
X42482504Y-44979000D01*
X42561496Y-44979000D01*
X42637796Y-44958556D01*
X42706205Y-44919060D01*
X42762060Y-44863205D01*
X42772000Y-44845988D01*
X42772000Y-45648862D01*
X42813690Y-45640569D01*
X42813692Y-45640569D01*
X42995671Y-45565192D01*
X42995684Y-45565185D01*
X43159462Y-45455751D01*
X43159466Y-45455748D01*
X43298748Y-45316466D01*
X43298751Y-45316462D01*
X43408185Y-45152684D01*
X43408192Y-45152671D01*
X43483569Y-44970693D01*
X43483572Y-44970681D01*
X43521999Y-44777495D01*
X43522000Y-44777492D01*
X43522000Y-44379000D01*
X42822000Y-44379000D01*
X42822000Y-43879000D01*
X43522000Y-43879000D01*
X43522000Y-43480508D01*
X43521999Y-43480504D01*
X43483572Y-43287318D01*
X43483569Y-43287306D01*
X43408192Y-43105328D01*
X43408185Y-43105315D01*
X43298751Y-42941537D01*
X43298748Y-42941533D01*
X43159466Y-42802251D01*
X43159462Y-42802248D01*
X42995684Y-42692814D01*
X42995671Y-42692807D01*
X42813691Y-42617429D01*
X42813683Y-42617427D01*
X42772000Y-42609135D01*
X42772000Y-43412011D01*
X42762060Y-43394795D01*
X42706205Y-43338940D01*
X42637796Y-43299444D01*
X42561496Y-43279000D01*
X42482504Y-43279000D01*
X42406204Y-43299444D01*
X42337795Y-43338940D01*
X42281940Y-43394795D01*
X42272000Y-43412011D01*
X42272000Y-42609136D01*
X42271999Y-42609135D01*
X42230316Y-42617427D01*
X42230308Y-42617429D01*
X42048328Y-42692807D01*
X42048315Y-42692814D01*
X41884537Y-42802248D01*
X41884533Y-42802251D01*
X41745251Y-42941533D01*
X41745248Y-42941537D01*
X41635814Y-43105315D01*
X41635809Y-43105324D01*
X41631866Y-43114845D01*
X41588023Y-43169247D01*
X41521728Y-43191310D01*
X41454030Y-43174029D01*
X41448597Y-43170351D01*
X41314136Y-43092719D01*
X41240950Y-43073109D01*
X41167766Y-43053500D01*
X41016234Y-43053500D01*
X40869863Y-43092719D01*
X40738635Y-43168485D01*
X40738632Y-43168487D01*
X40631487Y-43275632D01*
X40631485Y-43275635D01*
X40555719Y-43406863D01*
X40520179Y-43539504D01*
X40516500Y-43553234D01*
X35887500Y-43553234D01*
X35848281Y-43406865D01*
X35772515Y-43275635D01*
X35665365Y-43168485D01*
X35580086Y-43119249D01*
X35534136Y-43092719D01*
X35460950Y-43073109D01*
X35387766Y-43053500D01*
X35236234Y-43053500D01*
X35089863Y-43092719D01*
X34998428Y-43145510D01*
X34958635Y-43168485D01*
X34958633Y-43168486D01*
X34951597Y-43172549D01*
X34950327Y-43170349D01*
X34896995Y-43190960D01*
X34828552Y-43176914D01*
X34778568Y-43128094D01*
X34772131Y-43114838D01*
X34768192Y-43105328D01*
X34768185Y-43105315D01*
X34658751Y-42941537D01*
X34658748Y-42941533D01*
X34519466Y-42802251D01*
X34519462Y-42802248D01*
X34355684Y-42692814D01*
X34355671Y-42692807D01*
X34173691Y-42617429D01*
X34173683Y-42617427D01*
X34132000Y-42609135D01*
X34132000Y-43412011D01*
X34122060Y-43394795D01*
X34066205Y-43338940D01*
X33997796Y-43299444D01*
X33921496Y-43279000D01*
X33842504Y-43279000D01*
X33766204Y-43299444D01*
X33697795Y-43338940D01*
X33641940Y-43394795D01*
X33632000Y-43412011D01*
X33632000Y-42609136D01*
X33631999Y-42609135D01*
X33590316Y-42617427D01*
X33590308Y-42617429D01*
X33408328Y-42692807D01*
X33408315Y-42692814D01*
X33244537Y-42802248D01*
X33244533Y-42802251D01*
X33212181Y-42834604D01*
X33150858Y-42868089D01*
X33081166Y-42863105D01*
X33025233Y-42821233D01*
X33000816Y-42755769D01*
X33000500Y-42746923D01*
X33000500Y-41181077D01*
X33020185Y-41114038D01*
X33072989Y-41068283D01*
X33142147Y-41058339D01*
X33205703Y-41087364D01*
X33212181Y-41093396D01*
X33244533Y-41125748D01*
X33244537Y-41125751D01*
X33408315Y-41235185D01*
X33408328Y-41235192D01*
X33590308Y-41310569D01*
X33632000Y-41318862D01*
X33632000Y-40515988D01*
X33641940Y-40533205D01*
X33697795Y-40589060D01*
X33766204Y-40628556D01*
X33842504Y-40649000D01*
X33921496Y-40649000D01*
X33997796Y-40628556D01*
X34066205Y-40589060D01*
X34122060Y-40533205D01*
X34132000Y-40515988D01*
X34132000Y-41318862D01*
X34173690Y-41310569D01*
X34173692Y-41310569D01*
X34355671Y-41235192D01*
X34355684Y-41235185D01*
X34519462Y-41125751D01*
X34519466Y-41125748D01*
X34658748Y-40986466D01*
X34658751Y-40986462D01*
X34768185Y-40822684D01*
X34768192Y-40822671D01*
X34843569Y-40640693D01*
X34843572Y-40640681D01*
X34881999Y-40447495D01*
X34882000Y-40447492D01*
X34882000Y-40199000D01*
X34182000Y-40199000D01*
X34182000Y-39699000D01*
X34882000Y-39699000D01*
X34882000Y-39450508D01*
X34881999Y-39450504D01*
X41522000Y-39450504D01*
X41522000Y-39699000D01*
X42222000Y-39699000D01*
X42222000Y-40199000D01*
X41522000Y-40199000D01*
X41522000Y-40447495D01*
X41560427Y-40640681D01*
X41560430Y-40640693D01*
X41635807Y-40822671D01*
X41635814Y-40822684D01*
X41745248Y-40986462D01*
X41745251Y-40986466D01*
X41884533Y-41125748D01*
X41884537Y-41125751D01*
X42048315Y-41235185D01*
X42048328Y-41235192D01*
X42230308Y-41310569D01*
X42272000Y-41318862D01*
X42272000Y-40515988D01*
X42281940Y-40533205D01*
X42337795Y-40589060D01*
X42406204Y-40628556D01*
X42482504Y-40649000D01*
X42561496Y-40649000D01*
X42637796Y-40628556D01*
X42706205Y-40589060D01*
X42762060Y-40533205D01*
X42772000Y-40515988D01*
X42772000Y-41318862D01*
X42813690Y-41310569D01*
X42813692Y-41310569D01*
X42995671Y-41235192D01*
X42995684Y-41235185D01*
X43159462Y-41125751D01*
X43159466Y-41125748D01*
X43298748Y-40986466D01*
X43298751Y-40986462D01*
X43408185Y-40822684D01*
X43408192Y-40822671D01*
X43483569Y-40640693D01*
X43483572Y-40640681D01*
X43521999Y-40447495D01*
X43522000Y-40447492D01*
X43522000Y-40199000D01*
X42822000Y-40199000D01*
X42822000Y-39699000D01*
X43522000Y-39699000D01*
X43522000Y-39450508D01*
X43521999Y-39450504D01*
X43483572Y-39257318D01*
X43483569Y-39257306D01*
X43408192Y-39075328D01*
X43408185Y-39075315D01*
X43298751Y-38911537D01*
X43298748Y-38911533D01*
X43159466Y-38772251D01*
X43159462Y-38772248D01*
X42995684Y-38662814D01*
X42995671Y-38662807D01*
X42813691Y-38587429D01*
X42813683Y-38587427D01*
X42772000Y-38579135D01*
X42772000Y-39382011D01*
X42762060Y-39364795D01*
X42706205Y-39308940D01*
X42637796Y-39269444D01*
X42561496Y-39249000D01*
X42482504Y-39249000D01*
X42406204Y-39269444D01*
X42337795Y-39308940D01*
X42281940Y-39364795D01*
X42272000Y-39382011D01*
X42272000Y-38579136D01*
X42271999Y-38579135D01*
X42230316Y-38587427D01*
X42230308Y-38587429D01*
X42048328Y-38662807D01*
X42048315Y-38662814D01*
X41884537Y-38772248D01*
X41884533Y-38772251D01*
X41745251Y-38911533D01*
X41745248Y-38911537D01*
X41635814Y-39075315D01*
X41635807Y-39075328D01*
X41560430Y-39257306D01*
X41560427Y-39257318D01*
X41522000Y-39450504D01*
X34881999Y-39450504D01*
X34843572Y-39257318D01*
X34843569Y-39257306D01*
X34768192Y-39075328D01*
X34768185Y-39075315D01*
X34658751Y-38911537D01*
X34658748Y-38911533D01*
X34519466Y-38772251D01*
X34519462Y-38772248D01*
X34355684Y-38662814D01*
X34355671Y-38662807D01*
X34173691Y-38587429D01*
X34173683Y-38587427D01*
X34132000Y-38579135D01*
X34132000Y-39382011D01*
X34122060Y-39364795D01*
X34066205Y-39308940D01*
X33997796Y-39269444D01*
X33921496Y-39249000D01*
X33842504Y-39249000D01*
X33766204Y-39269444D01*
X33697795Y-39308940D01*
X33641940Y-39364795D01*
X33632000Y-39382011D01*
X33632000Y-38579136D01*
X33631999Y-38579135D01*
X33590316Y-38587427D01*
X33590308Y-38587429D01*
X33408328Y-38662807D01*
X33408315Y-38662814D01*
X33244537Y-38772248D01*
X33244533Y-38772251D01*
X33212181Y-38804604D01*
X33150858Y-38838089D01*
X33081166Y-38833105D01*
X33025233Y-38791233D01*
X33000816Y-38725769D01*
X33000500Y-38716923D01*
X33000500Y-38706092D01*
X33001097Y-38693938D01*
X33012744Y-38575681D01*
X33017483Y-38551857D01*
X33050203Y-38443990D01*
X33059499Y-38421549D01*
X33112632Y-38322144D01*
X33126133Y-38301940D01*
X33197635Y-38214814D01*
X33214815Y-38197634D01*
X33301939Y-38126132D01*
X33322143Y-38112632D01*
X33421549Y-38059499D01*
X33443990Y-38050203D01*
X33551856Y-38017483D01*
X33575682Y-38012744D01*
X33675730Y-38002890D01*
X33693940Y-38001097D01*
X33706093Y-38000500D01*
X33765892Y-38000500D01*
X72944000Y-38000500D01*
X73011039Y-38020185D01*
G37*
G04 #@! TD.AperFunction*
G04 #@! TA.AperFunction,Conductor*
G36*
X24219550Y-46994392D02*
G01*
X24263633Y-47048600D01*
X24265984Y-47062431D01*
X25417262Y-48213709D01*
X25283398Y-48310967D01*
X25160967Y-48433398D01*
X25063709Y-48567262D01*
X23921476Y-47425029D01*
X23921474Y-47425030D01*
X23773886Y-47613416D01*
X23773881Y-47613422D01*
X23604898Y-47892956D01*
X23604897Y-47892958D01*
X23470839Y-48190824D01*
X23470835Y-48190835D01*
X23373667Y-48502658D01*
X23314786Y-48823961D01*
X23295065Y-49150000D01*
X23314786Y-49476038D01*
X23373667Y-49797341D01*
X23470835Y-50109164D01*
X23470839Y-50109175D01*
X23604897Y-50407041D01*
X23604898Y-50407043D01*
X23773881Y-50686576D01*
X23921476Y-50874968D01*
X25063708Y-49732736D01*
X25160967Y-49866602D01*
X25283398Y-49989033D01*
X25417262Y-50086290D01*
X24275030Y-51228522D01*
X24275030Y-51228523D01*
X24463423Y-51376118D01*
X24742956Y-51545101D01*
X24742958Y-51545102D01*
X25040824Y-51679160D01*
X25040835Y-51679164D01*
X25352658Y-51776332D01*
X25673961Y-51835213D01*
X26000000Y-51854934D01*
X26326038Y-51835213D01*
X26647341Y-51776332D01*
X26959164Y-51679164D01*
X26959175Y-51679160D01*
X27257041Y-51545102D01*
X27257043Y-51545101D01*
X27536586Y-51376112D01*
X27724968Y-51228523D01*
X27724968Y-51228522D01*
X26582737Y-50086290D01*
X26716602Y-49989033D01*
X26839033Y-49866602D01*
X26936290Y-49732737D01*
X28078522Y-50874968D01*
X28078523Y-50874968D01*
X28226112Y-50686586D01*
X28395101Y-50407043D01*
X28395102Y-50407041D01*
X28529160Y-50109175D01*
X28529164Y-50109164D01*
X28626332Y-49797341D01*
X28685213Y-49476038D01*
X28704934Y-49150000D01*
X28685213Y-48823961D01*
X28626332Y-48502658D01*
X28529164Y-48190835D01*
X28529160Y-48190824D01*
X28395102Y-47892958D01*
X28395101Y-47892956D01*
X28226118Y-47613423D01*
X28078522Y-47425030D01*
X26936290Y-48567262D01*
X26839033Y-48433398D01*
X26716602Y-48310967D01*
X26582736Y-48213709D01*
X27737201Y-47059243D01*
X27742537Y-47035947D01*
X27792481Y-46987085D01*
X27860912Y-46972982D01*
X27914461Y-46990204D01*
X27953328Y-47013500D01*
X28214243Y-47169886D01*
X28216773Y-47171402D01*
X28226888Y-47178160D01*
X28437905Y-47334661D01*
X28532367Y-47404719D01*
X28541773Y-47412439D01*
X28823568Y-47667842D01*
X28832157Y-47676431D01*
X28968393Y-47826745D01*
X29087560Y-47958226D01*
X29095280Y-47967632D01*
X29321837Y-48273108D01*
X29328597Y-48283226D01*
X29521760Y-48605500D01*
X29524109Y-48609418D01*
X29529844Y-48620146D01*
X29666089Y-48908213D01*
X29692454Y-48963956D01*
X29697104Y-48975184D01*
X29790631Y-49236572D01*
X29825229Y-49333266D01*
X29828761Y-49344910D01*
X29921171Y-49713828D01*
X29923545Y-49725764D01*
X29979346Y-50101951D01*
X29980539Y-50114060D01*
X29999351Y-50496966D01*
X29999500Y-50503051D01*
X29999500Y-55118097D01*
X30036446Y-55351368D01*
X30109433Y-55575996D01*
X30181221Y-55716886D01*
X30190655Y-55735402D01*
X30216659Y-55786436D01*
X30264157Y-55851812D01*
X30287637Y-55917618D01*
X30283614Y-55956790D01*
X30261452Y-56039502D01*
X30249500Y-56084108D01*
X30249500Y-56215892D01*
X30280072Y-56329991D01*
X30283609Y-56343188D01*
X30283609Y-56343189D01*
X30352782Y-56463000D01*
X30369255Y-56530900D01*
X30352782Y-56587000D01*
X30283609Y-56706810D01*
X30283609Y-56706811D01*
X30283608Y-56706813D01*
X30283608Y-56706814D01*
X30249500Y-56834108D01*
X30249500Y-56965892D01*
X30283290Y-57092000D01*
X30283609Y-57093188D01*
X30283609Y-57093189D01*
X30352782Y-57213000D01*
X30369255Y-57280900D01*
X30352782Y-57337000D01*
X30283609Y-57456810D01*
X30283609Y-57456811D01*
X30283609Y-57456812D01*
X30283608Y-57456814D01*
X30249500Y-57584108D01*
X30249500Y-57715892D01*
X30257438Y-57745519D01*
X30283609Y-57843188D01*
X30283609Y-57843189D01*
X30352782Y-57963000D01*
X30369255Y-58030900D01*
X30352782Y-58087000D01*
X30283609Y-58206810D01*
X30283609Y-58206811D01*
X30249500Y-58334108D01*
X30249500Y-58465893D01*
X30273826Y-58556681D01*
X30272163Y-58626530D01*
X30254370Y-58661657D01*
X30216658Y-58713563D01*
X30109433Y-58924003D01*
X30036446Y-59148631D01*
X29999500Y-59381902D01*
X29999500Y-63492966D01*
X29998704Y-63506992D01*
X29988315Y-63598246D01*
X29982010Y-63625580D01*
X29953737Y-63705491D01*
X29941450Y-63730706D01*
X29895943Y-63802213D01*
X29878302Y-63824024D01*
X29817879Y-63883480D01*
X29795787Y-63900767D01*
X29723556Y-63945114D01*
X29698146Y-63956992D01*
X29617786Y-63983974D01*
X29590353Y-63989837D01*
X29498950Y-63998751D01*
X29484915Y-63999321D01*
X29426061Y-63998372D01*
X29426060Y-63998372D01*
X29426059Y-63998372D01*
X29423346Y-63998685D01*
X29409149Y-63999500D01*
X22506962Y-63999500D01*
X22493078Y-63998720D01*
X22480553Y-63997308D01*
X22402735Y-63988540D01*
X22375666Y-63982362D01*
X22296462Y-63954648D01*
X22271444Y-63942600D01*
X22200395Y-63897957D01*
X22178686Y-63880644D01*
X22119355Y-63821313D01*
X22102042Y-63799604D01*
X22098068Y-63793280D01*
X22057398Y-63728553D01*
X22045351Y-63703537D01*
X22044712Y-63701712D01*
X22017636Y-63624331D01*
X22011459Y-63597263D01*
X22009694Y-63581602D01*
X22001280Y-63506922D01*
X22000500Y-63493038D01*
X22000500Y-59181998D01*
X23442435Y-59181998D01*
X23442435Y-59182001D01*
X23446720Y-59220029D01*
X23447500Y-59233914D01*
X23447500Y-59260844D01*
X23455288Y-59300003D01*
X23456890Y-59310303D01*
X23462632Y-59361252D01*
X23462633Y-59361260D01*
X23470976Y-59385104D01*
X23475550Y-59401860D01*
X23478262Y-59415496D01*
X23498509Y-59464377D01*
X23500988Y-59470872D01*
X23522212Y-59531524D01*
X23528709Y-59541865D01*
X23538268Y-59560365D01*
X23538603Y-59561173D01*
X23538605Y-59561179D01*
X23575223Y-59615982D01*
X23577114Y-59618900D01*
X23618180Y-59684257D01*
X23618182Y-59684260D01*
X23618184Y-59684262D01*
X23745738Y-59811816D01*
X23811131Y-59852905D01*
X23814040Y-59854790D01*
X23868821Y-59891394D01*
X23869606Y-59891719D01*
X23888134Y-59901289D01*
X23898478Y-59907789D01*
X23959175Y-59929028D01*
X23965607Y-59931484D01*
X23994021Y-59943253D01*
X24014497Y-59951735D01*
X24014498Y-59951735D01*
X24014503Y-59951737D01*
X24028139Y-59954449D01*
X24044898Y-59959023D01*
X24068745Y-59967368D01*
X24119714Y-59973110D01*
X24129992Y-59974709D01*
X24157140Y-59980109D01*
X24169157Y-59982500D01*
X24169158Y-59982500D01*
X24196085Y-59982500D01*
X24209969Y-59983280D01*
X24247998Y-59987565D01*
X24248000Y-59987565D01*
X24248002Y-59987565D01*
X24286031Y-59983280D01*
X24299915Y-59982500D01*
X25596844Y-59982500D01*
X25596845Y-59982499D01*
X25751497Y-59951737D01*
X25897179Y-59891394D01*
X26028289Y-59803789D01*
X26774789Y-59057289D01*
X26782816Y-59049262D01*
X26823931Y-58983825D01*
X26825777Y-58980979D01*
X26862394Y-58926179D01*
X26862720Y-58925390D01*
X26872287Y-58906868D01*
X26878789Y-58896522D01*
X26900022Y-58835837D01*
X26902477Y-58829407D01*
X26922738Y-58780497D01*
X26925449Y-58766860D01*
X26930025Y-58750096D01*
X26938368Y-58726255D01*
X26944109Y-58675287D01*
X26945709Y-58665004D01*
X26951113Y-58637843D01*
X26953500Y-58625844D01*
X26953500Y-58598914D01*
X26954280Y-58585029D01*
X26958565Y-58547001D01*
X26958565Y-58546998D01*
X26954280Y-58508969D01*
X26953500Y-58495085D01*
X26953500Y-57064500D01*
X26973185Y-56997461D01*
X27025989Y-56951706D01*
X27077500Y-56940500D01*
X27107890Y-56940500D01*
X27107892Y-56940500D01*
X27235186Y-56906392D01*
X27349314Y-56840500D01*
X27442500Y-56747314D01*
X27508392Y-56633186D01*
X27542500Y-56505892D01*
X27542500Y-56374108D01*
X27508392Y-56246814D01*
X27442500Y-56132686D01*
X27349314Y-56039500D01*
X27292250Y-56006554D01*
X27235187Y-55973608D01*
X27130497Y-55945557D01*
X27107892Y-55939500D01*
X27077500Y-55939500D01*
X27010461Y-55919815D01*
X26964706Y-55867011D01*
X26953500Y-55815500D01*
X26953500Y-53896155D01*
X26953499Y-53896153D01*
X26922738Y-53741510D01*
X26922737Y-53741503D01*
X26921973Y-53739659D01*
X26862397Y-53595827D01*
X26862390Y-53595814D01*
X26774790Y-53464712D01*
X26726406Y-53416328D01*
X26663289Y-53353211D01*
X25520289Y-52210211D01*
X25512262Y-52202184D01*
X25512260Y-52202182D01*
X25512257Y-52202180D01*
X25446900Y-52161114D01*
X25443982Y-52159223D01*
X25389179Y-52122605D01*
X25389173Y-52122603D01*
X25388365Y-52122268D01*
X25369865Y-52112709D01*
X25359524Y-52106212D01*
X25359523Y-52106211D01*
X25359522Y-52106211D01*
X25298867Y-52084986D01*
X25292377Y-52082509D01*
X25243496Y-52062262D01*
X25229860Y-52059550D01*
X25213104Y-52054976D01*
X25189260Y-52046633D01*
X25189256Y-52046632D01*
X25189255Y-52046632D01*
X25168575Y-52044301D01*
X25138303Y-52040890D01*
X25128003Y-52039288D01*
X25088844Y-52031500D01*
X25088842Y-52031500D01*
X25061915Y-52031500D01*
X25048031Y-52030720D01*
X25010002Y-52026435D01*
X25009998Y-52026435D01*
X24971969Y-52030720D01*
X24958085Y-52031500D01*
X24931152Y-52031500D01*
X24891994Y-52039288D01*
X24881696Y-52040890D01*
X24830742Y-52046632D01*
X24830735Y-52046634D01*
X24806898Y-52054975D01*
X24790140Y-52059550D01*
X24776502Y-52062263D01*
X24776496Y-52062264D01*
X24727631Y-52082504D01*
X24721140Y-52084982D01*
X24660477Y-52106210D01*
X24660474Y-52106212D01*
X24650127Y-52112713D01*
X24631639Y-52122266D01*
X24630832Y-52122600D01*
X24630824Y-52122604D01*
X24576047Y-52159204D01*
X24573132Y-52161092D01*
X24507742Y-52202180D01*
X24507735Y-52202186D01*
X24380186Y-52329735D01*
X24380180Y-52329742D01*
X24339092Y-52395132D01*
X24337204Y-52398047D01*
X24300604Y-52452824D01*
X24300600Y-52452832D01*
X24300266Y-52453639D01*
X24290713Y-52472127D01*
X24284212Y-52482474D01*
X24284210Y-52482477D01*
X24262982Y-52543140D01*
X24260504Y-52549631D01*
X24240264Y-52598496D01*
X24240263Y-52598502D01*
X24237550Y-52612140D01*
X24232975Y-52628898D01*
X24224634Y-52652735D01*
X24224632Y-52652742D01*
X24218890Y-52703696D01*
X24217288Y-52713994D01*
X24209500Y-52753152D01*
X24209500Y-52780085D01*
X24208720Y-52793969D01*
X24204435Y-52831998D01*
X24204435Y-52832001D01*
X24208720Y-52870029D01*
X24209500Y-52883914D01*
X24209500Y-52910844D01*
X24217288Y-52950003D01*
X24218890Y-52960303D01*
X24224632Y-53011252D01*
X24224633Y-53011260D01*
X24232976Y-53035104D01*
X24237550Y-53051860D01*
X24240262Y-53065496D01*
X24260509Y-53114377D01*
X24262988Y-53120872D01*
X24284212Y-53181524D01*
X24290709Y-53191865D01*
X24300268Y-53210365D01*
X24300603Y-53211173D01*
X24300605Y-53211179D01*
X24337223Y-53265982D01*
X24339114Y-53268900D01*
X24380180Y-53334257D01*
X24380182Y-53334260D01*
X25316181Y-54270259D01*
X25349666Y-54331582D01*
X25352500Y-54357940D01*
X25352500Y-58164060D01*
X25332815Y-58231099D01*
X25316181Y-58251741D01*
X25222741Y-58345181D01*
X25161418Y-58378666D01*
X25135060Y-58381500D01*
X24299915Y-58381500D01*
X24286031Y-58380720D01*
X24248002Y-58376435D01*
X24247998Y-58376435D01*
X24209969Y-58380720D01*
X24196085Y-58381500D01*
X24169152Y-58381500D01*
X24129994Y-58389288D01*
X24119696Y-58390890D01*
X24068742Y-58396632D01*
X24068735Y-58396634D01*
X24044898Y-58404975D01*
X24028140Y-58409550D01*
X24014502Y-58412263D01*
X24014496Y-58412264D01*
X23965631Y-58432504D01*
X23959140Y-58434982D01*
X23898477Y-58456210D01*
X23898474Y-58456212D01*
X23888127Y-58462713D01*
X23869639Y-58472266D01*
X23868832Y-58472600D01*
X23868824Y-58472604D01*
X23868821Y-58472605D01*
X23868821Y-58472606D01*
X23814399Y-58508969D01*
X23814047Y-58509204D01*
X23811132Y-58511092D01*
X23745742Y-58552180D01*
X23745735Y-58552186D01*
X23618186Y-58679735D01*
X23618180Y-58679742D01*
X23577092Y-58745132D01*
X23575209Y-58748038D01*
X23568345Y-58758312D01*
X23538604Y-58802824D01*
X23538600Y-58802832D01*
X23538266Y-58803639D01*
X23528713Y-58822127D01*
X23522212Y-58832474D01*
X23522210Y-58832477D01*
X23500982Y-58893140D01*
X23498504Y-58899631D01*
X23478264Y-58948496D01*
X23478263Y-58948502D01*
X23475550Y-58962140D01*
X23470975Y-58978898D01*
X23462634Y-59002735D01*
X23462632Y-59002742D01*
X23456890Y-59053696D01*
X23455288Y-59063994D01*
X23447500Y-59103152D01*
X23447500Y-59130085D01*
X23446720Y-59143969D01*
X23442435Y-59181998D01*
X22000500Y-59181998D01*
X22000500Y-50503051D01*
X22000649Y-50496967D01*
X22007043Y-50366819D01*
X22019460Y-50114055D01*
X22020653Y-50101951D01*
X22021067Y-50099161D01*
X22076457Y-49725747D01*
X22078824Y-49713845D01*
X22171238Y-49344907D01*
X22174765Y-49333280D01*
X22302901Y-48975166D01*
X22307536Y-48963977D01*
X22470163Y-48620130D01*
X22475878Y-48609438D01*
X22671410Y-48283213D01*
X22678153Y-48273120D01*
X22904727Y-47967621D01*
X22912430Y-47958236D01*
X23167851Y-47676421D01*
X23176421Y-47667851D01*
X23458236Y-47412430D01*
X23467621Y-47404727D01*
X23773120Y-47178153D01*
X23783213Y-47171410D01*
X24085537Y-46990204D01*
X24153158Y-46972623D01*
X24219550Y-46994392D01*
G37*
G04 #@! TD.AperFunction*
M02*
