%TF.GenerationSoftware,KiCad,Pcbnew,8.0.5*%
%TF.CreationDate,2024-09-28T10:16:11+02:00*%
%TF.ProjectId,Slave,536c6176-652e-46b6-9963-61645f706362,rev?*%
%TF.SameCoordinates,Original*%
%TF.FileFunction,Copper,L2,Bot*%
%TF.FilePolarity,Positive*%
%FSLAX46Y46*%
G04 Gerber Fmt 4.6, Leading zero omitted, Abs format (unit mm)*
G04 Created by KiCad (PCBNEW 8.0.5) date 2024-09-28 10:16:11*
%MOMM*%
%LPD*%
G01*
G04 APERTURE LIST*
%TA.AperFunction,ComponentPad*%
%ADD10R,1.700000X1.700000*%
%TD*%
%TA.AperFunction,ComponentPad*%
%ADD11O,1.700000X1.700000*%
%TD*%
%TA.AperFunction,ComponentPad*%
%ADD12O,1.000000X2.100000*%
%TD*%
%TA.AperFunction,ComponentPad*%
%ADD13O,1.000000X1.800000*%
%TD*%
%TA.AperFunction,ComponentPad*%
%ADD14R,2.200000X2.200000*%
%TD*%
%TA.AperFunction,ComponentPad*%
%ADD15C,2.200000*%
%TD*%
%TA.AperFunction,ComponentPad*%
%ADD16C,0.700000*%
%TD*%
%TA.AperFunction,ComponentPad*%
%ADD17C,4.400000*%
%TD*%
%TA.AperFunction,ViaPad*%
%ADD18C,0.600000*%
%TD*%
%TA.AperFunction,Conductor*%
%ADD19C,0.600000*%
%TD*%
%TA.AperFunction,Conductor*%
%ADD20C,0.300000*%
%TD*%
G04 APERTURE END LIST*
D10*
%TO.P,J3,1,Pin_1*%
%TO.N,I2S_SD*%
X34798000Y-52324000D03*
D11*
%TO.P,J3,2,Pin_2*%
%TO.N,I2S_SCK*%
X34798000Y-54864000D03*
%TO.P,J3,3,Pin_3*%
%TO.N,I2S_WS*%
X34798000Y-57404000D03*
%TO.P,J3,4,Pin_4*%
%TO.N,ESP_3V3*%
X34798000Y-59944000D03*
%TO.P,J3,5,Pin_5*%
%TO.N,GND_OUT*%
X34798000Y-62484000D03*
%TO.P,J3,6,Pin_6*%
%TO.N,I2C_SDA*%
X34798000Y-65024000D03*
%TO.P,J3,7,Pin_7*%
%TO.N,I2C_SCK*%
X34798000Y-67564000D03*
%TD*%
D12*
%TO.P,J1,S1,SHIELD*%
%TO.N,GND_OUT*%
X42522000Y-44129000D03*
D13*
X42522000Y-39949000D03*
D12*
X33882000Y-44129000D03*
D13*
X33882000Y-39949000D03*
%TD*%
D14*
%TO.P,J2,1,Pin_1*%
%TO.N,VCC_5V*%
X73660000Y-78770000D03*
D15*
%TO.P,J2,2,Pin_2*%
%TO.N,ESP_3V3*%
X71120000Y-78770000D03*
%TO.P,J2,3,Pin_3*%
%TO.N,GND_OUT*%
X68580000Y-78770000D03*
%TO.P,J2,4,Pin_4*%
%TO.N,CAN+*%
X66040000Y-78770000D03*
%TO.P,J2,5,Pin_5*%
%TO.N,CAN-*%
X63500000Y-78770000D03*
%TD*%
D10*
%TO.P,J4,1,Pin_1*%
%TO.N,Net-(J4-Pin_1)*%
X48504000Y-79248000D03*
D11*
%TO.P,J4,2,Pin_2*%
%TO.N,Net-(J4-Pin_2)*%
X45964000Y-79248000D03*
%TO.P,J4,3,Pin_3*%
%TO.N,Net-(J4-Pin_3)*%
X43424000Y-79248000D03*
%TO.P,J4,4,Pin_4*%
%TO.N,Net-(J4-Pin_4)*%
X40884000Y-79248000D03*
%TD*%
D16*
%TO.P,H2,1,1*%
%TO.N,GND_OUT*%
X24512000Y-49149000D03*
X24995274Y-47982274D03*
X24995274Y-50315726D03*
X26162000Y-47499000D03*
D17*
X26162000Y-49149000D03*
D16*
X26162000Y-50799000D03*
X27328726Y-47982274D03*
X27328726Y-50315726D03*
X27812000Y-49149000D03*
%TD*%
%TO.P,H1,1,1*%
%TO.N,GND_OUT*%
X51285274Y-62968274D03*
X51768548Y-61801548D03*
X51768548Y-64135000D03*
X52935274Y-61318274D03*
D17*
X52935274Y-62968274D03*
D16*
X52935274Y-64618274D03*
X54102000Y-61801548D03*
X54102000Y-64135000D03*
X54585274Y-62968274D03*
%TD*%
D18*
%TO.N,VCC_5V*%
X44770000Y-49100000D03*
X57658000Y-79248000D03*
X44770000Y-48070000D03*
X55816500Y-69151500D03*
X51435000Y-78740000D03*
%TO.N,GND_OUT*%
X70104000Y-65786000D03*
X70231000Y-73406000D03*
X57404000Y-44196000D03*
X23114000Y-61214000D03*
X44196000Y-39370000D03*
X42037000Y-45720000D03*
X42926000Y-50419000D03*
X70231000Y-69469000D03*
X23114000Y-50546000D03*
X36576000Y-61468000D03*
X52070000Y-67818000D03*
X23622000Y-60452000D03*
X22860000Y-51308000D03*
X63500000Y-62103000D03*
X33655000Y-46482000D03*
X57658000Y-41910000D03*
X69596000Y-57150000D03*
X63627000Y-61341000D03*
X37465000Y-78232000D03*
X72644000Y-61976000D03*
X50927000Y-58039000D03*
X28956000Y-51308000D03*
X52959000Y-67945000D03*
X53848000Y-46736000D03*
X62865000Y-61341000D03*
X43053000Y-45593000D03*
X69469382Y-65959436D03*
X62611000Y-73533000D03*
X22644000Y-60452000D03*
X69469000Y-77216000D03*
X57404000Y-58166000D03*
X61468000Y-66421000D03*
X23622000Y-51308000D03*
X68834000Y-57150000D03*
X36576000Y-62103000D03*
X37318436Y-77221756D03*
X33528000Y-47244000D03*
X34163000Y-42545000D03*
X52451000Y-68580000D03*
X69977000Y-68834000D03*
X29464000Y-50800000D03*
X29210000Y-50292000D03*
X68326000Y-77089000D03*
%TO.N,CHIP_PU*%
X51487978Y-47713840D03*
X68834000Y-59944000D03*
%TO.N,ESP_3V3*%
X69538000Y-42940000D03*
X53594000Y-48514000D03*
X25400000Y-52832000D03*
X60706000Y-42926000D03*
X24638000Y-59182000D03*
X70500000Y-42940000D03*
X26543000Y-58547000D03*
%TO.N,Net-(D2-A)*%
X35802000Y-45593000D03*
X40663500Y-45823500D03*
%TD*%
D19*
%TO.N,VCC_5V*%
X51435000Y-78740000D02*
X51054000Y-79121000D01*
X57912000Y-79248000D02*
X57658000Y-79248000D01*
X33340000Y-77470000D02*
X37658000Y-81788000D01*
X55816500Y-69151500D02*
X53086000Y-71882000D01*
X51435000Y-75819000D02*
X51435000Y-78740000D01*
X57912000Y-79248000D02*
X57912000Y-79248000D01*
X58674000Y-81788000D02*
X57912000Y-81026000D01*
X44340000Y-49530000D02*
X34290000Y-49530000D01*
X51054000Y-79121000D02*
X51054000Y-81788000D01*
X57912000Y-81026000D02*
X57912000Y-80010000D01*
X37658000Y-81788000D02*
X51054000Y-81788000D01*
X51054000Y-81788000D02*
X69977000Y-81788000D01*
X44770000Y-49100000D02*
X44340000Y-49530000D01*
X70642000Y-81788000D02*
X73660000Y-78770000D01*
X44770000Y-48070000D02*
X44770000Y-49100000D01*
X57912000Y-80010000D02*
X57912000Y-79248000D01*
X34290000Y-49530000D02*
X33340000Y-50480000D01*
X51435000Y-78740000D02*
X51435000Y-78740000D01*
X69977000Y-81788000D02*
X58674000Y-81788000D01*
X53086000Y-74168000D02*
X51435000Y-75819000D01*
X53086000Y-71882000D02*
X53086000Y-74168000D01*
X69977000Y-81788000D02*
X70642000Y-81788000D01*
X33340000Y-50480000D02*
X33340000Y-77470000D01*
%TO.N,CHIP_PU*%
X51487978Y-47713840D02*
X51490374Y-47713840D01*
D20*
X68326000Y-59436000D02*
X57150000Y-59436000D01*
X56642000Y-49784000D02*
X54572000Y-47714000D01*
X68834000Y-59944000D02*
X68326000Y-59436000D01*
X57150000Y-59436000D02*
X56642000Y-58928000D01*
X54572000Y-47714000D02*
X51490534Y-47714000D01*
X56642000Y-58928000D02*
X56642000Y-49784000D01*
D19*
X51490374Y-47713840D02*
X51490534Y-47714000D01*
%TO.N,ESP_3V3*%
X43688000Y-59944000D02*
X47752000Y-55880000D01*
X49784000Y-42926000D02*
X60706000Y-42926000D01*
X70476000Y-42926000D02*
X70480000Y-42930000D01*
X52578000Y-49530000D02*
X52705000Y-49403000D01*
X52705000Y-49403000D02*
X53594000Y-48514000D01*
X24638000Y-59182000D02*
X25908000Y-59182000D01*
X47752000Y-44958000D02*
X49784000Y-42926000D01*
X47752000Y-49530000D02*
X52578000Y-49530000D01*
X26543000Y-53975000D02*
X25400000Y-52832000D01*
X65874002Y-65532000D02*
X66846001Y-66503999D01*
X25908000Y-59182000D02*
X26543000Y-58547000D01*
X34798000Y-59944000D02*
X43688000Y-59944000D01*
X47752000Y-55880000D02*
X47752000Y-49530000D01*
X60706000Y-42926000D02*
X70476000Y-42926000D01*
X47752000Y-49530000D02*
X47752000Y-44958000D01*
X26543000Y-58547000D02*
X26543000Y-53975000D01*
%TO.N,Net-(D2-A)*%
X36056000Y-45847000D02*
X40640000Y-45847000D01*
X35802000Y-45593000D02*
X36056000Y-45847000D01*
X40640000Y-45847000D02*
X40663500Y-45823500D01*
%TD*%
%TA.AperFunction,Conductor*%
%TO.N,GND_OUT*%
G36*
X73011039Y-37858185D02*
G01*
X73056794Y-37910989D01*
X73068000Y-37962500D01*
X73068000Y-73896000D01*
X75448500Y-73896000D01*
X75515539Y-73915685D01*
X75561294Y-73968489D01*
X75572500Y-74020000D01*
X75572500Y-82052500D01*
X75552815Y-82119539D01*
X75500011Y-82165294D01*
X75448500Y-82176500D01*
X71684940Y-82176500D01*
X71617901Y-82156815D01*
X71572146Y-82104011D01*
X71562202Y-82034853D01*
X71591227Y-81971297D01*
X71597259Y-81964819D01*
X73155259Y-80406818D01*
X73216582Y-80373333D01*
X73242940Y-80370499D01*
X74807871Y-80370499D01*
X74807872Y-80370499D01*
X74867483Y-80364091D01*
X75002331Y-80313796D01*
X75117546Y-80227546D01*
X75203796Y-80112331D01*
X75254091Y-79977483D01*
X75260500Y-79917873D01*
X75260499Y-77622128D01*
X75254091Y-77562517D01*
X75220169Y-77471568D01*
X75203797Y-77427671D01*
X75203793Y-77427664D01*
X75117547Y-77312455D01*
X75117544Y-77312452D01*
X75002335Y-77226206D01*
X75002328Y-77226202D01*
X74867482Y-77175908D01*
X74867483Y-77175908D01*
X74807883Y-77169501D01*
X74807881Y-77169500D01*
X74807873Y-77169500D01*
X74807864Y-77169500D01*
X72512129Y-77169500D01*
X72512123Y-77169501D01*
X72452516Y-77175908D01*
X72317671Y-77226202D01*
X72317664Y-77226206D01*
X72202455Y-77312452D01*
X72145072Y-77389105D01*
X72089138Y-77430976D01*
X72019446Y-77435959D01*
X71981016Y-77420520D01*
X71848859Y-77339533D01*
X71616110Y-77243126D01*
X71371151Y-77184317D01*
X71120000Y-77164551D01*
X70868848Y-77184317D01*
X70623889Y-77243126D01*
X70391140Y-77339533D01*
X70176346Y-77471160D01*
X70176343Y-77471161D01*
X69984776Y-77634776D01*
X69821166Y-77826338D01*
X69740126Y-77958581D01*
X69722080Y-77981471D01*
X69103787Y-78599764D01*
X69092518Y-78557708D01*
X69020110Y-78432292D01*
X68917708Y-78329890D01*
X68792292Y-78257482D01*
X68750234Y-78246212D01*
X69524179Y-77472266D01*
X69523362Y-77471568D01*
X69308631Y-77339980D01*
X69075956Y-77243603D01*
X68831072Y-77184812D01*
X68580000Y-77165052D01*
X68328927Y-77184812D01*
X68084043Y-77243603D01*
X67851368Y-77339980D01*
X67636637Y-77471567D01*
X67635819Y-77472266D01*
X68409765Y-78246212D01*
X68367708Y-78257482D01*
X68242292Y-78329890D01*
X68139890Y-78432292D01*
X68067482Y-78557708D01*
X68056212Y-78599765D01*
X67437919Y-77981472D01*
X67419876Y-77958586D01*
X67338836Y-77826341D01*
X67175224Y-77634776D01*
X67011206Y-77494691D01*
X66983656Y-77471161D01*
X66983653Y-77471160D01*
X66768859Y-77339533D01*
X66536110Y-77243126D01*
X66291151Y-77184317D01*
X66040000Y-77164551D01*
X65788848Y-77184317D01*
X65543889Y-77243126D01*
X65311140Y-77339533D01*
X65096346Y-77471160D01*
X65096343Y-77471161D01*
X64904776Y-77634776D01*
X64864290Y-77682179D01*
X64805783Y-77720372D01*
X64735915Y-77720870D01*
X64676869Y-77683516D01*
X64675710Y-77682179D01*
X64635224Y-77634776D01*
X64471206Y-77494691D01*
X64443656Y-77471161D01*
X64443653Y-77471160D01*
X64228859Y-77339533D01*
X63996110Y-77243126D01*
X63751151Y-77184317D01*
X63500000Y-77164551D01*
X63248848Y-77184317D01*
X63003889Y-77243126D01*
X62771140Y-77339533D01*
X62556346Y-77471160D01*
X62556343Y-77471161D01*
X62364776Y-77634776D01*
X62201161Y-77826343D01*
X62201160Y-77826346D01*
X62069533Y-78041140D01*
X61973126Y-78273889D01*
X61914317Y-78518848D01*
X61894551Y-78770000D01*
X61914317Y-79021151D01*
X61973126Y-79266110D01*
X62069533Y-79498859D01*
X62201160Y-79713653D01*
X62201161Y-79713656D01*
X62232424Y-79750260D01*
X62364776Y-79905224D01*
X62513066Y-80031875D01*
X62556343Y-80068838D01*
X62556346Y-80068839D01*
X62771140Y-80200466D01*
X62978829Y-80286493D01*
X63003889Y-80296873D01*
X63248852Y-80355683D01*
X63500000Y-80375449D01*
X63751148Y-80355683D01*
X63996111Y-80296873D01*
X64228859Y-80200466D01*
X64443659Y-80068836D01*
X64635224Y-79905224D01*
X64675710Y-79857819D01*
X64734216Y-79819627D01*
X64804084Y-79819128D01*
X64863130Y-79856482D01*
X64864235Y-79857756D01*
X64885815Y-79883023D01*
X64904776Y-79905224D01*
X65096343Y-80068838D01*
X65096346Y-80068839D01*
X65311140Y-80200466D01*
X65518829Y-80286493D01*
X65543889Y-80296873D01*
X65788852Y-80355683D01*
X66040000Y-80375449D01*
X66291148Y-80355683D01*
X66536111Y-80296873D01*
X66768859Y-80200466D01*
X66983659Y-80068836D01*
X67175224Y-79905224D01*
X67338836Y-79713659D01*
X67419879Y-79581408D01*
X67437919Y-79558526D01*
X68056212Y-78940234D01*
X68067482Y-78982292D01*
X68139890Y-79107708D01*
X68242292Y-79210110D01*
X68367708Y-79282518D01*
X68409765Y-79293787D01*
X67635819Y-80067732D01*
X67635819Y-80067733D01*
X67636634Y-80068429D01*
X67851368Y-80200019D01*
X68084043Y-80296396D01*
X68328927Y-80355187D01*
X68580000Y-80374947D01*
X68831072Y-80355187D01*
X69075956Y-80296396D01*
X69308631Y-80200019D01*
X69523361Y-80068432D01*
X69523363Y-80068430D01*
X69524180Y-80067732D01*
X68750234Y-79293787D01*
X68792292Y-79282518D01*
X68917708Y-79210110D01*
X69020110Y-79107708D01*
X69092518Y-78982292D01*
X69103787Y-78940234D01*
X69722079Y-79558526D01*
X69740125Y-79581417D01*
X69821160Y-79713653D01*
X69821161Y-79713656D01*
X69852424Y-79750260D01*
X69984776Y-79905224D01*
X70133066Y-80031875D01*
X70176343Y-80068838D01*
X70176346Y-80068839D01*
X70391140Y-80200466D01*
X70507515Y-80248669D01*
X70623889Y-80296873D01*
X70712730Y-80318201D01*
X70773321Y-80352991D01*
X70805486Y-80415017D01*
X70799010Y-80484586D01*
X70771464Y-80526456D01*
X70346741Y-80951181D01*
X70285418Y-80984666D01*
X70259060Y-80987500D01*
X59056940Y-80987500D01*
X58989901Y-80967815D01*
X58969259Y-80951181D01*
X58748819Y-80730741D01*
X58715334Y-80669418D01*
X58712500Y-80643060D01*
X58712500Y-79169155D01*
X58712499Y-79169153D01*
X58703693Y-79124883D01*
X58681737Y-79014503D01*
X58680947Y-79012596D01*
X58621397Y-78868827D01*
X58621390Y-78868814D01*
X58533789Y-78737711D01*
X58533786Y-78737707D01*
X58422292Y-78626213D01*
X58422288Y-78626210D01*
X58291185Y-78538609D01*
X58291172Y-78538602D01*
X58145501Y-78478264D01*
X58145489Y-78478261D01*
X57990845Y-78447500D01*
X57990842Y-78447500D01*
X57709915Y-78447500D01*
X57696031Y-78446720D01*
X57658002Y-78442435D01*
X57657998Y-78442435D01*
X57619969Y-78446720D01*
X57606085Y-78447500D01*
X57579152Y-78447500D01*
X57539994Y-78455288D01*
X57529696Y-78456890D01*
X57478742Y-78462632D01*
X57478735Y-78462634D01*
X57454898Y-78470975D01*
X57438140Y-78475550D01*
X57424502Y-78478263D01*
X57424496Y-78478264D01*
X57375631Y-78498504D01*
X57369140Y-78500982D01*
X57308477Y-78522210D01*
X57308474Y-78522212D01*
X57298127Y-78528713D01*
X57279639Y-78538266D01*
X57278832Y-78538600D01*
X57278824Y-78538604D01*
X57278821Y-78538605D01*
X57278821Y-78538606D01*
X57231580Y-78570171D01*
X57224047Y-78575204D01*
X57221132Y-78577092D01*
X57155742Y-78618180D01*
X57155735Y-78618186D01*
X57028186Y-78745735D01*
X57028180Y-78745742D01*
X56987092Y-78811132D01*
X56985209Y-78814038D01*
X56955839Y-78857996D01*
X56948604Y-78868824D01*
X56948600Y-78868832D01*
X56948266Y-78869639D01*
X56938713Y-78888127D01*
X56932212Y-78898474D01*
X56932210Y-78898477D01*
X56910982Y-78959140D01*
X56908504Y-78965631D01*
X56888264Y-79014496D01*
X56888263Y-79014502D01*
X56885550Y-79028140D01*
X56880975Y-79044898D01*
X56872634Y-79068735D01*
X56872632Y-79068742D01*
X56866890Y-79119696D01*
X56865288Y-79129994D01*
X56857500Y-79169152D01*
X56857500Y-79196085D01*
X56856720Y-79209969D01*
X56852435Y-79247998D01*
X56852435Y-79248001D01*
X56856720Y-79286029D01*
X56857500Y-79299914D01*
X56857500Y-79326844D01*
X56865288Y-79366003D01*
X56866890Y-79376303D01*
X56872632Y-79427252D01*
X56872633Y-79427260D01*
X56880976Y-79451104D01*
X56885550Y-79467860D01*
X56888262Y-79481496D01*
X56908509Y-79530377D01*
X56910986Y-79536867D01*
X56926575Y-79581417D01*
X56932212Y-79597524D01*
X56938709Y-79607865D01*
X56948268Y-79626365D01*
X56948603Y-79627173D01*
X56948605Y-79627179D01*
X56985223Y-79681982D01*
X56987114Y-79684900D01*
X57028180Y-79750257D01*
X57028182Y-79750260D01*
X57075181Y-79797259D01*
X57108666Y-79858582D01*
X57111500Y-79884940D01*
X57111500Y-80863500D01*
X57091815Y-80930539D01*
X57039011Y-80976294D01*
X56987500Y-80987500D01*
X51978500Y-80987500D01*
X51911461Y-80967815D01*
X51865706Y-80915011D01*
X51854500Y-80863500D01*
X51854500Y-79503940D01*
X51874185Y-79436901D01*
X51890819Y-79416259D01*
X51941075Y-79366003D01*
X52056788Y-79250290D01*
X52056789Y-79250289D01*
X52064816Y-79242262D01*
X52105931Y-79176825D01*
X52107777Y-79173979D01*
X52144394Y-79119179D01*
X52144720Y-79118390D01*
X52154287Y-79099868D01*
X52160789Y-79089522D01*
X52182023Y-79028837D01*
X52184484Y-79022389D01*
X52204737Y-78973497D01*
X52207448Y-78959862D01*
X52212023Y-78943100D01*
X52220368Y-78919255D01*
X52226111Y-78868282D01*
X52227707Y-78858015D01*
X52235500Y-78818843D01*
X52235500Y-78791914D01*
X52236280Y-78778029D01*
X52240565Y-78740001D01*
X52240565Y-78739998D01*
X52236280Y-78701969D01*
X52235500Y-78688085D01*
X52235500Y-76201940D01*
X52255185Y-76134901D01*
X52271819Y-76114259D01*
X53707786Y-74678292D01*
X53707789Y-74678289D01*
X53795394Y-74547179D01*
X53855738Y-74401497D01*
X53886500Y-74246842D01*
X53886500Y-74089157D01*
X53886500Y-72264940D01*
X53906185Y-72197901D01*
X53922819Y-72177259D01*
X54839867Y-71260211D01*
X56438289Y-69661789D01*
X56446316Y-69653762D01*
X56487421Y-69588342D01*
X56489278Y-69585476D01*
X56525893Y-69530679D01*
X56526219Y-69529889D01*
X56535793Y-69511359D01*
X56542289Y-69501022D01*
X56563517Y-69440352D01*
X56565993Y-69433868D01*
X56586237Y-69384997D01*
X56588950Y-69371352D01*
X56593520Y-69354607D01*
X56601868Y-69330755D01*
X56607610Y-69279783D01*
X56609207Y-69269517D01*
X56617000Y-69230342D01*
X56617000Y-69203414D01*
X56617780Y-69189529D01*
X56622065Y-69151501D01*
X56622065Y-69151498D01*
X56617780Y-69113469D01*
X56617000Y-69099585D01*
X56617000Y-69072657D01*
X56609211Y-69033503D01*
X56607610Y-69023214D01*
X56601868Y-68972245D01*
X56593523Y-68948398D01*
X56588949Y-68931639D01*
X56586237Y-68918003D01*
X56586235Y-68917998D01*
X56586234Y-68917994D01*
X56565992Y-68869127D01*
X56563522Y-68862660D01*
X56542289Y-68801978D01*
X56535788Y-68791632D01*
X56526220Y-68773111D01*
X56525893Y-68772321D01*
X56489294Y-68717546D01*
X56487409Y-68714637D01*
X56446316Y-68649238D01*
X56318760Y-68521682D01*
X56318757Y-68521680D01*
X56253354Y-68480585D01*
X56250462Y-68478711D01*
X56211511Y-68452685D01*
X56195684Y-68442110D01*
X56195681Y-68442108D01*
X56195679Y-68442107D01*
X56195675Y-68442105D01*
X56195665Y-68442100D01*
X56194875Y-68441773D01*
X56176368Y-68432212D01*
X56166022Y-68425711D01*
X56136085Y-68415235D01*
X56105356Y-68404482D01*
X56098863Y-68402003D01*
X56049997Y-68381763D01*
X56049993Y-68381762D01*
X56036360Y-68379050D01*
X56019604Y-68374476D01*
X55995760Y-68366133D01*
X55995756Y-68366132D01*
X55995755Y-68366132D01*
X55975075Y-68363801D01*
X55944803Y-68360390D01*
X55934503Y-68358788D01*
X55895344Y-68351000D01*
X55895342Y-68351000D01*
X55868415Y-68351000D01*
X55854531Y-68350220D01*
X55816502Y-68345935D01*
X55816498Y-68345935D01*
X55778469Y-68350220D01*
X55764585Y-68351000D01*
X55737652Y-68351000D01*
X55698494Y-68358788D01*
X55688196Y-68360390D01*
X55637242Y-68366132D01*
X55637239Y-68366133D01*
X55613400Y-68374475D01*
X55596639Y-68379050D01*
X55583004Y-68381762D01*
X55534127Y-68402007D01*
X55527633Y-68404486D01*
X55466975Y-68425712D01*
X55456627Y-68432214D01*
X55438127Y-68441772D01*
X55437325Y-68442104D01*
X55437324Y-68442104D01*
X55382535Y-68478711D01*
X55379623Y-68480598D01*
X55314238Y-68521683D01*
X55314235Y-68521686D01*
X52575711Y-71260211D01*
X52519960Y-71315962D01*
X52464209Y-71371712D01*
X52376609Y-71502814D01*
X52376602Y-71502827D01*
X52316264Y-71648498D01*
X52316261Y-71648510D01*
X52285500Y-71803153D01*
X52285500Y-73785060D01*
X52265815Y-73852099D01*
X52249181Y-73872741D01*
X50924711Y-75197211D01*
X50868960Y-75252962D01*
X50813209Y-75308712D01*
X50725609Y-75439814D01*
X50725602Y-75439827D01*
X50665264Y-75585498D01*
X50665261Y-75585510D01*
X50634500Y-75740153D01*
X50634500Y-78357060D01*
X50614815Y-78424099D01*
X50598181Y-78444741D01*
X50543711Y-78499211D01*
X50514209Y-78528713D01*
X50432209Y-78610712D01*
X50344609Y-78741814D01*
X50344602Y-78741827D01*
X50284264Y-78887498D01*
X50284261Y-78887510D01*
X50253500Y-79042153D01*
X50253500Y-80863500D01*
X50233815Y-80930539D01*
X50181011Y-80976294D01*
X50129500Y-80987500D01*
X38040940Y-80987500D01*
X37973901Y-80967815D01*
X37953259Y-80951181D01*
X36250077Y-79247999D01*
X39528341Y-79247999D01*
X39528341Y-79248000D01*
X39548936Y-79483403D01*
X39548938Y-79483413D01*
X39610094Y-79711655D01*
X39610096Y-79711659D01*
X39610097Y-79711663D01*
X39678252Y-79857821D01*
X39709965Y-79925830D01*
X39709967Y-79925834D01*
X39809326Y-80067732D01*
X39845505Y-80119401D01*
X40012599Y-80286495D01*
X40107565Y-80352991D01*
X40206165Y-80422032D01*
X40206167Y-80422033D01*
X40206170Y-80422035D01*
X40420337Y-80521903D01*
X40648592Y-80583063D01*
X40825034Y-80598500D01*
X40883999Y-80603659D01*
X40884000Y-80603659D01*
X40884001Y-80603659D01*
X40942966Y-80598500D01*
X41119408Y-80583063D01*
X41347663Y-80521903D01*
X41561830Y-80422035D01*
X41755401Y-80286495D01*
X41922495Y-80119401D01*
X42052425Y-79933842D01*
X42107002Y-79890217D01*
X42176500Y-79883023D01*
X42238855Y-79914546D01*
X42255575Y-79933842D01*
X42385500Y-80119395D01*
X42385505Y-80119401D01*
X42552599Y-80286495D01*
X42647565Y-80352991D01*
X42746165Y-80422032D01*
X42746167Y-80422033D01*
X42746170Y-80422035D01*
X42960337Y-80521903D01*
X43188592Y-80583063D01*
X43365034Y-80598500D01*
X43423999Y-80603659D01*
X43424000Y-80603659D01*
X43424001Y-80603659D01*
X43482966Y-80598500D01*
X43659408Y-80583063D01*
X43887663Y-80521903D01*
X44101830Y-80422035D01*
X44295401Y-80286495D01*
X44462495Y-80119401D01*
X44592425Y-79933842D01*
X44647002Y-79890217D01*
X44716500Y-79883023D01*
X44778855Y-79914546D01*
X44795575Y-79933842D01*
X44925500Y-80119395D01*
X44925505Y-80119401D01*
X45092599Y-80286495D01*
X45187565Y-80352991D01*
X45286165Y-80422032D01*
X45286167Y-80422033D01*
X45286170Y-80422035D01*
X45500337Y-80521903D01*
X45728592Y-80583063D01*
X45905034Y-80598500D01*
X45963999Y-80603659D01*
X45964000Y-80603659D01*
X45964001Y-80603659D01*
X46022966Y-80598500D01*
X46199408Y-80583063D01*
X46427663Y-80521903D01*
X46641830Y-80422035D01*
X46835401Y-80286495D01*
X46957329Y-80164566D01*
X47018648Y-80131084D01*
X47088340Y-80136068D01*
X47144274Y-80177939D01*
X47161189Y-80208917D01*
X47210202Y-80340328D01*
X47210206Y-80340335D01*
X47296452Y-80455544D01*
X47296455Y-80455547D01*
X47411664Y-80541793D01*
X47411671Y-80541797D01*
X47546517Y-80592091D01*
X47546516Y-80592091D01*
X47553444Y-80592835D01*
X47606127Y-80598500D01*
X49401872Y-80598499D01*
X49461483Y-80592091D01*
X49596331Y-80541796D01*
X49711546Y-80455546D01*
X49797796Y-80340331D01*
X49848091Y-80205483D01*
X49854500Y-80145873D01*
X49854499Y-78350128D01*
X49848091Y-78290517D01*
X49846810Y-78287083D01*
X49797797Y-78155671D01*
X49797793Y-78155664D01*
X49711547Y-78040455D01*
X49711544Y-78040452D01*
X49596335Y-77954206D01*
X49596328Y-77954202D01*
X49461482Y-77903908D01*
X49461483Y-77903908D01*
X49401883Y-77897501D01*
X49401881Y-77897500D01*
X49401873Y-77897500D01*
X49401864Y-77897500D01*
X47606129Y-77897500D01*
X47606123Y-77897501D01*
X47546516Y-77903908D01*
X47411671Y-77954202D01*
X47411664Y-77954206D01*
X47296455Y-78040452D01*
X47296452Y-78040455D01*
X47210206Y-78155664D01*
X47210203Y-78155669D01*
X47161189Y-78287083D01*
X47119317Y-78343016D01*
X47053853Y-78367433D01*
X46985580Y-78352581D01*
X46957326Y-78331430D01*
X46835402Y-78209506D01*
X46835395Y-78209501D01*
X46641834Y-78073967D01*
X46641830Y-78073965D01*
X46571439Y-78041141D01*
X46427663Y-77974097D01*
X46427659Y-77974096D01*
X46427655Y-77974094D01*
X46199413Y-77912938D01*
X46199403Y-77912936D01*
X45964001Y-77892341D01*
X45963999Y-77892341D01*
X45728596Y-77912936D01*
X45728586Y-77912938D01*
X45500344Y-77974094D01*
X45500335Y-77974098D01*
X45286171Y-78073964D01*
X45286169Y-78073965D01*
X45092597Y-78209505D01*
X44925505Y-78376597D01*
X44795575Y-78562158D01*
X44740998Y-78605783D01*
X44671500Y-78612977D01*
X44609145Y-78581454D01*
X44592425Y-78562158D01*
X44462494Y-78376597D01*
X44295402Y-78209506D01*
X44295395Y-78209501D01*
X44101834Y-78073967D01*
X44101830Y-78073965D01*
X44031439Y-78041141D01*
X43887663Y-77974097D01*
X43887659Y-77974096D01*
X43887655Y-77974094D01*
X43659413Y-77912938D01*
X43659403Y-77912936D01*
X43424001Y-77892341D01*
X43423999Y-77892341D01*
X43188596Y-77912936D01*
X43188586Y-77912938D01*
X42960344Y-77974094D01*
X42960335Y-77974098D01*
X42746171Y-78073964D01*
X42746169Y-78073965D01*
X42552597Y-78209505D01*
X42385505Y-78376597D01*
X42255575Y-78562158D01*
X42200998Y-78605783D01*
X42131500Y-78612977D01*
X42069145Y-78581454D01*
X42052425Y-78562158D01*
X41922494Y-78376597D01*
X41755402Y-78209506D01*
X41755395Y-78209501D01*
X41561834Y-78073967D01*
X41561830Y-78073965D01*
X41491439Y-78041141D01*
X41347663Y-77974097D01*
X41347659Y-77974096D01*
X41347655Y-77974094D01*
X41119413Y-77912938D01*
X41119403Y-77912936D01*
X40884001Y-77892341D01*
X40883999Y-77892341D01*
X40648596Y-77912936D01*
X40648586Y-77912938D01*
X40420344Y-77974094D01*
X40420335Y-77974098D01*
X40206171Y-78073964D01*
X40206169Y-78073965D01*
X40012597Y-78209505D01*
X39845505Y-78376597D01*
X39709965Y-78570169D01*
X39709964Y-78570171D01*
X39616401Y-78770816D01*
X39613039Y-78778029D01*
X39610098Y-78784335D01*
X39610094Y-78784344D01*
X39548938Y-79012586D01*
X39548936Y-79012596D01*
X39528341Y-79247999D01*
X36250077Y-79247999D01*
X34176819Y-77174741D01*
X34143334Y-77113418D01*
X34140500Y-77087060D01*
X34140500Y-68942156D01*
X34160185Y-68875117D01*
X34212989Y-68829362D01*
X34282147Y-68819418D01*
X34316903Y-68829773D01*
X34334337Y-68837903D01*
X34562592Y-68899063D01*
X34750918Y-68915539D01*
X34797999Y-68919659D01*
X34798000Y-68919659D01*
X34798001Y-68919659D01*
X34837234Y-68916226D01*
X35033408Y-68899063D01*
X35261663Y-68837903D01*
X35475830Y-68738035D01*
X35669401Y-68602495D01*
X35836495Y-68435401D01*
X35972035Y-68241830D01*
X36071903Y-68027663D01*
X36133063Y-67799408D01*
X36153659Y-67564000D01*
X36133063Y-67328592D01*
X36078723Y-67125789D01*
X36071905Y-67100344D01*
X36071904Y-67100343D01*
X36071903Y-67100337D01*
X35972035Y-66886171D01*
X35969940Y-66883178D01*
X35836494Y-66692597D01*
X35669402Y-66525506D01*
X35669396Y-66525501D01*
X35483842Y-66395575D01*
X35440217Y-66340998D01*
X35433023Y-66271500D01*
X35464546Y-66209145D01*
X35483842Y-66192425D01*
X35506026Y-66176891D01*
X35669401Y-66062495D01*
X35836495Y-65895401D01*
X35972035Y-65701830D01*
X36071903Y-65487663D01*
X36133063Y-65259408D01*
X36153659Y-65024000D01*
X36133063Y-64788592D01*
X36071903Y-64560337D01*
X35972035Y-64346171D01*
X35887413Y-64225317D01*
X35836494Y-64152597D01*
X35669402Y-63985506D01*
X35669401Y-63985505D01*
X35483405Y-63855269D01*
X35439781Y-63800692D01*
X35432588Y-63731193D01*
X35464110Y-63668839D01*
X35483405Y-63652119D01*
X35669082Y-63522105D01*
X35836105Y-63355082D01*
X35971600Y-63161578D01*
X36061738Y-62968274D01*
X50230339Y-62968274D01*
X50250060Y-63294312D01*
X50308941Y-63615615D01*
X50406109Y-63927438D01*
X50406113Y-63927449D01*
X50540171Y-64225315D01*
X50540172Y-64225317D01*
X50709155Y-64504850D01*
X50856750Y-64693242D01*
X51998982Y-63551010D01*
X52096241Y-63684876D01*
X52218672Y-63807307D01*
X52352536Y-63904564D01*
X51210304Y-65046796D01*
X51210304Y-65046797D01*
X51398697Y-65194392D01*
X51678230Y-65363375D01*
X51678232Y-65363376D01*
X51976098Y-65497434D01*
X51976109Y-65497438D01*
X52287932Y-65594606D01*
X52609235Y-65653487D01*
X52935274Y-65673208D01*
X53261312Y-65653487D01*
X53582615Y-65594606D01*
X53894438Y-65497438D01*
X53894449Y-65497434D01*
X53992838Y-65453153D01*
X65073502Y-65453153D01*
X65073502Y-65610846D01*
X65104263Y-65765489D01*
X65104266Y-65765501D01*
X65164604Y-65911172D01*
X65164611Y-65911185D01*
X65252212Y-66042288D01*
X65252215Y-66042292D01*
X66335706Y-67125783D01*
X66335713Y-67125789D01*
X66466820Y-67213391D01*
X66466821Y-67213391D01*
X66466822Y-67213392D01*
X66612504Y-67273736D01*
X66612508Y-67273736D01*
X66612509Y-67273737D01*
X66767155Y-67304499D01*
X66767158Y-67304499D01*
X66924845Y-67304499D01*
X66924846Y-67304498D01*
X67079498Y-67273736D01*
X67225180Y-67213392D01*
X67356290Y-67125788D01*
X67467790Y-67014288D01*
X67555394Y-66883178D01*
X67615738Y-66737496D01*
X67646501Y-66582841D01*
X67646501Y-66425156D01*
X67646501Y-66425153D01*
X67615739Y-66270507D01*
X67615738Y-66270506D01*
X67615738Y-66270502D01*
X67555394Y-66124820D01*
X67513752Y-66062498D01*
X67467791Y-65993711D01*
X67467785Y-65993704D01*
X66384294Y-64910213D01*
X66384290Y-64910210D01*
X66253187Y-64822609D01*
X66253174Y-64822602D01*
X66107503Y-64762264D01*
X66107491Y-64762261D01*
X65952847Y-64731500D01*
X65952844Y-64731500D01*
X65795160Y-64731500D01*
X65795157Y-64731500D01*
X65640512Y-64762261D01*
X65640500Y-64762264D01*
X65494829Y-64822602D01*
X65494816Y-64822609D01*
X65363713Y-64910210D01*
X65363709Y-64910213D01*
X65252215Y-65021707D01*
X65252212Y-65021711D01*
X65164611Y-65152814D01*
X65164604Y-65152827D01*
X65104266Y-65298498D01*
X65104263Y-65298510D01*
X65073502Y-65453153D01*
X53992838Y-65453153D01*
X54192315Y-65363376D01*
X54192317Y-65363375D01*
X54471860Y-65194386D01*
X54660242Y-65046797D01*
X54660242Y-65046796D01*
X53518011Y-63904564D01*
X53651876Y-63807307D01*
X53774307Y-63684876D01*
X53871564Y-63551011D01*
X55013796Y-64693242D01*
X55013797Y-64693242D01*
X55161386Y-64504860D01*
X55330375Y-64225317D01*
X55330376Y-64225315D01*
X55464434Y-63927449D01*
X55464438Y-63927438D01*
X55561606Y-63615615D01*
X55620487Y-63294312D01*
X55640208Y-62968274D01*
X55620487Y-62642235D01*
X55561606Y-62320932D01*
X55464438Y-62009109D01*
X55464434Y-62009098D01*
X55330376Y-61711232D01*
X55330375Y-61711230D01*
X55161392Y-61431697D01*
X55013796Y-61243304D01*
X53871564Y-62385536D01*
X53774307Y-62251672D01*
X53651876Y-62129241D01*
X53518010Y-62031983D01*
X54660242Y-60889750D01*
X54471850Y-60742155D01*
X54192317Y-60573172D01*
X54192315Y-60573171D01*
X53894449Y-60439113D01*
X53894438Y-60439109D01*
X53582615Y-60341941D01*
X53261312Y-60283060D01*
X52935274Y-60263339D01*
X52609235Y-60283060D01*
X52287932Y-60341941D01*
X51976109Y-60439109D01*
X51976098Y-60439113D01*
X51678232Y-60573171D01*
X51678230Y-60573172D01*
X51398696Y-60742155D01*
X51398690Y-60742160D01*
X51210304Y-60889748D01*
X51210303Y-60889750D01*
X52352536Y-62031983D01*
X52218672Y-62129241D01*
X52096241Y-62251672D01*
X51998983Y-62385536D01*
X50856750Y-61243303D01*
X50856748Y-61243304D01*
X50709160Y-61431690D01*
X50709155Y-61431696D01*
X50540172Y-61711230D01*
X50540171Y-61711232D01*
X50406113Y-62009098D01*
X50406109Y-62009109D01*
X50308941Y-62320932D01*
X50250060Y-62642235D01*
X50230339Y-62968274D01*
X36061738Y-62968274D01*
X36071429Y-62947492D01*
X36071432Y-62947486D01*
X36128636Y-62734000D01*
X35231012Y-62734000D01*
X35263925Y-62676993D01*
X35298000Y-62549826D01*
X35298000Y-62418174D01*
X35263925Y-62291007D01*
X35231012Y-62234000D01*
X36128636Y-62234000D01*
X36128635Y-62233999D01*
X36071432Y-62020513D01*
X36071429Y-62020507D01*
X35971600Y-61806422D01*
X35971599Y-61806420D01*
X35836113Y-61612926D01*
X35836108Y-61612920D01*
X35669078Y-61445890D01*
X35483405Y-61315879D01*
X35439780Y-61261302D01*
X35432588Y-61191804D01*
X35464110Y-61129449D01*
X35483406Y-61112730D01*
X35669401Y-60982495D01*
X35836495Y-60815401D01*
X35849116Y-60797375D01*
X35903693Y-60753752D01*
X35950691Y-60744500D01*
X43766844Y-60744500D01*
X43766845Y-60744499D01*
X43921497Y-60713737D01*
X44067179Y-60653394D01*
X44198289Y-60565789D01*
X48373789Y-56390289D01*
X48461394Y-56259179D01*
X48521737Y-56113497D01*
X48552500Y-55958842D01*
X48552500Y-55801158D01*
X48552500Y-50454500D01*
X48572185Y-50387461D01*
X48624989Y-50341706D01*
X48676500Y-50330500D01*
X52656844Y-50330500D01*
X52656845Y-50330499D01*
X52811497Y-50299737D01*
X52957179Y-50239394D01*
X53088289Y-50151789D01*
X53326789Y-49913289D01*
X54215789Y-49024289D01*
X54223816Y-49016262D01*
X54264931Y-48950825D01*
X54266777Y-48947979D01*
X54293348Y-48908213D01*
X54303394Y-48893179D01*
X54303720Y-48892390D01*
X54313287Y-48873868D01*
X54319789Y-48863522D01*
X54341023Y-48802837D01*
X54343484Y-48796389D01*
X54363737Y-48747497D01*
X54366448Y-48733862D01*
X54371023Y-48717100D01*
X54379368Y-48693255D01*
X54379368Y-48693254D01*
X54379498Y-48692883D01*
X54420223Y-48636110D01*
X54485177Y-48610366D01*
X54553738Y-48623827D01*
X54584218Y-48646164D01*
X55955181Y-50017127D01*
X55988666Y-50078450D01*
X55991500Y-50104808D01*
X55991500Y-58992070D01*
X56007519Y-59072598D01*
X56007519Y-59072600D01*
X56016497Y-59117736D01*
X56016499Y-59117744D01*
X56058113Y-59218210D01*
X56065535Y-59236127D01*
X56131524Y-59334888D01*
X56136726Y-59342673D01*
X56735327Y-59941274D01*
X56735330Y-59941276D01*
X56774380Y-59967368D01*
X56841873Y-60012465D01*
X56960256Y-60061501D01*
X56960260Y-60061501D01*
X56960261Y-60061502D01*
X57085928Y-60086500D01*
X57085931Y-60086500D01*
X67947788Y-60086500D01*
X68014827Y-60106185D01*
X68060582Y-60158989D01*
X68064830Y-60169546D01*
X68108210Y-60293521D01*
X68199689Y-60439109D01*
X68204184Y-60446262D01*
X68331738Y-60573816D01*
X68422080Y-60630582D01*
X68458385Y-60653394D01*
X68484478Y-60669789D01*
X68610074Y-60713737D01*
X68654745Y-60729368D01*
X68654750Y-60729369D01*
X68833996Y-60749565D01*
X68834000Y-60749565D01*
X68834004Y-60749565D01*
X69013249Y-60729369D01*
X69013252Y-60729368D01*
X69013255Y-60729368D01*
X69183522Y-60669789D01*
X69336262Y-60573816D01*
X69463816Y-60446262D01*
X69559789Y-60293522D01*
X69619368Y-60123255D01*
X69619369Y-60123249D01*
X69639565Y-59944003D01*
X69639565Y-59943996D01*
X69619369Y-59764750D01*
X69619368Y-59764745D01*
X69559789Y-59594478D01*
X69535975Y-59556579D01*
X69463815Y-59441737D01*
X69336262Y-59314184D01*
X69183521Y-59218210D01*
X69013255Y-59158632D01*
X69013246Y-59158630D01*
X69006012Y-59157815D01*
X68941600Y-59130744D01*
X68932223Y-59122277D01*
X68740674Y-58930727D01*
X68740673Y-58930726D01*
X68740669Y-58930723D01*
X68634127Y-58859535D01*
X68568803Y-58832477D01*
X68515744Y-58810499D01*
X68515738Y-58810497D01*
X68390071Y-58785500D01*
X68390069Y-58785500D01*
X57470808Y-58785500D01*
X57403769Y-58765815D01*
X57383127Y-58749181D01*
X57328819Y-58694873D01*
X57295334Y-58633550D01*
X57292500Y-58607192D01*
X57292500Y-49719928D01*
X57267502Y-49594261D01*
X57267501Y-49594260D01*
X57267501Y-49594256D01*
X57218465Y-49475873D01*
X57170791Y-49404523D01*
X57170791Y-49404522D01*
X57147275Y-49369328D01*
X54986673Y-47208726D01*
X54986669Y-47208723D01*
X54880127Y-47137535D01*
X54761744Y-47088499D01*
X54761738Y-47088497D01*
X54636071Y-47063500D01*
X54636069Y-47063500D01*
X51995548Y-47063500D01*
X51928509Y-47043815D01*
X51926657Y-47042602D01*
X51869550Y-47004444D01*
X51869548Y-47004443D01*
X51861725Y-47001203D01*
X51843208Y-46991637D01*
X51837503Y-46988052D01*
X51835059Y-46987196D01*
X51792256Y-46972219D01*
X51785805Y-46969757D01*
X51723871Y-46944103D01*
X51704671Y-46940283D01*
X51687918Y-46935709D01*
X51667237Y-46928473D01*
X51667226Y-46928470D01*
X51621806Y-46923353D01*
X51611498Y-46921750D01*
X51569219Y-46913340D01*
X51569216Y-46913340D01*
X51539893Y-46913340D01*
X51526009Y-46912560D01*
X51487980Y-46908275D01*
X51487976Y-46908275D01*
X51449947Y-46912560D01*
X51436063Y-46913340D01*
X51409130Y-46913340D01*
X51369972Y-46921128D01*
X51359674Y-46922730D01*
X51308720Y-46928472D01*
X51308713Y-46928474D01*
X51284876Y-46936815D01*
X51268118Y-46941390D01*
X51254480Y-46944103D01*
X51254474Y-46944104D01*
X51205609Y-46964344D01*
X51199118Y-46966822D01*
X51138455Y-46988050D01*
X51138452Y-46988052D01*
X51128105Y-46994553D01*
X51109617Y-47004106D01*
X51108810Y-47004440D01*
X51108802Y-47004444D01*
X51054025Y-47041044D01*
X51051110Y-47042932D01*
X50985720Y-47084020D01*
X50985713Y-47084026D01*
X50858164Y-47211575D01*
X50858158Y-47211582D01*
X50817070Y-47276972D01*
X50815187Y-47279878D01*
X50788043Y-47320504D01*
X50778582Y-47334664D01*
X50778578Y-47334672D01*
X50778244Y-47335479D01*
X50768691Y-47353967D01*
X50762190Y-47364314D01*
X50762188Y-47364317D01*
X50740960Y-47424980D01*
X50738482Y-47431471D01*
X50718242Y-47480336D01*
X50718241Y-47480342D01*
X50715528Y-47493980D01*
X50710953Y-47510738D01*
X50702612Y-47534575D01*
X50702610Y-47534582D01*
X50696868Y-47585536D01*
X50695266Y-47595834D01*
X50687478Y-47634992D01*
X50687478Y-47661925D01*
X50686698Y-47675809D01*
X50682413Y-47713838D01*
X50682413Y-47713841D01*
X50686698Y-47751869D01*
X50687478Y-47765754D01*
X50687478Y-47792684D01*
X50695266Y-47831843D01*
X50696868Y-47842143D01*
X50698732Y-47858682D01*
X50702345Y-47890746D01*
X50702610Y-47893092D01*
X50702611Y-47893100D01*
X50710954Y-47916944D01*
X50715528Y-47933700D01*
X50718240Y-47947336D01*
X50734070Y-47985553D01*
X50736391Y-47991158D01*
X50738487Y-47996217D01*
X50740964Y-48002707D01*
X50757163Y-48049000D01*
X50762190Y-48063364D01*
X50768687Y-48073705D01*
X50778246Y-48092205D01*
X50778581Y-48093013D01*
X50778583Y-48093019D01*
X50815201Y-48147822D01*
X50817092Y-48150740D01*
X50858158Y-48216097D01*
X50858160Y-48216100D01*
X50858162Y-48216102D01*
X50985716Y-48343656D01*
X51051109Y-48384745D01*
X51054018Y-48386630D01*
X51108799Y-48423234D01*
X51109584Y-48423559D01*
X51128112Y-48433129D01*
X51138456Y-48439629D01*
X51199153Y-48460868D01*
X51205585Y-48463324D01*
X51233999Y-48475093D01*
X51254475Y-48483575D01*
X51254479Y-48483576D01*
X51254481Y-48483577D01*
X51254482Y-48483577D01*
X51254485Y-48483578D01*
X51256013Y-48483882D01*
X51256739Y-48484262D01*
X51260313Y-48485346D01*
X51260107Y-48486023D01*
X51317925Y-48516265D01*
X51352501Y-48576980D01*
X51348763Y-48646749D01*
X51307898Y-48703423D01*
X51242881Y-48729006D01*
X51231825Y-48729500D01*
X48676500Y-48729500D01*
X48609461Y-48709815D01*
X48563706Y-48657011D01*
X48552500Y-48605500D01*
X48552500Y-45340940D01*
X48572185Y-45273901D01*
X48588819Y-45253259D01*
X50079259Y-43762819D01*
X50140582Y-43729334D01*
X50166940Y-43726500D01*
X60627158Y-43726500D01*
X60654085Y-43726500D01*
X60667969Y-43727280D01*
X60705998Y-43731565D01*
X60706000Y-43731565D01*
X60706002Y-43731565D01*
X60744031Y-43727280D01*
X60757915Y-43726500D01*
X69361832Y-43726500D01*
X69375713Y-43727279D01*
X69393945Y-43729334D01*
X69537997Y-43745565D01*
X69538000Y-43745565D01*
X69538003Y-43745565D01*
X69682055Y-43729334D01*
X69700286Y-43727279D01*
X69714168Y-43726500D01*
X70323832Y-43726500D01*
X70337713Y-43727279D01*
X70355945Y-43729334D01*
X70499997Y-43745565D01*
X70500000Y-43745565D01*
X70500004Y-43745565D01*
X70679249Y-43725369D01*
X70679252Y-43725368D01*
X70679255Y-43725368D01*
X70849522Y-43665789D01*
X71002262Y-43569816D01*
X71129816Y-43442262D01*
X71225789Y-43289522D01*
X71285368Y-43119255D01*
X71285866Y-43114838D01*
X71305565Y-42940003D01*
X71305565Y-42939996D01*
X71285369Y-42760750D01*
X71285368Y-42760745D01*
X71261595Y-42692807D01*
X71225789Y-42590478D01*
X71129816Y-42437738D01*
X71002262Y-42310184D01*
X70885751Y-42236975D01*
X70882832Y-42235083D01*
X70855180Y-42216606D01*
X70855176Y-42216604D01*
X70853536Y-42215925D01*
X70849602Y-42214163D01*
X70845496Y-42212595D01*
X70709501Y-42156264D01*
X70709489Y-42156261D01*
X70554845Y-42125500D01*
X70554842Y-42125500D01*
X60784842Y-42125500D01*
X60757915Y-42125500D01*
X60744031Y-42124720D01*
X60706002Y-42120435D01*
X60705998Y-42120435D01*
X60667969Y-42124720D01*
X60654085Y-42125500D01*
X49705155Y-42125500D01*
X49550510Y-42156261D01*
X49550498Y-42156264D01*
X49404827Y-42216602D01*
X49404814Y-42216609D01*
X49273711Y-42304210D01*
X49273707Y-42304213D01*
X47726787Y-43851135D01*
X47241711Y-44336211D01*
X47198922Y-44379000D01*
X47130209Y-44447712D01*
X47042609Y-44578814D01*
X47042602Y-44578827D01*
X46982264Y-44724498D01*
X46982261Y-44724510D01*
X46951500Y-44879153D01*
X46951500Y-55497060D01*
X46931815Y-55564099D01*
X46915181Y-55584741D01*
X43392741Y-59107181D01*
X43331418Y-59140666D01*
X43305060Y-59143500D01*
X35950691Y-59143500D01*
X35883652Y-59123815D01*
X35849116Y-59090624D01*
X35836495Y-59072599D01*
X35836493Y-59072597D01*
X35836491Y-59072594D01*
X35669402Y-58905506D01*
X35669396Y-58905501D01*
X35483842Y-58775575D01*
X35440217Y-58720998D01*
X35433023Y-58651500D01*
X35464546Y-58589145D01*
X35483842Y-58572425D01*
X35520151Y-58547001D01*
X35669401Y-58442495D01*
X35836495Y-58275401D01*
X35972035Y-58081830D01*
X36071903Y-57867663D01*
X36133063Y-57639408D01*
X36153659Y-57404000D01*
X36133063Y-57168592D01*
X36071947Y-56940500D01*
X36071905Y-56940344D01*
X36071904Y-56940343D01*
X36071903Y-56940337D01*
X35972035Y-56726171D01*
X35947277Y-56690812D01*
X35836494Y-56532597D01*
X35669402Y-56365506D01*
X35669396Y-56365501D01*
X35483842Y-56235575D01*
X35440217Y-56180998D01*
X35433023Y-56111500D01*
X35464546Y-56049145D01*
X35483842Y-56032425D01*
X35567841Y-55973608D01*
X35669401Y-55902495D01*
X35836495Y-55735401D01*
X35972035Y-55541830D01*
X36071903Y-55327663D01*
X36133063Y-55099408D01*
X36153659Y-54864000D01*
X36133063Y-54628592D01*
X36071903Y-54400337D01*
X35972035Y-54186171D01*
X35836495Y-53992599D01*
X35714567Y-53870671D01*
X35681084Y-53809351D01*
X35686068Y-53739659D01*
X35727939Y-53683725D01*
X35758915Y-53666810D01*
X35890331Y-53617796D01*
X36005546Y-53531546D01*
X36091796Y-53416331D01*
X36142091Y-53281483D01*
X36148500Y-53221873D01*
X36148499Y-51426128D01*
X36142091Y-51366517D01*
X36091796Y-51231669D01*
X36091795Y-51231668D01*
X36091793Y-51231664D01*
X36005547Y-51116455D01*
X36005544Y-51116452D01*
X35890335Y-51030206D01*
X35890328Y-51030202D01*
X35755482Y-50979908D01*
X35755483Y-50979908D01*
X35695883Y-50973501D01*
X35695881Y-50973500D01*
X35695873Y-50973500D01*
X35695865Y-50973500D01*
X34277940Y-50973500D01*
X34210901Y-50953815D01*
X34165146Y-50901011D01*
X34155202Y-50831853D01*
X34184227Y-50768297D01*
X34190259Y-50761819D01*
X34585259Y-50366819D01*
X34646582Y-50333334D01*
X34672940Y-50330500D01*
X44418844Y-50330500D01*
X44418845Y-50330499D01*
X44573497Y-50299737D01*
X44719179Y-50239394D01*
X44850289Y-50151789D01*
X45391789Y-49610289D01*
X45399816Y-49602262D01*
X45440931Y-49536825D01*
X45442777Y-49533979D01*
X45479394Y-49479179D01*
X45479720Y-49478390D01*
X45489287Y-49459868D01*
X45495789Y-49449522D01*
X45517023Y-49388837D01*
X45519484Y-49382389D01*
X45539737Y-49333497D01*
X45542448Y-49319862D01*
X45547023Y-49303100D01*
X45555368Y-49279255D01*
X45561110Y-49228283D01*
X45562707Y-49218017D01*
X45570500Y-49178842D01*
X45570500Y-49151914D01*
X45571280Y-49138029D01*
X45575565Y-49100001D01*
X45575565Y-49099998D01*
X45571280Y-49061969D01*
X45570500Y-49048085D01*
X45570500Y-48121914D01*
X45571280Y-48108029D01*
X45575565Y-48070001D01*
X45575565Y-48069998D01*
X45571280Y-48031969D01*
X45570500Y-48018085D01*
X45570500Y-47991157D01*
X45562711Y-47952003D01*
X45561110Y-47941714D01*
X45555368Y-47890745D01*
X45547023Y-47866898D01*
X45542449Y-47850139D01*
X45539737Y-47836503D01*
X45539734Y-47836496D01*
X45531253Y-47816021D01*
X45519484Y-47787607D01*
X45517028Y-47781175D01*
X45495789Y-47720478D01*
X45489289Y-47710134D01*
X45479719Y-47691606D01*
X45479394Y-47690821D01*
X45442790Y-47636040D01*
X45440905Y-47633131D01*
X45410999Y-47585536D01*
X45399816Y-47567738D01*
X45272262Y-47440184D01*
X45272260Y-47440182D01*
X45272257Y-47440180D01*
X45206900Y-47399114D01*
X45203982Y-47397223D01*
X45149179Y-47360605D01*
X45149173Y-47360603D01*
X45148365Y-47360268D01*
X45129865Y-47350709D01*
X45119524Y-47344212D01*
X45119523Y-47344211D01*
X45119522Y-47344211D01*
X45058867Y-47322986D01*
X45052377Y-47320509D01*
X45003496Y-47300262D01*
X44989860Y-47297550D01*
X44973104Y-47292976D01*
X44949260Y-47284633D01*
X44949256Y-47284632D01*
X44949255Y-47284632D01*
X44928575Y-47282301D01*
X44898303Y-47278890D01*
X44888003Y-47277288D01*
X44848844Y-47269500D01*
X44848842Y-47269500D01*
X44821915Y-47269500D01*
X44808031Y-47268720D01*
X44770002Y-47264435D01*
X44769998Y-47264435D01*
X44731969Y-47268720D01*
X44718085Y-47269500D01*
X44691152Y-47269500D01*
X44651994Y-47277288D01*
X44641696Y-47278890D01*
X44590742Y-47284632D01*
X44590735Y-47284634D01*
X44566898Y-47292975D01*
X44550140Y-47297550D01*
X44536502Y-47300263D01*
X44536496Y-47300264D01*
X44487631Y-47320504D01*
X44481140Y-47322982D01*
X44420477Y-47344210D01*
X44420474Y-47344212D01*
X44410127Y-47350713D01*
X44391639Y-47360266D01*
X44390832Y-47360600D01*
X44390824Y-47360604D01*
X44336047Y-47397204D01*
X44333132Y-47399092D01*
X44267742Y-47440180D01*
X44267735Y-47440186D01*
X44140186Y-47567735D01*
X44140180Y-47567742D01*
X44099092Y-47633132D01*
X44097204Y-47636047D01*
X44060604Y-47690824D01*
X44060600Y-47690832D01*
X44060266Y-47691639D01*
X44050713Y-47710127D01*
X44044212Y-47720474D01*
X44044210Y-47720477D01*
X44022982Y-47781140D01*
X44020504Y-47787631D01*
X44000264Y-47836496D01*
X44000263Y-47836502D01*
X43997550Y-47850140D01*
X43992975Y-47866898D01*
X43984634Y-47890735D01*
X43984632Y-47890742D01*
X43978890Y-47941696D01*
X43977288Y-47951994D01*
X43969500Y-47991152D01*
X43969500Y-48018085D01*
X43968720Y-48031969D01*
X43964435Y-48069998D01*
X43964435Y-48070001D01*
X43968720Y-48108029D01*
X43969500Y-48121914D01*
X43969500Y-48605500D01*
X43949815Y-48672539D01*
X43897011Y-48718294D01*
X43845500Y-48729500D01*
X34211155Y-48729500D01*
X34056510Y-48760261D01*
X34056498Y-48760264D01*
X33910827Y-48820602D01*
X33910814Y-48820609D01*
X33779711Y-48908210D01*
X33779707Y-48908213D01*
X33224181Y-49463740D01*
X33162858Y-49497225D01*
X33093166Y-49492241D01*
X33037233Y-49450369D01*
X33012816Y-49384905D01*
X33012500Y-49376059D01*
X33012500Y-45523077D01*
X33032185Y-45456038D01*
X33084989Y-45410283D01*
X33154147Y-45400339D01*
X33217703Y-45429364D01*
X33224181Y-45435396D01*
X33244533Y-45455748D01*
X33244537Y-45455751D01*
X33408315Y-45565185D01*
X33408328Y-45565192D01*
X33590308Y-45640569D01*
X33632000Y-45648862D01*
X33632000Y-44845988D01*
X33641940Y-44863205D01*
X33697795Y-44919060D01*
X33766204Y-44958556D01*
X33842504Y-44979000D01*
X33921496Y-44979000D01*
X33997796Y-44958556D01*
X34066205Y-44919060D01*
X34122060Y-44863205D01*
X34132000Y-44845988D01*
X34132000Y-45648862D01*
X34173690Y-45640569D01*
X34173692Y-45640569D01*
X34288540Y-45592998D01*
X34996435Y-45592998D01*
X34996435Y-45593001D01*
X35000720Y-45631029D01*
X35001500Y-45644914D01*
X35001500Y-45671844D01*
X35009288Y-45711003D01*
X35010890Y-45721303D01*
X35016632Y-45772252D01*
X35016633Y-45772260D01*
X35024976Y-45796104D01*
X35029550Y-45812860D01*
X35032262Y-45826496D01*
X35052509Y-45875377D01*
X35054988Y-45881872D01*
X35076212Y-45942524D01*
X35082709Y-45952865D01*
X35092268Y-45971365D01*
X35092603Y-45972173D01*
X35092605Y-45972179D01*
X35129223Y-46026982D01*
X35131110Y-46029894D01*
X35135620Y-46037072D01*
X35172180Y-46095257D01*
X35172182Y-46095260D01*
X35172184Y-46095262D01*
X35180211Y-46103289D01*
X35434211Y-46357289D01*
X35545711Y-46468789D01*
X35545712Y-46468790D01*
X35676814Y-46556390D01*
X35676827Y-46556397D01*
X35822498Y-46616735D01*
X35822503Y-46616737D01*
X35822507Y-46616737D01*
X35822508Y-46616738D01*
X35977154Y-46647500D01*
X35977157Y-46647500D01*
X40718844Y-46647500D01*
X40718845Y-46647499D01*
X40873497Y-46616737D01*
X41019179Y-46556394D01*
X41150289Y-46468789D01*
X41285289Y-46333789D01*
X41293316Y-46325762D01*
X41334431Y-46260325D01*
X41336277Y-46257479D01*
X41372889Y-46202686D01*
X41372894Y-46202679D01*
X41373220Y-46201890D01*
X41382787Y-46183368D01*
X41389289Y-46173022D01*
X41410523Y-46112337D01*
X41412984Y-46105889D01*
X41433237Y-46056997D01*
X41435948Y-46043362D01*
X41440523Y-46026600D01*
X41448868Y-46002755D01*
X41454610Y-45951783D01*
X41456207Y-45941517D01*
X41464000Y-45902342D01*
X41464000Y-45875414D01*
X41464780Y-45861529D01*
X41469065Y-45823501D01*
X41469065Y-45823498D01*
X41464780Y-45785469D01*
X41464000Y-45771585D01*
X41464000Y-45744657D01*
X41459354Y-45721303D01*
X41456209Y-45705492D01*
X41454610Y-45695214D01*
X41448868Y-45644245D01*
X41440523Y-45620398D01*
X41435949Y-45603639D01*
X41433237Y-45590003D01*
X41412984Y-45541107D01*
X41410528Y-45534675D01*
X41389289Y-45473978D01*
X41382789Y-45463634D01*
X41373219Y-45445106D01*
X41372894Y-45444321D01*
X41336290Y-45389540D01*
X41334405Y-45386631D01*
X41293316Y-45321238D01*
X41165762Y-45193684D01*
X41165760Y-45193682D01*
X41165757Y-45193680D01*
X41105999Y-45156132D01*
X41100394Y-45152610D01*
X41097482Y-45150723D01*
X41042679Y-45114105D01*
X41042673Y-45114103D01*
X41041865Y-45113768D01*
X41023365Y-45104209D01*
X41013024Y-45097712D01*
X41013023Y-45097711D01*
X41013022Y-45097711D01*
X40952367Y-45076486D01*
X40945877Y-45074009D01*
X40896996Y-45053762D01*
X40883360Y-45051050D01*
X40866604Y-45046476D01*
X40842760Y-45038133D01*
X40842756Y-45038132D01*
X40842755Y-45038132D01*
X40822075Y-45035801D01*
X40791803Y-45032390D01*
X40781503Y-45030788D01*
X40742344Y-45023000D01*
X40742342Y-45023000D01*
X40715415Y-45023000D01*
X40701531Y-45022220D01*
X40663502Y-45017935D01*
X40663498Y-45017935D01*
X40625469Y-45022220D01*
X40611585Y-45023000D01*
X40584652Y-45023000D01*
X40545494Y-45030788D01*
X40535195Y-45032390D01*
X40484245Y-45038132D01*
X40480216Y-45039541D01*
X40439263Y-45046500D01*
X36438940Y-45046500D01*
X36371901Y-45026815D01*
X36351259Y-45010181D01*
X36304260Y-44963182D01*
X36304257Y-44963180D01*
X36238900Y-44922114D01*
X36235982Y-44920223D01*
X36181179Y-44883605D01*
X36181173Y-44883603D01*
X36180365Y-44883268D01*
X36161865Y-44873709D01*
X36151524Y-44867212D01*
X36151523Y-44867211D01*
X36151522Y-44867211D01*
X36090867Y-44845986D01*
X36084377Y-44843509D01*
X36035496Y-44823262D01*
X36021860Y-44820550D01*
X36005104Y-44815976D01*
X35981260Y-44807633D01*
X35981256Y-44807632D01*
X35981255Y-44807632D01*
X35960575Y-44805301D01*
X35930303Y-44801890D01*
X35920003Y-44800288D01*
X35880844Y-44792500D01*
X35880842Y-44792500D01*
X35853915Y-44792500D01*
X35840031Y-44791720D01*
X35802002Y-44787435D01*
X35801998Y-44787435D01*
X35763969Y-44791720D01*
X35750085Y-44792500D01*
X35723152Y-44792500D01*
X35683994Y-44800288D01*
X35673696Y-44801890D01*
X35622742Y-44807632D01*
X35622735Y-44807634D01*
X35598898Y-44815975D01*
X35582140Y-44820550D01*
X35568502Y-44823263D01*
X35568496Y-44823264D01*
X35519631Y-44843504D01*
X35513140Y-44845982D01*
X35452477Y-44867210D01*
X35452474Y-44867212D01*
X35442127Y-44873713D01*
X35423639Y-44883266D01*
X35422832Y-44883600D01*
X35422824Y-44883604D01*
X35368047Y-44920204D01*
X35365132Y-44922092D01*
X35299742Y-44963180D01*
X35299735Y-44963186D01*
X35172186Y-45090735D01*
X35172180Y-45090742D01*
X35131092Y-45156132D01*
X35129204Y-45159047D01*
X35092604Y-45213824D01*
X35092600Y-45213832D01*
X35092266Y-45214639D01*
X35082713Y-45233127D01*
X35076212Y-45243474D01*
X35076210Y-45243477D01*
X35054982Y-45304140D01*
X35052504Y-45310631D01*
X35032264Y-45359496D01*
X35032263Y-45359502D01*
X35029550Y-45373140D01*
X35024975Y-45389898D01*
X35016634Y-45413735D01*
X35016632Y-45413742D01*
X35010890Y-45464696D01*
X35009288Y-45474994D01*
X35001500Y-45514152D01*
X35001500Y-45541085D01*
X35000720Y-45554969D01*
X34996435Y-45592998D01*
X34288540Y-45592998D01*
X34355671Y-45565192D01*
X34355684Y-45565185D01*
X34519462Y-45455751D01*
X34519466Y-45455748D01*
X34658748Y-45316466D01*
X34658751Y-45316462D01*
X34768185Y-45152684D01*
X34768192Y-45152671D01*
X34843569Y-44970693D01*
X34843572Y-44970681D01*
X34881999Y-44777495D01*
X34882000Y-44777492D01*
X34882000Y-44260044D01*
X34901685Y-44193005D01*
X34954489Y-44147250D01*
X35023647Y-44137306D01*
X35068000Y-44152657D01*
X35089865Y-44165281D01*
X35236234Y-44204500D01*
X35236236Y-44204500D01*
X35387764Y-44204500D01*
X35387766Y-44204500D01*
X35534135Y-44165281D01*
X35665365Y-44089515D01*
X35772515Y-43982365D01*
X35848281Y-43851135D01*
X35887500Y-43704766D01*
X35887500Y-43553234D01*
X40516500Y-43553234D01*
X40516500Y-43704766D01*
X40522324Y-43726500D01*
X40555719Y-43851136D01*
X40571807Y-43879000D01*
X40631485Y-43982365D01*
X40738635Y-44089515D01*
X40869865Y-44165281D01*
X41016234Y-44204500D01*
X41016236Y-44204500D01*
X41167764Y-44204500D01*
X41167766Y-44204500D01*
X41314135Y-44165281D01*
X41335999Y-44152657D01*
X41403897Y-44136184D01*
X41469925Y-44159035D01*
X41513117Y-44213955D01*
X41522000Y-44260044D01*
X41522000Y-44777495D01*
X41560427Y-44970681D01*
X41560430Y-44970693D01*
X41635807Y-45152671D01*
X41635814Y-45152684D01*
X41745248Y-45316462D01*
X41745251Y-45316466D01*
X41884533Y-45455748D01*
X41884537Y-45455751D01*
X42048315Y-45565185D01*
X42048328Y-45565192D01*
X42230308Y-45640569D01*
X42272000Y-45648862D01*
X42272000Y-44845988D01*
X42281940Y-44863205D01*
X42337795Y-44919060D01*
X42406204Y-44958556D01*
X42482504Y-44979000D01*
X42561496Y-44979000D01*
X42637796Y-44958556D01*
X42706205Y-44919060D01*
X42762060Y-44863205D01*
X42772000Y-44845988D01*
X42772000Y-45648862D01*
X42813690Y-45640569D01*
X42813692Y-45640569D01*
X42995671Y-45565192D01*
X42995684Y-45565185D01*
X43159462Y-45455751D01*
X43159466Y-45455748D01*
X43298748Y-45316466D01*
X43298751Y-45316462D01*
X43408185Y-45152684D01*
X43408192Y-45152671D01*
X43483569Y-44970693D01*
X43483572Y-44970681D01*
X43521999Y-44777495D01*
X43522000Y-44777492D01*
X43522000Y-44379000D01*
X42822000Y-44379000D01*
X42822000Y-43879000D01*
X43522000Y-43879000D01*
X43522000Y-43480508D01*
X43521999Y-43480504D01*
X43483572Y-43287318D01*
X43483569Y-43287306D01*
X43408192Y-43105328D01*
X43408185Y-43105315D01*
X43298751Y-42941537D01*
X43298748Y-42941533D01*
X43159466Y-42802251D01*
X43159462Y-42802248D01*
X42995684Y-42692814D01*
X42995671Y-42692807D01*
X42813691Y-42617429D01*
X42813683Y-42617427D01*
X42772000Y-42609135D01*
X42772000Y-43412011D01*
X42762060Y-43394795D01*
X42706205Y-43338940D01*
X42637796Y-43299444D01*
X42561496Y-43279000D01*
X42482504Y-43279000D01*
X42406204Y-43299444D01*
X42337795Y-43338940D01*
X42281940Y-43394795D01*
X42272000Y-43412011D01*
X42272000Y-42609136D01*
X42271999Y-42609135D01*
X42230316Y-42617427D01*
X42230308Y-42617429D01*
X42048328Y-42692807D01*
X42048315Y-42692814D01*
X41884537Y-42802248D01*
X41884533Y-42802251D01*
X41745251Y-42941533D01*
X41745248Y-42941537D01*
X41635814Y-43105315D01*
X41635809Y-43105324D01*
X41631866Y-43114845D01*
X41588023Y-43169247D01*
X41521728Y-43191310D01*
X41454030Y-43174029D01*
X41448597Y-43170351D01*
X41314136Y-43092719D01*
X41240950Y-43073109D01*
X41167766Y-43053500D01*
X41016234Y-43053500D01*
X40869863Y-43092719D01*
X40738635Y-43168485D01*
X40738632Y-43168487D01*
X40631487Y-43275632D01*
X40631485Y-43275635D01*
X40555719Y-43406863D01*
X40520179Y-43539504D01*
X40516500Y-43553234D01*
X35887500Y-43553234D01*
X35848281Y-43406865D01*
X35772515Y-43275635D01*
X35665365Y-43168485D01*
X35580086Y-43119249D01*
X35534136Y-43092719D01*
X35460950Y-43073109D01*
X35387766Y-43053500D01*
X35236234Y-43053500D01*
X35089863Y-43092719D01*
X34998428Y-43145510D01*
X34958635Y-43168485D01*
X34958633Y-43168486D01*
X34951597Y-43172549D01*
X34950327Y-43170349D01*
X34896995Y-43190960D01*
X34828552Y-43176914D01*
X34778568Y-43128094D01*
X34772131Y-43114838D01*
X34768192Y-43105328D01*
X34768185Y-43105315D01*
X34658751Y-42941537D01*
X34658748Y-42941533D01*
X34519466Y-42802251D01*
X34519462Y-42802248D01*
X34355684Y-42692814D01*
X34355671Y-42692807D01*
X34173691Y-42617429D01*
X34173683Y-42617427D01*
X34132000Y-42609135D01*
X34132000Y-43412011D01*
X34122060Y-43394795D01*
X34066205Y-43338940D01*
X33997796Y-43299444D01*
X33921496Y-43279000D01*
X33842504Y-43279000D01*
X33766204Y-43299444D01*
X33697795Y-43338940D01*
X33641940Y-43394795D01*
X33632000Y-43412011D01*
X33632000Y-42609136D01*
X33631999Y-42609135D01*
X33590316Y-42617427D01*
X33590308Y-42617429D01*
X33408328Y-42692807D01*
X33408315Y-42692814D01*
X33244537Y-42802248D01*
X33244533Y-42802251D01*
X33224181Y-42822604D01*
X33162858Y-42856089D01*
X33093166Y-42851105D01*
X33037233Y-42809233D01*
X33012816Y-42743769D01*
X33012500Y-42734923D01*
X33012500Y-41193077D01*
X33032185Y-41126038D01*
X33084989Y-41080283D01*
X33154147Y-41070339D01*
X33217703Y-41099364D01*
X33224181Y-41105396D01*
X33244533Y-41125748D01*
X33244537Y-41125751D01*
X33408315Y-41235185D01*
X33408328Y-41235192D01*
X33590308Y-41310569D01*
X33632000Y-41318862D01*
X33632000Y-40515988D01*
X33641940Y-40533205D01*
X33697795Y-40589060D01*
X33766204Y-40628556D01*
X33842504Y-40649000D01*
X33921496Y-40649000D01*
X33997796Y-40628556D01*
X34066205Y-40589060D01*
X34122060Y-40533205D01*
X34132000Y-40515988D01*
X34132000Y-41318862D01*
X34173690Y-41310569D01*
X34173692Y-41310569D01*
X34355671Y-41235192D01*
X34355684Y-41235185D01*
X34519462Y-41125751D01*
X34519466Y-41125748D01*
X34658748Y-40986466D01*
X34658751Y-40986462D01*
X34768185Y-40822684D01*
X34768192Y-40822671D01*
X34843569Y-40640693D01*
X34843572Y-40640681D01*
X34881999Y-40447495D01*
X34882000Y-40447492D01*
X34882000Y-40199000D01*
X34182000Y-40199000D01*
X34182000Y-39699000D01*
X34882000Y-39699000D01*
X34882000Y-39450508D01*
X34881999Y-39450504D01*
X41522000Y-39450504D01*
X41522000Y-39699000D01*
X42222000Y-39699000D01*
X42222000Y-40199000D01*
X41522000Y-40199000D01*
X41522000Y-40447495D01*
X41560427Y-40640681D01*
X41560430Y-40640693D01*
X41635807Y-40822671D01*
X41635814Y-40822684D01*
X41745248Y-40986462D01*
X41745251Y-40986466D01*
X41884533Y-41125748D01*
X41884537Y-41125751D01*
X42048315Y-41235185D01*
X42048328Y-41235192D01*
X42230308Y-41310569D01*
X42272000Y-41318862D01*
X42272000Y-40515988D01*
X42281940Y-40533205D01*
X42337795Y-40589060D01*
X42406204Y-40628556D01*
X42482504Y-40649000D01*
X42561496Y-40649000D01*
X42637796Y-40628556D01*
X42706205Y-40589060D01*
X42762060Y-40533205D01*
X42772000Y-40515988D01*
X42772000Y-41318862D01*
X42813690Y-41310569D01*
X42813692Y-41310569D01*
X42995671Y-41235192D01*
X42995684Y-41235185D01*
X43159462Y-41125751D01*
X43159466Y-41125748D01*
X43298748Y-40986466D01*
X43298751Y-40986462D01*
X43408185Y-40822684D01*
X43408192Y-40822671D01*
X43483569Y-40640693D01*
X43483572Y-40640681D01*
X43521999Y-40447495D01*
X43522000Y-40447492D01*
X43522000Y-40199000D01*
X42822000Y-40199000D01*
X42822000Y-39699000D01*
X43522000Y-39699000D01*
X43522000Y-39450508D01*
X43521999Y-39450504D01*
X43483572Y-39257318D01*
X43483569Y-39257306D01*
X43408192Y-39075328D01*
X43408185Y-39075315D01*
X43298751Y-38911537D01*
X43298748Y-38911533D01*
X43159466Y-38772251D01*
X43159462Y-38772248D01*
X42995684Y-38662814D01*
X42995671Y-38662807D01*
X42813691Y-38587429D01*
X42813683Y-38587427D01*
X42772000Y-38579135D01*
X42772000Y-39382011D01*
X42762060Y-39364795D01*
X42706205Y-39308940D01*
X42637796Y-39269444D01*
X42561496Y-39249000D01*
X42482504Y-39249000D01*
X42406204Y-39269444D01*
X42337795Y-39308940D01*
X42281940Y-39364795D01*
X42272000Y-39382011D01*
X42272000Y-38579136D01*
X42271999Y-38579135D01*
X42230316Y-38587427D01*
X42230308Y-38587429D01*
X42048328Y-38662807D01*
X42048315Y-38662814D01*
X41884537Y-38772248D01*
X41884533Y-38772251D01*
X41745251Y-38911533D01*
X41745248Y-38911537D01*
X41635814Y-39075315D01*
X41635807Y-39075328D01*
X41560430Y-39257306D01*
X41560427Y-39257318D01*
X41522000Y-39450504D01*
X34881999Y-39450504D01*
X34843572Y-39257318D01*
X34843569Y-39257306D01*
X34768192Y-39075328D01*
X34768185Y-39075315D01*
X34658751Y-38911537D01*
X34658748Y-38911533D01*
X34519466Y-38772251D01*
X34519462Y-38772248D01*
X34355684Y-38662814D01*
X34355671Y-38662807D01*
X34173691Y-38587429D01*
X34173683Y-38587427D01*
X34132000Y-38579135D01*
X34132000Y-39382011D01*
X34122060Y-39364795D01*
X34066205Y-39308940D01*
X33997796Y-39269444D01*
X33921496Y-39249000D01*
X33842504Y-39249000D01*
X33766204Y-39269444D01*
X33697795Y-39308940D01*
X33641940Y-39364795D01*
X33632000Y-39382011D01*
X33632000Y-38579136D01*
X33631999Y-38579135D01*
X33590316Y-38587427D01*
X33590308Y-38587429D01*
X33408328Y-38662807D01*
X33408315Y-38662814D01*
X33244537Y-38772248D01*
X33244533Y-38772251D01*
X33224181Y-38792604D01*
X33162858Y-38826089D01*
X33093166Y-38821105D01*
X33037233Y-38779233D01*
X33012816Y-38713769D01*
X33012500Y-38704923D01*
X33012500Y-37962500D01*
X33032185Y-37895461D01*
X33084989Y-37849706D01*
X33136500Y-37838500D01*
X72944000Y-37838500D01*
X73011039Y-37858185D01*
G37*
%TD.AperFunction*%
%TA.AperFunction,Conductor*%
G36*
X23606563Y-47940988D02*
G01*
X23660375Y-47985553D01*
X23681550Y-48052137D01*
X23670657Y-48105793D01*
X23632842Y-48189817D01*
X23632835Y-48189835D01*
X23535667Y-48501658D01*
X23476786Y-48822961D01*
X23457065Y-49149000D01*
X23476786Y-49475038D01*
X23535667Y-49796341D01*
X23632835Y-50108164D01*
X23632839Y-50108175D01*
X23766897Y-50406041D01*
X23766898Y-50406043D01*
X23935881Y-50685576D01*
X24083476Y-50873968D01*
X25225708Y-49731736D01*
X25322967Y-49865602D01*
X25445398Y-49988033D01*
X25579262Y-50085290D01*
X24437030Y-51227522D01*
X24437030Y-51227523D01*
X24625423Y-51375118D01*
X24904956Y-51544101D01*
X24904958Y-51544102D01*
X25202824Y-51678160D01*
X25202835Y-51678164D01*
X25514658Y-51775332D01*
X25835961Y-51834213D01*
X26162000Y-51853934D01*
X26488038Y-51834213D01*
X26809341Y-51775332D01*
X27121164Y-51678164D01*
X27121175Y-51678160D01*
X27419041Y-51544102D01*
X27419043Y-51544101D01*
X27698586Y-51375112D01*
X27886968Y-51227523D01*
X27886968Y-51227522D01*
X26744737Y-50085290D01*
X26878602Y-49988033D01*
X27001033Y-49865602D01*
X27098290Y-49731737D01*
X28240522Y-50873968D01*
X28240523Y-50873968D01*
X28388112Y-50685586D01*
X28557101Y-50406043D01*
X28557102Y-50406041D01*
X28691160Y-50108175D01*
X28691164Y-50108164D01*
X28788332Y-49796341D01*
X28847213Y-49475038D01*
X28866934Y-49149000D01*
X28847213Y-48822961D01*
X28788332Y-48501658D01*
X28691164Y-48189835D01*
X28691160Y-48189824D01*
X28653342Y-48105794D01*
X28643779Y-48036581D01*
X28673153Y-47973186D01*
X28732138Y-47935736D01*
X28802006Y-47936120D01*
X28849688Y-47963023D01*
X28856874Y-47969536D01*
X28865463Y-47978125D01*
X29068662Y-48202321D01*
X29108872Y-48246686D01*
X29116592Y-48256092D01*
X29332509Y-48547222D01*
X29339269Y-48557340D01*
X29514468Y-48849642D01*
X29525599Y-48868212D01*
X29531334Y-48878940D01*
X29598598Y-49021157D01*
X29686309Y-49206607D01*
X29690965Y-49217850D01*
X29813065Y-49559097D01*
X29816598Y-49570741D01*
X29904667Y-49922331D01*
X29907041Y-49934267D01*
X29960223Y-50292793D01*
X29961416Y-50304902D01*
X29979351Y-50669965D01*
X29979500Y-50676050D01*
X29979500Y-54983350D01*
X30016841Y-55219111D01*
X30016841Y-55219112D01*
X30016842Y-55219115D01*
X30090605Y-55446134D01*
X30139366Y-55541834D01*
X30198975Y-55658822D01*
X30280603Y-55771174D01*
X30304083Y-55836980D01*
X30288258Y-55905034D01*
X30287674Y-55906056D01*
X30267609Y-55940811D01*
X30267608Y-55940814D01*
X30233500Y-56068108D01*
X30233500Y-56199892D01*
X30249387Y-56259185D01*
X30267609Y-56327188D01*
X30267609Y-56327189D01*
X30336782Y-56447000D01*
X30353255Y-56514900D01*
X30336782Y-56571000D01*
X30267609Y-56690810D01*
X30267609Y-56690811D01*
X30267609Y-56690812D01*
X30267608Y-56690814D01*
X30233500Y-56818108D01*
X30233500Y-56949891D01*
X30267609Y-57077188D01*
X30267609Y-57077189D01*
X30326967Y-57180000D01*
X30343440Y-57247900D01*
X30326967Y-57304000D01*
X30267609Y-57406810D01*
X30267609Y-57406811D01*
X30233500Y-57534108D01*
X30233500Y-57665891D01*
X30267608Y-57793187D01*
X30300554Y-57850250D01*
X30333500Y-57907314D01*
X30333502Y-57907316D01*
X30333503Y-57907317D01*
X30348506Y-57922321D01*
X30381990Y-57983645D01*
X30377004Y-58053336D01*
X30348506Y-58097679D01*
X30333503Y-58112682D01*
X30333500Y-58112686D01*
X30267608Y-58226812D01*
X30254591Y-58275395D01*
X30233500Y-58354108D01*
X30233500Y-58485892D01*
X30261167Y-58589145D01*
X30267608Y-58613185D01*
X30267608Y-58613186D01*
X30287673Y-58647940D01*
X30304144Y-58715841D01*
X30281292Y-58781867D01*
X30280604Y-58782824D01*
X30198972Y-58895181D01*
X30090606Y-59107863D01*
X30016841Y-59334887D01*
X30016841Y-59334888D01*
X29979500Y-59570649D01*
X29979500Y-62875657D01*
X29959815Y-62942696D01*
X29907011Y-62988451D01*
X29855531Y-62999657D01*
X22468531Y-63001530D01*
X22401487Y-62981862D01*
X22355719Y-62929070D01*
X22344500Y-62877530D01*
X22344500Y-59181998D01*
X23832435Y-59181998D01*
X23832435Y-59182001D01*
X23836720Y-59220029D01*
X23837500Y-59233914D01*
X23837500Y-59260844D01*
X23845288Y-59300003D01*
X23846890Y-59310303D01*
X23852632Y-59361252D01*
X23852633Y-59361260D01*
X23860976Y-59385104D01*
X23865550Y-59401860D01*
X23868262Y-59415496D01*
X23888509Y-59464377D01*
X23890988Y-59470872D01*
X23912212Y-59531524D01*
X23918709Y-59541865D01*
X23928268Y-59560365D01*
X23928603Y-59561173D01*
X23928605Y-59561179D01*
X23965223Y-59615982D01*
X23967114Y-59618900D01*
X24008180Y-59684257D01*
X24008182Y-59684260D01*
X24008184Y-59684262D01*
X24135738Y-59811816D01*
X24201131Y-59852905D01*
X24204040Y-59854790D01*
X24258821Y-59891394D01*
X24259606Y-59891719D01*
X24278134Y-59901289D01*
X24288478Y-59907789D01*
X24349175Y-59929028D01*
X24355607Y-59931484D01*
X24384021Y-59943253D01*
X24404497Y-59951735D01*
X24404498Y-59951735D01*
X24404503Y-59951737D01*
X24418139Y-59954449D01*
X24434898Y-59959023D01*
X24458745Y-59967368D01*
X24509714Y-59973110D01*
X24519992Y-59974709D01*
X24547140Y-59980109D01*
X24559157Y-59982500D01*
X24559158Y-59982500D01*
X24586085Y-59982500D01*
X24599969Y-59983280D01*
X24637998Y-59987565D01*
X24638000Y-59987565D01*
X24638002Y-59987565D01*
X24676031Y-59983280D01*
X24689915Y-59982500D01*
X25986844Y-59982500D01*
X25986845Y-59982499D01*
X26141497Y-59951737D01*
X26287179Y-59891394D01*
X26418289Y-59803789D01*
X27164789Y-59057289D01*
X27172816Y-59049262D01*
X27213931Y-58983825D01*
X27215777Y-58980979D01*
X27252394Y-58926179D01*
X27252720Y-58925390D01*
X27262287Y-58906868D01*
X27268789Y-58896522D01*
X27290022Y-58835837D01*
X27292477Y-58829407D01*
X27312738Y-58780497D01*
X27315449Y-58766860D01*
X27320025Y-58750096D01*
X27328368Y-58726255D01*
X27334109Y-58675287D01*
X27335709Y-58665004D01*
X27343500Y-58625842D01*
X27343500Y-58598914D01*
X27344280Y-58585029D01*
X27348565Y-58547001D01*
X27348565Y-58546998D01*
X27344280Y-58508969D01*
X27343500Y-58495085D01*
X27343500Y-57064500D01*
X27363185Y-56997461D01*
X27415989Y-56951706D01*
X27467500Y-56940500D01*
X27497890Y-56940500D01*
X27497892Y-56940500D01*
X27625186Y-56906392D01*
X27739314Y-56840500D01*
X27832500Y-56747314D01*
X27898392Y-56633186D01*
X27932500Y-56505892D01*
X27932500Y-56374108D01*
X27898392Y-56246814D01*
X27832500Y-56132686D01*
X27739314Y-56039500D01*
X27682250Y-56006554D01*
X27625187Y-55973608D01*
X27520497Y-55945557D01*
X27497892Y-55939500D01*
X27467500Y-55939500D01*
X27400461Y-55919815D01*
X27354706Y-55867011D01*
X27343500Y-55815500D01*
X27343500Y-53896155D01*
X27343499Y-53896153D01*
X27312738Y-53741510D01*
X27312737Y-53741503D01*
X27311973Y-53739659D01*
X27252397Y-53595827D01*
X27252390Y-53595814D01*
X27164790Y-53464712D01*
X27116406Y-53416328D01*
X27053289Y-53353211D01*
X25910289Y-52210211D01*
X25902262Y-52202184D01*
X25902260Y-52202182D01*
X25902257Y-52202180D01*
X25836900Y-52161114D01*
X25833982Y-52159223D01*
X25779179Y-52122605D01*
X25779173Y-52122603D01*
X25778365Y-52122268D01*
X25759865Y-52112709D01*
X25749524Y-52106212D01*
X25749523Y-52106211D01*
X25749522Y-52106211D01*
X25688867Y-52084986D01*
X25682377Y-52082509D01*
X25633496Y-52062262D01*
X25619860Y-52059550D01*
X25603104Y-52054976D01*
X25579260Y-52046633D01*
X25579256Y-52046632D01*
X25579255Y-52046632D01*
X25558575Y-52044301D01*
X25528303Y-52040890D01*
X25518003Y-52039288D01*
X25478844Y-52031500D01*
X25478842Y-52031500D01*
X25451915Y-52031500D01*
X25438031Y-52030720D01*
X25400002Y-52026435D01*
X25399998Y-52026435D01*
X25361969Y-52030720D01*
X25348085Y-52031500D01*
X25321152Y-52031500D01*
X25281994Y-52039288D01*
X25271696Y-52040890D01*
X25220742Y-52046632D01*
X25220735Y-52046634D01*
X25196898Y-52054975D01*
X25180140Y-52059550D01*
X25166502Y-52062263D01*
X25166496Y-52062264D01*
X25117631Y-52082504D01*
X25111140Y-52084982D01*
X25050477Y-52106210D01*
X25050474Y-52106212D01*
X25040127Y-52112713D01*
X25021639Y-52122266D01*
X25020832Y-52122600D01*
X25020824Y-52122604D01*
X24966047Y-52159204D01*
X24963132Y-52161092D01*
X24897742Y-52202180D01*
X24897735Y-52202186D01*
X24770186Y-52329735D01*
X24770180Y-52329742D01*
X24729092Y-52395132D01*
X24727204Y-52398047D01*
X24690604Y-52452824D01*
X24690600Y-52452832D01*
X24690266Y-52453639D01*
X24680713Y-52472127D01*
X24674212Y-52482474D01*
X24674210Y-52482477D01*
X24652982Y-52543140D01*
X24650504Y-52549631D01*
X24630264Y-52598496D01*
X24630263Y-52598502D01*
X24627550Y-52612140D01*
X24622975Y-52628898D01*
X24614634Y-52652735D01*
X24614632Y-52652742D01*
X24608890Y-52703696D01*
X24607288Y-52713994D01*
X24599500Y-52753152D01*
X24599500Y-52780085D01*
X24598720Y-52793969D01*
X24594435Y-52831998D01*
X24594435Y-52832001D01*
X24598720Y-52870029D01*
X24599500Y-52883914D01*
X24599500Y-52910844D01*
X24607288Y-52950003D01*
X24608890Y-52960303D01*
X24614632Y-53011252D01*
X24614633Y-53011260D01*
X24622976Y-53035104D01*
X24627550Y-53051860D01*
X24630262Y-53065496D01*
X24650509Y-53114377D01*
X24652988Y-53120872D01*
X24674212Y-53181524D01*
X24680709Y-53191865D01*
X24690268Y-53210365D01*
X24690603Y-53211173D01*
X24690605Y-53211179D01*
X24727223Y-53265982D01*
X24729114Y-53268900D01*
X24770180Y-53334257D01*
X24770182Y-53334260D01*
X25706181Y-54270259D01*
X25739666Y-54331582D01*
X25742500Y-54357940D01*
X25742500Y-58164060D01*
X25722815Y-58231099D01*
X25706181Y-58251741D01*
X25612741Y-58345181D01*
X25551418Y-58378666D01*
X25525060Y-58381500D01*
X24689915Y-58381500D01*
X24676031Y-58380720D01*
X24638002Y-58376435D01*
X24637998Y-58376435D01*
X24599969Y-58380720D01*
X24586085Y-58381500D01*
X24559152Y-58381500D01*
X24519994Y-58389288D01*
X24509696Y-58390890D01*
X24458742Y-58396632D01*
X24458735Y-58396634D01*
X24434898Y-58404975D01*
X24418140Y-58409550D01*
X24404502Y-58412263D01*
X24404496Y-58412264D01*
X24355631Y-58432504D01*
X24349140Y-58434982D01*
X24288477Y-58456210D01*
X24288474Y-58456212D01*
X24278127Y-58462713D01*
X24259639Y-58472266D01*
X24258832Y-58472600D01*
X24258824Y-58472604D01*
X24258821Y-58472605D01*
X24258821Y-58472606D01*
X24204399Y-58508969D01*
X24204047Y-58509204D01*
X24201132Y-58511092D01*
X24135742Y-58552180D01*
X24135735Y-58552186D01*
X24008186Y-58679735D01*
X24008180Y-58679742D01*
X23967092Y-58745132D01*
X23965209Y-58748038D01*
X23958345Y-58758312D01*
X23928604Y-58802824D01*
X23928600Y-58802832D01*
X23928266Y-58803639D01*
X23918713Y-58822127D01*
X23912212Y-58832474D01*
X23912210Y-58832477D01*
X23890982Y-58893140D01*
X23888504Y-58899631D01*
X23868264Y-58948496D01*
X23868263Y-58948502D01*
X23865550Y-58962140D01*
X23860975Y-58978898D01*
X23852634Y-59002735D01*
X23852632Y-59002742D01*
X23846890Y-59053696D01*
X23845288Y-59063994D01*
X23837500Y-59103152D01*
X23837500Y-59130085D01*
X23836720Y-59143969D01*
X23832435Y-59181998D01*
X22344500Y-59181998D01*
X22344500Y-50676050D01*
X22344649Y-50669966D01*
X22355234Y-50454500D01*
X22362583Y-50304899D01*
X22363776Y-50292793D01*
X22374290Y-50221914D01*
X22416959Y-49934258D01*
X22419328Y-49922347D01*
X22507403Y-49570733D01*
X22510934Y-49559097D01*
X22519413Y-49535401D01*
X22633039Y-49217836D01*
X22637684Y-49206621D01*
X22792673Y-48878924D01*
X22798388Y-48868232D01*
X22984738Y-48557327D01*
X22991481Y-48547234D01*
X23207415Y-48256081D01*
X23215118Y-48246696D01*
X23458545Y-47978115D01*
X23467115Y-47969545D01*
X23474311Y-47963023D01*
X23537200Y-47932589D01*
X23606563Y-47940988D01*
G37*
%TD.AperFunction*%
%TD*%
M02*
