G04 #@! TF.GenerationSoftware,KiCad,Pcbnew,8.0.5*
G04 #@! TF.CreationDate,2024-10-21T14:29:00+02:00*
G04 #@! TF.ProjectId,Slave,536c6176-652e-46b6-9963-61645f706362,rev?*
G04 #@! TF.SameCoordinates,Original*
G04 #@! TF.FileFunction,Paste,Top*
G04 #@! TF.FilePolarity,Positive*
%FSLAX46Y46*%
G04 Gerber Fmt 4.6, Leading zero omitted, Abs format (unit mm)*
G04 Created by KiCad (PCBNEW 8.0.5) date 2024-10-21 14:29:00*
%MOMM*%
%LPD*%
G01*
G04 APERTURE LIST*
G04 Aperture macros list*
%AMRoundRect*
0 Rectangle with rounded corners*
0 $1 Rounding radius*
0 $2 $3 $4 $5 $6 $7 $8 $9 X,Y pos of 4 corners*
0 Add a 4 corners polygon primitive as box body*
4,1,4,$2,$3,$4,$5,$6,$7,$8,$9,$2,$3,0*
0 Add four circle primitives for the rounded corners*
1,1,$1+$1,$2,$3*
1,1,$1+$1,$4,$5*
1,1,$1+$1,$6,$7*
1,1,$1+$1,$8,$9*
0 Add four rect primitives between the rounded corners*
20,1,$1+$1,$2,$3,$4,$5,0*
20,1,$1+$1,$4,$5,$6,$7,0*
20,1,$1+$1,$6,$7,$8,$9,0*
20,1,$1+$1,$8,$9,$2,$3,0*%
%AMOutline5P*
0 Free polygon, 5 corners , with rotation*
0 The origin of the aperture is its center*
0 number of corners: always 5*
0 $1 to $10 corner X, Y*
0 $11 Rotation angle, in degrees counterclockwise*
0 create outline with 5 corners*
4,1,5,$1,$2,$3,$4,$5,$6,$7,$8,$9,$10,$1,$2,$11*%
%AMOutline6P*
0 Free polygon, 6 corners , with rotation*
0 The origin of the aperture is its center*
0 number of corners: always 6*
0 $1 to $12 corner X, Y*
0 $13 Rotation angle, in degrees counterclockwise*
0 create outline with 6 corners*
4,1,6,$1,$2,$3,$4,$5,$6,$7,$8,$9,$10,$11,$12,$1,$2,$13*%
%AMOutline7P*
0 Free polygon, 7 corners , with rotation*
0 The origin of the aperture is its center*
0 number of corners: always 7*
0 $1 to $14 corner X, Y*
0 $15 Rotation angle, in degrees counterclockwise*
0 create outline with 7 corners*
4,1,7,$1,$2,$3,$4,$5,$6,$7,$8,$9,$10,$11,$12,$13,$14,$1,$2,$15*%
%AMOutline8P*
0 Free polygon, 8 corners , with rotation*
0 The origin of the aperture is its center*
0 number of corners: always 8*
0 $1 to $16 corner X, Y*
0 $17 Rotation angle, in degrees counterclockwise*
0 create outline with 8 corners*
4,1,8,$1,$2,$3,$4,$5,$6,$7,$8,$9,$10,$11,$12,$13,$14,$15,$16,$1,$2,$17*%
G04 Aperture macros list end*
%ADD10C,0.000000*%
%ADD11RoundRect,0.237500X0.250000X0.237500X-0.250000X0.237500X-0.250000X-0.237500X0.250000X-0.237500X0*%
%ADD12RoundRect,0.237500X-0.300000X-0.237500X0.300000X-0.237500X0.300000X0.237500X-0.300000X0.237500X0*%
%ADD13RoundRect,0.237500X-0.237500X0.300000X-0.237500X-0.300000X0.237500X-0.300000X0.237500X0.300000X0*%
%ADD14RoundRect,0.237500X0.300000X0.237500X-0.300000X0.237500X-0.300000X-0.237500X0.300000X-0.237500X0*%
%ADD15RoundRect,0.237500X0.237500X-0.250000X0.237500X0.250000X-0.237500X0.250000X-0.237500X-0.250000X0*%
%ADD16RoundRect,0.150000X0.150000X0.425000X-0.150000X0.425000X-0.150000X-0.425000X0.150000X-0.425000X0*%
%ADD17RoundRect,0.075000X0.075000X0.500000X-0.075000X0.500000X-0.075000X-0.500000X0.075000X-0.500000X0*%
%ADD18O,1.000000X2.100000*%
%ADD19O,1.000000X1.800000*%
%ADD20RoundRect,0.237500X0.237500X-0.300000X0.237500X0.300000X-0.237500X0.300000X-0.237500X-0.300000X0*%
%ADD21RoundRect,0.150000X0.587500X0.150000X-0.587500X0.150000X-0.587500X-0.150000X0.587500X-0.150000X0*%
%ADD22RoundRect,0.033750X0.526250X0.101250X-0.526250X0.101250X-0.526250X-0.101250X0.526250X-0.101250X0*%
%ADD23RoundRect,0.237500X-0.250000X-0.237500X0.250000X-0.237500X0.250000X0.237500X-0.250000X0.237500X0*%
%ADD24R,0.600000X1.750000*%
%ADD25RoundRect,0.075000X0.910000X0.225000X-0.910000X0.225000X-0.910000X-0.225000X0.910000X-0.225000X0*%
%ADD26R,0.650000X1.050000*%
%ADD27RoundRect,0.150000X0.150000X-0.850000X0.150000X0.850000X-0.150000X0.850000X-0.150000X-0.850000X0*%
%ADD28R,0.400000X0.800000*%
%ADD29R,0.800000X0.400000*%
%ADD30Outline5P,-0.600000X0.204000X-0.204000X0.600000X0.600000X0.600000X0.600000X-0.600000X-0.600000X-0.600000X270.000000*%
%ADD31R,1.200000X1.200000*%
%ADD32R,0.800000X0.800000*%
%ADD33RoundRect,0.075000X-0.225000X0.910000X-0.225000X-0.910000X0.225000X-0.910000X0.225000X0.910000X0*%
%ADD34R,0.480000X0.400000*%
%ADD35R,1.600000X0.850000*%
%ADD36RoundRect,0.056250X-0.188750X-0.168750X0.188750X-0.168750X0.188750X0.168750X-0.188750X0.168750X0*%
G04 APERTURE END LIST*
G36*
X25892000Y-58725000D02*
G01*
X26392000Y-58725000D01*
X26392000Y-58303000D01*
X25892000Y-58303000D01*
X25892000Y-58725000D01*
G37*
G36*
X26392000Y-57903000D02*
G01*
X25892000Y-57903000D01*
X25892000Y-57481000D01*
X26392000Y-57481000D01*
X26392000Y-57903000D01*
G37*
G36*
X27292000Y-58725000D02*
G01*
X26792000Y-58725000D01*
X26792000Y-58303000D01*
X27292000Y-58303000D01*
X27292000Y-58725000D01*
G37*
G36*
X27692000Y-57903000D02*
G01*
X28192000Y-57903000D01*
X28192000Y-57481000D01*
X27692000Y-57481000D01*
X27692000Y-57903000D01*
G37*
G36*
X28192000Y-58725000D02*
G01*
X27692000Y-58725000D01*
X27692000Y-58303000D01*
X28192000Y-58303000D01*
X28192000Y-58725000D01*
G37*
D10*
G36*
X26992000Y-55879700D02*
G01*
X26882200Y-55900700D01*
X26778800Y-55942900D01*
X26685700Y-56004700D01*
X26606700Y-56083700D01*
X26544900Y-56176800D01*
X26502700Y-56280200D01*
X26481700Y-56390000D01*
X26231000Y-56390000D01*
X26258600Y-56224500D01*
X26319500Y-56068300D01*
X26411200Y-55927800D01*
X26529800Y-55809200D01*
X26670300Y-55717500D01*
X26826500Y-55656600D01*
X26992000Y-55629000D01*
X26992000Y-55879700D01*
G37*
G36*
X26502700Y-56599800D02*
G01*
X26544900Y-56703200D01*
X26606700Y-56796300D01*
X26685700Y-56875300D01*
X26778800Y-56937100D01*
X26882200Y-56979300D01*
X26992000Y-57000300D01*
X26992000Y-57251000D01*
X26826500Y-57223400D01*
X26670300Y-57162500D01*
X26529800Y-57070800D01*
X26411200Y-56952200D01*
X26319500Y-56811700D01*
X26258600Y-56655500D01*
X26231000Y-56490000D01*
X26481700Y-56490000D01*
X26502700Y-56599800D01*
G37*
G36*
X27257500Y-55656600D02*
G01*
X27413700Y-55717500D01*
X27554200Y-55809200D01*
X27672800Y-55927800D01*
X27764500Y-56068300D01*
X27825400Y-56224500D01*
X27853000Y-56390000D01*
X27602300Y-56390000D01*
X27581300Y-56280200D01*
X27539100Y-56176800D01*
X27477300Y-56083700D01*
X27398300Y-56004700D01*
X27305200Y-55942900D01*
X27201800Y-55900700D01*
X27092000Y-55879700D01*
X27092000Y-55629000D01*
X27257500Y-55656600D01*
G37*
G36*
X27825400Y-56655500D02*
G01*
X27764500Y-56811700D01*
X27672800Y-56952200D01*
X27554200Y-57070800D01*
X27413700Y-57162500D01*
X27257500Y-57223400D01*
X27092000Y-57251000D01*
X27092000Y-57000300D01*
X27201800Y-56979300D01*
X27305200Y-56937100D01*
X27398300Y-56875300D01*
X27477300Y-56796300D01*
X27539100Y-56703200D01*
X27581300Y-56599800D01*
X27602300Y-56490000D01*
X27853000Y-56490000D01*
X27825400Y-56655500D01*
G37*
D11*
X61142500Y-62880000D03*
X59317500Y-62880000D03*
D12*
X67163500Y-73365500D03*
X68888500Y-73365500D03*
D13*
X62611000Y-62945000D03*
X62611000Y-64670000D03*
D14*
X49630500Y-69342000D03*
X47905500Y-69342000D03*
X56412500Y-46736000D03*
X54687500Y-46736000D03*
D13*
X52762000Y-78385500D03*
X52762000Y-80110500D03*
D15*
X44390000Y-42312500D03*
X44390000Y-40487500D03*
D13*
X22724000Y-56649600D03*
X22724000Y-58374600D03*
D16*
X41402000Y-44704000D03*
X40602000Y-44704000D03*
D17*
X39452000Y-44704000D03*
X38452000Y-44704000D03*
X37952000Y-44704000D03*
X36952000Y-44704000D03*
D16*
X35802000Y-44704000D03*
X35002000Y-44704000D03*
X35002000Y-44704000D03*
X35802000Y-44704000D03*
D17*
X36452000Y-44704000D03*
X37452000Y-44704000D03*
X38952000Y-44704000D03*
X39952000Y-44704000D03*
D16*
X40602000Y-44704000D03*
X41402000Y-44704000D03*
D18*
X42522000Y-44129000D03*
D19*
X42522000Y-39949000D03*
D18*
X33882000Y-44129000D03*
D19*
X33882000Y-39949000D03*
D12*
X50699500Y-46482000D03*
X52424500Y-46482000D03*
D13*
X23448000Y-52645500D03*
X23448000Y-54370500D03*
D20*
X71374000Y-65886500D03*
X71374000Y-64161500D03*
D11*
X62732500Y-61270000D03*
X60907500Y-61270000D03*
D21*
X40662500Y-71512000D03*
X40662500Y-69612000D03*
X38787500Y-70562000D03*
D22*
X60206000Y-65774000D03*
X60206000Y-65274000D03*
X60206000Y-64774000D03*
X60206000Y-64274000D03*
X57396000Y-64274000D03*
X57396000Y-64774000D03*
X57396000Y-65274000D03*
X57396000Y-65774000D03*
D11*
X67160500Y-71501000D03*
X65335500Y-71501000D03*
D13*
X54356000Y-78385500D03*
X54356000Y-80110500D03*
D23*
X55983500Y-79756000D03*
X57808500Y-79756000D03*
D24*
X23042000Y-62484000D03*
X24042000Y-60734000D03*
X25042000Y-62484000D03*
X26042000Y-60734000D03*
X27042000Y-62484000D03*
X28042000Y-60734000D03*
X29042000Y-62484000D03*
D14*
X65522500Y-73400000D03*
X63797500Y-73400000D03*
D25*
X59765000Y-76635000D03*
X59765000Y-75365000D03*
X59765000Y-74095000D03*
X59765000Y-72825000D03*
X54825000Y-72825000D03*
X54825000Y-74095000D03*
X54825000Y-75365000D03*
X54825000Y-76635000D03*
D11*
X36332500Y-46736000D03*
X34507500Y-46736000D03*
D26*
X54356000Y-44958000D03*
X54356000Y-40808000D03*
X56506000Y-44958000D03*
X56506000Y-40808000D03*
D15*
X37338000Y-63904500D03*
X37338000Y-62079500D03*
D27*
X40360000Y-67220000D03*
X41630000Y-67220000D03*
X42900000Y-67220000D03*
X44170000Y-67220000D03*
X45440000Y-67220000D03*
X46710000Y-67220000D03*
X47980000Y-67220000D03*
X49250000Y-67220000D03*
X49250000Y-62220000D03*
X47980000Y-62220000D03*
X46710000Y-62220000D03*
X45440000Y-62220000D03*
X44170000Y-62220000D03*
X42900000Y-62220000D03*
X41630000Y-62220000D03*
X40360000Y-62220000D03*
D28*
X71218000Y-44196000D03*
X70368000Y-44196000D03*
X69518000Y-44196000D03*
X68668000Y-44196000D03*
X67818000Y-44196000D03*
X66968000Y-44196000D03*
X66118000Y-44196000D03*
X65268000Y-44196000D03*
X64418000Y-44196000D03*
X63568000Y-44196000D03*
X62718000Y-44196000D03*
X61868000Y-44196000D03*
X61018000Y-44196000D03*
X60168000Y-44196000D03*
X59318000Y-44196000D03*
D29*
X58268000Y-45246000D03*
X58268000Y-46096000D03*
X58268000Y-46946000D03*
X58268000Y-47796000D03*
X58268000Y-48646000D03*
X58268000Y-49496000D03*
X58268000Y-50346000D03*
X58268000Y-51196000D03*
X58268000Y-52046000D03*
X58268000Y-52896000D03*
X58268000Y-53746000D03*
X58268000Y-54596000D03*
X58268000Y-55446000D03*
X58268000Y-56296000D03*
X58268000Y-57146000D03*
D28*
X59318000Y-58196000D03*
X60168000Y-58196000D03*
X61018000Y-58196000D03*
X61868000Y-58196000D03*
X62718000Y-58196000D03*
X63568000Y-58196000D03*
X64418000Y-58196000D03*
X65268000Y-58196000D03*
X66118000Y-58196000D03*
X66968000Y-58196000D03*
X67818000Y-58196000D03*
X68668000Y-58196000D03*
X69518000Y-58196000D03*
X70368000Y-58196000D03*
X71218000Y-58196000D03*
D29*
X72268000Y-57146000D03*
X72268000Y-56296000D03*
X72268000Y-55446000D03*
X72268000Y-54596000D03*
X72268000Y-53746000D03*
X72268000Y-52896000D03*
X72268000Y-52046000D03*
X72268000Y-51196000D03*
X72268000Y-50346000D03*
X72268000Y-49496000D03*
X72268000Y-48646000D03*
X72268000Y-47796000D03*
X72268000Y-46946000D03*
X72268000Y-46096000D03*
X72268000Y-45246000D03*
D30*
X66918000Y-49546000D03*
D31*
X65268000Y-49546000D03*
X63618000Y-49546000D03*
X66918000Y-51196000D03*
X65268000Y-51196000D03*
X63618000Y-51196000D03*
X66918000Y-52846000D03*
X65268000Y-52846000D03*
X63618000Y-52846000D03*
D32*
X72268000Y-44196000D03*
X58268000Y-44196000D03*
X58268000Y-58196000D03*
X72268000Y-58196000D03*
D13*
X46736000Y-71127500D03*
X46736000Y-72852500D03*
D14*
X45415096Y-49066380D03*
X43690096Y-49066380D03*
D15*
X64770000Y-42314500D03*
X64770000Y-40489500D03*
D12*
X43180500Y-74626000D03*
X44905500Y-74626000D03*
D33*
X68072000Y-64332000D03*
X66802000Y-64332000D03*
X65532000Y-64332000D03*
X64262000Y-64332000D03*
X64262000Y-69272000D03*
X65532000Y-69272000D03*
X66802000Y-69272000D03*
X68072000Y-69272000D03*
D23*
X68683500Y-71501000D03*
X70508500Y-71501000D03*
D31*
X45342000Y-47130000D03*
X42542000Y-47130000D03*
D20*
X71374000Y-42264500D03*
X71374000Y-40539500D03*
D34*
X40422553Y-47133701D03*
X39102553Y-47133701D03*
D15*
X37338000Y-67206500D03*
X37338000Y-65381500D03*
D20*
X69850000Y-65886500D03*
X69850000Y-64161500D03*
D15*
X48366441Y-72887568D03*
X48366441Y-71062568D03*
X43281000Y-72895000D03*
X43281000Y-71070000D03*
D13*
X24248000Y-56649600D03*
X24248000Y-58374600D03*
D14*
X55726500Y-66294000D03*
X54001500Y-66294000D03*
D23*
X54637500Y-48260000D03*
X56462500Y-48260000D03*
D15*
X44805000Y-72895000D03*
X44805000Y-71070000D03*
D13*
X38582000Y-73295500D03*
X38582000Y-75020500D03*
D23*
X55475500Y-71120000D03*
X57300500Y-71120000D03*
X56685329Y-69565453D03*
X58510329Y-69565453D03*
D26*
X52578000Y-40808000D03*
X52578000Y-44958000D03*
X50428000Y-40808000D03*
X50428000Y-44958000D03*
D35*
X59210000Y-40273000D03*
X59210000Y-42023000D03*
X62710000Y-42023000D03*
X62710000Y-40273000D03*
D13*
X25010000Y-52604500D03*
X25010000Y-54329500D03*
D34*
X44388938Y-50539396D03*
X45708938Y-50539396D03*
D36*
X28266000Y-52365000D03*
X28266000Y-53015000D03*
X28266000Y-53665000D03*
X28266000Y-54315000D03*
X26326000Y-54315000D03*
X26326000Y-53665000D03*
X26326000Y-53015000D03*
X26326000Y-52365000D03*
D15*
X49988511Y-72888203D03*
X49988511Y-71063203D03*
D11*
X59290000Y-78232000D03*
X57465000Y-78232000D03*
D20*
X69850000Y-42264500D03*
X69850000Y-40539500D03*
D12*
X54001500Y-67818000D03*
X55726500Y-67818000D03*
D13*
X62611000Y-66320500D03*
X62611000Y-68045500D03*
D11*
X52474500Y-48006000D03*
X50649500Y-48006000D03*
D34*
X36940000Y-48514000D03*
X38260000Y-48514000D03*
M02*
