%TF.GenerationSoftware,KiCad,Pcbnew,8.0.5*%
%TF.CreationDate,2024-09-28T10:16:11+02:00*%
%TF.ProjectId,Slave,536c6176-652e-46b6-9963-61645f706362,rev?*%
%TF.SameCoordinates,Original*%
%TF.FileFunction,Soldermask,Top*%
%TF.FilePolarity,Negative*%
%FSLAX46Y46*%
G04 Gerber Fmt 4.6, Leading zero omitted, Abs format (unit mm)*
G04 Created by KiCad (PCBNEW 8.0.5) date 2024-09-28 10:16:11*
%MOMM*%
%LPD*%
G01*
G04 APERTURE LIST*
G04 Aperture macros list*
%AMRoundRect*
0 Rectangle with rounded corners*
0 $1 Rounding radius*
0 $2 $3 $4 $5 $6 $7 $8 $9 X,Y pos of 4 corners*
0 Add a 4 corners polygon primitive as box body*
4,1,4,$2,$3,$4,$5,$6,$7,$8,$9,$2,$3,0*
0 Add four circle primitives for the rounded corners*
1,1,$1+$1,$2,$3*
1,1,$1+$1,$4,$5*
1,1,$1+$1,$6,$7*
1,1,$1+$1,$8,$9*
0 Add four rect primitives between the rounded corners*
20,1,$1+$1,$2,$3,$4,$5,0*
20,1,$1+$1,$4,$5,$6,$7,0*
20,1,$1+$1,$6,$7,$8,$9,0*
20,1,$1+$1,$8,$9,$2,$3,0*%
%AMOutline5P*
0 Free polygon, 5 corners , with rotation*
0 The origin of the aperture is its center*
0 number of corners: always 5*
0 $1 to $10 corner X, Y*
0 $11 Rotation angle, in degrees counterclockwise*
0 create outline with 5 corners*
4,1,5,$1,$2,$3,$4,$5,$6,$7,$8,$9,$10,$1,$2,$11*%
%AMOutline6P*
0 Free polygon, 6 corners , with rotation*
0 The origin of the aperture is its center*
0 number of corners: always 6*
0 $1 to $12 corner X, Y*
0 $13 Rotation angle, in degrees counterclockwise*
0 create outline with 6 corners*
4,1,6,$1,$2,$3,$4,$5,$6,$7,$8,$9,$10,$11,$12,$1,$2,$13*%
%AMOutline7P*
0 Free polygon, 7 corners , with rotation*
0 The origin of the aperture is its center*
0 number of corners: always 7*
0 $1 to $14 corner X, Y*
0 $15 Rotation angle, in degrees counterclockwise*
0 create outline with 7 corners*
4,1,7,$1,$2,$3,$4,$5,$6,$7,$8,$9,$10,$11,$12,$13,$14,$1,$2,$15*%
%AMOutline8P*
0 Free polygon, 8 corners , with rotation*
0 The origin of the aperture is its center*
0 number of corners: always 8*
0 $1 to $16 corner X, Y*
0 $17 Rotation angle, in degrees counterclockwise*
0 create outline with 8 corners*
4,1,8,$1,$2,$3,$4,$5,$6,$7,$8,$9,$10,$11,$12,$13,$14,$15,$16,$1,$2,$17*%
%AMFreePoly0*
4,1,53,0.180798,1.454629,0.352531,1.394537,0.506585,1.297738,0.635238,1.169085,0.732037,1.015031,0.792129,0.843298,0.812500,0.662500,0.792129,0.481702,0.732037,0.309969,0.635238,0.155915,0.506585,0.027262,0.352531,-0.069537,0.180798,-0.129629,0.000000,-0.150000,-0.180798,-0.129629,-0.352531,-0.069537,-0.506585,0.027262,-0.635238,0.155915,-0.732037,0.309969,-0.792129,0.481702,
-0.812500,0.662500,-0.517770,0.662500,-0.496797,0.516627,-0.435576,0.382572,-0.339067,0.271196,-0.215089,0.191520,-0.073686,0.150000,0.073686,0.150000,0.215089,0.191520,0.339067,0.271196,0.435576,0.382572,0.496797,0.516627,0.517770,0.662500,0.496797,0.808373,0.435576,0.942428,0.339067,1.053804,0.215089,1.133480,0.073686,1.175000,-0.073686,1.175000,-0.215089,1.133480,
-0.339067,1.053804,-0.435576,0.942428,-0.496797,0.808373,-0.517770,0.662500,-0.812500,0.662500,-0.792129,0.843298,-0.732037,1.015031,-0.635238,1.169085,-0.506585,1.297738,-0.352531,1.394537,-0.180798,1.454629,0.000000,1.475000,0.180798,1.454629,0.180798,1.454629,$1*%
G04 Aperture macros list end*
%ADD10R,1.700000X1.700000*%
%ADD11O,1.700000X1.700000*%
%ADD12RoundRect,0.237500X-0.300000X-0.237500X0.300000X-0.237500X0.300000X0.237500X-0.300000X0.237500X0*%
%ADD13RoundRect,0.237500X-0.237500X0.300000X-0.237500X-0.300000X0.237500X-0.300000X0.237500X0.300000X0*%
%ADD14RoundRect,0.237500X0.300000X0.237500X-0.300000X0.237500X-0.300000X-0.237500X0.300000X-0.237500X0*%
%ADD15RoundRect,0.237500X0.237500X-0.250000X0.237500X0.250000X-0.237500X0.250000X-0.237500X-0.250000X0*%
%ADD16C,0.650000*%
%ADD17RoundRect,0.150000X0.150000X0.425000X-0.150000X0.425000X-0.150000X-0.425000X0.150000X-0.425000X0*%
%ADD18RoundRect,0.075000X0.075000X0.500000X-0.075000X0.500000X-0.075000X-0.500000X0.075000X-0.500000X0*%
%ADD19O,1.000000X2.100000*%
%ADD20O,1.000000X1.800000*%
%ADD21C,0.500000*%
%ADD22RoundRect,0.150000X0.587500X0.150000X-0.587500X0.150000X-0.587500X-0.150000X0.587500X-0.150000X0*%
%ADD23RoundRect,0.059250X0.602750X0.177750X-0.602750X0.177750X-0.602750X-0.177750X0.602750X-0.177750X0*%
%ADD24R,2.200000X2.200000*%
%ADD25C,2.200000*%
%ADD26RoundRect,0.237500X0.250000X0.237500X-0.250000X0.237500X-0.250000X-0.237500X0.250000X-0.237500X0*%
%ADD27R,0.600000X0.522000*%
%ADD28FreePoly0,270.000000*%
%ADD29RoundRect,0.237500X-0.250000X-0.237500X0.250000X-0.237500X0.250000X0.237500X-0.250000X0.237500X0*%
%ADD30RoundRect,0.102000X-0.250000X-0.175000X0.250000X-0.175000X0.250000X0.175000X-0.250000X0.175000X0*%
%ADD31R,0.600000X1.750000*%
%ADD32RoundRect,0.100500X0.986500X0.301500X-0.986500X0.301500X-0.986500X-0.301500X0.986500X-0.301500X0*%
%ADD33RoundRect,0.102000X0.325000X-0.525000X0.325000X0.525000X-0.325000X0.525000X-0.325000X-0.525000X0*%
%ADD34RoundRect,0.150000X0.150000X-0.850000X0.150000X0.850000X-0.150000X0.850000X-0.150000X-0.850000X0*%
%ADD35R,0.400000X0.800000*%
%ADD36R,0.800000X0.400000*%
%ADD37Outline5P,-0.600000X0.204000X-0.204000X0.600000X0.600000X0.600000X0.600000X-0.600000X-0.600000X-0.600000X270.000000*%
%ADD38R,1.200000X1.200000*%
%ADD39R,0.800000X0.800000*%
%ADD40C,0.700000*%
%ADD41C,4.400000*%
%ADD42RoundRect,0.100500X-0.301500X0.986500X-0.301500X-0.986500X0.301500X-0.986500X0.301500X0.986500X0*%
%ADD43RoundRect,0.237500X0.237500X-0.300000X0.237500X0.300000X-0.237500X0.300000X-0.237500X-0.300000X0*%
%ADD44RoundRect,0.102000X0.240000X0.200000X-0.240000X0.200000X-0.240000X-0.200000X0.240000X-0.200000X0*%
%ADD45RoundRect,0.102000X-0.325000X0.525000X-0.325000X-0.525000X0.325000X-0.525000X0.325000X0.525000X0*%
%ADD46R,1.600000X0.850000*%
%ADD47RoundRect,0.102000X-0.240000X-0.200000X0.240000X-0.200000X0.240000X0.200000X-0.240000X0.200000X0*%
G04 APERTURE END LIST*
D10*
%TO.C,J3*%
X34798000Y-52324000D03*
D11*
X34798000Y-54864000D03*
X34798000Y-57404000D03*
X34798000Y-59944000D03*
X34798000Y-62484000D03*
X34798000Y-65024000D03*
X34798000Y-67564000D03*
%TD*%
D12*
%TO.C,C17*%
X67163500Y-73365500D03*
X68888500Y-73365500D03*
%TD*%
D13*
%TO.C,C1*%
X61976000Y-62637500D03*
X61976000Y-64362500D03*
%TD*%
%TO.C,C15*%
X52070000Y-71135000D03*
X52070000Y-72860000D03*
%TD*%
D14*
%TO.C,C3*%
X56412500Y-46736000D03*
X54687500Y-46736000D03*
%TD*%
D13*
%TO.C,C19*%
X52762000Y-78385500D03*
X52762000Y-80110500D03*
%TD*%
D15*
%TO.C,R6*%
X44390000Y-42312500D03*
X44390000Y-40487500D03*
%TD*%
D13*
%TO.C,C6*%
X23114000Y-56649600D03*
X23114000Y-58374600D03*
%TD*%
D16*
%TO.C,J1*%
X41092000Y-43629000D03*
X35312000Y-43629000D03*
D17*
X41402000Y-44704000D03*
X40602000Y-44704000D03*
D18*
X39452000Y-44704000D03*
X38452000Y-44704000D03*
X37952000Y-44704000D03*
X36952000Y-44704000D03*
D17*
X35802000Y-44704000D03*
X35002000Y-44704000D03*
X35002000Y-44704000D03*
X35802000Y-44704000D03*
D18*
X36452000Y-44704000D03*
X37452000Y-44704000D03*
X38952000Y-44704000D03*
X39952000Y-44704000D03*
D17*
X40602000Y-44704000D03*
X41402000Y-44704000D03*
D19*
X42522000Y-44129000D03*
D20*
X42522000Y-39949000D03*
D19*
X33882000Y-44129000D03*
D20*
X33882000Y-39949000D03*
%TD*%
D12*
%TO.C,C4*%
X50699500Y-46482000D03*
X52424500Y-46482000D03*
%TD*%
D13*
%TO.C,C8*%
X23838000Y-52645500D03*
X23838000Y-54370500D03*
%TD*%
D21*
%TO.C,*%
X32258000Y-58420000D03*
%TD*%
D22*
%TO.C,Q2*%
X40662500Y-71512000D03*
X40662500Y-69612000D03*
X38787500Y-70562000D03*
%TD*%
D23*
%TO.C,U2*%
X60206000Y-65774000D03*
X60206000Y-65274000D03*
X60206000Y-64774000D03*
X60206000Y-64274000D03*
X57396000Y-64274000D03*
X57396000Y-64774000D03*
X57396000Y-65274000D03*
X57396000Y-65774000D03*
%TD*%
D24*
%TO.C,J2*%
X73660000Y-78770000D03*
D25*
X71120000Y-78770000D03*
X68580000Y-78770000D03*
X66040000Y-78770000D03*
X63500000Y-78770000D03*
%TD*%
D21*
%TO.C,*%
X32234000Y-56884000D03*
%TD*%
D26*
%TO.C,R12*%
X67160500Y-71587500D03*
X65335500Y-71587500D03*
%TD*%
D13*
%TO.C,C18*%
X54356000Y-78385500D03*
X54356000Y-80110500D03*
%TD*%
D21*
%TO.C,*%
X32234000Y-56134000D03*
%TD*%
D10*
%TO.C,J4*%
X48504000Y-79248000D03*
D11*
X45964000Y-79248000D03*
X43424000Y-79248000D03*
X40884000Y-79248000D03*
%TD*%
D21*
%TO.C,*%
X30734000Y-56884000D03*
%TD*%
%TO.C,MK1*%
X27432000Y-56440000D03*
D27*
X28332000Y-58514000D03*
X28332000Y-57692000D03*
D28*
X26769500Y-56440000D03*
D27*
X26532000Y-57692000D03*
X26532000Y-58514000D03*
X27432000Y-58514000D03*
%TD*%
D21*
%TO.C,*%
X30734000Y-58420000D03*
%TD*%
D29*
%TO.C,R17*%
X55983500Y-79756000D03*
X57808500Y-79756000D03*
%TD*%
D30*
%TO.C,U3*%
X28448000Y-52548000D03*
X28448000Y-53198000D03*
X28448000Y-53848000D03*
X28448000Y-54498000D03*
X26848000Y-54498000D03*
X26848000Y-53848000D03*
X26848000Y-53198000D03*
X26848000Y-52548000D03*
%TD*%
D31*
%TO.C,J5*%
X23432000Y-62484000D03*
X24432000Y-60734000D03*
X25432000Y-62484000D03*
X26432000Y-60734000D03*
X27432000Y-62484000D03*
X28432000Y-60734000D03*
X29432000Y-62484000D03*
%TD*%
D21*
%TO.C,*%
X32234000Y-57634000D03*
%TD*%
D14*
%TO.C,C16*%
X65522500Y-73400000D03*
X63797500Y-73400000D03*
%TD*%
D32*
%TO.C,U4*%
X59765000Y-76635000D03*
X59765000Y-75365000D03*
X59765000Y-74095000D03*
X59765000Y-72825000D03*
X54825000Y-72825000D03*
X54825000Y-74095000D03*
X54825000Y-75365000D03*
X54825000Y-76635000D03*
%TD*%
D26*
%TO.C,R7*%
X36332500Y-46736000D03*
X34507500Y-46736000D03*
%TD*%
D33*
%TO.C,SW1*%
X54356000Y-44958000D03*
X54356000Y-40808000D03*
X56506000Y-44958000D03*
X56506000Y-40808000D03*
%TD*%
D34*
%TO.C,U5*%
X40360000Y-67220000D03*
X41630000Y-67220000D03*
X42900000Y-67220000D03*
X44170000Y-67220000D03*
X45440000Y-67220000D03*
X46710000Y-67220000D03*
X47980000Y-67220000D03*
X49250000Y-67220000D03*
X49250000Y-62220000D03*
X47980000Y-62220000D03*
X46710000Y-62220000D03*
X45440000Y-62220000D03*
X44170000Y-62220000D03*
X42900000Y-62220000D03*
X41630000Y-62220000D03*
X40360000Y-62220000D03*
%TD*%
D35*
%TO.C,U1*%
X71218000Y-44196000D03*
X70368000Y-44196000D03*
X69518000Y-44196000D03*
X68668000Y-44196000D03*
X67818000Y-44196000D03*
X66968000Y-44196000D03*
X66118000Y-44196000D03*
X65268000Y-44196000D03*
X64418000Y-44196000D03*
X63568000Y-44196000D03*
X62718000Y-44196000D03*
X61868000Y-44196000D03*
X61018000Y-44196000D03*
X60168000Y-44196000D03*
X59318000Y-44196000D03*
D36*
X58268000Y-45246000D03*
X58268000Y-46096000D03*
X58268000Y-46946000D03*
X58268000Y-47796000D03*
X58268000Y-48646000D03*
X58268000Y-49496000D03*
X58268000Y-50346000D03*
X58268000Y-51196000D03*
X58268000Y-52046000D03*
X58268000Y-52896000D03*
X58268000Y-53746000D03*
X58268000Y-54596000D03*
X58268000Y-55446000D03*
X58268000Y-56296000D03*
X58268000Y-57146000D03*
D35*
X59318000Y-58196000D03*
X60168000Y-58196000D03*
X61018000Y-58196000D03*
X61868000Y-58196000D03*
X62718000Y-58196000D03*
X63568000Y-58196000D03*
X64418000Y-58196000D03*
X65268000Y-58196000D03*
X66118000Y-58196000D03*
X66968000Y-58196000D03*
X67818000Y-58196000D03*
X68668000Y-58196000D03*
X69518000Y-58196000D03*
X70368000Y-58196000D03*
X71218000Y-58196000D03*
D36*
X72268000Y-57146000D03*
X72268000Y-56296000D03*
X72268000Y-55446000D03*
X72268000Y-54596000D03*
X72268000Y-53746000D03*
X72268000Y-52896000D03*
X72268000Y-52046000D03*
X72268000Y-51196000D03*
X72268000Y-50346000D03*
X72268000Y-49496000D03*
X72268000Y-48646000D03*
X72268000Y-47796000D03*
X72268000Y-46946000D03*
X72268000Y-46096000D03*
X72268000Y-45246000D03*
D37*
X66918000Y-49546000D03*
D38*
X65268000Y-49546000D03*
X63618000Y-49546000D03*
X66918000Y-51196000D03*
X65268000Y-51196000D03*
X63618000Y-51196000D03*
X66918000Y-52846000D03*
X65268000Y-52846000D03*
X63618000Y-52846000D03*
D39*
X72268000Y-44196000D03*
X58268000Y-44196000D03*
X58268000Y-58196000D03*
X72268000Y-58196000D03*
%TD*%
D13*
%TO.C,C14*%
X47244000Y-71127500D03*
X47244000Y-72852500D03*
%TD*%
D14*
%TO.C,C2*%
X44822500Y-49060000D03*
X43097500Y-49060000D03*
%TD*%
D15*
%TO.C,R11*%
X70104000Y-61872500D03*
X70104000Y-60047500D03*
%TD*%
%TO.C,R8*%
X64770000Y-42314500D03*
X64770000Y-40489500D03*
%TD*%
D12*
%TO.C,C13*%
X43180500Y-74626000D03*
X44905500Y-74626000D03*
%TD*%
D40*
%TO.C,H2*%
X24512000Y-49149000D03*
X24995274Y-47982274D03*
X24995274Y-50315726D03*
X26162000Y-47499000D03*
D41*
X26162000Y-49149000D03*
D40*
X26162000Y-50799000D03*
X27328726Y-47982274D03*
X27328726Y-50315726D03*
X27812000Y-49149000D03*
%TD*%
D42*
%TO.C,U6*%
X68199000Y-64332000D03*
X66929000Y-64332000D03*
X65659000Y-64332000D03*
X64389000Y-64332000D03*
X64389000Y-69272000D03*
X65659000Y-69272000D03*
X66929000Y-69272000D03*
X68199000Y-69272000D03*
%TD*%
D38*
%TO.C,D2*%
X44770000Y-47130000D03*
X41970000Y-47130000D03*
%TD*%
D43*
%TO.C,C9*%
X71374000Y-42264500D03*
X71374000Y-40539500D03*
%TD*%
D44*
%TO.C,D3*%
X40497500Y-47120000D03*
X39177500Y-47120000D03*
%TD*%
D15*
%TO.C,R15*%
X50502000Y-72910000D03*
X50502000Y-71085000D03*
%TD*%
%TO.C,R13*%
X43281000Y-72895000D03*
X43281000Y-71070000D03*
%TD*%
D13*
%TO.C,C5*%
X24638000Y-56649600D03*
X24638000Y-58374600D03*
%TD*%
D14*
%TO.C,C20*%
X55726500Y-66294000D03*
X54001500Y-66294000D03*
%TD*%
D29*
%TO.C,R9*%
X54637500Y-48260000D03*
X56462500Y-48260000D03*
%TD*%
D15*
%TO.C,R14*%
X44805000Y-72895000D03*
X44805000Y-71070000D03*
%TD*%
D13*
%TO.C,C11*%
X38582000Y-73295500D03*
X38582000Y-75020500D03*
%TD*%
D45*
%TO.C,SW2*%
X52578000Y-40808000D03*
X52578000Y-44958000D03*
X50428000Y-40808000D03*
X50428000Y-44958000D03*
%TD*%
D21*
%TO.C,*%
X30734000Y-56134000D03*
%TD*%
D46*
%TO.C,D5*%
X59210000Y-40273000D03*
X59210000Y-42023000D03*
X62710000Y-42023000D03*
X62710000Y-40273000D03*
%TD*%
D13*
%TO.C,C7*%
X25400000Y-52604500D03*
X25400000Y-54329500D03*
%TD*%
D47*
%TO.C,D4*%
X43800000Y-50530000D03*
X45120000Y-50530000D03*
%TD*%
D26*
%TO.C,R16*%
X59290000Y-78232000D03*
X57465000Y-78232000D03*
%TD*%
D43*
%TO.C,C10*%
X69850000Y-42264500D03*
X69850000Y-40539500D03*
%TD*%
D21*
%TO.C,*%
X30734000Y-57600000D03*
%TD*%
D40*
%TO.C,H1*%
X51285274Y-62968274D03*
X51768548Y-61801548D03*
X51768548Y-64135000D03*
X52935274Y-61318274D03*
D41*
X52935274Y-62968274D03*
D40*
X52935274Y-64618274D03*
X54102000Y-61801548D03*
X54102000Y-64135000D03*
X54585274Y-62968274D03*
%TD*%
D26*
%TO.C,R10*%
X52474500Y-48006000D03*
X50649500Y-48006000D03*
%TD*%
D13*
%TO.C,C12*%
X71628000Y-60097500D03*
X71628000Y-61822500D03*
%TD*%
D47*
%TO.C,D1*%
X36940000Y-48514000D03*
X38260000Y-48514000D03*
%TD*%
M02*
