%TF.GenerationSoftware,KiCad,Pcbnew,8.0.5*%
%TF.CreationDate,2024-09-28T10:16:11+02:00*%
%TF.ProjectId,Slave,536c6176-652e-46b6-9963-61645f706362,rev?*%
%TF.SameCoordinates,Original*%
%TF.FileFunction,Legend,Top*%
%TF.FilePolarity,Positive*%
%FSLAX46Y46*%
G04 Gerber Fmt 4.6, Leading zero omitted, Abs format (unit mm)*
G04 Created by KiCad (PCBNEW 8.0.5) date 2024-09-28 10:16:11*
%MOMM*%
%LPD*%
G01*
G04 APERTURE LIST*
%ADD10C,0.150000*%
%ADD11C,0.250000*%
%ADD12C,0.120000*%
%ADD13C,0.127000*%
%ADD14C,0.200000*%
%ADD15C,0.000000*%
G04 APERTURE END LIST*
D10*
X65643303Y-74875104D02*
X65605207Y-74913200D01*
X65605207Y-74913200D02*
X65490922Y-74951295D01*
X65490922Y-74951295D02*
X65414731Y-74951295D01*
X65414731Y-74951295D02*
X65300445Y-74913200D01*
X65300445Y-74913200D02*
X65224255Y-74837009D01*
X65224255Y-74837009D02*
X65186160Y-74760819D01*
X65186160Y-74760819D02*
X65148064Y-74608438D01*
X65148064Y-74608438D02*
X65148064Y-74494152D01*
X65148064Y-74494152D02*
X65186160Y-74341771D01*
X65186160Y-74341771D02*
X65224255Y-74265580D01*
X65224255Y-74265580D02*
X65300445Y-74189390D01*
X65300445Y-74189390D02*
X65414731Y-74151295D01*
X65414731Y-74151295D02*
X65490922Y-74151295D01*
X65490922Y-74151295D02*
X65605207Y-74189390D01*
X65605207Y-74189390D02*
X65643303Y-74227485D01*
X65948064Y-74722723D02*
X66329017Y-74722723D01*
X65871874Y-74951295D02*
X66138541Y-74151295D01*
X66138541Y-74151295D02*
X66405207Y-74951295D01*
X66671874Y-74951295D02*
X66671874Y-74151295D01*
X66671874Y-74151295D02*
X67129017Y-74951295D01*
X67129017Y-74951295D02*
X67129017Y-74151295D01*
X67509969Y-74646533D02*
X68119493Y-74646533D01*
X67814731Y-74951295D02*
X67814731Y-74341771D01*
X71230295Y-74844030D02*
X71230295Y-74348792D01*
X71230295Y-74348792D02*
X71535057Y-74615458D01*
X71535057Y-74615458D02*
X71535057Y-74501173D01*
X71535057Y-74501173D02*
X71573152Y-74424982D01*
X71573152Y-74424982D02*
X71611247Y-74386887D01*
X71611247Y-74386887D02*
X71687438Y-74348792D01*
X71687438Y-74348792D02*
X71877914Y-74348792D01*
X71877914Y-74348792D02*
X71954104Y-74386887D01*
X71954104Y-74386887D02*
X71992200Y-74424982D01*
X71992200Y-74424982D02*
X72030295Y-74501173D01*
X72030295Y-74501173D02*
X72030295Y-74729744D01*
X72030295Y-74729744D02*
X71992200Y-74805935D01*
X71992200Y-74805935D02*
X71954104Y-74844030D01*
X71230295Y-74120220D02*
X72030295Y-73853553D01*
X72030295Y-73853553D02*
X71230295Y-73586887D01*
X71230295Y-73396411D02*
X71230295Y-72901173D01*
X71230295Y-72901173D02*
X71535057Y-73167839D01*
X71535057Y-73167839D02*
X71535057Y-73053554D01*
X71535057Y-73053554D02*
X71573152Y-72977363D01*
X71573152Y-72977363D02*
X71611247Y-72939268D01*
X71611247Y-72939268D02*
X71687438Y-72901173D01*
X71687438Y-72901173D02*
X71877914Y-72901173D01*
X71877914Y-72901173D02*
X71954104Y-72939268D01*
X71954104Y-72939268D02*
X71992200Y-72977363D01*
X71992200Y-72977363D02*
X72030295Y-73053554D01*
X72030295Y-73053554D02*
X72030295Y-73282125D01*
X72030295Y-73282125D02*
X71992200Y-73358316D01*
X71992200Y-73358316D02*
X71954104Y-73396411D01*
D11*
X54329901Y-39091809D02*
X54472758Y-39139428D01*
X54472758Y-39139428D02*
X54520377Y-39187047D01*
X54520377Y-39187047D02*
X54567996Y-39282285D01*
X54567996Y-39282285D02*
X54567996Y-39425142D01*
X54567996Y-39425142D02*
X54520377Y-39520380D01*
X54520377Y-39520380D02*
X54472758Y-39568000D01*
X54472758Y-39568000D02*
X54377520Y-39615619D01*
X54377520Y-39615619D02*
X53996568Y-39615619D01*
X53996568Y-39615619D02*
X53996568Y-38615619D01*
X53996568Y-38615619D02*
X54329901Y-38615619D01*
X54329901Y-38615619D02*
X54425139Y-38663238D01*
X54425139Y-38663238D02*
X54472758Y-38710857D01*
X54472758Y-38710857D02*
X54520377Y-38806095D01*
X54520377Y-38806095D02*
X54520377Y-38901333D01*
X54520377Y-38901333D02*
X54472758Y-38996571D01*
X54472758Y-38996571D02*
X54425139Y-39044190D01*
X54425139Y-39044190D02*
X54329901Y-39091809D01*
X54329901Y-39091809D02*
X53996568Y-39091809D01*
X55187044Y-38615619D02*
X55377520Y-38615619D01*
X55377520Y-38615619D02*
X55472758Y-38663238D01*
X55472758Y-38663238D02*
X55567996Y-38758476D01*
X55567996Y-38758476D02*
X55615615Y-38948952D01*
X55615615Y-38948952D02*
X55615615Y-39282285D01*
X55615615Y-39282285D02*
X55567996Y-39472761D01*
X55567996Y-39472761D02*
X55472758Y-39568000D01*
X55472758Y-39568000D02*
X55377520Y-39615619D01*
X55377520Y-39615619D02*
X55187044Y-39615619D01*
X55187044Y-39615619D02*
X55091806Y-39568000D01*
X55091806Y-39568000D02*
X54996568Y-39472761D01*
X54996568Y-39472761D02*
X54948949Y-39282285D01*
X54948949Y-39282285D02*
X54948949Y-38948952D01*
X54948949Y-38948952D02*
X54996568Y-38758476D01*
X54996568Y-38758476D02*
X55091806Y-38663238D01*
X55091806Y-38663238D02*
X55187044Y-38615619D01*
X56234663Y-38615619D02*
X56425139Y-38615619D01*
X56425139Y-38615619D02*
X56520377Y-38663238D01*
X56520377Y-38663238D02*
X56615615Y-38758476D01*
X56615615Y-38758476D02*
X56663234Y-38948952D01*
X56663234Y-38948952D02*
X56663234Y-39282285D01*
X56663234Y-39282285D02*
X56615615Y-39472761D01*
X56615615Y-39472761D02*
X56520377Y-39568000D01*
X56520377Y-39568000D02*
X56425139Y-39615619D01*
X56425139Y-39615619D02*
X56234663Y-39615619D01*
X56234663Y-39615619D02*
X56139425Y-39568000D01*
X56139425Y-39568000D02*
X56044187Y-39472761D01*
X56044187Y-39472761D02*
X55996568Y-39282285D01*
X55996568Y-39282285D02*
X55996568Y-38948952D01*
X55996568Y-38948952D02*
X56044187Y-38758476D01*
X56044187Y-38758476D02*
X56139425Y-38663238D01*
X56139425Y-38663238D02*
X56234663Y-38615619D01*
X56948949Y-38615619D02*
X57520377Y-38615619D01*
X57234663Y-39615619D02*
X57234663Y-38615619D01*
D10*
X68780207Y-74189390D02*
X68704017Y-74151295D01*
X68704017Y-74151295D02*
X68589731Y-74151295D01*
X68589731Y-74151295D02*
X68475445Y-74189390D01*
X68475445Y-74189390D02*
X68399255Y-74265580D01*
X68399255Y-74265580D02*
X68361160Y-74341771D01*
X68361160Y-74341771D02*
X68323064Y-74494152D01*
X68323064Y-74494152D02*
X68323064Y-74608438D01*
X68323064Y-74608438D02*
X68361160Y-74760819D01*
X68361160Y-74760819D02*
X68399255Y-74837009D01*
X68399255Y-74837009D02*
X68475445Y-74913200D01*
X68475445Y-74913200D02*
X68589731Y-74951295D01*
X68589731Y-74951295D02*
X68665922Y-74951295D01*
X68665922Y-74951295D02*
X68780207Y-74913200D01*
X68780207Y-74913200D02*
X68818303Y-74875104D01*
X68818303Y-74875104D02*
X68818303Y-74608438D01*
X68818303Y-74608438D02*
X68665922Y-74608438D01*
X69161160Y-74951295D02*
X69161160Y-74151295D01*
X69161160Y-74151295D02*
X69618303Y-74951295D01*
X69618303Y-74951295D02*
X69618303Y-74151295D01*
X69999255Y-74951295D02*
X69999255Y-74151295D01*
X69999255Y-74151295D02*
X70189731Y-74151295D01*
X70189731Y-74151295D02*
X70304017Y-74189390D01*
X70304017Y-74189390D02*
X70380207Y-74265580D01*
X70380207Y-74265580D02*
X70418302Y-74341771D01*
X70418302Y-74341771D02*
X70456398Y-74494152D01*
X70456398Y-74494152D02*
X70456398Y-74608438D01*
X70456398Y-74608438D02*
X70418302Y-74760819D01*
X70418302Y-74760819D02*
X70380207Y-74837009D01*
X70380207Y-74837009D02*
X70304017Y-74913200D01*
X70304017Y-74913200D02*
X70189731Y-74951295D01*
X70189731Y-74951295D02*
X69999255Y-74951295D01*
X62341303Y-75002104D02*
X62303207Y-75040200D01*
X62303207Y-75040200D02*
X62188922Y-75078295D01*
X62188922Y-75078295D02*
X62112731Y-75078295D01*
X62112731Y-75078295D02*
X61998445Y-75040200D01*
X61998445Y-75040200D02*
X61922255Y-74964009D01*
X61922255Y-74964009D02*
X61884160Y-74887819D01*
X61884160Y-74887819D02*
X61846064Y-74735438D01*
X61846064Y-74735438D02*
X61846064Y-74621152D01*
X61846064Y-74621152D02*
X61884160Y-74468771D01*
X61884160Y-74468771D02*
X61922255Y-74392580D01*
X61922255Y-74392580D02*
X61998445Y-74316390D01*
X61998445Y-74316390D02*
X62112731Y-74278295D01*
X62112731Y-74278295D02*
X62188922Y-74278295D01*
X62188922Y-74278295D02*
X62303207Y-74316390D01*
X62303207Y-74316390D02*
X62341303Y-74354485D01*
X62646064Y-74849723D02*
X63027017Y-74849723D01*
X62569874Y-75078295D02*
X62836541Y-74278295D01*
X62836541Y-74278295D02*
X63103207Y-75078295D01*
X63369874Y-75078295D02*
X63369874Y-74278295D01*
X63369874Y-74278295D02*
X63827017Y-75078295D01*
X63827017Y-75078295D02*
X63827017Y-74278295D01*
X64207969Y-74773533D02*
X64817493Y-74773533D01*
D11*
X49741996Y-39615619D02*
X49408663Y-39139428D01*
X49170568Y-39615619D02*
X49170568Y-38615619D01*
X49170568Y-38615619D02*
X49551520Y-38615619D01*
X49551520Y-38615619D02*
X49646758Y-38663238D01*
X49646758Y-38663238D02*
X49694377Y-38710857D01*
X49694377Y-38710857D02*
X49741996Y-38806095D01*
X49741996Y-38806095D02*
X49741996Y-38948952D01*
X49741996Y-38948952D02*
X49694377Y-39044190D01*
X49694377Y-39044190D02*
X49646758Y-39091809D01*
X49646758Y-39091809D02*
X49551520Y-39139428D01*
X49551520Y-39139428D02*
X49170568Y-39139428D01*
X50170568Y-39091809D02*
X50503901Y-39091809D01*
X50646758Y-39615619D02*
X50170568Y-39615619D01*
X50170568Y-39615619D02*
X50170568Y-38615619D01*
X50170568Y-38615619D02*
X50646758Y-38615619D01*
X51027711Y-39568000D02*
X51170568Y-39615619D01*
X51170568Y-39615619D02*
X51408663Y-39615619D01*
X51408663Y-39615619D02*
X51503901Y-39568000D01*
X51503901Y-39568000D02*
X51551520Y-39520380D01*
X51551520Y-39520380D02*
X51599139Y-39425142D01*
X51599139Y-39425142D02*
X51599139Y-39329904D01*
X51599139Y-39329904D02*
X51551520Y-39234666D01*
X51551520Y-39234666D02*
X51503901Y-39187047D01*
X51503901Y-39187047D02*
X51408663Y-39139428D01*
X51408663Y-39139428D02*
X51218187Y-39091809D01*
X51218187Y-39091809D02*
X51122949Y-39044190D01*
X51122949Y-39044190D02*
X51075330Y-38996571D01*
X51075330Y-38996571D02*
X51027711Y-38901333D01*
X51027711Y-38901333D02*
X51027711Y-38806095D01*
X51027711Y-38806095D02*
X51075330Y-38710857D01*
X51075330Y-38710857D02*
X51122949Y-38663238D01*
X51122949Y-38663238D02*
X51218187Y-38615619D01*
X51218187Y-38615619D02*
X51456282Y-38615619D01*
X51456282Y-38615619D02*
X51599139Y-38663238D01*
X52027711Y-39091809D02*
X52361044Y-39091809D01*
X52503901Y-39615619D02*
X52027711Y-39615619D01*
X52027711Y-39615619D02*
X52027711Y-38615619D01*
X52027711Y-38615619D02*
X52503901Y-38615619D01*
X52789616Y-38615619D02*
X53361044Y-38615619D01*
X53075330Y-39615619D02*
X53075330Y-38615619D01*
D10*
X73389295Y-74386887D02*
X73389295Y-74767839D01*
X73389295Y-74767839D02*
X73770247Y-74805935D01*
X73770247Y-74805935D02*
X73732152Y-74767839D01*
X73732152Y-74767839D02*
X73694057Y-74691649D01*
X73694057Y-74691649D02*
X73694057Y-74501173D01*
X73694057Y-74501173D02*
X73732152Y-74424982D01*
X73732152Y-74424982D02*
X73770247Y-74386887D01*
X73770247Y-74386887D02*
X73846438Y-74348792D01*
X73846438Y-74348792D02*
X74036914Y-74348792D01*
X74036914Y-74348792D02*
X74113104Y-74386887D01*
X74113104Y-74386887D02*
X74151200Y-74424982D01*
X74151200Y-74424982D02*
X74189295Y-74501173D01*
X74189295Y-74501173D02*
X74189295Y-74691649D01*
X74189295Y-74691649D02*
X74151200Y-74767839D01*
X74151200Y-74767839D02*
X74113104Y-74805935D01*
X73389295Y-74120220D02*
X74189295Y-73853553D01*
X74189295Y-73853553D02*
X73389295Y-73586887D01*
X34464666Y-49008819D02*
X34464666Y-49723104D01*
X34464666Y-49723104D02*
X34417047Y-49865961D01*
X34417047Y-49865961D02*
X34321809Y-49961200D01*
X34321809Y-49961200D02*
X34178952Y-50008819D01*
X34178952Y-50008819D02*
X34083714Y-50008819D01*
X34845619Y-49008819D02*
X35464666Y-49008819D01*
X35464666Y-49008819D02*
X35131333Y-49389771D01*
X35131333Y-49389771D02*
X35274190Y-49389771D01*
X35274190Y-49389771D02*
X35369428Y-49437390D01*
X35369428Y-49437390D02*
X35417047Y-49485009D01*
X35417047Y-49485009D02*
X35464666Y-49580247D01*
X35464666Y-49580247D02*
X35464666Y-49818342D01*
X35464666Y-49818342D02*
X35417047Y-49913580D01*
X35417047Y-49913580D02*
X35369428Y-49961200D01*
X35369428Y-49961200D02*
X35274190Y-50008819D01*
X35274190Y-50008819D02*
X34988476Y-50008819D01*
X34988476Y-50008819D02*
X34893238Y-49961200D01*
X34893238Y-49961200D02*
X34845619Y-49913580D01*
X70844580Y-73413857D02*
X70892200Y-73461476D01*
X70892200Y-73461476D02*
X70939819Y-73604333D01*
X70939819Y-73604333D02*
X70939819Y-73699571D01*
X70939819Y-73699571D02*
X70892200Y-73842428D01*
X70892200Y-73842428D02*
X70796961Y-73937666D01*
X70796961Y-73937666D02*
X70701723Y-73985285D01*
X70701723Y-73985285D02*
X70511247Y-74032904D01*
X70511247Y-74032904D02*
X70368390Y-74032904D01*
X70368390Y-74032904D02*
X70177914Y-73985285D01*
X70177914Y-73985285D02*
X70082676Y-73937666D01*
X70082676Y-73937666D02*
X69987438Y-73842428D01*
X69987438Y-73842428D02*
X69939819Y-73699571D01*
X69939819Y-73699571D02*
X69939819Y-73604333D01*
X69939819Y-73604333D02*
X69987438Y-73461476D01*
X69987438Y-73461476D02*
X70035057Y-73413857D01*
X70939819Y-72461476D02*
X70939819Y-73032904D01*
X70939819Y-72747190D02*
X69939819Y-72747190D01*
X69939819Y-72747190D02*
X70082676Y-72842428D01*
X70082676Y-72842428D02*
X70177914Y-72937666D01*
X70177914Y-72937666D02*
X70225533Y-73032904D01*
X69939819Y-72128142D02*
X69939819Y-71461476D01*
X69939819Y-71461476D02*
X70939819Y-71890047D01*
X63765580Y-63666666D02*
X63813200Y-63714285D01*
X63813200Y-63714285D02*
X63860819Y-63857142D01*
X63860819Y-63857142D02*
X63860819Y-63952380D01*
X63860819Y-63952380D02*
X63813200Y-64095237D01*
X63813200Y-64095237D02*
X63717961Y-64190475D01*
X63717961Y-64190475D02*
X63622723Y-64238094D01*
X63622723Y-64238094D02*
X63432247Y-64285713D01*
X63432247Y-64285713D02*
X63289390Y-64285713D01*
X63289390Y-64285713D02*
X63098914Y-64238094D01*
X63098914Y-64238094D02*
X63003676Y-64190475D01*
X63003676Y-64190475D02*
X62908438Y-64095237D01*
X62908438Y-64095237D02*
X62860819Y-63952380D01*
X62860819Y-63952380D02*
X62860819Y-63857142D01*
X62860819Y-63857142D02*
X62908438Y-63714285D01*
X62908438Y-63714285D02*
X62956057Y-63666666D01*
X63860819Y-62714285D02*
X63860819Y-63285713D01*
X63860819Y-62999999D02*
X62860819Y-62999999D01*
X62860819Y-62999999D02*
X63003676Y-63095237D01*
X63003676Y-63095237D02*
X63098914Y-63190475D01*
X63098914Y-63190475D02*
X63146533Y-63285713D01*
X52429580Y-75688357D02*
X52477200Y-75735976D01*
X52477200Y-75735976D02*
X52524819Y-75878833D01*
X52524819Y-75878833D02*
X52524819Y-75974071D01*
X52524819Y-75974071D02*
X52477200Y-76116928D01*
X52477200Y-76116928D02*
X52381961Y-76212166D01*
X52381961Y-76212166D02*
X52286723Y-76259785D01*
X52286723Y-76259785D02*
X52096247Y-76307404D01*
X52096247Y-76307404D02*
X51953390Y-76307404D01*
X51953390Y-76307404D02*
X51762914Y-76259785D01*
X51762914Y-76259785D02*
X51667676Y-76212166D01*
X51667676Y-76212166D02*
X51572438Y-76116928D01*
X51572438Y-76116928D02*
X51524819Y-75974071D01*
X51524819Y-75974071D02*
X51524819Y-75878833D01*
X51524819Y-75878833D02*
X51572438Y-75735976D01*
X51572438Y-75735976D02*
X51620057Y-75688357D01*
X52524819Y-74735976D02*
X52524819Y-75307404D01*
X52524819Y-75021690D02*
X51524819Y-75021690D01*
X51524819Y-75021690D02*
X51667676Y-75116928D01*
X51667676Y-75116928D02*
X51762914Y-75212166D01*
X51762914Y-75212166D02*
X51810533Y-75307404D01*
X51524819Y-73831214D02*
X51524819Y-74307404D01*
X51524819Y-74307404D02*
X52001009Y-74355023D01*
X52001009Y-74355023D02*
X51953390Y-74307404D01*
X51953390Y-74307404D02*
X51905771Y-74212166D01*
X51905771Y-74212166D02*
X51905771Y-73974071D01*
X51905771Y-73974071D02*
X51953390Y-73878833D01*
X51953390Y-73878833D02*
X52001009Y-73831214D01*
X52001009Y-73831214D02*
X52096247Y-73783595D01*
X52096247Y-73783595D02*
X52334342Y-73783595D01*
X52334342Y-73783595D02*
X52429580Y-73831214D01*
X52429580Y-73831214D02*
X52477200Y-73878833D01*
X52477200Y-73878833D02*
X52524819Y-73974071D01*
X52524819Y-73974071D02*
X52524819Y-74212166D01*
X52524819Y-74212166D02*
X52477200Y-74307404D01*
X52477200Y-74307404D02*
X52429580Y-74355023D01*
X55459333Y-50270580D02*
X55411714Y-50318200D01*
X55411714Y-50318200D02*
X55268857Y-50365819D01*
X55268857Y-50365819D02*
X55173619Y-50365819D01*
X55173619Y-50365819D02*
X55030762Y-50318200D01*
X55030762Y-50318200D02*
X54935524Y-50222961D01*
X54935524Y-50222961D02*
X54887905Y-50127723D01*
X54887905Y-50127723D02*
X54840286Y-49937247D01*
X54840286Y-49937247D02*
X54840286Y-49794390D01*
X54840286Y-49794390D02*
X54887905Y-49603914D01*
X54887905Y-49603914D02*
X54935524Y-49508676D01*
X54935524Y-49508676D02*
X55030762Y-49413438D01*
X55030762Y-49413438D02*
X55173619Y-49365819D01*
X55173619Y-49365819D02*
X55268857Y-49365819D01*
X55268857Y-49365819D02*
X55411714Y-49413438D01*
X55411714Y-49413438D02*
X55459333Y-49461057D01*
X55792667Y-49365819D02*
X56411714Y-49365819D01*
X56411714Y-49365819D02*
X56078381Y-49746771D01*
X56078381Y-49746771D02*
X56221238Y-49746771D01*
X56221238Y-49746771D02*
X56316476Y-49794390D01*
X56316476Y-49794390D02*
X56364095Y-49842009D01*
X56364095Y-49842009D02*
X56411714Y-49937247D01*
X56411714Y-49937247D02*
X56411714Y-50175342D01*
X56411714Y-50175342D02*
X56364095Y-50270580D01*
X56364095Y-50270580D02*
X56316476Y-50318200D01*
X56316476Y-50318200D02*
X56221238Y-50365819D01*
X56221238Y-50365819D02*
X55935524Y-50365819D01*
X55935524Y-50365819D02*
X55840286Y-50318200D01*
X55840286Y-50318200D02*
X55792667Y-50270580D01*
X51554142Y-82020580D02*
X51506523Y-82068200D01*
X51506523Y-82068200D02*
X51363666Y-82115819D01*
X51363666Y-82115819D02*
X51268428Y-82115819D01*
X51268428Y-82115819D02*
X51125571Y-82068200D01*
X51125571Y-82068200D02*
X51030333Y-81972961D01*
X51030333Y-81972961D02*
X50982714Y-81877723D01*
X50982714Y-81877723D02*
X50935095Y-81687247D01*
X50935095Y-81687247D02*
X50935095Y-81544390D01*
X50935095Y-81544390D02*
X50982714Y-81353914D01*
X50982714Y-81353914D02*
X51030333Y-81258676D01*
X51030333Y-81258676D02*
X51125571Y-81163438D01*
X51125571Y-81163438D02*
X51268428Y-81115819D01*
X51268428Y-81115819D02*
X51363666Y-81115819D01*
X51363666Y-81115819D02*
X51506523Y-81163438D01*
X51506523Y-81163438D02*
X51554142Y-81211057D01*
X52506523Y-82115819D02*
X51935095Y-82115819D01*
X52220809Y-82115819D02*
X52220809Y-81115819D01*
X52220809Y-81115819D02*
X52125571Y-81258676D01*
X52125571Y-81258676D02*
X52030333Y-81353914D01*
X52030333Y-81353914D02*
X51935095Y-81401533D01*
X52982714Y-82115819D02*
X53173190Y-82115819D01*
X53173190Y-82115819D02*
X53268428Y-82068200D01*
X53268428Y-82068200D02*
X53316047Y-82020580D01*
X53316047Y-82020580D02*
X53411285Y-81877723D01*
X53411285Y-81877723D02*
X53458904Y-81687247D01*
X53458904Y-81687247D02*
X53458904Y-81306295D01*
X53458904Y-81306295D02*
X53411285Y-81211057D01*
X53411285Y-81211057D02*
X53363666Y-81163438D01*
X53363666Y-81163438D02*
X53268428Y-81115819D01*
X53268428Y-81115819D02*
X53077952Y-81115819D01*
X53077952Y-81115819D02*
X52982714Y-81163438D01*
X52982714Y-81163438D02*
X52935095Y-81211057D01*
X52935095Y-81211057D02*
X52887476Y-81306295D01*
X52887476Y-81306295D02*
X52887476Y-81544390D01*
X52887476Y-81544390D02*
X52935095Y-81639628D01*
X52935095Y-81639628D02*
X52982714Y-81687247D01*
X52982714Y-81687247D02*
X53077952Y-81734866D01*
X53077952Y-81734866D02*
X53268428Y-81734866D01*
X53268428Y-81734866D02*
X53363666Y-81687247D01*
X53363666Y-81687247D02*
X53411285Y-81639628D01*
X53411285Y-81639628D02*
X53458904Y-81544390D01*
X46301819Y-41568666D02*
X45825628Y-41901999D01*
X46301819Y-42140094D02*
X45301819Y-42140094D01*
X45301819Y-42140094D02*
X45301819Y-41759142D01*
X45301819Y-41759142D02*
X45349438Y-41663904D01*
X45349438Y-41663904D02*
X45397057Y-41616285D01*
X45397057Y-41616285D02*
X45492295Y-41568666D01*
X45492295Y-41568666D02*
X45635152Y-41568666D01*
X45635152Y-41568666D02*
X45730390Y-41616285D01*
X45730390Y-41616285D02*
X45778009Y-41663904D01*
X45778009Y-41663904D02*
X45825628Y-41759142D01*
X45825628Y-41759142D02*
X45825628Y-42140094D01*
X45301819Y-40711523D02*
X45301819Y-40901999D01*
X45301819Y-40901999D02*
X45349438Y-40997237D01*
X45349438Y-40997237D02*
X45397057Y-41044856D01*
X45397057Y-41044856D02*
X45539914Y-41140094D01*
X45539914Y-41140094D02*
X45730390Y-41187713D01*
X45730390Y-41187713D02*
X46111342Y-41187713D01*
X46111342Y-41187713D02*
X46206580Y-41140094D01*
X46206580Y-41140094D02*
X46254200Y-41092475D01*
X46254200Y-41092475D02*
X46301819Y-40997237D01*
X46301819Y-40997237D02*
X46301819Y-40806761D01*
X46301819Y-40806761D02*
X46254200Y-40711523D01*
X46254200Y-40711523D02*
X46206580Y-40663904D01*
X46206580Y-40663904D02*
X46111342Y-40616285D01*
X46111342Y-40616285D02*
X45873247Y-40616285D01*
X45873247Y-40616285D02*
X45778009Y-40663904D01*
X45778009Y-40663904D02*
X45730390Y-40711523D01*
X45730390Y-40711523D02*
X45682771Y-40806761D01*
X45682771Y-40806761D02*
X45682771Y-40997237D01*
X45682771Y-40997237D02*
X45730390Y-41092475D01*
X45730390Y-41092475D02*
X45778009Y-41140094D01*
X45778009Y-41140094D02*
X45873247Y-41187713D01*
X23107667Y-55785104D02*
X23069571Y-55823200D01*
X23069571Y-55823200D02*
X22955286Y-55861295D01*
X22955286Y-55861295D02*
X22879095Y-55861295D01*
X22879095Y-55861295D02*
X22764809Y-55823200D01*
X22764809Y-55823200D02*
X22688619Y-55747009D01*
X22688619Y-55747009D02*
X22650524Y-55670819D01*
X22650524Y-55670819D02*
X22612428Y-55518438D01*
X22612428Y-55518438D02*
X22612428Y-55404152D01*
X22612428Y-55404152D02*
X22650524Y-55251771D01*
X22650524Y-55251771D02*
X22688619Y-55175580D01*
X22688619Y-55175580D02*
X22764809Y-55099390D01*
X22764809Y-55099390D02*
X22879095Y-55061295D01*
X22879095Y-55061295D02*
X22955286Y-55061295D01*
X22955286Y-55061295D02*
X23069571Y-55099390D01*
X23069571Y-55099390D02*
X23107667Y-55137485D01*
X23793381Y-55061295D02*
X23641000Y-55061295D01*
X23641000Y-55061295D02*
X23564809Y-55099390D01*
X23564809Y-55099390D02*
X23526714Y-55137485D01*
X23526714Y-55137485D02*
X23450524Y-55251771D01*
X23450524Y-55251771D02*
X23412428Y-55404152D01*
X23412428Y-55404152D02*
X23412428Y-55708914D01*
X23412428Y-55708914D02*
X23450524Y-55785104D01*
X23450524Y-55785104D02*
X23488619Y-55823200D01*
X23488619Y-55823200D02*
X23564809Y-55861295D01*
X23564809Y-55861295D02*
X23717190Y-55861295D01*
X23717190Y-55861295D02*
X23793381Y-55823200D01*
X23793381Y-55823200D02*
X23831476Y-55785104D01*
X23831476Y-55785104D02*
X23869571Y-55708914D01*
X23869571Y-55708914D02*
X23869571Y-55518438D01*
X23869571Y-55518438D02*
X23831476Y-55442247D01*
X23831476Y-55442247D02*
X23793381Y-55404152D01*
X23793381Y-55404152D02*
X23717190Y-55366057D01*
X23717190Y-55366057D02*
X23564809Y-55366057D01*
X23564809Y-55366057D02*
X23488619Y-55404152D01*
X23488619Y-55404152D02*
X23450524Y-55442247D01*
X23450524Y-55442247D02*
X23412428Y-55518438D01*
X38535333Y-42455180D02*
X38535333Y-41740895D01*
X38535333Y-41740895D02*
X38582952Y-41598038D01*
X38582952Y-41598038D02*
X38678190Y-41502800D01*
X38678190Y-41502800D02*
X38821047Y-41455180D01*
X38821047Y-41455180D02*
X38916285Y-41455180D01*
X37535333Y-41455180D02*
X38106761Y-41455180D01*
X37821047Y-41455180D02*
X37821047Y-42455180D01*
X37821047Y-42455180D02*
X37916285Y-42312323D01*
X37916285Y-42312323D02*
X38011523Y-42217085D01*
X38011523Y-42217085D02*
X38106761Y-42169466D01*
X47685833Y-46841580D02*
X47638214Y-46889200D01*
X47638214Y-46889200D02*
X47495357Y-46936819D01*
X47495357Y-46936819D02*
X47400119Y-46936819D01*
X47400119Y-46936819D02*
X47257262Y-46889200D01*
X47257262Y-46889200D02*
X47162024Y-46793961D01*
X47162024Y-46793961D02*
X47114405Y-46698723D01*
X47114405Y-46698723D02*
X47066786Y-46508247D01*
X47066786Y-46508247D02*
X47066786Y-46365390D01*
X47066786Y-46365390D02*
X47114405Y-46174914D01*
X47114405Y-46174914D02*
X47162024Y-46079676D01*
X47162024Y-46079676D02*
X47257262Y-45984438D01*
X47257262Y-45984438D02*
X47400119Y-45936819D01*
X47400119Y-45936819D02*
X47495357Y-45936819D01*
X47495357Y-45936819D02*
X47638214Y-45984438D01*
X47638214Y-45984438D02*
X47685833Y-46032057D01*
X48542976Y-46270152D02*
X48542976Y-46936819D01*
X48304881Y-45889200D02*
X48066786Y-46603485D01*
X48066786Y-46603485D02*
X48685833Y-46603485D01*
X22892104Y-53600332D02*
X22930200Y-53638428D01*
X22930200Y-53638428D02*
X22968295Y-53752713D01*
X22968295Y-53752713D02*
X22968295Y-53828904D01*
X22968295Y-53828904D02*
X22930200Y-53943190D01*
X22930200Y-53943190D02*
X22854009Y-54019380D01*
X22854009Y-54019380D02*
X22777819Y-54057475D01*
X22777819Y-54057475D02*
X22625438Y-54095571D01*
X22625438Y-54095571D02*
X22511152Y-54095571D01*
X22511152Y-54095571D02*
X22358771Y-54057475D01*
X22358771Y-54057475D02*
X22282580Y-54019380D01*
X22282580Y-54019380D02*
X22206390Y-53943190D01*
X22206390Y-53943190D02*
X22168295Y-53828904D01*
X22168295Y-53828904D02*
X22168295Y-53752713D01*
X22168295Y-53752713D02*
X22206390Y-53638428D01*
X22206390Y-53638428D02*
X22244485Y-53600332D01*
X22511152Y-53143190D02*
X22473057Y-53219380D01*
X22473057Y-53219380D02*
X22434961Y-53257475D01*
X22434961Y-53257475D02*
X22358771Y-53295571D01*
X22358771Y-53295571D02*
X22320676Y-53295571D01*
X22320676Y-53295571D02*
X22244485Y-53257475D01*
X22244485Y-53257475D02*
X22206390Y-53219380D01*
X22206390Y-53219380D02*
X22168295Y-53143190D01*
X22168295Y-53143190D02*
X22168295Y-52990809D01*
X22168295Y-52990809D02*
X22206390Y-52914618D01*
X22206390Y-52914618D02*
X22244485Y-52876523D01*
X22244485Y-52876523D02*
X22320676Y-52838428D01*
X22320676Y-52838428D02*
X22358771Y-52838428D01*
X22358771Y-52838428D02*
X22434961Y-52876523D01*
X22434961Y-52876523D02*
X22473057Y-52914618D01*
X22473057Y-52914618D02*
X22511152Y-52990809D01*
X22511152Y-52990809D02*
X22511152Y-53143190D01*
X22511152Y-53143190D02*
X22549247Y-53219380D01*
X22549247Y-53219380D02*
X22587342Y-53257475D01*
X22587342Y-53257475D02*
X22663533Y-53295571D01*
X22663533Y-53295571D02*
X22815914Y-53295571D01*
X22815914Y-53295571D02*
X22892104Y-53257475D01*
X22892104Y-53257475D02*
X22930200Y-53219380D01*
X22930200Y-53219380D02*
X22968295Y-53143190D01*
X22968295Y-53143190D02*
X22968295Y-52990809D01*
X22968295Y-52990809D02*
X22930200Y-52914618D01*
X22930200Y-52914618D02*
X22892104Y-52876523D01*
X22892104Y-52876523D02*
X22815914Y-52838428D01*
X22815914Y-52838428D02*
X22663533Y-52838428D01*
X22663533Y-52838428D02*
X22587342Y-52876523D01*
X22587342Y-52876523D02*
X22549247Y-52914618D01*
X22549247Y-52914618D02*
X22511152Y-52990809D01*
X37507057Y-70834238D02*
X37459438Y-70929476D01*
X37459438Y-70929476D02*
X37364200Y-71024714D01*
X37364200Y-71024714D02*
X37221342Y-71167571D01*
X37221342Y-71167571D02*
X37173723Y-71262809D01*
X37173723Y-71262809D02*
X37173723Y-71358047D01*
X37411819Y-71310428D02*
X37364200Y-71405666D01*
X37364200Y-71405666D02*
X37268961Y-71500904D01*
X37268961Y-71500904D02*
X37078485Y-71548523D01*
X37078485Y-71548523D02*
X36745152Y-71548523D01*
X36745152Y-71548523D02*
X36554676Y-71500904D01*
X36554676Y-71500904D02*
X36459438Y-71405666D01*
X36459438Y-71405666D02*
X36411819Y-71310428D01*
X36411819Y-71310428D02*
X36411819Y-71119952D01*
X36411819Y-71119952D02*
X36459438Y-71024714D01*
X36459438Y-71024714D02*
X36554676Y-70929476D01*
X36554676Y-70929476D02*
X36745152Y-70881857D01*
X36745152Y-70881857D02*
X37078485Y-70881857D01*
X37078485Y-70881857D02*
X37268961Y-70929476D01*
X37268961Y-70929476D02*
X37364200Y-71024714D01*
X37364200Y-71024714D02*
X37411819Y-71119952D01*
X37411819Y-71119952D02*
X37411819Y-71310428D01*
X36507057Y-70500904D02*
X36459438Y-70453285D01*
X36459438Y-70453285D02*
X36411819Y-70358047D01*
X36411819Y-70358047D02*
X36411819Y-70119952D01*
X36411819Y-70119952D02*
X36459438Y-70024714D01*
X36459438Y-70024714D02*
X36507057Y-69977095D01*
X36507057Y-69977095D02*
X36602295Y-69929476D01*
X36602295Y-69929476D02*
X36697533Y-69929476D01*
X36697533Y-69929476D02*
X36840390Y-69977095D01*
X36840390Y-69977095D02*
X37411819Y-70548523D01*
X37411819Y-70548523D02*
X37411819Y-69929476D01*
X57114095Y-66613819D02*
X57114095Y-67423342D01*
X57114095Y-67423342D02*
X57161714Y-67518580D01*
X57161714Y-67518580D02*
X57209333Y-67566200D01*
X57209333Y-67566200D02*
X57304571Y-67613819D01*
X57304571Y-67613819D02*
X57495047Y-67613819D01*
X57495047Y-67613819D02*
X57590285Y-67566200D01*
X57590285Y-67566200D02*
X57637904Y-67518580D01*
X57637904Y-67518580D02*
X57685523Y-67423342D01*
X57685523Y-67423342D02*
X57685523Y-66613819D01*
X58114095Y-66709057D02*
X58161714Y-66661438D01*
X58161714Y-66661438D02*
X58256952Y-66613819D01*
X58256952Y-66613819D02*
X58495047Y-66613819D01*
X58495047Y-66613819D02*
X58590285Y-66661438D01*
X58590285Y-66661438D02*
X58637904Y-66709057D01*
X58637904Y-66709057D02*
X58685523Y-66804295D01*
X58685523Y-66804295D02*
X58685523Y-66899533D01*
X58685523Y-66899533D02*
X58637904Y-67042390D01*
X58637904Y-67042390D02*
X58066476Y-67613819D01*
X58066476Y-67613819D02*
X58685523Y-67613819D01*
X68699142Y-71701819D02*
X68365809Y-71225628D01*
X68127714Y-71701819D02*
X68127714Y-70701819D01*
X68127714Y-70701819D02*
X68508666Y-70701819D01*
X68508666Y-70701819D02*
X68603904Y-70749438D01*
X68603904Y-70749438D02*
X68651523Y-70797057D01*
X68651523Y-70797057D02*
X68699142Y-70892295D01*
X68699142Y-70892295D02*
X68699142Y-71035152D01*
X68699142Y-71035152D02*
X68651523Y-71130390D01*
X68651523Y-71130390D02*
X68603904Y-71178009D01*
X68603904Y-71178009D02*
X68508666Y-71225628D01*
X68508666Y-71225628D02*
X68127714Y-71225628D01*
X69651523Y-71701819D02*
X69080095Y-71701819D01*
X69365809Y-71701819D02*
X69365809Y-70701819D01*
X69365809Y-70701819D02*
X69270571Y-70844676D01*
X69270571Y-70844676D02*
X69175333Y-70939914D01*
X69175333Y-70939914D02*
X69080095Y-70987533D01*
X70032476Y-70797057D02*
X70080095Y-70749438D01*
X70080095Y-70749438D02*
X70175333Y-70701819D01*
X70175333Y-70701819D02*
X70413428Y-70701819D01*
X70413428Y-70701819D02*
X70508666Y-70749438D01*
X70508666Y-70749438D02*
X70556285Y-70797057D01*
X70556285Y-70797057D02*
X70603904Y-70892295D01*
X70603904Y-70892295D02*
X70603904Y-70987533D01*
X70603904Y-70987533D02*
X70556285Y-71130390D01*
X70556285Y-71130390D02*
X69984857Y-71701819D01*
X69984857Y-71701819D02*
X70603904Y-71701819D01*
X54475142Y-82147580D02*
X54427523Y-82195200D01*
X54427523Y-82195200D02*
X54284666Y-82242819D01*
X54284666Y-82242819D02*
X54189428Y-82242819D01*
X54189428Y-82242819D02*
X54046571Y-82195200D01*
X54046571Y-82195200D02*
X53951333Y-82099961D01*
X53951333Y-82099961D02*
X53903714Y-82004723D01*
X53903714Y-82004723D02*
X53856095Y-81814247D01*
X53856095Y-81814247D02*
X53856095Y-81671390D01*
X53856095Y-81671390D02*
X53903714Y-81480914D01*
X53903714Y-81480914D02*
X53951333Y-81385676D01*
X53951333Y-81385676D02*
X54046571Y-81290438D01*
X54046571Y-81290438D02*
X54189428Y-81242819D01*
X54189428Y-81242819D02*
X54284666Y-81242819D01*
X54284666Y-81242819D02*
X54427523Y-81290438D01*
X54427523Y-81290438D02*
X54475142Y-81338057D01*
X55427523Y-82242819D02*
X54856095Y-82242819D01*
X55141809Y-82242819D02*
X55141809Y-81242819D01*
X55141809Y-81242819D02*
X55046571Y-81385676D01*
X55046571Y-81385676D02*
X54951333Y-81480914D01*
X54951333Y-81480914D02*
X54856095Y-81528533D01*
X55998952Y-81671390D02*
X55903714Y-81623771D01*
X55903714Y-81623771D02*
X55856095Y-81576152D01*
X55856095Y-81576152D02*
X55808476Y-81480914D01*
X55808476Y-81480914D02*
X55808476Y-81433295D01*
X55808476Y-81433295D02*
X55856095Y-81338057D01*
X55856095Y-81338057D02*
X55903714Y-81290438D01*
X55903714Y-81290438D02*
X55998952Y-81242819D01*
X55998952Y-81242819D02*
X56189428Y-81242819D01*
X56189428Y-81242819D02*
X56284666Y-81290438D01*
X56284666Y-81290438D02*
X56332285Y-81338057D01*
X56332285Y-81338057D02*
X56379904Y-81433295D01*
X56379904Y-81433295D02*
X56379904Y-81480914D01*
X56379904Y-81480914D02*
X56332285Y-81576152D01*
X56332285Y-81576152D02*
X56284666Y-81623771D01*
X56284666Y-81623771D02*
X56189428Y-81671390D01*
X56189428Y-81671390D02*
X55998952Y-81671390D01*
X55998952Y-81671390D02*
X55903714Y-81719009D01*
X55903714Y-81719009D02*
X55856095Y-81766628D01*
X55856095Y-81766628D02*
X55808476Y-81861866D01*
X55808476Y-81861866D02*
X55808476Y-82052342D01*
X55808476Y-82052342D02*
X55856095Y-82147580D01*
X55856095Y-82147580D02*
X55903714Y-82195200D01*
X55903714Y-82195200D02*
X55998952Y-82242819D01*
X55998952Y-82242819D02*
X56189428Y-82242819D01*
X56189428Y-82242819D02*
X56284666Y-82195200D01*
X56284666Y-82195200D02*
X56332285Y-82147580D01*
X56332285Y-82147580D02*
X56379904Y-82052342D01*
X56379904Y-82052342D02*
X56379904Y-81861866D01*
X56379904Y-81861866D02*
X56332285Y-81766628D01*
X56332285Y-81766628D02*
X56284666Y-81719009D01*
X56284666Y-81719009D02*
X56189428Y-81671390D01*
X50288819Y-79581333D02*
X51003104Y-79581333D01*
X51003104Y-79581333D02*
X51145961Y-79628952D01*
X51145961Y-79628952D02*
X51241200Y-79724190D01*
X51241200Y-79724190D02*
X51288819Y-79867047D01*
X51288819Y-79867047D02*
X51288819Y-79962285D01*
X50622152Y-78676571D02*
X51288819Y-78676571D01*
X50241200Y-78914666D02*
X50955485Y-79152761D01*
X50955485Y-79152761D02*
X50955485Y-78533714D01*
X29918819Y-58459523D02*
X28918819Y-58459523D01*
X28918819Y-58459523D02*
X29633104Y-58126190D01*
X29633104Y-58126190D02*
X28918819Y-57792857D01*
X28918819Y-57792857D02*
X29918819Y-57792857D01*
X29918819Y-57316666D02*
X28918819Y-57316666D01*
X29918819Y-56745238D02*
X29347390Y-57173809D01*
X28918819Y-56745238D02*
X29490247Y-57316666D01*
X29918819Y-55792857D02*
X29918819Y-56364285D01*
X29918819Y-56078571D02*
X28918819Y-56078571D01*
X28918819Y-56078571D02*
X29061676Y-56173809D01*
X29061676Y-56173809D02*
X29156914Y-56269047D01*
X29156914Y-56269047D02*
X29204533Y-56364285D01*
X57311642Y-81970819D02*
X56978309Y-81494628D01*
X56740214Y-81970819D02*
X56740214Y-80970819D01*
X56740214Y-80970819D02*
X57121166Y-80970819D01*
X57121166Y-80970819D02*
X57216404Y-81018438D01*
X57216404Y-81018438D02*
X57264023Y-81066057D01*
X57264023Y-81066057D02*
X57311642Y-81161295D01*
X57311642Y-81161295D02*
X57311642Y-81304152D01*
X57311642Y-81304152D02*
X57264023Y-81399390D01*
X57264023Y-81399390D02*
X57216404Y-81447009D01*
X57216404Y-81447009D02*
X57121166Y-81494628D01*
X57121166Y-81494628D02*
X56740214Y-81494628D01*
X58264023Y-81970819D02*
X57692595Y-81970819D01*
X57978309Y-81970819D02*
X57978309Y-80970819D01*
X57978309Y-80970819D02*
X57883071Y-81113676D01*
X57883071Y-81113676D02*
X57787833Y-81208914D01*
X57787833Y-81208914D02*
X57692595Y-81256533D01*
X58597357Y-80970819D02*
X59264023Y-80970819D01*
X59264023Y-80970819D02*
X58835452Y-81970819D01*
X29172819Y-54228904D02*
X29982342Y-54228904D01*
X29982342Y-54228904D02*
X30077580Y-54181285D01*
X30077580Y-54181285D02*
X30125200Y-54133666D01*
X30125200Y-54133666D02*
X30172819Y-54038428D01*
X30172819Y-54038428D02*
X30172819Y-53847952D01*
X30172819Y-53847952D02*
X30125200Y-53752714D01*
X30125200Y-53752714D02*
X30077580Y-53705095D01*
X30077580Y-53705095D02*
X29982342Y-53657476D01*
X29982342Y-53657476D02*
X29172819Y-53657476D01*
X29172819Y-53276523D02*
X29172819Y-52657476D01*
X29172819Y-52657476D02*
X29553771Y-52990809D01*
X29553771Y-52990809D02*
X29553771Y-52847952D01*
X29553771Y-52847952D02*
X29601390Y-52752714D01*
X29601390Y-52752714D02*
X29649009Y-52705095D01*
X29649009Y-52705095D02*
X29744247Y-52657476D01*
X29744247Y-52657476D02*
X29982342Y-52657476D01*
X29982342Y-52657476D02*
X30077580Y-52705095D01*
X30077580Y-52705095D02*
X30125200Y-52752714D01*
X30125200Y-52752714D02*
X30172819Y-52847952D01*
X30172819Y-52847952D02*
X30172819Y-53133666D01*
X30172819Y-53133666D02*
X30125200Y-53228904D01*
X30125200Y-53228904D02*
X30077580Y-53276523D01*
X29257666Y-59652819D02*
X29257666Y-60367104D01*
X29257666Y-60367104D02*
X29210047Y-60509961D01*
X29210047Y-60509961D02*
X29114809Y-60605200D01*
X29114809Y-60605200D02*
X28971952Y-60652819D01*
X28971952Y-60652819D02*
X28876714Y-60652819D01*
X30210047Y-59652819D02*
X29733857Y-59652819D01*
X29733857Y-59652819D02*
X29686238Y-60129009D01*
X29686238Y-60129009D02*
X29733857Y-60081390D01*
X29733857Y-60081390D02*
X29829095Y-60033771D01*
X29829095Y-60033771D02*
X30067190Y-60033771D01*
X30067190Y-60033771D02*
X30162428Y-60081390D01*
X30162428Y-60081390D02*
X30210047Y-60129009D01*
X30210047Y-60129009D02*
X30257666Y-60224247D01*
X30257666Y-60224247D02*
X30257666Y-60462342D01*
X30257666Y-60462342D02*
X30210047Y-60557580D01*
X30210047Y-60557580D02*
X30162428Y-60605200D01*
X30162428Y-60605200D02*
X30067190Y-60652819D01*
X30067190Y-60652819D02*
X29829095Y-60652819D01*
X29829095Y-60652819D02*
X29733857Y-60605200D01*
X29733857Y-60605200D02*
X29686238Y-60557580D01*
X62222142Y-72114580D02*
X62174523Y-72162200D01*
X62174523Y-72162200D02*
X62031666Y-72209819D01*
X62031666Y-72209819D02*
X61936428Y-72209819D01*
X61936428Y-72209819D02*
X61793571Y-72162200D01*
X61793571Y-72162200D02*
X61698333Y-72066961D01*
X61698333Y-72066961D02*
X61650714Y-71971723D01*
X61650714Y-71971723D02*
X61603095Y-71781247D01*
X61603095Y-71781247D02*
X61603095Y-71638390D01*
X61603095Y-71638390D02*
X61650714Y-71447914D01*
X61650714Y-71447914D02*
X61698333Y-71352676D01*
X61698333Y-71352676D02*
X61793571Y-71257438D01*
X61793571Y-71257438D02*
X61936428Y-71209819D01*
X61936428Y-71209819D02*
X62031666Y-71209819D01*
X62031666Y-71209819D02*
X62174523Y-71257438D01*
X62174523Y-71257438D02*
X62222142Y-71305057D01*
X63174523Y-72209819D02*
X62603095Y-72209819D01*
X62888809Y-72209819D02*
X62888809Y-71209819D01*
X62888809Y-71209819D02*
X62793571Y-71352676D01*
X62793571Y-71352676D02*
X62698333Y-71447914D01*
X62698333Y-71447914D02*
X62603095Y-71495533D01*
X64031666Y-71209819D02*
X63841190Y-71209819D01*
X63841190Y-71209819D02*
X63745952Y-71257438D01*
X63745952Y-71257438D02*
X63698333Y-71305057D01*
X63698333Y-71305057D02*
X63603095Y-71447914D01*
X63603095Y-71447914D02*
X63555476Y-71638390D01*
X63555476Y-71638390D02*
X63555476Y-72019342D01*
X63555476Y-72019342D02*
X63603095Y-72114580D01*
X63603095Y-72114580D02*
X63650714Y-72162200D01*
X63650714Y-72162200D02*
X63745952Y-72209819D01*
X63745952Y-72209819D02*
X63936428Y-72209819D01*
X63936428Y-72209819D02*
X64031666Y-72162200D01*
X64031666Y-72162200D02*
X64079285Y-72114580D01*
X64079285Y-72114580D02*
X64126904Y-72019342D01*
X64126904Y-72019342D02*
X64126904Y-71781247D01*
X64126904Y-71781247D02*
X64079285Y-71686009D01*
X64079285Y-71686009D02*
X64031666Y-71638390D01*
X64031666Y-71638390D02*
X63936428Y-71590771D01*
X63936428Y-71590771D02*
X63745952Y-71590771D01*
X63745952Y-71590771D02*
X63650714Y-71638390D01*
X63650714Y-71638390D02*
X63603095Y-71686009D01*
X63603095Y-71686009D02*
X63555476Y-71781247D01*
X56533095Y-74184819D02*
X56533095Y-74994342D01*
X56533095Y-74994342D02*
X56580714Y-75089580D01*
X56580714Y-75089580D02*
X56628333Y-75137200D01*
X56628333Y-75137200D02*
X56723571Y-75184819D01*
X56723571Y-75184819D02*
X56914047Y-75184819D01*
X56914047Y-75184819D02*
X57009285Y-75137200D01*
X57009285Y-75137200D02*
X57056904Y-75089580D01*
X57056904Y-75089580D02*
X57104523Y-74994342D01*
X57104523Y-74994342D02*
X57104523Y-74184819D01*
X58009285Y-74518152D02*
X58009285Y-75184819D01*
X57771190Y-74137200D02*
X57533095Y-74851485D01*
X57533095Y-74851485D02*
X58152142Y-74851485D01*
X35012333Y-48714819D02*
X34679000Y-48238628D01*
X34440905Y-48714819D02*
X34440905Y-47714819D01*
X34440905Y-47714819D02*
X34821857Y-47714819D01*
X34821857Y-47714819D02*
X34917095Y-47762438D01*
X34917095Y-47762438D02*
X34964714Y-47810057D01*
X34964714Y-47810057D02*
X35012333Y-47905295D01*
X35012333Y-47905295D02*
X35012333Y-48048152D01*
X35012333Y-48048152D02*
X34964714Y-48143390D01*
X34964714Y-48143390D02*
X34917095Y-48191009D01*
X34917095Y-48191009D02*
X34821857Y-48238628D01*
X34821857Y-48238628D02*
X34440905Y-48238628D01*
X35345667Y-47714819D02*
X36012333Y-47714819D01*
X36012333Y-47714819D02*
X35583762Y-48714819D01*
X55838200Y-44216332D02*
X55885819Y-44073475D01*
X55885819Y-44073475D02*
X55885819Y-43835380D01*
X55885819Y-43835380D02*
X55838200Y-43740142D01*
X55838200Y-43740142D02*
X55790580Y-43692523D01*
X55790580Y-43692523D02*
X55695342Y-43644904D01*
X55695342Y-43644904D02*
X55600104Y-43644904D01*
X55600104Y-43644904D02*
X55504866Y-43692523D01*
X55504866Y-43692523D02*
X55457247Y-43740142D01*
X55457247Y-43740142D02*
X55409628Y-43835380D01*
X55409628Y-43835380D02*
X55362009Y-44025856D01*
X55362009Y-44025856D02*
X55314390Y-44121094D01*
X55314390Y-44121094D02*
X55266771Y-44168713D01*
X55266771Y-44168713D02*
X55171533Y-44216332D01*
X55171533Y-44216332D02*
X55076295Y-44216332D01*
X55076295Y-44216332D02*
X54981057Y-44168713D01*
X54981057Y-44168713D02*
X54933438Y-44121094D01*
X54933438Y-44121094D02*
X54885819Y-44025856D01*
X54885819Y-44025856D02*
X54885819Y-43787761D01*
X54885819Y-43787761D02*
X54933438Y-43644904D01*
X54885819Y-43311570D02*
X55885819Y-43073475D01*
X55885819Y-43073475D02*
X55171533Y-42882999D01*
X55171533Y-42882999D02*
X55885819Y-42692523D01*
X55885819Y-42692523D02*
X54885819Y-42454428D01*
X55885819Y-41549666D02*
X55885819Y-42121094D01*
X55885819Y-41835380D02*
X54885819Y-41835380D01*
X54885819Y-41835380D02*
X55028676Y-41930618D01*
X55028676Y-41930618D02*
X55123914Y-42025856D01*
X55123914Y-42025856D02*
X55171533Y-42121094D01*
X44043095Y-64174819D02*
X44043095Y-64984342D01*
X44043095Y-64984342D02*
X44090714Y-65079580D01*
X44090714Y-65079580D02*
X44138333Y-65127200D01*
X44138333Y-65127200D02*
X44233571Y-65174819D01*
X44233571Y-65174819D02*
X44424047Y-65174819D01*
X44424047Y-65174819D02*
X44519285Y-65127200D01*
X44519285Y-65127200D02*
X44566904Y-65079580D01*
X44566904Y-65079580D02*
X44614523Y-64984342D01*
X44614523Y-64984342D02*
X44614523Y-64174819D01*
X45566904Y-64174819D02*
X45090714Y-64174819D01*
X45090714Y-64174819D02*
X45043095Y-64651009D01*
X45043095Y-64651009D02*
X45090714Y-64603390D01*
X45090714Y-64603390D02*
X45185952Y-64555771D01*
X45185952Y-64555771D02*
X45424047Y-64555771D01*
X45424047Y-64555771D02*
X45519285Y-64603390D01*
X45519285Y-64603390D02*
X45566904Y-64651009D01*
X45566904Y-64651009D02*
X45614523Y-64746247D01*
X45614523Y-64746247D02*
X45614523Y-64984342D01*
X45614523Y-64984342D02*
X45566904Y-65079580D01*
X45566904Y-65079580D02*
X45519285Y-65127200D01*
X45519285Y-65127200D02*
X45424047Y-65174819D01*
X45424047Y-65174819D02*
X45185952Y-65174819D01*
X45185952Y-65174819D02*
X45090714Y-65127200D01*
X45090714Y-65127200D02*
X45043095Y-65079580D01*
X69633180Y-50419095D02*
X68823657Y-50419095D01*
X68823657Y-50419095D02*
X68728419Y-50466714D01*
X68728419Y-50466714D02*
X68680800Y-50514333D01*
X68680800Y-50514333D02*
X68633180Y-50609571D01*
X68633180Y-50609571D02*
X68633180Y-50800047D01*
X68633180Y-50800047D02*
X68680800Y-50895285D01*
X68680800Y-50895285D02*
X68728419Y-50942904D01*
X68728419Y-50942904D02*
X68823657Y-50990523D01*
X68823657Y-50990523D02*
X69633180Y-50990523D01*
X68633180Y-51990523D02*
X68633180Y-51419095D01*
X68633180Y-51704809D02*
X69633180Y-51704809D01*
X69633180Y-51704809D02*
X69490323Y-51609571D01*
X69490323Y-51609571D02*
X69395085Y-51514333D01*
X69395085Y-51514333D02*
X69347466Y-51419095D01*
X47603580Y-75826857D02*
X47651200Y-75874476D01*
X47651200Y-75874476D02*
X47698819Y-76017333D01*
X47698819Y-76017333D02*
X47698819Y-76112571D01*
X47698819Y-76112571D02*
X47651200Y-76255428D01*
X47651200Y-76255428D02*
X47555961Y-76350666D01*
X47555961Y-76350666D02*
X47460723Y-76398285D01*
X47460723Y-76398285D02*
X47270247Y-76445904D01*
X47270247Y-76445904D02*
X47127390Y-76445904D01*
X47127390Y-76445904D02*
X46936914Y-76398285D01*
X46936914Y-76398285D02*
X46841676Y-76350666D01*
X46841676Y-76350666D02*
X46746438Y-76255428D01*
X46746438Y-76255428D02*
X46698819Y-76112571D01*
X46698819Y-76112571D02*
X46698819Y-76017333D01*
X46698819Y-76017333D02*
X46746438Y-75874476D01*
X46746438Y-75874476D02*
X46794057Y-75826857D01*
X47698819Y-74874476D02*
X47698819Y-75445904D01*
X47698819Y-75160190D02*
X46698819Y-75160190D01*
X46698819Y-75160190D02*
X46841676Y-75255428D01*
X46841676Y-75255428D02*
X46936914Y-75350666D01*
X46936914Y-75350666D02*
X46984533Y-75445904D01*
X47032152Y-74017333D02*
X47698819Y-74017333D01*
X46651200Y-74255428D02*
X47365485Y-74493523D01*
X47365485Y-74493523D02*
X47365485Y-73874476D01*
X46569333Y-49508580D02*
X46521714Y-49556200D01*
X46521714Y-49556200D02*
X46378857Y-49603819D01*
X46378857Y-49603819D02*
X46283619Y-49603819D01*
X46283619Y-49603819D02*
X46140762Y-49556200D01*
X46140762Y-49556200D02*
X46045524Y-49460961D01*
X46045524Y-49460961D02*
X45997905Y-49365723D01*
X45997905Y-49365723D02*
X45950286Y-49175247D01*
X45950286Y-49175247D02*
X45950286Y-49032390D01*
X45950286Y-49032390D02*
X45997905Y-48841914D01*
X45997905Y-48841914D02*
X46045524Y-48746676D01*
X46045524Y-48746676D02*
X46140762Y-48651438D01*
X46140762Y-48651438D02*
X46283619Y-48603819D01*
X46283619Y-48603819D02*
X46378857Y-48603819D01*
X46378857Y-48603819D02*
X46521714Y-48651438D01*
X46521714Y-48651438D02*
X46569333Y-48699057D01*
X46950286Y-48699057D02*
X46997905Y-48651438D01*
X46997905Y-48651438D02*
X47093143Y-48603819D01*
X47093143Y-48603819D02*
X47331238Y-48603819D01*
X47331238Y-48603819D02*
X47426476Y-48651438D01*
X47426476Y-48651438D02*
X47474095Y-48699057D01*
X47474095Y-48699057D02*
X47521714Y-48794295D01*
X47521714Y-48794295D02*
X47521714Y-48889533D01*
X47521714Y-48889533D02*
X47474095Y-49032390D01*
X47474095Y-49032390D02*
X46902667Y-49603819D01*
X46902667Y-49603819D02*
X47521714Y-49603819D01*
X69128819Y-61602857D02*
X68652628Y-61936190D01*
X69128819Y-62174285D02*
X68128819Y-62174285D01*
X68128819Y-62174285D02*
X68128819Y-61793333D01*
X68128819Y-61793333D02*
X68176438Y-61698095D01*
X68176438Y-61698095D02*
X68224057Y-61650476D01*
X68224057Y-61650476D02*
X68319295Y-61602857D01*
X68319295Y-61602857D02*
X68462152Y-61602857D01*
X68462152Y-61602857D02*
X68557390Y-61650476D01*
X68557390Y-61650476D02*
X68605009Y-61698095D01*
X68605009Y-61698095D02*
X68652628Y-61793333D01*
X68652628Y-61793333D02*
X68652628Y-62174285D01*
X69128819Y-60650476D02*
X69128819Y-61221904D01*
X69128819Y-60936190D02*
X68128819Y-60936190D01*
X68128819Y-60936190D02*
X68271676Y-61031428D01*
X68271676Y-61031428D02*
X68366914Y-61126666D01*
X68366914Y-61126666D02*
X68414533Y-61221904D01*
X69128819Y-59698095D02*
X69128819Y-60269523D01*
X69128819Y-59983809D02*
X68128819Y-59983809D01*
X68128819Y-59983809D02*
X68271676Y-60079047D01*
X68271676Y-60079047D02*
X68366914Y-60174285D01*
X68366914Y-60174285D02*
X68414533Y-60269523D01*
X66748819Y-41568666D02*
X66272628Y-41901999D01*
X66748819Y-42140094D02*
X65748819Y-42140094D01*
X65748819Y-42140094D02*
X65748819Y-41759142D01*
X65748819Y-41759142D02*
X65796438Y-41663904D01*
X65796438Y-41663904D02*
X65844057Y-41616285D01*
X65844057Y-41616285D02*
X65939295Y-41568666D01*
X65939295Y-41568666D02*
X66082152Y-41568666D01*
X66082152Y-41568666D02*
X66177390Y-41616285D01*
X66177390Y-41616285D02*
X66225009Y-41663904D01*
X66225009Y-41663904D02*
X66272628Y-41759142D01*
X66272628Y-41759142D02*
X66272628Y-42140094D01*
X66177390Y-40997237D02*
X66129771Y-41092475D01*
X66129771Y-41092475D02*
X66082152Y-41140094D01*
X66082152Y-41140094D02*
X65986914Y-41187713D01*
X65986914Y-41187713D02*
X65939295Y-41187713D01*
X65939295Y-41187713D02*
X65844057Y-41140094D01*
X65844057Y-41140094D02*
X65796438Y-41092475D01*
X65796438Y-41092475D02*
X65748819Y-40997237D01*
X65748819Y-40997237D02*
X65748819Y-40806761D01*
X65748819Y-40806761D02*
X65796438Y-40711523D01*
X65796438Y-40711523D02*
X65844057Y-40663904D01*
X65844057Y-40663904D02*
X65939295Y-40616285D01*
X65939295Y-40616285D02*
X65986914Y-40616285D01*
X65986914Y-40616285D02*
X66082152Y-40663904D01*
X66082152Y-40663904D02*
X66129771Y-40711523D01*
X66129771Y-40711523D02*
X66177390Y-40806761D01*
X66177390Y-40806761D02*
X66177390Y-40997237D01*
X66177390Y-40997237D02*
X66225009Y-41092475D01*
X66225009Y-41092475D02*
X66272628Y-41140094D01*
X66272628Y-41140094D02*
X66367866Y-41187713D01*
X66367866Y-41187713D02*
X66558342Y-41187713D01*
X66558342Y-41187713D02*
X66653580Y-41140094D01*
X66653580Y-41140094D02*
X66701200Y-41092475D01*
X66701200Y-41092475D02*
X66748819Y-40997237D01*
X66748819Y-40997237D02*
X66748819Y-40806761D01*
X66748819Y-40806761D02*
X66701200Y-40711523D01*
X66701200Y-40711523D02*
X66653580Y-40663904D01*
X66653580Y-40663904D02*
X66558342Y-40616285D01*
X66558342Y-40616285D02*
X66367866Y-40616285D01*
X66367866Y-40616285D02*
X66272628Y-40663904D01*
X66272628Y-40663904D02*
X66225009Y-40711523D01*
X66225009Y-40711523D02*
X66177390Y-40806761D01*
X43400142Y-76509580D02*
X43352523Y-76557200D01*
X43352523Y-76557200D02*
X43209666Y-76604819D01*
X43209666Y-76604819D02*
X43114428Y-76604819D01*
X43114428Y-76604819D02*
X42971571Y-76557200D01*
X42971571Y-76557200D02*
X42876333Y-76461961D01*
X42876333Y-76461961D02*
X42828714Y-76366723D01*
X42828714Y-76366723D02*
X42781095Y-76176247D01*
X42781095Y-76176247D02*
X42781095Y-76033390D01*
X42781095Y-76033390D02*
X42828714Y-75842914D01*
X42828714Y-75842914D02*
X42876333Y-75747676D01*
X42876333Y-75747676D02*
X42971571Y-75652438D01*
X42971571Y-75652438D02*
X43114428Y-75604819D01*
X43114428Y-75604819D02*
X43209666Y-75604819D01*
X43209666Y-75604819D02*
X43352523Y-75652438D01*
X43352523Y-75652438D02*
X43400142Y-75700057D01*
X44352523Y-76604819D02*
X43781095Y-76604819D01*
X44066809Y-76604819D02*
X44066809Y-75604819D01*
X44066809Y-75604819D02*
X43971571Y-75747676D01*
X43971571Y-75747676D02*
X43876333Y-75842914D01*
X43876333Y-75842914D02*
X43781095Y-75890533D01*
X44685857Y-75604819D02*
X45304904Y-75604819D01*
X45304904Y-75604819D02*
X44971571Y-75985771D01*
X44971571Y-75985771D02*
X45114428Y-75985771D01*
X45114428Y-75985771D02*
X45209666Y-76033390D01*
X45209666Y-76033390D02*
X45257285Y-76081009D01*
X45257285Y-76081009D02*
X45304904Y-76176247D01*
X45304904Y-76176247D02*
X45304904Y-76414342D01*
X45304904Y-76414342D02*
X45257285Y-76509580D01*
X45257285Y-76509580D02*
X45209666Y-76557200D01*
X45209666Y-76557200D02*
X45114428Y-76604819D01*
X45114428Y-76604819D02*
X44828714Y-76604819D01*
X44828714Y-76604819D02*
X44733476Y-76557200D01*
X44733476Y-76557200D02*
X44685857Y-76509580D01*
X65748819Y-67563904D02*
X66558342Y-67563904D01*
X66558342Y-67563904D02*
X66653580Y-67516285D01*
X66653580Y-67516285D02*
X66701200Y-67468666D01*
X66701200Y-67468666D02*
X66748819Y-67373428D01*
X66748819Y-67373428D02*
X66748819Y-67182952D01*
X66748819Y-67182952D02*
X66701200Y-67087714D01*
X66701200Y-67087714D02*
X66653580Y-67040095D01*
X66653580Y-67040095D02*
X66558342Y-66992476D01*
X66558342Y-66992476D02*
X65748819Y-66992476D01*
X65748819Y-66087714D02*
X65748819Y-66278190D01*
X65748819Y-66278190D02*
X65796438Y-66373428D01*
X65796438Y-66373428D02*
X65844057Y-66421047D01*
X65844057Y-66421047D02*
X65986914Y-66516285D01*
X65986914Y-66516285D02*
X66177390Y-66563904D01*
X66177390Y-66563904D02*
X66558342Y-66563904D01*
X66558342Y-66563904D02*
X66653580Y-66516285D01*
X66653580Y-66516285D02*
X66701200Y-66468666D01*
X66701200Y-66468666D02*
X66748819Y-66373428D01*
X66748819Y-66373428D02*
X66748819Y-66182952D01*
X66748819Y-66182952D02*
X66701200Y-66087714D01*
X66701200Y-66087714D02*
X66653580Y-66040095D01*
X66653580Y-66040095D02*
X66558342Y-65992476D01*
X66558342Y-65992476D02*
X66320247Y-65992476D01*
X66320247Y-65992476D02*
X66225009Y-66040095D01*
X66225009Y-66040095D02*
X66177390Y-66087714D01*
X66177390Y-66087714D02*
X66129771Y-66182952D01*
X66129771Y-66182952D02*
X66129771Y-66373428D01*
X66129771Y-66373428D02*
X66177390Y-66468666D01*
X66177390Y-66468666D02*
X66225009Y-66516285D01*
X66225009Y-66516285D02*
X66320247Y-66563904D01*
X43838905Y-45793819D02*
X43838905Y-44793819D01*
X43838905Y-44793819D02*
X44077000Y-44793819D01*
X44077000Y-44793819D02*
X44219857Y-44841438D01*
X44219857Y-44841438D02*
X44315095Y-44936676D01*
X44315095Y-44936676D02*
X44362714Y-45031914D01*
X44362714Y-45031914D02*
X44410333Y-45222390D01*
X44410333Y-45222390D02*
X44410333Y-45365247D01*
X44410333Y-45365247D02*
X44362714Y-45555723D01*
X44362714Y-45555723D02*
X44315095Y-45650961D01*
X44315095Y-45650961D02*
X44219857Y-45746200D01*
X44219857Y-45746200D02*
X44077000Y-45793819D01*
X44077000Y-45793819D02*
X43838905Y-45793819D01*
X44791286Y-44889057D02*
X44838905Y-44841438D01*
X44838905Y-44841438D02*
X44934143Y-44793819D01*
X44934143Y-44793819D02*
X45172238Y-44793819D01*
X45172238Y-44793819D02*
X45267476Y-44841438D01*
X45267476Y-44841438D02*
X45315095Y-44889057D01*
X45315095Y-44889057D02*
X45362714Y-44984295D01*
X45362714Y-44984295D02*
X45362714Y-45079533D01*
X45362714Y-45079533D02*
X45315095Y-45222390D01*
X45315095Y-45222390D02*
X44743667Y-45793819D01*
X44743667Y-45793819D02*
X45362714Y-45793819D01*
X73511580Y-41568666D02*
X73559200Y-41616285D01*
X73559200Y-41616285D02*
X73606819Y-41759142D01*
X73606819Y-41759142D02*
X73606819Y-41854380D01*
X73606819Y-41854380D02*
X73559200Y-41997237D01*
X73559200Y-41997237D02*
X73463961Y-42092475D01*
X73463961Y-42092475D02*
X73368723Y-42140094D01*
X73368723Y-42140094D02*
X73178247Y-42187713D01*
X73178247Y-42187713D02*
X73035390Y-42187713D01*
X73035390Y-42187713D02*
X72844914Y-42140094D01*
X72844914Y-42140094D02*
X72749676Y-42092475D01*
X72749676Y-42092475D02*
X72654438Y-41997237D01*
X72654438Y-41997237D02*
X72606819Y-41854380D01*
X72606819Y-41854380D02*
X72606819Y-41759142D01*
X72606819Y-41759142D02*
X72654438Y-41616285D01*
X72654438Y-41616285D02*
X72702057Y-41568666D01*
X73606819Y-41092475D02*
X73606819Y-40901999D01*
X73606819Y-40901999D02*
X73559200Y-40806761D01*
X73559200Y-40806761D02*
X73511580Y-40759142D01*
X73511580Y-40759142D02*
X73368723Y-40663904D01*
X73368723Y-40663904D02*
X73178247Y-40616285D01*
X73178247Y-40616285D02*
X72797295Y-40616285D01*
X72797295Y-40616285D02*
X72702057Y-40663904D01*
X72702057Y-40663904D02*
X72654438Y-40711523D01*
X72654438Y-40711523D02*
X72606819Y-40806761D01*
X72606819Y-40806761D02*
X72606819Y-40997237D01*
X72606819Y-40997237D02*
X72654438Y-41092475D01*
X72654438Y-41092475D02*
X72702057Y-41140094D01*
X72702057Y-41140094D02*
X72797295Y-41187713D01*
X72797295Y-41187713D02*
X73035390Y-41187713D01*
X73035390Y-41187713D02*
X73130628Y-41140094D01*
X73130628Y-41140094D02*
X73178247Y-41092475D01*
X73178247Y-41092475D02*
X73225866Y-40997237D01*
X73225866Y-40997237D02*
X73225866Y-40806761D01*
X73225866Y-40806761D02*
X73178247Y-40711523D01*
X73178247Y-40711523D02*
X73130628Y-40663904D01*
X73130628Y-40663904D02*
X73035390Y-40616285D01*
X39139905Y-48968819D02*
X39139905Y-47968819D01*
X39139905Y-47968819D02*
X39378000Y-47968819D01*
X39378000Y-47968819D02*
X39520857Y-48016438D01*
X39520857Y-48016438D02*
X39616095Y-48111676D01*
X39616095Y-48111676D02*
X39663714Y-48206914D01*
X39663714Y-48206914D02*
X39711333Y-48397390D01*
X39711333Y-48397390D02*
X39711333Y-48540247D01*
X39711333Y-48540247D02*
X39663714Y-48730723D01*
X39663714Y-48730723D02*
X39616095Y-48825961D01*
X39616095Y-48825961D02*
X39520857Y-48921200D01*
X39520857Y-48921200D02*
X39378000Y-48968819D01*
X39378000Y-48968819D02*
X39139905Y-48968819D01*
X40044667Y-47968819D02*
X40663714Y-47968819D01*
X40663714Y-47968819D02*
X40330381Y-48349771D01*
X40330381Y-48349771D02*
X40473238Y-48349771D01*
X40473238Y-48349771D02*
X40568476Y-48397390D01*
X40568476Y-48397390D02*
X40616095Y-48445009D01*
X40616095Y-48445009D02*
X40663714Y-48540247D01*
X40663714Y-48540247D02*
X40663714Y-48778342D01*
X40663714Y-48778342D02*
X40616095Y-48873580D01*
X40616095Y-48873580D02*
X40568476Y-48921200D01*
X40568476Y-48921200D02*
X40473238Y-48968819D01*
X40473238Y-48968819D02*
X40187524Y-48968819D01*
X40187524Y-48968819D02*
X40092286Y-48921200D01*
X40092286Y-48921200D02*
X40044667Y-48873580D01*
X49526819Y-72640357D02*
X49050628Y-72973690D01*
X49526819Y-73211785D02*
X48526819Y-73211785D01*
X48526819Y-73211785D02*
X48526819Y-72830833D01*
X48526819Y-72830833D02*
X48574438Y-72735595D01*
X48574438Y-72735595D02*
X48622057Y-72687976D01*
X48622057Y-72687976D02*
X48717295Y-72640357D01*
X48717295Y-72640357D02*
X48860152Y-72640357D01*
X48860152Y-72640357D02*
X48955390Y-72687976D01*
X48955390Y-72687976D02*
X49003009Y-72735595D01*
X49003009Y-72735595D02*
X49050628Y-72830833D01*
X49050628Y-72830833D02*
X49050628Y-73211785D01*
X49526819Y-71687976D02*
X49526819Y-72259404D01*
X49526819Y-71973690D02*
X48526819Y-71973690D01*
X48526819Y-71973690D02*
X48669676Y-72068928D01*
X48669676Y-72068928D02*
X48764914Y-72164166D01*
X48764914Y-72164166D02*
X48812533Y-72259404D01*
X48526819Y-70783214D02*
X48526819Y-71259404D01*
X48526819Y-71259404D02*
X49003009Y-71307023D01*
X49003009Y-71307023D02*
X48955390Y-71259404D01*
X48955390Y-71259404D02*
X48907771Y-71164166D01*
X48907771Y-71164166D02*
X48907771Y-70926071D01*
X48907771Y-70926071D02*
X48955390Y-70830833D01*
X48955390Y-70830833D02*
X49003009Y-70783214D01*
X49003009Y-70783214D02*
X49098247Y-70735595D01*
X49098247Y-70735595D02*
X49336342Y-70735595D01*
X49336342Y-70735595D02*
X49431580Y-70783214D01*
X49431580Y-70783214D02*
X49479200Y-70830833D01*
X49479200Y-70830833D02*
X49526819Y-70926071D01*
X49526819Y-70926071D02*
X49526819Y-71164166D01*
X49526819Y-71164166D02*
X49479200Y-71259404D01*
X49479200Y-71259404D02*
X49431580Y-71307023D01*
X42537142Y-70050819D02*
X42203809Y-69574628D01*
X41965714Y-70050819D02*
X41965714Y-69050819D01*
X41965714Y-69050819D02*
X42346666Y-69050819D01*
X42346666Y-69050819D02*
X42441904Y-69098438D01*
X42441904Y-69098438D02*
X42489523Y-69146057D01*
X42489523Y-69146057D02*
X42537142Y-69241295D01*
X42537142Y-69241295D02*
X42537142Y-69384152D01*
X42537142Y-69384152D02*
X42489523Y-69479390D01*
X42489523Y-69479390D02*
X42441904Y-69527009D01*
X42441904Y-69527009D02*
X42346666Y-69574628D01*
X42346666Y-69574628D02*
X41965714Y-69574628D01*
X43489523Y-70050819D02*
X42918095Y-70050819D01*
X43203809Y-70050819D02*
X43203809Y-69050819D01*
X43203809Y-69050819D02*
X43108571Y-69193676D01*
X43108571Y-69193676D02*
X43013333Y-69288914D01*
X43013333Y-69288914D02*
X42918095Y-69336533D01*
X43822857Y-69050819D02*
X44441904Y-69050819D01*
X44441904Y-69050819D02*
X44108571Y-69431771D01*
X44108571Y-69431771D02*
X44251428Y-69431771D01*
X44251428Y-69431771D02*
X44346666Y-69479390D01*
X44346666Y-69479390D02*
X44394285Y-69527009D01*
X44394285Y-69527009D02*
X44441904Y-69622247D01*
X44441904Y-69622247D02*
X44441904Y-69860342D01*
X44441904Y-69860342D02*
X44394285Y-69955580D01*
X44394285Y-69955580D02*
X44346666Y-70003200D01*
X44346666Y-70003200D02*
X44251428Y-70050819D01*
X44251428Y-70050819D02*
X43965714Y-70050819D01*
X43965714Y-70050819D02*
X43870476Y-70003200D01*
X43870476Y-70003200D02*
X43822857Y-69955580D01*
X24631667Y-55785104D02*
X24593571Y-55823200D01*
X24593571Y-55823200D02*
X24479286Y-55861295D01*
X24479286Y-55861295D02*
X24403095Y-55861295D01*
X24403095Y-55861295D02*
X24288809Y-55823200D01*
X24288809Y-55823200D02*
X24212619Y-55747009D01*
X24212619Y-55747009D02*
X24174524Y-55670819D01*
X24174524Y-55670819D02*
X24136428Y-55518438D01*
X24136428Y-55518438D02*
X24136428Y-55404152D01*
X24136428Y-55404152D02*
X24174524Y-55251771D01*
X24174524Y-55251771D02*
X24212619Y-55175580D01*
X24212619Y-55175580D02*
X24288809Y-55099390D01*
X24288809Y-55099390D02*
X24403095Y-55061295D01*
X24403095Y-55061295D02*
X24479286Y-55061295D01*
X24479286Y-55061295D02*
X24593571Y-55099390D01*
X24593571Y-55099390D02*
X24631667Y-55137485D01*
X25355476Y-55061295D02*
X24974524Y-55061295D01*
X24974524Y-55061295D02*
X24936428Y-55442247D01*
X24936428Y-55442247D02*
X24974524Y-55404152D01*
X24974524Y-55404152D02*
X25050714Y-55366057D01*
X25050714Y-55366057D02*
X25241190Y-55366057D01*
X25241190Y-55366057D02*
X25317381Y-55404152D01*
X25317381Y-55404152D02*
X25355476Y-55442247D01*
X25355476Y-55442247D02*
X25393571Y-55518438D01*
X25393571Y-55518438D02*
X25393571Y-55708914D01*
X25393571Y-55708914D02*
X25355476Y-55785104D01*
X25355476Y-55785104D02*
X25317381Y-55823200D01*
X25317381Y-55823200D02*
X25241190Y-55861295D01*
X25241190Y-55861295D02*
X25050714Y-55861295D01*
X25050714Y-55861295D02*
X24974524Y-55823200D01*
X24974524Y-55823200D02*
X24936428Y-55785104D01*
X54221142Y-68177580D02*
X54173523Y-68225200D01*
X54173523Y-68225200D02*
X54030666Y-68272819D01*
X54030666Y-68272819D02*
X53935428Y-68272819D01*
X53935428Y-68272819D02*
X53792571Y-68225200D01*
X53792571Y-68225200D02*
X53697333Y-68129961D01*
X53697333Y-68129961D02*
X53649714Y-68034723D01*
X53649714Y-68034723D02*
X53602095Y-67844247D01*
X53602095Y-67844247D02*
X53602095Y-67701390D01*
X53602095Y-67701390D02*
X53649714Y-67510914D01*
X53649714Y-67510914D02*
X53697333Y-67415676D01*
X53697333Y-67415676D02*
X53792571Y-67320438D01*
X53792571Y-67320438D02*
X53935428Y-67272819D01*
X53935428Y-67272819D02*
X54030666Y-67272819D01*
X54030666Y-67272819D02*
X54173523Y-67320438D01*
X54173523Y-67320438D02*
X54221142Y-67368057D01*
X54602095Y-67368057D02*
X54649714Y-67320438D01*
X54649714Y-67320438D02*
X54744952Y-67272819D01*
X54744952Y-67272819D02*
X54983047Y-67272819D01*
X54983047Y-67272819D02*
X55078285Y-67320438D01*
X55078285Y-67320438D02*
X55125904Y-67368057D01*
X55125904Y-67368057D02*
X55173523Y-67463295D01*
X55173523Y-67463295D02*
X55173523Y-67558533D01*
X55173523Y-67558533D02*
X55125904Y-67701390D01*
X55125904Y-67701390D02*
X54554476Y-68272819D01*
X54554476Y-68272819D02*
X55173523Y-68272819D01*
X55792571Y-67272819D02*
X55887809Y-67272819D01*
X55887809Y-67272819D02*
X55983047Y-67320438D01*
X55983047Y-67320438D02*
X56030666Y-67368057D01*
X56030666Y-67368057D02*
X56078285Y-67463295D01*
X56078285Y-67463295D02*
X56125904Y-67653771D01*
X56125904Y-67653771D02*
X56125904Y-67891866D01*
X56125904Y-67891866D02*
X56078285Y-68082342D01*
X56078285Y-68082342D02*
X56030666Y-68177580D01*
X56030666Y-68177580D02*
X55983047Y-68225200D01*
X55983047Y-68225200D02*
X55887809Y-68272819D01*
X55887809Y-68272819D02*
X55792571Y-68272819D01*
X55792571Y-68272819D02*
X55697333Y-68225200D01*
X55697333Y-68225200D02*
X55649714Y-68177580D01*
X55649714Y-68177580D02*
X55602095Y-68082342D01*
X55602095Y-68082342D02*
X55554476Y-67891866D01*
X55554476Y-67891866D02*
X55554476Y-67653771D01*
X55554476Y-67653771D02*
X55602095Y-67463295D01*
X55602095Y-67463295D02*
X55649714Y-67368057D01*
X55649714Y-67368057D02*
X55697333Y-67320438D01*
X55697333Y-67320438D02*
X55792571Y-67272819D01*
X55459333Y-51508819D02*
X55126000Y-51032628D01*
X54887905Y-51508819D02*
X54887905Y-50508819D01*
X54887905Y-50508819D02*
X55268857Y-50508819D01*
X55268857Y-50508819D02*
X55364095Y-50556438D01*
X55364095Y-50556438D02*
X55411714Y-50604057D01*
X55411714Y-50604057D02*
X55459333Y-50699295D01*
X55459333Y-50699295D02*
X55459333Y-50842152D01*
X55459333Y-50842152D02*
X55411714Y-50937390D01*
X55411714Y-50937390D02*
X55364095Y-50985009D01*
X55364095Y-50985009D02*
X55268857Y-51032628D01*
X55268857Y-51032628D02*
X54887905Y-51032628D01*
X55935524Y-51508819D02*
X56126000Y-51508819D01*
X56126000Y-51508819D02*
X56221238Y-51461200D01*
X56221238Y-51461200D02*
X56268857Y-51413580D01*
X56268857Y-51413580D02*
X56364095Y-51270723D01*
X56364095Y-51270723D02*
X56411714Y-51080247D01*
X56411714Y-51080247D02*
X56411714Y-50699295D01*
X56411714Y-50699295D02*
X56364095Y-50604057D01*
X56364095Y-50604057D02*
X56316476Y-50556438D01*
X56316476Y-50556438D02*
X56221238Y-50508819D01*
X56221238Y-50508819D02*
X56030762Y-50508819D01*
X56030762Y-50508819D02*
X55935524Y-50556438D01*
X55935524Y-50556438D02*
X55887905Y-50604057D01*
X55887905Y-50604057D02*
X55840286Y-50699295D01*
X55840286Y-50699295D02*
X55840286Y-50937390D01*
X55840286Y-50937390D02*
X55887905Y-51032628D01*
X55887905Y-51032628D02*
X55935524Y-51080247D01*
X55935524Y-51080247D02*
X56030762Y-51127866D01*
X56030762Y-51127866D02*
X56221238Y-51127866D01*
X56221238Y-51127866D02*
X56316476Y-51080247D01*
X56316476Y-51080247D02*
X56364095Y-51032628D01*
X56364095Y-51032628D02*
X56411714Y-50937390D01*
X45204142Y-70050819D02*
X44870809Y-69574628D01*
X44632714Y-70050819D02*
X44632714Y-69050819D01*
X44632714Y-69050819D02*
X45013666Y-69050819D01*
X45013666Y-69050819D02*
X45108904Y-69098438D01*
X45108904Y-69098438D02*
X45156523Y-69146057D01*
X45156523Y-69146057D02*
X45204142Y-69241295D01*
X45204142Y-69241295D02*
X45204142Y-69384152D01*
X45204142Y-69384152D02*
X45156523Y-69479390D01*
X45156523Y-69479390D02*
X45108904Y-69527009D01*
X45108904Y-69527009D02*
X45013666Y-69574628D01*
X45013666Y-69574628D02*
X44632714Y-69574628D01*
X46156523Y-70050819D02*
X45585095Y-70050819D01*
X45870809Y-70050819D02*
X45870809Y-69050819D01*
X45870809Y-69050819D02*
X45775571Y-69193676D01*
X45775571Y-69193676D02*
X45680333Y-69288914D01*
X45680333Y-69288914D02*
X45585095Y-69336533D01*
X47013666Y-69384152D02*
X47013666Y-70050819D01*
X46775571Y-69003200D02*
X46537476Y-69717485D01*
X46537476Y-69717485D02*
X47156523Y-69717485D01*
X40491580Y-74810857D02*
X40539200Y-74858476D01*
X40539200Y-74858476D02*
X40586819Y-75001333D01*
X40586819Y-75001333D02*
X40586819Y-75096571D01*
X40586819Y-75096571D02*
X40539200Y-75239428D01*
X40539200Y-75239428D02*
X40443961Y-75334666D01*
X40443961Y-75334666D02*
X40348723Y-75382285D01*
X40348723Y-75382285D02*
X40158247Y-75429904D01*
X40158247Y-75429904D02*
X40015390Y-75429904D01*
X40015390Y-75429904D02*
X39824914Y-75382285D01*
X39824914Y-75382285D02*
X39729676Y-75334666D01*
X39729676Y-75334666D02*
X39634438Y-75239428D01*
X39634438Y-75239428D02*
X39586819Y-75096571D01*
X39586819Y-75096571D02*
X39586819Y-75001333D01*
X39586819Y-75001333D02*
X39634438Y-74858476D01*
X39634438Y-74858476D02*
X39682057Y-74810857D01*
X40586819Y-73858476D02*
X40586819Y-74429904D01*
X40586819Y-74144190D02*
X39586819Y-74144190D01*
X39586819Y-74144190D02*
X39729676Y-74239428D01*
X39729676Y-74239428D02*
X39824914Y-74334666D01*
X39824914Y-74334666D02*
X39872533Y-74429904D01*
X40586819Y-72906095D02*
X40586819Y-73477523D01*
X40586819Y-73191809D02*
X39586819Y-73191809D01*
X39586819Y-73191809D02*
X39729676Y-73287047D01*
X39729676Y-73287047D02*
X39824914Y-73382285D01*
X39824914Y-73382285D02*
X39872533Y-73477523D01*
X51969200Y-44513332D02*
X52016819Y-44370475D01*
X52016819Y-44370475D02*
X52016819Y-44132380D01*
X52016819Y-44132380D02*
X51969200Y-44037142D01*
X51969200Y-44037142D02*
X51921580Y-43989523D01*
X51921580Y-43989523D02*
X51826342Y-43941904D01*
X51826342Y-43941904D02*
X51731104Y-43941904D01*
X51731104Y-43941904D02*
X51635866Y-43989523D01*
X51635866Y-43989523D02*
X51588247Y-44037142D01*
X51588247Y-44037142D02*
X51540628Y-44132380D01*
X51540628Y-44132380D02*
X51493009Y-44322856D01*
X51493009Y-44322856D02*
X51445390Y-44418094D01*
X51445390Y-44418094D02*
X51397771Y-44465713D01*
X51397771Y-44465713D02*
X51302533Y-44513332D01*
X51302533Y-44513332D02*
X51207295Y-44513332D01*
X51207295Y-44513332D02*
X51112057Y-44465713D01*
X51112057Y-44465713D02*
X51064438Y-44418094D01*
X51064438Y-44418094D02*
X51016819Y-44322856D01*
X51016819Y-44322856D02*
X51016819Y-44084761D01*
X51016819Y-44084761D02*
X51064438Y-43941904D01*
X51016819Y-43608570D02*
X52016819Y-43370475D01*
X52016819Y-43370475D02*
X51302533Y-43179999D01*
X51302533Y-43179999D02*
X52016819Y-42989523D01*
X52016819Y-42989523D02*
X51016819Y-42751428D01*
X51112057Y-42418094D02*
X51064438Y-42370475D01*
X51064438Y-42370475D02*
X51016819Y-42275237D01*
X51016819Y-42275237D02*
X51016819Y-42037142D01*
X51016819Y-42037142D02*
X51064438Y-41941904D01*
X51064438Y-41941904D02*
X51112057Y-41894285D01*
X51112057Y-41894285D02*
X51207295Y-41846666D01*
X51207295Y-41846666D02*
X51302533Y-41846666D01*
X51302533Y-41846666D02*
X51445390Y-41894285D01*
X51445390Y-41894285D02*
X52016819Y-42465713D01*
X52016819Y-42465713D02*
X52016819Y-41846666D01*
X60221905Y-38852819D02*
X60221905Y-37852819D01*
X60221905Y-37852819D02*
X60460000Y-37852819D01*
X60460000Y-37852819D02*
X60602857Y-37900438D01*
X60602857Y-37900438D02*
X60698095Y-37995676D01*
X60698095Y-37995676D02*
X60745714Y-38090914D01*
X60745714Y-38090914D02*
X60793333Y-38281390D01*
X60793333Y-38281390D02*
X60793333Y-38424247D01*
X60793333Y-38424247D02*
X60745714Y-38614723D01*
X60745714Y-38614723D02*
X60698095Y-38709961D01*
X60698095Y-38709961D02*
X60602857Y-38805200D01*
X60602857Y-38805200D02*
X60460000Y-38852819D01*
X60460000Y-38852819D02*
X60221905Y-38852819D01*
X61698095Y-37852819D02*
X61221905Y-37852819D01*
X61221905Y-37852819D02*
X61174286Y-38329009D01*
X61174286Y-38329009D02*
X61221905Y-38281390D01*
X61221905Y-38281390D02*
X61317143Y-38233771D01*
X61317143Y-38233771D02*
X61555238Y-38233771D01*
X61555238Y-38233771D02*
X61650476Y-38281390D01*
X61650476Y-38281390D02*
X61698095Y-38329009D01*
X61698095Y-38329009D02*
X61745714Y-38424247D01*
X61745714Y-38424247D02*
X61745714Y-38662342D01*
X61745714Y-38662342D02*
X61698095Y-38757580D01*
X61698095Y-38757580D02*
X61650476Y-38805200D01*
X61650476Y-38805200D02*
X61555238Y-38852819D01*
X61555238Y-38852819D02*
X61317143Y-38852819D01*
X61317143Y-38852819D02*
X61221905Y-38805200D01*
X61221905Y-38805200D02*
X61174286Y-38757580D01*
X61245714Y-41602819D02*
X60674286Y-41602819D01*
X60960000Y-41602819D02*
X60960000Y-40602819D01*
X60960000Y-40602819D02*
X60864762Y-40745676D01*
X60864762Y-40745676D02*
X60769524Y-40840914D01*
X60769524Y-40840914D02*
X60674286Y-40888533D01*
X45997905Y-51127819D02*
X45997905Y-50127819D01*
X45997905Y-50127819D02*
X46236000Y-50127819D01*
X46236000Y-50127819D02*
X46378857Y-50175438D01*
X46378857Y-50175438D02*
X46474095Y-50270676D01*
X46474095Y-50270676D02*
X46521714Y-50365914D01*
X46521714Y-50365914D02*
X46569333Y-50556390D01*
X46569333Y-50556390D02*
X46569333Y-50699247D01*
X46569333Y-50699247D02*
X46521714Y-50889723D01*
X46521714Y-50889723D02*
X46474095Y-50984961D01*
X46474095Y-50984961D02*
X46378857Y-51080200D01*
X46378857Y-51080200D02*
X46236000Y-51127819D01*
X46236000Y-51127819D02*
X45997905Y-51127819D01*
X47426476Y-50461152D02*
X47426476Y-51127819D01*
X47188381Y-50080200D02*
X46950286Y-50794485D01*
X46950286Y-50794485D02*
X47569333Y-50794485D01*
X61287819Y-79237857D02*
X60811628Y-79571190D01*
X61287819Y-79809285D02*
X60287819Y-79809285D01*
X60287819Y-79809285D02*
X60287819Y-79428333D01*
X60287819Y-79428333D02*
X60335438Y-79333095D01*
X60335438Y-79333095D02*
X60383057Y-79285476D01*
X60383057Y-79285476D02*
X60478295Y-79237857D01*
X60478295Y-79237857D02*
X60621152Y-79237857D01*
X60621152Y-79237857D02*
X60716390Y-79285476D01*
X60716390Y-79285476D02*
X60764009Y-79333095D01*
X60764009Y-79333095D02*
X60811628Y-79428333D01*
X60811628Y-79428333D02*
X60811628Y-79809285D01*
X61287819Y-78285476D02*
X61287819Y-78856904D01*
X61287819Y-78571190D02*
X60287819Y-78571190D01*
X60287819Y-78571190D02*
X60430676Y-78666428D01*
X60430676Y-78666428D02*
X60525914Y-78761666D01*
X60525914Y-78761666D02*
X60573533Y-78856904D01*
X60287819Y-77428333D02*
X60287819Y-77618809D01*
X60287819Y-77618809D02*
X60335438Y-77714047D01*
X60335438Y-77714047D02*
X60383057Y-77761666D01*
X60383057Y-77761666D02*
X60525914Y-77856904D01*
X60525914Y-77856904D02*
X60716390Y-77904523D01*
X60716390Y-77904523D02*
X61097342Y-77904523D01*
X61097342Y-77904523D02*
X61192580Y-77856904D01*
X61192580Y-77856904D02*
X61240200Y-77809285D01*
X61240200Y-77809285D02*
X61287819Y-77714047D01*
X61287819Y-77714047D02*
X61287819Y-77523571D01*
X61287819Y-77523571D02*
X61240200Y-77428333D01*
X61240200Y-77428333D02*
X61192580Y-77380714D01*
X61192580Y-77380714D02*
X61097342Y-77333095D01*
X61097342Y-77333095D02*
X60859247Y-77333095D01*
X60859247Y-77333095D02*
X60764009Y-77380714D01*
X60764009Y-77380714D02*
X60716390Y-77428333D01*
X60716390Y-77428333D02*
X60668771Y-77523571D01*
X60668771Y-77523571D02*
X60668771Y-77714047D01*
X60668771Y-77714047D02*
X60716390Y-77809285D01*
X60716390Y-77809285D02*
X60764009Y-77856904D01*
X60764009Y-77856904D02*
X60859247Y-77904523D01*
X68779580Y-42044857D02*
X68827200Y-42092476D01*
X68827200Y-42092476D02*
X68874819Y-42235333D01*
X68874819Y-42235333D02*
X68874819Y-42330571D01*
X68874819Y-42330571D02*
X68827200Y-42473428D01*
X68827200Y-42473428D02*
X68731961Y-42568666D01*
X68731961Y-42568666D02*
X68636723Y-42616285D01*
X68636723Y-42616285D02*
X68446247Y-42663904D01*
X68446247Y-42663904D02*
X68303390Y-42663904D01*
X68303390Y-42663904D02*
X68112914Y-42616285D01*
X68112914Y-42616285D02*
X68017676Y-42568666D01*
X68017676Y-42568666D02*
X67922438Y-42473428D01*
X67922438Y-42473428D02*
X67874819Y-42330571D01*
X67874819Y-42330571D02*
X67874819Y-42235333D01*
X67874819Y-42235333D02*
X67922438Y-42092476D01*
X67922438Y-42092476D02*
X67970057Y-42044857D01*
X68874819Y-41092476D02*
X68874819Y-41663904D01*
X68874819Y-41378190D02*
X67874819Y-41378190D01*
X67874819Y-41378190D02*
X68017676Y-41473428D01*
X68017676Y-41473428D02*
X68112914Y-41568666D01*
X68112914Y-41568666D02*
X68160533Y-41663904D01*
X67874819Y-40473428D02*
X67874819Y-40378190D01*
X67874819Y-40378190D02*
X67922438Y-40282952D01*
X67922438Y-40282952D02*
X67970057Y-40235333D01*
X67970057Y-40235333D02*
X68065295Y-40187714D01*
X68065295Y-40187714D02*
X68255771Y-40140095D01*
X68255771Y-40140095D02*
X68493866Y-40140095D01*
X68493866Y-40140095D02*
X68684342Y-40187714D01*
X68684342Y-40187714D02*
X68779580Y-40235333D01*
X68779580Y-40235333D02*
X68827200Y-40282952D01*
X68827200Y-40282952D02*
X68874819Y-40378190D01*
X68874819Y-40378190D02*
X68874819Y-40473428D01*
X68874819Y-40473428D02*
X68827200Y-40568666D01*
X68827200Y-40568666D02*
X68779580Y-40616285D01*
X68779580Y-40616285D02*
X68684342Y-40663904D01*
X68684342Y-40663904D02*
X68493866Y-40711523D01*
X68493866Y-40711523D02*
X68255771Y-40711523D01*
X68255771Y-40711523D02*
X68065295Y-40663904D01*
X68065295Y-40663904D02*
X67970057Y-40616285D01*
X67970057Y-40616285D02*
X67922438Y-40568666D01*
X67922438Y-40568666D02*
X67874819Y-40473428D01*
X47715423Y-48333819D02*
X47382090Y-47857628D01*
X47143995Y-48333819D02*
X47143995Y-47333819D01*
X47143995Y-47333819D02*
X47524947Y-47333819D01*
X47524947Y-47333819D02*
X47620185Y-47381438D01*
X47620185Y-47381438D02*
X47667804Y-47429057D01*
X47667804Y-47429057D02*
X47715423Y-47524295D01*
X47715423Y-47524295D02*
X47715423Y-47667152D01*
X47715423Y-47667152D02*
X47667804Y-47762390D01*
X47667804Y-47762390D02*
X47620185Y-47810009D01*
X47620185Y-47810009D02*
X47524947Y-47857628D01*
X47524947Y-47857628D02*
X47143995Y-47857628D01*
X48667804Y-48333819D02*
X48096376Y-48333819D01*
X48382090Y-48333819D02*
X48382090Y-47333819D01*
X48382090Y-47333819D02*
X48286852Y-47476676D01*
X48286852Y-47476676D02*
X48191614Y-47571914D01*
X48191614Y-47571914D02*
X48096376Y-47619533D01*
X49286852Y-47333819D02*
X49382090Y-47333819D01*
X49382090Y-47333819D02*
X49477328Y-47381438D01*
X49477328Y-47381438D02*
X49524947Y-47429057D01*
X49524947Y-47429057D02*
X49572566Y-47524295D01*
X49572566Y-47524295D02*
X49620185Y-47714771D01*
X49620185Y-47714771D02*
X49620185Y-47952866D01*
X49620185Y-47952866D02*
X49572566Y-48143342D01*
X49572566Y-48143342D02*
X49524947Y-48238580D01*
X49524947Y-48238580D02*
X49477328Y-48286200D01*
X49477328Y-48286200D02*
X49382090Y-48333819D01*
X49382090Y-48333819D02*
X49286852Y-48333819D01*
X49286852Y-48333819D02*
X49191614Y-48286200D01*
X49191614Y-48286200D02*
X49143995Y-48238580D01*
X49143995Y-48238580D02*
X49096376Y-48143342D01*
X49096376Y-48143342D02*
X49048757Y-47952866D01*
X49048757Y-47952866D02*
X49048757Y-47714771D01*
X49048757Y-47714771D02*
X49096376Y-47524295D01*
X49096376Y-47524295D02*
X49143995Y-47429057D01*
X49143995Y-47429057D02*
X49191614Y-47381438D01*
X49191614Y-47381438D02*
X49286852Y-47333819D01*
X73417580Y-61602857D02*
X73465200Y-61650476D01*
X73465200Y-61650476D02*
X73512819Y-61793333D01*
X73512819Y-61793333D02*
X73512819Y-61888571D01*
X73512819Y-61888571D02*
X73465200Y-62031428D01*
X73465200Y-62031428D02*
X73369961Y-62126666D01*
X73369961Y-62126666D02*
X73274723Y-62174285D01*
X73274723Y-62174285D02*
X73084247Y-62221904D01*
X73084247Y-62221904D02*
X72941390Y-62221904D01*
X72941390Y-62221904D02*
X72750914Y-62174285D01*
X72750914Y-62174285D02*
X72655676Y-62126666D01*
X72655676Y-62126666D02*
X72560438Y-62031428D01*
X72560438Y-62031428D02*
X72512819Y-61888571D01*
X72512819Y-61888571D02*
X72512819Y-61793333D01*
X72512819Y-61793333D02*
X72560438Y-61650476D01*
X72560438Y-61650476D02*
X72608057Y-61602857D01*
X73512819Y-60650476D02*
X73512819Y-61221904D01*
X73512819Y-60936190D02*
X72512819Y-60936190D01*
X72512819Y-60936190D02*
X72655676Y-61031428D01*
X72655676Y-61031428D02*
X72750914Y-61126666D01*
X72750914Y-61126666D02*
X72798533Y-61221904D01*
X72608057Y-60269523D02*
X72560438Y-60221904D01*
X72560438Y-60221904D02*
X72512819Y-60126666D01*
X72512819Y-60126666D02*
X72512819Y-59888571D01*
X72512819Y-59888571D02*
X72560438Y-59793333D01*
X72560438Y-59793333D02*
X72608057Y-59745714D01*
X72608057Y-59745714D02*
X72703295Y-59698095D01*
X72703295Y-59698095D02*
X72798533Y-59698095D01*
X72798533Y-59698095D02*
X72941390Y-59745714D01*
X72941390Y-59745714D02*
X73512819Y-60317142D01*
X73512819Y-60317142D02*
X73512819Y-59698095D01*
X36853905Y-50379819D02*
X36853905Y-49379819D01*
X36853905Y-49379819D02*
X37092000Y-49379819D01*
X37092000Y-49379819D02*
X37234857Y-49427438D01*
X37234857Y-49427438D02*
X37330095Y-49522676D01*
X37330095Y-49522676D02*
X37377714Y-49617914D01*
X37377714Y-49617914D02*
X37425333Y-49808390D01*
X37425333Y-49808390D02*
X37425333Y-49951247D01*
X37425333Y-49951247D02*
X37377714Y-50141723D01*
X37377714Y-50141723D02*
X37330095Y-50236961D01*
X37330095Y-50236961D02*
X37234857Y-50332200D01*
X37234857Y-50332200D02*
X37092000Y-50379819D01*
X37092000Y-50379819D02*
X36853905Y-50379819D01*
X38377714Y-50379819D02*
X37806286Y-50379819D01*
X38092000Y-50379819D02*
X38092000Y-49379819D01*
X38092000Y-49379819D02*
X37996762Y-49522676D01*
X37996762Y-49522676D02*
X37901524Y-49617914D01*
X37901524Y-49617914D02*
X37806286Y-49665533D01*
D12*
%TO.C,J3*%
X33468000Y-53594000D02*
X33468000Y-68894000D01*
X33468000Y-53594000D02*
X36128000Y-53594000D01*
X33468000Y-68894000D02*
X36128000Y-68894000D01*
X34798000Y-50994000D02*
X36128000Y-50994000D01*
X36128000Y-50994000D02*
X36128000Y-52324000D01*
X36128000Y-53594000D02*
X36128000Y-68894000D01*
%TO.C,C17*%
X67879733Y-72855500D02*
X68172267Y-72855500D01*
X67879733Y-73875500D02*
X68172267Y-73875500D01*
%TO.C,C1*%
X61466000Y-63353733D02*
X61466000Y-63646267D01*
X62486000Y-63353733D02*
X62486000Y-63646267D01*
%TO.C,C15*%
X51560000Y-71851233D02*
X51560000Y-72143767D01*
X52580000Y-71851233D02*
X52580000Y-72143767D01*
%TO.C,C3*%
X55696267Y-46226000D02*
X55403733Y-46226000D01*
X55696267Y-47246000D02*
X55403733Y-47246000D01*
%TO.C,C19*%
X52252000Y-79101733D02*
X52252000Y-79394267D01*
X53272000Y-79101733D02*
X53272000Y-79394267D01*
%TO.C,R6*%
X43867500Y-41654724D02*
X43867500Y-41145276D01*
X44912500Y-41654724D02*
X44912500Y-41145276D01*
%TO.C,C6*%
X22604000Y-57365833D02*
X22604000Y-57658367D01*
X23624000Y-57365833D02*
X23624000Y-57658367D01*
%TO.C,J1*%
X33532000Y-41124000D02*
X33532000Y-42824000D01*
X42872000Y-41124000D02*
X42872000Y-42824000D01*
%TO.C,C4*%
X51415733Y-45972000D02*
X51708267Y-45972000D01*
X51415733Y-46992000D02*
X51708267Y-46992000D01*
%TO.C,C8*%
X23328000Y-53361733D02*
X23328000Y-53654267D01*
X24348000Y-53361733D02*
X24348000Y-53654267D01*
%TO.C,Q2*%
X39725000Y-69002000D02*
X39075000Y-69002000D01*
X39725000Y-69002000D02*
X40375000Y-69002000D01*
X39725000Y-72122000D02*
X39075000Y-72122000D01*
X39725000Y-72122000D02*
X40375000Y-72122000D01*
X41127500Y-72402000D02*
X40647500Y-72402000D01*
X40887500Y-72072000D01*
X41127500Y-72402000D01*
G36*
X41127500Y-72402000D02*
G01*
X40647500Y-72402000D01*
X40887500Y-72072000D01*
X41127500Y-72402000D01*
G37*
D13*
%TO.C,U2*%
X59951000Y-63819000D02*
X57651000Y-63819000D01*
X59951000Y-66229000D02*
X57651000Y-66229000D01*
D14*
X61426000Y-65774000D02*
G75*
G02*
X61226000Y-65774000I-100000J0D01*
G01*
X61226000Y-65774000D02*
G75*
G02*
X61426000Y-65774000I100000J0D01*
G01*
D12*
%TO.C,J2*%
X61940000Y-81930000D02*
X61940000Y-75610000D01*
X75220000Y-75610000D02*
X61940000Y-75610000D01*
X75220000Y-76170000D02*
X61940000Y-76170000D01*
X75220000Y-81470000D02*
X61940000Y-81470000D01*
X75220000Y-81930000D02*
X61940000Y-81930000D01*
X75220000Y-81930000D02*
X75220000Y-75610000D01*
X75460000Y-75370000D02*
X74960000Y-75370000D01*
X75460000Y-76110000D02*
X75460000Y-75370000D01*
%TO.C,R12*%
X66502724Y-71065000D02*
X65993276Y-71065000D01*
X66502724Y-72110000D02*
X65993276Y-72110000D01*
%TO.C,C18*%
X53846000Y-79101733D02*
X53846000Y-79394267D01*
X54866000Y-79101733D02*
X54866000Y-79394267D01*
%TO.C,J4*%
X39554000Y-77918000D02*
X39554000Y-80578000D01*
X47234000Y-77918000D02*
X39554000Y-77918000D01*
X47234000Y-77918000D02*
X47234000Y-80578000D01*
X47234000Y-80578000D02*
X39554000Y-80578000D01*
X48504000Y-77918000D02*
X49834000Y-77918000D01*
X49834000Y-77918000D02*
X49834000Y-79248000D01*
%TO.C,MK1*%
X26007000Y-55300000D02*
X28857000Y-55300000D01*
X26007000Y-59000000D02*
X26007000Y-55300000D01*
X28557000Y-59000000D02*
X26007000Y-59000000D01*
X28857000Y-55300000D02*
X28857000Y-58700000D01*
X28857000Y-59280000D02*
X28857000Y-59000000D01*
X29137000Y-59000000D01*
X28857000Y-59280000D01*
G36*
X28857000Y-59280000D02*
G01*
X28857000Y-59000000D01*
X29137000Y-59000000D01*
X28857000Y-59280000D01*
G37*
%TO.C,R17*%
X56641276Y-79233500D02*
X57150724Y-79233500D01*
X56641276Y-80278500D02*
X57150724Y-80278500D01*
D13*
%TO.C,U3*%
X26648000Y-52173000D02*
X28648000Y-52173000D01*
X26648000Y-54873000D02*
X28648000Y-54873000D01*
D14*
X29443000Y-52373000D02*
G75*
G02*
X29243000Y-52373000I-100000J0D01*
G01*
X29243000Y-52373000D02*
G75*
G02*
X29443000Y-52373000I100000J0D01*
G01*
D12*
%TO.C,J5*%
X22872000Y-60914000D02*
X23872000Y-60914000D01*
X22872000Y-62304000D02*
X22872000Y-60914000D01*
X22872000Y-62304000D02*
X22872000Y-62304000D01*
X22872000Y-62304000D02*
X22872000Y-63299000D01*
X23992000Y-62304000D02*
X24872000Y-62304000D01*
X24992000Y-60914000D02*
X25872000Y-60914000D01*
X25992000Y-62304000D02*
X26872000Y-62304000D01*
X26992000Y-60914000D02*
X27872000Y-60914000D01*
X27992000Y-62304000D02*
X28872000Y-62304000D01*
X28992000Y-60914000D02*
X29992000Y-60914000D01*
X29992000Y-60914000D02*
X29992000Y-60914000D01*
X29992000Y-62304000D02*
X29992000Y-60914000D01*
%TO.C,C16*%
X64806267Y-72890000D02*
X64513733Y-72890000D01*
X64806267Y-73910000D02*
X64513733Y-73910000D01*
D13*
%TO.C,U4*%
X59245000Y-72205000D02*
X55345000Y-72205000D01*
X59245000Y-77255000D02*
X55345000Y-77255000D01*
D14*
X61435000Y-77035000D02*
G75*
G02*
X61235000Y-77035000I-100000J0D01*
G01*
X61235000Y-77035000D02*
G75*
G02*
X61435000Y-77035000I100000J0D01*
G01*
D12*
%TO.C,R7*%
X35674724Y-46213500D02*
X35165276Y-46213500D01*
X35674724Y-47258500D02*
X35165276Y-47258500D01*
D13*
%TO.C,SW1*%
X53811000Y-44983000D02*
X53811000Y-40783000D01*
X55931000Y-40783000D02*
X54931000Y-40783000D01*
X55931000Y-44983000D02*
X54931000Y-44983000D01*
X57051000Y-40783000D02*
X57051000Y-44983000D01*
D14*
X54431000Y-45983000D02*
G75*
G02*
X54231000Y-45983000I-100000J0D01*
G01*
X54231000Y-45983000D02*
G75*
G02*
X54431000Y-45983000I100000J0D01*
G01*
D12*
%TO.C,U5*%
X39745000Y-64720000D02*
X39745000Y-62770000D01*
X39745000Y-64720000D02*
X39745000Y-66670000D01*
X49865000Y-64720000D02*
X49865000Y-62770000D01*
X49865000Y-64720000D02*
X49865000Y-66670000D01*
X39800000Y-67445000D02*
X39470000Y-67685000D01*
X39470000Y-67205000D01*
X39800000Y-67445000D01*
G36*
X39800000Y-67445000D02*
G01*
X39470000Y-67685000D01*
X39470000Y-67205000D01*
X39800000Y-67445000D01*
G37*
%TO.C,U1*%
X57468000Y-43396000D02*
X78168000Y-43396000D01*
X57468000Y-58996000D02*
X57468000Y-43396000D01*
X78168000Y-43396000D02*
X78168000Y-58996000D01*
X78168000Y-58996000D02*
X57468000Y-58996000D01*
X78418000Y-43121000D02*
X75968000Y-43121000D01*
X78418000Y-43121000D02*
X78418000Y-45571000D01*
X71218000Y-43221000D02*
X70978000Y-42885000D01*
X71458000Y-42885000D01*
X71218000Y-43221000D01*
G36*
X71218000Y-43221000D02*
G01*
X70978000Y-42885000D01*
X71458000Y-42885000D01*
X71218000Y-43221000D01*
G37*
%TO.C,C14*%
X46734000Y-71843733D02*
X46734000Y-72136267D01*
X47754000Y-71843733D02*
X47754000Y-72136267D01*
D15*
%TO.C,G\u002A\u002A\u002A*%
G36*
X47925284Y-54069898D02*
G01*
X48055224Y-54157370D01*
X48212049Y-54320988D01*
X48348756Y-54543194D01*
X48446227Y-54779648D01*
X48485341Y-54986014D01*
X48461642Y-55099847D01*
X48345987Y-55222367D01*
X48215761Y-55221490D01*
X48049088Y-55094648D01*
X48001911Y-55045905D01*
X47825951Y-54806265D01*
X47714109Y-54550567D01*
X47677048Y-54317003D01*
X47725432Y-54143766D01*
X47743961Y-54122015D01*
X47833018Y-54054880D01*
X47925284Y-54069898D01*
G37*
G36*
X49794960Y-54888126D02*
G01*
X49801093Y-55028565D01*
X49765737Y-55201405D01*
X49696125Y-55356556D01*
X49657000Y-55405819D01*
X49507330Y-55519480D01*
X49350829Y-55533247D01*
X49178669Y-55478255D01*
X49015614Y-55385455D01*
X48996321Y-55297258D01*
X49120786Y-55214591D01*
X49179931Y-55193045D01*
X49386081Y-55096864D01*
X49547708Y-54975514D01*
X49551519Y-54971382D01*
X49668077Y-54865464D01*
X49740107Y-54830181D01*
X49794960Y-54888126D01*
G37*
G36*
X49614784Y-53238118D02*
G01*
X49642457Y-53254795D01*
X49821582Y-53429518D01*
X49972335Y-53683603D01*
X50063620Y-53954675D01*
X50075304Y-54123011D01*
X50025993Y-54314447D01*
X49926692Y-54372931D01*
X49773874Y-54299129D01*
X49663838Y-54200497D01*
X49504738Y-53989591D01*
X49379736Y-53736724D01*
X49363355Y-53687833D01*
X49312908Y-53486324D01*
X49318792Y-53365835D01*
X49383588Y-53273889D01*
X49383724Y-53273753D01*
X49492832Y-53201780D01*
X49614784Y-53238118D01*
G37*
G36*
X49227252Y-49767165D02*
G01*
X49423341Y-49904269D01*
X49468520Y-49958550D01*
X49563984Y-50106680D01*
X49572481Y-50219010D01*
X49509369Y-50354300D01*
X49348263Y-50522213D01*
X49179305Y-50570662D01*
X49050855Y-50595977D01*
X48966291Y-50663773D01*
X48897935Y-50808944D01*
X48836867Y-51002390D01*
X48765571Y-51285636D01*
X48714839Y-51564545D01*
X48700703Y-51699397D01*
X48685612Y-51986460D01*
X49169448Y-52035056D01*
X49495287Y-52090065D01*
X49830789Y-52181287D01*
X50032904Y-52258464D01*
X50244124Y-52377916D01*
X50477916Y-52543815D01*
X50703073Y-52729308D01*
X50888389Y-52907539D01*
X51002656Y-53051656D01*
X51024139Y-53111442D01*
X51074983Y-53099668D01*
X51210207Y-53012756D01*
X51403850Y-52867953D01*
X51470742Y-52814763D01*
X51926560Y-52500295D01*
X52372405Y-52290355D01*
X52794038Y-52182658D01*
X53177218Y-52174914D01*
X53507705Y-52264837D01*
X53771259Y-52450140D01*
X53953640Y-52728534D01*
X54040607Y-53097734D01*
X54045966Y-53228418D01*
X53980460Y-53713812D01*
X53791468Y-54220738D01*
X53491276Y-54723020D01*
X53152080Y-55132848D01*
X53031908Y-55266236D01*
X52969421Y-55349273D01*
X52966915Y-55356678D01*
X53031531Y-55380594D01*
X53197491Y-55410810D01*
X53342665Y-55430276D01*
X53772744Y-55528655D01*
X54144156Y-55705126D01*
X54435645Y-55942399D01*
X54625953Y-56223185D01*
X54693827Y-56529253D01*
X54625298Y-56805195D01*
X54433201Y-57061971D01*
X54137771Y-57285958D01*
X53759241Y-57463533D01*
X53317847Y-57581073D01*
X53084713Y-57612627D01*
X52631073Y-57654989D01*
X52421232Y-58131395D01*
X52312639Y-58401289D01*
X52248120Y-58639869D01*
X52216433Y-58905714D01*
X52206388Y-59251065D01*
X52195853Y-59565021D01*
X52171708Y-59793194D01*
X52137018Y-59910156D01*
X52125836Y-59919512D01*
X52027561Y-59898259D01*
X51852657Y-59817090D01*
X51699111Y-59729612D01*
X51465205Y-59610932D01*
X51147825Y-59482021D01*
X50803672Y-59365213D01*
X50689273Y-59331845D01*
X50378121Y-59243550D01*
X50100678Y-59161260D01*
X49899649Y-59097788D01*
X49844269Y-59078314D01*
X49721177Y-59046103D01*
X49636404Y-59085782D01*
X49548151Y-59223673D01*
X49516485Y-59284717D01*
X49332039Y-59564653D01*
X49070369Y-59861169D01*
X48774993Y-60131605D01*
X48489428Y-60333298D01*
X48399126Y-60380086D01*
X48055473Y-60488131D01*
X47732735Y-60502125D01*
X47471234Y-60421133D01*
X47442005Y-60402301D01*
X47221600Y-60164091D01*
X47103262Y-59841137D01*
X47092648Y-59561201D01*
X47427108Y-59561201D01*
X47445589Y-59832050D01*
X47510730Y-60009281D01*
X47570314Y-60082873D01*
X47711651Y-60191433D01*
X47865013Y-60218136D01*
X48075203Y-60165281D01*
X48202229Y-60115337D01*
X48495368Y-59942921D01*
X48804219Y-59677574D01*
X49086673Y-59358146D01*
X49204930Y-59190160D01*
X49385213Y-58909062D01*
X49125826Y-58686477D01*
X49124557Y-58685136D01*
X49868090Y-58685136D01*
X49877823Y-58733031D01*
X49998889Y-58791296D01*
X50241481Y-58872906D01*
X50426862Y-58931332D01*
X50739722Y-59021564D01*
X50965059Y-59054912D01*
X51149735Y-59025971D01*
X51340613Y-58929339D01*
X51521747Y-58805082D01*
X51757952Y-58612853D01*
X51927121Y-58407552D01*
X52074678Y-58131421D01*
X52105504Y-58062815D01*
X52219799Y-57776257D01*
X52312667Y-57494680D01*
X52360342Y-57297307D01*
X52407301Y-57003641D01*
X51913595Y-57482836D01*
X51276752Y-58001893D01*
X50556804Y-58403469D01*
X50141854Y-58568563D01*
X49959498Y-58634638D01*
X49868090Y-58685136D01*
X49124557Y-58685136D01*
X48941437Y-58491654D01*
X48753707Y-58236952D01*
X48661836Y-58084115D01*
X48457234Y-57704337D01*
X48117977Y-58067030D01*
X47762285Y-58523653D01*
X47530445Y-58994676D01*
X47430565Y-59462560D01*
X47427108Y-59561201D01*
X47092648Y-59561201D01*
X47088494Y-59451636D01*
X47178801Y-59013785D01*
X47301080Y-58697531D01*
X47473927Y-58319983D01*
X46676653Y-58319983D01*
X46316460Y-58317149D01*
X46059395Y-58303878D01*
X45864717Y-58273012D01*
X45691682Y-58217396D01*
X45499547Y-58129874D01*
X45447652Y-58104119D01*
X45075165Y-57875667D01*
X44836096Y-57623150D01*
X44720264Y-57331945D01*
X44710839Y-57045821D01*
X44729977Y-56976243D01*
X45018686Y-56976243D01*
X45024813Y-57257511D01*
X45161378Y-57515280D01*
X45415331Y-57737044D01*
X45773620Y-57910299D01*
X46084000Y-57996967D01*
X46361334Y-58027195D01*
X46718899Y-58028464D01*
X47096609Y-58003748D01*
X47434372Y-57956021D01*
X47573808Y-57923230D01*
X47764146Y-57841202D01*
X47995705Y-57704916D01*
X48114780Y-57621431D01*
X48297069Y-57474846D01*
X48390871Y-57352756D01*
X48425884Y-57197541D01*
X48431546Y-57006810D01*
X48431430Y-56813462D01*
X48757567Y-56813462D01*
X48767373Y-57187698D01*
X48781218Y-57476499D01*
X48817001Y-57647728D01*
X48894109Y-57727701D01*
X49031925Y-57742733D01*
X49166659Y-57729727D01*
X49410794Y-57680434D01*
X49706154Y-57594558D01*
X49892924Y-57527614D01*
X50300481Y-57341683D01*
X50717189Y-57107734D01*
X51114353Y-56846133D01*
X51463280Y-56577245D01*
X51735273Y-56321436D01*
X51899197Y-56103687D01*
X51932764Y-55999428D01*
X51893703Y-55897613D01*
X51767942Y-55763067D01*
X52268352Y-55763067D01*
X52473724Y-56170220D01*
X52628631Y-56559424D01*
X52679044Y-56922749D01*
X52679096Y-56935389D01*
X52679096Y-57293405D01*
X53130275Y-57264676D01*
X53461945Y-57218789D01*
X53761337Y-57134413D01*
X53863732Y-57089458D01*
X54078758Y-56950184D01*
X54258727Y-56788118D01*
X54289617Y-56750622D01*
X54379448Y-56612683D01*
X54391347Y-56500212D01*
X54329840Y-56341630D01*
X54317178Y-56314921D01*
X54119711Y-56067276D01*
X53881341Y-55916759D01*
X53613844Y-55821432D01*
X53276530Y-55747924D01*
X52924504Y-55703835D01*
X52612869Y-55696769D01*
X52445310Y-55718654D01*
X52268352Y-55763067D01*
X51767942Y-55763067D01*
X51763245Y-55758042D01*
X51718368Y-55716401D01*
X51547826Y-55576578D01*
X51408455Y-55490699D01*
X51363866Y-55477773D01*
X51267404Y-55521926D01*
X51097134Y-55638842D01*
X50886389Y-55805209D01*
X50841138Y-55843370D01*
X50464579Y-56128625D01*
X50047423Y-56385420D01*
X49629864Y-56592649D01*
X49252098Y-56729212D01*
X49085316Y-56765205D01*
X48757567Y-56813462D01*
X48431430Y-56813462D01*
X48431412Y-56783183D01*
X48428648Y-56621778D01*
X48425904Y-56575082D01*
X48358600Y-56523554D01*
X48198661Y-56457807D01*
X48120097Y-56432663D01*
X47903272Y-56340488D01*
X47640159Y-56190105D01*
X47427884Y-56043510D01*
X47033612Y-55742810D01*
X46644822Y-55824360D01*
X46197737Y-55957447D01*
X45787042Y-56152985D01*
X45438423Y-56392779D01*
X45177566Y-56658635D01*
X45030155Y-56932358D01*
X45018686Y-56976243D01*
X44729977Y-56976243D01*
X44817253Y-56658943D01*
X45062029Y-56305641D01*
X45431820Y-55994029D01*
X45680016Y-55848245D01*
X45980463Y-55705449D01*
X46287430Y-55584007D01*
X46555185Y-55502287D01*
X46717256Y-55477773D01*
X46823911Y-55449692D01*
X46817091Y-55351853D01*
X46772740Y-55215117D01*
X46709816Y-54994496D01*
X46661621Y-54813357D01*
X46601430Y-54300007D01*
X46617668Y-54184878D01*
X46941675Y-54184878D01*
X46960637Y-54686002D01*
X47100803Y-55136615D01*
X47344921Y-55525457D01*
X47675742Y-55841265D01*
X48076016Y-56072778D01*
X48528492Y-56208734D01*
X49015919Y-56237872D01*
X49521048Y-56148929D01*
X49795222Y-56047786D01*
X50185217Y-55812908D01*
X50542798Y-55483715D01*
X50816192Y-55108491D01*
X50830693Y-55082023D01*
X50860584Y-55011135D01*
X51256689Y-55011135D01*
X51279551Y-55102321D01*
X51325652Y-55118000D01*
X51442189Y-55157497D01*
X51614266Y-55256228D01*
X51673761Y-55297004D01*
X51926324Y-55427140D01*
X52174066Y-55439743D01*
X52436631Y-55330286D01*
X52733661Y-55094242D01*
X52790594Y-55039637D01*
X53144065Y-54644592D01*
X53418022Y-54238883D01*
X53609297Y-53839093D01*
X53714725Y-53461804D01*
X53731138Y-53123599D01*
X53655371Y-52841060D01*
X53484257Y-52630770D01*
X53270955Y-52523991D01*
X52915174Y-52489704D01*
X52509982Y-52578759D01*
X52071054Y-52786147D01*
X51728118Y-53017111D01*
X51495885Y-53200978D01*
X51360541Y-53334579D01*
X51299004Y-53447124D01*
X51288191Y-53567826D01*
X51288500Y-53573454D01*
X51310286Y-53998917D01*
X51317834Y-54315332D01*
X51310924Y-54556875D01*
X51289334Y-54757723D01*
X51280477Y-54812193D01*
X51256689Y-55011135D01*
X50860584Y-55011135D01*
X50921899Y-54865726D01*
X50970012Y-54615162D01*
X50984787Y-54277960D01*
X50984826Y-54254544D01*
X50948891Y-53794361D01*
X50829213Y-53420587D01*
X50607985Y-53091719D01*
X50392809Y-52874680D01*
X50032608Y-52609382D01*
X49643907Y-52452460D01*
X49191272Y-52392720D01*
X48884693Y-52398235D01*
X48468095Y-52444448D01*
X48138413Y-52541171D01*
X47841467Y-52710599D01*
X47560805Y-52940533D01*
X47224967Y-53329494D01*
X47018269Y-53777868D01*
X46941675Y-54184878D01*
X46617668Y-54184878D01*
X46675056Y-53777995D01*
X46878065Y-53278620D01*
X46879311Y-53276388D01*
X46981187Y-53066557D01*
X46998664Y-52942799D01*
X46969864Y-52898033D01*
X46800016Y-52813091D01*
X46537820Y-52739334D01*
X46234839Y-52688470D01*
X45974172Y-52671942D01*
X45758164Y-52683315D01*
X45643518Y-52728733D01*
X45590169Y-52819837D01*
X45491189Y-52962027D01*
X45367377Y-53048198D01*
X45218469Y-53088252D01*
X45077771Y-53039063D01*
X44995856Y-52982729D01*
X44825952Y-52788349D01*
X44781461Y-52575312D01*
X44938630Y-52575312D01*
X44982736Y-52748708D01*
X45112951Y-52866351D01*
X45280321Y-52871396D01*
X45407857Y-52784073D01*
X45451807Y-52639196D01*
X45390267Y-52494187D01*
X45252991Y-52398096D01*
X45165000Y-52383722D01*
X45002728Y-52437467D01*
X44938630Y-52575312D01*
X44781461Y-52575312D01*
X44780375Y-52570113D01*
X44863734Y-52361325D01*
X44903633Y-52316127D01*
X45064767Y-52195285D01*
X45219892Y-52188105D01*
X45407465Y-52296732D01*
X45470507Y-52347745D01*
X45628509Y-52456013D01*
X45806619Y-52510584D01*
X46061639Y-52527385D01*
X46112184Y-52527632D01*
X46423847Y-52547129D01*
X46743661Y-52596852D01*
X46891279Y-52633328D01*
X47242480Y-52739024D01*
X47604272Y-52491040D01*
X47843188Y-52340477D01*
X48074267Y-52216060D01*
X48196380Y-52163674D01*
X48342021Y-52096222D01*
X48421103Y-51992288D01*
X48466125Y-51803301D01*
X48474286Y-51748314D01*
X48527825Y-51497082D01*
X48617826Y-51190152D01*
X48701327Y-50955866D01*
X48798401Y-50681620D01*
X48830278Y-50510562D01*
X48801216Y-50419836D01*
X48801183Y-50419804D01*
X48731559Y-50263479D01*
X48732247Y-50215445D01*
X48882217Y-50215445D01*
X48940322Y-50336471D01*
X49048223Y-50427982D01*
X49179430Y-50423448D01*
X49255364Y-50397271D01*
X49347260Y-50296776D01*
X49361720Y-50136629D01*
X49298766Y-49978466D01*
X49255218Y-49932258D01*
X49112063Y-49881013D01*
X48982926Y-49935842D01*
X48896686Y-50059675D01*
X48882217Y-50215445D01*
X48732247Y-50215445D01*
X48734521Y-50056765D01*
X48805557Y-49870786D01*
X48838567Y-49830565D01*
X49018768Y-49739842D01*
X49227252Y-49767165D01*
G37*
D12*
%TO.C,C2*%
X44106267Y-48550000D02*
X43813733Y-48550000D01*
X44106267Y-49570000D02*
X43813733Y-49570000D01*
%TO.C,R11*%
X69581500Y-61214724D02*
X69581500Y-60705276D01*
X70626500Y-61214724D02*
X70626500Y-60705276D01*
%TO.C,R8*%
X64247500Y-41656724D02*
X64247500Y-41147276D01*
X65292500Y-41656724D02*
X65292500Y-41147276D01*
%TO.C,C13*%
X43896733Y-74116000D02*
X44189267Y-74116000D01*
X43896733Y-75136000D02*
X44189267Y-75136000D01*
D13*
%TO.C,U6*%
X63775000Y-64812000D02*
X63775000Y-68792000D01*
X68813000Y-68792000D02*
X68813000Y-64812000D01*
D14*
X68299000Y-62852000D02*
G75*
G02*
X68099000Y-62852000I-100000J0D01*
G01*
X68099000Y-62852000D02*
G75*
G02*
X68299000Y-62852000I100000J0D01*
G01*
D12*
%TO.C,D2*%
X45630000Y-46180000D02*
X41970000Y-46180000D01*
X45630000Y-48080000D02*
X41970000Y-48080000D01*
X45630000Y-48080000D02*
X45630000Y-46180000D01*
%TO.C,C9*%
X70864000Y-41548267D02*
X70864000Y-41255733D01*
X71884000Y-41548267D02*
X71884000Y-41255733D01*
D13*
%TO.C,D3*%
X39237500Y-46600000D02*
X40437500Y-46600000D01*
X40437500Y-47640000D02*
X39237500Y-47640000D01*
D14*
X41437500Y-47120000D02*
G75*
G02*
X41237500Y-47120000I-100000J0D01*
G01*
X41237500Y-47120000D02*
G75*
G02*
X41437500Y-47120000I100000J0D01*
G01*
D12*
%TO.C,R15*%
X49979500Y-72252224D02*
X49979500Y-71742776D01*
X51024500Y-72252224D02*
X51024500Y-71742776D01*
%TO.C,R13*%
X42758500Y-72237224D02*
X42758500Y-71727776D01*
X43803500Y-72237224D02*
X43803500Y-71727776D01*
%TO.C,C5*%
X24128000Y-57365833D02*
X24128000Y-57658367D01*
X25148000Y-57365833D02*
X25148000Y-57658367D01*
%TO.C,C20*%
X55010267Y-65784000D02*
X54717733Y-65784000D01*
X55010267Y-66804000D02*
X54717733Y-66804000D01*
%TO.C,R9*%
X55295276Y-47737500D02*
X55804724Y-47737500D01*
X55295276Y-48782500D02*
X55804724Y-48782500D01*
%TO.C,R14*%
X44282500Y-72237224D02*
X44282500Y-71727776D01*
X45327500Y-72237224D02*
X45327500Y-71727776D01*
%TO.C,C11*%
X38072000Y-74011733D02*
X38072000Y-74304267D01*
X39092000Y-74011733D02*
X39092000Y-74304267D01*
D13*
%TO.C,SW2*%
X49883000Y-44983000D02*
X49883000Y-40783000D01*
X51003000Y-40783000D02*
X52003000Y-40783000D01*
X51003000Y-44983000D02*
X52003000Y-44983000D01*
X53123000Y-40783000D02*
X53123000Y-44983000D01*
D14*
X52703000Y-39783000D02*
G75*
G02*
X52503000Y-39783000I-100000J0D01*
G01*
X52503000Y-39783000D02*
G75*
G02*
X52703000Y-39783000I100000J0D01*
G01*
D12*
%TO.C,D5*%
X58010000Y-39198000D02*
X63910000Y-39198000D01*
X58010000Y-43098000D02*
X63910000Y-43098000D01*
X63910000Y-43098000D02*
X63910000Y-42023000D01*
%TO.C,C7*%
X24890000Y-53320733D02*
X24890000Y-53613267D01*
X25910000Y-53320733D02*
X25910000Y-53613267D01*
D13*
%TO.C,D4*%
X43860000Y-50010000D02*
X45060000Y-50010000D01*
X45060000Y-51050000D02*
X43860000Y-51050000D01*
D14*
X43060000Y-50530000D02*
G75*
G02*
X42860000Y-50530000I-100000J0D01*
G01*
X42860000Y-50530000D02*
G75*
G02*
X43060000Y-50530000I100000J0D01*
G01*
D12*
%TO.C,R16*%
X58632224Y-77709500D02*
X58122776Y-77709500D01*
X58632224Y-78754500D02*
X58122776Y-78754500D01*
%TO.C,C10*%
X69340000Y-41548267D02*
X69340000Y-41255733D01*
X70360000Y-41548267D02*
X70360000Y-41255733D01*
%TO.C,R10*%
X51816724Y-47483500D02*
X51307276Y-47483500D01*
X51816724Y-48528500D02*
X51307276Y-48528500D01*
%TO.C,C12*%
X71118000Y-60813733D02*
X71118000Y-61106267D01*
X72138000Y-60813733D02*
X72138000Y-61106267D01*
D13*
%TO.C,D1*%
X37000000Y-47994000D02*
X38200000Y-47994000D01*
X38200000Y-49034000D02*
X37000000Y-49034000D01*
D14*
X36200000Y-48514000D02*
G75*
G02*
X36000000Y-48514000I-100000J0D01*
G01*
X36000000Y-48514000D02*
G75*
G02*
X36200000Y-48514000I100000J0D01*
G01*
%TD*%
M02*
