G04 #@! TF.GenerationSoftware,KiCad,Pcbnew,8.0.5*
G04 #@! TF.CreationDate,2024-10-21T14:29:00+02:00*
G04 #@! TF.ProjectId,Slave,536c6176-652e-46b6-9963-61645f706362,rev?*
G04 #@! TF.SameCoordinates,Original*
G04 #@! TF.FileFunction,Legend,Top*
G04 #@! TF.FilePolarity,Positive*
%FSLAX46Y46*%
G04 Gerber Fmt 4.6, Leading zero omitted, Abs format (unit mm)*
G04 Created by KiCad (PCBNEW 8.0.5) date 2024-10-21 14:29:00*
%MOMM*%
%LPD*%
G01*
G04 APERTURE LIST*
G04 Aperture macros list*
%AMRoundRect*
0 Rectangle with rounded corners*
0 $1 Rounding radius*
0 $2 $3 $4 $5 $6 $7 $8 $9 X,Y pos of 4 corners*
0 Add a 4 corners polygon primitive as box body*
4,1,4,$2,$3,$4,$5,$6,$7,$8,$9,$2,$3,0*
0 Add four circle primitives for the rounded corners*
1,1,$1+$1,$2,$3*
1,1,$1+$1,$4,$5*
1,1,$1+$1,$6,$7*
1,1,$1+$1,$8,$9*
0 Add four rect primitives between the rounded corners*
20,1,$1+$1,$2,$3,$4,$5,0*
20,1,$1+$1,$4,$5,$6,$7,0*
20,1,$1+$1,$6,$7,$8,$9,0*
20,1,$1+$1,$8,$9,$2,$3,0*%
%AMOutline5P*
0 Free polygon, 5 corners , with rotation*
0 The origin of the aperture is its center*
0 number of corners: always 5*
0 $1 to $10 corner X, Y*
0 $11 Rotation angle, in degrees counterclockwise*
0 create outline with 5 corners*
4,1,5,$1,$2,$3,$4,$5,$6,$7,$8,$9,$10,$1,$2,$11*%
%AMOutline6P*
0 Free polygon, 6 corners , with rotation*
0 The origin of the aperture is its center*
0 number of corners: always 6*
0 $1 to $12 corner X, Y*
0 $13 Rotation angle, in degrees counterclockwise*
0 create outline with 6 corners*
4,1,6,$1,$2,$3,$4,$5,$6,$7,$8,$9,$10,$11,$12,$1,$2,$13*%
%AMOutline7P*
0 Free polygon, 7 corners , with rotation*
0 The origin of the aperture is its center*
0 number of corners: always 7*
0 $1 to $14 corner X, Y*
0 $15 Rotation angle, in degrees counterclockwise*
0 create outline with 7 corners*
4,1,7,$1,$2,$3,$4,$5,$6,$7,$8,$9,$10,$11,$12,$13,$14,$1,$2,$15*%
%AMOutline8P*
0 Free polygon, 8 corners , with rotation*
0 The origin of the aperture is its center*
0 number of corners: always 8*
0 $1 to $16 corner X, Y*
0 $17 Rotation angle, in degrees counterclockwise*
0 create outline with 8 corners*
4,1,8,$1,$2,$3,$4,$5,$6,$7,$8,$9,$10,$11,$12,$13,$14,$15,$16,$1,$2,$17*%
%AMFreePoly0*
4,1,19,0.550000,-0.750000,0.000000,-0.750000,0.000000,-0.744911,-0.071157,-0.744911,-0.207708,-0.704816,-0.327430,-0.627875,-0.420627,-0.520320,-0.479746,-0.390866,-0.500000,-0.250000,-0.500000,0.250000,-0.479746,0.390866,-0.420627,0.520320,-0.327430,0.627875,-0.207708,0.704816,-0.071157,0.744911,0.000000,0.744911,0.000000,0.750000,0.550000,0.750000,0.550000,-0.750000,0.550000,-0.750000,
$1*%
%AMFreePoly1*
4,1,19,0.000000,0.744911,0.071157,0.744911,0.207708,0.704816,0.327430,0.627875,0.420627,0.520320,0.479746,0.390866,0.500000,0.250000,0.500000,-0.250000,0.479746,-0.390866,0.420627,-0.520320,0.327430,-0.627875,0.207708,-0.704816,0.071157,-0.744911,0.000000,-0.744911,0.000000,-0.750000,-0.550000,-0.750000,-0.550000,0.750000,0.000000,0.750000,0.000000,0.744911,0.000000,0.744911,
$1*%
%AMFreePoly2*
4,1,53,0.180798,1.454629,0.352531,1.394537,0.506585,1.297738,0.635238,1.169085,0.732037,1.015031,0.792129,0.843298,0.812500,0.662500,0.792129,0.481702,0.732037,0.309969,0.635238,0.155915,0.506585,0.027262,0.352531,-0.069537,0.180798,-0.129629,0.000000,-0.150000,-0.180798,-0.129629,-0.352531,-0.069537,-0.506585,0.027262,-0.635238,0.155915,-0.732037,0.309969,-0.792129,0.481702,
-0.812500,0.662500,-0.517770,0.662500,-0.496797,0.516627,-0.435576,0.382572,-0.339067,0.271196,-0.215089,0.191520,-0.073686,0.150000,0.073686,0.150000,0.215089,0.191520,0.339067,0.271196,0.435576,0.382572,0.496797,0.516627,0.517770,0.662500,0.496797,0.808373,0.435576,0.942428,0.339067,1.053804,0.215089,1.133480,0.073686,1.175000,-0.073686,1.175000,-0.215089,1.133480,
-0.339067,1.053804,-0.435576,0.942428,-0.496797,0.808373,-0.517770,0.662500,-0.812500,0.662500,-0.792129,0.843298,-0.732037,1.015031,-0.635238,1.169085,-0.506585,1.297738,-0.352531,1.394537,-0.180798,1.454629,0.000000,1.475000,0.180798,1.454629,0.180798,1.454629,$1*%
G04 Aperture macros list end*
%ADD10C,0.150000*%
%ADD11C,0.125000*%
%ADD12C,0.250000*%
%ADD13C,0.200000*%
%ADD14C,0.120000*%
%ADD15C,0.127000*%
%ADD16C,0.000000*%
%ADD17R,1.700000X1.700000*%
%ADD18O,1.700000X1.700000*%
%ADD19RoundRect,0.237500X0.250000X0.237500X-0.250000X0.237500X-0.250000X-0.237500X0.250000X-0.237500X0*%
%ADD20C,0.500000*%
%ADD21RoundRect,0.237500X-0.300000X-0.237500X0.300000X-0.237500X0.300000X0.237500X-0.300000X0.237500X0*%
%ADD22RoundRect,0.237500X-0.237500X0.300000X-0.237500X-0.300000X0.237500X-0.300000X0.237500X0.300000X0*%
%ADD23RoundRect,0.237500X0.300000X0.237500X-0.300000X0.237500X-0.300000X-0.237500X0.300000X-0.237500X0*%
%ADD24RoundRect,0.237500X0.237500X-0.250000X0.237500X0.250000X-0.237500X0.250000X-0.237500X-0.250000X0*%
%ADD25C,0.650000*%
%ADD26RoundRect,0.150000X0.150000X0.425000X-0.150000X0.425000X-0.150000X-0.425000X0.150000X-0.425000X0*%
%ADD27RoundRect,0.075000X0.075000X0.500000X-0.075000X0.500000X-0.075000X-0.500000X0.075000X-0.500000X0*%
%ADD28O,1.000000X2.100000*%
%ADD29O,1.000000X1.800000*%
%ADD30RoundRect,0.237500X0.237500X-0.300000X0.237500X0.300000X-0.237500X0.300000X-0.237500X-0.300000X0*%
%ADD31RoundRect,0.150000X0.587500X0.150000X-0.587500X0.150000X-0.587500X-0.150000X0.587500X-0.150000X0*%
%ADD32RoundRect,0.059250X0.602750X0.177750X-0.602750X0.177750X-0.602750X-0.177750X0.602750X-0.177750X0*%
%ADD33R,2.200000X2.200000*%
%ADD34C,2.200000*%
%ADD35FreePoly0,0.000000*%
%ADD36R,1.000000X1.500000*%
%ADD37FreePoly1,0.000000*%
%ADD38R,0.600000X0.522000*%
%ADD39FreePoly2,270.000000*%
%ADD40RoundRect,0.237500X-0.250000X-0.237500X0.250000X-0.237500X0.250000X0.237500X-0.250000X0.237500X0*%
%ADD41R,0.600000X1.750000*%
%ADD42RoundRect,0.100500X0.986500X0.301500X-0.986500X0.301500X-0.986500X-0.301500X0.986500X-0.301500X0*%
%ADD43RoundRect,0.102000X0.325000X-0.525000X0.325000X0.525000X-0.325000X0.525000X-0.325000X-0.525000X0*%
%ADD44RoundRect,0.150000X0.150000X-0.850000X0.150000X0.850000X-0.150000X0.850000X-0.150000X-0.850000X0*%
%ADD45R,0.400000X0.800000*%
%ADD46R,0.800000X0.400000*%
%ADD47Outline5P,-0.600000X0.204000X-0.204000X0.600000X0.600000X0.600000X0.600000X-0.600000X-0.600000X-0.600000X270.000000*%
%ADD48R,1.200000X1.200000*%
%ADD49R,0.800000X0.800000*%
%ADD50C,0.700000*%
%ADD51C,4.400000*%
%ADD52RoundRect,0.100500X-0.301500X0.986500X-0.301500X-0.986500X0.301500X-0.986500X0.301500X0.986500X0*%
%ADD53RoundRect,0.102000X0.240000X0.200000X-0.240000X0.200000X-0.240000X-0.200000X0.240000X-0.200000X0*%
%ADD54RoundRect,0.102000X-0.325000X0.525000X-0.325000X-0.525000X0.325000X-0.525000X0.325000X0.525000X0*%
%ADD55R,1.600000X0.850000*%
%ADD56RoundRect,0.102000X-0.240000X-0.200000X0.240000X-0.200000X0.240000X0.200000X-0.240000X0.200000X0*%
%ADD57RoundRect,0.081750X-0.265250X-0.245250X0.265250X-0.245250X0.265250X0.245250X-0.265250X0.245250X0*%
G04 APERTURE END LIST*
D10*
X74446009Y-65979887D02*
X74446009Y-66313220D01*
X74969819Y-66313220D02*
X73969819Y-66313220D01*
X73969819Y-66313220D02*
X73969819Y-65837030D01*
X74446009Y-65456077D02*
X74446009Y-65122744D01*
X74969819Y-64979887D02*
X74969819Y-65456077D01*
X74969819Y-65456077D02*
X73969819Y-65456077D01*
X73969819Y-65456077D02*
X73969819Y-64979887D01*
X74969819Y-64551315D02*
X73969819Y-64551315D01*
X74969819Y-64075125D02*
X73969819Y-64075125D01*
X73969819Y-64075125D02*
X74969819Y-63503697D01*
X74969819Y-63503697D02*
X73969819Y-63503697D01*
X74588866Y-63027506D02*
X74588866Y-62265602D01*
X74969819Y-61265602D02*
X74969819Y-61837030D01*
X74969819Y-61551316D02*
X73969819Y-61551316D01*
X73969819Y-61551316D02*
X74112676Y-61646554D01*
X74112676Y-61646554D02*
X74207914Y-61741792D01*
X74207914Y-61741792D02*
X74255533Y-61837030D01*
X74874580Y-60837030D02*
X74922200Y-60789411D01*
X74922200Y-60789411D02*
X74969819Y-60837030D01*
X74969819Y-60837030D02*
X74922200Y-60884649D01*
X74922200Y-60884649D02*
X74874580Y-60837030D01*
X74874580Y-60837030D02*
X74969819Y-60837030D01*
X73969819Y-60170364D02*
X73969819Y-60075126D01*
X73969819Y-60075126D02*
X74017438Y-59979888D01*
X74017438Y-59979888D02*
X74065057Y-59932269D01*
X74065057Y-59932269D02*
X74160295Y-59884650D01*
X74160295Y-59884650D02*
X74350771Y-59837031D01*
X74350771Y-59837031D02*
X74588866Y-59837031D01*
X74588866Y-59837031D02*
X74779342Y-59884650D01*
X74779342Y-59884650D02*
X74874580Y-59932269D01*
X74874580Y-59932269D02*
X74922200Y-59979888D01*
X74922200Y-59979888D02*
X74969819Y-60075126D01*
X74969819Y-60075126D02*
X74969819Y-60170364D01*
X74969819Y-60170364D02*
X74922200Y-60265602D01*
X74922200Y-60265602D02*
X74874580Y-60313221D01*
X74874580Y-60313221D02*
X74779342Y-60360840D01*
X74779342Y-60360840D02*
X74588866Y-60408459D01*
X74588866Y-60408459D02*
X74350771Y-60408459D01*
X74350771Y-60408459D02*
X74160295Y-60360840D01*
X74160295Y-60360840D02*
X74065057Y-60313221D01*
X74065057Y-60313221D02*
X74017438Y-60265602D01*
X74017438Y-60265602D02*
X73969819Y-60170364D01*
D11*
X65591759Y-75275880D02*
X65544140Y-75323500D01*
X65544140Y-75323500D02*
X65401283Y-75371119D01*
X65401283Y-75371119D02*
X65306045Y-75371119D01*
X65306045Y-75371119D02*
X65163188Y-75323500D01*
X65163188Y-75323500D02*
X65067950Y-75228261D01*
X65067950Y-75228261D02*
X65020331Y-75133023D01*
X65020331Y-75133023D02*
X64972712Y-74942547D01*
X64972712Y-74942547D02*
X64972712Y-74799690D01*
X64972712Y-74799690D02*
X65020331Y-74609214D01*
X65020331Y-74609214D02*
X65067950Y-74513976D01*
X65067950Y-74513976D02*
X65163188Y-74418738D01*
X65163188Y-74418738D02*
X65306045Y-74371119D01*
X65306045Y-74371119D02*
X65401283Y-74371119D01*
X65401283Y-74371119D02*
X65544140Y-74418738D01*
X65544140Y-74418738D02*
X65591759Y-74466357D01*
X65972712Y-75085404D02*
X66448902Y-75085404D01*
X65877474Y-75371119D02*
X66210807Y-74371119D01*
X66210807Y-74371119D02*
X66544140Y-75371119D01*
X66877474Y-75371119D02*
X66877474Y-74371119D01*
X66877474Y-74371119D02*
X67448902Y-75371119D01*
X67448902Y-75371119D02*
X67448902Y-74371119D01*
X67925093Y-74990166D02*
X68686998Y-74990166D01*
X68306045Y-75371119D02*
X68306045Y-74609214D01*
D10*
X72829819Y-75018458D02*
X72829819Y-74399411D01*
X72829819Y-74399411D02*
X73210771Y-74732744D01*
X73210771Y-74732744D02*
X73210771Y-74589887D01*
X73210771Y-74589887D02*
X73258390Y-74494649D01*
X73258390Y-74494649D02*
X73306009Y-74447030D01*
X73306009Y-74447030D02*
X73401247Y-74399411D01*
X73401247Y-74399411D02*
X73639342Y-74399411D01*
X73639342Y-74399411D02*
X73734580Y-74447030D01*
X73734580Y-74447030D02*
X73782200Y-74494649D01*
X73782200Y-74494649D02*
X73829819Y-74589887D01*
X73829819Y-74589887D02*
X73829819Y-74875601D01*
X73829819Y-74875601D02*
X73782200Y-74970839D01*
X73782200Y-74970839D02*
X73734580Y-75018458D01*
X72829819Y-74113696D02*
X73829819Y-73780363D01*
X73829819Y-73780363D02*
X72829819Y-73447030D01*
X72829819Y-73208934D02*
X72829819Y-72589887D01*
X72829819Y-72589887D02*
X73210771Y-72923220D01*
X73210771Y-72923220D02*
X73210771Y-72780363D01*
X73210771Y-72780363D02*
X73258390Y-72685125D01*
X73258390Y-72685125D02*
X73306009Y-72637506D01*
X73306009Y-72637506D02*
X73401247Y-72589887D01*
X73401247Y-72589887D02*
X73639342Y-72589887D01*
X73639342Y-72589887D02*
X73734580Y-72637506D01*
X73734580Y-72637506D02*
X73782200Y-72685125D01*
X73782200Y-72685125D02*
X73829819Y-72780363D01*
X73829819Y-72780363D02*
X73829819Y-73066077D01*
X73829819Y-73066077D02*
X73782200Y-73161315D01*
X73782200Y-73161315D02*
X73734580Y-73208934D01*
D12*
X54329901Y-38710809D02*
X54472758Y-38758428D01*
X54472758Y-38758428D02*
X54520377Y-38806047D01*
X54520377Y-38806047D02*
X54567996Y-38901285D01*
X54567996Y-38901285D02*
X54567996Y-39044142D01*
X54567996Y-39044142D02*
X54520377Y-39139380D01*
X54520377Y-39139380D02*
X54472758Y-39187000D01*
X54472758Y-39187000D02*
X54377520Y-39234619D01*
X54377520Y-39234619D02*
X53996568Y-39234619D01*
X53996568Y-39234619D02*
X53996568Y-38234619D01*
X53996568Y-38234619D02*
X54329901Y-38234619D01*
X54329901Y-38234619D02*
X54425139Y-38282238D01*
X54425139Y-38282238D02*
X54472758Y-38329857D01*
X54472758Y-38329857D02*
X54520377Y-38425095D01*
X54520377Y-38425095D02*
X54520377Y-38520333D01*
X54520377Y-38520333D02*
X54472758Y-38615571D01*
X54472758Y-38615571D02*
X54425139Y-38663190D01*
X54425139Y-38663190D02*
X54329901Y-38710809D01*
X54329901Y-38710809D02*
X53996568Y-38710809D01*
X55187044Y-38234619D02*
X55377520Y-38234619D01*
X55377520Y-38234619D02*
X55472758Y-38282238D01*
X55472758Y-38282238D02*
X55567996Y-38377476D01*
X55567996Y-38377476D02*
X55615615Y-38567952D01*
X55615615Y-38567952D02*
X55615615Y-38901285D01*
X55615615Y-38901285D02*
X55567996Y-39091761D01*
X55567996Y-39091761D02*
X55472758Y-39187000D01*
X55472758Y-39187000D02*
X55377520Y-39234619D01*
X55377520Y-39234619D02*
X55187044Y-39234619D01*
X55187044Y-39234619D02*
X55091806Y-39187000D01*
X55091806Y-39187000D02*
X54996568Y-39091761D01*
X54996568Y-39091761D02*
X54948949Y-38901285D01*
X54948949Y-38901285D02*
X54948949Y-38567952D01*
X54948949Y-38567952D02*
X54996568Y-38377476D01*
X54996568Y-38377476D02*
X55091806Y-38282238D01*
X55091806Y-38282238D02*
X55187044Y-38234619D01*
X56234663Y-38234619D02*
X56425139Y-38234619D01*
X56425139Y-38234619D02*
X56520377Y-38282238D01*
X56520377Y-38282238D02*
X56615615Y-38377476D01*
X56615615Y-38377476D02*
X56663234Y-38567952D01*
X56663234Y-38567952D02*
X56663234Y-38901285D01*
X56663234Y-38901285D02*
X56615615Y-39091761D01*
X56615615Y-39091761D02*
X56520377Y-39187000D01*
X56520377Y-39187000D02*
X56425139Y-39234619D01*
X56425139Y-39234619D02*
X56234663Y-39234619D01*
X56234663Y-39234619D02*
X56139425Y-39187000D01*
X56139425Y-39187000D02*
X56044187Y-39091761D01*
X56044187Y-39091761D02*
X55996568Y-38901285D01*
X55996568Y-38901285D02*
X55996568Y-38567952D01*
X55996568Y-38567952D02*
X56044187Y-38377476D01*
X56044187Y-38377476D02*
X56139425Y-38282238D01*
X56139425Y-38282238D02*
X56234663Y-38234619D01*
X56948949Y-38234619D02*
X57520377Y-38234619D01*
X57234663Y-39234619D02*
X57234663Y-38234619D01*
D10*
X45489160Y-81884104D02*
X45965350Y-81884104D01*
X45393922Y-82169819D02*
X45727255Y-81169819D01*
X45727255Y-81169819D02*
X46060588Y-82169819D01*
X46393922Y-81788866D02*
X47155827Y-81788866D01*
X47989160Y-81884104D02*
X48465350Y-81884104D01*
X47893922Y-82169819D02*
X48227255Y-81169819D01*
X48227255Y-81169819D02*
X48560588Y-82169819D01*
X48893922Y-81788866D02*
X49655827Y-81788866D01*
X49274874Y-82169819D02*
X49274874Y-81407914D01*
X69460588Y-74407438D02*
X69365350Y-74359819D01*
X69365350Y-74359819D02*
X69222493Y-74359819D01*
X69222493Y-74359819D02*
X69079636Y-74407438D01*
X69079636Y-74407438D02*
X68984398Y-74502676D01*
X68984398Y-74502676D02*
X68936779Y-74597914D01*
X68936779Y-74597914D02*
X68889160Y-74788390D01*
X68889160Y-74788390D02*
X68889160Y-74931247D01*
X68889160Y-74931247D02*
X68936779Y-75121723D01*
X68936779Y-75121723D02*
X68984398Y-75216961D01*
X68984398Y-75216961D02*
X69079636Y-75312200D01*
X69079636Y-75312200D02*
X69222493Y-75359819D01*
X69222493Y-75359819D02*
X69317731Y-75359819D01*
X69317731Y-75359819D02*
X69460588Y-75312200D01*
X69460588Y-75312200D02*
X69508207Y-75264580D01*
X69508207Y-75264580D02*
X69508207Y-74931247D01*
X69508207Y-74931247D02*
X69317731Y-74931247D01*
X69936779Y-75359819D02*
X69936779Y-74359819D01*
X69936779Y-74359819D02*
X70508207Y-75359819D01*
X70508207Y-75359819D02*
X70508207Y-74359819D01*
X70984398Y-75359819D02*
X70984398Y-74359819D01*
X70984398Y-74359819D02*
X71222493Y-74359819D01*
X71222493Y-74359819D02*
X71365350Y-74407438D01*
X71365350Y-74407438D02*
X71460588Y-74502676D01*
X71460588Y-74502676D02*
X71508207Y-74597914D01*
X71508207Y-74597914D02*
X71555826Y-74788390D01*
X71555826Y-74788390D02*
X71555826Y-74931247D01*
X71555826Y-74931247D02*
X71508207Y-75121723D01*
X71508207Y-75121723D02*
X71460588Y-75216961D01*
X71460588Y-75216961D02*
X71365350Y-75312200D01*
X71365350Y-75312200D02*
X71222493Y-75359819D01*
X71222493Y-75359819D02*
X70984398Y-75359819D01*
D11*
X61691759Y-75275880D02*
X61644140Y-75323500D01*
X61644140Y-75323500D02*
X61501283Y-75371119D01*
X61501283Y-75371119D02*
X61406045Y-75371119D01*
X61406045Y-75371119D02*
X61263188Y-75323500D01*
X61263188Y-75323500D02*
X61167950Y-75228261D01*
X61167950Y-75228261D02*
X61120331Y-75133023D01*
X61120331Y-75133023D02*
X61072712Y-74942547D01*
X61072712Y-74942547D02*
X61072712Y-74799690D01*
X61072712Y-74799690D02*
X61120331Y-74609214D01*
X61120331Y-74609214D02*
X61167950Y-74513976D01*
X61167950Y-74513976D02*
X61263188Y-74418738D01*
X61263188Y-74418738D02*
X61406045Y-74371119D01*
X61406045Y-74371119D02*
X61501283Y-74371119D01*
X61501283Y-74371119D02*
X61644140Y-74418738D01*
X61644140Y-74418738D02*
X61691759Y-74466357D01*
X62072712Y-75085404D02*
X62548902Y-75085404D01*
X61977474Y-75371119D02*
X62310807Y-74371119D01*
X62310807Y-74371119D02*
X62644140Y-75371119D01*
X62977474Y-75371119D02*
X62977474Y-74371119D01*
X62977474Y-74371119D02*
X63548902Y-75371119D01*
X63548902Y-75371119D02*
X63548902Y-74371119D01*
X64025093Y-74990166D02*
X64786998Y-74990166D01*
D13*
X73817219Y-70473183D02*
X74817219Y-70139850D01*
X74817219Y-70139850D02*
X73817219Y-69806517D01*
X74721980Y-68901755D02*
X74769600Y-68949374D01*
X74769600Y-68949374D02*
X74817219Y-69092231D01*
X74817219Y-69092231D02*
X74817219Y-69187469D01*
X74817219Y-69187469D02*
X74769600Y-69330326D01*
X74769600Y-69330326D02*
X74674361Y-69425564D01*
X74674361Y-69425564D02*
X74579123Y-69473183D01*
X74579123Y-69473183D02*
X74388647Y-69520802D01*
X74388647Y-69520802D02*
X74245790Y-69520802D01*
X74245790Y-69520802D02*
X74055314Y-69473183D01*
X74055314Y-69473183D02*
X73960076Y-69425564D01*
X73960076Y-69425564D02*
X73864838Y-69330326D01*
X73864838Y-69330326D02*
X73817219Y-69187469D01*
X73817219Y-69187469D02*
X73817219Y-69092231D01*
X73817219Y-69092231D02*
X73864838Y-68949374D01*
X73864838Y-68949374D02*
X73912457Y-68901755D01*
X74721980Y-67901755D02*
X74769600Y-67949374D01*
X74769600Y-67949374D02*
X74817219Y-68092231D01*
X74817219Y-68092231D02*
X74817219Y-68187469D01*
X74817219Y-68187469D02*
X74769600Y-68330326D01*
X74769600Y-68330326D02*
X74674361Y-68425564D01*
X74674361Y-68425564D02*
X74579123Y-68473183D01*
X74579123Y-68473183D02*
X74388647Y-68520802D01*
X74388647Y-68520802D02*
X74245790Y-68520802D01*
X74245790Y-68520802D02*
X74055314Y-68473183D01*
X74055314Y-68473183D02*
X73960076Y-68425564D01*
X73960076Y-68425564D02*
X73864838Y-68330326D01*
X73864838Y-68330326D02*
X73817219Y-68187469D01*
X73817219Y-68187469D02*
X73817219Y-68092231D01*
X73817219Y-68092231D02*
X73864838Y-67949374D01*
X73864838Y-67949374D02*
X73912457Y-67901755D01*
D10*
X40438728Y-81646009D02*
X40772061Y-81646009D01*
X40914918Y-82169819D02*
X40438728Y-82169819D01*
X40438728Y-82169819D02*
X40438728Y-81169819D01*
X40438728Y-81169819D02*
X40914918Y-81169819D01*
X41343490Y-81788866D02*
X42105395Y-81788866D01*
X41724442Y-82169819D02*
X41724442Y-81407914D01*
D12*
X49741996Y-39234619D02*
X49408663Y-38758428D01*
X49170568Y-39234619D02*
X49170568Y-38234619D01*
X49170568Y-38234619D02*
X49551520Y-38234619D01*
X49551520Y-38234619D02*
X49646758Y-38282238D01*
X49646758Y-38282238D02*
X49694377Y-38329857D01*
X49694377Y-38329857D02*
X49741996Y-38425095D01*
X49741996Y-38425095D02*
X49741996Y-38567952D01*
X49741996Y-38567952D02*
X49694377Y-38663190D01*
X49694377Y-38663190D02*
X49646758Y-38710809D01*
X49646758Y-38710809D02*
X49551520Y-38758428D01*
X49551520Y-38758428D02*
X49170568Y-38758428D01*
X50170568Y-38710809D02*
X50503901Y-38710809D01*
X50646758Y-39234619D02*
X50170568Y-39234619D01*
X50170568Y-39234619D02*
X50170568Y-38234619D01*
X50170568Y-38234619D02*
X50646758Y-38234619D01*
X51027711Y-39187000D02*
X51170568Y-39234619D01*
X51170568Y-39234619D02*
X51408663Y-39234619D01*
X51408663Y-39234619D02*
X51503901Y-39187000D01*
X51503901Y-39187000D02*
X51551520Y-39139380D01*
X51551520Y-39139380D02*
X51599139Y-39044142D01*
X51599139Y-39044142D02*
X51599139Y-38948904D01*
X51599139Y-38948904D02*
X51551520Y-38853666D01*
X51551520Y-38853666D02*
X51503901Y-38806047D01*
X51503901Y-38806047D02*
X51408663Y-38758428D01*
X51408663Y-38758428D02*
X51218187Y-38710809D01*
X51218187Y-38710809D02*
X51122949Y-38663190D01*
X51122949Y-38663190D02*
X51075330Y-38615571D01*
X51075330Y-38615571D02*
X51027711Y-38520333D01*
X51027711Y-38520333D02*
X51027711Y-38425095D01*
X51027711Y-38425095D02*
X51075330Y-38329857D01*
X51075330Y-38329857D02*
X51122949Y-38282238D01*
X51122949Y-38282238D02*
X51218187Y-38234619D01*
X51218187Y-38234619D02*
X51456282Y-38234619D01*
X51456282Y-38234619D02*
X51599139Y-38282238D01*
X52027711Y-38710809D02*
X52361044Y-38710809D01*
X52503901Y-39234619D02*
X52027711Y-39234619D01*
X52027711Y-39234619D02*
X52027711Y-38234619D01*
X52027711Y-38234619D02*
X52503901Y-38234619D01*
X52789616Y-38234619D02*
X53361044Y-38234619D01*
X53075330Y-39234619D02*
X53075330Y-38234619D01*
D10*
X43008779Y-81646009D02*
X43342112Y-81646009D01*
X43484969Y-82169819D02*
X43008779Y-82169819D01*
X43008779Y-82169819D02*
X43008779Y-81169819D01*
X43008779Y-81169819D02*
X43484969Y-81169819D01*
X43913541Y-81788866D02*
X44675446Y-81788866D01*
X74549819Y-74547030D02*
X74549819Y-75023220D01*
X74549819Y-75023220D02*
X75026009Y-75070839D01*
X75026009Y-75070839D02*
X74978390Y-75023220D01*
X74978390Y-75023220D02*
X74930771Y-74927982D01*
X74930771Y-74927982D02*
X74930771Y-74689887D01*
X74930771Y-74689887D02*
X74978390Y-74594649D01*
X74978390Y-74594649D02*
X75026009Y-74547030D01*
X75026009Y-74547030D02*
X75121247Y-74499411D01*
X75121247Y-74499411D02*
X75359342Y-74499411D01*
X75359342Y-74499411D02*
X75454580Y-74547030D01*
X75454580Y-74547030D02*
X75502200Y-74594649D01*
X75502200Y-74594649D02*
X75549819Y-74689887D01*
X75549819Y-74689887D02*
X75549819Y-74927982D01*
X75549819Y-74927982D02*
X75502200Y-75023220D01*
X75502200Y-75023220D02*
X75454580Y-75070839D01*
X74549819Y-74213696D02*
X75549819Y-73880363D01*
X75549819Y-73880363D02*
X74549819Y-73547030D01*
X57373333Y-63364819D02*
X57040000Y-62888628D01*
X56801905Y-63364819D02*
X56801905Y-62364819D01*
X56801905Y-62364819D02*
X57182857Y-62364819D01*
X57182857Y-62364819D02*
X57278095Y-62412438D01*
X57278095Y-62412438D02*
X57325714Y-62460057D01*
X57325714Y-62460057D02*
X57373333Y-62555295D01*
X57373333Y-62555295D02*
X57373333Y-62698152D01*
X57373333Y-62698152D02*
X57325714Y-62793390D01*
X57325714Y-62793390D02*
X57278095Y-62841009D01*
X57278095Y-62841009D02*
X57182857Y-62888628D01*
X57182857Y-62888628D02*
X56801905Y-62888628D01*
X57706667Y-62364819D02*
X58325714Y-62364819D01*
X58325714Y-62364819D02*
X57992381Y-62745771D01*
X57992381Y-62745771D02*
X58135238Y-62745771D01*
X58135238Y-62745771D02*
X58230476Y-62793390D01*
X58230476Y-62793390D02*
X58278095Y-62841009D01*
X58278095Y-62841009D02*
X58325714Y-62936247D01*
X58325714Y-62936247D02*
X58325714Y-63174342D01*
X58325714Y-63174342D02*
X58278095Y-63269580D01*
X58278095Y-63269580D02*
X58230476Y-63317200D01*
X58230476Y-63317200D02*
X58135238Y-63364819D01*
X58135238Y-63364819D02*
X57849524Y-63364819D01*
X57849524Y-63364819D02*
X57754286Y-63317200D01*
X57754286Y-63317200D02*
X57706667Y-63269580D01*
X70477142Y-73765580D02*
X70429523Y-73813200D01*
X70429523Y-73813200D02*
X70286666Y-73860819D01*
X70286666Y-73860819D02*
X70191428Y-73860819D01*
X70191428Y-73860819D02*
X70048571Y-73813200D01*
X70048571Y-73813200D02*
X69953333Y-73717961D01*
X69953333Y-73717961D02*
X69905714Y-73622723D01*
X69905714Y-73622723D02*
X69858095Y-73432247D01*
X69858095Y-73432247D02*
X69858095Y-73289390D01*
X69858095Y-73289390D02*
X69905714Y-73098914D01*
X69905714Y-73098914D02*
X69953333Y-73003676D01*
X69953333Y-73003676D02*
X70048571Y-72908438D01*
X70048571Y-72908438D02*
X70191428Y-72860819D01*
X70191428Y-72860819D02*
X70286666Y-72860819D01*
X70286666Y-72860819D02*
X70429523Y-72908438D01*
X70429523Y-72908438D02*
X70477142Y-72956057D01*
X71429523Y-73860819D02*
X70858095Y-73860819D01*
X71143809Y-73860819D02*
X71143809Y-72860819D01*
X71143809Y-72860819D02*
X71048571Y-73003676D01*
X71048571Y-73003676D02*
X70953333Y-73098914D01*
X70953333Y-73098914D02*
X70858095Y-73146533D01*
X71762857Y-72860819D02*
X72429523Y-72860819D01*
X72429523Y-72860819D02*
X72000952Y-73860819D01*
X64520580Y-62286666D02*
X64568200Y-62334285D01*
X64568200Y-62334285D02*
X64615819Y-62477142D01*
X64615819Y-62477142D02*
X64615819Y-62572380D01*
X64615819Y-62572380D02*
X64568200Y-62715237D01*
X64568200Y-62715237D02*
X64472961Y-62810475D01*
X64472961Y-62810475D02*
X64377723Y-62858094D01*
X64377723Y-62858094D02*
X64187247Y-62905713D01*
X64187247Y-62905713D02*
X64044390Y-62905713D01*
X64044390Y-62905713D02*
X63853914Y-62858094D01*
X63853914Y-62858094D02*
X63758676Y-62810475D01*
X63758676Y-62810475D02*
X63663438Y-62715237D01*
X63663438Y-62715237D02*
X63615819Y-62572380D01*
X63615819Y-62572380D02*
X63615819Y-62477142D01*
X63615819Y-62477142D02*
X63663438Y-62334285D01*
X63663438Y-62334285D02*
X63711057Y-62286666D01*
X64615819Y-61334285D02*
X64615819Y-61905713D01*
X64615819Y-61619999D02*
X63615819Y-61619999D01*
X63615819Y-61619999D02*
X63758676Y-61715237D01*
X63758676Y-61715237D02*
X63853914Y-61810475D01*
X63853914Y-61810475D02*
X63901533Y-61905713D01*
X51579580Y-69412857D02*
X51627200Y-69460476D01*
X51627200Y-69460476D02*
X51674819Y-69603333D01*
X51674819Y-69603333D02*
X51674819Y-69698571D01*
X51674819Y-69698571D02*
X51627200Y-69841428D01*
X51627200Y-69841428D02*
X51531961Y-69936666D01*
X51531961Y-69936666D02*
X51436723Y-69984285D01*
X51436723Y-69984285D02*
X51246247Y-70031904D01*
X51246247Y-70031904D02*
X51103390Y-70031904D01*
X51103390Y-70031904D02*
X50912914Y-69984285D01*
X50912914Y-69984285D02*
X50817676Y-69936666D01*
X50817676Y-69936666D02*
X50722438Y-69841428D01*
X50722438Y-69841428D02*
X50674819Y-69698571D01*
X50674819Y-69698571D02*
X50674819Y-69603333D01*
X50674819Y-69603333D02*
X50722438Y-69460476D01*
X50722438Y-69460476D02*
X50770057Y-69412857D01*
X51674819Y-68460476D02*
X51674819Y-69031904D01*
X51674819Y-68746190D02*
X50674819Y-68746190D01*
X50674819Y-68746190D02*
X50817676Y-68841428D01*
X50817676Y-68841428D02*
X50912914Y-68936666D01*
X50912914Y-68936666D02*
X50960533Y-69031904D01*
X50674819Y-67555714D02*
X50674819Y-68031904D01*
X50674819Y-68031904D02*
X51151009Y-68079523D01*
X51151009Y-68079523D02*
X51103390Y-68031904D01*
X51103390Y-68031904D02*
X51055771Y-67936666D01*
X51055771Y-67936666D02*
X51055771Y-67698571D01*
X51055771Y-67698571D02*
X51103390Y-67603333D01*
X51103390Y-67603333D02*
X51151009Y-67555714D01*
X51151009Y-67555714D02*
X51246247Y-67508095D01*
X51246247Y-67508095D02*
X51484342Y-67508095D01*
X51484342Y-67508095D02*
X51579580Y-67555714D01*
X51579580Y-67555714D02*
X51627200Y-67603333D01*
X51627200Y-67603333D02*
X51674819Y-67698571D01*
X51674819Y-67698571D02*
X51674819Y-67936666D01*
X51674819Y-67936666D02*
X51627200Y-68031904D01*
X51627200Y-68031904D02*
X51579580Y-68079523D01*
X55459333Y-50143580D02*
X55411714Y-50191200D01*
X55411714Y-50191200D02*
X55268857Y-50238819D01*
X55268857Y-50238819D02*
X55173619Y-50238819D01*
X55173619Y-50238819D02*
X55030762Y-50191200D01*
X55030762Y-50191200D02*
X54935524Y-50095961D01*
X54935524Y-50095961D02*
X54887905Y-50000723D01*
X54887905Y-50000723D02*
X54840286Y-49810247D01*
X54840286Y-49810247D02*
X54840286Y-49667390D01*
X54840286Y-49667390D02*
X54887905Y-49476914D01*
X54887905Y-49476914D02*
X54935524Y-49381676D01*
X54935524Y-49381676D02*
X55030762Y-49286438D01*
X55030762Y-49286438D02*
X55173619Y-49238819D01*
X55173619Y-49238819D02*
X55268857Y-49238819D01*
X55268857Y-49238819D02*
X55411714Y-49286438D01*
X55411714Y-49286438D02*
X55459333Y-49334057D01*
X55792667Y-49238819D02*
X56411714Y-49238819D01*
X56411714Y-49238819D02*
X56078381Y-49619771D01*
X56078381Y-49619771D02*
X56221238Y-49619771D01*
X56221238Y-49619771D02*
X56316476Y-49667390D01*
X56316476Y-49667390D02*
X56364095Y-49715009D01*
X56364095Y-49715009D02*
X56411714Y-49810247D01*
X56411714Y-49810247D02*
X56411714Y-50048342D01*
X56411714Y-50048342D02*
X56364095Y-50143580D01*
X56364095Y-50143580D02*
X56316476Y-50191200D01*
X56316476Y-50191200D02*
X56221238Y-50238819D01*
X56221238Y-50238819D02*
X55935524Y-50238819D01*
X55935524Y-50238819D02*
X55840286Y-50191200D01*
X55840286Y-50191200D02*
X55792667Y-50143580D01*
X51667580Y-79890857D02*
X51715200Y-79938476D01*
X51715200Y-79938476D02*
X51762819Y-80081333D01*
X51762819Y-80081333D02*
X51762819Y-80176571D01*
X51762819Y-80176571D02*
X51715200Y-80319428D01*
X51715200Y-80319428D02*
X51619961Y-80414666D01*
X51619961Y-80414666D02*
X51524723Y-80462285D01*
X51524723Y-80462285D02*
X51334247Y-80509904D01*
X51334247Y-80509904D02*
X51191390Y-80509904D01*
X51191390Y-80509904D02*
X51000914Y-80462285D01*
X51000914Y-80462285D02*
X50905676Y-80414666D01*
X50905676Y-80414666D02*
X50810438Y-80319428D01*
X50810438Y-80319428D02*
X50762819Y-80176571D01*
X50762819Y-80176571D02*
X50762819Y-80081333D01*
X50762819Y-80081333D02*
X50810438Y-79938476D01*
X50810438Y-79938476D02*
X50858057Y-79890857D01*
X51762819Y-78938476D02*
X51762819Y-79509904D01*
X51762819Y-79224190D02*
X50762819Y-79224190D01*
X50762819Y-79224190D02*
X50905676Y-79319428D01*
X50905676Y-79319428D02*
X51000914Y-79414666D01*
X51000914Y-79414666D02*
X51048533Y-79509904D01*
X51762819Y-78462285D02*
X51762819Y-78271809D01*
X51762819Y-78271809D02*
X51715200Y-78176571D01*
X51715200Y-78176571D02*
X51667580Y-78128952D01*
X51667580Y-78128952D02*
X51524723Y-78033714D01*
X51524723Y-78033714D02*
X51334247Y-77986095D01*
X51334247Y-77986095D02*
X50953295Y-77986095D01*
X50953295Y-77986095D02*
X50858057Y-78033714D01*
X50858057Y-78033714D02*
X50810438Y-78081333D01*
X50810438Y-78081333D02*
X50762819Y-78176571D01*
X50762819Y-78176571D02*
X50762819Y-78367047D01*
X50762819Y-78367047D02*
X50810438Y-78462285D01*
X50810438Y-78462285D02*
X50858057Y-78509904D01*
X50858057Y-78509904D02*
X50953295Y-78557523D01*
X50953295Y-78557523D02*
X51191390Y-78557523D01*
X51191390Y-78557523D02*
X51286628Y-78509904D01*
X51286628Y-78509904D02*
X51334247Y-78462285D01*
X51334247Y-78462285D02*
X51381866Y-78367047D01*
X51381866Y-78367047D02*
X51381866Y-78176571D01*
X51381866Y-78176571D02*
X51334247Y-78081333D01*
X51334247Y-78081333D02*
X51286628Y-78033714D01*
X51286628Y-78033714D02*
X51191390Y-77986095D01*
X46301819Y-41568666D02*
X45825628Y-41901999D01*
X46301819Y-42140094D02*
X45301819Y-42140094D01*
X45301819Y-42140094D02*
X45301819Y-41759142D01*
X45301819Y-41759142D02*
X45349438Y-41663904D01*
X45349438Y-41663904D02*
X45397057Y-41616285D01*
X45397057Y-41616285D02*
X45492295Y-41568666D01*
X45492295Y-41568666D02*
X45635152Y-41568666D01*
X45635152Y-41568666D02*
X45730390Y-41616285D01*
X45730390Y-41616285D02*
X45778009Y-41663904D01*
X45778009Y-41663904D02*
X45825628Y-41759142D01*
X45825628Y-41759142D02*
X45825628Y-42140094D01*
X45301819Y-40711523D02*
X45301819Y-40901999D01*
X45301819Y-40901999D02*
X45349438Y-40997237D01*
X45349438Y-40997237D02*
X45397057Y-41044856D01*
X45397057Y-41044856D02*
X45539914Y-41140094D01*
X45539914Y-41140094D02*
X45730390Y-41187713D01*
X45730390Y-41187713D02*
X46111342Y-41187713D01*
X46111342Y-41187713D02*
X46206580Y-41140094D01*
X46206580Y-41140094D02*
X46254200Y-41092475D01*
X46254200Y-41092475D02*
X46301819Y-40997237D01*
X46301819Y-40997237D02*
X46301819Y-40806761D01*
X46301819Y-40806761D02*
X46254200Y-40711523D01*
X46254200Y-40711523D02*
X46206580Y-40663904D01*
X46206580Y-40663904D02*
X46111342Y-40616285D01*
X46111342Y-40616285D02*
X45873247Y-40616285D01*
X45873247Y-40616285D02*
X45778009Y-40663904D01*
X45778009Y-40663904D02*
X45730390Y-40711523D01*
X45730390Y-40711523D02*
X45682771Y-40806761D01*
X45682771Y-40806761D02*
X45682771Y-40997237D01*
X45682771Y-40997237D02*
X45730390Y-41092475D01*
X45730390Y-41092475D02*
X45778009Y-41140094D01*
X45778009Y-41140094D02*
X45873247Y-41187713D01*
X22583333Y-60259580D02*
X22535714Y-60307200D01*
X22535714Y-60307200D02*
X22392857Y-60354819D01*
X22392857Y-60354819D02*
X22297619Y-60354819D01*
X22297619Y-60354819D02*
X22154762Y-60307200D01*
X22154762Y-60307200D02*
X22059524Y-60211961D01*
X22059524Y-60211961D02*
X22011905Y-60116723D01*
X22011905Y-60116723D02*
X21964286Y-59926247D01*
X21964286Y-59926247D02*
X21964286Y-59783390D01*
X21964286Y-59783390D02*
X22011905Y-59592914D01*
X22011905Y-59592914D02*
X22059524Y-59497676D01*
X22059524Y-59497676D02*
X22154762Y-59402438D01*
X22154762Y-59402438D02*
X22297619Y-59354819D01*
X22297619Y-59354819D02*
X22392857Y-59354819D01*
X22392857Y-59354819D02*
X22535714Y-59402438D01*
X22535714Y-59402438D02*
X22583333Y-59450057D01*
X23440476Y-59354819D02*
X23250000Y-59354819D01*
X23250000Y-59354819D02*
X23154762Y-59402438D01*
X23154762Y-59402438D02*
X23107143Y-59450057D01*
X23107143Y-59450057D02*
X23011905Y-59592914D01*
X23011905Y-59592914D02*
X22964286Y-59783390D01*
X22964286Y-59783390D02*
X22964286Y-60164342D01*
X22964286Y-60164342D02*
X23011905Y-60259580D01*
X23011905Y-60259580D02*
X23059524Y-60307200D01*
X23059524Y-60307200D02*
X23154762Y-60354819D01*
X23154762Y-60354819D02*
X23345238Y-60354819D01*
X23345238Y-60354819D02*
X23440476Y-60307200D01*
X23440476Y-60307200D02*
X23488095Y-60259580D01*
X23488095Y-60259580D02*
X23535714Y-60164342D01*
X23535714Y-60164342D02*
X23535714Y-59926247D01*
X23535714Y-59926247D02*
X23488095Y-59831009D01*
X23488095Y-59831009D02*
X23440476Y-59783390D01*
X23440476Y-59783390D02*
X23345238Y-59735771D01*
X23345238Y-59735771D02*
X23154762Y-59735771D01*
X23154762Y-59735771D02*
X23059524Y-59783390D01*
X23059524Y-59783390D02*
X23011905Y-59831009D01*
X23011905Y-59831009D02*
X22964286Y-59926247D01*
X51141333Y-49889580D02*
X51093714Y-49937200D01*
X51093714Y-49937200D02*
X50950857Y-49984819D01*
X50950857Y-49984819D02*
X50855619Y-49984819D01*
X50855619Y-49984819D02*
X50712762Y-49937200D01*
X50712762Y-49937200D02*
X50617524Y-49841961D01*
X50617524Y-49841961D02*
X50569905Y-49746723D01*
X50569905Y-49746723D02*
X50522286Y-49556247D01*
X50522286Y-49556247D02*
X50522286Y-49413390D01*
X50522286Y-49413390D02*
X50569905Y-49222914D01*
X50569905Y-49222914D02*
X50617524Y-49127676D01*
X50617524Y-49127676D02*
X50712762Y-49032438D01*
X50712762Y-49032438D02*
X50855619Y-48984819D01*
X50855619Y-48984819D02*
X50950857Y-48984819D01*
X50950857Y-48984819D02*
X51093714Y-49032438D01*
X51093714Y-49032438D02*
X51141333Y-49080057D01*
X51998476Y-49318152D02*
X51998476Y-49984819D01*
X51760381Y-48937200D02*
X51522286Y-49651485D01*
X51522286Y-49651485D02*
X52141333Y-49651485D01*
X22575580Y-53633666D02*
X22623200Y-53681285D01*
X22623200Y-53681285D02*
X22670819Y-53824142D01*
X22670819Y-53824142D02*
X22670819Y-53919380D01*
X22670819Y-53919380D02*
X22623200Y-54062237D01*
X22623200Y-54062237D02*
X22527961Y-54157475D01*
X22527961Y-54157475D02*
X22432723Y-54205094D01*
X22432723Y-54205094D02*
X22242247Y-54252713D01*
X22242247Y-54252713D02*
X22099390Y-54252713D01*
X22099390Y-54252713D02*
X21908914Y-54205094D01*
X21908914Y-54205094D02*
X21813676Y-54157475D01*
X21813676Y-54157475D02*
X21718438Y-54062237D01*
X21718438Y-54062237D02*
X21670819Y-53919380D01*
X21670819Y-53919380D02*
X21670819Y-53824142D01*
X21670819Y-53824142D02*
X21718438Y-53681285D01*
X21718438Y-53681285D02*
X21766057Y-53633666D01*
X22099390Y-53062237D02*
X22051771Y-53157475D01*
X22051771Y-53157475D02*
X22004152Y-53205094D01*
X22004152Y-53205094D02*
X21908914Y-53252713D01*
X21908914Y-53252713D02*
X21861295Y-53252713D01*
X21861295Y-53252713D02*
X21766057Y-53205094D01*
X21766057Y-53205094D02*
X21718438Y-53157475D01*
X21718438Y-53157475D02*
X21670819Y-53062237D01*
X21670819Y-53062237D02*
X21670819Y-52871761D01*
X21670819Y-52871761D02*
X21718438Y-52776523D01*
X21718438Y-52776523D02*
X21766057Y-52728904D01*
X21766057Y-52728904D02*
X21861295Y-52681285D01*
X21861295Y-52681285D02*
X21908914Y-52681285D01*
X21908914Y-52681285D02*
X22004152Y-52728904D01*
X22004152Y-52728904D02*
X22051771Y-52776523D01*
X22051771Y-52776523D02*
X22099390Y-52871761D01*
X22099390Y-52871761D02*
X22099390Y-53062237D01*
X22099390Y-53062237D02*
X22147009Y-53157475D01*
X22147009Y-53157475D02*
X22194628Y-53205094D01*
X22194628Y-53205094D02*
X22289866Y-53252713D01*
X22289866Y-53252713D02*
X22480342Y-53252713D01*
X22480342Y-53252713D02*
X22575580Y-53205094D01*
X22575580Y-53205094D02*
X22623200Y-53157475D01*
X22623200Y-53157475D02*
X22670819Y-53062237D01*
X22670819Y-53062237D02*
X22670819Y-52871761D01*
X22670819Y-52871761D02*
X22623200Y-52776523D01*
X22623200Y-52776523D02*
X22575580Y-52728904D01*
X22575580Y-52728904D02*
X22480342Y-52681285D01*
X22480342Y-52681285D02*
X22289866Y-52681285D01*
X22289866Y-52681285D02*
X22194628Y-52728904D01*
X22194628Y-52728904D02*
X22147009Y-52776523D01*
X22147009Y-52776523D02*
X22099390Y-52871761D01*
X71733580Y-62364857D02*
X71781200Y-62412476D01*
X71781200Y-62412476D02*
X71828819Y-62555333D01*
X71828819Y-62555333D02*
X71828819Y-62650571D01*
X71828819Y-62650571D02*
X71781200Y-62793428D01*
X71781200Y-62793428D02*
X71685961Y-62888666D01*
X71685961Y-62888666D02*
X71590723Y-62936285D01*
X71590723Y-62936285D02*
X71400247Y-62983904D01*
X71400247Y-62983904D02*
X71257390Y-62983904D01*
X71257390Y-62983904D02*
X71066914Y-62936285D01*
X71066914Y-62936285D02*
X70971676Y-62888666D01*
X70971676Y-62888666D02*
X70876438Y-62793428D01*
X70876438Y-62793428D02*
X70828819Y-62650571D01*
X70828819Y-62650571D02*
X70828819Y-62555333D01*
X70828819Y-62555333D02*
X70876438Y-62412476D01*
X70876438Y-62412476D02*
X70924057Y-62364857D01*
X70924057Y-61983904D02*
X70876438Y-61936285D01*
X70876438Y-61936285D02*
X70828819Y-61841047D01*
X70828819Y-61841047D02*
X70828819Y-61602952D01*
X70828819Y-61602952D02*
X70876438Y-61507714D01*
X70876438Y-61507714D02*
X70924057Y-61460095D01*
X70924057Y-61460095D02*
X71019295Y-61412476D01*
X71019295Y-61412476D02*
X71114533Y-61412476D01*
X71114533Y-61412476D02*
X71257390Y-61460095D01*
X71257390Y-61460095D02*
X71828819Y-62031523D01*
X71828819Y-62031523D02*
X71828819Y-61412476D01*
X71828819Y-60460095D02*
X71828819Y-61031523D01*
X71828819Y-60745809D02*
X70828819Y-60745809D01*
X70828819Y-60745809D02*
X70971676Y-60841047D01*
X70971676Y-60841047D02*
X71066914Y-60936285D01*
X71066914Y-60936285D02*
X71114533Y-61031523D01*
X61653333Y-60324819D02*
X61320000Y-59848628D01*
X61081905Y-60324819D02*
X61081905Y-59324819D01*
X61081905Y-59324819D02*
X61462857Y-59324819D01*
X61462857Y-59324819D02*
X61558095Y-59372438D01*
X61558095Y-59372438D02*
X61605714Y-59420057D01*
X61605714Y-59420057D02*
X61653333Y-59515295D01*
X61653333Y-59515295D02*
X61653333Y-59658152D01*
X61653333Y-59658152D02*
X61605714Y-59753390D01*
X61605714Y-59753390D02*
X61558095Y-59801009D01*
X61558095Y-59801009D02*
X61462857Y-59848628D01*
X61462857Y-59848628D02*
X61081905Y-59848628D01*
X62510476Y-59658152D02*
X62510476Y-60324819D01*
X62272381Y-59277200D02*
X62034286Y-59991485D01*
X62034286Y-59991485D02*
X62653333Y-59991485D01*
X37507057Y-70834238D02*
X37459438Y-70929476D01*
X37459438Y-70929476D02*
X37364200Y-71024714D01*
X37364200Y-71024714D02*
X37221342Y-71167571D01*
X37221342Y-71167571D02*
X37173723Y-71262809D01*
X37173723Y-71262809D02*
X37173723Y-71358047D01*
X37411819Y-71310428D02*
X37364200Y-71405666D01*
X37364200Y-71405666D02*
X37268961Y-71500904D01*
X37268961Y-71500904D02*
X37078485Y-71548523D01*
X37078485Y-71548523D02*
X36745152Y-71548523D01*
X36745152Y-71548523D02*
X36554676Y-71500904D01*
X36554676Y-71500904D02*
X36459438Y-71405666D01*
X36459438Y-71405666D02*
X36411819Y-71310428D01*
X36411819Y-71310428D02*
X36411819Y-71119952D01*
X36411819Y-71119952D02*
X36459438Y-71024714D01*
X36459438Y-71024714D02*
X36554676Y-70929476D01*
X36554676Y-70929476D02*
X36745152Y-70881857D01*
X36745152Y-70881857D02*
X37078485Y-70881857D01*
X37078485Y-70881857D02*
X37268961Y-70929476D01*
X37268961Y-70929476D02*
X37364200Y-71024714D01*
X37364200Y-71024714D02*
X37411819Y-71119952D01*
X37411819Y-71119952D02*
X37411819Y-71310428D01*
X36507057Y-70500904D02*
X36459438Y-70453285D01*
X36459438Y-70453285D02*
X36411819Y-70358047D01*
X36411819Y-70358047D02*
X36411819Y-70119952D01*
X36411819Y-70119952D02*
X36459438Y-70024714D01*
X36459438Y-70024714D02*
X36507057Y-69977095D01*
X36507057Y-69977095D02*
X36602295Y-69929476D01*
X36602295Y-69929476D02*
X36697533Y-69929476D01*
X36697533Y-69929476D02*
X36840390Y-69977095D01*
X36840390Y-69977095D02*
X37411819Y-70548523D01*
X37411819Y-70548523D02*
X37411819Y-69929476D01*
X58382819Y-65785904D02*
X59192342Y-65785904D01*
X59192342Y-65785904D02*
X59287580Y-65738285D01*
X59287580Y-65738285D02*
X59335200Y-65690666D01*
X59335200Y-65690666D02*
X59382819Y-65595428D01*
X59382819Y-65595428D02*
X59382819Y-65404952D01*
X59382819Y-65404952D02*
X59335200Y-65309714D01*
X59335200Y-65309714D02*
X59287580Y-65262095D01*
X59287580Y-65262095D02*
X59192342Y-65214476D01*
X59192342Y-65214476D02*
X58382819Y-65214476D01*
X58478057Y-64785904D02*
X58430438Y-64738285D01*
X58430438Y-64738285D02*
X58382819Y-64643047D01*
X58382819Y-64643047D02*
X58382819Y-64404952D01*
X58382819Y-64404952D02*
X58430438Y-64309714D01*
X58430438Y-64309714D02*
X58478057Y-64262095D01*
X58478057Y-64262095D02*
X58573295Y-64214476D01*
X58573295Y-64214476D02*
X58668533Y-64214476D01*
X58668533Y-64214476D02*
X58811390Y-64262095D01*
X58811390Y-64262095D02*
X59382819Y-64833523D01*
X59382819Y-64833523D02*
X59382819Y-64214476D01*
X53205142Y-82147580D02*
X53157523Y-82195200D01*
X53157523Y-82195200D02*
X53014666Y-82242819D01*
X53014666Y-82242819D02*
X52919428Y-82242819D01*
X52919428Y-82242819D02*
X52776571Y-82195200D01*
X52776571Y-82195200D02*
X52681333Y-82099961D01*
X52681333Y-82099961D02*
X52633714Y-82004723D01*
X52633714Y-82004723D02*
X52586095Y-81814247D01*
X52586095Y-81814247D02*
X52586095Y-81671390D01*
X52586095Y-81671390D02*
X52633714Y-81480914D01*
X52633714Y-81480914D02*
X52681333Y-81385676D01*
X52681333Y-81385676D02*
X52776571Y-81290438D01*
X52776571Y-81290438D02*
X52919428Y-81242819D01*
X52919428Y-81242819D02*
X53014666Y-81242819D01*
X53014666Y-81242819D02*
X53157523Y-81290438D01*
X53157523Y-81290438D02*
X53205142Y-81338057D01*
X54157523Y-82242819D02*
X53586095Y-82242819D01*
X53871809Y-82242819D02*
X53871809Y-81242819D01*
X53871809Y-81242819D02*
X53776571Y-81385676D01*
X53776571Y-81385676D02*
X53681333Y-81480914D01*
X53681333Y-81480914D02*
X53586095Y-81528533D01*
X54728952Y-81671390D02*
X54633714Y-81623771D01*
X54633714Y-81623771D02*
X54586095Y-81576152D01*
X54586095Y-81576152D02*
X54538476Y-81480914D01*
X54538476Y-81480914D02*
X54538476Y-81433295D01*
X54538476Y-81433295D02*
X54586095Y-81338057D01*
X54586095Y-81338057D02*
X54633714Y-81290438D01*
X54633714Y-81290438D02*
X54728952Y-81242819D01*
X54728952Y-81242819D02*
X54919428Y-81242819D01*
X54919428Y-81242819D02*
X55014666Y-81290438D01*
X55014666Y-81290438D02*
X55062285Y-81338057D01*
X55062285Y-81338057D02*
X55109904Y-81433295D01*
X55109904Y-81433295D02*
X55109904Y-81480914D01*
X55109904Y-81480914D02*
X55062285Y-81576152D01*
X55062285Y-81576152D02*
X55014666Y-81623771D01*
X55014666Y-81623771D02*
X54919428Y-81671390D01*
X54919428Y-81671390D02*
X54728952Y-81671390D01*
X54728952Y-81671390D02*
X54633714Y-81719009D01*
X54633714Y-81719009D02*
X54586095Y-81766628D01*
X54586095Y-81766628D02*
X54538476Y-81861866D01*
X54538476Y-81861866D02*
X54538476Y-82052342D01*
X54538476Y-82052342D02*
X54586095Y-82147580D01*
X54586095Y-82147580D02*
X54633714Y-82195200D01*
X54633714Y-82195200D02*
X54728952Y-82242819D01*
X54728952Y-82242819D02*
X54919428Y-82242819D01*
X54919428Y-82242819D02*
X55014666Y-82195200D01*
X55014666Y-82195200D02*
X55062285Y-82147580D01*
X55062285Y-82147580D02*
X55109904Y-82052342D01*
X55109904Y-82052342D02*
X55109904Y-81861866D01*
X55109904Y-81861866D02*
X55062285Y-81766628D01*
X55062285Y-81766628D02*
X55014666Y-81719009D01*
X55014666Y-81719009D02*
X54919428Y-81671390D01*
X29782819Y-58459523D02*
X28782819Y-58459523D01*
X28782819Y-58459523D02*
X29497104Y-58126190D01*
X29497104Y-58126190D02*
X28782819Y-57792857D01*
X28782819Y-57792857D02*
X29782819Y-57792857D01*
X29782819Y-57316666D02*
X28782819Y-57316666D01*
X29782819Y-56745238D02*
X29211390Y-57173809D01*
X28782819Y-56745238D02*
X29354247Y-57316666D01*
X29782819Y-55792857D02*
X29782819Y-56364285D01*
X29782819Y-56078571D02*
X28782819Y-56078571D01*
X28782819Y-56078571D02*
X28925676Y-56173809D01*
X28925676Y-56173809D02*
X29020914Y-56269047D01*
X29020914Y-56269047D02*
X29068533Y-56364285D01*
X56253142Y-82242819D02*
X55919809Y-81766628D01*
X55681714Y-82242819D02*
X55681714Y-81242819D01*
X55681714Y-81242819D02*
X56062666Y-81242819D01*
X56062666Y-81242819D02*
X56157904Y-81290438D01*
X56157904Y-81290438D02*
X56205523Y-81338057D01*
X56205523Y-81338057D02*
X56253142Y-81433295D01*
X56253142Y-81433295D02*
X56253142Y-81576152D01*
X56253142Y-81576152D02*
X56205523Y-81671390D01*
X56205523Y-81671390D02*
X56157904Y-81719009D01*
X56157904Y-81719009D02*
X56062666Y-81766628D01*
X56062666Y-81766628D02*
X55681714Y-81766628D01*
X57205523Y-82242819D02*
X56634095Y-82242819D01*
X56919809Y-82242819D02*
X56919809Y-81242819D01*
X56919809Y-81242819D02*
X56824571Y-81385676D01*
X56824571Y-81385676D02*
X56729333Y-81480914D01*
X56729333Y-81480914D02*
X56634095Y-81528533D01*
X57538857Y-81242819D02*
X58205523Y-81242819D01*
X58205523Y-81242819D02*
X57776952Y-82242819D01*
X62476142Y-71860580D02*
X62428523Y-71908200D01*
X62428523Y-71908200D02*
X62285666Y-71955819D01*
X62285666Y-71955819D02*
X62190428Y-71955819D01*
X62190428Y-71955819D02*
X62047571Y-71908200D01*
X62047571Y-71908200D02*
X61952333Y-71812961D01*
X61952333Y-71812961D02*
X61904714Y-71717723D01*
X61904714Y-71717723D02*
X61857095Y-71527247D01*
X61857095Y-71527247D02*
X61857095Y-71384390D01*
X61857095Y-71384390D02*
X61904714Y-71193914D01*
X61904714Y-71193914D02*
X61952333Y-71098676D01*
X61952333Y-71098676D02*
X62047571Y-71003438D01*
X62047571Y-71003438D02*
X62190428Y-70955819D01*
X62190428Y-70955819D02*
X62285666Y-70955819D01*
X62285666Y-70955819D02*
X62428523Y-71003438D01*
X62428523Y-71003438D02*
X62476142Y-71051057D01*
X63428523Y-71955819D02*
X62857095Y-71955819D01*
X63142809Y-71955819D02*
X63142809Y-70955819D01*
X63142809Y-70955819D02*
X63047571Y-71098676D01*
X63047571Y-71098676D02*
X62952333Y-71193914D01*
X62952333Y-71193914D02*
X62857095Y-71241533D01*
X64285666Y-70955819D02*
X64095190Y-70955819D01*
X64095190Y-70955819D02*
X63999952Y-71003438D01*
X63999952Y-71003438D02*
X63952333Y-71051057D01*
X63952333Y-71051057D02*
X63857095Y-71193914D01*
X63857095Y-71193914D02*
X63809476Y-71384390D01*
X63809476Y-71384390D02*
X63809476Y-71765342D01*
X63809476Y-71765342D02*
X63857095Y-71860580D01*
X63857095Y-71860580D02*
X63904714Y-71908200D01*
X63904714Y-71908200D02*
X63999952Y-71955819D01*
X63999952Y-71955819D02*
X64190428Y-71955819D01*
X64190428Y-71955819D02*
X64285666Y-71908200D01*
X64285666Y-71908200D02*
X64333285Y-71860580D01*
X64333285Y-71860580D02*
X64380904Y-71765342D01*
X64380904Y-71765342D02*
X64380904Y-71527247D01*
X64380904Y-71527247D02*
X64333285Y-71432009D01*
X64333285Y-71432009D02*
X64285666Y-71384390D01*
X64285666Y-71384390D02*
X64190428Y-71336771D01*
X64190428Y-71336771D02*
X63999952Y-71336771D01*
X63999952Y-71336771D02*
X63904714Y-71384390D01*
X63904714Y-71384390D02*
X63857095Y-71432009D01*
X63857095Y-71432009D02*
X63809476Y-71527247D01*
X56533095Y-74184819D02*
X56533095Y-74994342D01*
X56533095Y-74994342D02*
X56580714Y-75089580D01*
X56580714Y-75089580D02*
X56628333Y-75137200D01*
X56628333Y-75137200D02*
X56723571Y-75184819D01*
X56723571Y-75184819D02*
X56914047Y-75184819D01*
X56914047Y-75184819D02*
X57009285Y-75137200D01*
X57009285Y-75137200D02*
X57056904Y-75089580D01*
X57056904Y-75089580D02*
X57104523Y-74994342D01*
X57104523Y-74994342D02*
X57104523Y-74184819D01*
X58009285Y-74518152D02*
X58009285Y-75184819D01*
X57771190Y-74137200D02*
X57533095Y-74851485D01*
X57533095Y-74851485D02*
X58152142Y-74851485D01*
X35012333Y-48714819D02*
X34679000Y-48238628D01*
X34440905Y-48714819D02*
X34440905Y-47714819D01*
X34440905Y-47714819D02*
X34821857Y-47714819D01*
X34821857Y-47714819D02*
X34917095Y-47762438D01*
X34917095Y-47762438D02*
X34964714Y-47810057D01*
X34964714Y-47810057D02*
X35012333Y-47905295D01*
X35012333Y-47905295D02*
X35012333Y-48048152D01*
X35012333Y-48048152D02*
X34964714Y-48143390D01*
X34964714Y-48143390D02*
X34917095Y-48191009D01*
X34917095Y-48191009D02*
X34821857Y-48238628D01*
X34821857Y-48238628D02*
X34440905Y-48238628D01*
X35345667Y-47714819D02*
X36012333Y-47714819D01*
X36012333Y-47714819D02*
X35583762Y-48714819D01*
X55838200Y-44216332D02*
X55885819Y-44073475D01*
X55885819Y-44073475D02*
X55885819Y-43835380D01*
X55885819Y-43835380D02*
X55838200Y-43740142D01*
X55838200Y-43740142D02*
X55790580Y-43692523D01*
X55790580Y-43692523D02*
X55695342Y-43644904D01*
X55695342Y-43644904D02*
X55600104Y-43644904D01*
X55600104Y-43644904D02*
X55504866Y-43692523D01*
X55504866Y-43692523D02*
X55457247Y-43740142D01*
X55457247Y-43740142D02*
X55409628Y-43835380D01*
X55409628Y-43835380D02*
X55362009Y-44025856D01*
X55362009Y-44025856D02*
X55314390Y-44121094D01*
X55314390Y-44121094D02*
X55266771Y-44168713D01*
X55266771Y-44168713D02*
X55171533Y-44216332D01*
X55171533Y-44216332D02*
X55076295Y-44216332D01*
X55076295Y-44216332D02*
X54981057Y-44168713D01*
X54981057Y-44168713D02*
X54933438Y-44121094D01*
X54933438Y-44121094D02*
X54885819Y-44025856D01*
X54885819Y-44025856D02*
X54885819Y-43787761D01*
X54885819Y-43787761D02*
X54933438Y-43644904D01*
X54885819Y-43311570D02*
X55885819Y-43073475D01*
X55885819Y-43073475D02*
X55171533Y-42882999D01*
X55171533Y-42882999D02*
X55885819Y-42692523D01*
X55885819Y-42692523D02*
X54885819Y-42454428D01*
X55885819Y-41549666D02*
X55885819Y-42121094D01*
X55885819Y-41835380D02*
X54885819Y-41835380D01*
X54885819Y-41835380D02*
X55028676Y-41930618D01*
X55028676Y-41930618D02*
X55123914Y-42025856D01*
X55123914Y-42025856D02*
X55171533Y-42121094D01*
X39316819Y-63158666D02*
X38840628Y-63491999D01*
X39316819Y-63730094D02*
X38316819Y-63730094D01*
X38316819Y-63730094D02*
X38316819Y-63349142D01*
X38316819Y-63349142D02*
X38364438Y-63253904D01*
X38364438Y-63253904D02*
X38412057Y-63206285D01*
X38412057Y-63206285D02*
X38507295Y-63158666D01*
X38507295Y-63158666D02*
X38650152Y-63158666D01*
X38650152Y-63158666D02*
X38745390Y-63206285D01*
X38745390Y-63206285D02*
X38793009Y-63253904D01*
X38793009Y-63253904D02*
X38840628Y-63349142D01*
X38840628Y-63349142D02*
X38840628Y-63730094D01*
X39316819Y-62206285D02*
X39316819Y-62777713D01*
X39316819Y-62491999D02*
X38316819Y-62491999D01*
X38316819Y-62491999D02*
X38459676Y-62587237D01*
X38459676Y-62587237D02*
X38554914Y-62682475D01*
X38554914Y-62682475D02*
X38602533Y-62777713D01*
X44043095Y-64174819D02*
X44043095Y-64984342D01*
X44043095Y-64984342D02*
X44090714Y-65079580D01*
X44090714Y-65079580D02*
X44138333Y-65127200D01*
X44138333Y-65127200D02*
X44233571Y-65174819D01*
X44233571Y-65174819D02*
X44424047Y-65174819D01*
X44424047Y-65174819D02*
X44519285Y-65127200D01*
X44519285Y-65127200D02*
X44566904Y-65079580D01*
X44566904Y-65079580D02*
X44614523Y-64984342D01*
X44614523Y-64984342D02*
X44614523Y-64174819D01*
X45566904Y-64174819D02*
X45090714Y-64174819D01*
X45090714Y-64174819D02*
X45043095Y-64651009D01*
X45043095Y-64651009D02*
X45090714Y-64603390D01*
X45090714Y-64603390D02*
X45185952Y-64555771D01*
X45185952Y-64555771D02*
X45424047Y-64555771D01*
X45424047Y-64555771D02*
X45519285Y-64603390D01*
X45519285Y-64603390D02*
X45566904Y-64651009D01*
X45566904Y-64651009D02*
X45614523Y-64746247D01*
X45614523Y-64746247D02*
X45614523Y-64984342D01*
X45614523Y-64984342D02*
X45566904Y-65079580D01*
X45566904Y-65079580D02*
X45519285Y-65127200D01*
X45519285Y-65127200D02*
X45424047Y-65174819D01*
X45424047Y-65174819D02*
X45185952Y-65174819D01*
X45185952Y-65174819D02*
X45090714Y-65127200D01*
X45090714Y-65127200D02*
X45043095Y-65079580D01*
X69633180Y-50419095D02*
X68823657Y-50419095D01*
X68823657Y-50419095D02*
X68728419Y-50466714D01*
X68728419Y-50466714D02*
X68680800Y-50514333D01*
X68680800Y-50514333D02*
X68633180Y-50609571D01*
X68633180Y-50609571D02*
X68633180Y-50800047D01*
X68633180Y-50800047D02*
X68680800Y-50895285D01*
X68680800Y-50895285D02*
X68728419Y-50942904D01*
X68728419Y-50942904D02*
X68823657Y-50990523D01*
X68823657Y-50990523D02*
X69633180Y-50990523D01*
X68633180Y-51990523D02*
X68633180Y-51419095D01*
X68633180Y-51704809D02*
X69633180Y-51704809D01*
X69633180Y-51704809D02*
X69490323Y-51609571D01*
X69490323Y-51609571D02*
X69395085Y-51514333D01*
X69395085Y-51514333D02*
X69347466Y-51419095D01*
X74209104Y-53981904D02*
X74209104Y-53505714D01*
X74494819Y-54077142D02*
X73494819Y-53743809D01*
X73494819Y-53743809D02*
X74494819Y-53410476D01*
X73828152Y-53077142D02*
X74494819Y-53077142D01*
X73923390Y-53077142D02*
X73875771Y-53029523D01*
X73875771Y-53029523D02*
X73828152Y-52934285D01*
X73828152Y-52934285D02*
X73828152Y-52791428D01*
X73828152Y-52791428D02*
X73875771Y-52696190D01*
X73875771Y-52696190D02*
X73971009Y-52648571D01*
X73971009Y-52648571D02*
X74494819Y-52648571D01*
X73828152Y-52315237D02*
X73828152Y-51934285D01*
X73494819Y-52172380D02*
X74351961Y-52172380D01*
X74351961Y-52172380D02*
X74447200Y-52124761D01*
X74447200Y-52124761D02*
X74494819Y-52029523D01*
X74494819Y-52029523D02*
X74494819Y-51934285D01*
X74447200Y-51219999D02*
X74494819Y-51315237D01*
X74494819Y-51315237D02*
X74494819Y-51505713D01*
X74494819Y-51505713D02*
X74447200Y-51600951D01*
X74447200Y-51600951D02*
X74351961Y-51648570D01*
X74351961Y-51648570D02*
X73971009Y-51648570D01*
X73971009Y-51648570D02*
X73875771Y-51600951D01*
X73875771Y-51600951D02*
X73828152Y-51505713D01*
X73828152Y-51505713D02*
X73828152Y-51315237D01*
X73828152Y-51315237D02*
X73875771Y-51219999D01*
X73875771Y-51219999D02*
X73971009Y-51172380D01*
X73971009Y-51172380D02*
X74066247Y-51172380D01*
X74066247Y-51172380D02*
X74161485Y-51648570D01*
X73828152Y-50743808D02*
X74494819Y-50743808D01*
X73923390Y-50743808D02*
X73875771Y-50696189D01*
X73875771Y-50696189D02*
X73828152Y-50600951D01*
X73828152Y-50600951D02*
X73828152Y-50458094D01*
X73828152Y-50458094D02*
X73875771Y-50362856D01*
X73875771Y-50362856D02*
X73971009Y-50315237D01*
X73971009Y-50315237D02*
X74494819Y-50315237D01*
X73828152Y-49839046D02*
X74494819Y-49839046D01*
X73923390Y-49839046D02*
X73875771Y-49791427D01*
X73875771Y-49791427D02*
X73828152Y-49696189D01*
X73828152Y-49696189D02*
X73828152Y-49553332D01*
X73828152Y-49553332D02*
X73875771Y-49458094D01*
X73875771Y-49458094D02*
X73971009Y-49410475D01*
X73971009Y-49410475D02*
X74494819Y-49410475D01*
X74494819Y-48505713D02*
X73971009Y-48505713D01*
X73971009Y-48505713D02*
X73875771Y-48553332D01*
X73875771Y-48553332D02*
X73828152Y-48648570D01*
X73828152Y-48648570D02*
X73828152Y-48839046D01*
X73828152Y-48839046D02*
X73875771Y-48934284D01*
X74447200Y-48505713D02*
X74494819Y-48600951D01*
X74494819Y-48600951D02*
X74494819Y-48839046D01*
X74494819Y-48839046D02*
X74447200Y-48934284D01*
X74447200Y-48934284D02*
X74351961Y-48981903D01*
X74351961Y-48981903D02*
X74256723Y-48981903D01*
X74256723Y-48981903D02*
X74161485Y-48934284D01*
X74161485Y-48934284D02*
X74113866Y-48839046D01*
X74113866Y-48839046D02*
X74113866Y-48600951D01*
X74113866Y-48600951D02*
X74066247Y-48505713D01*
X47095580Y-75826857D02*
X47143200Y-75874476D01*
X47143200Y-75874476D02*
X47190819Y-76017333D01*
X47190819Y-76017333D02*
X47190819Y-76112571D01*
X47190819Y-76112571D02*
X47143200Y-76255428D01*
X47143200Y-76255428D02*
X47047961Y-76350666D01*
X47047961Y-76350666D02*
X46952723Y-76398285D01*
X46952723Y-76398285D02*
X46762247Y-76445904D01*
X46762247Y-76445904D02*
X46619390Y-76445904D01*
X46619390Y-76445904D02*
X46428914Y-76398285D01*
X46428914Y-76398285D02*
X46333676Y-76350666D01*
X46333676Y-76350666D02*
X46238438Y-76255428D01*
X46238438Y-76255428D02*
X46190819Y-76112571D01*
X46190819Y-76112571D02*
X46190819Y-76017333D01*
X46190819Y-76017333D02*
X46238438Y-75874476D01*
X46238438Y-75874476D02*
X46286057Y-75826857D01*
X47190819Y-74874476D02*
X47190819Y-75445904D01*
X47190819Y-75160190D02*
X46190819Y-75160190D01*
X46190819Y-75160190D02*
X46333676Y-75255428D01*
X46333676Y-75255428D02*
X46428914Y-75350666D01*
X46428914Y-75350666D02*
X46476533Y-75445904D01*
X46524152Y-74017333D02*
X47190819Y-74017333D01*
X46143200Y-74255428D02*
X46857485Y-74493523D01*
X46857485Y-74493523D02*
X46857485Y-73874476D01*
X47161929Y-49514960D02*
X47114310Y-49562580D01*
X47114310Y-49562580D02*
X46971453Y-49610199D01*
X46971453Y-49610199D02*
X46876215Y-49610199D01*
X46876215Y-49610199D02*
X46733358Y-49562580D01*
X46733358Y-49562580D02*
X46638120Y-49467341D01*
X46638120Y-49467341D02*
X46590501Y-49372103D01*
X46590501Y-49372103D02*
X46542882Y-49181627D01*
X46542882Y-49181627D02*
X46542882Y-49038770D01*
X46542882Y-49038770D02*
X46590501Y-48848294D01*
X46590501Y-48848294D02*
X46638120Y-48753056D01*
X46638120Y-48753056D02*
X46733358Y-48657818D01*
X46733358Y-48657818D02*
X46876215Y-48610199D01*
X46876215Y-48610199D02*
X46971453Y-48610199D01*
X46971453Y-48610199D02*
X47114310Y-48657818D01*
X47114310Y-48657818D02*
X47161929Y-48705437D01*
X47542882Y-48705437D02*
X47590501Y-48657818D01*
X47590501Y-48657818D02*
X47685739Y-48610199D01*
X47685739Y-48610199D02*
X47923834Y-48610199D01*
X47923834Y-48610199D02*
X48019072Y-48657818D01*
X48019072Y-48657818D02*
X48066691Y-48705437D01*
X48066691Y-48705437D02*
X48114310Y-48800675D01*
X48114310Y-48800675D02*
X48114310Y-48895913D01*
X48114310Y-48895913D02*
X48066691Y-49038770D01*
X48066691Y-49038770D02*
X47495263Y-49610199D01*
X47495263Y-49610199D02*
X48114310Y-49610199D01*
X66748819Y-41568666D02*
X66272628Y-41901999D01*
X66748819Y-42140094D02*
X65748819Y-42140094D01*
X65748819Y-42140094D02*
X65748819Y-41759142D01*
X65748819Y-41759142D02*
X65796438Y-41663904D01*
X65796438Y-41663904D02*
X65844057Y-41616285D01*
X65844057Y-41616285D02*
X65939295Y-41568666D01*
X65939295Y-41568666D02*
X66082152Y-41568666D01*
X66082152Y-41568666D02*
X66177390Y-41616285D01*
X66177390Y-41616285D02*
X66225009Y-41663904D01*
X66225009Y-41663904D02*
X66272628Y-41759142D01*
X66272628Y-41759142D02*
X66272628Y-42140094D01*
X66177390Y-40997237D02*
X66129771Y-41092475D01*
X66129771Y-41092475D02*
X66082152Y-41140094D01*
X66082152Y-41140094D02*
X65986914Y-41187713D01*
X65986914Y-41187713D02*
X65939295Y-41187713D01*
X65939295Y-41187713D02*
X65844057Y-41140094D01*
X65844057Y-41140094D02*
X65796438Y-41092475D01*
X65796438Y-41092475D02*
X65748819Y-40997237D01*
X65748819Y-40997237D02*
X65748819Y-40806761D01*
X65748819Y-40806761D02*
X65796438Y-40711523D01*
X65796438Y-40711523D02*
X65844057Y-40663904D01*
X65844057Y-40663904D02*
X65939295Y-40616285D01*
X65939295Y-40616285D02*
X65986914Y-40616285D01*
X65986914Y-40616285D02*
X66082152Y-40663904D01*
X66082152Y-40663904D02*
X66129771Y-40711523D01*
X66129771Y-40711523D02*
X66177390Y-40806761D01*
X66177390Y-40806761D02*
X66177390Y-40997237D01*
X66177390Y-40997237D02*
X66225009Y-41092475D01*
X66225009Y-41092475D02*
X66272628Y-41140094D01*
X66272628Y-41140094D02*
X66367866Y-41187713D01*
X66367866Y-41187713D02*
X66558342Y-41187713D01*
X66558342Y-41187713D02*
X66653580Y-41140094D01*
X66653580Y-41140094D02*
X66701200Y-41092475D01*
X66701200Y-41092475D02*
X66748819Y-40997237D01*
X66748819Y-40997237D02*
X66748819Y-40806761D01*
X66748819Y-40806761D02*
X66701200Y-40711523D01*
X66701200Y-40711523D02*
X66653580Y-40663904D01*
X66653580Y-40663904D02*
X66558342Y-40616285D01*
X66558342Y-40616285D02*
X66367866Y-40616285D01*
X66367866Y-40616285D02*
X66272628Y-40663904D01*
X66272628Y-40663904D02*
X66225009Y-40711523D01*
X66225009Y-40711523D02*
X66177390Y-40806761D01*
X43400142Y-76509580D02*
X43352523Y-76557200D01*
X43352523Y-76557200D02*
X43209666Y-76604819D01*
X43209666Y-76604819D02*
X43114428Y-76604819D01*
X43114428Y-76604819D02*
X42971571Y-76557200D01*
X42971571Y-76557200D02*
X42876333Y-76461961D01*
X42876333Y-76461961D02*
X42828714Y-76366723D01*
X42828714Y-76366723D02*
X42781095Y-76176247D01*
X42781095Y-76176247D02*
X42781095Y-76033390D01*
X42781095Y-76033390D02*
X42828714Y-75842914D01*
X42828714Y-75842914D02*
X42876333Y-75747676D01*
X42876333Y-75747676D02*
X42971571Y-75652438D01*
X42971571Y-75652438D02*
X43114428Y-75604819D01*
X43114428Y-75604819D02*
X43209666Y-75604819D01*
X43209666Y-75604819D02*
X43352523Y-75652438D01*
X43352523Y-75652438D02*
X43400142Y-75700057D01*
X44352523Y-76604819D02*
X43781095Y-76604819D01*
X44066809Y-76604819D02*
X44066809Y-75604819D01*
X44066809Y-75604819D02*
X43971571Y-75747676D01*
X43971571Y-75747676D02*
X43876333Y-75842914D01*
X43876333Y-75842914D02*
X43781095Y-75890533D01*
X44685857Y-75604819D02*
X45304904Y-75604819D01*
X45304904Y-75604819D02*
X44971571Y-75985771D01*
X44971571Y-75985771D02*
X45114428Y-75985771D01*
X45114428Y-75985771D02*
X45209666Y-76033390D01*
X45209666Y-76033390D02*
X45257285Y-76081009D01*
X45257285Y-76081009D02*
X45304904Y-76176247D01*
X45304904Y-76176247D02*
X45304904Y-76414342D01*
X45304904Y-76414342D02*
X45257285Y-76509580D01*
X45257285Y-76509580D02*
X45209666Y-76557200D01*
X45209666Y-76557200D02*
X45114428Y-76604819D01*
X45114428Y-76604819D02*
X44828714Y-76604819D01*
X44828714Y-76604819D02*
X44733476Y-76557200D01*
X44733476Y-76557200D02*
X44685857Y-76509580D01*
X65621819Y-67563904D02*
X66431342Y-67563904D01*
X66431342Y-67563904D02*
X66526580Y-67516285D01*
X66526580Y-67516285D02*
X66574200Y-67468666D01*
X66574200Y-67468666D02*
X66621819Y-67373428D01*
X66621819Y-67373428D02*
X66621819Y-67182952D01*
X66621819Y-67182952D02*
X66574200Y-67087714D01*
X66574200Y-67087714D02*
X66526580Y-67040095D01*
X66526580Y-67040095D02*
X66431342Y-66992476D01*
X66431342Y-66992476D02*
X65621819Y-66992476D01*
X65621819Y-66087714D02*
X65621819Y-66278190D01*
X65621819Y-66278190D02*
X65669438Y-66373428D01*
X65669438Y-66373428D02*
X65717057Y-66421047D01*
X65717057Y-66421047D02*
X65859914Y-66516285D01*
X65859914Y-66516285D02*
X66050390Y-66563904D01*
X66050390Y-66563904D02*
X66431342Y-66563904D01*
X66431342Y-66563904D02*
X66526580Y-66516285D01*
X66526580Y-66516285D02*
X66574200Y-66468666D01*
X66574200Y-66468666D02*
X66621819Y-66373428D01*
X66621819Y-66373428D02*
X66621819Y-66182952D01*
X66621819Y-66182952D02*
X66574200Y-66087714D01*
X66574200Y-66087714D02*
X66526580Y-66040095D01*
X66526580Y-66040095D02*
X66431342Y-65992476D01*
X66431342Y-65992476D02*
X66193247Y-65992476D01*
X66193247Y-65992476D02*
X66098009Y-66040095D01*
X66098009Y-66040095D02*
X66050390Y-66087714D01*
X66050390Y-66087714D02*
X66002771Y-66182952D01*
X66002771Y-66182952D02*
X66002771Y-66373428D01*
X66002771Y-66373428D02*
X66050390Y-66468666D01*
X66050390Y-66468666D02*
X66098009Y-66516285D01*
X66098009Y-66516285D02*
X66193247Y-66563904D01*
X72001142Y-71955819D02*
X71667809Y-71479628D01*
X71429714Y-71955819D02*
X71429714Y-70955819D01*
X71429714Y-70955819D02*
X71810666Y-70955819D01*
X71810666Y-70955819D02*
X71905904Y-71003438D01*
X71905904Y-71003438D02*
X71953523Y-71051057D01*
X71953523Y-71051057D02*
X72001142Y-71146295D01*
X72001142Y-71146295D02*
X72001142Y-71289152D01*
X72001142Y-71289152D02*
X71953523Y-71384390D01*
X71953523Y-71384390D02*
X71905904Y-71432009D01*
X71905904Y-71432009D02*
X71810666Y-71479628D01*
X71810666Y-71479628D02*
X71429714Y-71479628D01*
X72953523Y-71955819D02*
X72382095Y-71955819D01*
X72667809Y-71955819D02*
X72667809Y-70955819D01*
X72667809Y-70955819D02*
X72572571Y-71098676D01*
X72572571Y-71098676D02*
X72477333Y-71193914D01*
X72477333Y-71193914D02*
X72382095Y-71241533D01*
X73905904Y-71955819D02*
X73334476Y-71955819D01*
X73620190Y-71955819D02*
X73620190Y-70955819D01*
X73620190Y-70955819D02*
X73524952Y-71098676D01*
X73524952Y-71098676D02*
X73429714Y-71193914D01*
X73429714Y-71193914D02*
X73334476Y-71241533D01*
X44410905Y-45793819D02*
X44410905Y-44793819D01*
X44410905Y-44793819D02*
X44649000Y-44793819D01*
X44649000Y-44793819D02*
X44791857Y-44841438D01*
X44791857Y-44841438D02*
X44887095Y-44936676D01*
X44887095Y-44936676D02*
X44934714Y-45031914D01*
X44934714Y-45031914D02*
X44982333Y-45222390D01*
X44982333Y-45222390D02*
X44982333Y-45365247D01*
X44982333Y-45365247D02*
X44934714Y-45555723D01*
X44934714Y-45555723D02*
X44887095Y-45650961D01*
X44887095Y-45650961D02*
X44791857Y-45746200D01*
X44791857Y-45746200D02*
X44649000Y-45793819D01*
X44649000Y-45793819D02*
X44410905Y-45793819D01*
X45363286Y-44889057D02*
X45410905Y-44841438D01*
X45410905Y-44841438D02*
X45506143Y-44793819D01*
X45506143Y-44793819D02*
X45744238Y-44793819D01*
X45744238Y-44793819D02*
X45839476Y-44841438D01*
X45839476Y-44841438D02*
X45887095Y-44889057D01*
X45887095Y-44889057D02*
X45934714Y-44984295D01*
X45934714Y-44984295D02*
X45934714Y-45079533D01*
X45934714Y-45079533D02*
X45887095Y-45222390D01*
X45887095Y-45222390D02*
X45315667Y-45793819D01*
X45315667Y-45793819D02*
X45934714Y-45793819D01*
X73511580Y-41568666D02*
X73559200Y-41616285D01*
X73559200Y-41616285D02*
X73606819Y-41759142D01*
X73606819Y-41759142D02*
X73606819Y-41854380D01*
X73606819Y-41854380D02*
X73559200Y-41997237D01*
X73559200Y-41997237D02*
X73463961Y-42092475D01*
X73463961Y-42092475D02*
X73368723Y-42140094D01*
X73368723Y-42140094D02*
X73178247Y-42187713D01*
X73178247Y-42187713D02*
X73035390Y-42187713D01*
X73035390Y-42187713D02*
X72844914Y-42140094D01*
X72844914Y-42140094D02*
X72749676Y-42092475D01*
X72749676Y-42092475D02*
X72654438Y-41997237D01*
X72654438Y-41997237D02*
X72606819Y-41854380D01*
X72606819Y-41854380D02*
X72606819Y-41759142D01*
X72606819Y-41759142D02*
X72654438Y-41616285D01*
X72654438Y-41616285D02*
X72702057Y-41568666D01*
X73606819Y-41092475D02*
X73606819Y-40901999D01*
X73606819Y-40901999D02*
X73559200Y-40806761D01*
X73559200Y-40806761D02*
X73511580Y-40759142D01*
X73511580Y-40759142D02*
X73368723Y-40663904D01*
X73368723Y-40663904D02*
X73178247Y-40616285D01*
X73178247Y-40616285D02*
X72797295Y-40616285D01*
X72797295Y-40616285D02*
X72702057Y-40663904D01*
X72702057Y-40663904D02*
X72654438Y-40711523D01*
X72654438Y-40711523D02*
X72606819Y-40806761D01*
X72606819Y-40806761D02*
X72606819Y-40997237D01*
X72606819Y-40997237D02*
X72654438Y-41092475D01*
X72654438Y-41092475D02*
X72702057Y-41140094D01*
X72702057Y-41140094D02*
X72797295Y-41187713D01*
X72797295Y-41187713D02*
X73035390Y-41187713D01*
X73035390Y-41187713D02*
X73130628Y-41140094D01*
X73130628Y-41140094D02*
X73178247Y-41092475D01*
X73178247Y-41092475D02*
X73225866Y-40997237D01*
X73225866Y-40997237D02*
X73225866Y-40806761D01*
X73225866Y-40806761D02*
X73178247Y-40711523D01*
X73178247Y-40711523D02*
X73130628Y-40663904D01*
X73130628Y-40663904D02*
X73035390Y-40616285D01*
X39064958Y-48982520D02*
X39064958Y-47982520D01*
X39064958Y-47982520D02*
X39303053Y-47982520D01*
X39303053Y-47982520D02*
X39445910Y-48030139D01*
X39445910Y-48030139D02*
X39541148Y-48125377D01*
X39541148Y-48125377D02*
X39588767Y-48220615D01*
X39588767Y-48220615D02*
X39636386Y-48411091D01*
X39636386Y-48411091D02*
X39636386Y-48553948D01*
X39636386Y-48553948D02*
X39588767Y-48744424D01*
X39588767Y-48744424D02*
X39541148Y-48839662D01*
X39541148Y-48839662D02*
X39445910Y-48934901D01*
X39445910Y-48934901D02*
X39303053Y-48982520D01*
X39303053Y-48982520D02*
X39064958Y-48982520D01*
X39969720Y-47982520D02*
X40588767Y-47982520D01*
X40588767Y-47982520D02*
X40255434Y-48363472D01*
X40255434Y-48363472D02*
X40398291Y-48363472D01*
X40398291Y-48363472D02*
X40493529Y-48411091D01*
X40493529Y-48411091D02*
X40541148Y-48458710D01*
X40541148Y-48458710D02*
X40588767Y-48553948D01*
X40588767Y-48553948D02*
X40588767Y-48792043D01*
X40588767Y-48792043D02*
X40541148Y-48887281D01*
X40541148Y-48887281D02*
X40493529Y-48934901D01*
X40493529Y-48934901D02*
X40398291Y-48982520D01*
X40398291Y-48982520D02*
X40112577Y-48982520D01*
X40112577Y-48982520D02*
X40017339Y-48934901D01*
X40017339Y-48934901D02*
X39969720Y-48887281D01*
X39316819Y-66460666D02*
X38840628Y-66793999D01*
X39316819Y-67032094D02*
X38316819Y-67032094D01*
X38316819Y-67032094D02*
X38316819Y-66651142D01*
X38316819Y-66651142D02*
X38364438Y-66555904D01*
X38364438Y-66555904D02*
X38412057Y-66508285D01*
X38412057Y-66508285D02*
X38507295Y-66460666D01*
X38507295Y-66460666D02*
X38650152Y-66460666D01*
X38650152Y-66460666D02*
X38745390Y-66508285D01*
X38745390Y-66508285D02*
X38793009Y-66555904D01*
X38793009Y-66555904D02*
X38840628Y-66651142D01*
X38840628Y-66651142D02*
X38840628Y-67032094D01*
X38412057Y-66079713D02*
X38364438Y-66032094D01*
X38364438Y-66032094D02*
X38316819Y-65936856D01*
X38316819Y-65936856D02*
X38316819Y-65698761D01*
X38316819Y-65698761D02*
X38364438Y-65603523D01*
X38364438Y-65603523D02*
X38412057Y-65555904D01*
X38412057Y-65555904D02*
X38507295Y-65508285D01*
X38507295Y-65508285D02*
X38602533Y-65508285D01*
X38602533Y-65508285D02*
X38745390Y-65555904D01*
X38745390Y-65555904D02*
X39316819Y-66127332D01*
X39316819Y-66127332D02*
X39316819Y-65508285D01*
X70209580Y-62364857D02*
X70257200Y-62412476D01*
X70257200Y-62412476D02*
X70304819Y-62555333D01*
X70304819Y-62555333D02*
X70304819Y-62650571D01*
X70304819Y-62650571D02*
X70257200Y-62793428D01*
X70257200Y-62793428D02*
X70161961Y-62888666D01*
X70161961Y-62888666D02*
X70066723Y-62936285D01*
X70066723Y-62936285D02*
X69876247Y-62983904D01*
X69876247Y-62983904D02*
X69733390Y-62983904D01*
X69733390Y-62983904D02*
X69542914Y-62936285D01*
X69542914Y-62936285D02*
X69447676Y-62888666D01*
X69447676Y-62888666D02*
X69352438Y-62793428D01*
X69352438Y-62793428D02*
X69304819Y-62650571D01*
X69304819Y-62650571D02*
X69304819Y-62555333D01*
X69304819Y-62555333D02*
X69352438Y-62412476D01*
X69352438Y-62412476D02*
X69400057Y-62364857D01*
X69400057Y-61983904D02*
X69352438Y-61936285D01*
X69352438Y-61936285D02*
X69304819Y-61841047D01*
X69304819Y-61841047D02*
X69304819Y-61602952D01*
X69304819Y-61602952D02*
X69352438Y-61507714D01*
X69352438Y-61507714D02*
X69400057Y-61460095D01*
X69400057Y-61460095D02*
X69495295Y-61412476D01*
X69495295Y-61412476D02*
X69590533Y-61412476D01*
X69590533Y-61412476D02*
X69733390Y-61460095D01*
X69733390Y-61460095D02*
X70304819Y-62031523D01*
X70304819Y-62031523D02*
X70304819Y-61412476D01*
X69400057Y-61031523D02*
X69352438Y-60983904D01*
X69352438Y-60983904D02*
X69304819Y-60888666D01*
X69304819Y-60888666D02*
X69304819Y-60650571D01*
X69304819Y-60650571D02*
X69352438Y-60555333D01*
X69352438Y-60555333D02*
X69400057Y-60507714D01*
X69400057Y-60507714D02*
X69495295Y-60460095D01*
X69495295Y-60460095D02*
X69590533Y-60460095D01*
X69590533Y-60460095D02*
X69733390Y-60507714D01*
X69733390Y-60507714D02*
X70304819Y-61079142D01*
X70304819Y-61079142D02*
X70304819Y-60460095D01*
X48865260Y-75826857D02*
X48389069Y-76160190D01*
X48865260Y-76398285D02*
X47865260Y-76398285D01*
X47865260Y-76398285D02*
X47865260Y-76017333D01*
X47865260Y-76017333D02*
X47912879Y-75922095D01*
X47912879Y-75922095D02*
X47960498Y-75874476D01*
X47960498Y-75874476D02*
X48055736Y-75826857D01*
X48055736Y-75826857D02*
X48198593Y-75826857D01*
X48198593Y-75826857D02*
X48293831Y-75874476D01*
X48293831Y-75874476D02*
X48341450Y-75922095D01*
X48341450Y-75922095D02*
X48389069Y-76017333D01*
X48389069Y-76017333D02*
X48389069Y-76398285D01*
X48865260Y-74874476D02*
X48865260Y-75445904D01*
X48865260Y-75160190D02*
X47865260Y-75160190D01*
X47865260Y-75160190D02*
X48008117Y-75255428D01*
X48008117Y-75255428D02*
X48103355Y-75350666D01*
X48103355Y-75350666D02*
X48150974Y-75445904D01*
X47865260Y-73969714D02*
X47865260Y-74445904D01*
X47865260Y-74445904D02*
X48341450Y-74493523D01*
X48341450Y-74493523D02*
X48293831Y-74445904D01*
X48293831Y-74445904D02*
X48246212Y-74350666D01*
X48246212Y-74350666D02*
X48246212Y-74112571D01*
X48246212Y-74112571D02*
X48293831Y-74017333D01*
X48293831Y-74017333D02*
X48341450Y-73969714D01*
X48341450Y-73969714D02*
X48436688Y-73922095D01*
X48436688Y-73922095D02*
X48674783Y-73922095D01*
X48674783Y-73922095D02*
X48770021Y-73969714D01*
X48770021Y-73969714D02*
X48817641Y-74017333D01*
X48817641Y-74017333D02*
X48865260Y-74112571D01*
X48865260Y-74112571D02*
X48865260Y-74350666D01*
X48865260Y-74350666D02*
X48817641Y-74445904D01*
X48817641Y-74445904D02*
X48770021Y-74493523D01*
X42283142Y-70050819D02*
X41949809Y-69574628D01*
X41711714Y-70050819D02*
X41711714Y-69050819D01*
X41711714Y-69050819D02*
X42092666Y-69050819D01*
X42092666Y-69050819D02*
X42187904Y-69098438D01*
X42187904Y-69098438D02*
X42235523Y-69146057D01*
X42235523Y-69146057D02*
X42283142Y-69241295D01*
X42283142Y-69241295D02*
X42283142Y-69384152D01*
X42283142Y-69384152D02*
X42235523Y-69479390D01*
X42235523Y-69479390D02*
X42187904Y-69527009D01*
X42187904Y-69527009D02*
X42092666Y-69574628D01*
X42092666Y-69574628D02*
X41711714Y-69574628D01*
X43235523Y-70050819D02*
X42664095Y-70050819D01*
X42949809Y-70050819D02*
X42949809Y-69050819D01*
X42949809Y-69050819D02*
X42854571Y-69193676D01*
X42854571Y-69193676D02*
X42759333Y-69288914D01*
X42759333Y-69288914D02*
X42664095Y-69336533D01*
X43568857Y-69050819D02*
X44187904Y-69050819D01*
X44187904Y-69050819D02*
X43854571Y-69431771D01*
X43854571Y-69431771D02*
X43997428Y-69431771D01*
X43997428Y-69431771D02*
X44092666Y-69479390D01*
X44092666Y-69479390D02*
X44140285Y-69527009D01*
X44140285Y-69527009D02*
X44187904Y-69622247D01*
X44187904Y-69622247D02*
X44187904Y-69860342D01*
X44187904Y-69860342D02*
X44140285Y-69955580D01*
X44140285Y-69955580D02*
X44092666Y-70003200D01*
X44092666Y-70003200D02*
X43997428Y-70050819D01*
X43997428Y-70050819D02*
X43711714Y-70050819D01*
X43711714Y-70050819D02*
X43616476Y-70003200D01*
X43616476Y-70003200D02*
X43568857Y-69955580D01*
X51173142Y-66653580D02*
X51125523Y-66701200D01*
X51125523Y-66701200D02*
X50982666Y-66748819D01*
X50982666Y-66748819D02*
X50887428Y-66748819D01*
X50887428Y-66748819D02*
X50744571Y-66701200D01*
X50744571Y-66701200D02*
X50649333Y-66605961D01*
X50649333Y-66605961D02*
X50601714Y-66510723D01*
X50601714Y-66510723D02*
X50554095Y-66320247D01*
X50554095Y-66320247D02*
X50554095Y-66177390D01*
X50554095Y-66177390D02*
X50601714Y-65986914D01*
X50601714Y-65986914D02*
X50649333Y-65891676D01*
X50649333Y-65891676D02*
X50744571Y-65796438D01*
X50744571Y-65796438D02*
X50887428Y-65748819D01*
X50887428Y-65748819D02*
X50982666Y-65748819D01*
X50982666Y-65748819D02*
X51125523Y-65796438D01*
X51125523Y-65796438D02*
X51173142Y-65844057D01*
X51554095Y-65844057D02*
X51601714Y-65796438D01*
X51601714Y-65796438D02*
X51696952Y-65748819D01*
X51696952Y-65748819D02*
X51935047Y-65748819D01*
X51935047Y-65748819D02*
X52030285Y-65796438D01*
X52030285Y-65796438D02*
X52077904Y-65844057D01*
X52077904Y-65844057D02*
X52125523Y-65939295D01*
X52125523Y-65939295D02*
X52125523Y-66034533D01*
X52125523Y-66034533D02*
X52077904Y-66177390D01*
X52077904Y-66177390D02*
X51506476Y-66748819D01*
X51506476Y-66748819D02*
X52125523Y-66748819D01*
X52744571Y-65748819D02*
X52839809Y-65748819D01*
X52839809Y-65748819D02*
X52935047Y-65796438D01*
X52935047Y-65796438D02*
X52982666Y-65844057D01*
X52982666Y-65844057D02*
X53030285Y-65939295D01*
X53030285Y-65939295D02*
X53077904Y-66129771D01*
X53077904Y-66129771D02*
X53077904Y-66367866D01*
X53077904Y-66367866D02*
X53030285Y-66558342D01*
X53030285Y-66558342D02*
X52982666Y-66653580D01*
X52982666Y-66653580D02*
X52935047Y-66701200D01*
X52935047Y-66701200D02*
X52839809Y-66748819D01*
X52839809Y-66748819D02*
X52744571Y-66748819D01*
X52744571Y-66748819D02*
X52649333Y-66701200D01*
X52649333Y-66701200D02*
X52601714Y-66653580D01*
X52601714Y-66653580D02*
X52554095Y-66558342D01*
X52554095Y-66558342D02*
X52506476Y-66367866D01*
X52506476Y-66367866D02*
X52506476Y-66129771D01*
X52506476Y-66129771D02*
X52554095Y-65939295D01*
X52554095Y-65939295D02*
X52601714Y-65844057D01*
X52601714Y-65844057D02*
X52649333Y-65796438D01*
X52649333Y-65796438D02*
X52744571Y-65748819D01*
X55459333Y-51508819D02*
X55126000Y-51032628D01*
X54887905Y-51508819D02*
X54887905Y-50508819D01*
X54887905Y-50508819D02*
X55268857Y-50508819D01*
X55268857Y-50508819D02*
X55364095Y-50556438D01*
X55364095Y-50556438D02*
X55411714Y-50604057D01*
X55411714Y-50604057D02*
X55459333Y-50699295D01*
X55459333Y-50699295D02*
X55459333Y-50842152D01*
X55459333Y-50842152D02*
X55411714Y-50937390D01*
X55411714Y-50937390D02*
X55364095Y-50985009D01*
X55364095Y-50985009D02*
X55268857Y-51032628D01*
X55268857Y-51032628D02*
X54887905Y-51032628D01*
X55935524Y-51508819D02*
X56126000Y-51508819D01*
X56126000Y-51508819D02*
X56221238Y-51461200D01*
X56221238Y-51461200D02*
X56268857Y-51413580D01*
X56268857Y-51413580D02*
X56364095Y-51270723D01*
X56364095Y-51270723D02*
X56411714Y-51080247D01*
X56411714Y-51080247D02*
X56411714Y-50699295D01*
X56411714Y-50699295D02*
X56364095Y-50604057D01*
X56364095Y-50604057D02*
X56316476Y-50556438D01*
X56316476Y-50556438D02*
X56221238Y-50508819D01*
X56221238Y-50508819D02*
X56030762Y-50508819D01*
X56030762Y-50508819D02*
X55935524Y-50556438D01*
X55935524Y-50556438D02*
X55887905Y-50604057D01*
X55887905Y-50604057D02*
X55840286Y-50699295D01*
X55840286Y-50699295D02*
X55840286Y-50937390D01*
X55840286Y-50937390D02*
X55887905Y-51032628D01*
X55887905Y-51032628D02*
X55935524Y-51080247D01*
X55935524Y-51080247D02*
X56030762Y-51127866D01*
X56030762Y-51127866D02*
X56221238Y-51127866D01*
X56221238Y-51127866D02*
X56316476Y-51080247D01*
X56316476Y-51080247D02*
X56364095Y-51032628D01*
X56364095Y-51032628D02*
X56411714Y-50937390D01*
X45077142Y-70050819D02*
X44743809Y-69574628D01*
X44505714Y-70050819D02*
X44505714Y-69050819D01*
X44505714Y-69050819D02*
X44886666Y-69050819D01*
X44886666Y-69050819D02*
X44981904Y-69098438D01*
X44981904Y-69098438D02*
X45029523Y-69146057D01*
X45029523Y-69146057D02*
X45077142Y-69241295D01*
X45077142Y-69241295D02*
X45077142Y-69384152D01*
X45077142Y-69384152D02*
X45029523Y-69479390D01*
X45029523Y-69479390D02*
X44981904Y-69527009D01*
X44981904Y-69527009D02*
X44886666Y-69574628D01*
X44886666Y-69574628D02*
X44505714Y-69574628D01*
X46029523Y-70050819D02*
X45458095Y-70050819D01*
X45743809Y-70050819D02*
X45743809Y-69050819D01*
X45743809Y-69050819D02*
X45648571Y-69193676D01*
X45648571Y-69193676D02*
X45553333Y-69288914D01*
X45553333Y-69288914D02*
X45458095Y-69336533D01*
X46886666Y-69384152D02*
X46886666Y-70050819D01*
X46648571Y-69003200D02*
X46410476Y-69717485D01*
X46410476Y-69717485D02*
X47029523Y-69717485D01*
X40491580Y-74810857D02*
X40539200Y-74858476D01*
X40539200Y-74858476D02*
X40586819Y-75001333D01*
X40586819Y-75001333D02*
X40586819Y-75096571D01*
X40586819Y-75096571D02*
X40539200Y-75239428D01*
X40539200Y-75239428D02*
X40443961Y-75334666D01*
X40443961Y-75334666D02*
X40348723Y-75382285D01*
X40348723Y-75382285D02*
X40158247Y-75429904D01*
X40158247Y-75429904D02*
X40015390Y-75429904D01*
X40015390Y-75429904D02*
X39824914Y-75382285D01*
X39824914Y-75382285D02*
X39729676Y-75334666D01*
X39729676Y-75334666D02*
X39634438Y-75239428D01*
X39634438Y-75239428D02*
X39586819Y-75096571D01*
X39586819Y-75096571D02*
X39586819Y-75001333D01*
X39586819Y-75001333D02*
X39634438Y-74858476D01*
X39634438Y-74858476D02*
X39682057Y-74810857D01*
X40586819Y-73858476D02*
X40586819Y-74429904D01*
X40586819Y-74144190D02*
X39586819Y-74144190D01*
X39586819Y-74144190D02*
X39729676Y-74239428D01*
X39729676Y-74239428D02*
X39824914Y-74334666D01*
X39824914Y-74334666D02*
X39872533Y-74429904D01*
X40586819Y-72906095D02*
X40586819Y-73477523D01*
X40586819Y-73191809D02*
X39586819Y-73191809D01*
X39586819Y-73191809D02*
X39729676Y-73287047D01*
X39729676Y-73287047D02*
X39824914Y-73382285D01*
X39824914Y-73382285D02*
X39872533Y-73477523D01*
X59015333Y-71574819D02*
X58682000Y-71098628D01*
X58443905Y-71574819D02*
X58443905Y-70574819D01*
X58443905Y-70574819D02*
X58824857Y-70574819D01*
X58824857Y-70574819D02*
X58920095Y-70622438D01*
X58920095Y-70622438D02*
X58967714Y-70670057D01*
X58967714Y-70670057D02*
X59015333Y-70765295D01*
X59015333Y-70765295D02*
X59015333Y-70908152D01*
X59015333Y-70908152D02*
X58967714Y-71003390D01*
X58967714Y-71003390D02*
X58920095Y-71051009D01*
X58920095Y-71051009D02*
X58824857Y-71098628D01*
X58824857Y-71098628D02*
X58443905Y-71098628D01*
X59920095Y-70574819D02*
X59443905Y-70574819D01*
X59443905Y-70574819D02*
X59396286Y-71051009D01*
X59396286Y-71051009D02*
X59443905Y-71003390D01*
X59443905Y-71003390D02*
X59539143Y-70955771D01*
X59539143Y-70955771D02*
X59777238Y-70955771D01*
X59777238Y-70955771D02*
X59872476Y-71003390D01*
X59872476Y-71003390D02*
X59920095Y-71051009D01*
X59920095Y-71051009D02*
X59967714Y-71146247D01*
X59967714Y-71146247D02*
X59967714Y-71384342D01*
X59967714Y-71384342D02*
X59920095Y-71479580D01*
X59920095Y-71479580D02*
X59872476Y-71527200D01*
X59872476Y-71527200D02*
X59777238Y-71574819D01*
X59777238Y-71574819D02*
X59539143Y-71574819D01*
X59539143Y-71574819D02*
X59443905Y-71527200D01*
X59443905Y-71527200D02*
X59396286Y-71479580D01*
X53817142Y-70054819D02*
X53483809Y-69578628D01*
X53245714Y-70054819D02*
X53245714Y-69054819D01*
X53245714Y-69054819D02*
X53626666Y-69054819D01*
X53626666Y-69054819D02*
X53721904Y-69102438D01*
X53721904Y-69102438D02*
X53769523Y-69150057D01*
X53769523Y-69150057D02*
X53817142Y-69245295D01*
X53817142Y-69245295D02*
X53817142Y-69388152D01*
X53817142Y-69388152D02*
X53769523Y-69483390D01*
X53769523Y-69483390D02*
X53721904Y-69531009D01*
X53721904Y-69531009D02*
X53626666Y-69578628D01*
X53626666Y-69578628D02*
X53245714Y-69578628D01*
X54769523Y-70054819D02*
X54198095Y-70054819D01*
X54483809Y-70054819D02*
X54483809Y-69054819D01*
X54483809Y-69054819D02*
X54388571Y-69197676D01*
X54388571Y-69197676D02*
X54293333Y-69292914D01*
X54293333Y-69292914D02*
X54198095Y-69340533D01*
X55340952Y-69483390D02*
X55245714Y-69435771D01*
X55245714Y-69435771D02*
X55198095Y-69388152D01*
X55198095Y-69388152D02*
X55150476Y-69292914D01*
X55150476Y-69292914D02*
X55150476Y-69245295D01*
X55150476Y-69245295D02*
X55198095Y-69150057D01*
X55198095Y-69150057D02*
X55245714Y-69102438D01*
X55245714Y-69102438D02*
X55340952Y-69054819D01*
X55340952Y-69054819D02*
X55531428Y-69054819D01*
X55531428Y-69054819D02*
X55626666Y-69102438D01*
X55626666Y-69102438D02*
X55674285Y-69150057D01*
X55674285Y-69150057D02*
X55721904Y-69245295D01*
X55721904Y-69245295D02*
X55721904Y-69292914D01*
X55721904Y-69292914D02*
X55674285Y-69388152D01*
X55674285Y-69388152D02*
X55626666Y-69435771D01*
X55626666Y-69435771D02*
X55531428Y-69483390D01*
X55531428Y-69483390D02*
X55340952Y-69483390D01*
X55340952Y-69483390D02*
X55245714Y-69531009D01*
X55245714Y-69531009D02*
X55198095Y-69578628D01*
X55198095Y-69578628D02*
X55150476Y-69673866D01*
X55150476Y-69673866D02*
X55150476Y-69864342D01*
X55150476Y-69864342D02*
X55198095Y-69959580D01*
X55198095Y-69959580D02*
X55245714Y-70007200D01*
X55245714Y-70007200D02*
X55340952Y-70054819D01*
X55340952Y-70054819D02*
X55531428Y-70054819D01*
X55531428Y-70054819D02*
X55626666Y-70007200D01*
X55626666Y-70007200D02*
X55674285Y-69959580D01*
X55674285Y-69959580D02*
X55721904Y-69864342D01*
X55721904Y-69864342D02*
X55721904Y-69673866D01*
X55721904Y-69673866D02*
X55674285Y-69578628D01*
X55674285Y-69578628D02*
X55626666Y-69531009D01*
X55626666Y-69531009D02*
X55531428Y-69483390D01*
X51969200Y-44513332D02*
X52016819Y-44370475D01*
X52016819Y-44370475D02*
X52016819Y-44132380D01*
X52016819Y-44132380D02*
X51969200Y-44037142D01*
X51969200Y-44037142D02*
X51921580Y-43989523D01*
X51921580Y-43989523D02*
X51826342Y-43941904D01*
X51826342Y-43941904D02*
X51731104Y-43941904D01*
X51731104Y-43941904D02*
X51635866Y-43989523D01*
X51635866Y-43989523D02*
X51588247Y-44037142D01*
X51588247Y-44037142D02*
X51540628Y-44132380D01*
X51540628Y-44132380D02*
X51493009Y-44322856D01*
X51493009Y-44322856D02*
X51445390Y-44418094D01*
X51445390Y-44418094D02*
X51397771Y-44465713D01*
X51397771Y-44465713D02*
X51302533Y-44513332D01*
X51302533Y-44513332D02*
X51207295Y-44513332D01*
X51207295Y-44513332D02*
X51112057Y-44465713D01*
X51112057Y-44465713D02*
X51064438Y-44418094D01*
X51064438Y-44418094D02*
X51016819Y-44322856D01*
X51016819Y-44322856D02*
X51016819Y-44084761D01*
X51016819Y-44084761D02*
X51064438Y-43941904D01*
X51016819Y-43608570D02*
X52016819Y-43370475D01*
X52016819Y-43370475D02*
X51302533Y-43179999D01*
X51302533Y-43179999D02*
X52016819Y-42989523D01*
X52016819Y-42989523D02*
X51016819Y-42751428D01*
X51112057Y-42418094D02*
X51064438Y-42370475D01*
X51064438Y-42370475D02*
X51016819Y-42275237D01*
X51016819Y-42275237D02*
X51016819Y-42037142D01*
X51016819Y-42037142D02*
X51064438Y-41941904D01*
X51064438Y-41941904D02*
X51112057Y-41894285D01*
X51112057Y-41894285D02*
X51207295Y-41846666D01*
X51207295Y-41846666D02*
X51302533Y-41846666D01*
X51302533Y-41846666D02*
X51445390Y-41894285D01*
X51445390Y-41894285D02*
X52016819Y-42465713D01*
X52016819Y-42465713D02*
X52016819Y-41846666D01*
X60221905Y-38852819D02*
X60221905Y-37852819D01*
X60221905Y-37852819D02*
X60460000Y-37852819D01*
X60460000Y-37852819D02*
X60602857Y-37900438D01*
X60602857Y-37900438D02*
X60698095Y-37995676D01*
X60698095Y-37995676D02*
X60745714Y-38090914D01*
X60745714Y-38090914D02*
X60793333Y-38281390D01*
X60793333Y-38281390D02*
X60793333Y-38424247D01*
X60793333Y-38424247D02*
X60745714Y-38614723D01*
X60745714Y-38614723D02*
X60698095Y-38709961D01*
X60698095Y-38709961D02*
X60602857Y-38805200D01*
X60602857Y-38805200D02*
X60460000Y-38852819D01*
X60460000Y-38852819D02*
X60221905Y-38852819D01*
X61698095Y-37852819D02*
X61221905Y-37852819D01*
X61221905Y-37852819D02*
X61174286Y-38329009D01*
X61174286Y-38329009D02*
X61221905Y-38281390D01*
X61221905Y-38281390D02*
X61317143Y-38233771D01*
X61317143Y-38233771D02*
X61555238Y-38233771D01*
X61555238Y-38233771D02*
X61650476Y-38281390D01*
X61650476Y-38281390D02*
X61698095Y-38329009D01*
X61698095Y-38329009D02*
X61745714Y-38424247D01*
X61745714Y-38424247D02*
X61745714Y-38662342D01*
X61745714Y-38662342D02*
X61698095Y-38757580D01*
X61698095Y-38757580D02*
X61650476Y-38805200D01*
X61650476Y-38805200D02*
X61555238Y-38852819D01*
X61555238Y-38852819D02*
X61317143Y-38852819D01*
X61317143Y-38852819D02*
X61221905Y-38805200D01*
X61221905Y-38805200D02*
X61174286Y-38757580D01*
X61245714Y-41602819D02*
X60674286Y-41602819D01*
X60960000Y-41602819D02*
X60960000Y-40602819D01*
X60960000Y-40602819D02*
X60864762Y-40745676D01*
X60864762Y-40745676D02*
X60769524Y-40840914D01*
X60769524Y-40840914D02*
X60674286Y-40888533D01*
X46586843Y-51137215D02*
X46586843Y-50137215D01*
X46586843Y-50137215D02*
X46824938Y-50137215D01*
X46824938Y-50137215D02*
X46967795Y-50184834D01*
X46967795Y-50184834D02*
X47063033Y-50280072D01*
X47063033Y-50280072D02*
X47110652Y-50375310D01*
X47110652Y-50375310D02*
X47158271Y-50565786D01*
X47158271Y-50565786D02*
X47158271Y-50708643D01*
X47158271Y-50708643D02*
X47110652Y-50899119D01*
X47110652Y-50899119D02*
X47063033Y-50994357D01*
X47063033Y-50994357D02*
X46967795Y-51089596D01*
X46967795Y-51089596D02*
X46824938Y-51137215D01*
X46824938Y-51137215D02*
X46586843Y-51137215D01*
X48015414Y-50470548D02*
X48015414Y-51137215D01*
X47777319Y-50089596D02*
X47539224Y-50803881D01*
X47539224Y-50803881D02*
X48158271Y-50803881D01*
X26985295Y-53949523D02*
X27632914Y-53949523D01*
X27632914Y-53949523D02*
X27709104Y-53911428D01*
X27709104Y-53911428D02*
X27747200Y-53873333D01*
X27747200Y-53873333D02*
X27785295Y-53797142D01*
X27785295Y-53797142D02*
X27785295Y-53644761D01*
X27785295Y-53644761D02*
X27747200Y-53568571D01*
X27747200Y-53568571D02*
X27709104Y-53530476D01*
X27709104Y-53530476D02*
X27632914Y-53492380D01*
X27632914Y-53492380D02*
X26985295Y-53492380D01*
X26985295Y-53187619D02*
X26985295Y-52654285D01*
X26985295Y-52654285D02*
X27785295Y-52997143D01*
X50492819Y-75826857D02*
X50016628Y-76160190D01*
X50492819Y-76398285D02*
X49492819Y-76398285D01*
X49492819Y-76398285D02*
X49492819Y-76017333D01*
X49492819Y-76017333D02*
X49540438Y-75922095D01*
X49540438Y-75922095D02*
X49588057Y-75874476D01*
X49588057Y-75874476D02*
X49683295Y-75826857D01*
X49683295Y-75826857D02*
X49826152Y-75826857D01*
X49826152Y-75826857D02*
X49921390Y-75874476D01*
X49921390Y-75874476D02*
X49969009Y-75922095D01*
X49969009Y-75922095D02*
X50016628Y-76017333D01*
X50016628Y-76017333D02*
X50016628Y-76398285D01*
X50492819Y-74874476D02*
X50492819Y-75445904D01*
X50492819Y-75160190D02*
X49492819Y-75160190D01*
X49492819Y-75160190D02*
X49635676Y-75255428D01*
X49635676Y-75255428D02*
X49730914Y-75350666D01*
X49730914Y-75350666D02*
X49778533Y-75445904D01*
X50492819Y-74398285D02*
X50492819Y-74207809D01*
X50492819Y-74207809D02*
X50445200Y-74112571D01*
X50445200Y-74112571D02*
X50397580Y-74064952D01*
X50397580Y-74064952D02*
X50254723Y-73969714D01*
X50254723Y-73969714D02*
X50064247Y-73922095D01*
X50064247Y-73922095D02*
X49683295Y-73922095D01*
X49683295Y-73922095D02*
X49588057Y-73969714D01*
X49588057Y-73969714D02*
X49540438Y-74017333D01*
X49540438Y-74017333D02*
X49492819Y-74112571D01*
X49492819Y-74112571D02*
X49492819Y-74303047D01*
X49492819Y-74303047D02*
X49540438Y-74398285D01*
X49540438Y-74398285D02*
X49588057Y-74445904D01*
X49588057Y-74445904D02*
X49683295Y-74493523D01*
X49683295Y-74493523D02*
X49921390Y-74493523D01*
X49921390Y-74493523D02*
X50016628Y-74445904D01*
X50016628Y-74445904D02*
X50064247Y-74398285D01*
X50064247Y-74398285D02*
X50111866Y-74303047D01*
X50111866Y-74303047D02*
X50111866Y-74112571D01*
X50111866Y-74112571D02*
X50064247Y-74017333D01*
X50064247Y-74017333D02*
X50016628Y-73969714D01*
X50016628Y-73969714D02*
X49921390Y-73922095D01*
X59555142Y-80210819D02*
X59221809Y-79734628D01*
X58983714Y-80210819D02*
X58983714Y-79210819D01*
X58983714Y-79210819D02*
X59364666Y-79210819D01*
X59364666Y-79210819D02*
X59459904Y-79258438D01*
X59459904Y-79258438D02*
X59507523Y-79306057D01*
X59507523Y-79306057D02*
X59555142Y-79401295D01*
X59555142Y-79401295D02*
X59555142Y-79544152D01*
X59555142Y-79544152D02*
X59507523Y-79639390D01*
X59507523Y-79639390D02*
X59459904Y-79687009D01*
X59459904Y-79687009D02*
X59364666Y-79734628D01*
X59364666Y-79734628D02*
X58983714Y-79734628D01*
X60507523Y-80210819D02*
X59936095Y-80210819D01*
X60221809Y-80210819D02*
X60221809Y-79210819D01*
X60221809Y-79210819D02*
X60126571Y-79353676D01*
X60126571Y-79353676D02*
X60031333Y-79448914D01*
X60031333Y-79448914D02*
X59936095Y-79496533D01*
X61364666Y-79210819D02*
X61174190Y-79210819D01*
X61174190Y-79210819D02*
X61078952Y-79258438D01*
X61078952Y-79258438D02*
X61031333Y-79306057D01*
X61031333Y-79306057D02*
X60936095Y-79448914D01*
X60936095Y-79448914D02*
X60888476Y-79639390D01*
X60888476Y-79639390D02*
X60888476Y-80020342D01*
X60888476Y-80020342D02*
X60936095Y-80115580D01*
X60936095Y-80115580D02*
X60983714Y-80163200D01*
X60983714Y-80163200D02*
X61078952Y-80210819D01*
X61078952Y-80210819D02*
X61269428Y-80210819D01*
X61269428Y-80210819D02*
X61364666Y-80163200D01*
X61364666Y-80163200D02*
X61412285Y-80115580D01*
X61412285Y-80115580D02*
X61459904Y-80020342D01*
X61459904Y-80020342D02*
X61459904Y-79782247D01*
X61459904Y-79782247D02*
X61412285Y-79687009D01*
X61412285Y-79687009D02*
X61364666Y-79639390D01*
X61364666Y-79639390D02*
X61269428Y-79591771D01*
X61269428Y-79591771D02*
X61078952Y-79591771D01*
X61078952Y-79591771D02*
X60983714Y-79639390D01*
X60983714Y-79639390D02*
X60936095Y-79687009D01*
X60936095Y-79687009D02*
X60888476Y-79782247D01*
X68779580Y-42044857D02*
X68827200Y-42092476D01*
X68827200Y-42092476D02*
X68874819Y-42235333D01*
X68874819Y-42235333D02*
X68874819Y-42330571D01*
X68874819Y-42330571D02*
X68827200Y-42473428D01*
X68827200Y-42473428D02*
X68731961Y-42568666D01*
X68731961Y-42568666D02*
X68636723Y-42616285D01*
X68636723Y-42616285D02*
X68446247Y-42663904D01*
X68446247Y-42663904D02*
X68303390Y-42663904D01*
X68303390Y-42663904D02*
X68112914Y-42616285D01*
X68112914Y-42616285D02*
X68017676Y-42568666D01*
X68017676Y-42568666D02*
X67922438Y-42473428D01*
X67922438Y-42473428D02*
X67874819Y-42330571D01*
X67874819Y-42330571D02*
X67874819Y-42235333D01*
X67874819Y-42235333D02*
X67922438Y-42092476D01*
X67922438Y-42092476D02*
X67970057Y-42044857D01*
X68874819Y-41092476D02*
X68874819Y-41663904D01*
X68874819Y-41378190D02*
X67874819Y-41378190D01*
X67874819Y-41378190D02*
X68017676Y-41473428D01*
X68017676Y-41473428D02*
X68112914Y-41568666D01*
X68112914Y-41568666D02*
X68160533Y-41663904D01*
X67874819Y-40473428D02*
X67874819Y-40378190D01*
X67874819Y-40378190D02*
X67922438Y-40282952D01*
X67922438Y-40282952D02*
X67970057Y-40235333D01*
X67970057Y-40235333D02*
X68065295Y-40187714D01*
X68065295Y-40187714D02*
X68255771Y-40140095D01*
X68255771Y-40140095D02*
X68493866Y-40140095D01*
X68493866Y-40140095D02*
X68684342Y-40187714D01*
X68684342Y-40187714D02*
X68779580Y-40235333D01*
X68779580Y-40235333D02*
X68827200Y-40282952D01*
X68827200Y-40282952D02*
X68874819Y-40378190D01*
X68874819Y-40378190D02*
X68874819Y-40473428D01*
X68874819Y-40473428D02*
X68827200Y-40568666D01*
X68827200Y-40568666D02*
X68779580Y-40616285D01*
X68779580Y-40616285D02*
X68684342Y-40663904D01*
X68684342Y-40663904D02*
X68493866Y-40711523D01*
X68493866Y-40711523D02*
X68255771Y-40711523D01*
X68255771Y-40711523D02*
X68065295Y-40663904D01*
X68065295Y-40663904D02*
X67970057Y-40616285D01*
X67970057Y-40616285D02*
X67922438Y-40568666D01*
X67922438Y-40568666D02*
X67874819Y-40473428D01*
X57269142Y-68177580D02*
X57221523Y-68225200D01*
X57221523Y-68225200D02*
X57078666Y-68272819D01*
X57078666Y-68272819D02*
X56983428Y-68272819D01*
X56983428Y-68272819D02*
X56840571Y-68225200D01*
X56840571Y-68225200D02*
X56745333Y-68129961D01*
X56745333Y-68129961D02*
X56697714Y-68034723D01*
X56697714Y-68034723D02*
X56650095Y-67844247D01*
X56650095Y-67844247D02*
X56650095Y-67701390D01*
X56650095Y-67701390D02*
X56697714Y-67510914D01*
X56697714Y-67510914D02*
X56745333Y-67415676D01*
X56745333Y-67415676D02*
X56840571Y-67320438D01*
X56840571Y-67320438D02*
X56983428Y-67272819D01*
X56983428Y-67272819D02*
X57078666Y-67272819D01*
X57078666Y-67272819D02*
X57221523Y-67320438D01*
X57221523Y-67320438D02*
X57269142Y-67368057D01*
X57650095Y-67368057D02*
X57697714Y-67320438D01*
X57697714Y-67320438D02*
X57792952Y-67272819D01*
X57792952Y-67272819D02*
X58031047Y-67272819D01*
X58031047Y-67272819D02*
X58126285Y-67320438D01*
X58126285Y-67320438D02*
X58173904Y-67368057D01*
X58173904Y-67368057D02*
X58221523Y-67463295D01*
X58221523Y-67463295D02*
X58221523Y-67558533D01*
X58221523Y-67558533D02*
X58173904Y-67701390D01*
X58173904Y-67701390D02*
X57602476Y-68272819D01*
X57602476Y-68272819D02*
X58221523Y-68272819D01*
X58554857Y-67272819D02*
X59173904Y-67272819D01*
X59173904Y-67272819D02*
X58840571Y-67653771D01*
X58840571Y-67653771D02*
X58983428Y-67653771D01*
X58983428Y-67653771D02*
X59078666Y-67701390D01*
X59078666Y-67701390D02*
X59126285Y-67749009D01*
X59126285Y-67749009D02*
X59173904Y-67844247D01*
X59173904Y-67844247D02*
X59173904Y-68082342D01*
X59173904Y-68082342D02*
X59126285Y-68177580D01*
X59126285Y-68177580D02*
X59078666Y-68225200D01*
X59078666Y-68225200D02*
X58983428Y-68272819D01*
X58983428Y-68272819D02*
X58697714Y-68272819D01*
X58697714Y-68272819D02*
X58602476Y-68225200D01*
X58602476Y-68225200D02*
X58554857Y-68177580D01*
X61690580Y-68186357D02*
X61738200Y-68233976D01*
X61738200Y-68233976D02*
X61785819Y-68376833D01*
X61785819Y-68376833D02*
X61785819Y-68472071D01*
X61785819Y-68472071D02*
X61738200Y-68614928D01*
X61738200Y-68614928D02*
X61642961Y-68710166D01*
X61642961Y-68710166D02*
X61547723Y-68757785D01*
X61547723Y-68757785D02*
X61357247Y-68805404D01*
X61357247Y-68805404D02*
X61214390Y-68805404D01*
X61214390Y-68805404D02*
X61023914Y-68757785D01*
X61023914Y-68757785D02*
X60928676Y-68710166D01*
X60928676Y-68710166D02*
X60833438Y-68614928D01*
X60833438Y-68614928D02*
X60785819Y-68472071D01*
X60785819Y-68472071D02*
X60785819Y-68376833D01*
X60785819Y-68376833D02*
X60833438Y-68233976D01*
X60833438Y-68233976D02*
X60881057Y-68186357D01*
X60881057Y-67805404D02*
X60833438Y-67757785D01*
X60833438Y-67757785D02*
X60785819Y-67662547D01*
X60785819Y-67662547D02*
X60785819Y-67424452D01*
X60785819Y-67424452D02*
X60833438Y-67329214D01*
X60833438Y-67329214D02*
X60881057Y-67281595D01*
X60881057Y-67281595D02*
X60976295Y-67233976D01*
X60976295Y-67233976D02*
X61071533Y-67233976D01*
X61071533Y-67233976D02*
X61214390Y-67281595D01*
X61214390Y-67281595D02*
X61785819Y-67853023D01*
X61785819Y-67853023D02*
X61785819Y-67233976D01*
X61119152Y-66376833D02*
X61785819Y-66376833D01*
X60738200Y-66614928D02*
X61452485Y-66853023D01*
X61452485Y-66853023D02*
X61452485Y-66233976D01*
X51170923Y-51381819D02*
X50837590Y-50905628D01*
X50599495Y-51381819D02*
X50599495Y-50381819D01*
X50599495Y-50381819D02*
X50980447Y-50381819D01*
X50980447Y-50381819D02*
X51075685Y-50429438D01*
X51075685Y-50429438D02*
X51123304Y-50477057D01*
X51123304Y-50477057D02*
X51170923Y-50572295D01*
X51170923Y-50572295D02*
X51170923Y-50715152D01*
X51170923Y-50715152D02*
X51123304Y-50810390D01*
X51123304Y-50810390D02*
X51075685Y-50858009D01*
X51075685Y-50858009D02*
X50980447Y-50905628D01*
X50980447Y-50905628D02*
X50599495Y-50905628D01*
X52123304Y-51381819D02*
X51551876Y-51381819D01*
X51837590Y-51381819D02*
X51837590Y-50381819D01*
X51837590Y-50381819D02*
X51742352Y-50524676D01*
X51742352Y-50524676D02*
X51647114Y-50619914D01*
X51647114Y-50619914D02*
X51551876Y-50667533D01*
X52742352Y-50381819D02*
X52837590Y-50381819D01*
X52837590Y-50381819D02*
X52932828Y-50429438D01*
X52932828Y-50429438D02*
X52980447Y-50477057D01*
X52980447Y-50477057D02*
X53028066Y-50572295D01*
X53028066Y-50572295D02*
X53075685Y-50762771D01*
X53075685Y-50762771D02*
X53075685Y-51000866D01*
X53075685Y-51000866D02*
X53028066Y-51191342D01*
X53028066Y-51191342D02*
X52980447Y-51286580D01*
X52980447Y-51286580D02*
X52932828Y-51334200D01*
X52932828Y-51334200D02*
X52837590Y-51381819D01*
X52837590Y-51381819D02*
X52742352Y-51381819D01*
X52742352Y-51381819D02*
X52647114Y-51334200D01*
X52647114Y-51334200D02*
X52599495Y-51286580D01*
X52599495Y-51286580D02*
X52551876Y-51191342D01*
X52551876Y-51191342D02*
X52504257Y-51000866D01*
X52504257Y-51000866D02*
X52504257Y-50762771D01*
X52504257Y-50762771D02*
X52551876Y-50572295D01*
X52551876Y-50572295D02*
X52599495Y-50477057D01*
X52599495Y-50477057D02*
X52647114Y-50429438D01*
X52647114Y-50429438D02*
X52742352Y-50381819D01*
X36853905Y-50379819D02*
X36853905Y-49379819D01*
X36853905Y-49379819D02*
X37092000Y-49379819D01*
X37092000Y-49379819D02*
X37234857Y-49427438D01*
X37234857Y-49427438D02*
X37330095Y-49522676D01*
X37330095Y-49522676D02*
X37377714Y-49617914D01*
X37377714Y-49617914D02*
X37425333Y-49808390D01*
X37425333Y-49808390D02*
X37425333Y-49951247D01*
X37425333Y-49951247D02*
X37377714Y-50141723D01*
X37377714Y-50141723D02*
X37330095Y-50236961D01*
X37330095Y-50236961D02*
X37234857Y-50332200D01*
X37234857Y-50332200D02*
X37092000Y-50379819D01*
X37092000Y-50379819D02*
X36853905Y-50379819D01*
X38377714Y-50379819D02*
X37806286Y-50379819D01*
X38092000Y-50379819D02*
X38092000Y-49379819D01*
X38092000Y-49379819D02*
X37996762Y-49522676D01*
X37996762Y-49522676D02*
X37901524Y-49617914D01*
X37901524Y-49617914D02*
X37806286Y-49665533D01*
D14*
X33468000Y-53594000D02*
X33468000Y-68894000D01*
X33468000Y-53594000D02*
X36128000Y-53594000D01*
X33468000Y-68894000D02*
X36128000Y-68894000D01*
X34798000Y-50994000D02*
X36128000Y-50994000D01*
X36128000Y-50994000D02*
X36128000Y-52324000D01*
X36128000Y-53594000D02*
X36128000Y-68894000D01*
X60484724Y-62357500D02*
X59975276Y-62357500D01*
X60484724Y-63402500D02*
X59975276Y-63402500D01*
X67879733Y-72855500D02*
X68172267Y-72855500D01*
X67879733Y-73875500D02*
X68172267Y-73875500D01*
X62101000Y-63661233D02*
X62101000Y-63953767D01*
X63121000Y-63661233D02*
X63121000Y-63953767D01*
X48914267Y-68832000D02*
X48621733Y-68832000D01*
X48914267Y-69852000D02*
X48621733Y-69852000D01*
X55696267Y-46226000D02*
X55403733Y-46226000D01*
X55696267Y-47246000D02*
X55403733Y-47246000D01*
X52252000Y-79101733D02*
X52252000Y-79394267D01*
X53272000Y-79101733D02*
X53272000Y-79394267D01*
X43867500Y-41654724D02*
X43867500Y-41145276D01*
X44912500Y-41654724D02*
X44912500Y-41145276D01*
X22214000Y-57365833D02*
X22214000Y-57658367D01*
X23234000Y-57365833D02*
X23234000Y-57658367D01*
X33532000Y-41124000D02*
X33532000Y-42824000D01*
X42872000Y-41124000D02*
X42872000Y-42824000D01*
X51415733Y-45972000D02*
X51708267Y-45972000D01*
X51415733Y-46992000D02*
X51708267Y-46992000D01*
X22938000Y-53361733D02*
X22938000Y-53654267D01*
X23958000Y-53361733D02*
X23958000Y-53654267D01*
X70864000Y-65170267D02*
X70864000Y-64877733D01*
X71884000Y-65170267D02*
X71884000Y-64877733D01*
X62074724Y-60747500D02*
X61565276Y-60747500D01*
X62074724Y-61792500D02*
X61565276Y-61792500D01*
X39725000Y-69002000D02*
X39075000Y-69002000D01*
X39725000Y-69002000D02*
X40375000Y-69002000D01*
X39725000Y-72122000D02*
X39075000Y-72122000D01*
X39725000Y-72122000D02*
X40375000Y-72122000D01*
X41127500Y-72402000D02*
X40647500Y-72402000D01*
X40887500Y-72072000D01*
X41127500Y-72402000D01*
G36*
X41127500Y-72402000D02*
G01*
X40647500Y-72402000D01*
X40887500Y-72072000D01*
X41127500Y-72402000D01*
G37*
D15*
X59951000Y-63819000D02*
X57651000Y-63819000D01*
X59951000Y-66229000D02*
X57651000Y-66229000D01*
D13*
X61426000Y-65774000D02*
G75*
G02*
X61226000Y-65774000I-100000J0D01*
G01*
X61226000Y-65774000D02*
G75*
G02*
X61426000Y-65774000I100000J0D01*
G01*
D14*
X61940000Y-81930000D02*
X61940000Y-75610000D01*
X75220000Y-75610000D02*
X61940000Y-75610000D01*
X75220000Y-76170000D02*
X61940000Y-76170000D01*
X75220000Y-81470000D02*
X61940000Y-81470000D01*
X75220000Y-81930000D02*
X61940000Y-81930000D01*
X75220000Y-81930000D02*
X75220000Y-75610000D01*
X75460000Y-75370000D02*
X74960000Y-75370000D01*
X75460000Y-76110000D02*
X75460000Y-75370000D01*
X69197000Y-69515000D02*
X69197000Y-68915000D01*
X69747000Y-70715000D02*
X70347000Y-70715000D01*
X69847000Y-68215000D02*
X72647000Y-68215000D01*
X70047000Y-70415000D02*
X69747000Y-70715000D01*
X70047000Y-70415000D02*
X70347000Y-70715000D01*
X72647000Y-70215000D02*
X69847000Y-70215000D01*
X73297000Y-68915000D02*
X73297000Y-69515000D01*
X69197000Y-68915000D02*
G75*
G02*
X69897000Y-68215000I699999J1D01*
G01*
X69897000Y-70215000D02*
G75*
G02*
X69197000Y-69515000I-1J699999D01*
G01*
X72597000Y-68215000D02*
G75*
G02*
X73297000Y-68915000I0J-700000D01*
G01*
X73297000Y-69515000D02*
G75*
G02*
X72597000Y-70215000I-700000J0D01*
G01*
X66502724Y-70978500D02*
X65993276Y-70978500D01*
X66502724Y-72023500D02*
X65993276Y-72023500D01*
X53846000Y-79101733D02*
X53846000Y-79394267D01*
X54866000Y-79101733D02*
X54866000Y-79394267D01*
X39554000Y-77918000D02*
X39554000Y-80578000D01*
X47234000Y-77918000D02*
X39554000Y-77918000D01*
X47234000Y-77918000D02*
X47234000Y-80578000D01*
X47234000Y-80578000D02*
X39554000Y-80578000D01*
X48504000Y-77918000D02*
X49834000Y-77918000D01*
X49834000Y-77918000D02*
X49834000Y-79248000D01*
X25617000Y-55300000D02*
X28467000Y-55300000D01*
X25617000Y-59000000D02*
X25617000Y-55300000D01*
X28167000Y-59000000D02*
X25617000Y-59000000D01*
X28467000Y-55300000D02*
X28467000Y-58700000D01*
X28467000Y-59280000D02*
X28467000Y-59000000D01*
X28747000Y-59000000D01*
X28467000Y-59280000D01*
G36*
X28467000Y-59280000D02*
G01*
X28467000Y-59000000D01*
X28747000Y-59000000D01*
X28467000Y-59280000D01*
G37*
X56641276Y-79233500D02*
X57150724Y-79233500D01*
X56641276Y-80278500D02*
X57150724Y-80278500D01*
X22482000Y-60914000D02*
X23482000Y-60914000D01*
X22482000Y-62304000D02*
X22482000Y-60914000D01*
X22482000Y-62304000D02*
X22482000Y-62304000D01*
X22482000Y-62304000D02*
X22482000Y-63299000D01*
X23602000Y-62304000D02*
X24482000Y-62304000D01*
X24602000Y-60914000D02*
X25482000Y-60914000D01*
X25602000Y-62304000D02*
X26482000Y-62304000D01*
X26602000Y-60914000D02*
X27482000Y-60914000D01*
X27602000Y-62304000D02*
X28482000Y-62304000D01*
X28602000Y-60914000D02*
X29602000Y-60914000D01*
X29602000Y-60914000D02*
X29602000Y-60914000D01*
X29602000Y-62304000D02*
X29602000Y-60914000D01*
X64806267Y-72890000D02*
X64513733Y-72890000D01*
X64806267Y-73910000D02*
X64513733Y-73910000D01*
D15*
X59245000Y-72205000D02*
X55345000Y-72205000D01*
X59245000Y-77255000D02*
X55345000Y-77255000D01*
D13*
X61435000Y-77035000D02*
G75*
G02*
X61235000Y-77035000I-100000J0D01*
G01*
X61235000Y-77035000D02*
G75*
G02*
X61435000Y-77035000I100000J0D01*
G01*
D14*
X35674724Y-46213500D02*
X35165276Y-46213500D01*
X35674724Y-47258500D02*
X35165276Y-47258500D01*
D15*
X53811000Y-44983000D02*
X53811000Y-40783000D01*
X55931000Y-40783000D02*
X54931000Y-40783000D01*
X55931000Y-44983000D02*
X54931000Y-44983000D01*
X57051000Y-40783000D02*
X57051000Y-44983000D01*
D13*
X54431000Y-45983000D02*
G75*
G02*
X54231000Y-45983000I-100000J0D01*
G01*
X54231000Y-45983000D02*
G75*
G02*
X54431000Y-45983000I100000J0D01*
G01*
D14*
X36815500Y-63246724D02*
X36815500Y-62737276D01*
X37860500Y-63246724D02*
X37860500Y-62737276D01*
X39745000Y-64720000D02*
X39745000Y-62770000D01*
X39745000Y-64720000D02*
X39745000Y-66670000D01*
X49865000Y-64720000D02*
X49865000Y-62770000D01*
X49865000Y-64720000D02*
X49865000Y-66670000D01*
X39800000Y-67445000D02*
X39470000Y-67685000D01*
X39470000Y-67205000D01*
X39800000Y-67445000D01*
G36*
X39800000Y-67445000D02*
G01*
X39470000Y-67685000D01*
X39470000Y-67205000D01*
X39800000Y-67445000D01*
G37*
X57468000Y-43396000D02*
X78168000Y-43396000D01*
X57468000Y-58996000D02*
X57468000Y-43396000D01*
X78168000Y-43396000D02*
X78168000Y-58996000D01*
X78168000Y-58996000D02*
X57468000Y-58996000D01*
X78418000Y-43121000D02*
X75968000Y-43121000D01*
X78418000Y-43121000D02*
X78418000Y-45571000D01*
X71218000Y-43221000D02*
X70978000Y-42885000D01*
X71458000Y-42885000D01*
X71218000Y-43221000D01*
G36*
X71218000Y-43221000D02*
G01*
X70978000Y-42885000D01*
X71458000Y-42885000D01*
X71218000Y-43221000D01*
G37*
X46226000Y-71843733D02*
X46226000Y-72136267D01*
X47246000Y-71843733D02*
X47246000Y-72136267D01*
D16*
G36*
X47925284Y-54069898D02*
G01*
X48055224Y-54157370D01*
X48212049Y-54320988D01*
X48348756Y-54543194D01*
X48446227Y-54779648D01*
X48485341Y-54986014D01*
X48461642Y-55099847D01*
X48345987Y-55222367D01*
X48215761Y-55221490D01*
X48049088Y-55094648D01*
X48001911Y-55045905D01*
X47825951Y-54806265D01*
X47714109Y-54550567D01*
X47677048Y-54317003D01*
X47725432Y-54143766D01*
X47743961Y-54122015D01*
X47833018Y-54054880D01*
X47925284Y-54069898D01*
G37*
G36*
X49794960Y-54888126D02*
G01*
X49801093Y-55028565D01*
X49765737Y-55201405D01*
X49696125Y-55356556D01*
X49657000Y-55405819D01*
X49507330Y-55519480D01*
X49350829Y-55533247D01*
X49178669Y-55478255D01*
X49015614Y-55385455D01*
X48996321Y-55297258D01*
X49120786Y-55214591D01*
X49179931Y-55193045D01*
X49386081Y-55096864D01*
X49547708Y-54975514D01*
X49551519Y-54971382D01*
X49668077Y-54865464D01*
X49740107Y-54830181D01*
X49794960Y-54888126D01*
G37*
G36*
X49614784Y-53238118D02*
G01*
X49642457Y-53254795D01*
X49821582Y-53429518D01*
X49972335Y-53683603D01*
X50063620Y-53954675D01*
X50075304Y-54123011D01*
X50025993Y-54314447D01*
X49926692Y-54372931D01*
X49773874Y-54299129D01*
X49663838Y-54200497D01*
X49504738Y-53989591D01*
X49379736Y-53736724D01*
X49363355Y-53687833D01*
X49312908Y-53486324D01*
X49318792Y-53365835D01*
X49383588Y-53273889D01*
X49383724Y-53273753D01*
X49492832Y-53201780D01*
X49614784Y-53238118D01*
G37*
G36*
X49227252Y-49767165D02*
G01*
X49423341Y-49904269D01*
X49468520Y-49958550D01*
X49563984Y-50106680D01*
X49572481Y-50219010D01*
X49509369Y-50354300D01*
X49348263Y-50522213D01*
X49179305Y-50570662D01*
X49050855Y-50595977D01*
X48966291Y-50663773D01*
X48897935Y-50808944D01*
X48836867Y-51002390D01*
X48765571Y-51285636D01*
X48714839Y-51564545D01*
X48700703Y-51699397D01*
X48685612Y-51986460D01*
X49169448Y-52035056D01*
X49495287Y-52090065D01*
X49830789Y-52181287D01*
X50032904Y-52258464D01*
X50244124Y-52377916D01*
X50477916Y-52543815D01*
X50703073Y-52729308D01*
X50888389Y-52907539D01*
X51002656Y-53051656D01*
X51024139Y-53111442D01*
X51074983Y-53099668D01*
X51210207Y-53012756D01*
X51403850Y-52867953D01*
X51470742Y-52814763D01*
X51926560Y-52500295D01*
X52372405Y-52290355D01*
X52794038Y-52182658D01*
X53177218Y-52174914D01*
X53507705Y-52264837D01*
X53771259Y-52450140D01*
X53953640Y-52728534D01*
X54040607Y-53097734D01*
X54045966Y-53228418D01*
X53980460Y-53713812D01*
X53791468Y-54220738D01*
X53491276Y-54723020D01*
X53152080Y-55132848D01*
X53031908Y-55266236D01*
X52969421Y-55349273D01*
X52966915Y-55356678D01*
X53031531Y-55380594D01*
X53197491Y-55410810D01*
X53342665Y-55430276D01*
X53772744Y-55528655D01*
X54144156Y-55705126D01*
X54435645Y-55942399D01*
X54625953Y-56223185D01*
X54693827Y-56529253D01*
X54625298Y-56805195D01*
X54433201Y-57061971D01*
X54137771Y-57285958D01*
X53759241Y-57463533D01*
X53317847Y-57581073D01*
X53084713Y-57612627D01*
X52631073Y-57654989D01*
X52421232Y-58131395D01*
X52312639Y-58401289D01*
X52248120Y-58639869D01*
X52216433Y-58905714D01*
X52206388Y-59251065D01*
X52195853Y-59565021D01*
X52171708Y-59793194D01*
X52137018Y-59910156D01*
X52125836Y-59919512D01*
X52027561Y-59898259D01*
X51852657Y-59817090D01*
X51699111Y-59729612D01*
X51465205Y-59610932D01*
X51147825Y-59482021D01*
X50803672Y-59365213D01*
X50689273Y-59331845D01*
X50378121Y-59243550D01*
X50100678Y-59161260D01*
X49899649Y-59097788D01*
X49844269Y-59078314D01*
X49721177Y-59046103D01*
X49636404Y-59085782D01*
X49548151Y-59223673D01*
X49516485Y-59284717D01*
X49332039Y-59564653D01*
X49070369Y-59861169D01*
X48774993Y-60131605D01*
X48489428Y-60333298D01*
X48399126Y-60380086D01*
X48055473Y-60488131D01*
X47732735Y-60502125D01*
X47471234Y-60421133D01*
X47442005Y-60402301D01*
X47221600Y-60164091D01*
X47103262Y-59841137D01*
X47092648Y-59561201D01*
X47427108Y-59561201D01*
X47445589Y-59832050D01*
X47510730Y-60009281D01*
X47570314Y-60082873D01*
X47711651Y-60191433D01*
X47865013Y-60218136D01*
X48075203Y-60165281D01*
X48202229Y-60115337D01*
X48495368Y-59942921D01*
X48804219Y-59677574D01*
X49086673Y-59358146D01*
X49204930Y-59190160D01*
X49385213Y-58909062D01*
X49125826Y-58686477D01*
X49124557Y-58685136D01*
X49868090Y-58685136D01*
X49877823Y-58733031D01*
X49998889Y-58791296D01*
X50241481Y-58872906D01*
X50426862Y-58931332D01*
X50739722Y-59021564D01*
X50965059Y-59054912D01*
X51149735Y-59025971D01*
X51340613Y-58929339D01*
X51521747Y-58805082D01*
X51757952Y-58612853D01*
X51927121Y-58407552D01*
X52074678Y-58131421D01*
X52105504Y-58062815D01*
X52219799Y-57776257D01*
X52312667Y-57494680D01*
X52360342Y-57297307D01*
X52407301Y-57003641D01*
X51913595Y-57482836D01*
X51276752Y-58001893D01*
X50556804Y-58403469D01*
X50141854Y-58568563D01*
X49959498Y-58634638D01*
X49868090Y-58685136D01*
X49124557Y-58685136D01*
X48941437Y-58491654D01*
X48753707Y-58236952D01*
X48661836Y-58084115D01*
X48457234Y-57704337D01*
X48117977Y-58067030D01*
X47762285Y-58523653D01*
X47530445Y-58994676D01*
X47430565Y-59462560D01*
X47427108Y-59561201D01*
X47092648Y-59561201D01*
X47088494Y-59451636D01*
X47178801Y-59013785D01*
X47301080Y-58697531D01*
X47473927Y-58319983D01*
X46676653Y-58319983D01*
X46316460Y-58317149D01*
X46059395Y-58303878D01*
X45864717Y-58273012D01*
X45691682Y-58217396D01*
X45499547Y-58129874D01*
X45447652Y-58104119D01*
X45075165Y-57875667D01*
X44836096Y-57623150D01*
X44720264Y-57331945D01*
X44710839Y-57045821D01*
X44729977Y-56976243D01*
X45018686Y-56976243D01*
X45024813Y-57257511D01*
X45161378Y-57515280D01*
X45415331Y-57737044D01*
X45773620Y-57910299D01*
X46084000Y-57996967D01*
X46361334Y-58027195D01*
X46718899Y-58028464D01*
X47096609Y-58003748D01*
X47434372Y-57956021D01*
X47573808Y-57923230D01*
X47764146Y-57841202D01*
X47995705Y-57704916D01*
X48114780Y-57621431D01*
X48297069Y-57474846D01*
X48390871Y-57352756D01*
X48425884Y-57197541D01*
X48431546Y-57006810D01*
X48431430Y-56813462D01*
X48757567Y-56813462D01*
X48767373Y-57187698D01*
X48781218Y-57476499D01*
X48817001Y-57647728D01*
X48894109Y-57727701D01*
X49031925Y-57742733D01*
X49166659Y-57729727D01*
X49410794Y-57680434D01*
X49706154Y-57594558D01*
X49892924Y-57527614D01*
X50300481Y-57341683D01*
X50717189Y-57107734D01*
X51114353Y-56846133D01*
X51463280Y-56577245D01*
X51735273Y-56321436D01*
X51899197Y-56103687D01*
X51932764Y-55999428D01*
X51893703Y-55897613D01*
X51767942Y-55763067D01*
X52268352Y-55763067D01*
X52473724Y-56170220D01*
X52628631Y-56559424D01*
X52679044Y-56922749D01*
X52679096Y-56935389D01*
X52679096Y-57293405D01*
X53130275Y-57264676D01*
X53461945Y-57218789D01*
X53761337Y-57134413D01*
X53863732Y-57089458D01*
X54078758Y-56950184D01*
X54258727Y-56788118D01*
X54289617Y-56750622D01*
X54379448Y-56612683D01*
X54391347Y-56500212D01*
X54329840Y-56341630D01*
X54317178Y-56314921D01*
X54119711Y-56067276D01*
X53881341Y-55916759D01*
X53613844Y-55821432D01*
X53276530Y-55747924D01*
X52924504Y-55703835D01*
X52612869Y-55696769D01*
X52445310Y-55718654D01*
X52268352Y-55763067D01*
X51767942Y-55763067D01*
X51763245Y-55758042D01*
X51718368Y-55716401D01*
X51547826Y-55576578D01*
X51408455Y-55490699D01*
X51363866Y-55477773D01*
X51267404Y-55521926D01*
X51097134Y-55638842D01*
X50886389Y-55805209D01*
X50841138Y-55843370D01*
X50464579Y-56128625D01*
X50047423Y-56385420D01*
X49629864Y-56592649D01*
X49252098Y-56729212D01*
X49085316Y-56765205D01*
X48757567Y-56813462D01*
X48431430Y-56813462D01*
X48431412Y-56783183D01*
X48428648Y-56621778D01*
X48425904Y-56575082D01*
X48358600Y-56523554D01*
X48198661Y-56457807D01*
X48120097Y-56432663D01*
X47903272Y-56340488D01*
X47640159Y-56190105D01*
X47427884Y-56043510D01*
X47033612Y-55742810D01*
X46644822Y-55824360D01*
X46197737Y-55957447D01*
X45787042Y-56152985D01*
X45438423Y-56392779D01*
X45177566Y-56658635D01*
X45030155Y-56932358D01*
X45018686Y-56976243D01*
X44729977Y-56976243D01*
X44817253Y-56658943D01*
X45062029Y-56305641D01*
X45431820Y-55994029D01*
X45680016Y-55848245D01*
X45980463Y-55705449D01*
X46287430Y-55584007D01*
X46555185Y-55502287D01*
X46717256Y-55477773D01*
X46823911Y-55449692D01*
X46817091Y-55351853D01*
X46772740Y-55215117D01*
X46709816Y-54994496D01*
X46661621Y-54813357D01*
X46601430Y-54300007D01*
X46617668Y-54184878D01*
X46941675Y-54184878D01*
X46960637Y-54686002D01*
X47100803Y-55136615D01*
X47344921Y-55525457D01*
X47675742Y-55841265D01*
X48076016Y-56072778D01*
X48528492Y-56208734D01*
X49015919Y-56237872D01*
X49521048Y-56148929D01*
X49795222Y-56047786D01*
X50185217Y-55812908D01*
X50542798Y-55483715D01*
X50816192Y-55108491D01*
X50830693Y-55082023D01*
X50860584Y-55011135D01*
X51256689Y-55011135D01*
X51279551Y-55102321D01*
X51325652Y-55118000D01*
X51442189Y-55157497D01*
X51614266Y-55256228D01*
X51673761Y-55297004D01*
X51926324Y-55427140D01*
X52174066Y-55439743D01*
X52436631Y-55330286D01*
X52733661Y-55094242D01*
X52790594Y-55039637D01*
X53144065Y-54644592D01*
X53418022Y-54238883D01*
X53609297Y-53839093D01*
X53714725Y-53461804D01*
X53731138Y-53123599D01*
X53655371Y-52841060D01*
X53484257Y-52630770D01*
X53270955Y-52523991D01*
X52915174Y-52489704D01*
X52509982Y-52578759D01*
X52071054Y-52786147D01*
X51728118Y-53017111D01*
X51495885Y-53200978D01*
X51360541Y-53334579D01*
X51299004Y-53447124D01*
X51288191Y-53567826D01*
X51288500Y-53573454D01*
X51310286Y-53998917D01*
X51317834Y-54315332D01*
X51310924Y-54556875D01*
X51289334Y-54757723D01*
X51280477Y-54812193D01*
X51256689Y-55011135D01*
X50860584Y-55011135D01*
X50921899Y-54865726D01*
X50970012Y-54615162D01*
X50984787Y-54277960D01*
X50984826Y-54254544D01*
X50948891Y-53794361D01*
X50829213Y-53420587D01*
X50607985Y-53091719D01*
X50392809Y-52874680D01*
X50032608Y-52609382D01*
X49643907Y-52452460D01*
X49191272Y-52392720D01*
X48884693Y-52398235D01*
X48468095Y-52444448D01*
X48138413Y-52541171D01*
X47841467Y-52710599D01*
X47560805Y-52940533D01*
X47224967Y-53329494D01*
X47018269Y-53777868D01*
X46941675Y-54184878D01*
X46617668Y-54184878D01*
X46675056Y-53777995D01*
X46878065Y-53278620D01*
X46879311Y-53276388D01*
X46981187Y-53066557D01*
X46998664Y-52942799D01*
X46969864Y-52898033D01*
X46800016Y-52813091D01*
X46537820Y-52739334D01*
X46234839Y-52688470D01*
X45974172Y-52671942D01*
X45758164Y-52683315D01*
X45643518Y-52728733D01*
X45590169Y-52819837D01*
X45491189Y-52962027D01*
X45367377Y-53048198D01*
X45218469Y-53088252D01*
X45077771Y-53039063D01*
X44995856Y-52982729D01*
X44825952Y-52788349D01*
X44781461Y-52575312D01*
X44938630Y-52575312D01*
X44982736Y-52748708D01*
X45112951Y-52866351D01*
X45280321Y-52871396D01*
X45407857Y-52784073D01*
X45451807Y-52639196D01*
X45390267Y-52494187D01*
X45252991Y-52398096D01*
X45165000Y-52383722D01*
X45002728Y-52437467D01*
X44938630Y-52575312D01*
X44781461Y-52575312D01*
X44780375Y-52570113D01*
X44863734Y-52361325D01*
X44903633Y-52316127D01*
X45064767Y-52195285D01*
X45219892Y-52188105D01*
X45407465Y-52296732D01*
X45470507Y-52347745D01*
X45628509Y-52456013D01*
X45806619Y-52510584D01*
X46061639Y-52527385D01*
X46112184Y-52527632D01*
X46423847Y-52547129D01*
X46743661Y-52596852D01*
X46891279Y-52633328D01*
X47242480Y-52739024D01*
X47604272Y-52491040D01*
X47843188Y-52340477D01*
X48074267Y-52216060D01*
X48196380Y-52163674D01*
X48342021Y-52096222D01*
X48421103Y-51992288D01*
X48466125Y-51803301D01*
X48474286Y-51748314D01*
X48527825Y-51497082D01*
X48617826Y-51190152D01*
X48701327Y-50955866D01*
X48798401Y-50681620D01*
X48830278Y-50510562D01*
X48801216Y-50419836D01*
X48801183Y-50419804D01*
X48731559Y-50263479D01*
X48732247Y-50215445D01*
X48882217Y-50215445D01*
X48940322Y-50336471D01*
X49048223Y-50427982D01*
X49179430Y-50423448D01*
X49255364Y-50397271D01*
X49347260Y-50296776D01*
X49361720Y-50136629D01*
X49298766Y-49978466D01*
X49255218Y-49932258D01*
X49112063Y-49881013D01*
X48982926Y-49935842D01*
X48896686Y-50059675D01*
X48882217Y-50215445D01*
X48732247Y-50215445D01*
X48734521Y-50056765D01*
X48805557Y-49870786D01*
X48838567Y-49830565D01*
X49018768Y-49739842D01*
X49227252Y-49767165D01*
G37*
D14*
X44698863Y-48556380D02*
X44406329Y-48556380D01*
X44698863Y-49576380D02*
X44406329Y-49576380D01*
X64247500Y-41656724D02*
X64247500Y-41147276D01*
X65292500Y-41656724D02*
X65292500Y-41147276D01*
X43896733Y-74116000D02*
X44189267Y-74116000D01*
X43896733Y-75136000D02*
X44189267Y-75136000D01*
D15*
X63648000Y-64812000D02*
X63648000Y-68792000D01*
X68686000Y-68792000D02*
X68686000Y-64812000D01*
D13*
X68172000Y-62852000D02*
G75*
G02*
X67972000Y-62852000I-100000J0D01*
G01*
X67972000Y-62852000D02*
G75*
G02*
X68172000Y-62852000I100000J0D01*
G01*
D14*
X69341276Y-70978500D02*
X69850724Y-70978500D01*
X69341276Y-72023500D02*
X69850724Y-72023500D01*
X46202000Y-46180000D02*
X42542000Y-46180000D01*
X46202000Y-48080000D02*
X42542000Y-48080000D01*
X46202000Y-48080000D02*
X46202000Y-46180000D01*
X70864000Y-41548267D02*
X70864000Y-41255733D01*
X71884000Y-41548267D02*
X71884000Y-41255733D01*
D15*
X39162553Y-46613701D02*
X40362553Y-46613701D01*
X40362553Y-47653701D02*
X39162553Y-47653701D01*
D13*
X41362553Y-47133701D02*
G75*
G02*
X41162553Y-47133701I-100000J0D01*
G01*
X41162553Y-47133701D02*
G75*
G02*
X41362553Y-47133701I100000J0D01*
G01*
D14*
X36815500Y-66548724D02*
X36815500Y-66039276D01*
X37860500Y-66548724D02*
X37860500Y-66039276D01*
X69340000Y-65170267D02*
X69340000Y-64877733D01*
X70360000Y-65170267D02*
X70360000Y-64877733D01*
X47843941Y-72229792D02*
X47843941Y-71720344D01*
X48888941Y-72229792D02*
X48888941Y-71720344D01*
X42758500Y-72237224D02*
X42758500Y-71727776D01*
X43803500Y-72237224D02*
X43803500Y-71727776D01*
X23738000Y-57365833D02*
X23738000Y-57658367D01*
X24758000Y-57365833D02*
X24758000Y-57658367D01*
X55010267Y-65784000D02*
X54717733Y-65784000D01*
X55010267Y-66804000D02*
X54717733Y-66804000D01*
X55295276Y-47737500D02*
X55804724Y-47737500D01*
X55295276Y-48782500D02*
X55804724Y-48782500D01*
X44282500Y-72237224D02*
X44282500Y-71727776D01*
X45327500Y-72237224D02*
X45327500Y-71727776D01*
X38072000Y-74011733D02*
X38072000Y-74304267D01*
X39092000Y-74011733D02*
X39092000Y-74304267D01*
X56133276Y-70597500D02*
X56642724Y-70597500D01*
X56133276Y-71642500D02*
X56642724Y-71642500D01*
X57343105Y-69042953D02*
X57852553Y-69042953D01*
X57343105Y-70087953D02*
X57852553Y-70087953D01*
D15*
X49883000Y-44983000D02*
X49883000Y-40783000D01*
X51003000Y-40783000D02*
X52003000Y-40783000D01*
X51003000Y-44983000D02*
X52003000Y-44983000D01*
X53123000Y-40783000D02*
X53123000Y-44983000D01*
D13*
X52703000Y-39783000D02*
G75*
G02*
X52503000Y-39783000I-100000J0D01*
G01*
X52503000Y-39783000D02*
G75*
G02*
X52703000Y-39783000I100000J0D01*
G01*
D14*
X58010000Y-39198000D02*
X63910000Y-39198000D01*
X58010000Y-43098000D02*
X63910000Y-43098000D01*
X63910000Y-43098000D02*
X63910000Y-42023000D01*
X24500000Y-53320733D02*
X24500000Y-53613267D01*
X25520000Y-53320733D02*
X25520000Y-53613267D01*
D15*
X44448938Y-50019396D02*
X45648938Y-50019396D01*
X45648938Y-51059396D02*
X44448938Y-51059396D01*
D13*
X43648938Y-50539396D02*
G75*
G02*
X43448938Y-50539396I-100000J0D01*
G01*
X43448938Y-50539396D02*
G75*
G02*
X43648938Y-50539396I100000J0D01*
G01*
D15*
X25996000Y-51955000D02*
X28596000Y-51955000D01*
X25996000Y-54725000D02*
X28596000Y-54725000D01*
D13*
X28946000Y-52340000D02*
G75*
G02*
X28846000Y-52340000I-50000J0D01*
G01*
X28846000Y-52340000D02*
G75*
G02*
X28946000Y-52340000I50000J0D01*
G01*
D14*
X49466011Y-72230427D02*
X49466011Y-71720979D01*
X50511011Y-72230427D02*
X50511011Y-71720979D01*
X58632224Y-77709500D02*
X58122776Y-77709500D01*
X58632224Y-78754500D02*
X58122776Y-78754500D01*
X69340000Y-41548267D02*
X69340000Y-41255733D01*
X70360000Y-41548267D02*
X70360000Y-41255733D01*
X54717733Y-67308000D02*
X55010267Y-67308000D01*
X54717733Y-68328000D02*
X55010267Y-68328000D01*
X62101000Y-67036733D02*
X62101000Y-67329267D01*
X63121000Y-67036733D02*
X63121000Y-67329267D01*
X51816724Y-47483500D02*
X51307276Y-47483500D01*
X51816724Y-48528500D02*
X51307276Y-48528500D01*
D15*
X37000000Y-47994000D02*
X38200000Y-47994000D01*
X38200000Y-49034000D02*
X37000000Y-49034000D01*
D13*
X36200000Y-48514000D02*
G75*
G02*
X36000000Y-48514000I-100000J0D01*
G01*
X36000000Y-48514000D02*
G75*
G02*
X36200000Y-48514000I100000J0D01*
G01*
%LPC*%
D17*
X34798000Y-52324000D03*
D18*
X34798000Y-54864000D03*
X34798000Y-57404000D03*
X34798000Y-59944000D03*
X34798000Y-62484000D03*
X34798000Y-65024000D03*
X34798000Y-67564000D03*
D19*
X61142500Y-62880000D03*
X59317500Y-62880000D03*
D20*
X30750000Y-56900000D03*
D21*
X67163500Y-73365500D03*
X68888500Y-73365500D03*
D22*
X62611000Y-62945000D03*
X62611000Y-64670000D03*
D23*
X49630500Y-69342000D03*
X47905500Y-69342000D03*
X56412500Y-46736000D03*
X54687500Y-46736000D03*
D22*
X52762000Y-78385500D03*
X52762000Y-80110500D03*
D24*
X44390000Y-42312500D03*
X44390000Y-40487500D03*
D20*
X32250000Y-58400000D03*
D22*
X22724000Y-56649600D03*
X22724000Y-58374600D03*
D25*
X41092000Y-43629000D03*
X35312000Y-43629000D03*
D26*
X41402000Y-44704000D03*
X40602000Y-44704000D03*
D27*
X39452000Y-44704000D03*
X38452000Y-44704000D03*
X37952000Y-44704000D03*
X36952000Y-44704000D03*
D26*
X35802000Y-44704000D03*
X35002000Y-44704000D03*
X35002000Y-44704000D03*
X35802000Y-44704000D03*
D27*
X36452000Y-44704000D03*
X37452000Y-44704000D03*
X38952000Y-44704000D03*
X39952000Y-44704000D03*
D26*
X40602000Y-44704000D03*
X41402000Y-44704000D03*
D28*
X42522000Y-44129000D03*
D29*
X42522000Y-39949000D03*
D28*
X33882000Y-44129000D03*
D29*
X33882000Y-39949000D03*
D21*
X50699500Y-46482000D03*
X52424500Y-46482000D03*
D22*
X23448000Y-52645500D03*
X23448000Y-54370500D03*
D30*
X71374000Y-65886500D03*
X71374000Y-64161500D03*
D19*
X62732500Y-61270000D03*
X60907500Y-61270000D03*
D31*
X40662500Y-71512000D03*
X40662500Y-69612000D03*
X38787500Y-70562000D03*
D32*
X60206000Y-65774000D03*
X60206000Y-65274000D03*
X60206000Y-64774000D03*
X60206000Y-64274000D03*
X57396000Y-64274000D03*
X57396000Y-64774000D03*
X57396000Y-65274000D03*
X57396000Y-65774000D03*
D33*
X73660000Y-78770000D03*
D34*
X71120000Y-78770000D03*
X68580000Y-78770000D03*
X66040000Y-78770000D03*
X63500000Y-78770000D03*
D35*
X69947000Y-69215000D03*
D36*
X71247000Y-69215000D03*
D37*
X72547000Y-69215000D03*
D19*
X67160500Y-71501000D03*
X65335500Y-71501000D03*
D20*
X32250000Y-56150000D03*
D22*
X54356000Y-78385500D03*
X54356000Y-80110500D03*
D17*
X48504000Y-79248000D03*
D18*
X45964000Y-79248000D03*
X43424000Y-79248000D03*
X40884000Y-79248000D03*
D20*
X27042000Y-56440000D03*
D38*
X27942000Y-58514000D03*
X27942000Y-57692000D03*
D39*
X26379500Y-56440000D03*
D38*
X26142000Y-57692000D03*
X26142000Y-58514000D03*
X27042000Y-58514000D03*
D40*
X55983500Y-79756000D03*
X57808500Y-79756000D03*
D41*
X23042000Y-62484000D03*
X24042000Y-60734000D03*
X25042000Y-62484000D03*
X26042000Y-60734000D03*
X27042000Y-62484000D03*
X28042000Y-60734000D03*
X29042000Y-62484000D03*
D23*
X65522500Y-73400000D03*
X63797500Y-73400000D03*
D42*
X59765000Y-76635000D03*
X59765000Y-75365000D03*
X59765000Y-74095000D03*
X59765000Y-72825000D03*
X54825000Y-72825000D03*
X54825000Y-74095000D03*
X54825000Y-75365000D03*
X54825000Y-76635000D03*
D20*
X30750000Y-57650000D03*
D19*
X36332500Y-46736000D03*
X34507500Y-46736000D03*
D43*
X54356000Y-44958000D03*
X54356000Y-40808000D03*
X56506000Y-44958000D03*
X56506000Y-40808000D03*
D24*
X37338000Y-63904500D03*
X37338000Y-62079500D03*
D44*
X40360000Y-67220000D03*
X41630000Y-67220000D03*
X42900000Y-67220000D03*
X44170000Y-67220000D03*
X45440000Y-67220000D03*
X46710000Y-67220000D03*
X47980000Y-67220000D03*
X49250000Y-67220000D03*
X49250000Y-62220000D03*
X47980000Y-62220000D03*
X46710000Y-62220000D03*
X45440000Y-62220000D03*
X44170000Y-62220000D03*
X42900000Y-62220000D03*
X41630000Y-62220000D03*
X40360000Y-62220000D03*
D45*
X71218000Y-44196000D03*
X70368000Y-44196000D03*
X69518000Y-44196000D03*
X68668000Y-44196000D03*
X67818000Y-44196000D03*
X66968000Y-44196000D03*
X66118000Y-44196000D03*
X65268000Y-44196000D03*
X64418000Y-44196000D03*
X63568000Y-44196000D03*
X62718000Y-44196000D03*
X61868000Y-44196000D03*
X61018000Y-44196000D03*
X60168000Y-44196000D03*
X59318000Y-44196000D03*
D46*
X58268000Y-45246000D03*
X58268000Y-46096000D03*
X58268000Y-46946000D03*
X58268000Y-47796000D03*
X58268000Y-48646000D03*
X58268000Y-49496000D03*
X58268000Y-50346000D03*
X58268000Y-51196000D03*
X58268000Y-52046000D03*
X58268000Y-52896000D03*
X58268000Y-53746000D03*
X58268000Y-54596000D03*
X58268000Y-55446000D03*
X58268000Y-56296000D03*
X58268000Y-57146000D03*
D45*
X59318000Y-58196000D03*
X60168000Y-58196000D03*
X61018000Y-58196000D03*
X61868000Y-58196000D03*
X62718000Y-58196000D03*
X63568000Y-58196000D03*
X64418000Y-58196000D03*
X65268000Y-58196000D03*
X66118000Y-58196000D03*
X66968000Y-58196000D03*
X67818000Y-58196000D03*
X68668000Y-58196000D03*
X69518000Y-58196000D03*
X70368000Y-58196000D03*
X71218000Y-58196000D03*
D46*
X72268000Y-57146000D03*
X72268000Y-56296000D03*
X72268000Y-55446000D03*
X72268000Y-54596000D03*
X72268000Y-53746000D03*
X72268000Y-52896000D03*
X72268000Y-52046000D03*
X72268000Y-51196000D03*
X72268000Y-50346000D03*
X72268000Y-49496000D03*
X72268000Y-48646000D03*
X72268000Y-47796000D03*
X72268000Y-46946000D03*
X72268000Y-46096000D03*
X72268000Y-45246000D03*
D47*
X66918000Y-49546000D03*
D48*
X65268000Y-49546000D03*
X63618000Y-49546000D03*
X66918000Y-51196000D03*
X65268000Y-51196000D03*
X63618000Y-51196000D03*
X66918000Y-52846000D03*
X65268000Y-52846000D03*
X63618000Y-52846000D03*
D49*
X72268000Y-44196000D03*
X58268000Y-44196000D03*
X58268000Y-58196000D03*
X72268000Y-58196000D03*
D22*
X46736000Y-71127500D03*
X46736000Y-72852500D03*
D23*
X45415096Y-49066380D03*
X43690096Y-49066380D03*
D24*
X64770000Y-42314500D03*
X64770000Y-40489500D03*
D21*
X43180500Y-74626000D03*
X44905500Y-74626000D03*
D50*
X24350000Y-49150000D03*
X24833274Y-47983274D03*
X24833274Y-50316726D03*
X26000000Y-47500000D03*
D51*
X26000000Y-49150000D03*
D50*
X26000000Y-50800000D03*
X27166726Y-47983274D03*
X27166726Y-50316726D03*
X27650000Y-49150000D03*
D52*
X68072000Y-64332000D03*
X66802000Y-64332000D03*
X65532000Y-64332000D03*
X64262000Y-64332000D03*
X64262000Y-69272000D03*
X65532000Y-69272000D03*
X66802000Y-69272000D03*
X68072000Y-69272000D03*
D40*
X68683500Y-71501000D03*
X70508500Y-71501000D03*
D48*
X45342000Y-47130000D03*
X42542000Y-47130000D03*
D30*
X71374000Y-42264500D03*
X71374000Y-40539500D03*
D20*
X30750000Y-58400000D03*
D53*
X40422553Y-47133701D03*
X39102553Y-47133701D03*
D24*
X37338000Y-67206500D03*
X37338000Y-65381500D03*
D30*
X69850000Y-65886500D03*
X69850000Y-64161500D03*
D24*
X48366441Y-72887568D03*
X48366441Y-71062568D03*
X43281000Y-72895000D03*
X43281000Y-71070000D03*
D22*
X24248000Y-56649600D03*
X24248000Y-58374600D03*
D20*
X32250000Y-57650000D03*
D23*
X55726500Y-66294000D03*
X54001500Y-66294000D03*
D20*
X30750000Y-56150000D03*
X32250000Y-56900000D03*
D40*
X54637500Y-48260000D03*
X56462500Y-48260000D03*
D24*
X44805000Y-72895000D03*
X44805000Y-71070000D03*
D22*
X38582000Y-73295500D03*
X38582000Y-75020500D03*
D40*
X55475500Y-71120000D03*
X57300500Y-71120000D03*
X56685329Y-69565453D03*
X58510329Y-69565453D03*
D54*
X52578000Y-40808000D03*
X52578000Y-44958000D03*
X50428000Y-40808000D03*
X50428000Y-44958000D03*
D55*
X59210000Y-40273000D03*
X59210000Y-42023000D03*
X62710000Y-42023000D03*
X62710000Y-40273000D03*
D22*
X25010000Y-52604500D03*
X25010000Y-54329500D03*
D56*
X44388938Y-50539396D03*
X45708938Y-50539396D03*
D57*
X28266000Y-52365000D03*
X28266000Y-53015000D03*
X28266000Y-53665000D03*
X28266000Y-54315000D03*
X26326000Y-54315000D03*
X26326000Y-53665000D03*
X26326000Y-53015000D03*
X26326000Y-52365000D03*
D24*
X49988511Y-72888203D03*
X49988511Y-71063203D03*
D19*
X59290000Y-78232000D03*
X57465000Y-78232000D03*
D30*
X69850000Y-42264500D03*
X69850000Y-40539500D03*
D21*
X54001500Y-67818000D03*
X55726500Y-67818000D03*
D22*
X62611000Y-66320500D03*
X62611000Y-68045500D03*
D50*
X51690000Y-62865000D03*
X52173274Y-61698274D03*
X52173274Y-64031726D03*
X53340000Y-61215000D03*
D51*
X53340000Y-62865000D03*
D50*
X53340000Y-64515000D03*
X54506726Y-61698274D03*
X54506726Y-64031726D03*
X54990000Y-62865000D03*
D19*
X52474500Y-48006000D03*
X50649500Y-48006000D03*
D56*
X36940000Y-48514000D03*
X38260000Y-48514000D03*
%LPD*%
M02*
