M48
; DRILL file {KiCad 8.0.5} date 2024-10-21T14:29:18+0200
; FORMAT={-:-/ absolute / metric / decimal}
; #@! TF.CreationDate,2024-10-21T14:29:18+02:00
; #@! TF.GenerationSoftware,Kicad,Pcbnew,8.0.5
; #@! TF.FileFunction,Plated,1,2,PTH
FMAT,2
METRIC
; #@! TA.AperFunction,Plated,PTH,ViaDrill
T1C0.300
; #@! TA.AperFunction,Plated,PTH,ComponentDrill
T2C0.400
; #@! TA.AperFunction,Plated,PTH,ComponentDrill
T3C0.600
; #@! TA.AperFunction,Plated,PTH,ComponentDrill
T4C1.000
; #@! TA.AperFunction,Plated,PTH,ComponentDrill
T5C1.100
; #@! TA.AperFunction,Plated,PTH,ComponentDrill
T6C2.200
%
G90
G05
T1
X22.47Y-51.308
X22.57Y-60.452
X22.724Y-50.546
X22.724Y-61.214
X23.232Y-51.308
X23.232Y-60.452
X24.248Y-59.182
X25.01Y-52.832
X26.026Y-62.738
X26.153Y-58.547
X28.058Y-62.738
X28.312Y-51.054
X28.8Y-50.4
X29.05Y-51.15
X33.528Y-47.244
X33.655Y-46.482
X34.163Y-42.545
X35.56Y-39.878
X35.56Y-70.612
X35.56Y-71.628
X35.802Y-45.593
X36.322Y-42.418
X36.576Y-60.96
X37.318Y-77.222
X37.465Y-78.232
X38.1Y-51.816
X38.1Y-56.896
X38.354Y-62.992
X38.608Y-57.912
X39.116Y-42.418
X39.37Y-51.816
X39.37Y-56.896
X40.132Y-39.878
X40.64Y-48.26
X40.663Y-45.823
X40.894Y-76.454
X41.402Y-48.26
X42.037Y-45.72
X42.418Y-59.944
X42.418Y-64.77
X43.053Y-45.593
X43.18Y-50.546
X43.434Y-59.944
X43.434Y-64.77
X44.196Y-39.37
X44.903Y-48.967
X45.466Y-48.006
X45.974Y-43.434
X46.482Y-76.962
X47.244Y-40.386
X47.244Y-41.402
X47.498Y-64.77
X48.006Y-40.894
X49.022Y-46.228
X50.038Y-80.518
X50.927Y-58.039
X51.488Y-47.714
X51.562Y-72.644
X51.562Y-73.406
X51.588Y-78.385
X52.07Y-67.818
X52.451Y-68.58
X52.959Y-67.945
X53.594Y-39.624
X53.594Y-48.514
X53.848Y-46.736
X54.102Y-50.038
X55.559Y-69.409
X56.134Y-61.722
X56.896Y-61.468
X57.15Y-76.2
X57.404Y-44.196
X57.404Y-58.166
X57.404Y-74.727
X57.658Y-41.91
X57.658Y-79.248
X59.69Y-71.374
X60.452Y-69.088
X60.706Y-42.926
X60.706Y-51.054
X60.706Y-71.374
X61.018Y-57.092
X61.214Y-66.802
X62.611Y-73.533
X62.992Y-69.088
X63.246Y-46.99
X63.246Y-76.454
X63.627Y-57.15
X64.04Y-62.19
X65.024Y-67.31
X65.913Y-62.484
X66.548Y-57.023
X67.056Y-46.99
X67.1Y-80.52
X67.31Y-40.894
X68.326Y-77.089
X68.834Y-57.15
X69.088Y-75.692
X69.469Y-77.216
X69.538Y-42.94
X69.596Y-57.15
X69.75Y-61.38
X69.85Y-38.862
X69.98Y-62.04
X70.231Y-73.406
X70.48Y-61.48
X70.485Y-67.564
X70.5Y-42.94
X70.714Y-59.436
X71.374Y-38.862
X72.644Y-59.538
X73.66Y-76.2
X74.676Y-76.2
T2
X24.35Y-49.15
X24.833Y-47.983
X24.833Y-50.317
X26.0Y-47.5
X26.0Y-50.8
X27.167Y-47.983
X27.167Y-50.317
X27.65Y-49.15
X51.69Y-62.865
X52.173Y-61.698
X52.173Y-64.032
X53.34Y-61.215
X53.34Y-64.515
X54.507Y-61.698
X54.507Y-64.032
X54.99Y-62.865
T4
X34.798Y-52.324
X34.798Y-54.864
X34.798Y-57.404
X34.798Y-59.944
X34.798Y-62.484
X34.798Y-65.024
X34.798Y-67.564
X40.884Y-79.248
X43.424Y-79.248
X45.964Y-79.248
X48.504Y-79.248
T5
X63.5Y-78.77
X66.04Y-78.77
X68.58Y-78.77
X71.12Y-78.77
X73.66Y-78.77
T6
X26.0Y-49.15
X53.34Y-62.865
T3
X33.882Y-40.349G85X33.882Y-39.549
G05
X33.882Y-44.679G85X33.882Y-43.579
G05
X42.522Y-40.349G85X42.522Y-39.549
G05
X42.522Y-44.679G85X42.522Y-43.579
G05
M30
