G04 #@! TF.GenerationSoftware,KiCad,Pcbnew,8.0.5*
G04 #@! TF.CreationDate,2024-10-21T14:29:00+02:00*
G04 #@! TF.ProjectId,Slave,536c6176-652e-46b6-9963-61645f706362,rev?*
G04 #@! TF.SameCoordinates,Original*
G04 #@! TF.FileFunction,Soldermask,Bot*
G04 #@! TF.FilePolarity,Negative*
%FSLAX46Y46*%
G04 Gerber Fmt 4.6, Leading zero omitted, Abs format (unit mm)*
G04 Created by KiCad (PCBNEW 8.0.5) date 2024-10-21 14:29:00*
%MOMM*%
%LPD*%
G01*
G04 APERTURE LIST*
%ADD10R,1.700000X1.700000*%
%ADD11O,1.700000X1.700000*%
%ADD12C,0.500000*%
%ADD13C,0.650000*%
%ADD14O,1.000000X2.100000*%
%ADD15O,1.000000X1.800000*%
%ADD16R,2.200000X2.200000*%
%ADD17C,2.200000*%
%ADD18C,0.700000*%
%ADD19C,4.400000*%
G04 APERTURE END LIST*
D10*
X34798000Y-52324000D03*
D11*
X34798000Y-54864000D03*
X34798000Y-57404000D03*
X34798000Y-59944000D03*
X34798000Y-62484000D03*
X34798000Y-65024000D03*
X34798000Y-67564000D03*
D12*
X30750000Y-56900000D03*
X32250000Y-58400000D03*
D13*
X41092000Y-43629000D03*
X35312000Y-43629000D03*
D14*
X42522000Y-44129000D03*
D15*
X42522000Y-39949000D03*
D14*
X33882000Y-44129000D03*
D15*
X33882000Y-39949000D03*
D16*
X73660000Y-78770000D03*
D17*
X71120000Y-78770000D03*
X68580000Y-78770000D03*
X66040000Y-78770000D03*
X63500000Y-78770000D03*
D12*
X32250000Y-56150000D03*
D10*
X48504000Y-79248000D03*
D11*
X45964000Y-79248000D03*
X43424000Y-79248000D03*
X40884000Y-79248000D03*
D12*
X27042000Y-56440000D03*
X30750000Y-57650000D03*
D18*
X24350000Y-49150000D03*
X24833274Y-47983274D03*
X24833274Y-50316726D03*
X26000000Y-47500000D03*
D19*
X26000000Y-49150000D03*
D18*
X26000000Y-50800000D03*
X27166726Y-47983274D03*
X27166726Y-50316726D03*
X27650000Y-49150000D03*
D12*
X30750000Y-58400000D03*
X32250000Y-57650000D03*
X30750000Y-56150000D03*
X32250000Y-56900000D03*
D18*
X51690000Y-62865000D03*
X52173274Y-61698274D03*
X52173274Y-64031726D03*
X53340000Y-61215000D03*
D19*
X53340000Y-62865000D03*
D18*
X53340000Y-64515000D03*
X54506726Y-61698274D03*
X54506726Y-64031726D03*
X54990000Y-62865000D03*
M02*
