%TF.GenerationSoftware,KiCad,Pcbnew,8.0.5*%
%TF.CreationDate,2024-10-21T14:51:29+02:00*%
%TF.ProjectId,both,626f7468-2e6b-4696-9361-645f70636258,rev?*%
%TF.SameCoordinates,Original*%
%TF.FileFunction,Legend,Bot*%
%TF.FilePolarity,Positive*%
%FSLAX46Y46*%
G04 Gerber Fmt 4.6, Leading zero omitted, Abs format (unit mm)*
G04 Created by KiCad (PCBNEW 8.0.5) date 2024-10-21 14:51:29*
%MOMM*%
%LPD*%
G01*
G04 APERTURE LIST*
%ADD10C,0.100000*%
%ADD11C,0.375000*%
%ADD12C,0.400000*%
%ADD13C,0.000000*%
G04 APERTURE END LIST*
D10*
X33932000Y-92405472D02*
G75*
G02*
X33232000Y-92405472I-350000J0D01*
G01*
X33232000Y-92405472D02*
G75*
G02*
X33932000Y-92405472I350000J0D01*
G01*
X34067000Y-91995472D02*
X34067000Y-91495472D01*
X34067000Y-91995472D02*
X34617000Y-91995472D01*
X35067000Y-90995472D02*
X34067000Y-91995472D01*
X29736912Y-90305472D02*
X29784531Y-90448329D01*
X29784531Y-90448329D02*
X29784531Y-90686424D01*
X29784531Y-90686424D02*
X29736912Y-90781662D01*
X29736912Y-90781662D02*
X29689292Y-90829281D01*
X29689292Y-90829281D02*
X29594054Y-90876900D01*
X29594054Y-90876900D02*
X29498816Y-90876900D01*
X29498816Y-90876900D02*
X29403578Y-90829281D01*
X29403578Y-90829281D02*
X29355959Y-90781662D01*
X29355959Y-90781662D02*
X29308340Y-90686424D01*
X29308340Y-90686424D02*
X29260721Y-90495948D01*
X29260721Y-90495948D02*
X29213102Y-90400710D01*
X29213102Y-90400710D02*
X29165483Y-90353091D01*
X29165483Y-90353091D02*
X29070245Y-90305472D01*
X29070245Y-90305472D02*
X28975007Y-90305472D01*
X28975007Y-90305472D02*
X28879769Y-90353091D01*
X28879769Y-90353091D02*
X28832150Y-90400710D01*
X28832150Y-90400710D02*
X28784531Y-90495948D01*
X28784531Y-90495948D02*
X28784531Y-90734043D01*
X28784531Y-90734043D02*
X28832150Y-90876900D01*
X29784531Y-91781662D02*
X29784531Y-91305472D01*
X29784531Y-91305472D02*
X28784531Y-91305472D01*
X29498816Y-92067377D02*
X29498816Y-92543567D01*
X29784531Y-91972139D02*
X28784531Y-92305472D01*
X28784531Y-92305472D02*
X29784531Y-92638805D01*
X28784531Y-92829282D02*
X29784531Y-93162615D01*
X29784531Y-93162615D02*
X28784531Y-93495948D01*
X29260721Y-93829282D02*
X29260721Y-94162615D01*
X29784531Y-94305472D02*
X29784531Y-93829282D01*
X29784531Y-93829282D02*
X28784531Y-93829282D01*
X28784531Y-93829282D02*
X28784531Y-94305472D01*
X31394475Y-90067377D02*
X30394475Y-90067377D01*
X30394475Y-90067377D02*
X30394475Y-90448329D01*
X30394475Y-90448329D02*
X30442094Y-90543567D01*
X30442094Y-90543567D02*
X30489713Y-90591186D01*
X30489713Y-90591186D02*
X30584951Y-90638805D01*
X30584951Y-90638805D02*
X30727808Y-90638805D01*
X30727808Y-90638805D02*
X30823046Y-90591186D01*
X30823046Y-90591186D02*
X30870665Y-90543567D01*
X30870665Y-90543567D02*
X30918284Y-90448329D01*
X30918284Y-90448329D02*
X30918284Y-90067377D01*
X31394475Y-91638805D02*
X30918284Y-91305472D01*
X31394475Y-91067377D02*
X30394475Y-91067377D01*
X30394475Y-91067377D02*
X30394475Y-91448329D01*
X30394475Y-91448329D02*
X30442094Y-91543567D01*
X30442094Y-91543567D02*
X30489713Y-91591186D01*
X30489713Y-91591186D02*
X30584951Y-91638805D01*
X30584951Y-91638805D02*
X30727808Y-91638805D01*
X30727808Y-91638805D02*
X30823046Y-91591186D01*
X30823046Y-91591186D02*
X30870665Y-91543567D01*
X30870665Y-91543567D02*
X30918284Y-91448329D01*
X30918284Y-91448329D02*
X30918284Y-91067377D01*
X30394475Y-92257853D02*
X30394475Y-92448329D01*
X30394475Y-92448329D02*
X30442094Y-92543567D01*
X30442094Y-92543567D02*
X30537332Y-92638805D01*
X30537332Y-92638805D02*
X30727808Y-92686424D01*
X30727808Y-92686424D02*
X31061141Y-92686424D01*
X31061141Y-92686424D02*
X31251617Y-92638805D01*
X31251617Y-92638805D02*
X31346856Y-92543567D01*
X31346856Y-92543567D02*
X31394475Y-92448329D01*
X31394475Y-92448329D02*
X31394475Y-92257853D01*
X31394475Y-92257853D02*
X31346856Y-92162615D01*
X31346856Y-92162615D02*
X31251617Y-92067377D01*
X31251617Y-92067377D02*
X31061141Y-92019758D01*
X31061141Y-92019758D02*
X30727808Y-92019758D01*
X30727808Y-92019758D02*
X30537332Y-92067377D01*
X30537332Y-92067377D02*
X30442094Y-92162615D01*
X30442094Y-92162615D02*
X30394475Y-92257853D01*
X30870665Y-93448329D02*
X30918284Y-93591186D01*
X30918284Y-93591186D02*
X30965903Y-93638805D01*
X30965903Y-93638805D02*
X31061141Y-93686424D01*
X31061141Y-93686424D02*
X31203998Y-93686424D01*
X31203998Y-93686424D02*
X31299236Y-93638805D01*
X31299236Y-93638805D02*
X31346856Y-93591186D01*
X31346856Y-93591186D02*
X31394475Y-93495948D01*
X31394475Y-93495948D02*
X31394475Y-93114996D01*
X31394475Y-93114996D02*
X30394475Y-93114996D01*
X30394475Y-93114996D02*
X30394475Y-93448329D01*
X30394475Y-93448329D02*
X30442094Y-93543567D01*
X30442094Y-93543567D02*
X30489713Y-93591186D01*
X30489713Y-93591186D02*
X30584951Y-93638805D01*
X30584951Y-93638805D02*
X30680189Y-93638805D01*
X30680189Y-93638805D02*
X30775427Y-93591186D01*
X30775427Y-93591186D02*
X30823046Y-93543567D01*
X30823046Y-93543567D02*
X30870665Y-93448329D01*
X30870665Y-93448329D02*
X30870665Y-93114996D01*
X30870665Y-94114996D02*
X30870665Y-94448329D01*
X31394475Y-94591186D02*
X31394475Y-94114996D01*
X31394475Y-94114996D02*
X30394475Y-94114996D01*
X30394475Y-94114996D02*
X30394475Y-94591186D01*
X32004419Y-91495948D02*
X33004419Y-91829281D01*
X33004419Y-91829281D02*
X32004419Y-92162614D01*
X32004419Y-92400710D02*
X32004419Y-93019757D01*
X32004419Y-93019757D02*
X32385371Y-92686424D01*
X32385371Y-92686424D02*
X32385371Y-92829281D01*
X32385371Y-92829281D02*
X32432990Y-92924519D01*
X32432990Y-92924519D02*
X32480609Y-92972138D01*
X32480609Y-92972138D02*
X32575847Y-93019757D01*
X32575847Y-93019757D02*
X32813942Y-93019757D01*
X32813942Y-93019757D02*
X32909180Y-92972138D01*
X32909180Y-92972138D02*
X32956800Y-92924519D01*
X32956800Y-92924519D02*
X33004419Y-92829281D01*
X33004419Y-92829281D02*
X33004419Y-92543567D01*
X33004419Y-92543567D02*
X32956800Y-92448329D01*
X32956800Y-92448329D02*
X32909180Y-92400710D01*
D11*
X79919575Y-76140972D02*
X79705290Y-76212400D01*
X79705290Y-76212400D02*
X79348147Y-76212400D01*
X79348147Y-76212400D02*
X79205290Y-76140972D01*
X79205290Y-76140972D02*
X79133861Y-76069543D01*
X79133861Y-76069543D02*
X79062432Y-75926686D01*
X79062432Y-75926686D02*
X79062432Y-75783829D01*
X79062432Y-75783829D02*
X79133861Y-75640972D01*
X79133861Y-75640972D02*
X79205290Y-75569543D01*
X79205290Y-75569543D02*
X79348147Y-75498114D01*
X79348147Y-75498114D02*
X79633861Y-75426686D01*
X79633861Y-75426686D02*
X79776718Y-75355257D01*
X79776718Y-75355257D02*
X79848147Y-75283829D01*
X79848147Y-75283829D02*
X79919575Y-75140972D01*
X79919575Y-75140972D02*
X79919575Y-74998114D01*
X79919575Y-74998114D02*
X79848147Y-74855257D01*
X79848147Y-74855257D02*
X79776718Y-74783829D01*
X79776718Y-74783829D02*
X79633861Y-74712400D01*
X79633861Y-74712400D02*
X79276718Y-74712400D01*
X79276718Y-74712400D02*
X79062432Y-74783829D01*
X78419576Y-76212400D02*
X78419576Y-74712400D01*
X78419576Y-74712400D02*
X77919576Y-75783829D01*
X77919576Y-75783829D02*
X77419576Y-74712400D01*
X77419576Y-74712400D02*
X77419576Y-76212400D01*
X76776718Y-75783829D02*
X76062433Y-75783829D01*
X76919575Y-76212400D02*
X76419575Y-74712400D01*
X76419575Y-74712400D02*
X75919575Y-76212400D01*
X74562433Y-76212400D02*
X75062433Y-75498114D01*
X75419576Y-76212400D02*
X75419576Y-74712400D01*
X75419576Y-74712400D02*
X74848147Y-74712400D01*
X74848147Y-74712400D02*
X74705290Y-74783829D01*
X74705290Y-74783829D02*
X74633861Y-74855257D01*
X74633861Y-74855257D02*
X74562433Y-74998114D01*
X74562433Y-74998114D02*
X74562433Y-75212400D01*
X74562433Y-75212400D02*
X74633861Y-75355257D01*
X74633861Y-75355257D02*
X74705290Y-75426686D01*
X74705290Y-75426686D02*
X74848147Y-75498114D01*
X74848147Y-75498114D02*
X75419576Y-75498114D01*
X74133861Y-74712400D02*
X73276719Y-74712400D01*
X73705290Y-76212400D02*
X73705290Y-74712400D01*
X71633862Y-76212400D02*
X71633862Y-74712400D01*
X71633862Y-75426686D02*
X70776719Y-75426686D01*
X70776719Y-76212400D02*
X70776719Y-74712400D01*
X70062433Y-76212400D02*
X70062433Y-74712400D01*
X69562432Y-74712400D02*
X69062432Y-76212400D01*
X69062432Y-76212400D02*
X68562432Y-74712400D01*
X68062433Y-75426686D02*
X67562433Y-75426686D01*
X67348147Y-76212400D02*
X68062433Y-76212400D01*
X68062433Y-76212400D02*
X68062433Y-74712400D01*
X68062433Y-74712400D02*
X67348147Y-74712400D01*
X65633861Y-76140972D02*
X65419576Y-76212400D01*
X65419576Y-76212400D02*
X65062433Y-76212400D01*
X65062433Y-76212400D02*
X64919576Y-76140972D01*
X64919576Y-76140972D02*
X64848147Y-76069543D01*
X64848147Y-76069543D02*
X64776718Y-75926686D01*
X64776718Y-75926686D02*
X64776718Y-75783829D01*
X64776718Y-75783829D02*
X64848147Y-75640972D01*
X64848147Y-75640972D02*
X64919576Y-75569543D01*
X64919576Y-75569543D02*
X65062433Y-75498114D01*
X65062433Y-75498114D02*
X65348147Y-75426686D01*
X65348147Y-75426686D02*
X65491004Y-75355257D01*
X65491004Y-75355257D02*
X65562433Y-75283829D01*
X65562433Y-75283829D02*
X65633861Y-75140972D01*
X65633861Y-75140972D02*
X65633861Y-74998114D01*
X65633861Y-74998114D02*
X65562433Y-74855257D01*
X65562433Y-74855257D02*
X65491004Y-74783829D01*
X65491004Y-74783829D02*
X65348147Y-74712400D01*
X65348147Y-74712400D02*
X64991004Y-74712400D01*
X64991004Y-74712400D02*
X64776718Y-74783829D01*
X63419576Y-76212400D02*
X64133862Y-76212400D01*
X64133862Y-76212400D02*
X64133862Y-74712400D01*
X62991004Y-75783829D02*
X62276719Y-75783829D01*
X63133861Y-76212400D02*
X62633861Y-74712400D01*
X62633861Y-74712400D02*
X62133861Y-76212400D01*
X61848147Y-74712400D02*
X61348147Y-76212400D01*
X61348147Y-76212400D02*
X60848147Y-74712400D01*
X60348148Y-75426686D02*
X59848148Y-75426686D01*
X59633862Y-76212400D02*
X60348148Y-76212400D01*
X60348148Y-76212400D02*
X60348148Y-74712400D01*
X60348148Y-74712400D02*
X59633862Y-74712400D01*
X58062433Y-74712400D02*
X57562433Y-76212400D01*
X57562433Y-76212400D02*
X57062433Y-74712400D01*
X56705291Y-74712400D02*
X55776719Y-74712400D01*
X55776719Y-74712400D02*
X56276719Y-75283829D01*
X56276719Y-75283829D02*
X56062434Y-75283829D01*
X56062434Y-75283829D02*
X55919577Y-75355257D01*
X55919577Y-75355257D02*
X55848148Y-75426686D01*
X55848148Y-75426686D02*
X55776719Y-75569543D01*
X55776719Y-75569543D02*
X55776719Y-75926686D01*
X55776719Y-75926686D02*
X55848148Y-76069543D01*
X55848148Y-76069543D02*
X55919577Y-76140972D01*
X55919577Y-76140972D02*
X56062434Y-76212400D01*
X56062434Y-76212400D02*
X56491005Y-76212400D01*
X56491005Y-76212400D02*
X56633862Y-76140972D01*
X56633862Y-76140972D02*
X56705291Y-76069543D01*
D10*
X36344419Y-89869356D02*
X35344419Y-89869356D01*
X35344419Y-89869356D02*
X36058704Y-90202689D01*
X36058704Y-90202689D02*
X35344419Y-90536022D01*
X35344419Y-90536022D02*
X36344419Y-90536022D01*
X36344419Y-91012213D02*
X35344419Y-91012213D01*
X36249180Y-92059831D02*
X36296800Y-92012212D01*
X36296800Y-92012212D02*
X36344419Y-91869355D01*
X36344419Y-91869355D02*
X36344419Y-91774117D01*
X36344419Y-91774117D02*
X36296800Y-91631260D01*
X36296800Y-91631260D02*
X36201561Y-91536022D01*
X36201561Y-91536022D02*
X36106323Y-91488403D01*
X36106323Y-91488403D02*
X35915847Y-91440784D01*
X35915847Y-91440784D02*
X35772990Y-91440784D01*
X35772990Y-91440784D02*
X35582514Y-91488403D01*
X35582514Y-91488403D02*
X35487276Y-91536022D01*
X35487276Y-91536022D02*
X35392038Y-91631260D01*
X35392038Y-91631260D02*
X35344419Y-91774117D01*
X35344419Y-91774117D02*
X35344419Y-91869355D01*
X35344419Y-91869355D02*
X35392038Y-92012212D01*
X35392038Y-92012212D02*
X35439657Y-92059831D01*
D12*
X72942890Y-25101200D02*
X72657176Y-25196438D01*
X72657176Y-25196438D02*
X72180985Y-25196438D01*
X72180985Y-25196438D02*
X71990509Y-25101200D01*
X71990509Y-25101200D02*
X71895271Y-25005961D01*
X71895271Y-25005961D02*
X71800033Y-24815485D01*
X71800033Y-24815485D02*
X71800033Y-24625009D01*
X71800033Y-24625009D02*
X71895271Y-24434533D01*
X71895271Y-24434533D02*
X71990509Y-24339295D01*
X71990509Y-24339295D02*
X72180985Y-24244057D01*
X72180985Y-24244057D02*
X72561938Y-24148819D01*
X72561938Y-24148819D02*
X72752414Y-24053580D01*
X72752414Y-24053580D02*
X72847652Y-23958342D01*
X72847652Y-23958342D02*
X72942890Y-23767866D01*
X72942890Y-23767866D02*
X72942890Y-23577390D01*
X72942890Y-23577390D02*
X72847652Y-23386914D01*
X72847652Y-23386914D02*
X72752414Y-23291676D01*
X72752414Y-23291676D02*
X72561938Y-23196438D01*
X72561938Y-23196438D02*
X72085747Y-23196438D01*
X72085747Y-23196438D02*
X71800033Y-23291676D01*
X70942890Y-25196438D02*
X70942890Y-23196438D01*
X70942890Y-23196438D02*
X70276223Y-24625009D01*
X70276223Y-24625009D02*
X69609557Y-23196438D01*
X69609557Y-23196438D02*
X69609557Y-25196438D01*
X68752414Y-24625009D02*
X67800033Y-24625009D01*
X68942890Y-25196438D02*
X68276224Y-23196438D01*
X68276224Y-23196438D02*
X67609557Y-25196438D01*
X65800033Y-25196438D02*
X66466700Y-24244057D01*
X66942890Y-25196438D02*
X66942890Y-23196438D01*
X66942890Y-23196438D02*
X66180985Y-23196438D01*
X66180985Y-23196438D02*
X65990509Y-23291676D01*
X65990509Y-23291676D02*
X65895271Y-23386914D01*
X65895271Y-23386914D02*
X65800033Y-23577390D01*
X65800033Y-23577390D02*
X65800033Y-23863104D01*
X65800033Y-23863104D02*
X65895271Y-24053580D01*
X65895271Y-24053580D02*
X65990509Y-24148819D01*
X65990509Y-24148819D02*
X66180985Y-24244057D01*
X66180985Y-24244057D02*
X66942890Y-24244057D01*
X65228604Y-23196438D02*
X64085747Y-23196438D01*
X64657176Y-25196438D02*
X64657176Y-23196438D01*
X61895270Y-25196438D02*
X61895270Y-23196438D01*
X61895270Y-24148819D02*
X60752413Y-24148819D01*
X60752413Y-25196438D02*
X60752413Y-23196438D01*
X59800032Y-25196438D02*
X59800032Y-23196438D01*
X59133365Y-23196438D02*
X58466699Y-25196438D01*
X58466699Y-25196438D02*
X57800032Y-23196438D01*
X57133365Y-24148819D02*
X56466698Y-24148819D01*
X56180984Y-25196438D02*
X57133365Y-25196438D01*
X57133365Y-25196438D02*
X57133365Y-23196438D01*
X57133365Y-23196438D02*
X56180984Y-23196438D01*
X53800031Y-25196438D02*
X53800031Y-23196438D01*
X53800031Y-23196438D02*
X53133364Y-24625009D01*
X53133364Y-24625009D02*
X52466698Y-23196438D01*
X52466698Y-23196438D02*
X52466698Y-25196438D01*
X51609555Y-24625009D02*
X50657174Y-24625009D01*
X51800031Y-25196438D02*
X51133365Y-23196438D01*
X51133365Y-23196438D02*
X50466698Y-25196438D01*
X49895269Y-25101200D02*
X49609555Y-25196438D01*
X49609555Y-25196438D02*
X49133364Y-25196438D01*
X49133364Y-25196438D02*
X48942888Y-25101200D01*
X48942888Y-25101200D02*
X48847650Y-25005961D01*
X48847650Y-25005961D02*
X48752412Y-24815485D01*
X48752412Y-24815485D02*
X48752412Y-24625009D01*
X48752412Y-24625009D02*
X48847650Y-24434533D01*
X48847650Y-24434533D02*
X48942888Y-24339295D01*
X48942888Y-24339295D02*
X49133364Y-24244057D01*
X49133364Y-24244057D02*
X49514317Y-24148819D01*
X49514317Y-24148819D02*
X49704793Y-24053580D01*
X49704793Y-24053580D02*
X49800031Y-23958342D01*
X49800031Y-23958342D02*
X49895269Y-23767866D01*
X49895269Y-23767866D02*
X49895269Y-23577390D01*
X49895269Y-23577390D02*
X49800031Y-23386914D01*
X49800031Y-23386914D02*
X49704793Y-23291676D01*
X49704793Y-23291676D02*
X49514317Y-23196438D01*
X49514317Y-23196438D02*
X49038126Y-23196438D01*
X49038126Y-23196438D02*
X48752412Y-23291676D01*
X48180983Y-23196438D02*
X47038126Y-23196438D01*
X47609555Y-25196438D02*
X47609555Y-23196438D01*
X46371459Y-24148819D02*
X45704792Y-24148819D01*
X45419078Y-25196438D02*
X46371459Y-25196438D01*
X46371459Y-25196438D02*
X46371459Y-23196438D01*
X46371459Y-23196438D02*
X45419078Y-23196438D01*
X43419078Y-25196438D02*
X44085745Y-24244057D01*
X44561935Y-25196438D02*
X44561935Y-23196438D01*
X44561935Y-23196438D02*
X43800030Y-23196438D01*
X43800030Y-23196438D02*
X43609554Y-23291676D01*
X43609554Y-23291676D02*
X43514316Y-23386914D01*
X43514316Y-23386914D02*
X43419078Y-23577390D01*
X43419078Y-23577390D02*
X43419078Y-23863104D01*
X43419078Y-23863104D02*
X43514316Y-24053580D01*
X43514316Y-24053580D02*
X43609554Y-24148819D01*
X43609554Y-24148819D02*
X43800030Y-24244057D01*
X43800030Y-24244057D02*
X44561935Y-24244057D01*
X41323839Y-23196438D02*
X40657173Y-25196438D01*
X40657173Y-25196438D02*
X39990506Y-23196438D01*
X39514315Y-23196438D02*
X38276220Y-23196438D01*
X38276220Y-23196438D02*
X38942887Y-23958342D01*
X38942887Y-23958342D02*
X38657172Y-23958342D01*
X38657172Y-23958342D02*
X38466696Y-24053580D01*
X38466696Y-24053580D02*
X38371458Y-24148819D01*
X38371458Y-24148819D02*
X38276220Y-24339295D01*
X38276220Y-24339295D02*
X38276220Y-24815485D01*
X38276220Y-24815485D02*
X38371458Y-25005961D01*
X38371458Y-25005961D02*
X38466696Y-25101200D01*
X38466696Y-25101200D02*
X38657172Y-25196438D01*
X38657172Y-25196438D02*
X39228601Y-25196438D01*
X39228601Y-25196438D02*
X39419077Y-25101200D01*
X39419077Y-25101200D02*
X39514315Y-25005961D01*
D13*
%TO.C,G\u002A\u002A\u002A*%
G36*
X79022773Y-77319654D02*
G01*
X78967042Y-77444784D01*
X78967015Y-77444811D01*
X78943753Y-77517432D01*
X78969269Y-77654357D01*
X79046971Y-77873877D01*
X79113810Y-78061413D01*
X79185852Y-78307095D01*
X79228707Y-78508195D01*
X79235240Y-78552210D01*
X79271278Y-78703485D01*
X79334580Y-78786680D01*
X79451159Y-78840672D01*
X79548904Y-78882604D01*
X79733872Y-78982194D01*
X79925113Y-79102713D01*
X80214711Y-79301212D01*
X80480224Y-79221305D01*
X81648061Y-79221305D01*
X81683241Y-79337272D01*
X81785328Y-79407170D01*
X81919300Y-79403132D01*
X82023531Y-79308965D01*
X82058836Y-79170169D01*
X82007528Y-79059830D01*
X81877637Y-79016810D01*
X81807204Y-79028315D01*
X81697321Y-79105232D01*
X81648061Y-79221305D01*
X80480224Y-79221305D01*
X80495831Y-79216608D01*
X80613992Y-79187411D01*
X80869988Y-79147610D01*
X81119461Y-79132003D01*
X81159919Y-79131805D01*
X81364051Y-79118357D01*
X81506619Y-79074675D01*
X81633093Y-78988012D01*
X81683555Y-78947179D01*
X81833698Y-78860228D01*
X81957869Y-78865975D01*
X82086849Y-78962703D01*
X82118787Y-78998882D01*
X82185511Y-79166007D01*
X82184642Y-79170169D01*
X82149029Y-79340695D01*
X82013029Y-79496288D01*
X81947460Y-79541380D01*
X81834837Y-79580753D01*
X81715644Y-79548692D01*
X81616538Y-79479716D01*
X81537309Y-79365899D01*
X81494606Y-79292975D01*
X81402837Y-79256620D01*
X81229933Y-79247517D01*
X81021281Y-79260747D01*
X80778758Y-79301461D01*
X80568883Y-79360500D01*
X80432927Y-79428492D01*
X80409874Y-79464325D01*
X80423864Y-79563387D01*
X80505411Y-79731347D01*
X80506408Y-79733134D01*
X80668908Y-80132860D01*
X80714844Y-80458552D01*
X80727842Y-80550707D01*
X80679661Y-80961620D01*
X80641084Y-81106613D01*
X80590716Y-81283210D01*
X80555215Y-81392661D01*
X80549756Y-81470976D01*
X80635128Y-81493454D01*
X80764858Y-81513076D01*
X80979184Y-81578489D01*
X81224897Y-81675698D01*
X81465391Y-81789999D01*
X81664060Y-81906693D01*
X81960061Y-82156124D01*
X82155992Y-82438926D01*
X82225853Y-82692910D01*
X82241172Y-82748603D01*
X82233628Y-82977633D01*
X82140909Y-83210728D01*
X81949546Y-83412856D01*
X81651388Y-83595722D01*
X81609848Y-83616338D01*
X81456053Y-83686395D01*
X81317546Y-83730913D01*
X81161715Y-83755620D01*
X80955947Y-83766243D01*
X80667629Y-83768511D01*
X80029448Y-83768511D01*
X80167804Y-84070721D01*
X80265683Y-84323867D01*
X80337969Y-84674346D01*
X80334644Y-84762048D01*
X80326148Y-84986124D01*
X80231424Y-85244634D01*
X80055001Y-85435309D01*
X80031604Y-85450384D01*
X79822285Y-85515214D01*
X79563948Y-85504012D01*
X79288869Y-85417528D01*
X79216587Y-85380076D01*
X78988005Y-85218630D01*
X78751570Y-85002159D01*
X78542116Y-84764812D01*
X78394475Y-84540736D01*
X78369128Y-84491873D01*
X78298486Y-84381497D01*
X78230630Y-84349736D01*
X78132099Y-84375520D01*
X78087771Y-84391107D01*
X77926856Y-84441914D01*
X77704776Y-84507784D01*
X77455713Y-84578460D01*
X77364142Y-84605169D01*
X77088663Y-84698668D01*
X76834615Y-84801855D01*
X76647385Y-84896854D01*
X76524478Y-84966875D01*
X76384476Y-85031847D01*
X76305811Y-85048859D01*
X76296861Y-85041370D01*
X76269093Y-84947748D01*
X76249766Y-84765106D01*
X76241333Y-84513799D01*
X76233292Y-84237361D01*
X76207929Y-84024565D01*
X76156284Y-83833593D01*
X76069361Y-83617555D01*
X75901393Y-83236214D01*
X75538275Y-83202306D01*
X75351662Y-83177048D01*
X74998346Y-83082963D01*
X74695351Y-82940822D01*
X74458873Y-82761531D01*
X74305108Y-82555993D01*
X74250254Y-82335115D01*
X74255409Y-82311869D01*
X74492375Y-82311869D01*
X74501899Y-82401897D01*
X74573805Y-82512310D01*
X74598532Y-82542324D01*
X74742588Y-82672050D01*
X74914707Y-82783533D01*
X74996669Y-82819517D01*
X75236318Y-82887056D01*
X75501805Y-82923787D01*
X75862952Y-82946783D01*
X75862952Y-82714840D01*
X76080512Y-82714840D01*
X76118101Y-82949906D01*
X76156262Y-83107894D01*
X76230598Y-83333283D01*
X76322087Y-83562660D01*
X76346761Y-83617576D01*
X76464874Y-83838606D01*
X76600286Y-84002940D01*
X76789357Y-84156810D01*
X76934346Y-84256272D01*
X77087135Y-84333622D01*
X77234959Y-84356787D01*
X77415331Y-84330094D01*
X77665761Y-84257867D01*
X77722322Y-84240041D01*
X78499553Y-84240041D01*
X78643861Y-84465047D01*
X78738520Y-84599512D01*
X78964612Y-84855199D01*
X79211832Y-85067598D01*
X79446476Y-85205608D01*
X79548155Y-85245586D01*
X79716402Y-85287894D01*
X79839161Y-85266520D01*
X79952295Y-85179622D01*
X79999989Y-85120715D01*
X80052132Y-84978850D01*
X80066925Y-84762048D01*
X80064158Y-84683091D01*
X79984209Y-84308571D01*
X79798631Y-83931540D01*
X79513916Y-83566034D01*
X79242357Y-83275715D01*
X79078582Y-83579709D01*
X79005044Y-83702049D01*
X78854775Y-83905925D01*
X78708196Y-84060799D01*
X78707180Y-84061872D01*
X78499553Y-84240041D01*
X77722322Y-84240041D01*
X77814150Y-84211100D01*
X78008333Y-84145775D01*
X78105241Y-84099136D01*
X78113032Y-84060799D01*
X78039864Y-84020378D01*
X77893897Y-83967488D01*
X77561749Y-83835337D01*
X76985463Y-83513895D01*
X76475700Y-83098414D01*
X76080512Y-82714840D01*
X75862952Y-82714840D01*
X75862952Y-82660208D01*
X75862994Y-82650090D01*
X75903348Y-82359265D01*
X76027343Y-82047726D01*
X76096302Y-81911014D01*
X76460357Y-81911014D01*
X76487225Y-81994469D01*
X76618439Y-82168767D01*
X76836157Y-82373530D01*
X77115456Y-82588762D01*
X77433368Y-82798162D01*
X77766923Y-82985427D01*
X78093153Y-83134256D01*
X78242654Y-83187842D01*
X78479076Y-83256582D01*
X78674495Y-83296038D01*
X78782343Y-83306449D01*
X78892659Y-83294417D01*
X78954380Y-83230402D01*
X78983023Y-83093341D01*
X78994105Y-82862169D01*
X78997899Y-82717377D01*
X79262919Y-82717377D01*
X79267451Y-82870048D01*
X79295477Y-82994290D01*
X79370561Y-83092018D01*
X79516475Y-83209353D01*
X79611789Y-83276178D01*
X79797142Y-83385269D01*
X79949498Y-83450929D01*
X80061110Y-83477176D01*
X80331474Y-83515380D01*
X80633813Y-83535164D01*
X80920028Y-83534148D01*
X81142020Y-83509951D01*
X81390465Y-83440578D01*
X81677259Y-83301895D01*
X81880536Y-83124383D01*
X81989850Y-82918052D01*
X81994754Y-82692910D01*
X81985575Y-82657782D01*
X81867579Y-82438679D01*
X81658774Y-82225874D01*
X81379721Y-82033930D01*
X81050979Y-81877411D01*
X80693108Y-81770881D01*
X80381900Y-81705604D01*
X80066304Y-81946300D01*
X79896388Y-82063643D01*
X79685778Y-82184017D01*
X79512220Y-82257799D01*
X79449332Y-82277926D01*
X79321309Y-82330553D01*
X79267435Y-82371799D01*
X79265238Y-82409177D01*
X79263026Y-82538374D01*
X79263012Y-82562611D01*
X79262919Y-82717377D01*
X78997899Y-82717377D01*
X79001954Y-82562611D01*
X78739606Y-82523983D01*
X78606105Y-82495172D01*
X78303721Y-82385861D01*
X77969484Y-82219983D01*
X77635570Y-82014431D01*
X77334153Y-81786097D01*
X77297931Y-81755551D01*
X77129239Y-81622382D01*
X76992946Y-81528796D01*
X76915733Y-81493454D01*
X76880041Y-81503800D01*
X76768482Y-81572543D01*
X76631970Y-81684465D01*
X76596049Y-81717796D01*
X76592289Y-81721819D01*
X76491623Y-81829517D01*
X76460357Y-81911014D01*
X76096302Y-81911014D01*
X76191734Y-81721819D01*
X76050087Y-81686268D01*
X75915964Y-81668750D01*
X75666515Y-81674406D01*
X75384734Y-81709697D01*
X75114730Y-81768537D01*
X74900611Y-81844842D01*
X74709807Y-81965324D01*
X74551744Y-82163552D01*
X74541609Y-82184931D01*
X74492375Y-82311869D01*
X74255409Y-82311869D01*
X74304584Y-82090121D01*
X74456917Y-81865365D01*
X74690240Y-81675440D01*
X74987538Y-81534183D01*
X75331796Y-81455434D01*
X75448002Y-81439853D01*
X75580844Y-81415667D01*
X75632567Y-81396523D01*
X75630561Y-81390595D01*
X75580543Y-81324129D01*
X75484351Y-81217358D01*
X75212840Y-80889310D01*
X74972550Y-80487256D01*
X74821271Y-80081485D01*
X74768836Y-79692950D01*
X74772277Y-79609047D01*
X75020841Y-79609047D01*
X75033980Y-79879764D01*
X75118369Y-80181767D01*
X75271477Y-80501780D01*
X75490766Y-80826531D01*
X75773704Y-81142746D01*
X75819276Y-81186455D01*
X76057035Y-81375397D01*
X76267206Y-81463012D01*
X76465512Y-81452924D01*
X76667676Y-81348757D01*
X76715299Y-81316117D01*
X76853039Y-81237088D01*
X76946321Y-81205472D01*
X76983223Y-81192922D01*
X77001523Y-81119932D01*
X76982482Y-80960688D01*
X76975392Y-80917088D01*
X76958111Y-80756318D01*
X76952579Y-80562974D01*
X76953740Y-80514316D01*
X77219137Y-80514316D01*
X77219168Y-80533060D01*
X77230995Y-80802974D01*
X77269507Y-81003539D01*
X77318587Y-81119932D01*
X77342513Y-81176674D01*
X77354120Y-81197861D01*
X77572960Y-81498210D01*
X77859186Y-81761714D01*
X78171360Y-81949722D01*
X78390823Y-82030683D01*
X78795155Y-82101878D01*
X79185318Y-82078554D01*
X79547504Y-81969728D01*
X79867904Y-81784412D01*
X80132712Y-81531623D01*
X80328117Y-81220373D01*
X80440313Y-80859678D01*
X80455491Y-80458552D01*
X80394182Y-80132759D01*
X80228729Y-79773857D01*
X79959906Y-79462512D01*
X79735250Y-79278460D01*
X79497558Y-79142841D01*
X79233663Y-79065418D01*
X78900195Y-79028427D01*
X78654793Y-79024013D01*
X78292480Y-79071832D01*
X77981343Y-79197440D01*
X77693019Y-79409799D01*
X77520781Y-79583528D01*
X77343698Y-79846773D01*
X77247901Y-80145961D01*
X77219137Y-80514316D01*
X76953740Y-80514316D01*
X76958621Y-80309698D01*
X76976060Y-79969135D01*
X76976307Y-79964630D01*
X76967652Y-79868014D01*
X76918395Y-79777927D01*
X76810058Y-79670986D01*
X76624166Y-79523809D01*
X76349662Y-79338933D01*
X75998320Y-79172928D01*
X75673983Y-79101643D01*
X75389197Y-79129088D01*
X75218459Y-79214561D01*
X75081490Y-79382888D01*
X75020841Y-79609047D01*
X74772277Y-79609047D01*
X74773126Y-79588343D01*
X74842740Y-79292816D01*
X74988727Y-79069974D01*
X75199689Y-78921648D01*
X75464229Y-78849669D01*
X75770947Y-78855867D01*
X76108444Y-78942074D01*
X76465323Y-79110121D01*
X76830184Y-79361838D01*
X76883728Y-79404414D01*
X77038730Y-79520323D01*
X77146971Y-79589892D01*
X77187669Y-79599316D01*
X77204865Y-79551460D01*
X77296330Y-79436101D01*
X77444667Y-79293435D01*
X77624895Y-79144957D01*
X77812034Y-79012162D01*
X77981106Y-78916546D01*
X78142890Y-78854770D01*
X78411443Y-78781751D01*
X78672263Y-78737719D01*
X79059551Y-78698820D01*
X79047471Y-78469040D01*
X79036156Y-78361097D01*
X78995548Y-78137843D01*
X78938478Y-77911118D01*
X78889596Y-77756273D01*
X78834880Y-77640071D01*
X78767191Y-77585803D01*
X78664373Y-77565540D01*
X78529130Y-77526759D01*
X78400172Y-77392352D01*
X78349654Y-77284058D01*
X78354642Y-77218116D01*
X78518358Y-77218116D01*
X78529933Y-77346307D01*
X78603491Y-77426748D01*
X78664272Y-77447701D01*
X78769297Y-77451331D01*
X78855667Y-77378081D01*
X78902178Y-77281205D01*
X78890596Y-77156518D01*
X78821564Y-77057395D01*
X78718197Y-77013508D01*
X78603608Y-77054527D01*
X78568750Y-77091514D01*
X78518358Y-77218116D01*
X78354642Y-77218116D01*
X78356455Y-77194144D01*
X78432869Y-77075572D01*
X78469033Y-77032123D01*
X78625993Y-76922378D01*
X78792875Y-76900507D01*
X78937117Y-76973126D01*
X78963540Y-77005322D01*
X79020402Y-77154189D01*
X79022222Y-77281205D01*
X79022773Y-77319654D01*
G37*
G36*
X78500744Y-79729238D02*
G01*
X78500854Y-79729347D01*
X78552720Y-79802946D01*
X78557429Y-79899392D01*
X78517049Y-80060690D01*
X78503937Y-80099825D01*
X78403878Y-80302234D01*
X78276527Y-80471054D01*
X78188448Y-80550004D01*
X78066124Y-80609080D01*
X77986638Y-80562266D01*
X77947167Y-80409030D01*
X77956519Y-80274285D01*
X78029589Y-80057304D01*
X78150260Y-79853921D01*
X78293641Y-79714064D01*
X78315792Y-79700714D01*
X78413409Y-79671628D01*
X78500744Y-79729238D01*
G37*
G36*
X79813299Y-80408232D02*
G01*
X79828130Y-80425643D01*
X79866859Y-80564312D01*
X79837194Y-80751268D01*
X79747670Y-80955943D01*
X79606822Y-81147763D01*
X79569059Y-81186780D01*
X79435644Y-81288311D01*
X79331405Y-81289013D01*
X79238829Y-81190941D01*
X79219858Y-81099823D01*
X79251167Y-80934638D01*
X79329188Y-80745367D01*
X79438616Y-80567502D01*
X79564147Y-80436532D01*
X79668158Y-80366515D01*
X79742012Y-80354495D01*
X79813299Y-80408232D01*
G37*
G36*
X78273134Y-81003329D02*
G01*
X78366432Y-81088111D01*
X78369483Y-81091419D01*
X78498858Y-81188554D01*
X78663871Y-81265542D01*
X78711214Y-81282789D01*
X78810843Y-81348960D01*
X78795400Y-81419558D01*
X78664882Y-81493840D01*
X78527076Y-81537859D01*
X78401803Y-81526838D01*
X78282000Y-81435858D01*
X78250682Y-81396425D01*
X78194961Y-81272235D01*
X78166660Y-81133884D01*
X78171569Y-81021469D01*
X78215477Y-80975087D01*
X78273134Y-81003329D01*
G37*
G36*
X31278134Y-25409857D02*
G01*
X31371432Y-25494639D01*
X31374483Y-25497947D01*
X31503858Y-25595082D01*
X31668871Y-25672070D01*
X31716214Y-25689317D01*
X31815843Y-25755488D01*
X31800400Y-25826086D01*
X31669882Y-25900368D01*
X31532076Y-25944387D01*
X31406803Y-25933366D01*
X31287000Y-25842386D01*
X31255682Y-25802953D01*
X31199961Y-25678763D01*
X31171660Y-25540412D01*
X31176569Y-25427997D01*
X31220477Y-25381615D01*
X31278134Y-25409857D01*
G37*
G36*
X32818299Y-24814760D02*
G01*
X32833130Y-24832171D01*
X32871859Y-24970840D01*
X32842194Y-25157796D01*
X32752670Y-25362471D01*
X32611822Y-25554291D01*
X32574059Y-25593308D01*
X32440644Y-25694839D01*
X32336405Y-25695541D01*
X32243829Y-25597469D01*
X32224858Y-25506351D01*
X32256167Y-25341166D01*
X32334188Y-25151895D01*
X32443616Y-24974030D01*
X32569147Y-24843060D01*
X32673158Y-24773043D01*
X32747012Y-24761023D01*
X32818299Y-24814760D01*
G37*
G36*
X31505744Y-24135766D02*
G01*
X31505854Y-24135875D01*
X31557720Y-24209474D01*
X31562429Y-24305920D01*
X31522049Y-24467218D01*
X31508937Y-24506353D01*
X31408878Y-24708762D01*
X31281527Y-24877582D01*
X31193448Y-24956532D01*
X31071124Y-25015608D01*
X30991638Y-24968794D01*
X30952167Y-24815558D01*
X30961519Y-24680813D01*
X31034589Y-24463832D01*
X31155260Y-24260449D01*
X31298641Y-24120592D01*
X31320792Y-24107242D01*
X31418409Y-24078156D01*
X31505744Y-24135766D01*
G37*
G36*
X32027773Y-21726182D02*
G01*
X31972042Y-21851312D01*
X31972015Y-21851339D01*
X31948753Y-21923960D01*
X31974269Y-22060885D01*
X32051971Y-22280405D01*
X32118810Y-22467941D01*
X32190852Y-22713623D01*
X32233707Y-22914723D01*
X32240240Y-22958738D01*
X32276278Y-23110013D01*
X32339580Y-23193208D01*
X32456159Y-23247200D01*
X32553904Y-23289132D01*
X32738872Y-23388722D01*
X32930113Y-23509241D01*
X33219711Y-23707740D01*
X33485224Y-23627833D01*
X34653061Y-23627833D01*
X34688241Y-23743800D01*
X34790328Y-23813698D01*
X34924300Y-23809660D01*
X35028531Y-23715493D01*
X35063836Y-23576697D01*
X35012528Y-23466358D01*
X34882637Y-23423338D01*
X34812204Y-23434843D01*
X34702321Y-23511760D01*
X34653061Y-23627833D01*
X33485224Y-23627833D01*
X33500831Y-23623136D01*
X33618992Y-23593939D01*
X33874988Y-23554138D01*
X34124461Y-23538531D01*
X34164919Y-23538333D01*
X34369051Y-23524885D01*
X34511619Y-23481203D01*
X34638093Y-23394540D01*
X34688555Y-23353707D01*
X34838698Y-23266756D01*
X34962869Y-23272503D01*
X35091849Y-23369231D01*
X35123787Y-23405410D01*
X35190511Y-23572535D01*
X35189642Y-23576697D01*
X35154029Y-23747223D01*
X35018029Y-23902816D01*
X34952460Y-23947908D01*
X34839837Y-23987281D01*
X34720644Y-23955220D01*
X34621538Y-23886244D01*
X34542309Y-23772427D01*
X34499606Y-23699503D01*
X34407837Y-23663148D01*
X34234933Y-23654045D01*
X34026281Y-23667275D01*
X33783758Y-23707989D01*
X33573883Y-23767028D01*
X33437927Y-23835020D01*
X33414874Y-23870853D01*
X33428864Y-23969915D01*
X33510411Y-24137875D01*
X33511408Y-24139662D01*
X33673908Y-24539388D01*
X33719844Y-24865080D01*
X33732842Y-24957235D01*
X33684661Y-25368148D01*
X33646084Y-25513141D01*
X33595716Y-25689738D01*
X33560215Y-25799189D01*
X33554756Y-25877504D01*
X33640128Y-25899982D01*
X33769858Y-25919604D01*
X33984184Y-25985017D01*
X34229897Y-26082226D01*
X34470391Y-26196527D01*
X34669060Y-26313221D01*
X34965061Y-26562652D01*
X35160992Y-26845454D01*
X35230853Y-27099438D01*
X35246172Y-27155131D01*
X35238628Y-27384161D01*
X35145909Y-27617256D01*
X34954546Y-27819384D01*
X34656388Y-28002250D01*
X34614848Y-28022866D01*
X34461053Y-28092923D01*
X34322546Y-28137441D01*
X34166715Y-28162148D01*
X33960947Y-28172771D01*
X33672629Y-28175039D01*
X33034448Y-28175039D01*
X33172804Y-28477249D01*
X33270683Y-28730395D01*
X33342969Y-29080874D01*
X33339644Y-29168576D01*
X33331148Y-29392652D01*
X33236424Y-29651162D01*
X33060001Y-29841837D01*
X33036604Y-29856912D01*
X32827285Y-29921742D01*
X32568948Y-29910540D01*
X32293869Y-29824056D01*
X32221587Y-29786604D01*
X31993005Y-29625158D01*
X31756570Y-29408687D01*
X31547116Y-29171340D01*
X31399475Y-28947264D01*
X31374128Y-28898401D01*
X31303486Y-28788025D01*
X31235630Y-28756264D01*
X31137099Y-28782048D01*
X31092771Y-28797635D01*
X30931856Y-28848442D01*
X30709776Y-28914312D01*
X30460713Y-28984988D01*
X30369142Y-29011697D01*
X30093663Y-29105196D01*
X29839615Y-29208383D01*
X29652385Y-29303382D01*
X29529478Y-29373403D01*
X29389476Y-29438375D01*
X29310811Y-29455387D01*
X29301861Y-29447898D01*
X29274093Y-29354276D01*
X29254766Y-29171634D01*
X29246333Y-28920327D01*
X29238292Y-28643889D01*
X29212929Y-28431093D01*
X29161284Y-28240121D01*
X29074361Y-28024083D01*
X28906393Y-27642742D01*
X28543275Y-27608834D01*
X28356662Y-27583576D01*
X28003346Y-27489491D01*
X27700351Y-27347350D01*
X27463873Y-27168059D01*
X27310108Y-26962521D01*
X27255254Y-26741643D01*
X27260409Y-26718397D01*
X27497375Y-26718397D01*
X27506899Y-26808425D01*
X27578805Y-26918838D01*
X27603532Y-26948852D01*
X27747588Y-27078578D01*
X27919707Y-27190061D01*
X28001669Y-27226045D01*
X28241318Y-27293584D01*
X28506805Y-27330315D01*
X28867952Y-27353311D01*
X28867952Y-27121368D01*
X29085512Y-27121368D01*
X29123101Y-27356434D01*
X29161262Y-27514422D01*
X29235598Y-27739811D01*
X29327087Y-27969188D01*
X29351761Y-28024104D01*
X29469874Y-28245134D01*
X29605286Y-28409468D01*
X29794357Y-28563338D01*
X29939346Y-28662800D01*
X30092135Y-28740150D01*
X30239959Y-28763315D01*
X30420331Y-28736622D01*
X30670761Y-28664395D01*
X30727322Y-28646569D01*
X31504553Y-28646569D01*
X31648861Y-28871575D01*
X31743520Y-29006040D01*
X31969612Y-29261727D01*
X32216832Y-29474126D01*
X32451476Y-29612136D01*
X32553155Y-29652114D01*
X32721402Y-29694422D01*
X32844161Y-29673048D01*
X32957295Y-29586150D01*
X33004989Y-29527243D01*
X33057132Y-29385378D01*
X33071925Y-29168576D01*
X33069158Y-29089619D01*
X32989209Y-28715099D01*
X32803631Y-28338068D01*
X32518916Y-27972562D01*
X32247357Y-27682243D01*
X32083582Y-27986237D01*
X32010044Y-28108577D01*
X31859775Y-28312453D01*
X31713196Y-28467327D01*
X31712180Y-28468400D01*
X31504553Y-28646569D01*
X30727322Y-28646569D01*
X30819150Y-28617628D01*
X31013333Y-28552303D01*
X31110241Y-28505664D01*
X31118032Y-28467327D01*
X31044864Y-28426906D01*
X30898897Y-28374016D01*
X30566749Y-28241865D01*
X29990463Y-27920423D01*
X29480700Y-27504942D01*
X29085512Y-27121368D01*
X28867952Y-27121368D01*
X28867952Y-27066736D01*
X28867994Y-27056618D01*
X28908348Y-26765793D01*
X29032343Y-26454254D01*
X29101302Y-26317542D01*
X29465357Y-26317542D01*
X29492225Y-26400997D01*
X29623439Y-26575295D01*
X29841157Y-26780058D01*
X30120456Y-26995290D01*
X30438368Y-27204690D01*
X30771923Y-27391955D01*
X31098153Y-27540784D01*
X31247654Y-27594370D01*
X31484076Y-27663110D01*
X31679495Y-27702566D01*
X31787343Y-27712977D01*
X31897659Y-27700945D01*
X31959380Y-27636930D01*
X31988023Y-27499869D01*
X31999105Y-27268697D01*
X32002899Y-27123905D01*
X32267919Y-27123905D01*
X32272451Y-27276576D01*
X32300477Y-27400818D01*
X32375561Y-27498546D01*
X32521475Y-27615881D01*
X32616789Y-27682706D01*
X32802142Y-27791797D01*
X32954498Y-27857457D01*
X33066110Y-27883704D01*
X33336474Y-27921908D01*
X33638813Y-27941692D01*
X33925028Y-27940676D01*
X34147020Y-27916479D01*
X34395465Y-27847106D01*
X34682259Y-27708423D01*
X34885536Y-27530911D01*
X34994850Y-27324580D01*
X34999754Y-27099438D01*
X34990575Y-27064310D01*
X34872579Y-26845207D01*
X34663774Y-26632402D01*
X34384721Y-26440458D01*
X34055979Y-26283939D01*
X33698108Y-26177409D01*
X33386900Y-26112132D01*
X33071304Y-26352828D01*
X32901388Y-26470171D01*
X32690778Y-26590545D01*
X32517220Y-26664327D01*
X32454332Y-26684454D01*
X32326309Y-26737081D01*
X32272435Y-26778327D01*
X32270238Y-26815705D01*
X32268026Y-26944902D01*
X32268012Y-26969139D01*
X32267919Y-27123905D01*
X32002899Y-27123905D01*
X32006954Y-26969139D01*
X31744606Y-26930511D01*
X31611105Y-26901700D01*
X31308721Y-26792389D01*
X30974484Y-26626511D01*
X30640570Y-26420959D01*
X30339153Y-26192625D01*
X30302931Y-26162079D01*
X30134239Y-26028910D01*
X29997946Y-25935324D01*
X29920733Y-25899982D01*
X29885041Y-25910328D01*
X29773482Y-25979071D01*
X29636970Y-26090993D01*
X29601049Y-26124324D01*
X29597289Y-26128347D01*
X29496623Y-26236045D01*
X29465357Y-26317542D01*
X29101302Y-26317542D01*
X29196734Y-26128347D01*
X29055087Y-26092796D01*
X28920964Y-26075278D01*
X28671515Y-26080934D01*
X28389734Y-26116225D01*
X28119730Y-26175065D01*
X27905611Y-26251370D01*
X27714807Y-26371852D01*
X27556744Y-26570080D01*
X27546609Y-26591459D01*
X27497375Y-26718397D01*
X27260409Y-26718397D01*
X27309584Y-26496649D01*
X27461917Y-26271893D01*
X27695240Y-26081968D01*
X27992538Y-25940711D01*
X28336796Y-25861962D01*
X28453002Y-25846381D01*
X28585844Y-25822195D01*
X28637567Y-25803051D01*
X28635561Y-25797123D01*
X28585543Y-25730657D01*
X28489351Y-25623886D01*
X28217840Y-25295838D01*
X27977550Y-24893784D01*
X27826271Y-24488013D01*
X27773836Y-24099478D01*
X27777277Y-24015575D01*
X28025841Y-24015575D01*
X28038980Y-24286292D01*
X28123369Y-24588295D01*
X28276477Y-24908308D01*
X28495766Y-25233059D01*
X28778704Y-25549274D01*
X28824276Y-25592983D01*
X29062035Y-25781925D01*
X29272206Y-25869540D01*
X29470512Y-25859452D01*
X29672676Y-25755285D01*
X29720299Y-25722645D01*
X29858039Y-25643616D01*
X29951321Y-25612000D01*
X29988223Y-25599450D01*
X30006523Y-25526460D01*
X29987482Y-25367216D01*
X29980392Y-25323616D01*
X29963111Y-25162846D01*
X29957579Y-24969502D01*
X29958740Y-24920844D01*
X30224137Y-24920844D01*
X30224168Y-24939588D01*
X30235995Y-25209502D01*
X30274507Y-25410067D01*
X30323587Y-25526460D01*
X30347513Y-25583202D01*
X30359120Y-25604389D01*
X30577960Y-25904738D01*
X30864186Y-26168242D01*
X31176360Y-26356250D01*
X31395823Y-26437211D01*
X31800155Y-26508406D01*
X32190318Y-26485082D01*
X32552504Y-26376256D01*
X32872904Y-26190940D01*
X33137712Y-25938151D01*
X33333117Y-25626901D01*
X33445313Y-25266206D01*
X33460491Y-24865080D01*
X33399182Y-24539287D01*
X33233729Y-24180385D01*
X32964906Y-23869040D01*
X32740250Y-23684988D01*
X32502558Y-23549369D01*
X32238663Y-23471946D01*
X31905195Y-23434955D01*
X31659793Y-23430541D01*
X31297480Y-23478360D01*
X30986343Y-23603968D01*
X30698019Y-23816327D01*
X30525781Y-23990056D01*
X30348698Y-24253301D01*
X30252901Y-24552489D01*
X30224137Y-24920844D01*
X29958740Y-24920844D01*
X29963621Y-24716226D01*
X29981060Y-24375663D01*
X29981307Y-24371158D01*
X29972652Y-24274542D01*
X29923395Y-24184455D01*
X29815058Y-24077514D01*
X29629166Y-23930337D01*
X29354662Y-23745461D01*
X29003320Y-23579456D01*
X28678983Y-23508171D01*
X28394197Y-23535616D01*
X28223459Y-23621089D01*
X28086490Y-23789416D01*
X28025841Y-24015575D01*
X27777277Y-24015575D01*
X27778126Y-23994871D01*
X27847740Y-23699344D01*
X27993727Y-23476502D01*
X28204689Y-23328176D01*
X28469229Y-23256197D01*
X28775947Y-23262395D01*
X29113444Y-23348602D01*
X29470323Y-23516649D01*
X29835184Y-23768366D01*
X29888728Y-23810942D01*
X30043730Y-23926851D01*
X30151971Y-23996420D01*
X30192669Y-24005844D01*
X30209865Y-23957988D01*
X30301330Y-23842629D01*
X30449667Y-23699963D01*
X30629895Y-23551485D01*
X30817034Y-23418690D01*
X30986106Y-23323074D01*
X31147890Y-23261298D01*
X31416443Y-23188279D01*
X31677263Y-23144247D01*
X32064551Y-23105348D01*
X32052471Y-22875568D01*
X32041156Y-22767625D01*
X32000548Y-22544371D01*
X31943478Y-22317646D01*
X31894596Y-22162801D01*
X31839880Y-22046599D01*
X31772191Y-21992331D01*
X31669373Y-21972068D01*
X31534130Y-21933287D01*
X31405172Y-21798880D01*
X31354654Y-21690586D01*
X31359642Y-21624644D01*
X31523358Y-21624644D01*
X31534933Y-21752835D01*
X31608491Y-21833276D01*
X31669272Y-21854229D01*
X31774297Y-21857859D01*
X31860667Y-21784609D01*
X31907178Y-21687733D01*
X31895596Y-21563046D01*
X31826564Y-21463923D01*
X31723197Y-21420036D01*
X31608608Y-21461055D01*
X31573750Y-21498042D01*
X31523358Y-21624644D01*
X31359642Y-21624644D01*
X31361455Y-21600672D01*
X31437869Y-21482100D01*
X31474033Y-21438651D01*
X31630993Y-21328906D01*
X31797875Y-21307035D01*
X31942117Y-21379654D01*
X31968540Y-21411850D01*
X32025402Y-21560717D01*
X32027222Y-21687733D01*
X32027773Y-21726182D01*
G37*
%TD*%
M02*
