%TF.GenerationSoftware,KiCad,Pcbnew,8.0.5*%
%TF.CreationDate,2024-10-21T18:47:46+02:00*%
%TF.ProjectId,both,626f7468-2e6b-4696-9361-645f70636258,rev?*%
%TF.SameCoordinates,Original*%
%TF.FileFunction,Soldermask,Top*%
%TF.FilePolarity,Negative*%
%FSLAX46Y46*%
G04 Gerber Fmt 4.6, Leading zero omitted, Abs format (unit mm)*
G04 Created by KiCad (PCBNEW 8.0.5) date 2024-10-21 18:47:46*
%MOMM*%
%LPD*%
G01*
G04 APERTURE LIST*
G04 Aperture macros list*
%AMRoundRect*
0 Rectangle with rounded corners*
0 $1 Rounding radius*
0 $2 $3 $4 $5 $6 $7 $8 $9 X,Y pos of 4 corners*
0 Add a 4 corners polygon primitive as box body*
4,1,4,$2,$3,$4,$5,$6,$7,$8,$9,$2,$3,0*
0 Add four circle primitives for the rounded corners*
1,1,$1+$1,$2,$3*
1,1,$1+$1,$4,$5*
1,1,$1+$1,$6,$7*
1,1,$1+$1,$8,$9*
0 Add four rect primitives between the rounded corners*
20,1,$1+$1,$2,$3,$4,$5,0*
20,1,$1+$1,$4,$5,$6,$7,0*
20,1,$1+$1,$6,$7,$8,$9,0*
20,1,$1+$1,$8,$9,$2,$3,0*%
%AMOutline5P*
0 Free polygon, 5 corners , with rotation*
0 The origin of the aperture is its center*
0 number of corners: always 5*
0 $1 to $10 corner X, Y*
0 $11 Rotation angle, in degrees counterclockwise*
0 create outline with 5 corners*
4,1,5,$1,$2,$3,$4,$5,$6,$7,$8,$9,$10,$1,$2,$11*%
%AMOutline6P*
0 Free polygon, 6 corners , with rotation*
0 The origin of the aperture is its center*
0 number of corners: always 6*
0 $1 to $12 corner X, Y*
0 $13 Rotation angle, in degrees counterclockwise*
0 create outline with 6 corners*
4,1,6,$1,$2,$3,$4,$5,$6,$7,$8,$9,$10,$11,$12,$1,$2,$13*%
%AMOutline7P*
0 Free polygon, 7 corners , with rotation*
0 The origin of the aperture is its center*
0 number of corners: always 7*
0 $1 to $14 corner X, Y*
0 $15 Rotation angle, in degrees counterclockwise*
0 create outline with 7 corners*
4,1,7,$1,$2,$3,$4,$5,$6,$7,$8,$9,$10,$11,$12,$13,$14,$1,$2,$15*%
%AMOutline8P*
0 Free polygon, 8 corners , with rotation*
0 The origin of the aperture is its center*
0 number of corners: always 8*
0 $1 to $16 corner X, Y*
0 $17 Rotation angle, in degrees counterclockwise*
0 create outline with 8 corners*
4,1,8,$1,$2,$3,$4,$5,$6,$7,$8,$9,$10,$11,$12,$13,$14,$15,$16,$1,$2,$17*%
%AMFreePoly0*
4,1,19,0.550000,-0.750000,0.000000,-0.750000,0.000000,-0.744911,-0.071157,-0.744911,-0.207708,-0.704816,-0.327430,-0.627875,-0.420627,-0.520320,-0.479746,-0.390866,-0.500000,-0.250000,-0.500000,0.250000,-0.479746,0.390866,-0.420627,0.520320,-0.327430,0.627875,-0.207708,0.704816,-0.071157,0.744911,0.000000,0.744911,0.000000,0.750000,0.550000,0.750000,0.550000,-0.750000,0.550000,-0.750000,
$1*%
%AMFreePoly1*
4,1,19,0.000000,0.744911,0.071157,0.744911,0.207708,0.704816,0.327430,0.627875,0.420627,0.520320,0.479746,0.390866,0.500000,0.250000,0.500000,-0.250000,0.479746,-0.390866,0.420627,-0.520320,0.327430,-0.627875,0.207708,-0.704816,0.071157,-0.744911,0.000000,-0.744911,0.000000,-0.750000,-0.550000,-0.750000,-0.550000,0.750000,0.000000,0.750000,0.000000,0.744911,0.000000,0.744911,
$1*%
%AMFreePoly2*
4,1,53,0.180798,1.454629,0.352531,1.394537,0.506585,1.297738,0.635238,1.169085,0.732037,1.015031,0.792129,0.843298,0.812500,0.662500,0.792129,0.481702,0.732037,0.309969,0.635238,0.155915,0.506585,0.027262,0.352531,-0.069537,0.180798,-0.129629,0.000000,-0.150000,-0.180798,-0.129629,-0.352531,-0.069537,-0.506585,0.027262,-0.635238,0.155915,-0.732037,0.309969,-0.792129,0.481702,
-0.812500,0.662500,-0.517770,0.662500,-0.496797,0.516627,-0.435576,0.382572,-0.339067,0.271196,-0.215089,0.191520,-0.073686,0.150000,0.073686,0.150000,0.215089,0.191520,0.339067,0.271196,0.435576,0.382572,0.496797,0.516627,0.517770,0.662500,0.496797,0.808373,0.435576,0.942428,0.339067,1.053804,0.215089,1.133480,0.073686,1.175000,-0.073686,1.175000,-0.215089,1.133480,
-0.339067,1.053804,-0.435576,0.942428,-0.496797,0.808373,-0.517770,0.662500,-0.812500,0.662500,-0.792129,0.843298,-0.732037,1.015031,-0.635238,1.169085,-0.506585,1.297738,-0.352531,1.394537,-0.180798,1.454629,0.000000,1.475000,0.180798,1.454629,0.180798,1.454629,$1*%
G04 Aperture macros list end*
%ADD10RoundRect,0.237500X0.250000X0.237500X-0.250000X0.237500X-0.250000X-0.237500X0.250000X-0.237500X0*%
%ADD11FreePoly0,180.000000*%
%ADD12R,1.000000X1.500000*%
%ADD13FreePoly1,180.000000*%
%ADD14RoundRect,0.237500X0.237500X-0.300000X0.237500X0.300000X-0.237500X0.300000X-0.237500X-0.300000X0*%
%ADD15RoundRect,0.237500X-0.237500X0.300000X-0.237500X-0.300000X0.237500X-0.300000X0.237500X0.300000X0*%
%ADD16RoundRect,0.237500X0.237500X-0.250000X0.237500X0.250000X-0.237500X0.250000X-0.237500X-0.250000X0*%
%ADD17RoundRect,0.102000X-0.240000X-0.200000X0.240000X-0.200000X0.240000X0.200000X-0.240000X0.200000X0*%
%ADD18RoundRect,0.237500X-0.250000X-0.237500X0.250000X-0.237500X0.250000X0.237500X-0.250000X0.237500X0*%
%ADD19RoundRect,0.100500X-0.301500X0.986500X-0.301500X-0.986500X0.301500X-0.986500X0.301500X0.986500X0*%
%ADD20RoundRect,0.102000X-1.650000X1.205000X-1.650000X-1.205000X1.650000X-1.205000X1.650000X1.205000X0*%
%ADD21RoundRect,0.237500X-0.237500X0.250000X-0.237500X-0.250000X0.237500X-0.250000X0.237500X0.250000X0*%
%ADD22RoundRect,0.102000X0.200000X-0.240000X0.200000X0.240000X-0.200000X0.240000X-0.200000X-0.240000X0*%
%ADD23R,0.400000X0.800000*%
%ADD24R,0.800000X0.400000*%
%ADD25Outline5P,-0.600000X0.204000X-0.204000X0.600000X0.600000X0.600000X0.600000X-0.600000X-0.600000X-0.600000X270.000000*%
%ADD26R,1.200000X1.200000*%
%ADD27R,0.800000X0.800000*%
%ADD28RoundRect,0.237500X-0.300000X-0.237500X0.300000X-0.237500X0.300000X0.237500X-0.300000X0.237500X0*%
%ADD29RoundRect,0.237500X0.300000X0.237500X-0.300000X0.237500X-0.300000X-0.237500X0.300000X-0.237500X0*%
%ADD30C,0.700000*%
%ADD31C,4.400000*%
%ADD32C,0.500000*%
%ADD33R,1.700000X1.700000*%
%ADD34O,1.700000X1.700000*%
%ADD35RoundRect,0.102000X-0.525000X-0.325000X0.525000X-0.325000X0.525000X0.325000X-0.525000X0.325000X0*%
%ADD36RoundRect,0.150000X-0.587500X-0.150000X0.587500X-0.150000X0.587500X0.150000X-0.587500X0.150000X0*%
%ADD37R,2.200000X2.200000*%
%ADD38C,2.200000*%
%ADD39RoundRect,0.102000X0.325000X-0.525000X0.325000X0.525000X-0.325000X0.525000X-0.325000X-0.525000X0*%
%ADD40RoundRect,0.102000X-1.075000X-2.750000X1.075000X-2.750000X1.075000X2.750000X-1.075000X2.750000X0*%
%ADD41RoundRect,0.059250X0.602750X0.177750X-0.602750X0.177750X-0.602750X-0.177750X0.602750X-0.177750X0*%
%ADD42RoundRect,0.150000X0.150000X-0.850000X0.150000X0.850000X-0.150000X0.850000X-0.150000X-0.850000X0*%
%ADD43RoundRect,0.102000X-0.200000X0.240000X-0.200000X-0.240000X0.200000X-0.240000X0.200000X0.240000X0*%
%ADD44C,0.650000*%
%ADD45RoundRect,0.150000X0.150000X0.425000X-0.150000X0.425000X-0.150000X-0.425000X0.150000X-0.425000X0*%
%ADD46RoundRect,0.075000X0.075000X0.500000X-0.075000X0.500000X-0.075000X-0.500000X0.075000X-0.500000X0*%
%ADD47O,1.000000X2.100000*%
%ADD48O,1.000000X1.800000*%
%ADD49RoundRect,0.102000X0.240000X0.200000X-0.240000X0.200000X-0.240000X-0.200000X0.240000X-0.200000X0*%
%ADD50R,0.600000X0.522000*%
%ADD51FreePoly2,270.000000*%
%ADD52RoundRect,0.150000X0.587500X0.150000X-0.587500X0.150000X-0.587500X-0.150000X0.587500X-0.150000X0*%
%ADD53R,0.600000X1.750000*%
%ADD54RoundRect,0.250000X-0.350000X-0.450000X0.350000X-0.450000X0.350000X0.450000X-0.350000X0.450000X0*%
%ADD55RoundRect,0.150000X-0.425000X0.150000X-0.425000X-0.150000X0.425000X-0.150000X0.425000X0.150000X0*%
%ADD56RoundRect,0.075000X-0.500000X0.075000X-0.500000X-0.075000X0.500000X-0.075000X0.500000X0.075000X0*%
%ADD57O,2.100000X1.000000*%
%ADD58O,1.800000X1.000000*%
%ADD59RoundRect,0.102000X-0.325000X0.525000X-0.325000X-0.525000X0.325000X-0.525000X0.325000X0.525000X0*%
%ADD60R,1.600000X0.850000*%
%ADD61RoundRect,0.081750X-0.265250X-0.245250X0.265250X-0.245250X0.265250X0.245250X-0.265250X0.245250X0*%
%ADD62RoundRect,0.081750X0.265250X0.245250X-0.265250X0.245250X-0.265250X-0.245250X0.265250X-0.245250X0*%
%ADD63RoundRect,0.100500X-0.986500X-0.301500X0.986500X-0.301500X0.986500X0.301500X-0.986500X0.301500X0*%
%ADD64RoundRect,0.250000X0.350000X0.450000X-0.350000X0.450000X-0.350000X-0.450000X0.350000X-0.450000X0*%
%ADD65R,0.850000X1.600000*%
%ADD66RoundRect,0.237500X-0.237500X0.287500X-0.237500X-0.287500X0.237500X-0.287500X0.237500X0.287500X0*%
%ADD67RoundRect,0.150000X-0.150000X0.587500X-0.150000X-0.587500X0.150000X-0.587500X0.150000X0.587500X0*%
%ADD68RoundRect,0.102000X-0.350000X0.600000X-0.350000X-0.600000X0.350000X-0.600000X0.350000X0.600000X0*%
%ADD69RoundRect,0.100500X0.986500X0.301500X-0.986500X0.301500X-0.986500X-0.301500X0.986500X-0.301500X0*%
%ADD70FreePoly0,0.000000*%
%ADD71FreePoly1,0.000000*%
%ADD72RoundRect,0.100500X0.301500X-0.986500X0.301500X0.986500X-0.301500X0.986500X-0.301500X-0.986500X0*%
%ADD73RoundRect,0.059250X-0.177750X0.602750X-0.177750X-0.602750X0.177750X-0.602750X0.177750X0.602750X0*%
%ADD74RoundRect,0.102000X-0.750000X-0.450000X0.750000X-0.450000X0.750000X0.450000X-0.750000X0.450000X0*%
%ADD75RoundRect,0.102000X-0.450000X-0.750000X0.450000X-0.750000X0.450000X0.750000X-0.450000X0.750000X0*%
%ADD76RoundRect,0.102000X-0.450000X-0.450000X0.450000X-0.450000X0.450000X0.450000X-0.450000X0.450000X0*%
G04 APERTURE END LIST*
D10*
%TO.C,R17*%
X47631000Y-54036000D03*
X45806000Y-54036000D03*
%TD*%
D11*
%TO.C,JP1*%
X85007500Y-41852000D03*
D12*
X83707500Y-41852000D03*
D13*
X82407500Y-41852000D03*
%TD*%
D14*
%TO.C,C15*%
X82192000Y-56830000D03*
X82192000Y-55105000D03*
%TD*%
D15*
%TO.C,C7*%
X31542000Y-88559972D03*
X31542000Y-90284972D03*
%TD*%
%TO.C,C17*%
X82429000Y-46823500D03*
X82429000Y-48548500D03*
%TD*%
%TO.C,C24*%
X72629797Y-36663500D03*
X72629797Y-38388500D03*
%TD*%
D16*
%TO.C,R12*%
X77603000Y-43264500D03*
X77603000Y-41439500D03*
%TD*%
D17*
%TO.C,D4*%
X50920938Y-86494868D03*
X52240938Y-86494868D03*
%TD*%
D18*
%TO.C,R14*%
X81899500Y-30512000D03*
X83724500Y-30512000D03*
%TD*%
D19*
%TO.C,U9*%
X36610000Y-30352000D03*
X35340000Y-30352000D03*
X34070000Y-30352000D03*
X32800000Y-30352000D03*
X32800000Y-35302000D03*
X34070000Y-35302000D03*
X35340000Y-35302000D03*
X36610000Y-35302000D03*
D20*
X34705000Y-32827000D03*
%TD*%
D10*
%TO.C,R12*%
X73692500Y-107456472D03*
X71867500Y-107456472D03*
%TD*%
D21*
%TO.C,R10*%
X69475000Y-37987000D03*
X69475000Y-39812000D03*
%TD*%
D16*
%TO.C,R2*%
X43870000Y-103161972D03*
X43870000Y-101336972D03*
%TD*%
D22*
%TO.C,D4*%
X40903796Y-45922000D03*
X40903796Y-44602000D03*
%TD*%
D18*
%TO.C,R2*%
X34566296Y-51337000D03*
X36391296Y-51337000D03*
%TD*%
D14*
%TO.C,C9*%
X77906000Y-78219972D03*
X77906000Y-76494972D03*
%TD*%
D23*
%TO.C,U1*%
X77750000Y-80151472D03*
X76900000Y-80151472D03*
X76050000Y-80151472D03*
X75200000Y-80151472D03*
X74350000Y-80151472D03*
X73500000Y-80151472D03*
X72650000Y-80151472D03*
X71800000Y-80151472D03*
X70950000Y-80151472D03*
X70100000Y-80151472D03*
X69250000Y-80151472D03*
X68400000Y-80151472D03*
X67550000Y-80151472D03*
X66700000Y-80151472D03*
X65850000Y-80151472D03*
D24*
X64800000Y-81201472D03*
X64800000Y-82051472D03*
X64800000Y-82901472D03*
X64800000Y-83751472D03*
X64800000Y-84601472D03*
X64800000Y-85451472D03*
X64800000Y-86301472D03*
X64800000Y-87151472D03*
X64800000Y-88001472D03*
X64800000Y-88851472D03*
X64800000Y-89701472D03*
X64800000Y-90551472D03*
X64800000Y-91401472D03*
X64800000Y-92251472D03*
X64800000Y-93101472D03*
D23*
X65850000Y-94151472D03*
X66700000Y-94151472D03*
X67550000Y-94151472D03*
X68400000Y-94151472D03*
X69250000Y-94151472D03*
X70100000Y-94151472D03*
X70950000Y-94151472D03*
X71800000Y-94151472D03*
X72650000Y-94151472D03*
X73500000Y-94151472D03*
X74350000Y-94151472D03*
X75200000Y-94151472D03*
X76050000Y-94151472D03*
X76900000Y-94151472D03*
X77750000Y-94151472D03*
D24*
X78800000Y-93101472D03*
X78800000Y-92251472D03*
X78800000Y-91401472D03*
X78800000Y-90551472D03*
X78800000Y-89701472D03*
X78800000Y-88851472D03*
X78800000Y-88001472D03*
X78800000Y-87151472D03*
X78800000Y-86301472D03*
X78800000Y-85451472D03*
X78800000Y-84601472D03*
X78800000Y-83751472D03*
X78800000Y-82901472D03*
X78800000Y-82051472D03*
X78800000Y-81201472D03*
D25*
X73450000Y-85501472D03*
D26*
X71800000Y-85501472D03*
X70150000Y-85501472D03*
X73450000Y-87151472D03*
X71800000Y-87151472D03*
X70150000Y-87151472D03*
X73450000Y-88801472D03*
X71800000Y-88801472D03*
X70150000Y-88801472D03*
D27*
X78800000Y-80151472D03*
X64800000Y-80151472D03*
X64800000Y-94151472D03*
X78800000Y-94151472D03*
%TD*%
D28*
%TO.C,C2*%
X36737000Y-37421000D03*
X38462000Y-37421000D03*
%TD*%
D14*
%TO.C,C12*%
X85513000Y-32180500D03*
X85513000Y-30455500D03*
%TD*%
D29*
%TO.C,C3*%
X62944500Y-82691472D03*
X61219500Y-82691472D03*
%TD*%
D18*
%TO.C,R17*%
X62515500Y-115711472D03*
X64340500Y-115711472D03*
%TD*%
D30*
%TO.C,H1*%
X47503000Y-41336000D03*
X47019726Y-42502726D03*
X47019726Y-40169274D03*
X45853000Y-42986000D03*
D31*
X45853000Y-41336000D03*
D30*
X45853000Y-39686000D03*
X44686274Y-42502726D03*
X44686274Y-40169274D03*
X44203000Y-41336000D03*
%TD*%
D32*
%TO.C,*%
X37282000Y-94355472D03*
%TD*%
D16*
%TO.C,R19*%
X56520511Y-108843675D03*
X56520511Y-107018675D03*
%TD*%
D33*
%TO.C,J3*%
X41330000Y-88279472D03*
D34*
X41330000Y-90819472D03*
X41330000Y-93359472D03*
X41330000Y-95899472D03*
X41330000Y-98439472D03*
X41330000Y-100979472D03*
X41330000Y-103519472D03*
%TD*%
D35*
%TO.C,SW2*%
X49883000Y-23810000D03*
X54033000Y-23810000D03*
X49883000Y-25960000D03*
X54033000Y-25960000D03*
%TD*%
D18*
%TO.C,R1*%
X34670796Y-46696000D03*
X36495796Y-46696000D03*
%TD*%
D21*
%TO.C,R22*%
X32800000Y-37437500D03*
X32800000Y-39262500D03*
%TD*%
D36*
%TO.C,Q2*%
X74887000Y-48762000D03*
X74887000Y-50662000D03*
X76762000Y-49712000D03*
%TD*%
D37*
%TO.C,J2*%
X80192000Y-114725472D03*
D38*
X77652000Y-114725472D03*
X75112000Y-114725472D03*
X72572000Y-114725472D03*
X70032000Y-114725472D03*
%TD*%
D10*
%TO.C,R3*%
X67674500Y-98835472D03*
X65849500Y-98835472D03*
%TD*%
D32*
%TO.C,*%
X38782000Y-92855472D03*
%TD*%
D10*
%TO.C,R13*%
X79949500Y-30487000D03*
X78124500Y-30487000D03*
%TD*%
D28*
%TO.C,C20*%
X31012271Y-40875035D03*
X32737271Y-40875035D03*
%TD*%
D18*
%TO.C,R16*%
X74849500Y-47062000D03*
X76674500Y-47062000D03*
%TD*%
%TO.C,R7*%
X70949500Y-33162000D03*
X72774500Y-33162000D03*
%TD*%
D39*
%TO.C,SW1*%
X60888000Y-80913472D03*
X60888000Y-76763472D03*
X63038000Y-80913472D03*
X63038000Y-76763472D03*
%TD*%
D29*
%TO.C,C2*%
X51947096Y-85021852D03*
X50222096Y-85021852D03*
%TD*%
D14*
%TO.C,C4*%
X32687035Y-28063455D03*
X32687035Y-26338455D03*
%TD*%
%TO.C,C21*%
X77906000Y-101841972D03*
X77906000Y-100116972D03*
%TD*%
D28*
%TO.C,C23*%
X71306000Y-44892000D03*
X73031000Y-44892000D03*
%TD*%
D16*
%TO.C,R9*%
X75080000Y-57742500D03*
X75080000Y-55917500D03*
%TD*%
D28*
%TO.C,C13*%
X49712500Y-110581472D03*
X51437500Y-110581472D03*
%TD*%
D15*
%TO.C,C21*%
X40547000Y-31610000D03*
X40547000Y-33335000D03*
%TD*%
D28*
%TO.C,C4*%
X57231500Y-82437472D03*
X58956500Y-82437472D03*
%TD*%
D40*
%TO.C,L1*%
X36812000Y-25037000D03*
X40662000Y-25037000D03*
%TD*%
D32*
%TO.C,*%
X38782000Y-93605472D03*
%TD*%
D41*
%TO.C,U2*%
X66738000Y-101729472D03*
X66738000Y-101229472D03*
X66738000Y-100729472D03*
X66738000Y-100229472D03*
X63928000Y-100229472D03*
X63928000Y-100729472D03*
X63928000Y-101229472D03*
X63928000Y-101729472D03*
%TD*%
D21*
%TO.C,R6*%
X57480000Y-24072500D03*
X57480000Y-25897500D03*
%TD*%
D17*
%TO.C,D1*%
X43472000Y-84469472D03*
X44792000Y-84469472D03*
%TD*%
D42*
%TO.C,U5*%
X46892000Y-103175472D03*
X48162000Y-103175472D03*
X49432000Y-103175472D03*
X50702000Y-103175472D03*
X51972000Y-103175472D03*
X53242000Y-103175472D03*
X54512000Y-103175472D03*
X55782000Y-103175472D03*
X55782000Y-98175472D03*
X54512000Y-98175472D03*
X53242000Y-98175472D03*
X51972000Y-98175472D03*
X50702000Y-98175472D03*
X49432000Y-98175472D03*
X48162000Y-98175472D03*
X46892000Y-98175472D03*
%TD*%
D10*
%TO.C,R7*%
X42864500Y-82691472D03*
X41039500Y-82691472D03*
%TD*%
D18*
%TO.C,R18*%
X71023500Y-48696000D03*
X72848500Y-48696000D03*
%TD*%
D28*
%TO.C,C5*%
X29299500Y-26309000D03*
X31024500Y-26309000D03*
%TD*%
D43*
%TO.C,D3*%
X37953796Y-46764500D03*
X37953796Y-48084500D03*
%TD*%
D18*
%TO.C,R26*%
X83274500Y-39812000D03*
X85099500Y-39812000D03*
%TD*%
D15*
%TO.C,C5*%
X30780000Y-92605072D03*
X30780000Y-94330072D03*
%TD*%
D37*
%TO.C,J2*%
X79807000Y-24462000D03*
D38*
X82347000Y-24462000D03*
X84887000Y-24462000D03*
X87427000Y-24462000D03*
X89967000Y-24462000D03*
%TD*%
D44*
%TO.C,J1*%
X47624000Y-79584472D03*
X41844000Y-79584472D03*
D45*
X47934000Y-80659472D03*
X47134000Y-80659472D03*
D46*
X45984000Y-80659472D03*
X44984000Y-80659472D03*
X44484000Y-80659472D03*
X43484000Y-80659472D03*
D45*
X42334000Y-80659472D03*
X41534000Y-80659472D03*
X41534000Y-80659472D03*
X42334000Y-80659472D03*
D46*
X42984000Y-80659472D03*
X43984000Y-80659472D03*
X45484000Y-80659472D03*
X46484000Y-80659472D03*
D45*
X47134000Y-80659472D03*
X47934000Y-80659472D03*
D47*
X49054000Y-80084472D03*
D48*
X49054000Y-75904472D03*
D47*
X40414000Y-80084472D03*
D48*
X40414000Y-75904472D03*
%TD*%
D32*
%TO.C,*%
X38782000Y-94355472D03*
%TD*%
D15*
%TO.C,C14*%
X53268000Y-107082972D03*
X53268000Y-108807972D03*
%TD*%
D49*
%TO.C,D3*%
X46954553Y-83089173D03*
X45634553Y-83089173D03*
%TD*%
D18*
%TO.C,R9*%
X61169500Y-84215472D03*
X62994500Y-84215472D03*
%TD*%
D32*
%TO.C,MK1*%
X33574000Y-92395472D03*
D50*
X34474000Y-94469472D03*
X34474000Y-93647472D03*
D51*
X32911500Y-92395472D03*
D50*
X32674000Y-93647472D03*
X32674000Y-94469472D03*
X33574000Y-94469472D03*
%TD*%
D14*
%TO.C,C14*%
X80645000Y-56836000D03*
X80645000Y-55111000D03*
%TD*%
D28*
%TO.C,C17*%
X73695500Y-109320972D03*
X75420500Y-109320972D03*
%TD*%
D19*
%TO.C,U6*%
X74604000Y-100287472D03*
X73334000Y-100287472D03*
X72064000Y-100287472D03*
X70794000Y-100287472D03*
X70794000Y-105227472D03*
X72064000Y-105227472D03*
X73334000Y-105227472D03*
X74604000Y-105227472D03*
%TD*%
D18*
%TO.C,R24*%
X45806000Y-52258000D03*
X47631000Y-52258000D03*
%TD*%
D52*
%TO.C,Q2*%
X47194500Y-107467472D03*
X47194500Y-105567472D03*
X45319500Y-106517472D03*
%TD*%
D14*
%TO.C,C10*%
X55780000Y-25835000D03*
X55780000Y-24110000D03*
%TD*%
D53*
%TO.C,J5*%
X29574000Y-98439472D03*
X30574000Y-96689472D03*
X31574000Y-98439472D03*
X32574000Y-96689472D03*
X33574000Y-98439472D03*
X34574000Y-96689472D03*
X35574000Y-98439472D03*
%TD*%
D14*
%TO.C,C22*%
X76382000Y-101841972D03*
X76382000Y-100116972D03*
%TD*%
D54*
%TO.C,R19*%
X34531732Y-41108943D03*
X36531732Y-41108943D03*
%TD*%
D21*
%TO.C,R23*%
X31022000Y-37437500D03*
X31022000Y-39262500D03*
%TD*%
D15*
%TO.C,C11*%
X45114000Y-109250972D03*
X45114000Y-110975972D03*
%TD*%
D14*
%TO.C,C6*%
X46667000Y-29464500D03*
X46667000Y-27739500D03*
%TD*%
D44*
%TO.C,J1*%
X31535796Y-46066000D03*
X31535796Y-51846000D03*
D55*
X32610796Y-45756000D03*
X32610796Y-46556000D03*
D56*
X32610796Y-47706000D03*
X32610796Y-48706000D03*
X32610796Y-49206000D03*
X32610796Y-50206000D03*
D55*
X32610796Y-51356000D03*
X32610796Y-52156000D03*
X32610796Y-52156000D03*
X32610796Y-51356000D03*
D56*
X32610796Y-50706000D03*
X32610796Y-49706000D03*
X32610796Y-48206000D03*
X32610796Y-47206000D03*
D55*
X32610796Y-46556000D03*
X32610796Y-45756000D03*
D57*
X32035796Y-44636000D03*
D58*
X27855796Y-44636000D03*
D57*
X32035796Y-53276000D03*
D58*
X27855796Y-53276000D03*
%TD*%
D32*
%TO.C,*%
X38782000Y-92105472D03*
%TD*%
D15*
%TO.C,C8*%
X29980000Y-88600972D03*
X29980000Y-90325972D03*
%TD*%
D29*
%TO.C,C15*%
X56162500Y-105297472D03*
X54437500Y-105297472D03*
%TD*%
D16*
%TO.C,R25*%
X76079000Y-42248500D03*
X76079000Y-40423500D03*
%TD*%
D59*
%TO.C,SW2*%
X59110000Y-76763472D03*
X59110000Y-80913472D03*
X56960000Y-76763472D03*
X56960000Y-80913472D03*
%TD*%
D60*
%TO.C,D5*%
X65742000Y-76228472D03*
X65742000Y-77978472D03*
X69242000Y-77978472D03*
X69242000Y-76228472D03*
%TD*%
D30*
%TO.C,H1*%
X58222000Y-98820472D03*
X58705274Y-97653746D03*
X58705274Y-99987198D03*
X59872000Y-97170472D03*
D31*
X59872000Y-98820472D03*
D30*
X59872000Y-100470472D03*
X61038726Y-97653746D03*
X61038726Y-99987198D03*
X61522000Y-98820472D03*
%TD*%
D18*
%TO.C,R11*%
X75215500Y-107456472D03*
X77040500Y-107456472D03*
%TD*%
D16*
%TO.C,R3*%
X45337000Y-36924500D03*
X45337000Y-35099500D03*
%TD*%
%TO.C,R20*%
X31022000Y-35452500D03*
X31022000Y-33627500D03*
%TD*%
D28*
%TO.C,C11*%
X74708500Y-44892000D03*
X76433500Y-44892000D03*
%TD*%
D15*
%TO.C,C22*%
X83953000Y-46823500D03*
X83953000Y-48548500D03*
%TD*%
D61*
%TO.C,U7*%
X34798000Y-88320472D03*
X34798000Y-88970472D03*
X34798000Y-89620472D03*
X34798000Y-90270472D03*
X32858000Y-90270472D03*
X32858000Y-89620472D03*
X32858000Y-88970472D03*
X32858000Y-88320472D03*
%TD*%
D15*
%TO.C,C19*%
X59294000Y-114340972D03*
X59294000Y-116065972D03*
%TD*%
D33*
%TO.C,J4*%
X55036000Y-115203472D03*
D34*
X52496000Y-115203472D03*
X49956000Y-115203472D03*
X47416000Y-115203472D03*
%TD*%
D15*
%TO.C,C24*%
X69143000Y-102275972D03*
X69143000Y-104000972D03*
%TD*%
%TO.C,C1*%
X69143000Y-98900472D03*
X69143000Y-100625472D03*
%TD*%
%TO.C,C1*%
X39428796Y-44599500D03*
X39428796Y-46324500D03*
%TD*%
D32*
%TO.C,*%
X37282000Y-92105472D03*
%TD*%
D62*
%TO.C,U4*%
X76627000Y-57040500D03*
X76627000Y-56390500D03*
X76627000Y-55740500D03*
X76627000Y-55090500D03*
X78567000Y-55090500D03*
X78567000Y-55740500D03*
X78567000Y-56390500D03*
X78567000Y-57040500D03*
%TD*%
D21*
%TO.C,R11*%
X70999000Y-36867500D03*
X70999000Y-38692500D03*
%TD*%
D14*
%TO.C,C7*%
X48282000Y-29464500D03*
X48282000Y-27739500D03*
%TD*%
D15*
%TO.C,C6*%
X29256000Y-92605072D03*
X29256000Y-94330072D03*
%TD*%
D16*
%TO.C,R14*%
X51337000Y-108850472D03*
X51337000Y-107025472D03*
%TD*%
D18*
%TO.C,R15*%
X86849500Y-41912000D03*
X88674500Y-41912000D03*
%TD*%
D10*
%TO.C,R16*%
X65822000Y-114187472D03*
X63997000Y-114187472D03*
%TD*%
D15*
%TO.C,C18*%
X60888000Y-114340972D03*
X60888000Y-116065972D03*
%TD*%
D63*
%TO.C,U3*%
X78217000Y-32207000D03*
X78217000Y-33477000D03*
X78217000Y-34747000D03*
X78217000Y-36017000D03*
X83157000Y-36017000D03*
X83157000Y-34747000D03*
X83157000Y-33477000D03*
X83157000Y-32207000D03*
%TD*%
D16*
%TO.C,R1*%
X43870000Y-99859972D03*
X43870000Y-98034972D03*
%TD*%
D18*
%TO.C,R18*%
X63217329Y-105520925D03*
X65042329Y-105520925D03*
%TD*%
D29*
%TO.C,C20*%
X62258500Y-102249472D03*
X60533500Y-102249472D03*
%TD*%
D35*
%TO.C,SW1*%
X63633000Y-23810000D03*
X67783000Y-23810000D03*
X63633000Y-25960000D03*
X67783000Y-25960000D03*
%TD*%
D26*
%TO.C,D1*%
X37580796Y-44706000D03*
X34780796Y-44706000D03*
%TD*%
D28*
%TO.C,C3*%
X36737000Y-39112000D03*
X38462000Y-39112000D03*
%TD*%
D21*
%TO.C,R8*%
X75080000Y-52512000D03*
X75080000Y-54337000D03*
%TD*%
D26*
%TO.C,D2*%
X51874000Y-83085472D03*
X49074000Y-83085472D03*
%TD*%
D32*
%TO.C,*%
X37282000Y-93605472D03*
%TD*%
D64*
%TO.C,R21*%
X30971231Y-28086832D03*
X28971231Y-28086832D03*
%TD*%
D14*
%TO.C,C13*%
X87291000Y-32180500D03*
X87291000Y-30455500D03*
%TD*%
D16*
%TO.C,R6*%
X50922000Y-78267972D03*
X50922000Y-76442972D03*
%TD*%
D28*
%TO.C,C23*%
X60533500Y-103773472D03*
X62258500Y-103773472D03*
%TD*%
D65*
%TO.C,D6*%
X74668000Y-27535000D03*
X72918000Y-27535000D03*
X72918000Y-31035000D03*
X74668000Y-31035000D03*
%TD*%
D28*
%TO.C,C18*%
X88474500Y-38212000D03*
X90199500Y-38212000D03*
%TD*%
D15*
%TO.C,C16*%
X74177000Y-36679500D03*
X74177000Y-38404500D03*
%TD*%
D30*
%TO.C,H2*%
X30882000Y-85105472D03*
X31365274Y-83938746D03*
X31365274Y-86272198D03*
X32532000Y-83455472D03*
D31*
X32532000Y-85105472D03*
D30*
X32532000Y-86755472D03*
X33698726Y-83938746D03*
X33698726Y-86272198D03*
X34182000Y-85105472D03*
%TD*%
D29*
%TO.C,C16*%
X72054500Y-109355472D03*
X70329500Y-109355472D03*
%TD*%
D66*
%TO.C,D5*%
X43787000Y-35137000D03*
X43787000Y-36887000D03*
%TD*%
D67*
%TO.C,Q3*%
X47668500Y-56146500D03*
X45768500Y-56146500D03*
X46718500Y-58021500D03*
%TD*%
D16*
%TO.C,R13*%
X49813000Y-108850472D03*
X49813000Y-107025472D03*
%TD*%
D68*
%TO.C,D7*%
X38515000Y-34423000D03*
X38515000Y-30723000D03*
%TD*%
D69*
%TO.C,U4*%
X66297000Y-112590472D03*
X66297000Y-111320472D03*
X66297000Y-110050472D03*
X66297000Y-108780472D03*
X61357000Y-108780472D03*
X61357000Y-110050472D03*
X61357000Y-111320472D03*
X61357000Y-112590472D03*
%TD*%
D21*
%TO.C,R5*%
X59646000Y-24072500D03*
X59646000Y-25897500D03*
%TD*%
D70*
%TO.C,JP1*%
X76479000Y-105170472D03*
D12*
X77779000Y-105170472D03*
D71*
X79079000Y-105170472D03*
%TD*%
D72*
%TO.C,U7*%
X85782000Y-49332000D03*
X87052000Y-49332000D03*
X88322000Y-49332000D03*
X89592000Y-49332000D03*
X89592000Y-44392000D03*
X88322000Y-44392000D03*
X87052000Y-44392000D03*
X85782000Y-44392000D03*
%TD*%
D14*
%TO.C,C9*%
X61368000Y-25847500D03*
X61368000Y-24122500D03*
%TD*%
D29*
%TO.C,C19*%
X86824500Y-38237000D03*
X85099500Y-38237000D03*
%TD*%
D33*
%TO.C,J5*%
X71507000Y-58100000D03*
D34*
X68967000Y-58100000D03*
X66427000Y-58100000D03*
X63887000Y-58100000D03*
X61347000Y-58100000D03*
X58807000Y-58100000D03*
X56267000Y-58100000D03*
X53727000Y-58100000D03*
X51187000Y-58100000D03*
%TD*%
D14*
%TO.C,C10*%
X76382000Y-78219972D03*
X76382000Y-76494972D03*
%TD*%
D10*
%TO.C,R10*%
X59006500Y-83961472D03*
X57181500Y-83961472D03*
%TD*%
D16*
%TO.C,R8*%
X71302000Y-78269972D03*
X71302000Y-76444972D03*
%TD*%
%TO.C,R15*%
X54898441Y-108843040D03*
X54898441Y-107018040D03*
%TD*%
D18*
%TO.C,R5*%
X62007500Y-107075472D03*
X63832500Y-107075472D03*
%TD*%
D10*
%TO.C,R4*%
X69264500Y-97225472D03*
X67439500Y-97225472D03*
%TD*%
D33*
%TO.C,J6*%
X71507000Y-53528000D03*
D34*
X68967000Y-53528000D03*
X66427000Y-53528000D03*
X63887000Y-53528000D03*
X61347000Y-53528000D03*
X58807000Y-53528000D03*
X56267000Y-53528000D03*
X53727000Y-53528000D03*
X51187000Y-53528000D03*
%TD*%
D73*
%TO.C,U2*%
X74670000Y-40300500D03*
X74170000Y-40300500D03*
X73670000Y-40300500D03*
X73170000Y-40300500D03*
X73170000Y-43110500D03*
X73670000Y-43110500D03*
X74170000Y-43110500D03*
X74670000Y-43110500D03*
%TD*%
D22*
%TO.C,D2*%
X39678796Y-50147000D03*
X39678796Y-48827000D03*
%TD*%
D74*
%TO.C,U1*%
X50132000Y-28602000D03*
X50132000Y-29872000D03*
X50132000Y-31142000D03*
X50132000Y-32412000D03*
X50132000Y-33682000D03*
X50132000Y-34952000D03*
X50132000Y-36222000D03*
X50132000Y-37492000D03*
X50132000Y-38762000D03*
X50132000Y-40032000D03*
X50132000Y-41302000D03*
X50132000Y-42572000D03*
X50132000Y-43842000D03*
X50132000Y-45112000D03*
D75*
X51897000Y-46362000D03*
X53167000Y-46362000D03*
X54437000Y-46362000D03*
X55707000Y-46362000D03*
X56977000Y-46362000D03*
X58247000Y-46362000D03*
X59517000Y-46362000D03*
X60787000Y-46362000D03*
X62057000Y-46362000D03*
X63327000Y-46362000D03*
X64597000Y-46362000D03*
X65867000Y-46362000D03*
D74*
X67632000Y-45112000D03*
X67632000Y-43842000D03*
X67632000Y-42572000D03*
X67632000Y-41302000D03*
X67632000Y-40032000D03*
X67632000Y-38762000D03*
X67632000Y-37492000D03*
X67632000Y-36222000D03*
X67632000Y-34952000D03*
X67632000Y-33682000D03*
X67632000Y-32412000D03*
X67632000Y-31142000D03*
X67632000Y-29872000D03*
X67632000Y-28602000D03*
D76*
X55982000Y-34922000D03*
X57382000Y-34922000D03*
X58782000Y-34922000D03*
X55982000Y-36322000D03*
X57382000Y-36322000D03*
X58782000Y-36322000D03*
X55982000Y-37722000D03*
X57382000Y-37722000D03*
X58782000Y-37722000D03*
%TD*%
D32*
%TO.C,*%
X37282000Y-92855472D03*
%TD*%
M02*
