%TF.GenerationSoftware,KiCad,Pcbnew,8.0.5*%
%TF.CreationDate,2024-10-21T14:51:30+02:00*%
%TF.ProjectId,both,626f7468-2e6b-4696-9361-645f70636258,rev?*%
%TF.SameCoordinates,Original*%
%TF.FileFunction,Soldermask,Bot*%
%TF.FilePolarity,Negative*%
%FSLAX46Y46*%
G04 Gerber Fmt 4.6, Leading zero omitted, Abs format (unit mm)*
G04 Created by KiCad (PCBNEW 8.0.5) date 2024-10-21 14:51:30*
%MOMM*%
%LPD*%
G01*
G04 APERTURE LIST*
%ADD10C,0.500000*%
%ADD11O,1.700000X1.700000*%
%ADD12R,1.700000X1.700000*%
%ADD13C,0.700000*%
%ADD14C,4.400000*%
%ADD15C,2.200000*%
%ADD16R,2.200000X2.200000*%
%ADD17O,1.000000X1.800000*%
%ADD18O,1.000000X2.100000*%
%ADD19C,0.650000*%
%ADD20O,2.100000X1.000000*%
%ADD21O,1.800000X1.000000*%
G04 APERTURE END LIST*
D10*
%TO.C,MK1*%
X33574000Y-92395472D03*
%TD*%
D11*
%TO.C,J4*%
X47416000Y-115203472D03*
X49956000Y-115203472D03*
X52496000Y-115203472D03*
D12*
X55036000Y-115203472D03*
%TD*%
D10*
%TO.C,*%
X38782000Y-92105472D03*
%TD*%
D11*
%TO.C,J3*%
X41330000Y-103519472D03*
X41330000Y-100979472D03*
X41330000Y-98439472D03*
X41330000Y-95899472D03*
X41330000Y-93359472D03*
X41330000Y-90819472D03*
D12*
X41330000Y-88279472D03*
%TD*%
D13*
%TO.C,H1*%
X61522000Y-98820472D03*
X61038726Y-99987198D03*
X61038726Y-97653746D03*
X59872000Y-100470472D03*
D14*
X59872000Y-98820472D03*
D13*
X59872000Y-97170472D03*
X58705274Y-99987198D03*
X58705274Y-97653746D03*
X58222000Y-98820472D03*
%TD*%
D10*
%TO.C,*%
X37282000Y-94355472D03*
%TD*%
D13*
%TO.C,H2*%
X34182000Y-85105472D03*
X33698726Y-86272198D03*
X33698726Y-83938746D03*
X32532000Y-86755472D03*
D14*
X32532000Y-85105472D03*
D13*
X32532000Y-83455472D03*
X31365274Y-86272198D03*
X31365274Y-83938746D03*
X30882000Y-85105472D03*
%TD*%
D10*
%TO.C,*%
X37282000Y-93605472D03*
%TD*%
%TO.C,*%
X38782000Y-92855472D03*
%TD*%
%TO.C,*%
X37282000Y-92105472D03*
%TD*%
%TO.C,*%
X38782000Y-93605472D03*
%TD*%
D15*
%TO.C,J2*%
X70032000Y-114725472D03*
X72572000Y-114725472D03*
X75112000Y-114725472D03*
X77652000Y-114725472D03*
D16*
X80192000Y-114725472D03*
%TD*%
D10*
%TO.C,*%
X38782000Y-94355472D03*
%TD*%
%TO.C,*%
X37282000Y-92855472D03*
%TD*%
D17*
%TO.C,J1*%
X40414000Y-75904472D03*
D18*
X40414000Y-80084472D03*
D17*
X49054000Y-75904472D03*
D18*
X49054000Y-80084472D03*
D19*
X41844000Y-79584472D03*
X47624000Y-79584472D03*
%TD*%
D12*
%TO.C,J5*%
X71507000Y-58100000D03*
D11*
X68967000Y-58100000D03*
X66427000Y-58100000D03*
X63887000Y-58100000D03*
X61347000Y-58100000D03*
X58807000Y-58100000D03*
X56267000Y-58100000D03*
X53727000Y-58100000D03*
X51187000Y-58100000D03*
%TD*%
D13*
%TO.C,H1*%
X47503000Y-41336000D03*
X47019726Y-42502726D03*
X47019726Y-40169274D03*
X45853000Y-42986000D03*
D14*
X45853000Y-41336000D03*
D13*
X45853000Y-39686000D03*
X44686274Y-42502726D03*
X44686274Y-40169274D03*
X44203000Y-41336000D03*
%TD*%
D16*
%TO.C,J2*%
X79807000Y-24462000D03*
D15*
X82347000Y-24462000D03*
X84887000Y-24462000D03*
X87427000Y-24462000D03*
X89967000Y-24462000D03*
%TD*%
D12*
%TO.C,J6*%
X71507000Y-53528000D03*
D11*
X68967000Y-53528000D03*
X66427000Y-53528000D03*
X63887000Y-53528000D03*
X61347000Y-53528000D03*
X58807000Y-53528000D03*
X56267000Y-53528000D03*
X53727000Y-53528000D03*
X51187000Y-53528000D03*
%TD*%
D19*
%TO.C,J1*%
X31535796Y-46066000D03*
X31535796Y-51846000D03*
D20*
X32035796Y-44636000D03*
D21*
X27855796Y-44636000D03*
D20*
X32035796Y-53276000D03*
D21*
X27855796Y-53276000D03*
%TD*%
M02*
