%TF.GenerationSoftware,KiCad,Pcbnew,8.0.5*%
%TF.CreationDate,2024-10-21T14:51:29+02:00*%
%TF.ProjectId,both,626f7468-2e6b-4696-9361-645f70636258,rev?*%
%TF.SameCoordinates,Original*%
%TF.FileFunction,Paste,Top*%
%TF.FilePolarity,Positive*%
%FSLAX46Y46*%
G04 Gerber Fmt 4.6, Leading zero omitted, Abs format (unit mm)*
G04 Created by KiCad (PCBNEW 8.0.5) date 2024-10-21 14:51:29*
%MOMM*%
%LPD*%
G01*
G04 APERTURE LIST*
G04 Aperture macros list*
%AMRoundRect*
0 Rectangle with rounded corners*
0 $1 Rounding radius*
0 $2 $3 $4 $5 $6 $7 $8 $9 X,Y pos of 4 corners*
0 Add a 4 corners polygon primitive as box body*
4,1,4,$2,$3,$4,$5,$6,$7,$8,$9,$2,$3,0*
0 Add four circle primitives for the rounded corners*
1,1,$1+$1,$2,$3*
1,1,$1+$1,$4,$5*
1,1,$1+$1,$6,$7*
1,1,$1+$1,$8,$9*
0 Add four rect primitives between the rounded corners*
20,1,$1+$1,$2,$3,$4,$5,0*
20,1,$1+$1,$4,$5,$6,$7,0*
20,1,$1+$1,$6,$7,$8,$9,0*
20,1,$1+$1,$8,$9,$2,$3,0*%
%AMOutline5P*
0 Free polygon, 5 corners , with rotation*
0 The origin of the aperture is its center*
0 number of corners: always 5*
0 $1 to $10 corner X, Y*
0 $11 Rotation angle, in degrees counterclockwise*
0 create outline with 5 corners*
4,1,5,$1,$2,$3,$4,$5,$6,$7,$8,$9,$10,$1,$2,$11*%
%AMOutline6P*
0 Free polygon, 6 corners , with rotation*
0 The origin of the aperture is its center*
0 number of corners: always 6*
0 $1 to $12 corner X, Y*
0 $13 Rotation angle, in degrees counterclockwise*
0 create outline with 6 corners*
4,1,6,$1,$2,$3,$4,$5,$6,$7,$8,$9,$10,$11,$12,$1,$2,$13*%
%AMOutline7P*
0 Free polygon, 7 corners , with rotation*
0 The origin of the aperture is its center*
0 number of corners: always 7*
0 $1 to $14 corner X, Y*
0 $15 Rotation angle, in degrees counterclockwise*
0 create outline with 7 corners*
4,1,7,$1,$2,$3,$4,$5,$6,$7,$8,$9,$10,$11,$12,$13,$14,$1,$2,$15*%
%AMOutline8P*
0 Free polygon, 8 corners , with rotation*
0 The origin of the aperture is its center*
0 number of corners: always 8*
0 $1 to $16 corner X, Y*
0 $17 Rotation angle, in degrees counterclockwise*
0 create outline with 8 corners*
4,1,8,$1,$2,$3,$4,$5,$6,$7,$8,$9,$10,$11,$12,$13,$14,$15,$16,$1,$2,$17*%
G04 Aperture macros list end*
%ADD10C,0.000000*%
%ADD11C,0.010000*%
%ADD12RoundRect,0.237500X0.250000X0.237500X-0.250000X0.237500X-0.250000X-0.237500X0.250000X-0.237500X0*%
%ADD13RoundRect,0.237500X-0.237500X0.300000X-0.237500X-0.300000X0.237500X-0.300000X0.237500X0.300000X0*%
%ADD14RoundRect,0.075000X0.910000X0.225000X-0.910000X0.225000X-0.910000X-0.225000X0.910000X-0.225000X0*%
%ADD15RoundRect,0.237500X0.300000X0.237500X-0.300000X0.237500X-0.300000X-0.237500X0.300000X-0.237500X0*%
%ADD16R,0.600000X1.750000*%
%ADD17RoundRect,0.237500X-0.250000X-0.237500X0.250000X-0.237500X0.250000X0.237500X-0.250000X0.237500X0*%
%ADD18R,0.480000X0.400000*%
%ADD19RoundRect,0.237500X0.237500X-0.250000X0.237500X0.250000X-0.237500X0.250000X-0.237500X-0.250000X0*%
%ADD20RoundRect,0.056250X-0.188750X-0.168750X0.188750X-0.168750X0.188750X0.168750X-0.188750X0.168750X0*%
%ADD21RoundRect,0.237500X-0.300000X-0.237500X0.300000X-0.237500X0.300000X0.237500X-0.300000X0.237500X0*%
%ADD22RoundRect,0.237500X0.237500X-0.300000X0.237500X0.300000X-0.237500X0.300000X-0.237500X-0.300000X0*%
%ADD23R,1.200000X1.200000*%
%ADD24RoundRect,0.075000X-0.225000X0.910000X-0.225000X-0.910000X0.225000X-0.910000X0.225000X0.910000X0*%
%ADD25R,0.400000X0.800000*%
%ADD26R,0.800000X0.400000*%
%ADD27Outline5P,-0.600000X0.204000X-0.204000X0.600000X0.600000X0.600000X0.600000X-0.600000X-0.600000X-0.600000X270.000000*%
%ADD28R,0.800000X0.800000*%
%ADD29R,0.650000X1.050000*%
%ADD30RoundRect,0.150000X0.150000X-0.850000X0.150000X0.850000X-0.150000X0.850000X-0.150000X-0.850000X0*%
%ADD31R,1.600000X0.850000*%
%ADD32RoundRect,0.150000X0.587500X0.150000X-0.587500X0.150000X-0.587500X-0.150000X0.587500X-0.150000X0*%
%ADD33RoundRect,0.033750X0.526250X0.101250X-0.526250X0.101250X-0.526250X-0.101250X0.526250X-0.101250X0*%
%ADD34O,1.000000X1.800000*%
%ADD35O,1.000000X2.100000*%
%ADD36RoundRect,0.150000X0.150000X0.425000X-0.150000X0.425000X-0.150000X-0.425000X0.150000X-0.425000X0*%
%ADD37RoundRect,0.075000X0.075000X0.500000X-0.075000X0.500000X-0.075000X-0.500000X0.075000X-0.500000X0*%
%ADD38RoundRect,0.237500X-0.237500X0.250000X-0.237500X-0.250000X0.237500X-0.250000X0.237500X0.250000X0*%
%ADD39R,0.850000X1.600000*%
%ADD40RoundRect,0.075000X-0.910000X-0.225000X0.910000X-0.225000X0.910000X0.225000X-0.910000X0.225000X0*%
%ADD41RoundRect,0.150000X-0.587500X-0.150000X0.587500X-0.150000X0.587500X0.150000X-0.587500X0.150000X0*%
%ADD42RoundRect,0.033750X-0.101250X0.526250X-0.101250X-0.526250X0.101250X-0.526250X0.101250X0.526250X0*%
%ADD43R,0.400000X0.480000*%
%ADD44RoundRect,0.250000X-0.350000X-0.450000X0.350000X-0.450000X0.350000X0.450000X-0.350000X0.450000X0*%
%ADD45R,0.700000X1.200000*%
%ADD46RoundRect,0.075000X0.225000X-0.910000X0.225000X0.910000X-0.225000X0.910000X-0.225000X-0.910000X0*%
%ADD47RoundRect,0.237500X-0.237500X0.287500X-0.237500X-0.287500X0.237500X-0.287500X0.237500X0.287500X0*%
%ADD48RoundRect,0.150000X-0.150000X0.587500X-0.150000X-0.587500X0.150000X-0.587500X0.150000X0.587500X0*%
%ADD49RoundRect,0.056250X0.188750X0.168750X-0.188750X0.168750X-0.188750X-0.168750X0.188750X-0.168750X0*%
%ADD50R,2.150000X5.500000*%
%ADD51RoundRect,0.250000X0.350000X0.450000X-0.350000X0.450000X-0.350000X-0.450000X0.350000X-0.450000X0*%
%ADD52R,1.500000X0.900000*%
%ADD53R,0.900000X1.500000*%
%ADD54R,0.900000X0.900000*%
%ADD55R,1.050000X0.650000*%
%ADD56RoundRect,0.150000X-0.425000X0.150000X-0.425000X-0.150000X0.425000X-0.150000X0.425000X0.150000X0*%
%ADD57RoundRect,0.075000X-0.500000X0.075000X-0.500000X-0.075000X0.500000X-0.075000X0.500000X0.075000X0*%
%ADD58O,2.100000X1.000000*%
%ADD59O,1.800000X1.000000*%
G04 APERTURE END LIST*
D10*
%TO.C,MK1*%
G36*
X34357400Y-92610972D02*
G01*
X34296500Y-92767172D01*
X34204800Y-92907672D01*
X34086200Y-93026272D01*
X33945700Y-93117972D01*
X33789500Y-93178872D01*
X33624000Y-93206472D01*
X33624000Y-92955772D01*
X33733800Y-92934772D01*
X33837200Y-92892572D01*
X33930300Y-92830772D01*
X34009300Y-92751772D01*
X34071100Y-92658672D01*
X34113300Y-92555272D01*
X34134300Y-92445472D01*
X34385000Y-92445472D01*
X34357400Y-92610972D01*
G37*
G36*
X33789500Y-91612072D02*
G01*
X33945700Y-91672972D01*
X34086200Y-91764672D01*
X34204800Y-91883272D01*
X34296500Y-92023772D01*
X34357400Y-92179972D01*
X34385000Y-92345472D01*
X34134300Y-92345472D01*
X34113300Y-92235672D01*
X34071100Y-92132272D01*
X34009300Y-92039172D01*
X33930300Y-91960172D01*
X33837200Y-91898372D01*
X33733800Y-91856172D01*
X33624000Y-91835172D01*
X33624000Y-91584472D01*
X33789500Y-91612072D01*
G37*
G36*
X33034700Y-92555272D02*
G01*
X33076900Y-92658672D01*
X33138700Y-92751772D01*
X33217700Y-92830772D01*
X33310800Y-92892572D01*
X33414200Y-92934772D01*
X33524000Y-92955772D01*
X33524000Y-93206472D01*
X33358500Y-93178872D01*
X33202300Y-93117972D01*
X33061800Y-93026272D01*
X32943200Y-92907672D01*
X32851500Y-92767172D01*
X32790600Y-92610972D01*
X32763000Y-92445472D01*
X33013700Y-92445472D01*
X33034700Y-92555272D01*
G37*
G36*
X33524000Y-91835172D02*
G01*
X33414200Y-91856172D01*
X33310800Y-91898372D01*
X33217700Y-91960172D01*
X33138700Y-92039172D01*
X33076900Y-92132272D01*
X33034700Y-92235672D01*
X33013700Y-92345472D01*
X32763000Y-92345472D01*
X32790600Y-92179972D01*
X32851500Y-92023772D01*
X32943200Y-91883272D01*
X33061800Y-91764672D01*
X33202300Y-91672972D01*
X33358500Y-91612072D01*
X33524000Y-91584472D01*
X33524000Y-91835172D01*
G37*
G36*
X34724000Y-94680472D02*
G01*
X34224000Y-94680472D01*
X34224000Y-94258472D01*
X34724000Y-94258472D01*
X34724000Y-94680472D01*
G37*
G36*
X34224000Y-93858472D02*
G01*
X34724000Y-93858472D01*
X34724000Y-93436472D01*
X34224000Y-93436472D01*
X34224000Y-93858472D01*
G37*
G36*
X33824000Y-94680472D02*
G01*
X33324000Y-94680472D01*
X33324000Y-94258472D01*
X33824000Y-94258472D01*
X33824000Y-94680472D01*
G37*
G36*
X32924000Y-93858472D02*
G01*
X32424000Y-93858472D01*
X32424000Y-93436472D01*
X32924000Y-93436472D01*
X32924000Y-93858472D01*
G37*
G36*
X32424000Y-94680472D02*
G01*
X32924000Y-94680472D01*
X32924000Y-94258472D01*
X32424000Y-94258472D01*
X32424000Y-94680472D01*
G37*
D11*
%TO.C,U9*%
X34570000Y-32692000D02*
X33330000Y-32692000D01*
X33330000Y-31892000D01*
X34570000Y-31892000D01*
X34570000Y-32692000D01*
G36*
X34570000Y-32692000D02*
G01*
X33330000Y-32692000D01*
X33330000Y-31892000D01*
X34570000Y-31892000D01*
X34570000Y-32692000D01*
G37*
X34570000Y-33762000D02*
X33330000Y-33762000D01*
X33330000Y-32962000D01*
X34570000Y-32962000D01*
X34570000Y-33762000D01*
G36*
X34570000Y-33762000D02*
G01*
X33330000Y-33762000D01*
X33330000Y-32962000D01*
X34570000Y-32962000D01*
X34570000Y-33762000D01*
G37*
X36080000Y-32692000D02*
X34840000Y-32692000D01*
X34840000Y-31892000D01*
X36080000Y-31892000D01*
X36080000Y-32692000D01*
G36*
X36080000Y-32692000D02*
G01*
X34840000Y-32692000D01*
X34840000Y-31892000D01*
X36080000Y-31892000D01*
X36080000Y-32692000D01*
G37*
X36080000Y-33762000D02*
X34840000Y-33762000D01*
X34840000Y-32962000D01*
X36080000Y-32962000D01*
X36080000Y-33762000D01*
G36*
X36080000Y-33762000D02*
G01*
X34840000Y-33762000D01*
X34840000Y-32962000D01*
X36080000Y-32962000D01*
X36080000Y-33762000D01*
G37*
%TD*%
D12*
%TO.C,R12*%
X71867500Y-107456472D03*
X73692500Y-107456472D03*
%TD*%
D13*
%TO.C,C18*%
X60888000Y-116065972D03*
X60888000Y-114340972D03*
%TD*%
D14*
%TO.C,U4*%
X61357000Y-112590472D03*
X61357000Y-111320472D03*
X61357000Y-110050472D03*
X61357000Y-108780472D03*
X66297000Y-108780472D03*
X66297000Y-110050472D03*
X66297000Y-111320472D03*
X66297000Y-112590472D03*
%TD*%
D15*
%TO.C,C16*%
X70329500Y-109355472D03*
X72054500Y-109355472D03*
%TD*%
D16*
%TO.C,J5*%
X35574000Y-98439472D03*
X34574000Y-96689472D03*
X33574000Y-98439472D03*
X32574000Y-96689472D03*
X31574000Y-98439472D03*
X30574000Y-96689472D03*
X29574000Y-98439472D03*
%TD*%
D17*
%TO.C,R17*%
X64340500Y-115711472D03*
X62515500Y-115711472D03*
%TD*%
D12*
%TO.C,R3*%
X65849500Y-98835472D03*
X67674500Y-98835472D03*
%TD*%
D18*
%TO.C,D1*%
X44792000Y-84469472D03*
X43472000Y-84469472D03*
%TD*%
D12*
%TO.C,R16*%
X63997000Y-114187472D03*
X65822000Y-114187472D03*
%TD*%
D19*
%TO.C,R19*%
X56520511Y-107018675D03*
X56520511Y-108843675D03*
%TD*%
D20*
%TO.C,U7*%
X32858000Y-88320472D03*
X32858000Y-88970472D03*
X32858000Y-89620472D03*
X32858000Y-90270472D03*
X34798000Y-90270472D03*
X34798000Y-89620472D03*
X34798000Y-88970472D03*
X34798000Y-88320472D03*
%TD*%
D21*
%TO.C,C23*%
X62258500Y-103773472D03*
X60533500Y-103773472D03*
%TD*%
D22*
%TO.C,C10*%
X76382000Y-76494972D03*
X76382000Y-78219972D03*
%TD*%
D12*
%TO.C,R10*%
X57181500Y-83961472D03*
X59006500Y-83961472D03*
%TD*%
D13*
%TO.C,C24*%
X69143000Y-104000972D03*
X69143000Y-102275972D03*
%TD*%
D23*
%TO.C,D2*%
X49074000Y-83085472D03*
X51874000Y-83085472D03*
%TD*%
D21*
%TO.C,C13*%
X51437500Y-110581472D03*
X49712500Y-110581472D03*
%TD*%
D18*
%TO.C,D3*%
X45634553Y-83089173D03*
X46954553Y-83089173D03*
%TD*%
D17*
%TO.C,R11*%
X77040500Y-107456472D03*
X75215500Y-107456472D03*
%TD*%
D22*
%TO.C,C9*%
X77906000Y-76494972D03*
X77906000Y-78219972D03*
%TD*%
D19*
%TO.C,R8*%
X71302000Y-76444972D03*
X71302000Y-78269972D03*
%TD*%
D24*
%TO.C,U6*%
X74604000Y-105227472D03*
X73334000Y-105227472D03*
X72064000Y-105227472D03*
X70794000Y-105227472D03*
X70794000Y-100287472D03*
X72064000Y-100287472D03*
X73334000Y-100287472D03*
X74604000Y-100287472D03*
%TD*%
D15*
%TO.C,C2*%
X50222096Y-85021852D03*
X51947096Y-85021852D03*
%TD*%
D13*
%TO.C,C14*%
X53268000Y-108807972D03*
X53268000Y-107082972D03*
%TD*%
D25*
%TO.C,U1*%
X77750000Y-80151472D03*
X76900000Y-80151472D03*
X76050000Y-80151472D03*
X75200000Y-80151472D03*
X74350000Y-80151472D03*
X73500000Y-80151472D03*
X72650000Y-80151472D03*
X71800000Y-80151472D03*
X70950000Y-80151472D03*
X70100000Y-80151472D03*
X69250000Y-80151472D03*
X68400000Y-80151472D03*
X67550000Y-80151472D03*
X66700000Y-80151472D03*
X65850000Y-80151472D03*
D26*
X64800000Y-81201472D03*
X64800000Y-82051472D03*
X64800000Y-82901472D03*
X64800000Y-83751472D03*
X64800000Y-84601472D03*
X64800000Y-85451472D03*
X64800000Y-86301472D03*
X64800000Y-87151472D03*
X64800000Y-88001472D03*
X64800000Y-88851472D03*
X64800000Y-89701472D03*
X64800000Y-90551472D03*
X64800000Y-91401472D03*
X64800000Y-92251472D03*
X64800000Y-93101472D03*
D25*
X65850000Y-94151472D03*
X66700000Y-94151472D03*
X67550000Y-94151472D03*
X68400000Y-94151472D03*
X69250000Y-94151472D03*
X70100000Y-94151472D03*
X70950000Y-94151472D03*
X71800000Y-94151472D03*
X72650000Y-94151472D03*
X73500000Y-94151472D03*
X74350000Y-94151472D03*
X75200000Y-94151472D03*
X76050000Y-94151472D03*
X76900000Y-94151472D03*
X77750000Y-94151472D03*
D26*
X78800000Y-93101472D03*
X78800000Y-92251472D03*
X78800000Y-91401472D03*
X78800000Y-90551472D03*
X78800000Y-89701472D03*
X78800000Y-88851472D03*
X78800000Y-88001472D03*
X78800000Y-87151472D03*
X78800000Y-86301472D03*
X78800000Y-85451472D03*
X78800000Y-84601472D03*
X78800000Y-83751472D03*
X78800000Y-82901472D03*
X78800000Y-82051472D03*
X78800000Y-81201472D03*
D27*
X73450000Y-85501472D03*
D23*
X71800000Y-85501472D03*
X70150000Y-85501472D03*
X73450000Y-87151472D03*
X71800000Y-87151472D03*
X70150000Y-87151472D03*
X73450000Y-88801472D03*
X71800000Y-88801472D03*
X70150000Y-88801472D03*
D28*
X78800000Y-80151472D03*
X64800000Y-80151472D03*
X64800000Y-94151472D03*
X78800000Y-94151472D03*
%TD*%
D19*
%TO.C,R1*%
X43870000Y-98034972D03*
X43870000Y-99859972D03*
%TD*%
D12*
%TO.C,R7*%
X41039500Y-82691472D03*
X42864500Y-82691472D03*
%TD*%
D29*
%TO.C,SW1*%
X63038000Y-76763472D03*
X63038000Y-80913472D03*
X60888000Y-76763472D03*
X60888000Y-80913472D03*
%TD*%
D30*
%TO.C,U5*%
X46892000Y-98175472D03*
X48162000Y-98175472D03*
X49432000Y-98175472D03*
X50702000Y-98175472D03*
X51972000Y-98175472D03*
X53242000Y-98175472D03*
X54512000Y-98175472D03*
X55782000Y-98175472D03*
X55782000Y-103175472D03*
X54512000Y-103175472D03*
X53242000Y-103175472D03*
X51972000Y-103175472D03*
X50702000Y-103175472D03*
X49432000Y-103175472D03*
X48162000Y-103175472D03*
X46892000Y-103175472D03*
%TD*%
D18*
%TO.C,D4*%
X52240938Y-86494868D03*
X50920938Y-86494868D03*
%TD*%
D13*
%TO.C,C7*%
X31542000Y-90284972D03*
X31542000Y-88559972D03*
%TD*%
D31*
%TO.C,D5*%
X69242000Y-76228472D03*
X69242000Y-77978472D03*
X65742000Y-77978472D03*
X65742000Y-76228472D03*
%TD*%
D17*
%TO.C,R5*%
X63832500Y-107075472D03*
X62007500Y-107075472D03*
%TD*%
D13*
%TO.C,C11*%
X45114000Y-110975972D03*
X45114000Y-109250972D03*
%TD*%
D17*
%TO.C,R9*%
X62994500Y-84215472D03*
X61169500Y-84215472D03*
%TD*%
D22*
%TO.C,C22*%
X76382000Y-100116972D03*
X76382000Y-101841972D03*
%TD*%
D29*
%TO.C,SW2*%
X56960000Y-80913472D03*
X56960000Y-76763472D03*
X59110000Y-80913472D03*
X59110000Y-76763472D03*
%TD*%
D17*
%TO.C,R18*%
X65042329Y-105520925D03*
X63217329Y-105520925D03*
%TD*%
D19*
%TO.C,R13*%
X49813000Y-107025472D03*
X49813000Y-108850472D03*
%TD*%
%TO.C,R14*%
X51337000Y-107025472D03*
X51337000Y-108850472D03*
%TD*%
D15*
%TO.C,C20*%
X60533500Y-102249472D03*
X62258500Y-102249472D03*
%TD*%
D13*
%TO.C,C5*%
X30780000Y-94330072D03*
X30780000Y-92605072D03*
%TD*%
D19*
%TO.C,R2*%
X43870000Y-101336972D03*
X43870000Y-103161972D03*
%TD*%
%TO.C,R15*%
X54898441Y-107018040D03*
X54898441Y-108843040D03*
%TD*%
D12*
%TO.C,R4*%
X67439500Y-97225472D03*
X69264500Y-97225472D03*
%TD*%
D22*
%TO.C,C21*%
X77906000Y-100116972D03*
X77906000Y-101841972D03*
%TD*%
D13*
%TO.C,C8*%
X29980000Y-90325972D03*
X29980000Y-88600972D03*
%TD*%
D21*
%TO.C,C4*%
X58956500Y-82437472D03*
X57231500Y-82437472D03*
%TD*%
D32*
%TO.C,Q2*%
X45319500Y-106517472D03*
X47194500Y-105567472D03*
X47194500Y-107467472D03*
%TD*%
D33*
%TO.C,U2*%
X63928000Y-101729472D03*
X63928000Y-101229472D03*
X63928000Y-100729472D03*
X63928000Y-100229472D03*
X66738000Y-100229472D03*
X66738000Y-100729472D03*
X66738000Y-101229472D03*
X66738000Y-101729472D03*
%TD*%
D13*
%TO.C,C6*%
X29256000Y-94330072D03*
X29256000Y-92605072D03*
%TD*%
D19*
%TO.C,R6*%
X50922000Y-76442972D03*
X50922000Y-78267972D03*
%TD*%
D15*
%TO.C,C3*%
X61219500Y-82691472D03*
X62944500Y-82691472D03*
%TD*%
D21*
%TO.C,C17*%
X75420500Y-109320972D03*
X73695500Y-109320972D03*
%TD*%
D13*
%TO.C,C1*%
X69143000Y-100625472D03*
X69143000Y-98900472D03*
%TD*%
D15*
%TO.C,C15*%
X54437500Y-105297472D03*
X56162500Y-105297472D03*
%TD*%
D34*
%TO.C,J1*%
X40414000Y-75904472D03*
D35*
X40414000Y-80084472D03*
D34*
X49054000Y-75904472D03*
D35*
X49054000Y-80084472D03*
D36*
X47934000Y-80659472D03*
X47134000Y-80659472D03*
D37*
X46484000Y-80659472D03*
X45484000Y-80659472D03*
X43984000Y-80659472D03*
X42984000Y-80659472D03*
D36*
X42334000Y-80659472D03*
X41534000Y-80659472D03*
X41534000Y-80659472D03*
X42334000Y-80659472D03*
D37*
X43484000Y-80659472D03*
X44484000Y-80659472D03*
X44984000Y-80659472D03*
X45984000Y-80659472D03*
D36*
X47134000Y-80659472D03*
X47934000Y-80659472D03*
%TD*%
D13*
%TO.C,C19*%
X59294000Y-116065972D03*
X59294000Y-114340972D03*
%TD*%
D23*
%TO.C,D1*%
X37580796Y-44706000D03*
X34780796Y-44706000D03*
%TD*%
D19*
%TO.C,R20*%
X31022000Y-35452500D03*
X31022000Y-33627500D03*
%TD*%
D13*
%TO.C,C17*%
X82429000Y-46823500D03*
X82429000Y-48548500D03*
%TD*%
D19*
%TO.C,R3*%
X45337000Y-36924500D03*
X45337000Y-35099500D03*
%TD*%
D17*
%TO.C,R1*%
X34670796Y-46696000D03*
X36495796Y-46696000D03*
%TD*%
D38*
%TO.C,R5*%
X59646000Y-24072500D03*
X59646000Y-25897500D03*
%TD*%
D21*
%TO.C,C20*%
X31012271Y-40875035D03*
X32737271Y-40875035D03*
%TD*%
D39*
%TO.C,D6*%
X74668000Y-27535000D03*
X72918000Y-27535000D03*
X72918000Y-31035000D03*
X74668000Y-31035000D03*
%TD*%
D21*
%TO.C,C5*%
X29299500Y-26309000D03*
X31024500Y-26309000D03*
%TD*%
D13*
%TO.C,C22*%
X83953000Y-46823500D03*
X83953000Y-48548500D03*
%TD*%
D17*
%TO.C,R14*%
X81899500Y-30512000D03*
X83724500Y-30512000D03*
%TD*%
D21*
%TO.C,C18*%
X88474500Y-38212000D03*
X90199500Y-38212000D03*
%TD*%
D38*
%TO.C,R23*%
X31022000Y-37437500D03*
X31022000Y-39262500D03*
%TD*%
D40*
%TO.C,U3*%
X78217000Y-32207000D03*
X78217000Y-33477000D03*
X78217000Y-34747000D03*
X78217000Y-36017000D03*
X83157000Y-36017000D03*
X83157000Y-34747000D03*
X83157000Y-33477000D03*
X83157000Y-32207000D03*
%TD*%
D22*
%TO.C,C4*%
X32687035Y-28063455D03*
X32687035Y-26338455D03*
%TD*%
D38*
%TO.C,R11*%
X70999000Y-36867500D03*
X70999000Y-38692500D03*
%TD*%
D22*
%TO.C,C12*%
X85513000Y-32180500D03*
X85513000Y-30455500D03*
%TD*%
D17*
%TO.C,R2*%
X34566296Y-51337000D03*
X36391296Y-51337000D03*
%TD*%
D12*
%TO.C,R17*%
X47631000Y-54036000D03*
X45806000Y-54036000D03*
%TD*%
D22*
%TO.C,C10*%
X55780000Y-25835000D03*
X55780000Y-24110000D03*
%TD*%
D41*
%TO.C,Q2*%
X74887000Y-48762000D03*
X74887000Y-50662000D03*
X76762000Y-49712000D03*
%TD*%
D13*
%TO.C,C1*%
X39428796Y-44599500D03*
X39428796Y-46324500D03*
%TD*%
D42*
%TO.C,U2*%
X74670000Y-40300500D03*
X74170000Y-40300500D03*
X73670000Y-40300500D03*
X73170000Y-40300500D03*
X73170000Y-43110500D03*
X73670000Y-43110500D03*
X74170000Y-43110500D03*
X74670000Y-43110500D03*
%TD*%
D38*
%TO.C,R22*%
X32800000Y-37437500D03*
X32800000Y-39262500D03*
%TD*%
D19*
%TO.C,R9*%
X75080000Y-57742500D03*
X75080000Y-55917500D03*
%TD*%
D13*
%TO.C,C24*%
X72629797Y-36663500D03*
X72629797Y-38388500D03*
%TD*%
D17*
%TO.C,R24*%
X45806000Y-52258000D03*
X47631000Y-52258000D03*
%TD*%
D22*
%TO.C,C9*%
X61368000Y-25847500D03*
X61368000Y-24122500D03*
%TD*%
D17*
%TO.C,R7*%
X70949500Y-33162000D03*
X72774500Y-33162000D03*
%TD*%
D43*
%TO.C,D4*%
X40903796Y-45922000D03*
X40903796Y-44602000D03*
%TD*%
%TO.C,D2*%
X39678796Y-50147000D03*
X39678796Y-48827000D03*
%TD*%
D13*
%TO.C,C16*%
X74177000Y-36679500D03*
X74177000Y-38404500D03*
%TD*%
D44*
%TO.C,R19*%
X34531732Y-41108943D03*
X36531732Y-41108943D03*
%TD*%
D13*
%TO.C,C21*%
X40547000Y-31610000D03*
X40547000Y-33335000D03*
%TD*%
D19*
%TO.C,R25*%
X76079000Y-42248500D03*
X76079000Y-40423500D03*
%TD*%
D17*
%TO.C,R16*%
X74849500Y-47062000D03*
X76674500Y-47062000D03*
%TD*%
D45*
%TO.C,D7*%
X38515000Y-34423000D03*
X38515000Y-30723000D03*
%TD*%
D46*
%TO.C,U7*%
X85782000Y-49332000D03*
X87052000Y-49332000D03*
X88322000Y-49332000D03*
X89592000Y-49332000D03*
X89592000Y-44392000D03*
X88322000Y-44392000D03*
X87052000Y-44392000D03*
X85782000Y-44392000D03*
%TD*%
D12*
%TO.C,R13*%
X79949500Y-30487000D03*
X78124500Y-30487000D03*
%TD*%
D22*
%TO.C,C14*%
X80645000Y-56836000D03*
X80645000Y-55111000D03*
%TD*%
D15*
%TO.C,C19*%
X86824500Y-38237000D03*
X85099500Y-38237000D03*
%TD*%
D47*
%TO.C,D5*%
X43787000Y-35137000D03*
X43787000Y-36887000D03*
%TD*%
D19*
%TO.C,R12*%
X77603000Y-43264500D03*
X77603000Y-41439500D03*
%TD*%
D21*
%TO.C,C11*%
X74708500Y-44892000D03*
X76433500Y-44892000D03*
%TD*%
%TO.C,C23*%
X71306000Y-44892000D03*
X73031000Y-44892000D03*
%TD*%
D38*
%TO.C,R6*%
X57480000Y-24072500D03*
X57480000Y-25897500D03*
%TD*%
D22*
%TO.C,C6*%
X46667000Y-29464500D03*
X46667000Y-27739500D03*
%TD*%
D17*
%TO.C,R26*%
X83274500Y-39812000D03*
X85099500Y-39812000D03*
%TD*%
D48*
%TO.C,Q3*%
X47668500Y-56146500D03*
X45768500Y-56146500D03*
X46718500Y-58021500D03*
%TD*%
D22*
%TO.C,C7*%
X48282000Y-29464500D03*
X48282000Y-27739500D03*
%TD*%
%TO.C,C13*%
X87291000Y-32180500D03*
X87291000Y-30455500D03*
%TD*%
D38*
%TO.C,R8*%
X75080000Y-52512000D03*
X75080000Y-54337000D03*
%TD*%
D49*
%TO.C,U4*%
X76627000Y-57040500D03*
X76627000Y-56390500D03*
X76627000Y-55740500D03*
X76627000Y-55090500D03*
X78567000Y-55090500D03*
X78567000Y-55740500D03*
X78567000Y-56390500D03*
X78567000Y-57040500D03*
%TD*%
D21*
%TO.C,C3*%
X36737000Y-39112000D03*
X38462000Y-39112000D03*
%TD*%
D50*
%TO.C,L1*%
X36812000Y-25037000D03*
X40662000Y-25037000D03*
%TD*%
D51*
%TO.C,R21*%
X30971231Y-28086832D03*
X28971231Y-28086832D03*
%TD*%
D22*
%TO.C,C15*%
X82192000Y-56830000D03*
X82192000Y-55105000D03*
%TD*%
D21*
%TO.C,C2*%
X36737000Y-37421000D03*
X38462000Y-37421000D03*
%TD*%
D24*
%TO.C,U9*%
X36610000Y-30352000D03*
X35340000Y-30352000D03*
X34070000Y-30352000D03*
X32800000Y-30352000D03*
X32800000Y-35302000D03*
X34070000Y-35302000D03*
X35340000Y-35302000D03*
X36610000Y-35302000D03*
%TD*%
D17*
%TO.C,R18*%
X71023500Y-48696000D03*
X72848500Y-48696000D03*
%TD*%
D38*
%TO.C,R10*%
X69475000Y-37987000D03*
X69475000Y-39812000D03*
%TD*%
D43*
%TO.C,D3*%
X37953796Y-46764500D03*
X37953796Y-48084500D03*
%TD*%
D52*
%TO.C,U1*%
X50132000Y-28602000D03*
X50132000Y-29872000D03*
X50132000Y-31142000D03*
X50132000Y-32412000D03*
X50132000Y-33682000D03*
X50132000Y-34952000D03*
X50132000Y-36222000D03*
X50132000Y-37492000D03*
X50132000Y-38762000D03*
X50132000Y-40032000D03*
X50132000Y-41302000D03*
X50132000Y-42572000D03*
X50132000Y-43842000D03*
X50132000Y-45112000D03*
D53*
X51897000Y-46362000D03*
X53167000Y-46362000D03*
X54437000Y-46362000D03*
X55707000Y-46362000D03*
X56977000Y-46362000D03*
X58247000Y-46362000D03*
X59517000Y-46362000D03*
X60787000Y-46362000D03*
X62057000Y-46362000D03*
X63327000Y-46362000D03*
X64597000Y-46362000D03*
X65867000Y-46362000D03*
D52*
X67632000Y-45112000D03*
X67632000Y-43842000D03*
X67632000Y-42572000D03*
X67632000Y-41302000D03*
X67632000Y-40032000D03*
X67632000Y-38762000D03*
X67632000Y-37492000D03*
X67632000Y-36222000D03*
X67632000Y-34952000D03*
X67632000Y-33682000D03*
X67632000Y-32412000D03*
X67632000Y-31142000D03*
X67632000Y-29872000D03*
X67632000Y-28602000D03*
D54*
X55982000Y-34922000D03*
X57382000Y-34922000D03*
X58782000Y-34922000D03*
X55982000Y-36322000D03*
X57382000Y-36322000D03*
X58782000Y-36322000D03*
X55982000Y-37722000D03*
X57382000Y-37722000D03*
X58782000Y-37722000D03*
%TD*%
D55*
%TO.C,SW1*%
X63633000Y-23810000D03*
X67783000Y-23810000D03*
X63633000Y-25960000D03*
X67783000Y-25960000D03*
%TD*%
%TO.C,SW2*%
X49883000Y-23810000D03*
X54033000Y-23810000D03*
X49883000Y-25960000D03*
X54033000Y-25960000D03*
%TD*%
D17*
%TO.C,R15*%
X86849500Y-41912000D03*
X88674500Y-41912000D03*
%TD*%
D56*
%TO.C,J1*%
X32610796Y-45756000D03*
X32610796Y-46556000D03*
D57*
X32610796Y-47706000D03*
X32610796Y-48706000D03*
X32610796Y-49206000D03*
X32610796Y-50206000D03*
D56*
X32610796Y-51356000D03*
X32610796Y-52156000D03*
X32610796Y-52156000D03*
X32610796Y-51356000D03*
D57*
X32610796Y-50706000D03*
X32610796Y-49706000D03*
X32610796Y-48206000D03*
X32610796Y-47206000D03*
D56*
X32610796Y-46556000D03*
X32610796Y-45756000D03*
D58*
X32035796Y-44636000D03*
D59*
X27855796Y-44636000D03*
D58*
X32035796Y-53276000D03*
D59*
X27855796Y-53276000D03*
%TD*%
M02*
