M48
; DRILL file {KiCad 8.0.5} date 2024-10-21T18:47:51+0200
; FORMAT={-:-/ absolute / metric / decimal}
; #@! TF.CreationDate,2024-10-21T18:47:51+02:00
; #@! TF.GenerationSoftware,Kicad,Pcbnew,8.0.5
; #@! TF.FileFunction,Plated,1,2,PTH
FMAT,2
METRIC
; #@! TA.AperFunction,Plated,PTH,ComponentDrill
T1C0.200
; #@! TA.AperFunction,Plated,PTH,ViaDrill
T2C0.300
; #@! TA.AperFunction,Plated,PTH,ComponentDrill
T3C0.400
; #@! TA.AperFunction,Plated,PTH,ComponentDrill
T4C0.600
; #@! TA.AperFunction,Plated,PTH,ComponentDrill
T5C1.000
; #@! TA.AperFunction,Plated,PTH,ComponentDrill
T6C1.100
; #@! TA.AperFunction,Plated,PTH,ComponentDrill
T7C2.200
%
G90
G05
T1
X55.982Y-35.622
X55.982Y-37.022
X56.682Y-34.922
X56.682Y-36.322
X56.682Y-37.722
X57.382Y-35.622
X57.382Y-37.022
X58.082Y-34.922
X58.082Y-36.322
X58.082Y-37.722
X58.782Y-35.622
X58.782Y-37.022
T2
X26.549Y-22.286
X26.803Y-41.59
X26.803Y-42.86
X28.073Y-42.352
X28.581Y-56.576
X29.002Y-87.263
X29.102Y-96.407
X29.237Y-30.562
X29.256Y-86.501
X29.256Y-97.169
X29.764Y-87.263
X29.764Y-96.407
X30.087Y-30.562
X30.613Y-57.846
X30.78Y-95.137
X31.037Y-32.137
X31.542Y-88.787
X31.837Y-24.487
X31.883Y-23.302
X32.137Y-55.306
X32.558Y-98.693
X32.562Y-24.487
X32.685Y-94.502
X33.407Y-57.846
X34.59Y-98.693
X34.844Y-87.009
X35.087Y-52.456
X35.332Y-86.355
X35.582Y-87.105
X36.687Y-47.577
X37.979Y-40.512
X37.979Y-41.142
X37.979Y-41.792
X37.979Y-42.482
X38.462Y-35.412
X38.462Y-36.287
X38.837Y-52.258
X39.394Y-33.544
X40.06Y-83.199
X40.187Y-82.437
X40.265Y-35.494
X40.361Y-51.496
X40.501Y-46.325
X40.695Y-78.5
X41.027Y-35.494
X41.027Y-40.066
X41.027Y-40.828
X41.137Y-27.112
X41.162Y-26.012
X42.092Y-75.833
X42.092Y-106.567
X42.092Y-107.583
X42.334Y-81.548
X42.854Y-78.373
X43.108Y-96.915
X43.313Y-27.366
X43.821Y-21.524
X43.85Y-113.177
X43.997Y-114.187
X44.075Y-44.003
X44.075Y-44.892
X44.075Y-50.734
X44.075Y-51.75
X44.583Y-24.318
X44.632Y-87.771
X44.632Y-92.851
X44.71Y-44.384
X44.837Y-21.524
X44.886Y-98.947
X45.14Y-93.867
X45.648Y-78.373
X45.902Y-87.771
X45.902Y-92.851
X46.664Y-75.833
X47.123Y-38.034
X47.172Y-84.215
X47.195Y-81.779
X47.377Y-24.318
X47.377Y-37.399
X47.426Y-112.409
X47.758Y-38.288
X47.799Y-47.95
X47.934Y-84.215
X48.569Y-81.675
X48.774Y-36.387
X48.95Y-95.899
X48.95Y-100.725
X49.155Y-21.524
X49.585Y-81.548
X49.712Y-86.501
X49.966Y-95.899
X49.966Y-100.725
X50.171Y-50.226
X50.171Y-55.814
X50.728Y-75.325
X50.933Y-50.226
X51.435Y-84.922
X51.777Y-28.712
X51.787Y-27.962
X51.998Y-83.961
X52.457Y-55.814
X52.506Y-79.389
X52.773Y-41.212
X52.793Y-40.412
X53.014Y-112.917
X53.662Y-41.212
X53.687Y-40.412
X53.776Y-76.341
X53.776Y-77.357
X54.03Y-100.725
X54.235Y-43.622
X54.538Y-76.849
X54.743Y-21.524
X54.937Y-23.962
X54.997Y-55.814
X55.337Y-33.812
X55.554Y-82.183
X56.112Y-33.812
X56.267Y-43.622
X56.57Y-116.473
X56.812Y-33.837
X57.459Y-93.994
X58.02Y-83.669
X58.094Y-108.599
X58.094Y-109.361
X58.12Y-114.341
X58.299Y-55.814
X58.553Y-29.906
X58.602Y-103.773
X58.807Y-43.622
X58.983Y-104.535
X59.491Y-103.9
X59.569Y-31.176
X60.126Y-75.579
X60.126Y-84.469
X60.38Y-82.691
X60.634Y-85.993
X61.347Y-30.16
X61.855Y-43.622
X62.091Y-105.364
X62.262Y-24.187
X62.617Y-21.524
X62.617Y-55.814
X62.666Y-97.677
X63.379Y-21.524
X63.428Y-97.423
X63.682Y-112.155
X63.936Y-80.151
X63.936Y-94.121
X63.936Y-110.682
X64.19Y-77.865
X64.19Y-115.203
X65.157Y-55.814
X66.222Y-107.329
X66.984Y-105.043
X67.238Y-78.881
X67.238Y-87.009
X67.238Y-107.329
X67.55Y-93.047
X67.746Y-102.757
X67.951Y-48.956
X67.951Y-55.814
X68.713Y-49.21
X69.143Y-109.488
X69.524Y-105.043
X69.778Y-82.945
X69.778Y-112.409
X69.983Y-55.814
X70.159Y-93.105
X70.491Y-31.43
X70.572Y-98.145
X70.745Y-30.668
X70.999Y-47.432
X71.253Y-31.43
X71.556Y-103.265
X71.761Y-47.432
X72.445Y-98.439
X72.487Y-50.612
X72.523Y-21.524
X72.777Y-24.318
X72.777Y-25.334
X72.777Y-35.24
X73.08Y-92.978
X73.285Y-34.478
X73.547Y-58.102
X73.588Y-82.945
X73.632Y-116.475
X73.793Y-35.24
X73.842Y-76.849
X74.047Y-24.826
X74.858Y-113.044
X75.193Y-37.232
X75.207Y-35.454
X75.207Y-36.256
X75.366Y-93.105
X75.62Y-111.647
X76.001Y-113.171
X76.07Y-78.895
X76.128Y-93.105
X76.282Y-97.335
X76.382Y-74.817
X76.512Y-97.995
X76.587Y-58.354
X76.687Y-48.637
X76.763Y-109.361
X76.841Y-21.524
X77.012Y-97.435
X77.017Y-103.519
X77.032Y-78.895
X77.246Y-95.391
X77.603Y-25.334
X77.603Y-26.858
X77.603Y-28.636
X77.603Y-39.304
X77.906Y-74.817
X78.087Y-30.537
X78.18Y-53.967
X78.262Y-37.037
X78.517Y-38.112
X78.619Y-44.13
X78.619Y-53.528
X78.89Y-58.1
X79.176Y-95.493
X79.387Y-42.612
X79.508Y-45.781
X79.635Y-43.368
X79.635Y-44.257
X80.192Y-112.155
X80.607Y-35.162
X80.905Y-33.716
X80.905Y-42.479
X80.905Y-46.416
X81.159Y-43.876
X81.208Y-112.155
X81.437Y-47.962
X81.667Y-26.604
X81.887Y-49.637
X82.302Y-40.066
X82.337Y-50.087
X82.683Y-27.62
X82.683Y-38.112
X83.191Y-49.464
X83.318Y-26.985
X83.867Y-38.672
X83.953Y-45.146
X83.953Y-54.29
X84.207Y-49.464
X84.969Y-54.29
X86.239Y-58.608
X86.239Y-59.37
X86.366Y-27.62
X87.255Y-27.62
X88.062Y-52.237
X88.562Y-32.312
X88.762Y-52.237
X91.319Y-54.544
X91.954Y-32.573
X92.081Y-30.795
T3
X30.882Y-85.105
X31.365Y-83.939
X31.365Y-86.272
X32.532Y-83.455
X32.532Y-86.755
X33.699Y-83.939
X33.699Y-86.272
X34.182Y-85.105
X44.203Y-41.336
X44.686Y-40.169
X44.686Y-42.503
X45.853Y-39.686
X45.853Y-42.986
X47.02Y-40.169
X47.02Y-42.503
X47.503Y-41.336
X58.222Y-98.82
X58.705Y-97.654
X58.705Y-99.987
X59.872Y-97.17
X59.872Y-100.47
X61.039Y-97.654
X61.039Y-99.987
X61.522Y-98.82
T5
X41.33Y-88.279
X41.33Y-90.819
X41.33Y-93.359
X41.33Y-95.899
X41.33Y-98.439
X41.33Y-100.979
X41.33Y-103.519
X47.416Y-115.203
X49.956Y-115.203
X51.187Y-53.528
X51.187Y-58.1
X52.496Y-115.203
X53.727Y-53.528
X53.727Y-58.1
X55.036Y-115.203
X56.267Y-53.528
X56.267Y-58.1
X58.807Y-53.528
X58.807Y-58.1
X61.347Y-53.528
X61.347Y-58.1
X63.887Y-53.528
X63.887Y-58.1
X66.427Y-53.528
X66.427Y-58.1
X68.967Y-53.528
X68.967Y-58.1
X71.507Y-53.528
X71.507Y-58.1
T6
X70.032Y-114.725
X72.572Y-114.725
X75.112Y-114.725
X77.652Y-114.725
X79.807Y-24.462
X80.192Y-114.725
X82.347Y-24.462
X84.887Y-24.462
X87.427Y-24.462
X89.967Y-24.462
T7
X32.532Y-85.105
X45.853Y-41.336
X59.872Y-98.82
T4
X28.256Y-44.636G85X27.456Y-44.636
G05
X28.256Y-53.276G85X27.456Y-53.276
G05
X32.586Y-44.636G85X31.486Y-44.636
G05
X32.586Y-53.276G85X31.486Y-53.276
G05
X40.414Y-76.304G85X40.414Y-75.504
G05
X40.414Y-80.634G85X40.414Y-79.534
G05
X49.054Y-76.304G85X49.054Y-75.504
G05
X49.054Y-80.634G85X49.054Y-79.534
G05
M30
