G04 #@! TF.GenerationSoftware,KiCad,Pcbnew,8.0.5*
G04 #@! TF.CreationDate,2024-10-21T14:42:36+02:00*
G04 #@! TF.ProjectId,Master,4d617374-6572-42e6-9b69-6361645f7063,rev?*
G04 #@! TF.SameCoordinates,Original*
G04 #@! TF.FileFunction,Legend,Top*
G04 #@! TF.FilePolarity,Positive*
%FSLAX46Y46*%
G04 Gerber Fmt 4.6, Leading zero omitted, Abs format (unit mm)*
G04 Created by KiCad (PCBNEW 8.0.5) date 2024-10-21 14:42:36*
%MOMM*%
%LPD*%
G01*
G04 APERTURE LIST*
G04 Aperture macros list*
%AMRoundRect*
0 Rectangle with rounded corners*
0 $1 Rounding radius*
0 $2 $3 $4 $5 $6 $7 $8 $9 X,Y pos of 4 corners*
0 Add a 4 corners polygon primitive as box body*
4,1,4,$2,$3,$4,$5,$6,$7,$8,$9,$2,$3,0*
0 Add four circle primitives for the rounded corners*
1,1,$1+$1,$2,$3*
1,1,$1+$1,$4,$5*
1,1,$1+$1,$6,$7*
1,1,$1+$1,$8,$9*
0 Add four rect primitives between the rounded corners*
20,1,$1+$1,$2,$3,$4,$5,0*
20,1,$1+$1,$4,$5,$6,$7,0*
20,1,$1+$1,$6,$7,$8,$9,0*
20,1,$1+$1,$8,$9,$2,$3,0*%
%AMFreePoly0*
4,1,19,0.550000,-0.750000,0.000000,-0.750000,0.000000,-0.744911,-0.071157,-0.744911,-0.207708,-0.704816,-0.327430,-0.627875,-0.420627,-0.520320,-0.479746,-0.390866,-0.500000,-0.250000,-0.500000,0.250000,-0.479746,0.390866,-0.420627,0.520320,-0.327430,0.627875,-0.207708,0.704816,-0.071157,0.744911,0.000000,0.744911,0.000000,0.750000,0.550000,0.750000,0.550000,-0.750000,0.550000,-0.750000,
$1*%
%AMFreePoly1*
4,1,19,0.000000,0.744911,0.071157,0.744911,0.207708,0.704816,0.327430,0.627875,0.420627,0.520320,0.479746,0.390866,0.500000,0.250000,0.500000,-0.250000,0.479746,-0.390866,0.420627,-0.520320,0.327430,-0.627875,0.207708,-0.704816,0.071157,-0.744911,0.000000,-0.744911,0.000000,-0.750000,-0.550000,-0.750000,-0.550000,0.750000,0.000000,0.750000,0.000000,0.744911,0.000000,0.744911,
$1*%
G04 Aperture macros list end*
%ADD10C,0.150000*%
%ADD11C,0.200000*%
%ADD12C,0.125000*%
%ADD13C,0.250000*%
%ADD14C,0.120000*%
%ADD15C,0.000000*%
%ADD16C,0.127000*%
%ADD17C,0.400000*%
%ADD18RoundRect,0.237500X0.237500X-0.250000X0.237500X0.250000X-0.237500X0.250000X-0.237500X-0.250000X0*%
%ADD19C,0.650000*%
%ADD20RoundRect,0.150000X-0.425000X0.150000X-0.425000X-0.150000X0.425000X-0.150000X0.425000X0.150000X0*%
%ADD21RoundRect,0.075000X-0.500000X0.075000X-0.500000X-0.075000X0.500000X-0.075000X0.500000X0.075000X0*%
%ADD22O,2.100000X1.000000*%
%ADD23O,1.800000X1.000000*%
%ADD24R,1.200000X1.200000*%
%ADD25RoundRect,0.237500X-0.237500X0.300000X-0.237500X-0.300000X0.237500X-0.300000X0.237500X0.300000X0*%
%ADD26RoundRect,0.237500X-0.237500X0.250000X-0.237500X-0.250000X0.237500X-0.250000X0.237500X0.250000X0*%
%ADD27RoundRect,0.237500X0.237500X-0.300000X0.237500X0.300000X-0.237500X0.300000X-0.237500X-0.300000X0*%
%ADD28RoundRect,0.150000X-0.150000X0.587500X-0.150000X-0.587500X0.150000X-0.587500X0.150000X0.587500X0*%
%ADD29RoundRect,0.237500X-0.250000X-0.237500X0.250000X-0.237500X0.250000X0.237500X-0.250000X0.237500X0*%
%ADD30RoundRect,0.237500X-0.237500X0.287500X-0.237500X-0.287500X0.237500X-0.287500X0.237500X0.287500X0*%
%ADD31RoundRect,0.237500X0.300000X0.237500X-0.300000X0.237500X-0.300000X-0.237500X0.300000X-0.237500X0*%
%ADD32C,0.700000*%
%ADD33C,4.400000*%
%ADD34RoundRect,0.237500X-0.300000X-0.237500X0.300000X-0.237500X0.300000X0.237500X-0.300000X0.237500X0*%
%ADD35RoundRect,0.237500X0.250000X0.237500X-0.250000X0.237500X-0.250000X-0.237500X0.250000X-0.237500X0*%
%ADD36RoundRect,0.250000X-0.350000X-0.450000X0.350000X-0.450000X0.350000X0.450000X-0.350000X0.450000X0*%
%ADD37RoundRect,0.102000X-0.350000X0.600000X-0.350000X-0.600000X0.350000X-0.600000X0.350000X0.600000X0*%
%ADD38RoundRect,0.102000X0.200000X-0.240000X0.200000X0.240000X-0.200000X0.240000X-0.200000X-0.240000X0*%
%ADD39RoundRect,0.100500X0.301500X-0.986500X0.301500X0.986500X-0.301500X0.986500X-0.301500X-0.986500X0*%
%ADD40RoundRect,0.059250X-0.177750X0.602750X-0.177750X-0.602750X0.177750X-0.602750X0.177750X0.602750X0*%
%ADD41RoundRect,0.150000X-0.587500X-0.150000X0.587500X-0.150000X0.587500X0.150000X-0.587500X0.150000X0*%
%ADD42R,1.700000X1.700000*%
%ADD43O,1.700000X1.700000*%
%ADD44R,0.850000X1.600000*%
%ADD45RoundRect,0.100500X-0.986500X-0.301500X0.986500X-0.301500X0.986500X0.301500X-0.986500X0.301500X0*%
%ADD46RoundRect,0.102000X-0.750000X-0.450000X0.750000X-0.450000X0.750000X0.450000X-0.750000X0.450000X0*%
%ADD47RoundRect,0.102000X-0.450000X-0.750000X0.450000X-0.750000X0.450000X0.750000X-0.450000X0.750000X0*%
%ADD48RoundRect,0.102000X-0.450000X-0.450000X0.450000X-0.450000X0.450000X0.450000X-0.450000X0.450000X0*%
%ADD49RoundRect,0.102000X-0.200000X0.240000X-0.200000X-0.240000X0.200000X-0.240000X0.200000X0.240000X0*%
%ADD50RoundRect,0.102000X-0.525000X-0.325000X0.525000X-0.325000X0.525000X0.325000X-0.525000X0.325000X0*%
%ADD51RoundRect,0.100500X-0.301500X0.986500X-0.301500X-0.986500X0.301500X-0.986500X0.301500X0.986500X0*%
%ADD52RoundRect,0.102000X-1.650000X1.205000X-1.650000X-1.205000X1.650000X-1.205000X1.650000X1.205000X0*%
%ADD53RoundRect,0.102000X-1.075000X-2.750000X1.075000X-2.750000X1.075000X2.750000X-1.075000X2.750000X0*%
%ADD54R,2.200000X2.200000*%
%ADD55C,2.200000*%
%ADD56FreePoly0,180.000000*%
%ADD57R,1.000000X1.500000*%
%ADD58FreePoly1,180.000000*%
%ADD59RoundRect,0.081750X0.265250X0.245250X-0.265250X0.245250X-0.265250X-0.245250X0.265250X-0.245250X0*%
%ADD60RoundRect,0.250000X0.350000X0.450000X-0.350000X0.450000X-0.350000X-0.450000X0.350000X-0.450000X0*%
G04 APERTURE END LIST*
D10*
X90591541Y-35819819D02*
X91210588Y-35819819D01*
X91210588Y-35819819D02*
X90877255Y-36200771D01*
X90877255Y-36200771D02*
X91020112Y-36200771D01*
X91020112Y-36200771D02*
X91115350Y-36248390D01*
X91115350Y-36248390D02*
X91162969Y-36296009D01*
X91162969Y-36296009D02*
X91210588Y-36391247D01*
X91210588Y-36391247D02*
X91210588Y-36629342D01*
X91210588Y-36629342D02*
X91162969Y-36724580D01*
X91162969Y-36724580D02*
X91115350Y-36772200D01*
X91115350Y-36772200D02*
X91020112Y-36819819D01*
X91020112Y-36819819D02*
X90734398Y-36819819D01*
X90734398Y-36819819D02*
X90639160Y-36772200D01*
X90639160Y-36772200D02*
X90591541Y-36724580D01*
X91496303Y-35819819D02*
X91829636Y-36819819D01*
X91829636Y-36819819D02*
X92162969Y-35819819D01*
X92401065Y-35819819D02*
X93020112Y-35819819D01*
X93020112Y-35819819D02*
X92686779Y-36200771D01*
X92686779Y-36200771D02*
X92829636Y-36200771D01*
X92829636Y-36200771D02*
X92924874Y-36248390D01*
X92924874Y-36248390D02*
X92972493Y-36296009D01*
X92972493Y-36296009D02*
X93020112Y-36391247D01*
X93020112Y-36391247D02*
X93020112Y-36629342D01*
X93020112Y-36629342D02*
X92972493Y-36724580D01*
X92972493Y-36724580D02*
X92924874Y-36772200D01*
X92924874Y-36772200D02*
X92829636Y-36819819D01*
X92829636Y-36819819D02*
X92543922Y-36819819D01*
X92543922Y-36819819D02*
X92448684Y-36772200D01*
X92448684Y-36772200D02*
X92401065Y-36724580D01*
D11*
X63147673Y-58577409D02*
X63481006Y-58577409D01*
X63623863Y-59101219D02*
X63147673Y-59101219D01*
X63147673Y-59101219D02*
X63147673Y-58101219D01*
X63147673Y-58101219D02*
X63623863Y-58101219D01*
X63957197Y-59101219D02*
X64481006Y-58434552D01*
X63957197Y-58434552D02*
X64481006Y-59101219D01*
X64861959Y-58434552D02*
X64861959Y-59434552D01*
X64861959Y-58482171D02*
X64957197Y-58434552D01*
X64957197Y-58434552D02*
X65147673Y-58434552D01*
X65147673Y-58434552D02*
X65242911Y-58482171D01*
X65242911Y-58482171D02*
X65290530Y-58529790D01*
X65290530Y-58529790D02*
X65338149Y-58625028D01*
X65338149Y-58625028D02*
X65338149Y-58910742D01*
X65338149Y-58910742D02*
X65290530Y-59005980D01*
X65290530Y-59005980D02*
X65242911Y-59053600D01*
X65242911Y-59053600D02*
X65147673Y-59101219D01*
X65147673Y-59101219D02*
X64957197Y-59101219D01*
X64957197Y-59101219D02*
X64861959Y-59053600D01*
X66195292Y-59101219D02*
X66195292Y-58577409D01*
X66195292Y-58577409D02*
X66147673Y-58482171D01*
X66147673Y-58482171D02*
X66052435Y-58434552D01*
X66052435Y-58434552D02*
X65861959Y-58434552D01*
X65861959Y-58434552D02*
X65766721Y-58482171D01*
X66195292Y-59053600D02*
X66100054Y-59101219D01*
X66100054Y-59101219D02*
X65861959Y-59101219D01*
X65861959Y-59101219D02*
X65766721Y-59053600D01*
X65766721Y-59053600D02*
X65719102Y-58958361D01*
X65719102Y-58958361D02*
X65719102Y-58863123D01*
X65719102Y-58863123D02*
X65766721Y-58767885D01*
X65766721Y-58767885D02*
X65861959Y-58720266D01*
X65861959Y-58720266D02*
X66100054Y-58720266D01*
X66100054Y-58720266D02*
X66195292Y-58672647D01*
X66671483Y-58434552D02*
X66671483Y-59101219D01*
X66671483Y-58529790D02*
X66719102Y-58482171D01*
X66719102Y-58482171D02*
X66814340Y-58434552D01*
X66814340Y-58434552D02*
X66957197Y-58434552D01*
X66957197Y-58434552D02*
X67052435Y-58482171D01*
X67052435Y-58482171D02*
X67100054Y-58577409D01*
X67100054Y-58577409D02*
X67100054Y-59101219D01*
X68004816Y-59101219D02*
X68004816Y-58101219D01*
X68004816Y-59053600D02*
X67909578Y-59101219D01*
X67909578Y-59101219D02*
X67719102Y-59101219D01*
X67719102Y-59101219D02*
X67623864Y-59053600D01*
X67623864Y-59053600D02*
X67576245Y-59005980D01*
X67576245Y-59005980D02*
X67528626Y-58910742D01*
X67528626Y-58910742D02*
X67528626Y-58625028D01*
X67528626Y-58625028D02*
X67576245Y-58529790D01*
X67576245Y-58529790D02*
X67623864Y-58482171D01*
X67623864Y-58482171D02*
X67719102Y-58434552D01*
X67719102Y-58434552D02*
X67909578Y-58434552D01*
X67909578Y-58434552D02*
X68004816Y-58482171D01*
X68861959Y-59053600D02*
X68766721Y-59101219D01*
X68766721Y-59101219D02*
X68576245Y-59101219D01*
X68576245Y-59101219D02*
X68481007Y-59053600D01*
X68481007Y-59053600D02*
X68433388Y-58958361D01*
X68433388Y-58958361D02*
X68433388Y-58577409D01*
X68433388Y-58577409D02*
X68481007Y-58482171D01*
X68481007Y-58482171D02*
X68576245Y-58434552D01*
X68576245Y-58434552D02*
X68766721Y-58434552D01*
X68766721Y-58434552D02*
X68861959Y-58482171D01*
X68861959Y-58482171D02*
X68909578Y-58577409D01*
X68909578Y-58577409D02*
X68909578Y-58672647D01*
X68909578Y-58672647D02*
X68433388Y-58767885D01*
X69338150Y-59101219D02*
X69338150Y-58434552D01*
X69338150Y-58625028D02*
X69385769Y-58529790D01*
X69385769Y-58529790D02*
X69433388Y-58482171D01*
X69433388Y-58482171D02*
X69528626Y-58434552D01*
X69528626Y-58434552D02*
X69623864Y-58434552D01*
X70719103Y-59101219D02*
X70719103Y-58101219D01*
X70719103Y-58101219D02*
X71052436Y-58815504D01*
X71052436Y-58815504D02*
X71385769Y-58101219D01*
X71385769Y-58101219D02*
X71385769Y-59101219D01*
X72004817Y-59101219D02*
X71909579Y-59053600D01*
X71909579Y-59053600D02*
X71861960Y-59005980D01*
X71861960Y-59005980D02*
X71814341Y-58910742D01*
X71814341Y-58910742D02*
X71814341Y-58625028D01*
X71814341Y-58625028D02*
X71861960Y-58529790D01*
X71861960Y-58529790D02*
X71909579Y-58482171D01*
X71909579Y-58482171D02*
X72004817Y-58434552D01*
X72004817Y-58434552D02*
X72147674Y-58434552D01*
X72147674Y-58434552D02*
X72242912Y-58482171D01*
X72242912Y-58482171D02*
X72290531Y-58529790D01*
X72290531Y-58529790D02*
X72338150Y-58625028D01*
X72338150Y-58625028D02*
X72338150Y-58910742D01*
X72338150Y-58910742D02*
X72290531Y-59005980D01*
X72290531Y-59005980D02*
X72242912Y-59053600D01*
X72242912Y-59053600D02*
X72147674Y-59101219D01*
X72147674Y-59101219D02*
X72004817Y-59101219D01*
X73195293Y-59101219D02*
X73195293Y-58101219D01*
X73195293Y-59053600D02*
X73100055Y-59101219D01*
X73100055Y-59101219D02*
X72909579Y-59101219D01*
X72909579Y-59101219D02*
X72814341Y-59053600D01*
X72814341Y-59053600D02*
X72766722Y-59005980D01*
X72766722Y-59005980D02*
X72719103Y-58910742D01*
X72719103Y-58910742D02*
X72719103Y-58625028D01*
X72719103Y-58625028D02*
X72766722Y-58529790D01*
X72766722Y-58529790D02*
X72814341Y-58482171D01*
X72814341Y-58482171D02*
X72909579Y-58434552D01*
X72909579Y-58434552D02*
X73100055Y-58434552D01*
X73100055Y-58434552D02*
X73195293Y-58482171D01*
X74100055Y-58434552D02*
X74100055Y-59101219D01*
X73671484Y-58434552D02*
X73671484Y-58958361D01*
X73671484Y-58958361D02*
X73719103Y-59053600D01*
X73719103Y-59053600D02*
X73814341Y-59101219D01*
X73814341Y-59101219D02*
X73957198Y-59101219D01*
X73957198Y-59101219D02*
X74052436Y-59053600D01*
X74052436Y-59053600D02*
X74100055Y-59005980D01*
X74719103Y-59101219D02*
X74623865Y-59053600D01*
X74623865Y-59053600D02*
X74576246Y-58958361D01*
X74576246Y-58958361D02*
X74576246Y-58101219D01*
X75481008Y-59053600D02*
X75385770Y-59101219D01*
X75385770Y-59101219D02*
X75195294Y-59101219D01*
X75195294Y-59101219D02*
X75100056Y-59053600D01*
X75100056Y-59053600D02*
X75052437Y-58958361D01*
X75052437Y-58958361D02*
X75052437Y-58577409D01*
X75052437Y-58577409D02*
X75100056Y-58482171D01*
X75100056Y-58482171D02*
X75195294Y-58434552D01*
X75195294Y-58434552D02*
X75385770Y-58434552D01*
X75385770Y-58434552D02*
X75481008Y-58482171D01*
X75481008Y-58482171D02*
X75528627Y-58577409D01*
X75528627Y-58577409D02*
X75528627Y-58672647D01*
X75528627Y-58672647D02*
X75052437Y-58767885D01*
X76671485Y-58196457D02*
X76719104Y-58148838D01*
X76719104Y-58148838D02*
X76814342Y-58101219D01*
X76814342Y-58101219D02*
X77052437Y-58101219D01*
X77052437Y-58101219D02*
X77147675Y-58148838D01*
X77147675Y-58148838D02*
X77195294Y-58196457D01*
X77195294Y-58196457D02*
X77242913Y-58291695D01*
X77242913Y-58291695D02*
X77242913Y-58386933D01*
X77242913Y-58386933D02*
X77195294Y-58529790D01*
X77195294Y-58529790D02*
X76623866Y-59101219D01*
X76623866Y-59101219D02*
X77242913Y-59101219D01*
X63147673Y-63403409D02*
X63481006Y-63403409D01*
X63623863Y-63927219D02*
X63147673Y-63927219D01*
X63147673Y-63927219D02*
X63147673Y-62927219D01*
X63147673Y-62927219D02*
X63623863Y-62927219D01*
X63957197Y-63927219D02*
X64481006Y-63260552D01*
X63957197Y-63260552D02*
X64481006Y-63927219D01*
X64861959Y-63260552D02*
X64861959Y-64260552D01*
X64861959Y-63308171D02*
X64957197Y-63260552D01*
X64957197Y-63260552D02*
X65147673Y-63260552D01*
X65147673Y-63260552D02*
X65242911Y-63308171D01*
X65242911Y-63308171D02*
X65290530Y-63355790D01*
X65290530Y-63355790D02*
X65338149Y-63451028D01*
X65338149Y-63451028D02*
X65338149Y-63736742D01*
X65338149Y-63736742D02*
X65290530Y-63831980D01*
X65290530Y-63831980D02*
X65242911Y-63879600D01*
X65242911Y-63879600D02*
X65147673Y-63927219D01*
X65147673Y-63927219D02*
X64957197Y-63927219D01*
X64957197Y-63927219D02*
X64861959Y-63879600D01*
X66195292Y-63927219D02*
X66195292Y-63403409D01*
X66195292Y-63403409D02*
X66147673Y-63308171D01*
X66147673Y-63308171D02*
X66052435Y-63260552D01*
X66052435Y-63260552D02*
X65861959Y-63260552D01*
X65861959Y-63260552D02*
X65766721Y-63308171D01*
X66195292Y-63879600D02*
X66100054Y-63927219D01*
X66100054Y-63927219D02*
X65861959Y-63927219D01*
X65861959Y-63927219D02*
X65766721Y-63879600D01*
X65766721Y-63879600D02*
X65719102Y-63784361D01*
X65719102Y-63784361D02*
X65719102Y-63689123D01*
X65719102Y-63689123D02*
X65766721Y-63593885D01*
X65766721Y-63593885D02*
X65861959Y-63546266D01*
X65861959Y-63546266D02*
X66100054Y-63546266D01*
X66100054Y-63546266D02*
X66195292Y-63498647D01*
X66671483Y-63260552D02*
X66671483Y-63927219D01*
X66671483Y-63355790D02*
X66719102Y-63308171D01*
X66719102Y-63308171D02*
X66814340Y-63260552D01*
X66814340Y-63260552D02*
X66957197Y-63260552D01*
X66957197Y-63260552D02*
X67052435Y-63308171D01*
X67052435Y-63308171D02*
X67100054Y-63403409D01*
X67100054Y-63403409D02*
X67100054Y-63927219D01*
X68004816Y-63927219D02*
X68004816Y-62927219D01*
X68004816Y-63879600D02*
X67909578Y-63927219D01*
X67909578Y-63927219D02*
X67719102Y-63927219D01*
X67719102Y-63927219D02*
X67623864Y-63879600D01*
X67623864Y-63879600D02*
X67576245Y-63831980D01*
X67576245Y-63831980D02*
X67528626Y-63736742D01*
X67528626Y-63736742D02*
X67528626Y-63451028D01*
X67528626Y-63451028D02*
X67576245Y-63355790D01*
X67576245Y-63355790D02*
X67623864Y-63308171D01*
X67623864Y-63308171D02*
X67719102Y-63260552D01*
X67719102Y-63260552D02*
X67909578Y-63260552D01*
X67909578Y-63260552D02*
X68004816Y-63308171D01*
X68861959Y-63879600D02*
X68766721Y-63927219D01*
X68766721Y-63927219D02*
X68576245Y-63927219D01*
X68576245Y-63927219D02*
X68481007Y-63879600D01*
X68481007Y-63879600D02*
X68433388Y-63784361D01*
X68433388Y-63784361D02*
X68433388Y-63403409D01*
X68433388Y-63403409D02*
X68481007Y-63308171D01*
X68481007Y-63308171D02*
X68576245Y-63260552D01*
X68576245Y-63260552D02*
X68766721Y-63260552D01*
X68766721Y-63260552D02*
X68861959Y-63308171D01*
X68861959Y-63308171D02*
X68909578Y-63403409D01*
X68909578Y-63403409D02*
X68909578Y-63498647D01*
X68909578Y-63498647D02*
X68433388Y-63593885D01*
X69338150Y-63927219D02*
X69338150Y-63260552D01*
X69338150Y-63451028D02*
X69385769Y-63355790D01*
X69385769Y-63355790D02*
X69433388Y-63308171D01*
X69433388Y-63308171D02*
X69528626Y-63260552D01*
X69528626Y-63260552D02*
X69623864Y-63260552D01*
X70719103Y-63927219D02*
X70719103Y-62927219D01*
X70719103Y-62927219D02*
X71052436Y-63641504D01*
X71052436Y-63641504D02*
X71385769Y-62927219D01*
X71385769Y-62927219D02*
X71385769Y-63927219D01*
X72004817Y-63927219D02*
X71909579Y-63879600D01*
X71909579Y-63879600D02*
X71861960Y-63831980D01*
X71861960Y-63831980D02*
X71814341Y-63736742D01*
X71814341Y-63736742D02*
X71814341Y-63451028D01*
X71814341Y-63451028D02*
X71861960Y-63355790D01*
X71861960Y-63355790D02*
X71909579Y-63308171D01*
X71909579Y-63308171D02*
X72004817Y-63260552D01*
X72004817Y-63260552D02*
X72147674Y-63260552D01*
X72147674Y-63260552D02*
X72242912Y-63308171D01*
X72242912Y-63308171D02*
X72290531Y-63355790D01*
X72290531Y-63355790D02*
X72338150Y-63451028D01*
X72338150Y-63451028D02*
X72338150Y-63736742D01*
X72338150Y-63736742D02*
X72290531Y-63831980D01*
X72290531Y-63831980D02*
X72242912Y-63879600D01*
X72242912Y-63879600D02*
X72147674Y-63927219D01*
X72147674Y-63927219D02*
X72004817Y-63927219D01*
X73195293Y-63927219D02*
X73195293Y-62927219D01*
X73195293Y-63879600D02*
X73100055Y-63927219D01*
X73100055Y-63927219D02*
X72909579Y-63927219D01*
X72909579Y-63927219D02*
X72814341Y-63879600D01*
X72814341Y-63879600D02*
X72766722Y-63831980D01*
X72766722Y-63831980D02*
X72719103Y-63736742D01*
X72719103Y-63736742D02*
X72719103Y-63451028D01*
X72719103Y-63451028D02*
X72766722Y-63355790D01*
X72766722Y-63355790D02*
X72814341Y-63308171D01*
X72814341Y-63308171D02*
X72909579Y-63260552D01*
X72909579Y-63260552D02*
X73100055Y-63260552D01*
X73100055Y-63260552D02*
X73195293Y-63308171D01*
X74100055Y-63260552D02*
X74100055Y-63927219D01*
X73671484Y-63260552D02*
X73671484Y-63784361D01*
X73671484Y-63784361D02*
X73719103Y-63879600D01*
X73719103Y-63879600D02*
X73814341Y-63927219D01*
X73814341Y-63927219D02*
X73957198Y-63927219D01*
X73957198Y-63927219D02*
X74052436Y-63879600D01*
X74052436Y-63879600D02*
X74100055Y-63831980D01*
X74719103Y-63927219D02*
X74623865Y-63879600D01*
X74623865Y-63879600D02*
X74576246Y-63784361D01*
X74576246Y-63784361D02*
X74576246Y-62927219D01*
X75481008Y-63879600D02*
X75385770Y-63927219D01*
X75385770Y-63927219D02*
X75195294Y-63927219D01*
X75195294Y-63927219D02*
X75100056Y-63879600D01*
X75100056Y-63879600D02*
X75052437Y-63784361D01*
X75052437Y-63784361D02*
X75052437Y-63403409D01*
X75052437Y-63403409D02*
X75100056Y-63308171D01*
X75100056Y-63308171D02*
X75195294Y-63260552D01*
X75195294Y-63260552D02*
X75385770Y-63260552D01*
X75385770Y-63260552D02*
X75481008Y-63308171D01*
X75481008Y-63308171D02*
X75528627Y-63403409D01*
X75528627Y-63403409D02*
X75528627Y-63498647D01*
X75528627Y-63498647D02*
X75052437Y-63593885D01*
X77242913Y-63927219D02*
X76671485Y-63927219D01*
X76957199Y-63927219D02*
X76957199Y-62927219D01*
X76957199Y-62927219D02*
X76861961Y-63070076D01*
X76861961Y-63070076D02*
X76766723Y-63165314D01*
X76766723Y-63165314D02*
X76671485Y-63212933D01*
D10*
X93910588Y-35817438D02*
X93815350Y-35769819D01*
X93815350Y-35769819D02*
X93672493Y-35769819D01*
X93672493Y-35769819D02*
X93529636Y-35817438D01*
X93529636Y-35817438D02*
X93434398Y-35912676D01*
X93434398Y-35912676D02*
X93386779Y-36007914D01*
X93386779Y-36007914D02*
X93339160Y-36198390D01*
X93339160Y-36198390D02*
X93339160Y-36341247D01*
X93339160Y-36341247D02*
X93386779Y-36531723D01*
X93386779Y-36531723D02*
X93434398Y-36626961D01*
X93434398Y-36626961D02*
X93529636Y-36722200D01*
X93529636Y-36722200D02*
X93672493Y-36769819D01*
X93672493Y-36769819D02*
X93767731Y-36769819D01*
X93767731Y-36769819D02*
X93910588Y-36722200D01*
X93910588Y-36722200D02*
X93958207Y-36674580D01*
X93958207Y-36674580D02*
X93958207Y-36341247D01*
X93958207Y-36341247D02*
X93767731Y-36341247D01*
X94386779Y-36769819D02*
X94386779Y-35769819D01*
X94386779Y-35769819D02*
X94958207Y-36769819D01*
X94958207Y-36769819D02*
X94958207Y-35769819D01*
X95434398Y-36769819D02*
X95434398Y-35769819D01*
X95434398Y-35769819D02*
X95672493Y-35769819D01*
X95672493Y-35769819D02*
X95815350Y-35817438D01*
X95815350Y-35817438D02*
X95910588Y-35912676D01*
X95910588Y-35912676D02*
X95958207Y-36007914D01*
X95958207Y-36007914D02*
X96005826Y-36198390D01*
X96005826Y-36198390D02*
X96005826Y-36341247D01*
X96005826Y-36341247D02*
X95958207Y-36531723D01*
X95958207Y-36531723D02*
X95910588Y-36626961D01*
X95910588Y-36626961D02*
X95815350Y-36722200D01*
X95815350Y-36722200D02*
X95672493Y-36769819D01*
X95672493Y-36769819D02*
X95434398Y-36769819D01*
D12*
X98224119Y-36291759D02*
X98176500Y-36244140D01*
X98176500Y-36244140D02*
X98128880Y-36101283D01*
X98128880Y-36101283D02*
X98128880Y-36006045D01*
X98128880Y-36006045D02*
X98176500Y-35863188D01*
X98176500Y-35863188D02*
X98271738Y-35767950D01*
X98271738Y-35767950D02*
X98366976Y-35720331D01*
X98366976Y-35720331D02*
X98557452Y-35672712D01*
X98557452Y-35672712D02*
X98700309Y-35672712D01*
X98700309Y-35672712D02*
X98890785Y-35720331D01*
X98890785Y-35720331D02*
X98986023Y-35767950D01*
X98986023Y-35767950D02*
X99081261Y-35863188D01*
X99081261Y-35863188D02*
X99128880Y-36006045D01*
X99128880Y-36006045D02*
X99128880Y-36101283D01*
X99128880Y-36101283D02*
X99081261Y-36244140D01*
X99081261Y-36244140D02*
X99033642Y-36291759D01*
X98414595Y-36672712D02*
X98414595Y-37148902D01*
X98128880Y-36577474D02*
X99128880Y-36910807D01*
X99128880Y-36910807D02*
X98128880Y-37244140D01*
X98128880Y-37577474D02*
X99128880Y-37577474D01*
X99128880Y-37577474D02*
X98128880Y-38148902D01*
X98128880Y-38148902D02*
X99128880Y-38148902D01*
X98509833Y-38625093D02*
X98509833Y-39386998D01*
X98128880Y-39006045D02*
X98890785Y-39006045D01*
D10*
X89262969Y-35819819D02*
X88786779Y-35819819D01*
X88786779Y-35819819D02*
X88739160Y-36296009D01*
X88739160Y-36296009D02*
X88786779Y-36248390D01*
X88786779Y-36248390D02*
X88882017Y-36200771D01*
X88882017Y-36200771D02*
X89120112Y-36200771D01*
X89120112Y-36200771D02*
X89215350Y-36248390D01*
X89215350Y-36248390D02*
X89262969Y-36296009D01*
X89262969Y-36296009D02*
X89310588Y-36391247D01*
X89310588Y-36391247D02*
X89310588Y-36629342D01*
X89310588Y-36629342D02*
X89262969Y-36724580D01*
X89262969Y-36724580D02*
X89215350Y-36772200D01*
X89215350Y-36772200D02*
X89120112Y-36819819D01*
X89120112Y-36819819D02*
X88882017Y-36819819D01*
X88882017Y-36819819D02*
X88786779Y-36772200D01*
X88786779Y-36772200D02*
X88739160Y-36724580D01*
X89596303Y-35819819D02*
X89929636Y-36819819D01*
X89929636Y-36819819D02*
X90262969Y-35819819D01*
D12*
X100674119Y-36241759D02*
X100626500Y-36194140D01*
X100626500Y-36194140D02*
X100578880Y-36051283D01*
X100578880Y-36051283D02*
X100578880Y-35956045D01*
X100578880Y-35956045D02*
X100626500Y-35813188D01*
X100626500Y-35813188D02*
X100721738Y-35717950D01*
X100721738Y-35717950D02*
X100816976Y-35670331D01*
X100816976Y-35670331D02*
X101007452Y-35622712D01*
X101007452Y-35622712D02*
X101150309Y-35622712D01*
X101150309Y-35622712D02*
X101340785Y-35670331D01*
X101340785Y-35670331D02*
X101436023Y-35717950D01*
X101436023Y-35717950D02*
X101531261Y-35813188D01*
X101531261Y-35813188D02*
X101578880Y-35956045D01*
X101578880Y-35956045D02*
X101578880Y-36051283D01*
X101578880Y-36051283D02*
X101531261Y-36194140D01*
X101531261Y-36194140D02*
X101483642Y-36241759D01*
X100864595Y-36622712D02*
X100864595Y-37098902D01*
X100578880Y-36527474D02*
X101578880Y-36860807D01*
X101578880Y-36860807D02*
X100578880Y-37194140D01*
X100578880Y-37527474D02*
X101578880Y-37527474D01*
X101578880Y-37527474D02*
X100578880Y-38098902D01*
X100578880Y-38098902D02*
X101578880Y-38098902D01*
X100959833Y-38575093D02*
X100959833Y-39336998D01*
D13*
X60322996Y-30269619D02*
X59989663Y-29793428D01*
X59751568Y-30269619D02*
X59751568Y-29269619D01*
X59751568Y-29269619D02*
X60132520Y-29269619D01*
X60132520Y-29269619D02*
X60227758Y-29317238D01*
X60227758Y-29317238D02*
X60275377Y-29364857D01*
X60275377Y-29364857D02*
X60322996Y-29460095D01*
X60322996Y-29460095D02*
X60322996Y-29602952D01*
X60322996Y-29602952D02*
X60275377Y-29698190D01*
X60275377Y-29698190D02*
X60227758Y-29745809D01*
X60227758Y-29745809D02*
X60132520Y-29793428D01*
X60132520Y-29793428D02*
X59751568Y-29793428D01*
X60751568Y-29745809D02*
X61084901Y-29745809D01*
X61227758Y-30269619D02*
X60751568Y-30269619D01*
X60751568Y-30269619D02*
X60751568Y-29269619D01*
X60751568Y-29269619D02*
X61227758Y-29269619D01*
X61608711Y-30222000D02*
X61751568Y-30269619D01*
X61751568Y-30269619D02*
X61989663Y-30269619D01*
X61989663Y-30269619D02*
X62084901Y-30222000D01*
X62084901Y-30222000D02*
X62132520Y-30174380D01*
X62132520Y-30174380D02*
X62180139Y-30079142D01*
X62180139Y-30079142D02*
X62180139Y-29983904D01*
X62180139Y-29983904D02*
X62132520Y-29888666D01*
X62132520Y-29888666D02*
X62084901Y-29841047D01*
X62084901Y-29841047D02*
X61989663Y-29793428D01*
X61989663Y-29793428D02*
X61799187Y-29745809D01*
X61799187Y-29745809D02*
X61703949Y-29698190D01*
X61703949Y-29698190D02*
X61656330Y-29650571D01*
X61656330Y-29650571D02*
X61608711Y-29555333D01*
X61608711Y-29555333D02*
X61608711Y-29460095D01*
X61608711Y-29460095D02*
X61656330Y-29364857D01*
X61656330Y-29364857D02*
X61703949Y-29317238D01*
X61703949Y-29317238D02*
X61799187Y-29269619D01*
X61799187Y-29269619D02*
X62037282Y-29269619D01*
X62037282Y-29269619D02*
X62180139Y-29317238D01*
X62608711Y-29745809D02*
X62942044Y-29745809D01*
X63084901Y-30269619D02*
X62608711Y-30269619D01*
X62608711Y-30269619D02*
X62608711Y-29269619D01*
X62608711Y-29269619D02*
X63084901Y-29269619D01*
X63370616Y-29269619D02*
X63942044Y-29269619D01*
X63656330Y-30269619D02*
X63656330Y-29269619D01*
X74181901Y-29872809D02*
X74324758Y-29920428D01*
X74324758Y-29920428D02*
X74372377Y-29968047D01*
X74372377Y-29968047D02*
X74419996Y-30063285D01*
X74419996Y-30063285D02*
X74419996Y-30206142D01*
X74419996Y-30206142D02*
X74372377Y-30301380D01*
X74372377Y-30301380D02*
X74324758Y-30349000D01*
X74324758Y-30349000D02*
X74229520Y-30396619D01*
X74229520Y-30396619D02*
X73848568Y-30396619D01*
X73848568Y-30396619D02*
X73848568Y-29396619D01*
X73848568Y-29396619D02*
X74181901Y-29396619D01*
X74181901Y-29396619D02*
X74277139Y-29444238D01*
X74277139Y-29444238D02*
X74324758Y-29491857D01*
X74324758Y-29491857D02*
X74372377Y-29587095D01*
X74372377Y-29587095D02*
X74372377Y-29682333D01*
X74372377Y-29682333D02*
X74324758Y-29777571D01*
X74324758Y-29777571D02*
X74277139Y-29825190D01*
X74277139Y-29825190D02*
X74181901Y-29872809D01*
X74181901Y-29872809D02*
X73848568Y-29872809D01*
X75039044Y-29396619D02*
X75229520Y-29396619D01*
X75229520Y-29396619D02*
X75324758Y-29444238D01*
X75324758Y-29444238D02*
X75419996Y-29539476D01*
X75419996Y-29539476D02*
X75467615Y-29729952D01*
X75467615Y-29729952D02*
X75467615Y-30063285D01*
X75467615Y-30063285D02*
X75419996Y-30253761D01*
X75419996Y-30253761D02*
X75324758Y-30349000D01*
X75324758Y-30349000D02*
X75229520Y-30396619D01*
X75229520Y-30396619D02*
X75039044Y-30396619D01*
X75039044Y-30396619D02*
X74943806Y-30349000D01*
X74943806Y-30349000D02*
X74848568Y-30253761D01*
X74848568Y-30253761D02*
X74800949Y-30063285D01*
X74800949Y-30063285D02*
X74800949Y-29729952D01*
X74800949Y-29729952D02*
X74848568Y-29539476D01*
X74848568Y-29539476D02*
X74943806Y-29444238D01*
X74943806Y-29444238D02*
X75039044Y-29396619D01*
X76086663Y-29396619D02*
X76277139Y-29396619D01*
X76277139Y-29396619D02*
X76372377Y-29444238D01*
X76372377Y-29444238D02*
X76467615Y-29539476D01*
X76467615Y-29539476D02*
X76515234Y-29729952D01*
X76515234Y-29729952D02*
X76515234Y-30063285D01*
X76515234Y-30063285D02*
X76467615Y-30253761D01*
X76467615Y-30253761D02*
X76372377Y-30349000D01*
X76372377Y-30349000D02*
X76277139Y-30396619D01*
X76277139Y-30396619D02*
X76086663Y-30396619D01*
X76086663Y-30396619D02*
X75991425Y-30349000D01*
X75991425Y-30349000D02*
X75896187Y-30253761D01*
X75896187Y-30253761D02*
X75848568Y-30063285D01*
X75848568Y-30063285D02*
X75848568Y-29729952D01*
X75848568Y-29729952D02*
X75896187Y-29539476D01*
X75896187Y-29539476D02*
X75991425Y-29444238D01*
X75991425Y-29444238D02*
X76086663Y-29396619D01*
X76800949Y-29396619D02*
X77372377Y-29396619D01*
X77086663Y-30396619D02*
X77086663Y-29396619D01*
D10*
X57128819Y-43916666D02*
X56652628Y-44249999D01*
X57128819Y-44488094D02*
X56128819Y-44488094D01*
X56128819Y-44488094D02*
X56128819Y-44107142D01*
X56128819Y-44107142D02*
X56176438Y-44011904D01*
X56176438Y-44011904D02*
X56224057Y-43964285D01*
X56224057Y-43964285D02*
X56319295Y-43916666D01*
X56319295Y-43916666D02*
X56462152Y-43916666D01*
X56462152Y-43916666D02*
X56557390Y-43964285D01*
X56557390Y-43964285D02*
X56605009Y-44011904D01*
X56605009Y-44011904D02*
X56652628Y-44107142D01*
X56652628Y-44107142D02*
X56652628Y-44488094D01*
X56128819Y-43583332D02*
X56128819Y-42964285D01*
X56128819Y-42964285D02*
X56509771Y-43297618D01*
X56509771Y-43297618D02*
X56509771Y-43154761D01*
X56509771Y-43154761D02*
X56557390Y-43059523D01*
X56557390Y-43059523D02*
X56605009Y-43011904D01*
X56605009Y-43011904D02*
X56700247Y-42964285D01*
X56700247Y-42964285D02*
X56938342Y-42964285D01*
X56938342Y-42964285D02*
X57033580Y-43011904D01*
X57033580Y-43011904D02*
X57081200Y-43059523D01*
X57081200Y-43059523D02*
X57128819Y-43154761D01*
X57128819Y-43154761D02*
X57128819Y-43440475D01*
X57128819Y-43440475D02*
X57081200Y-43535713D01*
X57081200Y-43535713D02*
X57033580Y-43583332D01*
X39333462Y-62179819D02*
X39333462Y-62894104D01*
X39333462Y-62894104D02*
X39285843Y-63036961D01*
X39285843Y-63036961D02*
X39190605Y-63132200D01*
X39190605Y-63132200D02*
X39047748Y-63179819D01*
X39047748Y-63179819D02*
X38952510Y-63179819D01*
X40333462Y-63179819D02*
X39762034Y-63179819D01*
X40047748Y-63179819D02*
X40047748Y-62179819D01*
X40047748Y-62179819D02*
X39952510Y-62322676D01*
X39952510Y-62322676D02*
X39857272Y-62417914D01*
X39857272Y-62417914D02*
X39762034Y-62465533D01*
X45178701Y-51179819D02*
X45178701Y-50179819D01*
X45178701Y-50179819D02*
X45416796Y-50179819D01*
X45416796Y-50179819D02*
X45559653Y-50227438D01*
X45559653Y-50227438D02*
X45654891Y-50322676D01*
X45654891Y-50322676D02*
X45702510Y-50417914D01*
X45702510Y-50417914D02*
X45750129Y-50608390D01*
X45750129Y-50608390D02*
X45750129Y-50751247D01*
X45750129Y-50751247D02*
X45702510Y-50941723D01*
X45702510Y-50941723D02*
X45654891Y-51036961D01*
X45654891Y-51036961D02*
X45559653Y-51132200D01*
X45559653Y-51132200D02*
X45416796Y-51179819D01*
X45416796Y-51179819D02*
X45178701Y-51179819D01*
X46702510Y-51179819D02*
X46131082Y-51179819D01*
X46416796Y-51179819D02*
X46416796Y-50179819D01*
X46416796Y-50179819D02*
X46321558Y-50322676D01*
X46321558Y-50322676D02*
X46226320Y-50417914D01*
X46226320Y-50417914D02*
X46131082Y-50465533D01*
X49601376Y-50716666D02*
X49648996Y-50764285D01*
X49648996Y-50764285D02*
X49696615Y-50907142D01*
X49696615Y-50907142D02*
X49696615Y-51002380D01*
X49696615Y-51002380D02*
X49648996Y-51145237D01*
X49648996Y-51145237D02*
X49553757Y-51240475D01*
X49553757Y-51240475D02*
X49458519Y-51288094D01*
X49458519Y-51288094D02*
X49268043Y-51335713D01*
X49268043Y-51335713D02*
X49125186Y-51335713D01*
X49125186Y-51335713D02*
X48934710Y-51288094D01*
X48934710Y-51288094D02*
X48839472Y-51240475D01*
X48839472Y-51240475D02*
X48744234Y-51145237D01*
X48744234Y-51145237D02*
X48696615Y-51002380D01*
X48696615Y-51002380D02*
X48696615Y-50907142D01*
X48696615Y-50907142D02*
X48744234Y-50764285D01*
X48744234Y-50764285D02*
X48791853Y-50716666D01*
X49696615Y-49764285D02*
X49696615Y-50335713D01*
X49696615Y-50049999D02*
X48696615Y-50049999D01*
X48696615Y-50049999D02*
X48839472Y-50145237D01*
X48839472Y-50145237D02*
X48934710Y-50240475D01*
X48934710Y-50240475D02*
X48982329Y-50335713D01*
X92601580Y-52891857D02*
X92649200Y-52939476D01*
X92649200Y-52939476D02*
X92696819Y-53082333D01*
X92696819Y-53082333D02*
X92696819Y-53177571D01*
X92696819Y-53177571D02*
X92649200Y-53320428D01*
X92649200Y-53320428D02*
X92553961Y-53415666D01*
X92553961Y-53415666D02*
X92458723Y-53463285D01*
X92458723Y-53463285D02*
X92268247Y-53510904D01*
X92268247Y-53510904D02*
X92125390Y-53510904D01*
X92125390Y-53510904D02*
X91934914Y-53463285D01*
X91934914Y-53463285D02*
X91839676Y-53415666D01*
X91839676Y-53415666D02*
X91744438Y-53320428D01*
X91744438Y-53320428D02*
X91696819Y-53177571D01*
X91696819Y-53177571D02*
X91696819Y-53082333D01*
X91696819Y-53082333D02*
X91744438Y-52939476D01*
X91744438Y-52939476D02*
X91792057Y-52891857D01*
X92696819Y-51939476D02*
X92696819Y-52510904D01*
X92696819Y-52225190D02*
X91696819Y-52225190D01*
X91696819Y-52225190D02*
X91839676Y-52320428D01*
X91839676Y-52320428D02*
X91934914Y-52415666D01*
X91934914Y-52415666D02*
X91982533Y-52510904D01*
X91696819Y-51606142D02*
X91696819Y-50939476D01*
X91696819Y-50939476D02*
X92696819Y-51368047D01*
X39765819Y-42920857D02*
X39289628Y-43254190D01*
X39765819Y-43492285D02*
X38765819Y-43492285D01*
X38765819Y-43492285D02*
X38765819Y-43111333D01*
X38765819Y-43111333D02*
X38813438Y-43016095D01*
X38813438Y-43016095D02*
X38861057Y-42968476D01*
X38861057Y-42968476D02*
X38956295Y-42920857D01*
X38956295Y-42920857D02*
X39099152Y-42920857D01*
X39099152Y-42920857D02*
X39194390Y-42968476D01*
X39194390Y-42968476D02*
X39242009Y-43016095D01*
X39242009Y-43016095D02*
X39289628Y-43111333D01*
X39289628Y-43111333D02*
X39289628Y-43492285D01*
X38861057Y-42539904D02*
X38813438Y-42492285D01*
X38813438Y-42492285D02*
X38765819Y-42397047D01*
X38765819Y-42397047D02*
X38765819Y-42158952D01*
X38765819Y-42158952D02*
X38813438Y-42063714D01*
X38813438Y-42063714D02*
X38861057Y-42016095D01*
X38861057Y-42016095D02*
X38956295Y-41968476D01*
X38956295Y-41968476D02*
X39051533Y-41968476D01*
X39051533Y-41968476D02*
X39194390Y-42016095D01*
X39194390Y-42016095D02*
X39765819Y-42587523D01*
X39765819Y-42587523D02*
X39765819Y-41968476D01*
X38765819Y-41349428D02*
X38765819Y-41254190D01*
X38765819Y-41254190D02*
X38813438Y-41158952D01*
X38813438Y-41158952D02*
X38861057Y-41111333D01*
X38861057Y-41111333D02*
X38956295Y-41063714D01*
X38956295Y-41063714D02*
X39146771Y-41016095D01*
X39146771Y-41016095D02*
X39384866Y-41016095D01*
X39384866Y-41016095D02*
X39575342Y-41063714D01*
X39575342Y-41063714D02*
X39670580Y-41111333D01*
X39670580Y-41111333D02*
X39718200Y-41158952D01*
X39718200Y-41158952D02*
X39765819Y-41254190D01*
X39765819Y-41254190D02*
X39765819Y-41349428D01*
X39765819Y-41349428D02*
X39718200Y-41444666D01*
X39718200Y-41444666D02*
X39670580Y-41492285D01*
X39670580Y-41492285D02*
X39575342Y-41539904D01*
X39575342Y-41539904D02*
X39384866Y-41587523D01*
X39384866Y-41587523D02*
X39146771Y-41587523D01*
X39146771Y-41587523D02*
X38956295Y-41539904D01*
X38956295Y-41539904D02*
X38861057Y-41492285D01*
X38861057Y-41492285D02*
X38813438Y-41444666D01*
X38813438Y-41444666D02*
X38765819Y-41349428D01*
X86854819Y-61178666D02*
X86378628Y-61511999D01*
X86854819Y-61750094D02*
X85854819Y-61750094D01*
X85854819Y-61750094D02*
X85854819Y-61369142D01*
X85854819Y-61369142D02*
X85902438Y-61273904D01*
X85902438Y-61273904D02*
X85950057Y-61226285D01*
X85950057Y-61226285D02*
X86045295Y-61178666D01*
X86045295Y-61178666D02*
X86188152Y-61178666D01*
X86188152Y-61178666D02*
X86283390Y-61226285D01*
X86283390Y-61226285D02*
X86331009Y-61273904D01*
X86331009Y-61273904D02*
X86378628Y-61369142D01*
X86378628Y-61369142D02*
X86378628Y-61750094D01*
X86283390Y-60607237D02*
X86235771Y-60702475D01*
X86235771Y-60702475D02*
X86188152Y-60750094D01*
X86188152Y-60750094D02*
X86092914Y-60797713D01*
X86092914Y-60797713D02*
X86045295Y-60797713D01*
X86045295Y-60797713D02*
X85950057Y-60750094D01*
X85950057Y-60750094D02*
X85902438Y-60702475D01*
X85902438Y-60702475D02*
X85854819Y-60607237D01*
X85854819Y-60607237D02*
X85854819Y-60416761D01*
X85854819Y-60416761D02*
X85902438Y-60321523D01*
X85902438Y-60321523D02*
X85950057Y-60273904D01*
X85950057Y-60273904D02*
X86045295Y-60226285D01*
X86045295Y-60226285D02*
X86092914Y-60226285D01*
X86092914Y-60226285D02*
X86188152Y-60273904D01*
X86188152Y-60273904D02*
X86235771Y-60321523D01*
X86235771Y-60321523D02*
X86283390Y-60416761D01*
X86283390Y-60416761D02*
X86283390Y-60607237D01*
X86283390Y-60607237D02*
X86331009Y-60702475D01*
X86331009Y-60702475D02*
X86378628Y-60750094D01*
X86378628Y-60750094D02*
X86473866Y-60797713D01*
X86473866Y-60797713D02*
X86664342Y-60797713D01*
X86664342Y-60797713D02*
X86759580Y-60750094D01*
X86759580Y-60750094D02*
X86807200Y-60702475D01*
X86807200Y-60702475D02*
X86854819Y-60607237D01*
X86854819Y-60607237D02*
X86854819Y-60416761D01*
X86854819Y-60416761D02*
X86807200Y-60321523D01*
X86807200Y-60321523D02*
X86759580Y-60273904D01*
X86759580Y-60273904D02*
X86664342Y-60226285D01*
X86664342Y-60226285D02*
X86473866Y-60226285D01*
X86473866Y-60226285D02*
X86378628Y-60273904D01*
X86378628Y-60273904D02*
X86331009Y-60321523D01*
X86331009Y-60321523D02*
X86283390Y-60416761D01*
X97427580Y-42858857D02*
X97475200Y-42906476D01*
X97475200Y-42906476D02*
X97522819Y-43049333D01*
X97522819Y-43049333D02*
X97522819Y-43144571D01*
X97522819Y-43144571D02*
X97475200Y-43287428D01*
X97475200Y-43287428D02*
X97379961Y-43382666D01*
X97379961Y-43382666D02*
X97284723Y-43430285D01*
X97284723Y-43430285D02*
X97094247Y-43477904D01*
X97094247Y-43477904D02*
X96951390Y-43477904D01*
X96951390Y-43477904D02*
X96760914Y-43430285D01*
X96760914Y-43430285D02*
X96665676Y-43382666D01*
X96665676Y-43382666D02*
X96570438Y-43287428D01*
X96570438Y-43287428D02*
X96522819Y-43144571D01*
X96522819Y-43144571D02*
X96522819Y-43049333D01*
X96522819Y-43049333D02*
X96570438Y-42906476D01*
X96570438Y-42906476D02*
X96618057Y-42858857D01*
X97522819Y-41906476D02*
X97522819Y-42477904D01*
X97522819Y-42192190D02*
X96522819Y-42192190D01*
X96522819Y-42192190D02*
X96665676Y-42287428D01*
X96665676Y-42287428D02*
X96760914Y-42382666D01*
X96760914Y-42382666D02*
X96808533Y-42477904D01*
X96522819Y-41573142D02*
X96522819Y-40954095D01*
X96522819Y-40954095D02*
X96903771Y-41287428D01*
X96903771Y-41287428D02*
X96903771Y-41144571D01*
X96903771Y-41144571D02*
X96951390Y-41049333D01*
X96951390Y-41049333D02*
X96999009Y-41001714D01*
X96999009Y-41001714D02*
X97094247Y-40954095D01*
X97094247Y-40954095D02*
X97332342Y-40954095D01*
X97332342Y-40954095D02*
X97427580Y-41001714D01*
X97427580Y-41001714D02*
X97475200Y-41049333D01*
X97475200Y-41049333D02*
X97522819Y-41144571D01*
X97522819Y-41144571D02*
X97522819Y-41430285D01*
X97522819Y-41430285D02*
X97475200Y-41525523D01*
X97475200Y-41525523D02*
X97427580Y-41573142D01*
X58468580Y-33783166D02*
X58516200Y-33830785D01*
X58516200Y-33830785D02*
X58563819Y-33973642D01*
X58563819Y-33973642D02*
X58563819Y-34068880D01*
X58563819Y-34068880D02*
X58516200Y-34211737D01*
X58516200Y-34211737D02*
X58420961Y-34306975D01*
X58420961Y-34306975D02*
X58325723Y-34354594D01*
X58325723Y-34354594D02*
X58135247Y-34402213D01*
X58135247Y-34402213D02*
X57992390Y-34402213D01*
X57992390Y-34402213D02*
X57801914Y-34354594D01*
X57801914Y-34354594D02*
X57706676Y-34306975D01*
X57706676Y-34306975D02*
X57611438Y-34211737D01*
X57611438Y-34211737D02*
X57563819Y-34068880D01*
X57563819Y-34068880D02*
X57563819Y-33973642D01*
X57563819Y-33973642D02*
X57611438Y-33830785D01*
X57611438Y-33830785D02*
X57659057Y-33783166D01*
X57563819Y-33449832D02*
X57563819Y-32783166D01*
X57563819Y-32783166D02*
X58563819Y-33211737D01*
X54500057Y-64945238D02*
X54452438Y-65040476D01*
X54452438Y-65040476D02*
X54357200Y-65135714D01*
X54357200Y-65135714D02*
X54214342Y-65278571D01*
X54214342Y-65278571D02*
X54166723Y-65373809D01*
X54166723Y-65373809D02*
X54166723Y-65469047D01*
X54404819Y-65421428D02*
X54357200Y-65516666D01*
X54357200Y-65516666D02*
X54261961Y-65611904D01*
X54261961Y-65611904D02*
X54071485Y-65659523D01*
X54071485Y-65659523D02*
X53738152Y-65659523D01*
X53738152Y-65659523D02*
X53547676Y-65611904D01*
X53547676Y-65611904D02*
X53452438Y-65516666D01*
X53452438Y-65516666D02*
X53404819Y-65421428D01*
X53404819Y-65421428D02*
X53404819Y-65230952D01*
X53404819Y-65230952D02*
X53452438Y-65135714D01*
X53452438Y-65135714D02*
X53547676Y-65040476D01*
X53547676Y-65040476D02*
X53738152Y-64992857D01*
X53738152Y-64992857D02*
X54071485Y-64992857D01*
X54071485Y-64992857D02*
X54261961Y-65040476D01*
X54261961Y-65040476D02*
X54357200Y-65135714D01*
X54357200Y-65135714D02*
X54404819Y-65230952D01*
X54404819Y-65230952D02*
X54404819Y-65421428D01*
X53404819Y-64659523D02*
X53404819Y-64040476D01*
X53404819Y-64040476D02*
X53785771Y-64373809D01*
X53785771Y-64373809D02*
X53785771Y-64230952D01*
X53785771Y-64230952D02*
X53833390Y-64135714D01*
X53833390Y-64135714D02*
X53881009Y-64088095D01*
X53881009Y-64088095D02*
X53976247Y-64040476D01*
X53976247Y-64040476D02*
X54214342Y-64040476D01*
X54214342Y-64040476D02*
X54309580Y-64088095D01*
X54309580Y-64088095D02*
X54357200Y-64135714D01*
X54357200Y-64135714D02*
X54404819Y-64230952D01*
X54404819Y-64230952D02*
X54404819Y-64516666D01*
X54404819Y-64516666D02*
X54357200Y-64611904D01*
X54357200Y-64611904D02*
X54309580Y-64659523D01*
X90182142Y-48004819D02*
X89848809Y-47528628D01*
X89610714Y-48004819D02*
X89610714Y-47004819D01*
X89610714Y-47004819D02*
X89991666Y-47004819D01*
X89991666Y-47004819D02*
X90086904Y-47052438D01*
X90086904Y-47052438D02*
X90134523Y-47100057D01*
X90134523Y-47100057D02*
X90182142Y-47195295D01*
X90182142Y-47195295D02*
X90182142Y-47338152D01*
X90182142Y-47338152D02*
X90134523Y-47433390D01*
X90134523Y-47433390D02*
X90086904Y-47481009D01*
X90086904Y-47481009D02*
X89991666Y-47528628D01*
X89991666Y-47528628D02*
X89610714Y-47528628D01*
X90563095Y-47100057D02*
X90610714Y-47052438D01*
X90610714Y-47052438D02*
X90705952Y-47004819D01*
X90705952Y-47004819D02*
X90944047Y-47004819D01*
X90944047Y-47004819D02*
X91039285Y-47052438D01*
X91039285Y-47052438D02*
X91086904Y-47100057D01*
X91086904Y-47100057D02*
X91134523Y-47195295D01*
X91134523Y-47195295D02*
X91134523Y-47290533D01*
X91134523Y-47290533D02*
X91086904Y-47433390D01*
X91086904Y-47433390D02*
X90515476Y-48004819D01*
X90515476Y-48004819D02*
X91134523Y-48004819D01*
X91991666Y-47004819D02*
X91801190Y-47004819D01*
X91801190Y-47004819D02*
X91705952Y-47052438D01*
X91705952Y-47052438D02*
X91658333Y-47100057D01*
X91658333Y-47100057D02*
X91563095Y-47242914D01*
X91563095Y-47242914D02*
X91515476Y-47433390D01*
X91515476Y-47433390D02*
X91515476Y-47814342D01*
X91515476Y-47814342D02*
X91563095Y-47909580D01*
X91563095Y-47909580D02*
X91610714Y-47957200D01*
X91610714Y-47957200D02*
X91705952Y-48004819D01*
X91705952Y-48004819D02*
X91896428Y-48004819D01*
X91896428Y-48004819D02*
X91991666Y-47957200D01*
X91991666Y-47957200D02*
X92039285Y-47909580D01*
X92039285Y-47909580D02*
X92086904Y-47814342D01*
X92086904Y-47814342D02*
X92086904Y-47576247D01*
X92086904Y-47576247D02*
X92039285Y-47481009D01*
X92039285Y-47481009D02*
X91991666Y-47433390D01*
X91991666Y-47433390D02*
X91896428Y-47385771D01*
X91896428Y-47385771D02*
X91705952Y-47385771D01*
X91705952Y-47385771D02*
X91610714Y-47433390D01*
X91610714Y-47433390D02*
X91563095Y-47481009D01*
X91563095Y-47481009D02*
X91515476Y-47576247D01*
X52629819Y-44463094D02*
X51629819Y-44463094D01*
X51629819Y-44463094D02*
X51629819Y-44224999D01*
X51629819Y-44224999D02*
X51677438Y-44082142D01*
X51677438Y-44082142D02*
X51772676Y-43986904D01*
X51772676Y-43986904D02*
X51867914Y-43939285D01*
X51867914Y-43939285D02*
X52058390Y-43891666D01*
X52058390Y-43891666D02*
X52201247Y-43891666D01*
X52201247Y-43891666D02*
X52391723Y-43939285D01*
X52391723Y-43939285D02*
X52486961Y-43986904D01*
X52486961Y-43986904D02*
X52582200Y-44082142D01*
X52582200Y-44082142D02*
X52629819Y-44224999D01*
X52629819Y-44224999D02*
X52629819Y-44463094D01*
X51629819Y-42986904D02*
X51629819Y-43463094D01*
X51629819Y-43463094D02*
X52106009Y-43510713D01*
X52106009Y-43510713D02*
X52058390Y-43463094D01*
X52058390Y-43463094D02*
X52010771Y-43367856D01*
X52010771Y-43367856D02*
X52010771Y-43129761D01*
X52010771Y-43129761D02*
X52058390Y-43034523D01*
X52058390Y-43034523D02*
X52106009Y-42986904D01*
X52106009Y-42986904D02*
X52201247Y-42939285D01*
X52201247Y-42939285D02*
X52439342Y-42939285D01*
X52439342Y-42939285D02*
X52534580Y-42986904D01*
X52534580Y-42986904D02*
X52582200Y-43034523D01*
X52582200Y-43034523D02*
X52629819Y-43129761D01*
X52629819Y-43129761D02*
X52629819Y-43367856D01*
X52629819Y-43367856D02*
X52582200Y-43463094D01*
X52582200Y-43463094D02*
X52534580Y-43510713D01*
X95107142Y-44909580D02*
X95059523Y-44957200D01*
X95059523Y-44957200D02*
X94916666Y-45004819D01*
X94916666Y-45004819D02*
X94821428Y-45004819D01*
X94821428Y-45004819D02*
X94678571Y-44957200D01*
X94678571Y-44957200D02*
X94583333Y-44861961D01*
X94583333Y-44861961D02*
X94535714Y-44766723D01*
X94535714Y-44766723D02*
X94488095Y-44576247D01*
X94488095Y-44576247D02*
X94488095Y-44433390D01*
X94488095Y-44433390D02*
X94535714Y-44242914D01*
X94535714Y-44242914D02*
X94583333Y-44147676D01*
X94583333Y-44147676D02*
X94678571Y-44052438D01*
X94678571Y-44052438D02*
X94821428Y-44004819D01*
X94821428Y-44004819D02*
X94916666Y-44004819D01*
X94916666Y-44004819D02*
X95059523Y-44052438D01*
X95059523Y-44052438D02*
X95107142Y-44100057D01*
X96059523Y-45004819D02*
X95488095Y-45004819D01*
X95773809Y-45004819D02*
X95773809Y-44004819D01*
X95773809Y-44004819D02*
X95678571Y-44147676D01*
X95678571Y-44147676D02*
X95583333Y-44242914D01*
X95583333Y-44242914D02*
X95488095Y-44290533D01*
X96535714Y-45004819D02*
X96726190Y-45004819D01*
X96726190Y-45004819D02*
X96821428Y-44957200D01*
X96821428Y-44957200D02*
X96869047Y-44909580D01*
X96869047Y-44909580D02*
X96964285Y-44766723D01*
X96964285Y-44766723D02*
X97011904Y-44576247D01*
X97011904Y-44576247D02*
X97011904Y-44195295D01*
X97011904Y-44195295D02*
X96964285Y-44100057D01*
X96964285Y-44100057D02*
X96916666Y-44052438D01*
X96916666Y-44052438D02*
X96821428Y-44004819D01*
X96821428Y-44004819D02*
X96630952Y-44004819D01*
X96630952Y-44004819D02*
X96535714Y-44052438D01*
X96535714Y-44052438D02*
X96488095Y-44100057D01*
X96488095Y-44100057D02*
X96440476Y-44195295D01*
X96440476Y-44195295D02*
X96440476Y-44433390D01*
X96440476Y-44433390D02*
X96488095Y-44528628D01*
X96488095Y-44528628D02*
X96535714Y-44576247D01*
X96535714Y-44576247D02*
X96630952Y-44623866D01*
X96630952Y-44623866D02*
X96821428Y-44623866D01*
X96821428Y-44623866D02*
X96916666Y-44576247D01*
X96916666Y-44576247D02*
X96964285Y-44528628D01*
X96964285Y-44528628D02*
X97011904Y-44433390D01*
X89394819Y-50732857D02*
X88918628Y-51066190D01*
X89394819Y-51304285D02*
X88394819Y-51304285D01*
X88394819Y-51304285D02*
X88394819Y-50923333D01*
X88394819Y-50923333D02*
X88442438Y-50828095D01*
X88442438Y-50828095D02*
X88490057Y-50780476D01*
X88490057Y-50780476D02*
X88585295Y-50732857D01*
X88585295Y-50732857D02*
X88728152Y-50732857D01*
X88728152Y-50732857D02*
X88823390Y-50780476D01*
X88823390Y-50780476D02*
X88871009Y-50828095D01*
X88871009Y-50828095D02*
X88918628Y-50923333D01*
X88918628Y-50923333D02*
X88918628Y-51304285D01*
X89394819Y-49780476D02*
X89394819Y-50351904D01*
X89394819Y-50066190D02*
X88394819Y-50066190D01*
X88394819Y-50066190D02*
X88537676Y-50161428D01*
X88537676Y-50161428D02*
X88632914Y-50256666D01*
X88632914Y-50256666D02*
X88680533Y-50351904D01*
X88490057Y-49399523D02*
X88442438Y-49351904D01*
X88442438Y-49351904D02*
X88394819Y-49256666D01*
X88394819Y-49256666D02*
X88394819Y-49018571D01*
X88394819Y-49018571D02*
X88442438Y-48923333D01*
X88442438Y-48923333D02*
X88490057Y-48875714D01*
X88490057Y-48875714D02*
X88585295Y-48828095D01*
X88585295Y-48828095D02*
X88680533Y-48828095D01*
X88680533Y-48828095D02*
X88823390Y-48875714D01*
X88823390Y-48875714D02*
X89394819Y-49447142D01*
X89394819Y-49447142D02*
X89394819Y-48828095D01*
X56876580Y-33833166D02*
X56924200Y-33880785D01*
X56924200Y-33880785D02*
X56971819Y-34023642D01*
X56971819Y-34023642D02*
X56971819Y-34118880D01*
X56971819Y-34118880D02*
X56924200Y-34261737D01*
X56924200Y-34261737D02*
X56828961Y-34356975D01*
X56828961Y-34356975D02*
X56733723Y-34404594D01*
X56733723Y-34404594D02*
X56543247Y-34452213D01*
X56543247Y-34452213D02*
X56400390Y-34452213D01*
X56400390Y-34452213D02*
X56209914Y-34404594D01*
X56209914Y-34404594D02*
X56114676Y-34356975D01*
X56114676Y-34356975D02*
X56019438Y-34261737D01*
X56019438Y-34261737D02*
X55971819Y-34118880D01*
X55971819Y-34118880D02*
X55971819Y-34023642D01*
X55971819Y-34023642D02*
X56019438Y-33880785D01*
X56019438Y-33880785D02*
X56067057Y-33833166D01*
X55971819Y-32976023D02*
X55971819Y-33166499D01*
X55971819Y-33166499D02*
X56019438Y-33261737D01*
X56019438Y-33261737D02*
X56067057Y-33309356D01*
X56067057Y-33309356D02*
X56209914Y-33404594D01*
X56209914Y-33404594D02*
X56400390Y-33452213D01*
X56400390Y-33452213D02*
X56781342Y-33452213D01*
X56781342Y-33452213D02*
X56876580Y-33404594D01*
X56876580Y-33404594D02*
X56924200Y-33356975D01*
X56924200Y-33356975D02*
X56971819Y-33261737D01*
X56971819Y-33261737D02*
X56971819Y-33071261D01*
X56971819Y-33071261D02*
X56924200Y-32976023D01*
X56924200Y-32976023D02*
X56876580Y-32928404D01*
X56876580Y-32928404D02*
X56781342Y-32880785D01*
X56781342Y-32880785D02*
X56543247Y-32880785D01*
X56543247Y-32880785D02*
X56448009Y-32928404D01*
X56448009Y-32928404D02*
X56400390Y-32976023D01*
X56400390Y-32976023D02*
X56352771Y-33071261D01*
X56352771Y-33071261D02*
X56352771Y-33261737D01*
X56352771Y-33261737D02*
X56400390Y-33356975D01*
X56400390Y-33356975D02*
X56448009Y-33404594D01*
X56448009Y-33404594D02*
X56543247Y-33452213D01*
X54904095Y-52728819D02*
X54904095Y-51728819D01*
X54904095Y-52205009D02*
X55475523Y-52205009D01*
X55475523Y-52728819D02*
X55475523Y-51728819D01*
X56475523Y-52728819D02*
X55904095Y-52728819D01*
X56189809Y-52728819D02*
X56189809Y-51728819D01*
X56189809Y-51728819D02*
X56094571Y-51871676D01*
X56094571Y-51871676D02*
X55999333Y-51966914D01*
X55999333Y-51966914D02*
X55904095Y-52014533D01*
X67747819Y-30139666D02*
X67271628Y-30472999D01*
X67747819Y-30711094D02*
X66747819Y-30711094D01*
X66747819Y-30711094D02*
X66747819Y-30330142D01*
X66747819Y-30330142D02*
X66795438Y-30234904D01*
X66795438Y-30234904D02*
X66843057Y-30187285D01*
X66843057Y-30187285D02*
X66938295Y-30139666D01*
X66938295Y-30139666D02*
X67081152Y-30139666D01*
X67081152Y-30139666D02*
X67176390Y-30187285D01*
X67176390Y-30187285D02*
X67224009Y-30234904D01*
X67224009Y-30234904D02*
X67271628Y-30330142D01*
X67271628Y-30330142D02*
X67271628Y-30711094D01*
X66747819Y-29282523D02*
X66747819Y-29472999D01*
X66747819Y-29472999D02*
X66795438Y-29568237D01*
X66795438Y-29568237D02*
X66843057Y-29615856D01*
X66843057Y-29615856D02*
X66985914Y-29711094D01*
X66985914Y-29711094D02*
X67176390Y-29758713D01*
X67176390Y-29758713D02*
X67557342Y-29758713D01*
X67557342Y-29758713D02*
X67652580Y-29711094D01*
X67652580Y-29711094D02*
X67700200Y-29663475D01*
X67700200Y-29663475D02*
X67747819Y-29568237D01*
X67747819Y-29568237D02*
X67747819Y-29377761D01*
X67747819Y-29377761D02*
X67700200Y-29282523D01*
X67700200Y-29282523D02*
X67652580Y-29234904D01*
X67652580Y-29234904D02*
X67557342Y-29187285D01*
X67557342Y-29187285D02*
X67319247Y-29187285D01*
X67319247Y-29187285D02*
X67224009Y-29234904D01*
X67224009Y-29234904D02*
X67176390Y-29282523D01*
X67176390Y-29282523D02*
X67128771Y-29377761D01*
X67128771Y-29377761D02*
X67128771Y-29568237D01*
X67128771Y-29568237D02*
X67176390Y-29663475D01*
X67176390Y-29663475D02*
X67224009Y-29711094D01*
X67224009Y-29711094D02*
X67319247Y-29758713D01*
X81338642Y-54513580D02*
X81291023Y-54561200D01*
X81291023Y-54561200D02*
X81148166Y-54608819D01*
X81148166Y-54608819D02*
X81052928Y-54608819D01*
X81052928Y-54608819D02*
X80910071Y-54561200D01*
X80910071Y-54561200D02*
X80814833Y-54465961D01*
X80814833Y-54465961D02*
X80767214Y-54370723D01*
X80767214Y-54370723D02*
X80719595Y-54180247D01*
X80719595Y-54180247D02*
X80719595Y-54037390D01*
X80719595Y-54037390D02*
X80767214Y-53846914D01*
X80767214Y-53846914D02*
X80814833Y-53751676D01*
X80814833Y-53751676D02*
X80910071Y-53656438D01*
X80910071Y-53656438D02*
X81052928Y-53608819D01*
X81052928Y-53608819D02*
X81148166Y-53608819D01*
X81148166Y-53608819D02*
X81291023Y-53656438D01*
X81291023Y-53656438D02*
X81338642Y-53704057D01*
X81719595Y-53704057D02*
X81767214Y-53656438D01*
X81767214Y-53656438D02*
X81862452Y-53608819D01*
X81862452Y-53608819D02*
X82100547Y-53608819D01*
X82100547Y-53608819D02*
X82195785Y-53656438D01*
X82195785Y-53656438D02*
X82243404Y-53704057D01*
X82243404Y-53704057D02*
X82291023Y-53799295D01*
X82291023Y-53799295D02*
X82291023Y-53894533D01*
X82291023Y-53894533D02*
X82243404Y-54037390D01*
X82243404Y-54037390D02*
X81671976Y-54608819D01*
X81671976Y-54608819D02*
X82291023Y-54608819D01*
X82624357Y-53608819D02*
X83243404Y-53608819D01*
X83243404Y-53608819D02*
X82910071Y-53989771D01*
X82910071Y-53989771D02*
X83052928Y-53989771D01*
X83052928Y-53989771D02*
X83148166Y-54037390D01*
X83148166Y-54037390D02*
X83195785Y-54085009D01*
X83195785Y-54085009D02*
X83243404Y-54180247D01*
X83243404Y-54180247D02*
X83243404Y-54418342D01*
X83243404Y-54418342D02*
X83195785Y-54513580D01*
X83195785Y-54513580D02*
X83148166Y-54561200D01*
X83148166Y-54561200D02*
X83052928Y-54608819D01*
X83052928Y-54608819D02*
X82767214Y-54608819D01*
X82767214Y-54608819D02*
X82671976Y-54561200D01*
X82671976Y-54561200D02*
X82624357Y-54513580D01*
X87916142Y-52989580D02*
X87868523Y-53037200D01*
X87868523Y-53037200D02*
X87725666Y-53084819D01*
X87725666Y-53084819D02*
X87630428Y-53084819D01*
X87630428Y-53084819D02*
X87487571Y-53037200D01*
X87487571Y-53037200D02*
X87392333Y-52941961D01*
X87392333Y-52941961D02*
X87344714Y-52846723D01*
X87344714Y-52846723D02*
X87297095Y-52656247D01*
X87297095Y-52656247D02*
X87297095Y-52513390D01*
X87297095Y-52513390D02*
X87344714Y-52322914D01*
X87344714Y-52322914D02*
X87392333Y-52227676D01*
X87392333Y-52227676D02*
X87487571Y-52132438D01*
X87487571Y-52132438D02*
X87630428Y-52084819D01*
X87630428Y-52084819D02*
X87725666Y-52084819D01*
X87725666Y-52084819D02*
X87868523Y-52132438D01*
X87868523Y-52132438D02*
X87916142Y-52180057D01*
X88868523Y-53084819D02*
X88297095Y-53084819D01*
X88582809Y-53084819D02*
X88582809Y-52084819D01*
X88582809Y-52084819D02*
X88487571Y-52227676D01*
X88487571Y-52227676D02*
X88392333Y-52322914D01*
X88392333Y-52322914D02*
X88297095Y-52370533D01*
X89820904Y-53084819D02*
X89249476Y-53084819D01*
X89535190Y-53084819D02*
X89535190Y-52084819D01*
X89535190Y-52084819D02*
X89439952Y-52227676D01*
X89439952Y-52227676D02*
X89344714Y-52322914D01*
X89344714Y-52322914D02*
X89249476Y-52370533D01*
X88170142Y-55243819D02*
X87836809Y-54767628D01*
X87598714Y-55243819D02*
X87598714Y-54243819D01*
X87598714Y-54243819D02*
X87979666Y-54243819D01*
X87979666Y-54243819D02*
X88074904Y-54291438D01*
X88074904Y-54291438D02*
X88122523Y-54339057D01*
X88122523Y-54339057D02*
X88170142Y-54434295D01*
X88170142Y-54434295D02*
X88170142Y-54577152D01*
X88170142Y-54577152D02*
X88122523Y-54672390D01*
X88122523Y-54672390D02*
X88074904Y-54720009D01*
X88074904Y-54720009D02*
X87979666Y-54767628D01*
X87979666Y-54767628D02*
X87598714Y-54767628D01*
X89122523Y-55243819D02*
X88551095Y-55243819D01*
X88836809Y-55243819D02*
X88836809Y-54243819D01*
X88836809Y-54243819D02*
X88741571Y-54386676D01*
X88741571Y-54386676D02*
X88646333Y-54481914D01*
X88646333Y-54481914D02*
X88551095Y-54529533D01*
X89979666Y-54243819D02*
X89789190Y-54243819D01*
X89789190Y-54243819D02*
X89693952Y-54291438D01*
X89693952Y-54291438D02*
X89646333Y-54339057D01*
X89646333Y-54339057D02*
X89551095Y-54481914D01*
X89551095Y-54481914D02*
X89503476Y-54672390D01*
X89503476Y-54672390D02*
X89503476Y-55053342D01*
X89503476Y-55053342D02*
X89551095Y-55148580D01*
X89551095Y-55148580D02*
X89598714Y-55196200D01*
X89598714Y-55196200D02*
X89693952Y-55243819D01*
X89693952Y-55243819D02*
X89884428Y-55243819D01*
X89884428Y-55243819D02*
X89979666Y-55196200D01*
X89979666Y-55196200D02*
X90027285Y-55148580D01*
X90027285Y-55148580D02*
X90074904Y-55053342D01*
X90074904Y-55053342D02*
X90074904Y-54815247D01*
X90074904Y-54815247D02*
X90027285Y-54720009D01*
X90027285Y-54720009D02*
X89979666Y-54672390D01*
X89979666Y-54672390D02*
X89884428Y-54624771D01*
X89884428Y-54624771D02*
X89693952Y-54624771D01*
X89693952Y-54624771D02*
X89598714Y-54672390D01*
X89598714Y-54672390D02*
X89551095Y-54720009D01*
X89551095Y-54720009D02*
X89503476Y-54815247D01*
X87535142Y-48004819D02*
X87201809Y-47528628D01*
X86963714Y-48004819D02*
X86963714Y-47004819D01*
X86963714Y-47004819D02*
X87344666Y-47004819D01*
X87344666Y-47004819D02*
X87439904Y-47052438D01*
X87439904Y-47052438D02*
X87487523Y-47100057D01*
X87487523Y-47100057D02*
X87535142Y-47195295D01*
X87535142Y-47195295D02*
X87535142Y-47338152D01*
X87535142Y-47338152D02*
X87487523Y-47433390D01*
X87487523Y-47433390D02*
X87439904Y-47481009D01*
X87439904Y-47481009D02*
X87344666Y-47528628D01*
X87344666Y-47528628D02*
X86963714Y-47528628D01*
X87916095Y-47100057D02*
X87963714Y-47052438D01*
X87963714Y-47052438D02*
X88058952Y-47004819D01*
X88058952Y-47004819D02*
X88297047Y-47004819D01*
X88297047Y-47004819D02*
X88392285Y-47052438D01*
X88392285Y-47052438D02*
X88439904Y-47100057D01*
X88439904Y-47100057D02*
X88487523Y-47195295D01*
X88487523Y-47195295D02*
X88487523Y-47290533D01*
X88487523Y-47290533D02*
X88439904Y-47433390D01*
X88439904Y-47433390D02*
X87868476Y-48004819D01*
X87868476Y-48004819D02*
X88487523Y-48004819D01*
X89392285Y-47004819D02*
X88916095Y-47004819D01*
X88916095Y-47004819D02*
X88868476Y-47481009D01*
X88868476Y-47481009D02*
X88916095Y-47433390D01*
X88916095Y-47433390D02*
X89011333Y-47385771D01*
X89011333Y-47385771D02*
X89249428Y-47385771D01*
X89249428Y-47385771D02*
X89344666Y-47433390D01*
X89344666Y-47433390D02*
X89392285Y-47481009D01*
X89392285Y-47481009D02*
X89439904Y-47576247D01*
X89439904Y-47576247D02*
X89439904Y-47814342D01*
X89439904Y-47814342D02*
X89392285Y-47909580D01*
X89392285Y-47909580D02*
X89344666Y-47957200D01*
X89344666Y-47957200D02*
X89249428Y-48004819D01*
X89249428Y-48004819D02*
X89011333Y-48004819D01*
X89011333Y-48004819D02*
X88916095Y-47957200D01*
X88916095Y-47957200D02*
X88868476Y-47909580D01*
X52149580Y-40853357D02*
X52197200Y-40900976D01*
X52197200Y-40900976D02*
X52244819Y-41043833D01*
X52244819Y-41043833D02*
X52244819Y-41139071D01*
X52244819Y-41139071D02*
X52197200Y-41281928D01*
X52197200Y-41281928D02*
X52101961Y-41377166D01*
X52101961Y-41377166D02*
X52006723Y-41424785D01*
X52006723Y-41424785D02*
X51816247Y-41472404D01*
X51816247Y-41472404D02*
X51673390Y-41472404D01*
X51673390Y-41472404D02*
X51482914Y-41424785D01*
X51482914Y-41424785D02*
X51387676Y-41377166D01*
X51387676Y-41377166D02*
X51292438Y-41281928D01*
X51292438Y-41281928D02*
X51244819Y-41139071D01*
X51244819Y-41139071D02*
X51244819Y-41043833D01*
X51244819Y-41043833D02*
X51292438Y-40900976D01*
X51292438Y-40900976D02*
X51340057Y-40853357D01*
X51340057Y-40472404D02*
X51292438Y-40424785D01*
X51292438Y-40424785D02*
X51244819Y-40329547D01*
X51244819Y-40329547D02*
X51244819Y-40091452D01*
X51244819Y-40091452D02*
X51292438Y-39996214D01*
X51292438Y-39996214D02*
X51340057Y-39948595D01*
X51340057Y-39948595D02*
X51435295Y-39900976D01*
X51435295Y-39900976D02*
X51530533Y-39900976D01*
X51530533Y-39900976D02*
X51673390Y-39948595D01*
X51673390Y-39948595D02*
X52244819Y-40520023D01*
X52244819Y-40520023D02*
X52244819Y-39900976D01*
X52244819Y-38948595D02*
X52244819Y-39520023D01*
X52244819Y-39234309D02*
X51244819Y-39234309D01*
X51244819Y-39234309D02*
X51387676Y-39329547D01*
X51387676Y-39329547D02*
X51482914Y-39424785D01*
X51482914Y-39424785D02*
X51530533Y-39520023D01*
X47957142Y-49354819D02*
X47623809Y-48878628D01*
X47385714Y-49354819D02*
X47385714Y-48354819D01*
X47385714Y-48354819D02*
X47766666Y-48354819D01*
X47766666Y-48354819D02*
X47861904Y-48402438D01*
X47861904Y-48402438D02*
X47909523Y-48450057D01*
X47909523Y-48450057D02*
X47957142Y-48545295D01*
X47957142Y-48545295D02*
X47957142Y-48688152D01*
X47957142Y-48688152D02*
X47909523Y-48783390D01*
X47909523Y-48783390D02*
X47861904Y-48831009D01*
X47861904Y-48831009D02*
X47766666Y-48878628D01*
X47766666Y-48878628D02*
X47385714Y-48878628D01*
X48909523Y-49354819D02*
X48338095Y-49354819D01*
X48623809Y-49354819D02*
X48623809Y-48354819D01*
X48623809Y-48354819D02*
X48528571Y-48497676D01*
X48528571Y-48497676D02*
X48433333Y-48592914D01*
X48433333Y-48592914D02*
X48338095Y-48640533D01*
X49385714Y-49354819D02*
X49576190Y-49354819D01*
X49576190Y-49354819D02*
X49671428Y-49307200D01*
X49671428Y-49307200D02*
X49719047Y-49259580D01*
X49719047Y-49259580D02*
X49814285Y-49116723D01*
X49814285Y-49116723D02*
X49861904Y-48926247D01*
X49861904Y-48926247D02*
X49861904Y-48545295D01*
X49861904Y-48545295D02*
X49814285Y-48450057D01*
X49814285Y-48450057D02*
X49766666Y-48402438D01*
X49766666Y-48402438D02*
X49671428Y-48354819D01*
X49671428Y-48354819D02*
X49480952Y-48354819D01*
X49480952Y-48354819D02*
X49385714Y-48402438D01*
X49385714Y-48402438D02*
X49338095Y-48450057D01*
X49338095Y-48450057D02*
X49290476Y-48545295D01*
X49290476Y-48545295D02*
X49290476Y-48783390D01*
X49290476Y-48783390D02*
X49338095Y-48878628D01*
X49338095Y-48878628D02*
X49385714Y-48926247D01*
X49385714Y-48926247D02*
X49480952Y-48973866D01*
X49480952Y-48973866D02*
X49671428Y-48973866D01*
X49671428Y-48973866D02*
X49766666Y-48926247D01*
X49766666Y-48926247D02*
X49814285Y-48878628D01*
X49814285Y-48878628D02*
X49861904Y-48783390D01*
X48829819Y-41063094D02*
X47829819Y-41063094D01*
X47829819Y-41063094D02*
X47829819Y-40824999D01*
X47829819Y-40824999D02*
X47877438Y-40682142D01*
X47877438Y-40682142D02*
X47972676Y-40586904D01*
X47972676Y-40586904D02*
X48067914Y-40539285D01*
X48067914Y-40539285D02*
X48258390Y-40491666D01*
X48258390Y-40491666D02*
X48401247Y-40491666D01*
X48401247Y-40491666D02*
X48591723Y-40539285D01*
X48591723Y-40539285D02*
X48686961Y-40586904D01*
X48686961Y-40586904D02*
X48782200Y-40682142D01*
X48782200Y-40682142D02*
X48829819Y-40824999D01*
X48829819Y-40824999D02*
X48829819Y-41063094D01*
X47829819Y-40158332D02*
X47829819Y-39491666D01*
X47829819Y-39491666D02*
X48829819Y-39920237D01*
X85873580Y-45922857D02*
X85921200Y-45970476D01*
X85921200Y-45970476D02*
X85968819Y-46113333D01*
X85968819Y-46113333D02*
X85968819Y-46208571D01*
X85968819Y-46208571D02*
X85921200Y-46351428D01*
X85921200Y-46351428D02*
X85825961Y-46446666D01*
X85825961Y-46446666D02*
X85730723Y-46494285D01*
X85730723Y-46494285D02*
X85540247Y-46541904D01*
X85540247Y-46541904D02*
X85397390Y-46541904D01*
X85397390Y-46541904D02*
X85206914Y-46494285D01*
X85206914Y-46494285D02*
X85111676Y-46446666D01*
X85111676Y-46446666D02*
X85016438Y-46351428D01*
X85016438Y-46351428D02*
X84968819Y-46208571D01*
X84968819Y-46208571D02*
X84968819Y-46113333D01*
X84968819Y-46113333D02*
X85016438Y-45970476D01*
X85016438Y-45970476D02*
X85064057Y-45922857D01*
X85968819Y-44970476D02*
X85968819Y-45541904D01*
X85968819Y-45256190D02*
X84968819Y-45256190D01*
X84968819Y-45256190D02*
X85111676Y-45351428D01*
X85111676Y-45351428D02*
X85206914Y-45446666D01*
X85206914Y-45446666D02*
X85254533Y-45541904D01*
X84968819Y-44113333D02*
X84968819Y-44303809D01*
X84968819Y-44303809D02*
X85016438Y-44399047D01*
X85016438Y-44399047D02*
X85064057Y-44446666D01*
X85064057Y-44446666D02*
X85206914Y-44541904D01*
X85206914Y-44541904D02*
X85397390Y-44589523D01*
X85397390Y-44589523D02*
X85778342Y-44589523D01*
X85778342Y-44589523D02*
X85873580Y-44541904D01*
X85873580Y-44541904D02*
X85921200Y-44494285D01*
X85921200Y-44494285D02*
X85968819Y-44399047D01*
X85968819Y-44399047D02*
X85968819Y-44208571D01*
X85968819Y-44208571D02*
X85921200Y-44113333D01*
X85921200Y-44113333D02*
X85873580Y-44065714D01*
X85873580Y-44065714D02*
X85778342Y-44018095D01*
X85778342Y-44018095D02*
X85540247Y-44018095D01*
X85540247Y-44018095D02*
X85445009Y-44065714D01*
X85445009Y-44065714D02*
X85397390Y-44113333D01*
X85397390Y-44113333D02*
X85349771Y-44208571D01*
X85349771Y-44208571D02*
X85349771Y-44399047D01*
X85349771Y-44399047D02*
X85397390Y-44494285D01*
X85397390Y-44494285D02*
X85445009Y-44541904D01*
X85445009Y-44541904D02*
X85540247Y-44589523D01*
X90817580Y-61271357D02*
X90865200Y-61318976D01*
X90865200Y-61318976D02*
X90912819Y-61461833D01*
X90912819Y-61461833D02*
X90912819Y-61557071D01*
X90912819Y-61557071D02*
X90865200Y-61699928D01*
X90865200Y-61699928D02*
X90769961Y-61795166D01*
X90769961Y-61795166D02*
X90674723Y-61842785D01*
X90674723Y-61842785D02*
X90484247Y-61890404D01*
X90484247Y-61890404D02*
X90341390Y-61890404D01*
X90341390Y-61890404D02*
X90150914Y-61842785D01*
X90150914Y-61842785D02*
X90055676Y-61795166D01*
X90055676Y-61795166D02*
X89960438Y-61699928D01*
X89960438Y-61699928D02*
X89912819Y-61557071D01*
X89912819Y-61557071D02*
X89912819Y-61461833D01*
X89912819Y-61461833D02*
X89960438Y-61318976D01*
X89960438Y-61318976D02*
X90008057Y-61271357D01*
X90912819Y-60318976D02*
X90912819Y-60890404D01*
X90912819Y-60604690D02*
X89912819Y-60604690D01*
X89912819Y-60604690D02*
X90055676Y-60699928D01*
X90055676Y-60699928D02*
X90150914Y-60795166D01*
X90150914Y-60795166D02*
X90198533Y-60890404D01*
X90246152Y-59461833D02*
X90912819Y-59461833D01*
X89865200Y-59699928D02*
X90579485Y-59938023D01*
X90579485Y-59938023D02*
X90579485Y-59318976D01*
X51454819Y-57963094D02*
X50454819Y-57963094D01*
X50454819Y-57963094D02*
X50454819Y-57724999D01*
X50454819Y-57724999D02*
X50502438Y-57582142D01*
X50502438Y-57582142D02*
X50597676Y-57486904D01*
X50597676Y-57486904D02*
X50692914Y-57439285D01*
X50692914Y-57439285D02*
X50883390Y-57391666D01*
X50883390Y-57391666D02*
X51026247Y-57391666D01*
X51026247Y-57391666D02*
X51216723Y-57439285D01*
X51216723Y-57439285D02*
X51311961Y-57486904D01*
X51311961Y-57486904D02*
X51407200Y-57582142D01*
X51407200Y-57582142D02*
X51454819Y-57724999D01*
X51454819Y-57724999D02*
X51454819Y-57963094D01*
X50550057Y-57010713D02*
X50502438Y-56963094D01*
X50502438Y-56963094D02*
X50454819Y-56867856D01*
X50454819Y-56867856D02*
X50454819Y-56629761D01*
X50454819Y-56629761D02*
X50502438Y-56534523D01*
X50502438Y-56534523D02*
X50550057Y-56486904D01*
X50550057Y-56486904D02*
X50645295Y-56439285D01*
X50645295Y-56439285D02*
X50740533Y-56439285D01*
X50740533Y-56439285D02*
X50883390Y-56486904D01*
X50883390Y-56486904D02*
X51454819Y-57058332D01*
X51454819Y-57058332D02*
X51454819Y-56439285D01*
X51154819Y-51238094D02*
X50154819Y-51238094D01*
X50154819Y-51238094D02*
X50154819Y-50999999D01*
X50154819Y-50999999D02*
X50202438Y-50857142D01*
X50202438Y-50857142D02*
X50297676Y-50761904D01*
X50297676Y-50761904D02*
X50392914Y-50714285D01*
X50392914Y-50714285D02*
X50583390Y-50666666D01*
X50583390Y-50666666D02*
X50726247Y-50666666D01*
X50726247Y-50666666D02*
X50916723Y-50714285D01*
X50916723Y-50714285D02*
X51011961Y-50761904D01*
X51011961Y-50761904D02*
X51107200Y-50857142D01*
X51107200Y-50857142D02*
X51154819Y-50999999D01*
X51154819Y-50999999D02*
X51154819Y-51238094D01*
X50488152Y-49809523D02*
X51154819Y-49809523D01*
X50107200Y-50047618D02*
X50821485Y-50285713D01*
X50821485Y-50285713D02*
X50821485Y-49666666D01*
X96954819Y-55361904D02*
X97764342Y-55361904D01*
X97764342Y-55361904D02*
X97859580Y-55314285D01*
X97859580Y-55314285D02*
X97907200Y-55266666D01*
X97907200Y-55266666D02*
X97954819Y-55171428D01*
X97954819Y-55171428D02*
X97954819Y-54980952D01*
X97954819Y-54980952D02*
X97907200Y-54885714D01*
X97907200Y-54885714D02*
X97859580Y-54838095D01*
X97859580Y-54838095D02*
X97764342Y-54790476D01*
X97764342Y-54790476D02*
X96954819Y-54790476D01*
X96954819Y-54409523D02*
X96954819Y-53742857D01*
X96954819Y-53742857D02*
X97954819Y-54171428D01*
X84201333Y-41400819D02*
X83868000Y-40924628D01*
X83629905Y-41400819D02*
X83629905Y-40400819D01*
X83629905Y-40400819D02*
X84010857Y-40400819D01*
X84010857Y-40400819D02*
X84106095Y-40448438D01*
X84106095Y-40448438D02*
X84153714Y-40496057D01*
X84153714Y-40496057D02*
X84201333Y-40591295D01*
X84201333Y-40591295D02*
X84201333Y-40734152D01*
X84201333Y-40734152D02*
X84153714Y-40829390D01*
X84153714Y-40829390D02*
X84106095Y-40877009D01*
X84106095Y-40877009D02*
X84010857Y-40924628D01*
X84010857Y-40924628D02*
X83629905Y-40924628D01*
X84534667Y-40400819D02*
X85201333Y-40400819D01*
X85201333Y-40400819D02*
X84772762Y-41400819D01*
X71540580Y-30139666D02*
X71588200Y-30187285D01*
X71588200Y-30187285D02*
X71635819Y-30330142D01*
X71635819Y-30330142D02*
X71635819Y-30425380D01*
X71635819Y-30425380D02*
X71588200Y-30568237D01*
X71588200Y-30568237D02*
X71492961Y-30663475D01*
X71492961Y-30663475D02*
X71397723Y-30711094D01*
X71397723Y-30711094D02*
X71207247Y-30758713D01*
X71207247Y-30758713D02*
X71064390Y-30758713D01*
X71064390Y-30758713D02*
X70873914Y-30711094D01*
X70873914Y-30711094D02*
X70778676Y-30663475D01*
X70778676Y-30663475D02*
X70683438Y-30568237D01*
X70683438Y-30568237D02*
X70635819Y-30425380D01*
X70635819Y-30425380D02*
X70635819Y-30330142D01*
X70635819Y-30330142D02*
X70683438Y-30187285D01*
X70683438Y-30187285D02*
X70731057Y-30139666D01*
X71635819Y-29663475D02*
X71635819Y-29472999D01*
X71635819Y-29472999D02*
X71588200Y-29377761D01*
X71588200Y-29377761D02*
X71540580Y-29330142D01*
X71540580Y-29330142D02*
X71397723Y-29234904D01*
X71397723Y-29234904D02*
X71207247Y-29187285D01*
X71207247Y-29187285D02*
X70826295Y-29187285D01*
X70826295Y-29187285D02*
X70731057Y-29234904D01*
X70731057Y-29234904D02*
X70683438Y-29282523D01*
X70683438Y-29282523D02*
X70635819Y-29377761D01*
X70635819Y-29377761D02*
X70635819Y-29568237D01*
X70635819Y-29568237D02*
X70683438Y-29663475D01*
X70683438Y-29663475D02*
X70731057Y-29711094D01*
X70731057Y-29711094D02*
X70826295Y-29758713D01*
X70826295Y-29758713D02*
X71064390Y-29758713D01*
X71064390Y-29758713D02*
X71159628Y-29711094D01*
X71159628Y-29711094D02*
X71207247Y-29663475D01*
X71207247Y-29663475D02*
X71254866Y-29568237D01*
X71254866Y-29568237D02*
X71254866Y-29377761D01*
X71254866Y-29377761D02*
X71207247Y-29282523D01*
X71207247Y-29282523D02*
X71159628Y-29234904D01*
X71159628Y-29234904D02*
X71064390Y-29187285D01*
X81822458Y-43240065D02*
X81774839Y-43287685D01*
X81774839Y-43287685D02*
X81631982Y-43335304D01*
X81631982Y-43335304D02*
X81536744Y-43335304D01*
X81536744Y-43335304D02*
X81393887Y-43287685D01*
X81393887Y-43287685D02*
X81298649Y-43192446D01*
X81298649Y-43192446D02*
X81251030Y-43097208D01*
X81251030Y-43097208D02*
X81203411Y-42906732D01*
X81203411Y-42906732D02*
X81203411Y-42763875D01*
X81203411Y-42763875D02*
X81251030Y-42573399D01*
X81251030Y-42573399D02*
X81298649Y-42478161D01*
X81298649Y-42478161D02*
X81393887Y-42382923D01*
X81393887Y-42382923D02*
X81536744Y-42335304D01*
X81536744Y-42335304D02*
X81631982Y-42335304D01*
X81631982Y-42335304D02*
X81774839Y-42382923D01*
X81774839Y-42382923D02*
X81822458Y-42430542D01*
X82203411Y-42430542D02*
X82251030Y-42382923D01*
X82251030Y-42382923D02*
X82346268Y-42335304D01*
X82346268Y-42335304D02*
X82584363Y-42335304D01*
X82584363Y-42335304D02*
X82679601Y-42382923D01*
X82679601Y-42382923D02*
X82727220Y-42430542D01*
X82727220Y-42430542D02*
X82774839Y-42525780D01*
X82774839Y-42525780D02*
X82774839Y-42621018D01*
X82774839Y-42621018D02*
X82727220Y-42763875D01*
X82727220Y-42763875D02*
X82155792Y-43335304D01*
X82155792Y-43335304D02*
X82774839Y-43335304D01*
X83631982Y-42668637D02*
X83631982Y-43335304D01*
X83393887Y-42287685D02*
X83155792Y-43001970D01*
X83155792Y-43001970D02*
X83774839Y-43001970D01*
X84709333Y-67562819D02*
X84376000Y-67086628D01*
X84137905Y-67562819D02*
X84137905Y-66562819D01*
X84137905Y-66562819D02*
X84518857Y-66562819D01*
X84518857Y-66562819D02*
X84614095Y-66610438D01*
X84614095Y-66610438D02*
X84661714Y-66658057D01*
X84661714Y-66658057D02*
X84709333Y-66753295D01*
X84709333Y-66753295D02*
X84709333Y-66896152D01*
X84709333Y-66896152D02*
X84661714Y-66991390D01*
X84661714Y-66991390D02*
X84614095Y-67039009D01*
X84614095Y-67039009D02*
X84518857Y-67086628D01*
X84518857Y-67086628D02*
X84137905Y-67086628D01*
X85185524Y-67562819D02*
X85376000Y-67562819D01*
X85376000Y-67562819D02*
X85471238Y-67515200D01*
X85471238Y-67515200D02*
X85518857Y-67467580D01*
X85518857Y-67467580D02*
X85614095Y-67324723D01*
X85614095Y-67324723D02*
X85661714Y-67134247D01*
X85661714Y-67134247D02*
X85661714Y-66753295D01*
X85661714Y-66753295D02*
X85614095Y-66658057D01*
X85614095Y-66658057D02*
X85566476Y-66610438D01*
X85566476Y-66610438D02*
X85471238Y-66562819D01*
X85471238Y-66562819D02*
X85280762Y-66562819D01*
X85280762Y-66562819D02*
X85185524Y-66610438D01*
X85185524Y-66610438D02*
X85137905Y-66658057D01*
X85137905Y-66658057D02*
X85090286Y-66753295D01*
X85090286Y-66753295D02*
X85090286Y-66991390D01*
X85090286Y-66991390D02*
X85137905Y-67086628D01*
X85137905Y-67086628D02*
X85185524Y-67134247D01*
X85185524Y-67134247D02*
X85280762Y-67181866D01*
X85280762Y-67181866D02*
X85471238Y-67181866D01*
X85471238Y-67181866D02*
X85566476Y-67134247D01*
X85566476Y-67134247D02*
X85614095Y-67086628D01*
X85614095Y-67086628D02*
X85661714Y-66991390D01*
X44497819Y-46730857D02*
X44021628Y-47064190D01*
X44497819Y-47302285D02*
X43497819Y-47302285D01*
X43497819Y-47302285D02*
X43497819Y-46921333D01*
X43497819Y-46921333D02*
X43545438Y-46826095D01*
X43545438Y-46826095D02*
X43593057Y-46778476D01*
X43593057Y-46778476D02*
X43688295Y-46730857D01*
X43688295Y-46730857D02*
X43831152Y-46730857D01*
X43831152Y-46730857D02*
X43926390Y-46778476D01*
X43926390Y-46778476D02*
X43974009Y-46826095D01*
X43974009Y-46826095D02*
X44021628Y-46921333D01*
X44021628Y-46921333D02*
X44021628Y-47302285D01*
X43593057Y-46349904D02*
X43545438Y-46302285D01*
X43545438Y-46302285D02*
X43497819Y-46207047D01*
X43497819Y-46207047D02*
X43497819Y-45968952D01*
X43497819Y-45968952D02*
X43545438Y-45873714D01*
X43545438Y-45873714D02*
X43593057Y-45826095D01*
X43593057Y-45826095D02*
X43688295Y-45778476D01*
X43688295Y-45778476D02*
X43783533Y-45778476D01*
X43783533Y-45778476D02*
X43926390Y-45826095D01*
X43926390Y-45826095D02*
X44497819Y-46397523D01*
X44497819Y-46397523D02*
X44497819Y-45778476D01*
X43593057Y-45397523D02*
X43545438Y-45349904D01*
X43545438Y-45349904D02*
X43497819Y-45254666D01*
X43497819Y-45254666D02*
X43497819Y-45016571D01*
X43497819Y-45016571D02*
X43545438Y-44921333D01*
X43545438Y-44921333D02*
X43593057Y-44873714D01*
X43593057Y-44873714D02*
X43688295Y-44826095D01*
X43688295Y-44826095D02*
X43783533Y-44826095D01*
X43783533Y-44826095D02*
X43926390Y-44873714D01*
X43926390Y-44873714D02*
X44497819Y-45445142D01*
X44497819Y-45445142D02*
X44497819Y-44826095D01*
X52782142Y-60454819D02*
X52448809Y-59978628D01*
X52210714Y-60454819D02*
X52210714Y-59454819D01*
X52210714Y-59454819D02*
X52591666Y-59454819D01*
X52591666Y-59454819D02*
X52686904Y-59502438D01*
X52686904Y-59502438D02*
X52734523Y-59550057D01*
X52734523Y-59550057D02*
X52782142Y-59645295D01*
X52782142Y-59645295D02*
X52782142Y-59788152D01*
X52782142Y-59788152D02*
X52734523Y-59883390D01*
X52734523Y-59883390D02*
X52686904Y-59931009D01*
X52686904Y-59931009D02*
X52591666Y-59978628D01*
X52591666Y-59978628D02*
X52210714Y-59978628D01*
X53163095Y-59550057D02*
X53210714Y-59502438D01*
X53210714Y-59502438D02*
X53305952Y-59454819D01*
X53305952Y-59454819D02*
X53544047Y-59454819D01*
X53544047Y-59454819D02*
X53639285Y-59502438D01*
X53639285Y-59502438D02*
X53686904Y-59550057D01*
X53686904Y-59550057D02*
X53734523Y-59645295D01*
X53734523Y-59645295D02*
X53734523Y-59740533D01*
X53734523Y-59740533D02*
X53686904Y-59883390D01*
X53686904Y-59883390D02*
X53115476Y-60454819D01*
X53115476Y-60454819D02*
X53734523Y-60454819D01*
X54591666Y-59788152D02*
X54591666Y-60454819D01*
X54353571Y-59407200D02*
X54115476Y-60121485D01*
X54115476Y-60121485D02*
X54734523Y-60121485D01*
X82971095Y-48898319D02*
X82971095Y-49707842D01*
X82971095Y-49707842D02*
X83018714Y-49803080D01*
X83018714Y-49803080D02*
X83066333Y-49850700D01*
X83066333Y-49850700D02*
X83161571Y-49898319D01*
X83161571Y-49898319D02*
X83352047Y-49898319D01*
X83352047Y-49898319D02*
X83447285Y-49850700D01*
X83447285Y-49850700D02*
X83494904Y-49803080D01*
X83494904Y-49803080D02*
X83542523Y-49707842D01*
X83542523Y-49707842D02*
X83542523Y-48898319D01*
X83971095Y-48993557D02*
X84018714Y-48945938D01*
X84018714Y-48945938D02*
X84113952Y-48898319D01*
X84113952Y-48898319D02*
X84352047Y-48898319D01*
X84352047Y-48898319D02*
X84447285Y-48945938D01*
X84447285Y-48945938D02*
X84494904Y-48993557D01*
X84494904Y-48993557D02*
X84542523Y-49088795D01*
X84542523Y-49088795D02*
X84542523Y-49184033D01*
X84542523Y-49184033D02*
X84494904Y-49326890D01*
X84494904Y-49326890D02*
X83923476Y-49898319D01*
X83923476Y-49898319D02*
X84542523Y-49898319D01*
X88590761Y-58006057D02*
X88495523Y-57958438D01*
X88495523Y-57958438D02*
X88400285Y-57863200D01*
X88400285Y-57863200D02*
X88257428Y-57720342D01*
X88257428Y-57720342D02*
X88162190Y-57672723D01*
X88162190Y-57672723D02*
X88066952Y-57672723D01*
X88114571Y-57910819D02*
X88019333Y-57863200D01*
X88019333Y-57863200D02*
X87924095Y-57767961D01*
X87924095Y-57767961D02*
X87876476Y-57577485D01*
X87876476Y-57577485D02*
X87876476Y-57244152D01*
X87876476Y-57244152D02*
X87924095Y-57053676D01*
X87924095Y-57053676D02*
X88019333Y-56958438D01*
X88019333Y-56958438D02*
X88114571Y-56910819D01*
X88114571Y-56910819D02*
X88305047Y-56910819D01*
X88305047Y-56910819D02*
X88400285Y-56958438D01*
X88400285Y-56958438D02*
X88495523Y-57053676D01*
X88495523Y-57053676D02*
X88543142Y-57244152D01*
X88543142Y-57244152D02*
X88543142Y-57577485D01*
X88543142Y-57577485D02*
X88495523Y-57767961D01*
X88495523Y-57767961D02*
X88400285Y-57863200D01*
X88400285Y-57863200D02*
X88305047Y-57910819D01*
X88305047Y-57910819D02*
X88114571Y-57910819D01*
X88924095Y-57006057D02*
X88971714Y-56958438D01*
X88971714Y-56958438D02*
X89066952Y-56910819D01*
X89066952Y-56910819D02*
X89305047Y-56910819D01*
X89305047Y-56910819D02*
X89400285Y-56958438D01*
X89400285Y-56958438D02*
X89447904Y-57006057D01*
X89447904Y-57006057D02*
X89495523Y-57101295D01*
X89495523Y-57101295D02*
X89495523Y-57196533D01*
X89495523Y-57196533D02*
X89447904Y-57339390D01*
X89447904Y-57339390D02*
X88876476Y-57910819D01*
X88876476Y-57910819D02*
X89495523Y-57910819D01*
X52732142Y-62179819D02*
X52398809Y-61703628D01*
X52160714Y-62179819D02*
X52160714Y-61179819D01*
X52160714Y-61179819D02*
X52541666Y-61179819D01*
X52541666Y-61179819D02*
X52636904Y-61227438D01*
X52636904Y-61227438D02*
X52684523Y-61275057D01*
X52684523Y-61275057D02*
X52732142Y-61370295D01*
X52732142Y-61370295D02*
X52732142Y-61513152D01*
X52732142Y-61513152D02*
X52684523Y-61608390D01*
X52684523Y-61608390D02*
X52636904Y-61656009D01*
X52636904Y-61656009D02*
X52541666Y-61703628D01*
X52541666Y-61703628D02*
X52160714Y-61703628D01*
X53684523Y-62179819D02*
X53113095Y-62179819D01*
X53398809Y-62179819D02*
X53398809Y-61179819D01*
X53398809Y-61179819D02*
X53303571Y-61322676D01*
X53303571Y-61322676D02*
X53208333Y-61417914D01*
X53208333Y-61417914D02*
X53113095Y-61465533D01*
X54017857Y-61179819D02*
X54684523Y-61179819D01*
X54684523Y-61179819D02*
X54255952Y-62179819D01*
X95734580Y-42792857D02*
X95782200Y-42840476D01*
X95782200Y-42840476D02*
X95829819Y-42983333D01*
X95829819Y-42983333D02*
X95829819Y-43078571D01*
X95829819Y-43078571D02*
X95782200Y-43221428D01*
X95782200Y-43221428D02*
X95686961Y-43316666D01*
X95686961Y-43316666D02*
X95591723Y-43364285D01*
X95591723Y-43364285D02*
X95401247Y-43411904D01*
X95401247Y-43411904D02*
X95258390Y-43411904D01*
X95258390Y-43411904D02*
X95067914Y-43364285D01*
X95067914Y-43364285D02*
X94972676Y-43316666D01*
X94972676Y-43316666D02*
X94877438Y-43221428D01*
X94877438Y-43221428D02*
X94829819Y-43078571D01*
X94829819Y-43078571D02*
X94829819Y-42983333D01*
X94829819Y-42983333D02*
X94877438Y-42840476D01*
X94877438Y-42840476D02*
X94925057Y-42792857D01*
X95829819Y-41840476D02*
X95829819Y-42411904D01*
X95829819Y-42126190D02*
X94829819Y-42126190D01*
X94829819Y-42126190D02*
X94972676Y-42221428D01*
X94972676Y-42221428D02*
X95067914Y-42316666D01*
X95067914Y-42316666D02*
X95115533Y-42411904D01*
X94925057Y-41459523D02*
X94877438Y-41411904D01*
X94877438Y-41411904D02*
X94829819Y-41316666D01*
X94829819Y-41316666D02*
X94829819Y-41078571D01*
X94829819Y-41078571D02*
X94877438Y-40983333D01*
X94877438Y-40983333D02*
X94925057Y-40935714D01*
X94925057Y-40935714D02*
X95020295Y-40888095D01*
X95020295Y-40888095D02*
X95115533Y-40888095D01*
X95115533Y-40888095D02*
X95258390Y-40935714D01*
X95258390Y-40935714D02*
X95829819Y-41507142D01*
X95829819Y-41507142D02*
X95829819Y-40888095D01*
X45125129Y-58099819D02*
X44791796Y-57623628D01*
X44553701Y-58099819D02*
X44553701Y-57099819D01*
X44553701Y-57099819D02*
X44934653Y-57099819D01*
X44934653Y-57099819D02*
X45029891Y-57147438D01*
X45029891Y-57147438D02*
X45077510Y-57195057D01*
X45077510Y-57195057D02*
X45125129Y-57290295D01*
X45125129Y-57290295D02*
X45125129Y-57433152D01*
X45125129Y-57433152D02*
X45077510Y-57528390D01*
X45077510Y-57528390D02*
X45029891Y-57576009D01*
X45029891Y-57576009D02*
X44934653Y-57623628D01*
X44934653Y-57623628D02*
X44553701Y-57623628D01*
X45506082Y-57195057D02*
X45553701Y-57147438D01*
X45553701Y-57147438D02*
X45648939Y-57099819D01*
X45648939Y-57099819D02*
X45887034Y-57099819D01*
X45887034Y-57099819D02*
X45982272Y-57147438D01*
X45982272Y-57147438D02*
X46029891Y-57195057D01*
X46029891Y-57195057D02*
X46077510Y-57290295D01*
X46077510Y-57290295D02*
X46077510Y-57385533D01*
X46077510Y-57385533D02*
X46029891Y-57528390D01*
X46029891Y-57528390D02*
X45458463Y-58099819D01*
X45458463Y-58099819D02*
X46077510Y-58099819D01*
X39765819Y-46730857D02*
X39289628Y-47064190D01*
X39765819Y-47302285D02*
X38765819Y-47302285D01*
X38765819Y-47302285D02*
X38765819Y-46921333D01*
X38765819Y-46921333D02*
X38813438Y-46826095D01*
X38813438Y-46826095D02*
X38861057Y-46778476D01*
X38861057Y-46778476D02*
X38956295Y-46730857D01*
X38956295Y-46730857D02*
X39099152Y-46730857D01*
X39099152Y-46730857D02*
X39194390Y-46778476D01*
X39194390Y-46778476D02*
X39242009Y-46826095D01*
X39242009Y-46826095D02*
X39289628Y-46921333D01*
X39289628Y-46921333D02*
X39289628Y-47302285D01*
X38861057Y-46349904D02*
X38813438Y-46302285D01*
X38813438Y-46302285D02*
X38765819Y-46207047D01*
X38765819Y-46207047D02*
X38765819Y-45968952D01*
X38765819Y-45968952D02*
X38813438Y-45873714D01*
X38813438Y-45873714D02*
X38861057Y-45826095D01*
X38861057Y-45826095D02*
X38956295Y-45778476D01*
X38956295Y-45778476D02*
X39051533Y-45778476D01*
X39051533Y-45778476D02*
X39194390Y-45826095D01*
X39194390Y-45826095D02*
X39765819Y-46397523D01*
X39765819Y-46397523D02*
X39765819Y-45778476D01*
X38765819Y-45445142D02*
X38765819Y-44826095D01*
X38765819Y-44826095D02*
X39146771Y-45159428D01*
X39146771Y-45159428D02*
X39146771Y-45016571D01*
X39146771Y-45016571D02*
X39194390Y-44921333D01*
X39194390Y-44921333D02*
X39242009Y-44873714D01*
X39242009Y-44873714D02*
X39337247Y-44826095D01*
X39337247Y-44826095D02*
X39575342Y-44826095D01*
X39575342Y-44826095D02*
X39670580Y-44873714D01*
X39670580Y-44873714D02*
X39718200Y-44921333D01*
X39718200Y-44921333D02*
X39765819Y-45016571D01*
X39765819Y-45016571D02*
X39765819Y-45302285D01*
X39765819Y-45302285D02*
X39718200Y-45397523D01*
X39718200Y-45397523D02*
X39670580Y-45445142D01*
X81266819Y-49208857D02*
X80790628Y-49542190D01*
X81266819Y-49780285D02*
X80266819Y-49780285D01*
X80266819Y-49780285D02*
X80266819Y-49399333D01*
X80266819Y-49399333D02*
X80314438Y-49304095D01*
X80314438Y-49304095D02*
X80362057Y-49256476D01*
X80362057Y-49256476D02*
X80457295Y-49208857D01*
X80457295Y-49208857D02*
X80600152Y-49208857D01*
X80600152Y-49208857D02*
X80695390Y-49256476D01*
X80695390Y-49256476D02*
X80743009Y-49304095D01*
X80743009Y-49304095D02*
X80790628Y-49399333D01*
X80790628Y-49399333D02*
X80790628Y-49780285D01*
X81266819Y-48256476D02*
X81266819Y-48827904D01*
X81266819Y-48542190D02*
X80266819Y-48542190D01*
X80266819Y-48542190D02*
X80409676Y-48637428D01*
X80409676Y-48637428D02*
X80504914Y-48732666D01*
X80504914Y-48732666D02*
X80552533Y-48827904D01*
X81266819Y-47304095D02*
X81266819Y-47875523D01*
X81266819Y-47589809D02*
X80266819Y-47589809D01*
X80266819Y-47589809D02*
X80409676Y-47685047D01*
X80409676Y-47685047D02*
X80504914Y-47780285D01*
X80504914Y-47780285D02*
X80552533Y-47875523D01*
X44637615Y-35105621D02*
X44685235Y-35153240D01*
X44685235Y-35153240D02*
X44732854Y-35296097D01*
X44732854Y-35296097D02*
X44732854Y-35391335D01*
X44732854Y-35391335D02*
X44685235Y-35534192D01*
X44685235Y-35534192D02*
X44589996Y-35629430D01*
X44589996Y-35629430D02*
X44494758Y-35677049D01*
X44494758Y-35677049D02*
X44304282Y-35724668D01*
X44304282Y-35724668D02*
X44161425Y-35724668D01*
X44161425Y-35724668D02*
X43970949Y-35677049D01*
X43970949Y-35677049D02*
X43875711Y-35629430D01*
X43875711Y-35629430D02*
X43780473Y-35534192D01*
X43780473Y-35534192D02*
X43732854Y-35391335D01*
X43732854Y-35391335D02*
X43732854Y-35296097D01*
X43732854Y-35296097D02*
X43780473Y-35153240D01*
X43780473Y-35153240D02*
X43828092Y-35105621D01*
X44066187Y-34248478D02*
X44732854Y-34248478D01*
X43685235Y-34486573D02*
X44399520Y-34724668D01*
X44399520Y-34724668D02*
X44399520Y-34105621D01*
X65952580Y-30103357D02*
X66000200Y-30150976D01*
X66000200Y-30150976D02*
X66047819Y-30293833D01*
X66047819Y-30293833D02*
X66047819Y-30389071D01*
X66047819Y-30389071D02*
X66000200Y-30531928D01*
X66000200Y-30531928D02*
X65904961Y-30627166D01*
X65904961Y-30627166D02*
X65809723Y-30674785D01*
X65809723Y-30674785D02*
X65619247Y-30722404D01*
X65619247Y-30722404D02*
X65476390Y-30722404D01*
X65476390Y-30722404D02*
X65285914Y-30674785D01*
X65285914Y-30674785D02*
X65190676Y-30627166D01*
X65190676Y-30627166D02*
X65095438Y-30531928D01*
X65095438Y-30531928D02*
X65047819Y-30389071D01*
X65047819Y-30389071D02*
X65047819Y-30293833D01*
X65047819Y-30293833D02*
X65095438Y-30150976D01*
X65095438Y-30150976D02*
X65143057Y-30103357D01*
X66047819Y-29150976D02*
X66047819Y-29722404D01*
X66047819Y-29436690D02*
X65047819Y-29436690D01*
X65047819Y-29436690D02*
X65190676Y-29531928D01*
X65190676Y-29531928D02*
X65285914Y-29627166D01*
X65285914Y-29627166D02*
X65333533Y-29722404D01*
X65047819Y-28531928D02*
X65047819Y-28436690D01*
X65047819Y-28436690D02*
X65095438Y-28341452D01*
X65095438Y-28341452D02*
X65143057Y-28293833D01*
X65143057Y-28293833D02*
X65238295Y-28246214D01*
X65238295Y-28246214D02*
X65428771Y-28198595D01*
X65428771Y-28198595D02*
X65666866Y-28198595D01*
X65666866Y-28198595D02*
X65857342Y-28246214D01*
X65857342Y-28246214D02*
X65952580Y-28293833D01*
X65952580Y-28293833D02*
X66000200Y-28341452D01*
X66000200Y-28341452D02*
X66047819Y-28436690D01*
X66047819Y-28436690D02*
X66047819Y-28531928D01*
X66047819Y-28531928D02*
X66000200Y-28627166D01*
X66000200Y-28627166D02*
X65952580Y-28674785D01*
X65952580Y-28674785D02*
X65857342Y-28722404D01*
X65857342Y-28722404D02*
X65666866Y-28770023D01*
X65666866Y-28770023D02*
X65428771Y-28770023D01*
X65428771Y-28770023D02*
X65238295Y-28722404D01*
X65238295Y-28722404D02*
X65143057Y-28674785D01*
X65143057Y-28674785D02*
X65095438Y-28627166D01*
X65095438Y-28627166D02*
X65047819Y-28531928D01*
X94125580Y-52891857D02*
X94173200Y-52939476D01*
X94173200Y-52939476D02*
X94220819Y-53082333D01*
X94220819Y-53082333D02*
X94220819Y-53177571D01*
X94220819Y-53177571D02*
X94173200Y-53320428D01*
X94173200Y-53320428D02*
X94077961Y-53415666D01*
X94077961Y-53415666D02*
X93982723Y-53463285D01*
X93982723Y-53463285D02*
X93792247Y-53510904D01*
X93792247Y-53510904D02*
X93649390Y-53510904D01*
X93649390Y-53510904D02*
X93458914Y-53463285D01*
X93458914Y-53463285D02*
X93363676Y-53415666D01*
X93363676Y-53415666D02*
X93268438Y-53320428D01*
X93268438Y-53320428D02*
X93220819Y-53177571D01*
X93220819Y-53177571D02*
X93220819Y-53082333D01*
X93220819Y-53082333D02*
X93268438Y-52939476D01*
X93268438Y-52939476D02*
X93316057Y-52891857D01*
X93316057Y-52510904D02*
X93268438Y-52463285D01*
X93268438Y-52463285D02*
X93220819Y-52368047D01*
X93220819Y-52368047D02*
X93220819Y-52129952D01*
X93220819Y-52129952D02*
X93268438Y-52034714D01*
X93268438Y-52034714D02*
X93316057Y-51987095D01*
X93316057Y-51987095D02*
X93411295Y-51939476D01*
X93411295Y-51939476D02*
X93506533Y-51939476D01*
X93506533Y-51939476D02*
X93649390Y-51987095D01*
X93649390Y-51987095D02*
X94220819Y-52558523D01*
X94220819Y-52558523D02*
X94220819Y-51939476D01*
X93316057Y-51558523D02*
X93268438Y-51510904D01*
X93268438Y-51510904D02*
X93220819Y-51415666D01*
X93220819Y-51415666D02*
X93220819Y-51177571D01*
X93220819Y-51177571D02*
X93268438Y-51082333D01*
X93268438Y-51082333D02*
X93316057Y-51034714D01*
X93316057Y-51034714D02*
X93411295Y-50987095D01*
X93411295Y-50987095D02*
X93506533Y-50987095D01*
X93506533Y-50987095D02*
X93649390Y-51034714D01*
X93649390Y-51034714D02*
X94220819Y-51606142D01*
X94220819Y-51606142D02*
X94220819Y-50987095D01*
X98457142Y-44909580D02*
X98409523Y-44957200D01*
X98409523Y-44957200D02*
X98266666Y-45004819D01*
X98266666Y-45004819D02*
X98171428Y-45004819D01*
X98171428Y-45004819D02*
X98028571Y-44957200D01*
X98028571Y-44957200D02*
X97933333Y-44861961D01*
X97933333Y-44861961D02*
X97885714Y-44766723D01*
X97885714Y-44766723D02*
X97838095Y-44576247D01*
X97838095Y-44576247D02*
X97838095Y-44433390D01*
X97838095Y-44433390D02*
X97885714Y-44242914D01*
X97885714Y-44242914D02*
X97933333Y-44147676D01*
X97933333Y-44147676D02*
X98028571Y-44052438D01*
X98028571Y-44052438D02*
X98171428Y-44004819D01*
X98171428Y-44004819D02*
X98266666Y-44004819D01*
X98266666Y-44004819D02*
X98409523Y-44052438D01*
X98409523Y-44052438D02*
X98457142Y-44100057D01*
X99409523Y-45004819D02*
X98838095Y-45004819D01*
X99123809Y-45004819D02*
X99123809Y-44004819D01*
X99123809Y-44004819D02*
X99028571Y-44147676D01*
X99028571Y-44147676D02*
X98933333Y-44242914D01*
X98933333Y-44242914D02*
X98838095Y-44290533D01*
X99980952Y-44433390D02*
X99885714Y-44385771D01*
X99885714Y-44385771D02*
X99838095Y-44338152D01*
X99838095Y-44338152D02*
X99790476Y-44242914D01*
X99790476Y-44242914D02*
X99790476Y-44195295D01*
X99790476Y-44195295D02*
X99838095Y-44100057D01*
X99838095Y-44100057D02*
X99885714Y-44052438D01*
X99885714Y-44052438D02*
X99980952Y-44004819D01*
X99980952Y-44004819D02*
X100171428Y-44004819D01*
X100171428Y-44004819D02*
X100266666Y-44052438D01*
X100266666Y-44052438D02*
X100314285Y-44100057D01*
X100314285Y-44100057D02*
X100361904Y-44195295D01*
X100361904Y-44195295D02*
X100361904Y-44242914D01*
X100361904Y-44242914D02*
X100314285Y-44338152D01*
X100314285Y-44338152D02*
X100266666Y-44385771D01*
X100266666Y-44385771D02*
X100171428Y-44433390D01*
X100171428Y-44433390D02*
X99980952Y-44433390D01*
X99980952Y-44433390D02*
X99885714Y-44481009D01*
X99885714Y-44481009D02*
X99838095Y-44528628D01*
X99838095Y-44528628D02*
X99790476Y-44623866D01*
X99790476Y-44623866D02*
X99790476Y-44814342D01*
X99790476Y-44814342D02*
X99838095Y-44909580D01*
X99838095Y-44909580D02*
X99885714Y-44957200D01*
X99885714Y-44957200D02*
X99980952Y-45004819D01*
X99980952Y-45004819D02*
X100171428Y-45004819D01*
X100171428Y-45004819D02*
X100266666Y-44957200D01*
X100266666Y-44957200D02*
X100314285Y-44909580D01*
X100314285Y-44909580D02*
X100361904Y-44814342D01*
X100361904Y-44814342D02*
X100361904Y-44623866D01*
X100361904Y-44623866D02*
X100314285Y-44528628D01*
X100314285Y-44528628D02*
X100266666Y-44481009D01*
X100266666Y-44481009D02*
X100171428Y-44433390D01*
X81211554Y-37769589D02*
X80211554Y-37769589D01*
X80211554Y-37769589D02*
X80211554Y-37531494D01*
X80211554Y-37531494D02*
X80259173Y-37388637D01*
X80259173Y-37388637D02*
X80354411Y-37293399D01*
X80354411Y-37293399D02*
X80449649Y-37245780D01*
X80449649Y-37245780D02*
X80640125Y-37198161D01*
X80640125Y-37198161D02*
X80782982Y-37198161D01*
X80782982Y-37198161D02*
X80973458Y-37245780D01*
X80973458Y-37245780D02*
X81068696Y-37293399D01*
X81068696Y-37293399D02*
X81163935Y-37388637D01*
X81163935Y-37388637D02*
X81211554Y-37531494D01*
X81211554Y-37531494D02*
X81211554Y-37769589D01*
X80211554Y-36341018D02*
X80211554Y-36531494D01*
X80211554Y-36531494D02*
X80259173Y-36626732D01*
X80259173Y-36626732D02*
X80306792Y-36674351D01*
X80306792Y-36674351D02*
X80449649Y-36769589D01*
X80449649Y-36769589D02*
X80640125Y-36817208D01*
X80640125Y-36817208D02*
X81021077Y-36817208D01*
X81021077Y-36817208D02*
X81116315Y-36769589D01*
X81116315Y-36769589D02*
X81163935Y-36721970D01*
X81163935Y-36721970D02*
X81211554Y-36626732D01*
X81211554Y-36626732D02*
X81211554Y-36436256D01*
X81211554Y-36436256D02*
X81163935Y-36341018D01*
X81163935Y-36341018D02*
X81116315Y-36293399D01*
X81116315Y-36293399D02*
X81021077Y-36245780D01*
X81021077Y-36245780D02*
X80782982Y-36245780D01*
X80782982Y-36245780D02*
X80687744Y-36293399D01*
X80687744Y-36293399D02*
X80640125Y-36341018D01*
X80640125Y-36341018D02*
X80592506Y-36436256D01*
X80592506Y-36436256D02*
X80592506Y-36626732D01*
X80592506Y-36626732D02*
X80640125Y-36721970D01*
X80640125Y-36721970D02*
X80687744Y-36769589D01*
X80687744Y-36769589D02*
X80782982Y-36817208D01*
X40316333Y-32628580D02*
X40268714Y-32676200D01*
X40268714Y-32676200D02*
X40125857Y-32723819D01*
X40125857Y-32723819D02*
X40030619Y-32723819D01*
X40030619Y-32723819D02*
X39887762Y-32676200D01*
X39887762Y-32676200D02*
X39792524Y-32580961D01*
X39792524Y-32580961D02*
X39744905Y-32485723D01*
X39744905Y-32485723D02*
X39697286Y-32295247D01*
X39697286Y-32295247D02*
X39697286Y-32152390D01*
X39697286Y-32152390D02*
X39744905Y-31961914D01*
X39744905Y-31961914D02*
X39792524Y-31866676D01*
X39792524Y-31866676D02*
X39887762Y-31771438D01*
X39887762Y-31771438D02*
X40030619Y-31723819D01*
X40030619Y-31723819D02*
X40125857Y-31723819D01*
X40125857Y-31723819D02*
X40268714Y-31771438D01*
X40268714Y-31771438D02*
X40316333Y-31819057D01*
X41221095Y-31723819D02*
X40744905Y-31723819D01*
X40744905Y-31723819D02*
X40697286Y-32200009D01*
X40697286Y-32200009D02*
X40744905Y-32152390D01*
X40744905Y-32152390D02*
X40840143Y-32104771D01*
X40840143Y-32104771D02*
X41078238Y-32104771D01*
X41078238Y-32104771D02*
X41173476Y-32152390D01*
X41173476Y-32152390D02*
X41221095Y-32200009D01*
X41221095Y-32200009D02*
X41268714Y-32295247D01*
X41268714Y-32295247D02*
X41268714Y-32533342D01*
X41268714Y-32533342D02*
X41221095Y-32628580D01*
X41221095Y-32628580D02*
X41173476Y-32676200D01*
X41173476Y-32676200D02*
X41078238Y-32723819D01*
X41078238Y-32723819D02*
X40840143Y-32723819D01*
X40840143Y-32723819D02*
X40744905Y-32676200D01*
X40744905Y-32676200D02*
X40697286Y-32628580D01*
X41044913Y-50511580D02*
X40997294Y-50559200D01*
X40997294Y-50559200D02*
X40854437Y-50606819D01*
X40854437Y-50606819D02*
X40759199Y-50606819D01*
X40759199Y-50606819D02*
X40616342Y-50559200D01*
X40616342Y-50559200D02*
X40521104Y-50463961D01*
X40521104Y-50463961D02*
X40473485Y-50368723D01*
X40473485Y-50368723D02*
X40425866Y-50178247D01*
X40425866Y-50178247D02*
X40425866Y-50035390D01*
X40425866Y-50035390D02*
X40473485Y-49844914D01*
X40473485Y-49844914D02*
X40521104Y-49749676D01*
X40521104Y-49749676D02*
X40616342Y-49654438D01*
X40616342Y-49654438D02*
X40759199Y-49606819D01*
X40759199Y-49606819D02*
X40854437Y-49606819D01*
X40854437Y-49606819D02*
X40997294Y-49654438D01*
X40997294Y-49654438D02*
X41044913Y-49702057D01*
X41425866Y-49702057D02*
X41473485Y-49654438D01*
X41473485Y-49654438D02*
X41568723Y-49606819D01*
X41568723Y-49606819D02*
X41806818Y-49606819D01*
X41806818Y-49606819D02*
X41902056Y-49654438D01*
X41902056Y-49654438D02*
X41949675Y-49702057D01*
X41949675Y-49702057D02*
X41997294Y-49797295D01*
X41997294Y-49797295D02*
X41997294Y-49892533D01*
X41997294Y-49892533D02*
X41949675Y-50035390D01*
X41949675Y-50035390D02*
X41378247Y-50606819D01*
X41378247Y-50606819D02*
X41997294Y-50606819D01*
X42616342Y-49606819D02*
X42711580Y-49606819D01*
X42711580Y-49606819D02*
X42806818Y-49654438D01*
X42806818Y-49654438D02*
X42854437Y-49702057D01*
X42854437Y-49702057D02*
X42902056Y-49797295D01*
X42902056Y-49797295D02*
X42949675Y-49987771D01*
X42949675Y-49987771D02*
X42949675Y-50225866D01*
X42949675Y-50225866D02*
X42902056Y-50416342D01*
X42902056Y-50416342D02*
X42854437Y-50511580D01*
X42854437Y-50511580D02*
X42806818Y-50559200D01*
X42806818Y-50559200D02*
X42711580Y-50606819D01*
X42711580Y-50606819D02*
X42616342Y-50606819D01*
X42616342Y-50606819D02*
X42521104Y-50559200D01*
X42521104Y-50559200D02*
X42473485Y-50511580D01*
X42473485Y-50511580D02*
X42425866Y-50416342D01*
X42425866Y-50416342D02*
X42378247Y-50225866D01*
X42378247Y-50225866D02*
X42378247Y-49987771D01*
X42378247Y-49987771D02*
X42425866Y-49797295D01*
X42425866Y-49797295D02*
X42473485Y-49702057D01*
X42473485Y-49702057D02*
X42521104Y-49654438D01*
X42521104Y-49654438D02*
X42616342Y-49606819D01*
X89738095Y-41304819D02*
X89738095Y-42114342D01*
X89738095Y-42114342D02*
X89785714Y-42209580D01*
X89785714Y-42209580D02*
X89833333Y-42257200D01*
X89833333Y-42257200D02*
X89928571Y-42304819D01*
X89928571Y-42304819D02*
X90119047Y-42304819D01*
X90119047Y-42304819D02*
X90214285Y-42257200D01*
X90214285Y-42257200D02*
X90261904Y-42209580D01*
X90261904Y-42209580D02*
X90309523Y-42114342D01*
X90309523Y-42114342D02*
X90309523Y-41304819D01*
X90690476Y-41304819D02*
X91309523Y-41304819D01*
X91309523Y-41304819D02*
X90976190Y-41685771D01*
X90976190Y-41685771D02*
X91119047Y-41685771D01*
X91119047Y-41685771D02*
X91214285Y-41733390D01*
X91214285Y-41733390D02*
X91261904Y-41781009D01*
X91261904Y-41781009D02*
X91309523Y-41876247D01*
X91309523Y-41876247D02*
X91309523Y-42114342D01*
X91309523Y-42114342D02*
X91261904Y-42209580D01*
X91261904Y-42209580D02*
X91214285Y-42257200D01*
X91214285Y-42257200D02*
X91119047Y-42304819D01*
X91119047Y-42304819D02*
X90833333Y-42304819D01*
X90833333Y-42304819D02*
X90738095Y-42257200D01*
X90738095Y-42257200D02*
X90690476Y-42209580D01*
X69913819Y-30139666D02*
X69437628Y-30472999D01*
X69913819Y-30711094D02*
X68913819Y-30711094D01*
X68913819Y-30711094D02*
X68913819Y-30330142D01*
X68913819Y-30330142D02*
X68961438Y-30234904D01*
X68961438Y-30234904D02*
X69009057Y-30187285D01*
X69009057Y-30187285D02*
X69104295Y-30139666D01*
X69104295Y-30139666D02*
X69247152Y-30139666D01*
X69247152Y-30139666D02*
X69342390Y-30187285D01*
X69342390Y-30187285D02*
X69390009Y-30234904D01*
X69390009Y-30234904D02*
X69437628Y-30330142D01*
X69437628Y-30330142D02*
X69437628Y-30711094D01*
X68913819Y-29234904D02*
X68913819Y-29711094D01*
X68913819Y-29711094D02*
X69390009Y-29758713D01*
X69390009Y-29758713D02*
X69342390Y-29711094D01*
X69342390Y-29711094D02*
X69294771Y-29615856D01*
X69294771Y-29615856D02*
X69294771Y-29377761D01*
X69294771Y-29377761D02*
X69342390Y-29282523D01*
X69342390Y-29282523D02*
X69390009Y-29234904D01*
X69390009Y-29234904D02*
X69485247Y-29187285D01*
X69485247Y-29187285D02*
X69723342Y-29187285D01*
X69723342Y-29187285D02*
X69818580Y-29234904D01*
X69818580Y-29234904D02*
X69866200Y-29282523D01*
X69866200Y-29282523D02*
X69913819Y-29377761D01*
X69913819Y-29377761D02*
X69913819Y-29615856D01*
X69913819Y-29615856D02*
X69866200Y-29711094D01*
X69866200Y-29711094D02*
X69818580Y-29758713D01*
X45327129Y-56398819D02*
X44993796Y-55922628D01*
X44755701Y-56398819D02*
X44755701Y-55398819D01*
X44755701Y-55398819D02*
X45136653Y-55398819D01*
X45136653Y-55398819D02*
X45231891Y-55446438D01*
X45231891Y-55446438D02*
X45279510Y-55494057D01*
X45279510Y-55494057D02*
X45327129Y-55589295D01*
X45327129Y-55589295D02*
X45327129Y-55732152D01*
X45327129Y-55732152D02*
X45279510Y-55827390D01*
X45279510Y-55827390D02*
X45231891Y-55875009D01*
X45231891Y-55875009D02*
X45136653Y-55922628D01*
X45136653Y-55922628D02*
X44755701Y-55922628D01*
X46279510Y-56398819D02*
X45708082Y-56398819D01*
X45993796Y-56398819D02*
X45993796Y-55398819D01*
X45993796Y-55398819D02*
X45898558Y-55541676D01*
X45898558Y-55541676D02*
X45803320Y-55636914D01*
X45803320Y-55636914D02*
X45708082Y-55684533D01*
X69488095Y-43804819D02*
X69488095Y-44614342D01*
X69488095Y-44614342D02*
X69535714Y-44709580D01*
X69535714Y-44709580D02*
X69583333Y-44757200D01*
X69583333Y-44757200D02*
X69678571Y-44804819D01*
X69678571Y-44804819D02*
X69869047Y-44804819D01*
X69869047Y-44804819D02*
X69964285Y-44757200D01*
X69964285Y-44757200D02*
X70011904Y-44709580D01*
X70011904Y-44709580D02*
X70059523Y-44614342D01*
X70059523Y-44614342D02*
X70059523Y-43804819D01*
X71059523Y-44804819D02*
X70488095Y-44804819D01*
X70773809Y-44804819D02*
X70773809Y-43804819D01*
X70773809Y-43804819D02*
X70678571Y-43947676D01*
X70678571Y-43947676D02*
X70583333Y-44042914D01*
X70583333Y-44042914D02*
X70488095Y-44090533D01*
X48246615Y-58025594D02*
X47246615Y-58025594D01*
X47246615Y-58025594D02*
X47246615Y-57787499D01*
X47246615Y-57787499D02*
X47294234Y-57644642D01*
X47294234Y-57644642D02*
X47389472Y-57549404D01*
X47389472Y-57549404D02*
X47484710Y-57501785D01*
X47484710Y-57501785D02*
X47675186Y-57454166D01*
X47675186Y-57454166D02*
X47818043Y-57454166D01*
X47818043Y-57454166D02*
X48008519Y-57501785D01*
X48008519Y-57501785D02*
X48103757Y-57549404D01*
X48103757Y-57549404D02*
X48198996Y-57644642D01*
X48198996Y-57644642D02*
X48246615Y-57787499D01*
X48246615Y-57787499D02*
X48246615Y-58025594D01*
X47246615Y-57120832D02*
X47246615Y-56501785D01*
X47246615Y-56501785D02*
X47627567Y-56835118D01*
X47627567Y-56835118D02*
X47627567Y-56692261D01*
X47627567Y-56692261D02*
X47675186Y-56597023D01*
X47675186Y-56597023D02*
X47722805Y-56549404D01*
X47722805Y-56549404D02*
X47818043Y-56501785D01*
X47818043Y-56501785D02*
X48056138Y-56501785D01*
X48056138Y-56501785D02*
X48151376Y-56549404D01*
X48151376Y-56549404D02*
X48198996Y-56597023D01*
X48198996Y-56597023D02*
X48246615Y-56692261D01*
X48246615Y-56692261D02*
X48246615Y-56977975D01*
X48246615Y-56977975D02*
X48198996Y-57073213D01*
X48198996Y-57073213D02*
X48151376Y-57120832D01*
X79742819Y-50478857D02*
X79266628Y-50812190D01*
X79742819Y-51050285D02*
X78742819Y-51050285D01*
X78742819Y-51050285D02*
X78742819Y-50669333D01*
X78742819Y-50669333D02*
X78790438Y-50574095D01*
X78790438Y-50574095D02*
X78838057Y-50526476D01*
X78838057Y-50526476D02*
X78933295Y-50478857D01*
X78933295Y-50478857D02*
X79076152Y-50478857D01*
X79076152Y-50478857D02*
X79171390Y-50526476D01*
X79171390Y-50526476D02*
X79219009Y-50574095D01*
X79219009Y-50574095D02*
X79266628Y-50669333D01*
X79266628Y-50669333D02*
X79266628Y-51050285D01*
X79742819Y-49526476D02*
X79742819Y-50097904D01*
X79742819Y-49812190D02*
X78742819Y-49812190D01*
X78742819Y-49812190D02*
X78885676Y-49907428D01*
X78885676Y-49907428D02*
X78980914Y-50002666D01*
X78980914Y-50002666D02*
X79028533Y-50097904D01*
X78742819Y-48907428D02*
X78742819Y-48812190D01*
X78742819Y-48812190D02*
X78790438Y-48716952D01*
X78790438Y-48716952D02*
X78838057Y-48669333D01*
X78838057Y-48669333D02*
X78933295Y-48621714D01*
X78933295Y-48621714D02*
X79123771Y-48574095D01*
X79123771Y-48574095D02*
X79361866Y-48574095D01*
X79361866Y-48574095D02*
X79552342Y-48621714D01*
X79552342Y-48621714D02*
X79647580Y-48669333D01*
X79647580Y-48669333D02*
X79695200Y-48716952D01*
X79695200Y-48716952D02*
X79742819Y-48812190D01*
X79742819Y-48812190D02*
X79742819Y-48907428D01*
X79742819Y-48907428D02*
X79695200Y-49002666D01*
X79695200Y-49002666D02*
X79647580Y-49050285D01*
X79647580Y-49050285D02*
X79552342Y-49097904D01*
X79552342Y-49097904D02*
X79361866Y-49145523D01*
X79361866Y-49145523D02*
X79123771Y-49145523D01*
X79123771Y-49145523D02*
X78933295Y-49097904D01*
X78933295Y-49097904D02*
X78838057Y-49050285D01*
X78838057Y-49050285D02*
X78790438Y-49002666D01*
X78790438Y-49002666D02*
X78742819Y-48907428D01*
X81106142Y-58418819D02*
X80772809Y-57942628D01*
X80534714Y-58418819D02*
X80534714Y-57418819D01*
X80534714Y-57418819D02*
X80915666Y-57418819D01*
X80915666Y-57418819D02*
X81010904Y-57466438D01*
X81010904Y-57466438D02*
X81058523Y-57514057D01*
X81058523Y-57514057D02*
X81106142Y-57609295D01*
X81106142Y-57609295D02*
X81106142Y-57752152D01*
X81106142Y-57752152D02*
X81058523Y-57847390D01*
X81058523Y-57847390D02*
X81010904Y-57895009D01*
X81010904Y-57895009D02*
X80915666Y-57942628D01*
X80915666Y-57942628D02*
X80534714Y-57942628D01*
X82058523Y-58418819D02*
X81487095Y-58418819D01*
X81772809Y-58418819D02*
X81772809Y-57418819D01*
X81772809Y-57418819D02*
X81677571Y-57561676D01*
X81677571Y-57561676D02*
X81582333Y-57656914D01*
X81582333Y-57656914D02*
X81487095Y-57704533D01*
X82629952Y-57847390D02*
X82534714Y-57799771D01*
X82534714Y-57799771D02*
X82487095Y-57752152D01*
X82487095Y-57752152D02*
X82439476Y-57656914D01*
X82439476Y-57656914D02*
X82439476Y-57609295D01*
X82439476Y-57609295D02*
X82487095Y-57514057D01*
X82487095Y-57514057D02*
X82534714Y-57466438D01*
X82534714Y-57466438D02*
X82629952Y-57418819D01*
X82629952Y-57418819D02*
X82820428Y-57418819D01*
X82820428Y-57418819D02*
X82915666Y-57466438D01*
X82915666Y-57466438D02*
X82963285Y-57514057D01*
X82963285Y-57514057D02*
X83010904Y-57609295D01*
X83010904Y-57609295D02*
X83010904Y-57656914D01*
X83010904Y-57656914D02*
X82963285Y-57752152D01*
X82963285Y-57752152D02*
X82915666Y-57799771D01*
X82915666Y-57799771D02*
X82820428Y-57847390D01*
X82820428Y-57847390D02*
X82629952Y-57847390D01*
X82629952Y-57847390D02*
X82534714Y-57895009D01*
X82534714Y-57895009D02*
X82487095Y-57942628D01*
X82487095Y-57942628D02*
X82439476Y-58037866D01*
X82439476Y-58037866D02*
X82439476Y-58228342D01*
X82439476Y-58228342D02*
X82487095Y-58323580D01*
X82487095Y-58323580D02*
X82534714Y-58371200D01*
X82534714Y-58371200D02*
X82629952Y-58418819D01*
X82629952Y-58418819D02*
X82820428Y-58418819D01*
X82820428Y-58418819D02*
X82915666Y-58371200D01*
X82915666Y-58371200D02*
X82963285Y-58323580D01*
X82963285Y-58323580D02*
X83010904Y-58228342D01*
X83010904Y-58228342D02*
X83010904Y-58037866D01*
X83010904Y-58037866D02*
X82963285Y-57942628D01*
X82963285Y-57942628D02*
X82915666Y-57895009D01*
X82915666Y-57895009D02*
X82820428Y-57847390D01*
X40529819Y-40286904D02*
X41339342Y-40286904D01*
X41339342Y-40286904D02*
X41434580Y-40239285D01*
X41434580Y-40239285D02*
X41482200Y-40191666D01*
X41482200Y-40191666D02*
X41529819Y-40096428D01*
X41529819Y-40096428D02*
X41529819Y-39905952D01*
X41529819Y-39905952D02*
X41482200Y-39810714D01*
X41482200Y-39810714D02*
X41434580Y-39763095D01*
X41434580Y-39763095D02*
X41339342Y-39715476D01*
X41339342Y-39715476D02*
X40529819Y-39715476D01*
X41529819Y-39191666D02*
X41529819Y-39001190D01*
X41529819Y-39001190D02*
X41482200Y-38905952D01*
X41482200Y-38905952D02*
X41434580Y-38858333D01*
X41434580Y-38858333D02*
X41291723Y-38763095D01*
X41291723Y-38763095D02*
X41101247Y-38715476D01*
X41101247Y-38715476D02*
X40720295Y-38715476D01*
X40720295Y-38715476D02*
X40625057Y-38763095D01*
X40625057Y-38763095D02*
X40577438Y-38810714D01*
X40577438Y-38810714D02*
X40529819Y-38905952D01*
X40529819Y-38905952D02*
X40529819Y-39096428D01*
X40529819Y-39096428D02*
X40577438Y-39191666D01*
X40577438Y-39191666D02*
X40625057Y-39239285D01*
X40625057Y-39239285D02*
X40720295Y-39286904D01*
X40720295Y-39286904D02*
X40958390Y-39286904D01*
X40958390Y-39286904D02*
X41053628Y-39239285D01*
X41053628Y-39239285D02*
X41101247Y-39191666D01*
X41101247Y-39191666D02*
X41148866Y-39096428D01*
X41148866Y-39096428D02*
X41148866Y-38905952D01*
X41148866Y-38905952D02*
X41101247Y-38810714D01*
X41101247Y-38810714D02*
X41053628Y-38763095D01*
X41053628Y-38763095D02*
X40958390Y-38715476D01*
X96932142Y-48674819D02*
X96598809Y-48198628D01*
X96360714Y-48674819D02*
X96360714Y-47674819D01*
X96360714Y-47674819D02*
X96741666Y-47674819D01*
X96741666Y-47674819D02*
X96836904Y-47722438D01*
X96836904Y-47722438D02*
X96884523Y-47770057D01*
X96884523Y-47770057D02*
X96932142Y-47865295D01*
X96932142Y-47865295D02*
X96932142Y-48008152D01*
X96932142Y-48008152D02*
X96884523Y-48103390D01*
X96884523Y-48103390D02*
X96836904Y-48151009D01*
X96836904Y-48151009D02*
X96741666Y-48198628D01*
X96741666Y-48198628D02*
X96360714Y-48198628D01*
X97884523Y-48674819D02*
X97313095Y-48674819D01*
X97598809Y-48674819D02*
X97598809Y-47674819D01*
X97598809Y-47674819D02*
X97503571Y-47817676D01*
X97503571Y-47817676D02*
X97408333Y-47912914D01*
X97408333Y-47912914D02*
X97313095Y-47960533D01*
X98789285Y-47674819D02*
X98313095Y-47674819D01*
X98313095Y-47674819D02*
X98265476Y-48151009D01*
X98265476Y-48151009D02*
X98313095Y-48103390D01*
X98313095Y-48103390D02*
X98408333Y-48055771D01*
X98408333Y-48055771D02*
X98646428Y-48055771D01*
X98646428Y-48055771D02*
X98741666Y-48103390D01*
X98741666Y-48103390D02*
X98789285Y-48151009D01*
X98789285Y-48151009D02*
X98836904Y-48246247D01*
X98836904Y-48246247D02*
X98836904Y-48484342D01*
X98836904Y-48484342D02*
X98789285Y-48579580D01*
X98789285Y-48579580D02*
X98741666Y-48627200D01*
X98741666Y-48627200D02*
X98646428Y-48674819D01*
X98646428Y-48674819D02*
X98408333Y-48674819D01*
X98408333Y-48674819D02*
X98313095Y-48627200D01*
X98313095Y-48627200D02*
X98265476Y-48579580D01*
X48062333Y-29165819D02*
X47586143Y-29165819D01*
X47586143Y-29165819D02*
X47586143Y-28165819D01*
X48919476Y-29165819D02*
X48348048Y-29165819D01*
X48633762Y-29165819D02*
X48633762Y-28165819D01*
X48633762Y-28165819D02*
X48538524Y-28308676D01*
X48538524Y-28308676D02*
X48443286Y-28403914D01*
X48443286Y-28403914D02*
X48348048Y-28451533D01*
X49995833Y-45528580D02*
X49948214Y-45576200D01*
X49948214Y-45576200D02*
X49805357Y-45623819D01*
X49805357Y-45623819D02*
X49710119Y-45623819D01*
X49710119Y-45623819D02*
X49567262Y-45576200D01*
X49567262Y-45576200D02*
X49472024Y-45480961D01*
X49472024Y-45480961D02*
X49424405Y-45385723D01*
X49424405Y-45385723D02*
X49376786Y-45195247D01*
X49376786Y-45195247D02*
X49376786Y-45052390D01*
X49376786Y-45052390D02*
X49424405Y-44861914D01*
X49424405Y-44861914D02*
X49472024Y-44766676D01*
X49472024Y-44766676D02*
X49567262Y-44671438D01*
X49567262Y-44671438D02*
X49710119Y-44623819D01*
X49710119Y-44623819D02*
X49805357Y-44623819D01*
X49805357Y-44623819D02*
X49948214Y-44671438D01*
X49948214Y-44671438D02*
X49995833Y-44719057D01*
X50376786Y-44719057D02*
X50424405Y-44671438D01*
X50424405Y-44671438D02*
X50519643Y-44623819D01*
X50519643Y-44623819D02*
X50757738Y-44623819D01*
X50757738Y-44623819D02*
X50852976Y-44671438D01*
X50852976Y-44671438D02*
X50900595Y-44719057D01*
X50900595Y-44719057D02*
X50948214Y-44814295D01*
X50948214Y-44814295D02*
X50948214Y-44909533D01*
X50948214Y-44909533D02*
X50900595Y-45052390D01*
X50900595Y-45052390D02*
X50329167Y-45623819D01*
X50329167Y-45623819D02*
X50948214Y-45623819D01*
X49995833Y-47209580D02*
X49948214Y-47257200D01*
X49948214Y-47257200D02*
X49805357Y-47304819D01*
X49805357Y-47304819D02*
X49710119Y-47304819D01*
X49710119Y-47304819D02*
X49567262Y-47257200D01*
X49567262Y-47257200D02*
X49472024Y-47161961D01*
X49472024Y-47161961D02*
X49424405Y-47066723D01*
X49424405Y-47066723D02*
X49376786Y-46876247D01*
X49376786Y-46876247D02*
X49376786Y-46733390D01*
X49376786Y-46733390D02*
X49424405Y-46542914D01*
X49424405Y-46542914D02*
X49472024Y-46447676D01*
X49472024Y-46447676D02*
X49567262Y-46352438D01*
X49567262Y-46352438D02*
X49710119Y-46304819D01*
X49710119Y-46304819D02*
X49805357Y-46304819D01*
X49805357Y-46304819D02*
X49948214Y-46352438D01*
X49948214Y-46352438D02*
X49995833Y-46400057D01*
X50329167Y-46304819D02*
X50948214Y-46304819D01*
X50948214Y-46304819D02*
X50614881Y-46685771D01*
X50614881Y-46685771D02*
X50757738Y-46685771D01*
X50757738Y-46685771D02*
X50852976Y-46733390D01*
X50852976Y-46733390D02*
X50900595Y-46781009D01*
X50900595Y-46781009D02*
X50948214Y-46876247D01*
X50948214Y-46876247D02*
X50948214Y-47114342D01*
X50948214Y-47114342D02*
X50900595Y-47209580D01*
X50900595Y-47209580D02*
X50852976Y-47257200D01*
X50852976Y-47257200D02*
X50757738Y-47304819D01*
X50757738Y-47304819D02*
X50472024Y-47304819D01*
X50472024Y-47304819D02*
X50376786Y-47257200D01*
X50376786Y-47257200D02*
X50329167Y-47209580D01*
X86800476Y-65602295D02*
X86800476Y-66249914D01*
X86800476Y-66249914D02*
X86838571Y-66326104D01*
X86838571Y-66326104D02*
X86876666Y-66364200D01*
X86876666Y-66364200D02*
X86952857Y-66402295D01*
X86952857Y-66402295D02*
X87105238Y-66402295D01*
X87105238Y-66402295D02*
X87181428Y-66364200D01*
X87181428Y-66364200D02*
X87219523Y-66326104D01*
X87219523Y-66326104D02*
X87257619Y-66249914D01*
X87257619Y-66249914D02*
X87257619Y-65602295D01*
X87981428Y-65868961D02*
X87981428Y-66402295D01*
X87790952Y-65564200D02*
X87600475Y-66135628D01*
X87600475Y-66135628D02*
X88095714Y-66135628D01*
X92341580Y-61271357D02*
X92389200Y-61318976D01*
X92389200Y-61318976D02*
X92436819Y-61461833D01*
X92436819Y-61461833D02*
X92436819Y-61557071D01*
X92436819Y-61557071D02*
X92389200Y-61699928D01*
X92389200Y-61699928D02*
X92293961Y-61795166D01*
X92293961Y-61795166D02*
X92198723Y-61842785D01*
X92198723Y-61842785D02*
X92008247Y-61890404D01*
X92008247Y-61890404D02*
X91865390Y-61890404D01*
X91865390Y-61890404D02*
X91674914Y-61842785D01*
X91674914Y-61842785D02*
X91579676Y-61795166D01*
X91579676Y-61795166D02*
X91484438Y-61699928D01*
X91484438Y-61699928D02*
X91436819Y-61557071D01*
X91436819Y-61557071D02*
X91436819Y-61461833D01*
X91436819Y-61461833D02*
X91484438Y-61318976D01*
X91484438Y-61318976D02*
X91532057Y-61271357D01*
X92436819Y-60318976D02*
X92436819Y-60890404D01*
X92436819Y-60604690D02*
X91436819Y-60604690D01*
X91436819Y-60604690D02*
X91579676Y-60699928D01*
X91579676Y-60699928D02*
X91674914Y-60795166D01*
X91674914Y-60795166D02*
X91722533Y-60890404D01*
X91436819Y-59414214D02*
X91436819Y-59890404D01*
X91436819Y-59890404D02*
X91913009Y-59938023D01*
X91913009Y-59938023D02*
X91865390Y-59890404D01*
X91865390Y-59890404D02*
X91817771Y-59795166D01*
X91817771Y-59795166D02*
X91817771Y-59557071D01*
X91817771Y-59557071D02*
X91865390Y-59461833D01*
X91865390Y-59461833D02*
X91913009Y-59414214D01*
X91913009Y-59414214D02*
X92008247Y-59366595D01*
X92008247Y-59366595D02*
X92246342Y-59366595D01*
X92246342Y-59366595D02*
X92341580Y-59414214D01*
X92341580Y-59414214D02*
X92389200Y-59461833D01*
X92389200Y-59461833D02*
X92436819Y-59557071D01*
X92436819Y-59557071D02*
X92436819Y-59795166D01*
X92436819Y-59795166D02*
X92389200Y-59890404D01*
X92389200Y-59890404D02*
X92341580Y-59938023D01*
X39141373Y-37929651D02*
X38808040Y-37453460D01*
X38569945Y-37929651D02*
X38569945Y-36929651D01*
X38569945Y-36929651D02*
X38950897Y-36929651D01*
X38950897Y-36929651D02*
X39046135Y-36977270D01*
X39046135Y-36977270D02*
X39093754Y-37024889D01*
X39093754Y-37024889D02*
X39141373Y-37120127D01*
X39141373Y-37120127D02*
X39141373Y-37262984D01*
X39141373Y-37262984D02*
X39093754Y-37358222D01*
X39093754Y-37358222D02*
X39046135Y-37405841D01*
X39046135Y-37405841D02*
X38950897Y-37453460D01*
X38950897Y-37453460D02*
X38569945Y-37453460D01*
X39522326Y-37024889D02*
X39569945Y-36977270D01*
X39569945Y-36977270D02*
X39665183Y-36929651D01*
X39665183Y-36929651D02*
X39903278Y-36929651D01*
X39903278Y-36929651D02*
X39998516Y-36977270D01*
X39998516Y-36977270D02*
X40046135Y-37024889D01*
X40046135Y-37024889D02*
X40093754Y-37120127D01*
X40093754Y-37120127D02*
X40093754Y-37215365D01*
X40093754Y-37215365D02*
X40046135Y-37358222D01*
X40046135Y-37358222D02*
X39474707Y-37929651D01*
X39474707Y-37929651D02*
X40093754Y-37929651D01*
X41046135Y-37929651D02*
X40474707Y-37929651D01*
X40760421Y-37929651D02*
X40760421Y-36929651D01*
X40760421Y-36929651D02*
X40665183Y-37072508D01*
X40665183Y-37072508D02*
X40569945Y-37167746D01*
X40569945Y-37167746D02*
X40474707Y-37215365D01*
D14*
X54627500Y-44004724D02*
X54627500Y-43495276D01*
X55672500Y-44004724D02*
X55672500Y-43495276D01*
X38843796Y-52024000D02*
X40543796Y-52024000D01*
X38843796Y-61364000D02*
X40543796Y-61364000D01*
X48253796Y-51494000D02*
X44593796Y-51494000D01*
X48253796Y-53394000D02*
X44593796Y-53394000D01*
X48253796Y-53394000D02*
X48253796Y-51494000D01*
X48731796Y-53053733D02*
X48731796Y-53346267D01*
X49751796Y-53053733D02*
X49751796Y-53346267D01*
X91732000Y-55277733D02*
X91732000Y-55570267D01*
X92752000Y-55277733D02*
X92752000Y-55570267D01*
X40312500Y-42532724D02*
X40312500Y-42023276D01*
X41357500Y-42532724D02*
X41357500Y-42023276D01*
X84370500Y-60907776D02*
X84370500Y-61417224D01*
X85415500Y-60907776D02*
X85415500Y-61417224D01*
X96594000Y-39202267D02*
X96594000Y-38909733D01*
X97614000Y-39202267D02*
X97614000Y-38909733D01*
X57585000Y-36486267D02*
X57585000Y-36193733D01*
X58605000Y-36486267D02*
X58605000Y-36193733D01*
X54971500Y-64822000D02*
X54971500Y-64172000D01*
X54971500Y-64822000D02*
X54971500Y-65472000D01*
X58091500Y-64822000D02*
X58091500Y-64172000D01*
X58091500Y-64822000D02*
X58091500Y-65472000D01*
X58371500Y-63899500D02*
X58041500Y-63659500D01*
X58371500Y-63419500D01*
X58371500Y-63899500D01*
G36*
X58371500Y-63899500D02*
G01*
X58041500Y-63659500D01*
X58371500Y-63419500D01*
X58371500Y-63899500D01*
G37*
X93745276Y-47027500D02*
X94254724Y-47027500D01*
X93745276Y-48072500D02*
X94254724Y-48072500D01*
X52865000Y-42090000D02*
X52865000Y-44550000D01*
X54335000Y-42090000D02*
X52865000Y-42090000D01*
X54335000Y-44550000D02*
X54335000Y-42090000D01*
X95921267Y-45465000D02*
X95628733Y-45465000D01*
X95921267Y-46485000D02*
X95628733Y-46485000D01*
X86893500Y-50344724D02*
X86893500Y-49835276D01*
X87938500Y-50344724D02*
X87938500Y-49835276D01*
X55970000Y-36486267D02*
X55970000Y-36193733D01*
X56990000Y-36486267D02*
X56990000Y-36193733D01*
D15*
G36*
X46713842Y-62261043D02*
G01*
X46817853Y-62331060D01*
X46943384Y-62462030D01*
X47052812Y-62639895D01*
X47130833Y-62829166D01*
X47162142Y-62994351D01*
X47143171Y-63085469D01*
X47050595Y-63183541D01*
X46946356Y-63182839D01*
X46812941Y-63081308D01*
X46775178Y-63042291D01*
X46634330Y-62850471D01*
X46544806Y-62645796D01*
X46515141Y-62458840D01*
X46553870Y-62320171D01*
X46568701Y-62302760D01*
X46639988Y-62249023D01*
X46713842Y-62261043D01*
G37*
G36*
X48210431Y-62915997D02*
G01*
X48215340Y-63028412D01*
X48187039Y-63166763D01*
X48131318Y-63290953D01*
X48100000Y-63330386D01*
X47980197Y-63421366D01*
X47854924Y-63432387D01*
X47717118Y-63388368D01*
X47586600Y-63314086D01*
X47571157Y-63243488D01*
X47670786Y-63177317D01*
X47718129Y-63160070D01*
X47883142Y-63083082D01*
X48012517Y-62985947D01*
X48015568Y-62982639D01*
X48108866Y-62897857D01*
X48166523Y-62869615D01*
X48210431Y-62915997D01*
G37*
G36*
X48066208Y-61595242D02*
G01*
X48088359Y-61608592D01*
X48231740Y-61748449D01*
X48352411Y-61951832D01*
X48425481Y-62168813D01*
X48434833Y-62303558D01*
X48395362Y-62456794D01*
X48315876Y-62503608D01*
X48193552Y-62444532D01*
X48105473Y-62365582D01*
X47978122Y-62196762D01*
X47878063Y-61994353D01*
X47864951Y-61955218D01*
X47824571Y-61793920D01*
X47829280Y-61697474D01*
X47881146Y-61623875D01*
X47881256Y-61623766D01*
X47968591Y-61566156D01*
X48066208Y-61595242D01*
G37*
G36*
X47756007Y-58816906D02*
G01*
X47912967Y-58926651D01*
X47949131Y-58970100D01*
X48025545Y-59088672D01*
X48032346Y-59178586D01*
X47981828Y-59286880D01*
X47852870Y-59421287D01*
X47717627Y-59460068D01*
X47614809Y-59480331D01*
X47547120Y-59534599D01*
X47492404Y-59650801D01*
X47443522Y-59805646D01*
X47386452Y-60032371D01*
X47345844Y-60255625D01*
X47334529Y-60363568D01*
X47322449Y-60593348D01*
X47709737Y-60632247D01*
X47970557Y-60676279D01*
X48239110Y-60749298D01*
X48400894Y-60811074D01*
X48569966Y-60906690D01*
X48757105Y-61039485D01*
X48937333Y-61187963D01*
X49085670Y-61330629D01*
X49177135Y-61445988D01*
X49194331Y-61493844D01*
X49235029Y-61484420D01*
X49343270Y-61414851D01*
X49498272Y-61298942D01*
X49551816Y-61256366D01*
X49916677Y-61004649D01*
X50273556Y-60836602D01*
X50611053Y-60750395D01*
X50917771Y-60744197D01*
X51182311Y-60816176D01*
X51393273Y-60964502D01*
X51539260Y-61187344D01*
X51608874Y-61482871D01*
X51613164Y-61587478D01*
X51560729Y-61976013D01*
X51409450Y-62381784D01*
X51169160Y-62783838D01*
X50897649Y-63111886D01*
X50801457Y-63218657D01*
X50751439Y-63285123D01*
X50749433Y-63291051D01*
X50801156Y-63310195D01*
X50933998Y-63334381D01*
X51050204Y-63349962D01*
X51394462Y-63428711D01*
X51691760Y-63569968D01*
X51925083Y-63759893D01*
X52077416Y-63984649D01*
X52131746Y-64229643D01*
X52076892Y-64450521D01*
X51923127Y-64656059D01*
X51686649Y-64835350D01*
X51383654Y-64977491D01*
X51030338Y-65071576D01*
X50843725Y-65096834D01*
X50480607Y-65130742D01*
X50312639Y-65512083D01*
X50225716Y-65728121D01*
X50174071Y-65919093D01*
X50148708Y-66131889D01*
X50140667Y-66408327D01*
X50132234Y-66659634D01*
X50112907Y-66842276D01*
X50085139Y-66935898D01*
X50076189Y-66943387D01*
X49997524Y-66926375D01*
X49857522Y-66861403D01*
X49734615Y-66791382D01*
X49547385Y-66696383D01*
X49293337Y-66593196D01*
X49017858Y-66499697D01*
X48926287Y-66472988D01*
X48677224Y-66402312D01*
X48455144Y-66336442D01*
X48294229Y-66285635D01*
X48249901Y-66270048D01*
X48151370Y-66244264D01*
X48083514Y-66276025D01*
X48012872Y-66386401D01*
X47987525Y-66435264D01*
X47839884Y-66659340D01*
X47630430Y-66896687D01*
X47393995Y-67113158D01*
X47165413Y-67274604D01*
X47093131Y-67312056D01*
X46818052Y-67398540D01*
X46559715Y-67409742D01*
X46350396Y-67344912D01*
X46326999Y-67329837D01*
X46150576Y-67139162D01*
X46055852Y-66880652D01*
X46047356Y-66656576D01*
X46315075Y-66656576D01*
X46329868Y-66873378D01*
X46382011Y-67015243D01*
X46429705Y-67074150D01*
X46542839Y-67161048D01*
X46665598Y-67182422D01*
X46833845Y-67140114D01*
X46935524Y-67100136D01*
X47170168Y-66962126D01*
X47417388Y-66749727D01*
X47643480Y-66494040D01*
X47738139Y-66359575D01*
X47882447Y-66134569D01*
X47674820Y-65956400D01*
X47673804Y-65955327D01*
X48268968Y-65955327D01*
X48276759Y-65993664D01*
X48373667Y-66040303D01*
X48567850Y-66105628D01*
X48716239Y-66152395D01*
X48966669Y-66224622D01*
X49147041Y-66251315D01*
X49294865Y-66228150D01*
X49447654Y-66150800D01*
X49592643Y-66051338D01*
X49781714Y-65897468D01*
X49917126Y-65733134D01*
X50035239Y-65512104D01*
X50059913Y-65457188D01*
X50151402Y-65227811D01*
X50225738Y-65002422D01*
X50263899Y-64844434D01*
X50301488Y-64609368D01*
X49906300Y-64992942D01*
X49396537Y-65408423D01*
X48820251Y-65729865D01*
X48488103Y-65862016D01*
X48342136Y-65914906D01*
X48268968Y-65955327D01*
X47673804Y-65955327D01*
X47527225Y-65800453D01*
X47376956Y-65596577D01*
X47303418Y-65474237D01*
X47139643Y-65170243D01*
X46868084Y-65460562D01*
X46583369Y-65826068D01*
X46397791Y-66203099D01*
X46317842Y-66577619D01*
X46315075Y-66656576D01*
X46047356Y-66656576D01*
X46044031Y-66568874D01*
X46116317Y-66218395D01*
X46214196Y-65965249D01*
X46352552Y-65663039D01*
X45714371Y-65663039D01*
X45426053Y-65660771D01*
X45220285Y-65650148D01*
X45064454Y-65625441D01*
X44925947Y-65580923D01*
X44772152Y-65510866D01*
X44730612Y-65490250D01*
X44432454Y-65307384D01*
X44241091Y-65105256D01*
X44148372Y-64872161D01*
X44140828Y-64643131D01*
X44156147Y-64587438D01*
X44387246Y-64587438D01*
X44392150Y-64812580D01*
X44501464Y-65018911D01*
X44704741Y-65196423D01*
X44991535Y-65335106D01*
X45239980Y-65404479D01*
X45461972Y-65428676D01*
X45748187Y-65429692D01*
X46050526Y-65409908D01*
X46320890Y-65371704D01*
X46432502Y-65345457D01*
X46584858Y-65279797D01*
X46770211Y-65170706D01*
X46865525Y-65103881D01*
X47011439Y-64986546D01*
X47086523Y-64888818D01*
X47114549Y-64764576D01*
X47119081Y-64611905D01*
X47118988Y-64457139D01*
X47380046Y-64457139D01*
X47387895Y-64756697D01*
X47398977Y-64987869D01*
X47427620Y-65124930D01*
X47489341Y-65188945D01*
X47599657Y-65200977D01*
X47707505Y-65190566D01*
X47902924Y-65151110D01*
X48139346Y-65082370D01*
X48288847Y-65028784D01*
X48615077Y-64879955D01*
X48948632Y-64692690D01*
X49266544Y-64483290D01*
X49545843Y-64268058D01*
X49763561Y-64063295D01*
X49894775Y-63888997D01*
X49921643Y-63805542D01*
X49890377Y-63724045D01*
X49789711Y-63616347D01*
X50190266Y-63616347D01*
X50354657Y-63942254D01*
X50478652Y-64253793D01*
X50519006Y-64544618D01*
X50519048Y-64554736D01*
X50519048Y-64841311D01*
X50880195Y-64818315D01*
X51145682Y-64781584D01*
X51385331Y-64714045D01*
X51467293Y-64678061D01*
X51639412Y-64566578D01*
X51783468Y-64436852D01*
X51808195Y-64406838D01*
X51880101Y-64296425D01*
X51889625Y-64206397D01*
X51840391Y-64079459D01*
X51830256Y-64058080D01*
X51672193Y-63859852D01*
X51481389Y-63739370D01*
X51267270Y-63663065D01*
X50997266Y-63604225D01*
X50715485Y-63568934D01*
X50466036Y-63563278D01*
X50331913Y-63580796D01*
X50190266Y-63616347D01*
X49789711Y-63616347D01*
X49785951Y-63612324D01*
X49750030Y-63578993D01*
X49613518Y-63467071D01*
X49501959Y-63398328D01*
X49466267Y-63387982D01*
X49389054Y-63423324D01*
X49252761Y-63516910D01*
X49084069Y-63650079D01*
X49047847Y-63680625D01*
X48746430Y-63908959D01*
X48412516Y-64114511D01*
X48078279Y-64280389D01*
X47775895Y-64389700D01*
X47642394Y-64418511D01*
X47380046Y-64457139D01*
X47118988Y-64457139D01*
X47118974Y-64432902D01*
X47116762Y-64303705D01*
X47114565Y-64266327D01*
X47060691Y-64225081D01*
X46932668Y-64172454D01*
X46869780Y-64152327D01*
X46696222Y-64078545D01*
X46485612Y-63958171D01*
X46315696Y-63840828D01*
X46000100Y-63600132D01*
X45688892Y-63665409D01*
X45331021Y-63771939D01*
X45002279Y-63928458D01*
X44723226Y-64120402D01*
X44514421Y-64333207D01*
X44396425Y-64552310D01*
X44387246Y-64587438D01*
X44156147Y-64587438D01*
X44226008Y-64333454D01*
X44421939Y-64050652D01*
X44717940Y-63801221D01*
X44916609Y-63684527D01*
X45157103Y-63570226D01*
X45402816Y-63473017D01*
X45617142Y-63407604D01*
X45746872Y-63387982D01*
X45832244Y-63365504D01*
X45826785Y-63287189D01*
X45791284Y-63177738D01*
X45740916Y-63001141D01*
X45702339Y-62856148D01*
X45654158Y-62445235D01*
X45667156Y-62353080D01*
X45926509Y-62353080D01*
X45941687Y-62754206D01*
X46053883Y-63114901D01*
X46249288Y-63426151D01*
X46514096Y-63678940D01*
X46834496Y-63864256D01*
X47196682Y-63973082D01*
X47586845Y-63996406D01*
X47991177Y-63925211D01*
X48210640Y-63844250D01*
X48522814Y-63656242D01*
X48809040Y-63392738D01*
X49027880Y-63092389D01*
X49039487Y-63071202D01*
X49063413Y-63014460D01*
X49380477Y-63014460D01*
X49398777Y-63087450D01*
X49435679Y-63100000D01*
X49528961Y-63131616D01*
X49666701Y-63210645D01*
X49714324Y-63243285D01*
X49916488Y-63347452D01*
X50114794Y-63357540D01*
X50324965Y-63269925D01*
X50562724Y-63080983D01*
X50608296Y-63037274D01*
X50891234Y-62721059D01*
X51110523Y-62396308D01*
X51263631Y-62076295D01*
X51348020Y-61774292D01*
X51361159Y-61503575D01*
X51300510Y-61277416D01*
X51163541Y-61109089D01*
X50992803Y-61023616D01*
X50708017Y-60996171D01*
X50383680Y-61067456D01*
X50032338Y-61233461D01*
X49757834Y-61418337D01*
X49571942Y-61565514D01*
X49463605Y-61672455D01*
X49414348Y-61762542D01*
X49405693Y-61859158D01*
X49405940Y-61863663D01*
X49423379Y-62204226D01*
X49429421Y-62457502D01*
X49423889Y-62650846D01*
X49406608Y-62811616D01*
X49399518Y-62855216D01*
X49380477Y-63014460D01*
X49063413Y-63014460D01*
X49112493Y-62898067D01*
X49151005Y-62697502D01*
X49162832Y-62427588D01*
X49162863Y-62408844D01*
X49134099Y-62040489D01*
X49038302Y-61741301D01*
X48861219Y-61478056D01*
X48688981Y-61304327D01*
X48400657Y-61091968D01*
X48089520Y-60966360D01*
X47727207Y-60918541D01*
X47481805Y-60922955D01*
X47148337Y-60959946D01*
X46884442Y-61037369D01*
X46646750Y-61172988D01*
X46422094Y-61357040D01*
X46153271Y-61668385D01*
X45987818Y-62027287D01*
X45926509Y-62353080D01*
X45667156Y-62353080D01*
X45713092Y-62027388D01*
X45875592Y-61627662D01*
X45876589Y-61625875D01*
X45958136Y-61457915D01*
X45972126Y-61358853D01*
X45949073Y-61323020D01*
X45813117Y-61255028D01*
X45603242Y-61195989D01*
X45360719Y-61155275D01*
X45152067Y-61142045D01*
X44979163Y-61151148D01*
X44887394Y-61187503D01*
X44844691Y-61260427D01*
X44765462Y-61374244D01*
X44666356Y-61443220D01*
X44547163Y-61475281D01*
X44434540Y-61435908D01*
X44368971Y-61390816D01*
X44232971Y-61235223D01*
X44197358Y-61064697D01*
X44323164Y-61064697D01*
X44358469Y-61203493D01*
X44462700Y-61297660D01*
X44596672Y-61301698D01*
X44698759Y-61231800D01*
X44733939Y-61115833D01*
X44684679Y-60999760D01*
X44574796Y-60922843D01*
X44504363Y-60911338D01*
X44374472Y-60954358D01*
X44323164Y-61064697D01*
X44197358Y-61064697D01*
X44196489Y-61060535D01*
X44263213Y-60893410D01*
X44295151Y-60857231D01*
X44424131Y-60760503D01*
X44548302Y-60754756D01*
X44698445Y-60841707D01*
X44748907Y-60882540D01*
X44875381Y-60969203D01*
X45017949Y-61012885D01*
X45222081Y-61026333D01*
X45262539Y-61026531D01*
X45512012Y-61042138D01*
X45768008Y-61081939D01*
X45886169Y-61111136D01*
X46167289Y-61195740D01*
X46456887Y-60997241D01*
X46648128Y-60876722D01*
X46833096Y-60777132D01*
X46930841Y-60735200D01*
X47047420Y-60681208D01*
X47110722Y-60598013D01*
X47146760Y-60446738D01*
X47153293Y-60402723D01*
X47196148Y-60201623D01*
X47268190Y-59955941D01*
X47335029Y-59768405D01*
X47412731Y-59548885D01*
X47438247Y-59411960D01*
X47414985Y-59339339D01*
X47414958Y-59339312D01*
X47359227Y-59214182D01*
X47359778Y-59175733D01*
X47479822Y-59175733D01*
X47526333Y-59272609D01*
X47612703Y-59345859D01*
X47717728Y-59342229D01*
X47778509Y-59321276D01*
X47852067Y-59240835D01*
X47863642Y-59112644D01*
X47813250Y-58986042D01*
X47778392Y-58949055D01*
X47663803Y-58908036D01*
X47560436Y-58951923D01*
X47491404Y-59051046D01*
X47479822Y-59175733D01*
X47359778Y-59175733D01*
X47361598Y-59048717D01*
X47418460Y-58899850D01*
X47444883Y-58867654D01*
X47589125Y-58795035D01*
X47756007Y-58816906D01*
G37*
D14*
X66770500Y-32468276D02*
X66770500Y-32977724D01*
X67815500Y-32468276D02*
X67815500Y-32977724D01*
X81835233Y-52120000D02*
X82127767Y-52120000D01*
X81835233Y-53140000D02*
X82127767Y-53140000D01*
X85237733Y-52120000D02*
X85530267Y-52120000D01*
X85237733Y-53140000D02*
X85530267Y-53140000D01*
X85320276Y-54277500D02*
X85829724Y-54277500D01*
X85320276Y-55322500D02*
X85829724Y-55322500D01*
X85369500Y-49328724D02*
X85369500Y-48819276D01*
X86414500Y-49328724D02*
X86414500Y-48819276D01*
X49850000Y-40064233D02*
X49850000Y-40356767D01*
X50870000Y-40064233D02*
X50870000Y-40356767D01*
X89104724Y-37702500D02*
X88595276Y-37702500D01*
X89104724Y-38747500D02*
X88595276Y-38747500D01*
X45117668Y-48111943D02*
X45571796Y-48111943D01*
X45117668Y-49581943D02*
X45571796Y-49581943D01*
D16*
X47566000Y-38533000D02*
X49090000Y-38533000D01*
X47566000Y-42089000D02*
X47566000Y-38533000D01*
X49090000Y-38533000D02*
X49090000Y-42089000D01*
X49090000Y-42089000D02*
X47566000Y-42089000D01*
D14*
X83480000Y-45133733D02*
X83480000Y-45426267D01*
X84500000Y-45133733D02*
X84500000Y-45426267D01*
X89948000Y-63857767D02*
X89948000Y-63565233D01*
X90968000Y-63857767D02*
X90968000Y-63565233D01*
D16*
X48971796Y-57825000D02*
X48971796Y-56625000D01*
X50011796Y-56625000D02*
X50011796Y-57825000D01*
D11*
X49591796Y-58725000D02*
G75*
G02*
X49391796Y-58725000I-100000J0D01*
G01*
X49391796Y-58725000D02*
G75*
G02*
X49591796Y-58725000I100000J0D01*
G01*
D16*
X50196796Y-53600000D02*
X50196796Y-52400000D01*
X51236796Y-52400000D02*
X51236796Y-53600000D01*
D11*
X50816796Y-54500000D02*
G75*
G02*
X50616796Y-54500000I-100000J0D01*
G01*
X50616796Y-54500000D02*
G75*
G02*
X50816796Y-54500000I100000J0D01*
G01*
D16*
X94981000Y-52610000D02*
X94981000Y-56590000D01*
X100019000Y-56590000D02*
X100019000Y-52610000D01*
D11*
X95695000Y-58550000D02*
G75*
G02*
X95495000Y-58550000I-100000J0D01*
G01*
X95495000Y-58550000D02*
G75*
G02*
X95695000Y-58550000I100000J0D01*
G01*
D14*
X81420276Y-40377500D02*
X81929724Y-40377500D01*
X81420276Y-41422500D02*
X81929724Y-41422500D01*
X70671000Y-32869267D02*
X70671000Y-32576733D01*
X71691000Y-32869267D02*
X71691000Y-32576733D01*
X81932797Y-45117733D02*
X81932797Y-45410267D01*
X82952797Y-45117733D02*
X82952797Y-45410267D01*
X84370500Y-64822724D02*
X84370500Y-64313276D01*
X85415500Y-64822724D02*
X85415500Y-64313276D01*
X42090500Y-45833276D02*
X42090500Y-46342724D01*
X43135500Y-45833276D02*
X43135500Y-46342724D01*
X56276776Y-59473500D02*
X56786224Y-59473500D01*
X56276776Y-60518500D02*
X56786224Y-60518500D01*
D16*
X82528000Y-48293500D02*
X82528000Y-50593500D01*
X84938000Y-48293500D02*
X84938000Y-50593500D01*
D11*
X84583000Y-46918500D02*
G75*
G02*
X84383000Y-46918500I-100000J0D01*
G01*
X84383000Y-46918500D02*
G75*
G02*
X84583000Y-46918500I100000J0D01*
G01*
D14*
X85637500Y-55890000D02*
X84987500Y-55890000D01*
X85637500Y-55890000D02*
X86287500Y-55890000D01*
X85637500Y-59010000D02*
X84987500Y-59010000D01*
X85637500Y-59010000D02*
X86287500Y-59010000D01*
X84475000Y-55940000D02*
X84235000Y-55610000D01*
X84715000Y-55610000D01*
X84475000Y-55940000D01*
G36*
X84475000Y-55940000D02*
G01*
X84235000Y-55610000D01*
X84715000Y-55610000D01*
X84475000Y-55940000D01*
G37*
X56786224Y-61251500D02*
X56276776Y-61251500D01*
X56786224Y-62296500D02*
X56276776Y-62296500D01*
X94816000Y-39202267D02*
X94816000Y-38909733D01*
X95836000Y-39202267D02*
X95836000Y-38909733D01*
X45037072Y-58552500D02*
X45546520Y-58552500D01*
X45037072Y-59597500D02*
X45546520Y-59597500D01*
X40312500Y-45833276D02*
X40312500Y-46342724D01*
X41357500Y-45833276D02*
X41357500Y-46342724D01*
X80289500Y-45263276D02*
X80289500Y-45772724D01*
X81334500Y-45263276D02*
X81334500Y-45772724D01*
X41990035Y-35085222D02*
X41990035Y-34792688D01*
X43010035Y-35085222D02*
X43010035Y-34792688D01*
X65083000Y-32856767D02*
X65083000Y-32564233D01*
X66103000Y-32856767D02*
X66103000Y-32564233D01*
X93256000Y-55277733D02*
X93256000Y-55570267D01*
X94276000Y-55277733D02*
X94276000Y-55570267D01*
X99003733Y-45440000D02*
X99296267Y-45440000D01*
X99003733Y-46460000D02*
X99296267Y-46460000D01*
X59670000Y-64508000D02*
X59670000Y-67168000D01*
X80050000Y-64508000D02*
X59670000Y-64508000D01*
X80050000Y-64508000D02*
X80050000Y-67168000D01*
X80050000Y-67168000D02*
X59670000Y-67168000D01*
X81320000Y-64508000D02*
X82650000Y-64508000D01*
X82650000Y-64508000D02*
X82650000Y-65838000D01*
X92370276Y-37727500D02*
X92879724Y-37727500D01*
X92370276Y-38772500D02*
X92879724Y-38772500D01*
X81656000Y-34073000D02*
X81656000Y-39973000D01*
X81656000Y-39973000D02*
X82731000Y-39973000D01*
X85556000Y-34073000D02*
X85556000Y-39973000D01*
X39828733Y-33537000D02*
X40121267Y-33537000D01*
X39828733Y-34557000D02*
X40121267Y-34557000D01*
X41541504Y-48103035D02*
X41834038Y-48103035D01*
X41541504Y-49123035D02*
X41834038Y-49123035D01*
D16*
X88550000Y-39325000D02*
X92450000Y-39325000D01*
X88550000Y-44375000D02*
X92450000Y-44375000D01*
D11*
X86560000Y-39545000D02*
G75*
G02*
X86360000Y-39545000I-100000J0D01*
G01*
X86360000Y-39545000D02*
G75*
G02*
X86560000Y-39545000I100000J0D01*
G01*
D14*
X68936500Y-32468276D02*
X68936500Y-32977724D01*
X69981500Y-32468276D02*
X69981500Y-32977724D01*
X45141572Y-53911500D02*
X45651020Y-53911500D01*
X45141572Y-54956500D02*
X45651020Y-54956500D01*
D16*
X59695000Y-35150000D02*
X77695000Y-35150000D01*
X59695000Y-35570000D02*
X59695000Y-35150000D01*
X59695000Y-54350000D02*
X59695000Y-53620000D01*
X60940000Y-54350000D02*
X59695000Y-54350000D01*
X77695000Y-35150000D02*
X77695000Y-35570000D01*
X77695000Y-54350000D02*
X76450000Y-54350000D01*
X77695000Y-54350000D02*
X77695000Y-53620000D01*
D11*
X58295000Y-36340000D02*
G75*
G02*
X58095000Y-36340000I-100000J0D01*
G01*
X58095000Y-36340000D02*
G75*
G02*
X58295000Y-36340000I100000J0D01*
G01*
D16*
X47246796Y-55762500D02*
X47246796Y-54562500D01*
X48286796Y-54562500D02*
X48286796Y-55762500D01*
D11*
X47866796Y-53662500D02*
G75*
G02*
X47666796Y-53662500I-100000J0D01*
G01*
X47666796Y-53662500D02*
G75*
G02*
X47866796Y-53662500I100000J0D01*
G01*
D16*
X73421000Y-31003000D02*
X77621000Y-31003000D01*
X73421000Y-33123000D02*
X73421000Y-32123000D01*
X77621000Y-33123000D02*
X77621000Y-32123000D01*
X77621000Y-34243000D02*
X73421000Y-34243000D01*
D11*
X72521000Y-31523000D02*
G75*
G02*
X72321000Y-31523000I-100000J0D01*
G01*
X72321000Y-31523000D02*
G75*
G02*
X72521000Y-31523000I100000J0D01*
G01*
D14*
X78765500Y-46382776D02*
X78765500Y-46892224D01*
X79810500Y-46382776D02*
X79810500Y-46892224D01*
X81494276Y-55911500D02*
X82003724Y-55911500D01*
X81494276Y-56956500D02*
X82003724Y-56956500D01*
D16*
X59671000Y-31003000D02*
X63871000Y-31003000D01*
X59671000Y-33123000D02*
X59671000Y-32123000D01*
X63871000Y-33123000D02*
X63871000Y-32123000D01*
X63871000Y-34243000D02*
X59671000Y-34243000D01*
D11*
X58771000Y-31523000D02*
G75*
G02*
X58571000Y-31523000I-100000J0D01*
G01*
X58571000Y-31523000D02*
G75*
G02*
X58771000Y-31523000I100000J0D01*
G01*
D14*
X59670000Y-59936000D02*
X59670000Y-62596000D01*
X80050000Y-59936000D02*
X59670000Y-59936000D01*
X80050000Y-59936000D02*
X80050000Y-62596000D01*
X80050000Y-62596000D02*
X59670000Y-62596000D01*
X81320000Y-59936000D02*
X82650000Y-59936000D01*
X82650000Y-59936000D02*
X82650000Y-61266000D01*
D16*
X41993000Y-38565000D02*
X41993000Y-42565000D01*
X47043000Y-38565000D02*
X47043000Y-42565000D01*
D11*
X47123000Y-36120000D02*
G75*
G02*
X46923000Y-36120000I-100000J0D01*
G01*
X46923000Y-36120000D02*
G75*
G02*
X47123000Y-36120000I100000J0D01*
G01*
D14*
X97320276Y-49127500D02*
X97829724Y-49127500D01*
X97320276Y-50172500D02*
X97829724Y-50172500D01*
D11*
X48000000Y-30075000D02*
X49100000Y-30075000D01*
X48000000Y-35475000D02*
X49100000Y-35475000D01*
D17*
X44750000Y-32775000D02*
G75*
G02*
X44350000Y-32775000I-200000J0D01*
G01*
X44350000Y-32775000D02*
G75*
G02*
X44750000Y-32775000I200000J0D01*
G01*
D14*
X87820000Y-34860000D02*
X87820000Y-35600000D01*
X87820000Y-35600000D02*
X88320000Y-35600000D01*
X88060000Y-29040000D02*
X88060000Y-35360000D01*
X88060000Y-29040000D02*
X101340000Y-29040000D01*
X88060000Y-29500000D02*
X101340000Y-29500000D01*
X88060000Y-34800000D02*
X101340000Y-34800000D01*
X88060000Y-35360000D02*
X101340000Y-35360000D01*
X101340000Y-29040000D02*
X101340000Y-35360000D01*
X47266233Y-44649000D02*
X47558767Y-44649000D01*
X47266233Y-45669000D02*
X47558767Y-45669000D01*
X91470500Y-49890000D02*
X91470500Y-49290000D01*
X92120500Y-48590000D02*
X94920500Y-48590000D01*
X94720500Y-48390000D02*
X94420500Y-48090000D01*
X94720500Y-48390000D02*
X95020500Y-48090000D01*
X94920500Y-50590000D02*
X92120500Y-50590000D01*
X95020500Y-48090000D02*
X94420500Y-48090000D01*
X95570500Y-49290000D02*
X95570500Y-49890000D01*
X91470500Y-49290000D02*
G75*
G02*
X92170500Y-48590000I700000J0D01*
G01*
X92170500Y-50590000D02*
G75*
G02*
X91470500Y-49890000I0J700000D01*
G01*
X94870500Y-48590000D02*
G75*
G02*
X95570500Y-49290000I1J-699999D01*
G01*
X95570500Y-49890000D02*
G75*
G02*
X94870500Y-50590000I-699999J-1D01*
G01*
X47266233Y-46340000D02*
X47558767Y-46340000D01*
X47266233Y-47360000D02*
X47558767Y-47360000D01*
D16*
X88710000Y-62418500D02*
X86110000Y-62418500D01*
X88710000Y-65188500D02*
X86110000Y-65188500D01*
D11*
X85860000Y-64803500D02*
G75*
G02*
X85760000Y-64803500I-50000J0D01*
G01*
X85760000Y-64803500D02*
G75*
G02*
X85860000Y-64803500I50000J0D01*
G01*
D14*
X91495000Y-63851767D02*
X91495000Y-63559233D01*
X92515000Y-63851767D02*
X92515000Y-63559233D01*
X40011295Y-35089832D02*
X39557167Y-35089832D01*
X40011295Y-36559832D02*
X39557167Y-36559832D01*
%LPC*%
D18*
X55150000Y-44662500D03*
X55150000Y-42837500D03*
D19*
X41348796Y-53804000D03*
X41348796Y-59584000D03*
D20*
X42423796Y-53494000D03*
X42423796Y-54294000D03*
D21*
X42423796Y-55444000D03*
X42423796Y-56444000D03*
X42423796Y-56944000D03*
X42423796Y-57944000D03*
D20*
X42423796Y-59094000D03*
X42423796Y-59894000D03*
X42423796Y-59894000D03*
X42423796Y-59094000D03*
D21*
X42423796Y-58444000D03*
X42423796Y-57444000D03*
X42423796Y-55944000D03*
X42423796Y-54944000D03*
D20*
X42423796Y-54294000D03*
X42423796Y-53494000D03*
D22*
X41848796Y-52374000D03*
D23*
X37668796Y-52374000D03*
D22*
X41848796Y-61014000D03*
D23*
X37668796Y-61014000D03*
D24*
X47393796Y-52444000D03*
X44593796Y-52444000D03*
D25*
X49241796Y-52337500D03*
X49241796Y-54062500D03*
X92242000Y-54561500D03*
X92242000Y-56286500D03*
D18*
X40835000Y-43190500D03*
X40835000Y-41365500D03*
D26*
X84893000Y-60250000D03*
X84893000Y-62075000D03*
D27*
X97104000Y-39918500D03*
X97104000Y-38193500D03*
X58095000Y-37202500D03*
X58095000Y-35477500D03*
D28*
X57481500Y-63884500D03*
X55581500Y-63884500D03*
X56531500Y-65759500D03*
D29*
X93087500Y-47550000D03*
X94912500Y-47550000D03*
D30*
X53600000Y-42875000D03*
X53600000Y-44625000D03*
D31*
X96637500Y-45975000D03*
X94912500Y-45975000D03*
D18*
X87416000Y-51002500D03*
X87416000Y-49177500D03*
D27*
X56480000Y-37202500D03*
X56480000Y-35477500D03*
D32*
X57316000Y-49074000D03*
X56832726Y-50240726D03*
X56832726Y-47907274D03*
X55666000Y-50724000D03*
D33*
X55666000Y-49074000D03*
D32*
X55666000Y-47424000D03*
X54499274Y-50240726D03*
X54499274Y-47907274D03*
X54016000Y-49074000D03*
D26*
X67293000Y-31810500D03*
X67293000Y-33635500D03*
D34*
X81119000Y-52630000D03*
X82844000Y-52630000D03*
X84521500Y-52630000D03*
X86246500Y-52630000D03*
D29*
X84662500Y-54800000D03*
X86487500Y-54800000D03*
D18*
X85892000Y-49986500D03*
X85892000Y-48161500D03*
D25*
X50360000Y-39348000D03*
X50360000Y-41073000D03*
D35*
X89762500Y-38225000D03*
X87937500Y-38225000D03*
D36*
X44344732Y-48846943D03*
X46344732Y-48846943D03*
D37*
X48328000Y-42161000D03*
X48328000Y-38461000D03*
D25*
X83990000Y-44417500D03*
X83990000Y-46142500D03*
D27*
X90458000Y-64574000D03*
X90458000Y-62849000D03*
D38*
X49491796Y-57885000D03*
X49491796Y-56565000D03*
X50716796Y-53660000D03*
X50716796Y-52340000D03*
D39*
X95595000Y-57070000D03*
X96865000Y-57070000D03*
X98135000Y-57070000D03*
X99405000Y-57070000D03*
X99405000Y-52130000D03*
X98135000Y-52130000D03*
X96865000Y-52130000D03*
X95595000Y-52130000D03*
D29*
X80762500Y-40900000D03*
X82587500Y-40900000D03*
D27*
X71181000Y-33585500D03*
X71181000Y-31860500D03*
D25*
X82442797Y-44401500D03*
X82442797Y-46126500D03*
D18*
X84893000Y-65480500D03*
X84893000Y-63655500D03*
D26*
X42613000Y-45175500D03*
X42613000Y-47000500D03*
D29*
X55619000Y-59996000D03*
X57444000Y-59996000D03*
D40*
X84483000Y-48038500D03*
X83983000Y-48038500D03*
X83483000Y-48038500D03*
X82983000Y-48038500D03*
X82983000Y-50848500D03*
X83483000Y-50848500D03*
X83983000Y-50848500D03*
X84483000Y-50848500D03*
D41*
X84700000Y-56500000D03*
X84700000Y-58400000D03*
X86575000Y-57450000D03*
D35*
X57444000Y-61774000D03*
X55619000Y-61774000D03*
D27*
X95326000Y-39918500D03*
X95326000Y-38193500D03*
D29*
X44379296Y-59075000D03*
X46204296Y-59075000D03*
D26*
X40835000Y-45175500D03*
X40835000Y-47000500D03*
X80812000Y-44605500D03*
X80812000Y-46430500D03*
D27*
X42500035Y-35801455D03*
X42500035Y-34076455D03*
X65593000Y-33573000D03*
X65593000Y-31848000D03*
D25*
X93766000Y-54561500D03*
X93766000Y-56286500D03*
D34*
X98287500Y-45950000D03*
X100012500Y-45950000D03*
D42*
X81320000Y-65838000D03*
D43*
X78780000Y-65838000D03*
X76240000Y-65838000D03*
X73700000Y-65838000D03*
X71160000Y-65838000D03*
X68620000Y-65838000D03*
X66080000Y-65838000D03*
X63540000Y-65838000D03*
X61000000Y-65838000D03*
D29*
X91712500Y-38250000D03*
X93537500Y-38250000D03*
D44*
X84481000Y-35273000D03*
X82731000Y-35273000D03*
X82731000Y-38773000D03*
X84481000Y-38773000D03*
D34*
X39112500Y-34047000D03*
X40837500Y-34047000D03*
X40825271Y-48613035D03*
X42550271Y-48613035D03*
D45*
X88030000Y-39945000D03*
X88030000Y-41215000D03*
X88030000Y-42485000D03*
X88030000Y-43755000D03*
X92970000Y-43755000D03*
X92970000Y-42485000D03*
X92970000Y-41215000D03*
X92970000Y-39945000D03*
D26*
X69459000Y-31810500D03*
X69459000Y-33635500D03*
D29*
X44483796Y-54434000D03*
X46308796Y-54434000D03*
D46*
X59945000Y-36340000D03*
X59945000Y-37610000D03*
X59945000Y-38880000D03*
X59945000Y-40150000D03*
X59945000Y-41420000D03*
X59945000Y-42690000D03*
X59945000Y-43960000D03*
X59945000Y-45230000D03*
X59945000Y-46500000D03*
X59945000Y-47770000D03*
X59945000Y-49040000D03*
X59945000Y-50310000D03*
X59945000Y-51580000D03*
X59945000Y-52850000D03*
D47*
X61710000Y-54100000D03*
X62980000Y-54100000D03*
X64250000Y-54100000D03*
X65520000Y-54100000D03*
X66790000Y-54100000D03*
X68060000Y-54100000D03*
X69330000Y-54100000D03*
X70600000Y-54100000D03*
X71870000Y-54100000D03*
X73140000Y-54100000D03*
X74410000Y-54100000D03*
X75680000Y-54100000D03*
D46*
X77445000Y-52850000D03*
X77445000Y-51580000D03*
X77445000Y-50310000D03*
X77445000Y-49040000D03*
X77445000Y-47770000D03*
X77445000Y-46500000D03*
X77445000Y-45230000D03*
X77445000Y-43960000D03*
X77445000Y-42690000D03*
X77445000Y-41420000D03*
X77445000Y-40150000D03*
X77445000Y-38880000D03*
X77445000Y-37610000D03*
X77445000Y-36340000D03*
D48*
X65795000Y-42660000D03*
X67195000Y-42660000D03*
X68595000Y-42660000D03*
X65795000Y-44060000D03*
X67195000Y-44060000D03*
X68595000Y-44060000D03*
X65795000Y-45460000D03*
X67195000Y-45460000D03*
X68595000Y-45460000D03*
D49*
X47766796Y-54502500D03*
X47766796Y-55822500D03*
D50*
X73446000Y-31548000D03*
X77596000Y-31548000D03*
X73446000Y-33698000D03*
X77596000Y-33698000D03*
D26*
X79288000Y-45725000D03*
X79288000Y-47550000D03*
D29*
X80836500Y-56434000D03*
X82661500Y-56434000D03*
D50*
X59696000Y-31548000D03*
X63846000Y-31548000D03*
X59696000Y-33698000D03*
X63846000Y-33698000D03*
D42*
X81320000Y-61266000D03*
D43*
X78780000Y-61266000D03*
X76240000Y-61266000D03*
X73700000Y-61266000D03*
X71160000Y-61266000D03*
X68620000Y-61266000D03*
X66080000Y-61266000D03*
X63540000Y-61266000D03*
X61000000Y-61266000D03*
D51*
X46423000Y-38090000D03*
X45153000Y-38090000D03*
X43883000Y-38090000D03*
X42613000Y-38090000D03*
X42613000Y-43040000D03*
X43883000Y-43040000D03*
X45153000Y-43040000D03*
X46423000Y-43040000D03*
D52*
X44518000Y-40565000D03*
D29*
X96662500Y-49650000D03*
X98487500Y-49650000D03*
D53*
X46625000Y-32775000D03*
X50475000Y-32775000D03*
D54*
X89620000Y-32200000D03*
D55*
X92160000Y-32200000D03*
X94700000Y-32200000D03*
X97240000Y-32200000D03*
X99780000Y-32200000D03*
D34*
X46550000Y-45159000D03*
X48275000Y-45159000D03*
D56*
X94820500Y-49590000D03*
D57*
X93520500Y-49590000D03*
D58*
X92220500Y-49590000D03*
D34*
X46550000Y-46850000D03*
X48275000Y-46850000D03*
D59*
X86440000Y-64778500D03*
X86440000Y-64128500D03*
X86440000Y-63478500D03*
X86440000Y-62828500D03*
X88380000Y-62828500D03*
X88380000Y-63478500D03*
X88380000Y-64128500D03*
X88380000Y-64778500D03*
D27*
X92005000Y-64568000D03*
X92005000Y-62843000D03*
D60*
X40784231Y-35824832D03*
X38784231Y-35824832D03*
%LPD*%
M02*
