%TF.GenerationSoftware,KiCad,Pcbnew,8.0.5*%
%TF.CreationDate,2024-10-21T14:42:39+02:00*%
%TF.ProjectId,Master,4d617374-6572-42e6-9b69-6361645f7063,rev?*%
%TF.SameCoordinates,Original*%
%TF.FileFunction,Drillmap*%
%TF.FilePolarity,Positive*%
%FSLAX45Y45*%
G04 Gerber Fmt 4.5, Leading zero omitted, Abs format (unit mm)*
G04 Created by KiCad (PCBNEW 8.0.5) date 2024-10-21 14:42:39*
%MOMM*%
%LPD*%
G01*
G04 APERTURE LIST*
%ADD10C,0.050000*%
%ADD11C,0.200000*%
%ADD12C,0.100000*%
G04 APERTURE END LIST*
D10*
X10180000Y-2799853D02*
G75*
G02*
X10299997Y-2919853I0J-119997D01*
G01*
X10300000Y-6680000D02*
G75*
G02*
X10180000Y-6800000I-120000J0D01*
G01*
X3620000Y-6800000D02*
X10180000Y-6800000D01*
X3620000Y-6800000D02*
G75*
G02*
X3500000Y-6680000I0J120000D01*
G01*
X3500000Y-6680000D02*
X3500000Y-2920000D01*
X10180000Y-2799853D02*
X3620000Y-2800000D01*
X3500000Y-2920000D02*
G75*
G02*
X3620000Y-2800000I120000J0D01*
G01*
X10300000Y-6680000D02*
X10300000Y-2919853D01*
D11*
D12*
X4102380Y-5347900D02*
X4167380Y-5412900D01*
X4167380Y-5347900D02*
X4102380Y-5412900D01*
X4102380Y-5925900D02*
X4167380Y-5990900D01*
X4167380Y-5925900D02*
X4102380Y-5990900D01*
D11*
X3758277Y-7113984D02*
X3758277Y-6913984D01*
X3758277Y-6913984D02*
X3805896Y-6913984D01*
X3805896Y-6913984D02*
X3834467Y-6923508D01*
X3834467Y-6923508D02*
X3853515Y-6942555D01*
X3853515Y-6942555D02*
X3863039Y-6961603D01*
X3863039Y-6961603D02*
X3872562Y-6999698D01*
X3872562Y-6999698D02*
X3872562Y-7028269D01*
X3872562Y-7028269D02*
X3863039Y-7066365D01*
X3863039Y-7066365D02*
X3853515Y-7085412D01*
X3853515Y-7085412D02*
X3834467Y-7104460D01*
X3834467Y-7104460D02*
X3805896Y-7113984D01*
X3805896Y-7113984D02*
X3758277Y-7113984D01*
X3958277Y-7113984D02*
X3958277Y-6980650D01*
X3958277Y-7018746D02*
X3967801Y-6999698D01*
X3967801Y-6999698D02*
X3977324Y-6990174D01*
X3977324Y-6990174D02*
X3996372Y-6980650D01*
X3996372Y-6980650D02*
X4015420Y-6980650D01*
X4082086Y-7113984D02*
X4082086Y-6980650D01*
X4082086Y-6913984D02*
X4072562Y-6923508D01*
X4072562Y-6923508D02*
X4082086Y-6933031D01*
X4082086Y-6933031D02*
X4091610Y-6923508D01*
X4091610Y-6923508D02*
X4082086Y-6913984D01*
X4082086Y-6913984D02*
X4082086Y-6933031D01*
X4205896Y-7113984D02*
X4186848Y-7104460D01*
X4186848Y-7104460D02*
X4177324Y-7085412D01*
X4177324Y-7085412D02*
X4177324Y-6913984D01*
X4310658Y-7113984D02*
X4291610Y-7104460D01*
X4291610Y-7104460D02*
X4282086Y-7085412D01*
X4282086Y-7085412D02*
X4282086Y-6913984D01*
X4539229Y-7113984D02*
X4539229Y-6913984D01*
X4539229Y-6913984D02*
X4605896Y-7056841D01*
X4605896Y-7056841D02*
X4672563Y-6913984D01*
X4672563Y-6913984D02*
X4672563Y-7113984D01*
X4853515Y-7113984D02*
X4853515Y-7009222D01*
X4853515Y-7009222D02*
X4843991Y-6990174D01*
X4843991Y-6990174D02*
X4824944Y-6980650D01*
X4824944Y-6980650D02*
X4786848Y-6980650D01*
X4786848Y-6980650D02*
X4767801Y-6990174D01*
X4853515Y-7104460D02*
X4834467Y-7113984D01*
X4834467Y-7113984D02*
X4786848Y-7113984D01*
X4786848Y-7113984D02*
X4767801Y-7104460D01*
X4767801Y-7104460D02*
X4758277Y-7085412D01*
X4758277Y-7085412D02*
X4758277Y-7066365D01*
X4758277Y-7066365D02*
X4767801Y-7047317D01*
X4767801Y-7047317D02*
X4786848Y-7037793D01*
X4786848Y-7037793D02*
X4834467Y-7037793D01*
X4834467Y-7037793D02*
X4853515Y-7028269D01*
X4948753Y-6980650D02*
X4948753Y-7180650D01*
X4948753Y-6990174D02*
X4967801Y-6980650D01*
X4967801Y-6980650D02*
X5005896Y-6980650D01*
X5005896Y-6980650D02*
X5024944Y-6990174D01*
X5024944Y-6990174D02*
X5034467Y-6999698D01*
X5034467Y-6999698D02*
X5043991Y-7018746D01*
X5043991Y-7018746D02*
X5043991Y-7075888D01*
X5043991Y-7075888D02*
X5034467Y-7094936D01*
X5034467Y-7094936D02*
X5024944Y-7104460D01*
X5024944Y-7104460D02*
X5005896Y-7113984D01*
X5005896Y-7113984D02*
X4967801Y-7113984D01*
X4967801Y-7113984D02*
X4948753Y-7104460D01*
X5129705Y-7094936D02*
X5139229Y-7104460D01*
X5139229Y-7104460D02*
X5129705Y-7113984D01*
X5129705Y-7113984D02*
X5120182Y-7104460D01*
X5120182Y-7104460D02*
X5129705Y-7094936D01*
X5129705Y-7094936D02*
X5129705Y-7113984D01*
X5129705Y-6990174D02*
X5139229Y-6999698D01*
X5139229Y-6999698D02*
X5129705Y-7009222D01*
X5129705Y-7009222D02*
X5120182Y-6999698D01*
X5120182Y-6999698D02*
X5129705Y-6990174D01*
X5129705Y-6990174D02*
X5129705Y-7009222D01*
D12*
X3432500Y-7410000D02*
X3497500Y-7475000D01*
X3497500Y-7410000D02*
X3432500Y-7475000D01*
D11*
X3796372Y-7333984D02*
X3815420Y-7333984D01*
X3815420Y-7333984D02*
X3834467Y-7343508D01*
X3834467Y-7343508D02*
X3843991Y-7353031D01*
X3843991Y-7353031D02*
X3853515Y-7372079D01*
X3853515Y-7372079D02*
X3863039Y-7410174D01*
X3863039Y-7410174D02*
X3863039Y-7457793D01*
X3863039Y-7457793D02*
X3853515Y-7495888D01*
X3853515Y-7495888D02*
X3843991Y-7514936D01*
X3843991Y-7514936D02*
X3834467Y-7524460D01*
X3834467Y-7524460D02*
X3815420Y-7533984D01*
X3815420Y-7533984D02*
X3796372Y-7533984D01*
X3796372Y-7533984D02*
X3777324Y-7524460D01*
X3777324Y-7524460D02*
X3767801Y-7514936D01*
X3767801Y-7514936D02*
X3758277Y-7495888D01*
X3758277Y-7495888D02*
X3748753Y-7457793D01*
X3748753Y-7457793D02*
X3748753Y-7410174D01*
X3748753Y-7410174D02*
X3758277Y-7372079D01*
X3758277Y-7372079D02*
X3767801Y-7353031D01*
X3767801Y-7353031D02*
X3777324Y-7343508D01*
X3777324Y-7343508D02*
X3796372Y-7333984D01*
X3948753Y-7514936D02*
X3958277Y-7524460D01*
X3958277Y-7524460D02*
X3948753Y-7533984D01*
X3948753Y-7533984D02*
X3939229Y-7524460D01*
X3939229Y-7524460D02*
X3948753Y-7514936D01*
X3948753Y-7514936D02*
X3948753Y-7533984D01*
X4129705Y-7333984D02*
X4091610Y-7333984D01*
X4091610Y-7333984D02*
X4072562Y-7343508D01*
X4072562Y-7343508D02*
X4063039Y-7353031D01*
X4063039Y-7353031D02*
X4043991Y-7381603D01*
X4043991Y-7381603D02*
X4034467Y-7419698D01*
X4034467Y-7419698D02*
X4034467Y-7495888D01*
X4034467Y-7495888D02*
X4043991Y-7514936D01*
X4043991Y-7514936D02*
X4053515Y-7524460D01*
X4053515Y-7524460D02*
X4072562Y-7533984D01*
X4072562Y-7533984D02*
X4110658Y-7533984D01*
X4110658Y-7533984D02*
X4129705Y-7524460D01*
X4129705Y-7524460D02*
X4139229Y-7514936D01*
X4139229Y-7514936D02*
X4148753Y-7495888D01*
X4148753Y-7495888D02*
X4148753Y-7448269D01*
X4148753Y-7448269D02*
X4139229Y-7429222D01*
X4139229Y-7429222D02*
X4129705Y-7419698D01*
X4129705Y-7419698D02*
X4110658Y-7410174D01*
X4110658Y-7410174D02*
X4072562Y-7410174D01*
X4072562Y-7410174D02*
X4053515Y-7419698D01*
X4053515Y-7419698D02*
X4043991Y-7429222D01*
X4043991Y-7429222D02*
X4034467Y-7448269D01*
X4329705Y-7333984D02*
X4234467Y-7333984D01*
X4234467Y-7333984D02*
X4224944Y-7429222D01*
X4224944Y-7429222D02*
X4234467Y-7419698D01*
X4234467Y-7419698D02*
X4253515Y-7410174D01*
X4253515Y-7410174D02*
X4301134Y-7410174D01*
X4301134Y-7410174D02*
X4320182Y-7419698D01*
X4320182Y-7419698D02*
X4329705Y-7429222D01*
X4329705Y-7429222D02*
X4339229Y-7448269D01*
X4339229Y-7448269D02*
X4339229Y-7495888D01*
X4339229Y-7495888D02*
X4329705Y-7514936D01*
X4329705Y-7514936D02*
X4320182Y-7524460D01*
X4320182Y-7524460D02*
X4301134Y-7533984D01*
X4301134Y-7533984D02*
X4253515Y-7533984D01*
X4253515Y-7533984D02*
X4234467Y-7524460D01*
X4234467Y-7524460D02*
X4224944Y-7514936D01*
X4463039Y-7333984D02*
X4482086Y-7333984D01*
X4482086Y-7333984D02*
X4501134Y-7343508D01*
X4501134Y-7343508D02*
X4510658Y-7353031D01*
X4510658Y-7353031D02*
X4520182Y-7372079D01*
X4520182Y-7372079D02*
X4529705Y-7410174D01*
X4529705Y-7410174D02*
X4529705Y-7457793D01*
X4529705Y-7457793D02*
X4520182Y-7495888D01*
X4520182Y-7495888D02*
X4510658Y-7514936D01*
X4510658Y-7514936D02*
X4501134Y-7524460D01*
X4501134Y-7524460D02*
X4482086Y-7533984D01*
X4482086Y-7533984D02*
X4463039Y-7533984D01*
X4463039Y-7533984D02*
X4443991Y-7524460D01*
X4443991Y-7524460D02*
X4434467Y-7514936D01*
X4434467Y-7514936D02*
X4424944Y-7495888D01*
X4424944Y-7495888D02*
X4415420Y-7457793D01*
X4415420Y-7457793D02*
X4415420Y-7410174D01*
X4415420Y-7410174D02*
X4424944Y-7372079D01*
X4424944Y-7372079D02*
X4434467Y-7353031D01*
X4434467Y-7353031D02*
X4443991Y-7343508D01*
X4443991Y-7343508D02*
X4463039Y-7333984D01*
X4615420Y-7533984D02*
X4615420Y-7400650D01*
X4615420Y-7419698D02*
X4624944Y-7410174D01*
X4624944Y-7410174D02*
X4643991Y-7400650D01*
X4643991Y-7400650D02*
X4672563Y-7400650D01*
X4672563Y-7400650D02*
X4691610Y-7410174D01*
X4691610Y-7410174D02*
X4701134Y-7429222D01*
X4701134Y-7429222D02*
X4701134Y-7533984D01*
X4701134Y-7429222D02*
X4710658Y-7410174D01*
X4710658Y-7410174D02*
X4729705Y-7400650D01*
X4729705Y-7400650D02*
X4758277Y-7400650D01*
X4758277Y-7400650D02*
X4777325Y-7410174D01*
X4777325Y-7410174D02*
X4786848Y-7429222D01*
X4786848Y-7429222D02*
X4786848Y-7533984D01*
X4882086Y-7533984D02*
X4882086Y-7400650D01*
X4882086Y-7419698D02*
X4891610Y-7410174D01*
X4891610Y-7410174D02*
X4910658Y-7400650D01*
X4910658Y-7400650D02*
X4939229Y-7400650D01*
X4939229Y-7400650D02*
X4958277Y-7410174D01*
X4958277Y-7410174D02*
X4967801Y-7429222D01*
X4967801Y-7429222D02*
X4967801Y-7533984D01*
X4967801Y-7429222D02*
X4977325Y-7410174D01*
X4977325Y-7410174D02*
X4996372Y-7400650D01*
X4996372Y-7400650D02*
X5024944Y-7400650D01*
X5024944Y-7400650D02*
X5043991Y-7410174D01*
X5043991Y-7410174D02*
X5053515Y-7429222D01*
X5053515Y-7429222D02*
X5053515Y-7533984D01*
X5443991Y-7324460D02*
X5272563Y-7581603D01*
X5701134Y-7333984D02*
X5720182Y-7333984D01*
X5720182Y-7333984D02*
X5739229Y-7343508D01*
X5739229Y-7343508D02*
X5748753Y-7353031D01*
X5748753Y-7353031D02*
X5758277Y-7372079D01*
X5758277Y-7372079D02*
X5767801Y-7410174D01*
X5767801Y-7410174D02*
X5767801Y-7457793D01*
X5767801Y-7457793D02*
X5758277Y-7495888D01*
X5758277Y-7495888D02*
X5748753Y-7514936D01*
X5748753Y-7514936D02*
X5739229Y-7524460D01*
X5739229Y-7524460D02*
X5720182Y-7533984D01*
X5720182Y-7533984D02*
X5701134Y-7533984D01*
X5701134Y-7533984D02*
X5682086Y-7524460D01*
X5682086Y-7524460D02*
X5672563Y-7514936D01*
X5672563Y-7514936D02*
X5663039Y-7495888D01*
X5663039Y-7495888D02*
X5653515Y-7457793D01*
X5653515Y-7457793D02*
X5653515Y-7410174D01*
X5653515Y-7410174D02*
X5663039Y-7372079D01*
X5663039Y-7372079D02*
X5672563Y-7353031D01*
X5672563Y-7353031D02*
X5682086Y-7343508D01*
X5682086Y-7343508D02*
X5701134Y-7333984D01*
X5853515Y-7514936D02*
X5863039Y-7524460D01*
X5863039Y-7524460D02*
X5853515Y-7533984D01*
X5853515Y-7533984D02*
X5843991Y-7524460D01*
X5843991Y-7524460D02*
X5853515Y-7514936D01*
X5853515Y-7514936D02*
X5853515Y-7533984D01*
X5986848Y-7333984D02*
X6005896Y-7333984D01*
X6005896Y-7333984D02*
X6024944Y-7343508D01*
X6024944Y-7343508D02*
X6034467Y-7353031D01*
X6034467Y-7353031D02*
X6043991Y-7372079D01*
X6043991Y-7372079D02*
X6053515Y-7410174D01*
X6053515Y-7410174D02*
X6053515Y-7457793D01*
X6053515Y-7457793D02*
X6043991Y-7495888D01*
X6043991Y-7495888D02*
X6034467Y-7514936D01*
X6034467Y-7514936D02*
X6024944Y-7524460D01*
X6024944Y-7524460D02*
X6005896Y-7533984D01*
X6005896Y-7533984D02*
X5986848Y-7533984D01*
X5986848Y-7533984D02*
X5967801Y-7524460D01*
X5967801Y-7524460D02*
X5958277Y-7514936D01*
X5958277Y-7514936D02*
X5948753Y-7495888D01*
X5948753Y-7495888D02*
X5939229Y-7457793D01*
X5939229Y-7457793D02*
X5939229Y-7410174D01*
X5939229Y-7410174D02*
X5948753Y-7372079D01*
X5948753Y-7372079D02*
X5958277Y-7353031D01*
X5958277Y-7353031D02*
X5967801Y-7343508D01*
X5967801Y-7343508D02*
X5986848Y-7333984D01*
X6129706Y-7353031D02*
X6139229Y-7343508D01*
X6139229Y-7343508D02*
X6158277Y-7333984D01*
X6158277Y-7333984D02*
X6205896Y-7333984D01*
X6205896Y-7333984D02*
X6224944Y-7343508D01*
X6224944Y-7343508D02*
X6234467Y-7353031D01*
X6234467Y-7353031D02*
X6243991Y-7372079D01*
X6243991Y-7372079D02*
X6243991Y-7391127D01*
X6243991Y-7391127D02*
X6234467Y-7419698D01*
X6234467Y-7419698D02*
X6120182Y-7533984D01*
X6120182Y-7533984D02*
X6243991Y-7533984D01*
X6424944Y-7333984D02*
X6329706Y-7333984D01*
X6329706Y-7333984D02*
X6320182Y-7429222D01*
X6320182Y-7429222D02*
X6329706Y-7419698D01*
X6329706Y-7419698D02*
X6348753Y-7410174D01*
X6348753Y-7410174D02*
X6396372Y-7410174D01*
X6396372Y-7410174D02*
X6415420Y-7419698D01*
X6415420Y-7419698D02*
X6424944Y-7429222D01*
X6424944Y-7429222D02*
X6434467Y-7448269D01*
X6434467Y-7448269D02*
X6434467Y-7495888D01*
X6434467Y-7495888D02*
X6424944Y-7514936D01*
X6424944Y-7514936D02*
X6415420Y-7524460D01*
X6415420Y-7524460D02*
X6396372Y-7533984D01*
X6396372Y-7533984D02*
X6348753Y-7533984D01*
X6348753Y-7533984D02*
X6329706Y-7524460D01*
X6329706Y-7524460D02*
X6320182Y-7514936D01*
X6605896Y-7333984D02*
X6567801Y-7333984D01*
X6567801Y-7333984D02*
X6548753Y-7343508D01*
X6548753Y-7343508D02*
X6539229Y-7353031D01*
X6539229Y-7353031D02*
X6520182Y-7381603D01*
X6520182Y-7381603D02*
X6510658Y-7419698D01*
X6510658Y-7419698D02*
X6510658Y-7495888D01*
X6510658Y-7495888D02*
X6520182Y-7514936D01*
X6520182Y-7514936D02*
X6529706Y-7524460D01*
X6529706Y-7524460D02*
X6548753Y-7533984D01*
X6548753Y-7533984D02*
X6586848Y-7533984D01*
X6586848Y-7533984D02*
X6605896Y-7524460D01*
X6605896Y-7524460D02*
X6615420Y-7514936D01*
X6615420Y-7514936D02*
X6624944Y-7495888D01*
X6624944Y-7495888D02*
X6624944Y-7448269D01*
X6624944Y-7448269D02*
X6615420Y-7429222D01*
X6615420Y-7429222D02*
X6605896Y-7419698D01*
X6605896Y-7419698D02*
X6586848Y-7410174D01*
X6586848Y-7410174D02*
X6548753Y-7410174D01*
X6548753Y-7410174D02*
X6529706Y-7419698D01*
X6529706Y-7419698D02*
X6520182Y-7429222D01*
X6520182Y-7429222D02*
X6510658Y-7448269D01*
X6701134Y-7333984D02*
X6701134Y-7372079D01*
X6777325Y-7333984D02*
X6777325Y-7372079D01*
X7072563Y-7610174D02*
X7063039Y-7600650D01*
X7063039Y-7600650D02*
X7043991Y-7572079D01*
X7043991Y-7572079D02*
X7034468Y-7553031D01*
X7034468Y-7553031D02*
X7024944Y-7524460D01*
X7024944Y-7524460D02*
X7015420Y-7476841D01*
X7015420Y-7476841D02*
X7015420Y-7438746D01*
X7015420Y-7438746D02*
X7024944Y-7391127D01*
X7024944Y-7391127D02*
X7034468Y-7362555D01*
X7034468Y-7362555D02*
X7043991Y-7343508D01*
X7043991Y-7343508D02*
X7063039Y-7314936D01*
X7063039Y-7314936D02*
X7072563Y-7305412D01*
X7139229Y-7353031D02*
X7148753Y-7343508D01*
X7148753Y-7343508D02*
X7167801Y-7333984D01*
X7167801Y-7333984D02*
X7215420Y-7333984D01*
X7215420Y-7333984D02*
X7234468Y-7343508D01*
X7234468Y-7343508D02*
X7243991Y-7353031D01*
X7243991Y-7353031D02*
X7253515Y-7372079D01*
X7253515Y-7372079D02*
X7253515Y-7391127D01*
X7253515Y-7391127D02*
X7243991Y-7419698D01*
X7243991Y-7419698D02*
X7129706Y-7533984D01*
X7129706Y-7533984D02*
X7253515Y-7533984D01*
X7491610Y-7533984D02*
X7491610Y-7333984D01*
X7577325Y-7533984D02*
X7577325Y-7429222D01*
X7577325Y-7429222D02*
X7567801Y-7410174D01*
X7567801Y-7410174D02*
X7548753Y-7400650D01*
X7548753Y-7400650D02*
X7520182Y-7400650D01*
X7520182Y-7400650D02*
X7501134Y-7410174D01*
X7501134Y-7410174D02*
X7491610Y-7419698D01*
X7701134Y-7533984D02*
X7682087Y-7524460D01*
X7682087Y-7524460D02*
X7672563Y-7514936D01*
X7672563Y-7514936D02*
X7663039Y-7495888D01*
X7663039Y-7495888D02*
X7663039Y-7438746D01*
X7663039Y-7438746D02*
X7672563Y-7419698D01*
X7672563Y-7419698D02*
X7682087Y-7410174D01*
X7682087Y-7410174D02*
X7701134Y-7400650D01*
X7701134Y-7400650D02*
X7729706Y-7400650D01*
X7729706Y-7400650D02*
X7748753Y-7410174D01*
X7748753Y-7410174D02*
X7758277Y-7419698D01*
X7758277Y-7419698D02*
X7767801Y-7438746D01*
X7767801Y-7438746D02*
X7767801Y-7495888D01*
X7767801Y-7495888D02*
X7758277Y-7514936D01*
X7758277Y-7514936D02*
X7748753Y-7524460D01*
X7748753Y-7524460D02*
X7729706Y-7533984D01*
X7729706Y-7533984D02*
X7701134Y-7533984D01*
X7882087Y-7533984D02*
X7863039Y-7524460D01*
X7863039Y-7524460D02*
X7853515Y-7505412D01*
X7853515Y-7505412D02*
X7853515Y-7333984D01*
X8034468Y-7524460D02*
X8015420Y-7533984D01*
X8015420Y-7533984D02*
X7977325Y-7533984D01*
X7977325Y-7533984D02*
X7958277Y-7524460D01*
X7958277Y-7524460D02*
X7948753Y-7505412D01*
X7948753Y-7505412D02*
X7948753Y-7429222D01*
X7948753Y-7429222D02*
X7958277Y-7410174D01*
X7958277Y-7410174D02*
X7977325Y-7400650D01*
X7977325Y-7400650D02*
X8015420Y-7400650D01*
X8015420Y-7400650D02*
X8034468Y-7410174D01*
X8034468Y-7410174D02*
X8043991Y-7429222D01*
X8043991Y-7429222D02*
X8043991Y-7448269D01*
X8043991Y-7448269D02*
X7948753Y-7467317D01*
X8120182Y-7524460D02*
X8139230Y-7533984D01*
X8139230Y-7533984D02*
X8177325Y-7533984D01*
X8177325Y-7533984D02*
X8196372Y-7524460D01*
X8196372Y-7524460D02*
X8205896Y-7505412D01*
X8205896Y-7505412D02*
X8205896Y-7495888D01*
X8205896Y-7495888D02*
X8196372Y-7476841D01*
X8196372Y-7476841D02*
X8177325Y-7467317D01*
X8177325Y-7467317D02*
X8148753Y-7467317D01*
X8148753Y-7467317D02*
X8129706Y-7457793D01*
X8129706Y-7457793D02*
X8120182Y-7438746D01*
X8120182Y-7438746D02*
X8120182Y-7429222D01*
X8120182Y-7429222D02*
X8129706Y-7410174D01*
X8129706Y-7410174D02*
X8148753Y-7400650D01*
X8148753Y-7400650D02*
X8177325Y-7400650D01*
X8177325Y-7400650D02*
X8196372Y-7410174D01*
X8272563Y-7610174D02*
X8282087Y-7600650D01*
X8282087Y-7600650D02*
X8301134Y-7572079D01*
X8301134Y-7572079D02*
X8310658Y-7553031D01*
X8310658Y-7553031D02*
X8320182Y-7524460D01*
X8320182Y-7524460D02*
X8329706Y-7476841D01*
X8329706Y-7476841D02*
X8329706Y-7438746D01*
X8329706Y-7438746D02*
X8320182Y-7391127D01*
X8320182Y-7391127D02*
X8310658Y-7362555D01*
X8310658Y-7362555D02*
X8301134Y-7343508D01*
X8301134Y-7343508D02*
X8282087Y-7314936D01*
X8282087Y-7314936D02*
X8272563Y-7305412D01*
X8634468Y-7610174D02*
X8624944Y-7600650D01*
X8624944Y-7600650D02*
X8605896Y-7572079D01*
X8605896Y-7572079D02*
X8596373Y-7553031D01*
X8596373Y-7553031D02*
X8586849Y-7524460D01*
X8586849Y-7524460D02*
X8577325Y-7476841D01*
X8577325Y-7476841D02*
X8577325Y-7438746D01*
X8577325Y-7438746D02*
X8586849Y-7391127D01*
X8586849Y-7391127D02*
X8596373Y-7362555D01*
X8596373Y-7362555D02*
X8605896Y-7343508D01*
X8605896Y-7343508D02*
X8624944Y-7314936D01*
X8624944Y-7314936D02*
X8634468Y-7305412D01*
X8710658Y-7400650D02*
X8710658Y-7533984D01*
X8710658Y-7419698D02*
X8720182Y-7410174D01*
X8720182Y-7410174D02*
X8739230Y-7400650D01*
X8739230Y-7400650D02*
X8767801Y-7400650D01*
X8767801Y-7400650D02*
X8786849Y-7410174D01*
X8786849Y-7410174D02*
X8796373Y-7429222D01*
X8796373Y-7429222D02*
X8796373Y-7533984D01*
X8920182Y-7533984D02*
X8901134Y-7524460D01*
X8901134Y-7524460D02*
X8891611Y-7514936D01*
X8891611Y-7514936D02*
X8882087Y-7495888D01*
X8882087Y-7495888D02*
X8882087Y-7438746D01*
X8882087Y-7438746D02*
X8891611Y-7419698D01*
X8891611Y-7419698D02*
X8901134Y-7410174D01*
X8901134Y-7410174D02*
X8920182Y-7400650D01*
X8920182Y-7400650D02*
X8948754Y-7400650D01*
X8948754Y-7400650D02*
X8967801Y-7410174D01*
X8967801Y-7410174D02*
X8977325Y-7419698D01*
X8977325Y-7419698D02*
X8986849Y-7438746D01*
X8986849Y-7438746D02*
X8986849Y-7495888D01*
X8986849Y-7495888D02*
X8977325Y-7514936D01*
X8977325Y-7514936D02*
X8967801Y-7524460D01*
X8967801Y-7524460D02*
X8948754Y-7533984D01*
X8948754Y-7533984D02*
X8920182Y-7533984D01*
X9043992Y-7400650D02*
X9120182Y-7400650D01*
X9072563Y-7333984D02*
X9072563Y-7505412D01*
X9072563Y-7505412D02*
X9082087Y-7524460D01*
X9082087Y-7524460D02*
X9101134Y-7533984D01*
X9101134Y-7533984D02*
X9120182Y-7533984D01*
X9339230Y-7400650D02*
X9339230Y-7600650D01*
X9339230Y-7410174D02*
X9358277Y-7400650D01*
X9358277Y-7400650D02*
X9396373Y-7400650D01*
X9396373Y-7400650D02*
X9415420Y-7410174D01*
X9415420Y-7410174D02*
X9424944Y-7419698D01*
X9424944Y-7419698D02*
X9434468Y-7438746D01*
X9434468Y-7438746D02*
X9434468Y-7495888D01*
X9434468Y-7495888D02*
X9424944Y-7514936D01*
X9424944Y-7514936D02*
X9415420Y-7524460D01*
X9415420Y-7524460D02*
X9396373Y-7533984D01*
X9396373Y-7533984D02*
X9358277Y-7533984D01*
X9358277Y-7533984D02*
X9339230Y-7524460D01*
X9548754Y-7533984D02*
X9529706Y-7524460D01*
X9529706Y-7524460D02*
X9520182Y-7505412D01*
X9520182Y-7505412D02*
X9520182Y-7333984D01*
X9710658Y-7533984D02*
X9710658Y-7429222D01*
X9710658Y-7429222D02*
X9701135Y-7410174D01*
X9701135Y-7410174D02*
X9682087Y-7400650D01*
X9682087Y-7400650D02*
X9643992Y-7400650D01*
X9643992Y-7400650D02*
X9624944Y-7410174D01*
X9710658Y-7524460D02*
X9691611Y-7533984D01*
X9691611Y-7533984D02*
X9643992Y-7533984D01*
X9643992Y-7533984D02*
X9624944Y-7524460D01*
X9624944Y-7524460D02*
X9615420Y-7505412D01*
X9615420Y-7505412D02*
X9615420Y-7486365D01*
X9615420Y-7486365D02*
X9624944Y-7467317D01*
X9624944Y-7467317D02*
X9643992Y-7457793D01*
X9643992Y-7457793D02*
X9691611Y-7457793D01*
X9691611Y-7457793D02*
X9710658Y-7448269D01*
X9777325Y-7400650D02*
X9853515Y-7400650D01*
X9805896Y-7333984D02*
X9805896Y-7505412D01*
X9805896Y-7505412D02*
X9815420Y-7524460D01*
X9815420Y-7524460D02*
X9834468Y-7533984D01*
X9834468Y-7533984D02*
X9853515Y-7533984D01*
X9996373Y-7524460D02*
X9977325Y-7533984D01*
X9977325Y-7533984D02*
X9939230Y-7533984D01*
X9939230Y-7533984D02*
X9920182Y-7524460D01*
X9920182Y-7524460D02*
X9910658Y-7505412D01*
X9910658Y-7505412D02*
X9910658Y-7429222D01*
X9910658Y-7429222D02*
X9920182Y-7410174D01*
X9920182Y-7410174D02*
X9939230Y-7400650D01*
X9939230Y-7400650D02*
X9977325Y-7400650D01*
X9977325Y-7400650D02*
X9996373Y-7410174D01*
X9996373Y-7410174D02*
X10005896Y-7429222D01*
X10005896Y-7429222D02*
X10005896Y-7448269D01*
X10005896Y-7448269D02*
X9910658Y-7467317D01*
X10177325Y-7533984D02*
X10177325Y-7333984D01*
X10177325Y-7524460D02*
X10158277Y-7533984D01*
X10158277Y-7533984D02*
X10120182Y-7533984D01*
X10120182Y-7533984D02*
X10101135Y-7524460D01*
X10101135Y-7524460D02*
X10091611Y-7514936D01*
X10091611Y-7514936D02*
X10082087Y-7495888D01*
X10082087Y-7495888D02*
X10082087Y-7438746D01*
X10082087Y-7438746D02*
X10091611Y-7419698D01*
X10091611Y-7419698D02*
X10101135Y-7410174D01*
X10101135Y-7410174D02*
X10120182Y-7400650D01*
X10120182Y-7400650D02*
X10158277Y-7400650D01*
X10158277Y-7400650D02*
X10177325Y-7410174D01*
X10253516Y-7610174D02*
X10263039Y-7600650D01*
X10263039Y-7600650D02*
X10282087Y-7572079D01*
X10282087Y-7572079D02*
X10291611Y-7553031D01*
X10291611Y-7553031D02*
X10301135Y-7524460D01*
X10301135Y-7524460D02*
X10310658Y-7476841D01*
X10310658Y-7476841D02*
X10310658Y-7438746D01*
X10310658Y-7438746D02*
X10301135Y-7391127D01*
X10301135Y-7391127D02*
X10291611Y-7362555D01*
X10291611Y-7362555D02*
X10282087Y-7343508D01*
X10282087Y-7343508D02*
X10263039Y-7314936D01*
X10263039Y-7314936D02*
X10253516Y-7305412D01*
M02*
