M48
; DRILL file {KiCad 8.0.5} date 2024-10-21T14:42:38+0200
; FORMAT={-:-/ absolute / metric / decimal}
; #@! TF.CreationDate,2024-10-21T14:42:38+02:00
; #@! TF.GenerationSoftware,Kicad,Pcbnew,8.0.5
; #@! TF.FileFunction,Plated,1,2,PTH
FMAT,2
METRIC
; #@! TA.AperFunction,Plated,PTH,ComponentDrill
T1C0.200
; #@! TA.AperFunction,Plated,PTH,ViaDrill
T2C0.300
; #@! TA.AperFunction,Plated,PTH,ComponentDrill
T3C0.400
; #@! TA.AperFunction,Plated,PTH,ComponentDrill
T4C0.600
; #@! TA.AperFunction,Plated,PTH,ComponentDrill
T5C1.000
; #@! TA.AperFunction,Plated,PTH,ComponentDrill
T6C1.100
; #@! TA.AperFunction,Plated,PTH,ComponentDrill
T7C2.200
%
G90
G05
T1
X65.795Y-43.36
X65.795Y-44.76
X66.495Y-42.66
X66.495Y-44.06
X66.495Y-45.46
X67.195Y-43.36
X67.195Y-44.76
X67.895Y-42.66
X67.895Y-44.06
X67.895Y-45.46
X68.595Y-43.36
X68.595Y-44.76
T2
X36.362Y-30.024
X36.616Y-49.328
X36.616Y-50.598
X37.886Y-50.09
X38.394Y-64.314
X39.05Y-38.3
X39.9Y-38.3
X40.426Y-65.584
X40.85Y-39.875
X41.65Y-32.225
X41.696Y-31.04
X41.95Y-63.044
X42.375Y-32.225
X43.22Y-65.584
X44.9Y-60.194
X46.5Y-55.315
X47.792Y-48.25
X47.792Y-48.88
X47.792Y-49.53
X47.792Y-50.22
X48.275Y-43.15
X48.275Y-44.025
X48.65Y-59.996
X49.207Y-41.282
X50.078Y-43.232
X50.174Y-59.234
X50.314Y-54.062
X50.84Y-43.232
X50.84Y-47.804
X50.84Y-48.566
X50.95Y-34.85
X50.975Y-33.75
X53.126Y-35.104
X53.634Y-29.262
X53.888Y-51.741
X53.888Y-52.63
X53.888Y-58.472
X53.888Y-59.488
X54.396Y-32.056
X54.523Y-52.122
X54.65Y-29.262
X56.936Y-45.772
X57.19Y-32.056
X57.19Y-45.137
X57.571Y-46.026
X57.612Y-55.688
X58.587Y-44.125
X58.968Y-29.262
X59.984Y-57.964
X59.984Y-63.552
X60.746Y-57.964
X61.59Y-36.45
X61.6Y-35.7
X62.27Y-63.552
X62.586Y-48.95
X62.606Y-48.15
X63.475Y-48.95
X63.5Y-48.15
X64.048Y-51.36
X64.556Y-29.262
X64.75Y-31.7
X64.81Y-63.552
X65.15Y-41.55
X65.925Y-41.55
X66.08Y-51.36
X66.625Y-41.575
X68.112Y-63.552
X68.366Y-37.644
X68.62Y-51.36
X69.382Y-38.914
X71.16Y-37.898
X71.668Y-51.36
X72.075Y-31.925
X72.43Y-29.262
X72.43Y-63.552
X73.192Y-29.262
X74.97Y-63.552
X77.764Y-56.694
X77.764Y-63.552
X78.526Y-56.948
X79.796Y-63.552
X80.304Y-39.168
X80.558Y-38.406
X80.812Y-55.17
X81.066Y-39.168
X81.574Y-55.17
X82.3Y-58.35
X82.336Y-29.262
X82.59Y-32.056
X82.59Y-33.072
X82.59Y-42.978
X83.098Y-42.216
X83.36Y-65.84
X83.606Y-42.978
X83.86Y-32.564
X85.006Y-44.97
X85.02Y-43.192
X85.02Y-43.994
X86.4Y-66.092
X86.5Y-56.375
X86.654Y-29.262
X87.416Y-33.072
X87.416Y-34.596
X87.416Y-36.374
X87.416Y-47.042
X87.9Y-38.275
X87.993Y-61.706
X88.075Y-44.775
X88.33Y-45.85
X88.432Y-51.868
X88.432Y-61.266
X88.703Y-65.838
X89.2Y-50.35
X89.321Y-53.519
X89.448Y-51.106
X89.448Y-51.995
X90.42Y-42.9
X90.718Y-41.454
X90.718Y-50.217
X90.718Y-54.154
X90.972Y-51.614
X91.25Y-55.7
X91.48Y-34.342
X91.7Y-57.375
X92.115Y-47.804
X92.15Y-57.825
X92.496Y-35.358
X92.496Y-45.85
X93.004Y-57.202
X93.131Y-34.723
X93.68Y-46.41
X93.766Y-52.884
X93.766Y-62.028
X94.02Y-57.202
X94.782Y-62.028
X96.052Y-66.346
X96.052Y-67.108
X96.179Y-35.358
X97.068Y-35.358
X97.875Y-59.975
X98.375Y-40.05
X98.575Y-59.975
X101.132Y-62.282
X101.767Y-40.311
X101.894Y-38.533
T3
X54.016Y-49.074
X54.499Y-47.907
X54.499Y-50.241
X55.666Y-47.424
X55.666Y-50.724
X56.833Y-47.907
X56.833Y-50.241
X57.316Y-49.074
T5
X61.0Y-61.266
X61.0Y-65.838
X63.54Y-61.266
X63.54Y-65.838
X66.08Y-61.266
X66.08Y-65.838
X68.62Y-61.266
X68.62Y-65.838
X71.16Y-61.266
X71.16Y-65.838
X73.7Y-61.266
X73.7Y-65.838
X76.24Y-61.266
X76.24Y-65.838
X78.78Y-61.266
X78.78Y-65.838
X81.32Y-61.266
X81.32Y-65.838
T6
X89.62Y-32.2
X92.16Y-32.2
X94.7Y-32.2
X97.24Y-32.2
X99.78Y-32.2
T7
X55.666Y-49.074
T4
X38.069Y-52.374G85X37.269Y-52.374
G05
X38.069Y-61.014G85X37.269Y-61.014
G05
X42.399Y-52.374G85X41.299Y-52.374
G05
X42.399Y-61.014G85X41.299Y-61.014
G05
M30
