%TF.GenerationSoftware,KiCad,Pcbnew,8.0.5*%
%TF.CreationDate,2024-10-21T18:47:52+02:00*%
%TF.ProjectId,both,626f7468-2e6b-4696-9361-645f70636258,rev?*%
%TF.SameCoordinates,Original*%
%TF.FileFunction,Drillmap*%
%TF.FilePolarity,Positive*%
%FSLAX45Y45*%
G04 Gerber Fmt 4.5, Leading zero omitted, Abs format (unit mm)*
G04 Created by KiCad (PCBNEW 8.0.5) date 2024-10-21 18:47:52*
%MOMM*%
%LPD*%
G01*
G04 APERTURE LIST*
%ADD10C,0.050000*%
%ADD11C,0.200000*%
%ADD12C,0.100000*%
%ADD13C,0.110000*%
%ADD14C,0.220000*%
G04 APERTURE END LIST*
D10*
X3703200Y-9095547D02*
X3703200Y-8645547D01*
X2638700Y-6026200D02*
G75*
G02*
X2518700Y-5906200I0J120000D01*
G01*
X3703200Y-9945547D02*
G75*
G02*
X3601587Y-10045537I-100000J-3D01*
G01*
X9318700Y-5906200D02*
X9318700Y-2146053D01*
X8133200Y-7345547D02*
G75*
G02*
X8253203Y-7465547I0J-120003D01*
G01*
X9198700Y-2026053D02*
G75*
G02*
X9318697Y-2146053I0J-119997D01*
G01*
X9318700Y-5906200D02*
G75*
G02*
X9198700Y-6026200I-120000J0D01*
G01*
X4023200Y-7345547D02*
X8133200Y-7345547D01*
X2803200Y-8645547D02*
G75*
G02*
X3703200Y-8645547I450000J0D01*
G01*
X3903200Y-11725547D02*
X3903200Y-9545547D01*
X3903200Y-9095547D02*
G75*
G02*
X3703200Y-9095547I-100000J0D01*
G01*
X3703200Y-9545547D02*
G75*
G02*
X3903200Y-9545547I100000J0D01*
G01*
X2803200Y-8645547D02*
X2803200Y-9945547D01*
X8253200Y-11725547D02*
G75*
G02*
X8133200Y-11845550I-120000J-3D01*
G01*
X2903200Y-10045547D02*
X3601587Y-10045547D01*
X2903200Y-10045547D02*
G75*
G02*
X2803203Y-9945547I0J99997D01*
G01*
X3703200Y-9545547D02*
X3703200Y-9945547D01*
X3903200Y-7465547D02*
G75*
G02*
X4023200Y-7345550I120000J-3D01*
G01*
X2638700Y-6026200D02*
X9198700Y-6026200D01*
X8253200Y-7465547D02*
X8253200Y-11725547D01*
X3903200Y-9095547D02*
X3903200Y-7465547D01*
X9198700Y-2026053D02*
X2638700Y-2026200D01*
X2518700Y-2146200D02*
G75*
G02*
X2638700Y-2026200I120000J0D01*
G01*
X2518700Y-5906200D02*
X2518700Y-2146200D01*
X4023200Y-11845547D02*
G75*
G02*
X3903203Y-11725547I0J119997D01*
G01*
X8133200Y-11845547D02*
X4023200Y-11845547D01*
D11*
D12*
X5588200Y-3552200D02*
X5608200Y-3572200D01*
X5608200Y-3552200D02*
X5588200Y-3572200D01*
X5588200Y-3692200D02*
X5608200Y-3712200D01*
X5608200Y-3692200D02*
X5588200Y-3712200D01*
X5658200Y-3482200D02*
X5678200Y-3502200D01*
X5678200Y-3482200D02*
X5658200Y-3502200D01*
X5658200Y-3622200D02*
X5678200Y-3642200D01*
X5678200Y-3622200D02*
X5658200Y-3642200D01*
X5658200Y-3762200D02*
X5678200Y-3782200D01*
X5678200Y-3762200D02*
X5658200Y-3782200D01*
X5728200Y-3552200D02*
X5748200Y-3572200D01*
X5748200Y-3552200D02*
X5728200Y-3572200D01*
X5728200Y-3692200D02*
X5748200Y-3712200D01*
X5748200Y-3692200D02*
X5728200Y-3712200D01*
X5798200Y-3482200D02*
X5818200Y-3502200D01*
X5818200Y-3482200D02*
X5798200Y-3502200D01*
X5798200Y-3622200D02*
X5818200Y-3642200D01*
X5818200Y-3622200D02*
X5798200Y-3642200D01*
X5798200Y-3762200D02*
X5818200Y-3782200D01*
X5818200Y-3762200D02*
X5798200Y-3782200D01*
X5868200Y-3552200D02*
X5888200Y-3572200D01*
X5888200Y-3552200D02*
X5868200Y-3572200D01*
X5868200Y-3692200D02*
X5888200Y-3712200D01*
X5888200Y-3692200D02*
X5868200Y-3712200D01*
X2669900Y-2228600D02*
G75*
G02*
X2639900Y-2228600I-15000J0D01*
G01*
X2639900Y-2228600D02*
G75*
G02*
X2669900Y-2228600I15000J0D01*
G01*
X2695300Y-4159000D02*
G75*
G02*
X2665300Y-4159000I-15000J0D01*
G01*
X2665300Y-4159000D02*
G75*
G02*
X2695300Y-4159000I15000J0D01*
G01*
X2695300Y-4286000D02*
G75*
G02*
X2665300Y-4286000I-15000J0D01*
G01*
X2665300Y-4286000D02*
G75*
G02*
X2695300Y-4286000I15000J0D01*
G01*
X2822300Y-4235200D02*
G75*
G02*
X2792300Y-4235200I-15000J0D01*
G01*
X2792300Y-4235200D02*
G75*
G02*
X2822300Y-4235200I15000J0D01*
G01*
X2873100Y-5657600D02*
G75*
G02*
X2843100Y-5657600I-15000J0D01*
G01*
X2843100Y-5657600D02*
G75*
G02*
X2873100Y-5657600I15000J0D01*
G01*
X2915200Y-8726347D02*
G75*
G02*
X2885200Y-8726347I-15000J0D01*
G01*
X2885200Y-8726347D02*
G75*
G02*
X2915200Y-8726347I15000J0D01*
G01*
X2925200Y-9640747D02*
G75*
G02*
X2895200Y-9640747I-15000J0D01*
G01*
X2895200Y-9640747D02*
G75*
G02*
X2925200Y-9640747I15000J0D01*
G01*
X2938700Y-3056200D02*
G75*
G02*
X2908700Y-3056200I-15000J0D01*
G01*
X2908700Y-3056200D02*
G75*
G02*
X2938700Y-3056200I15000J0D01*
G01*
X2940600Y-8650147D02*
G75*
G02*
X2910600Y-8650147I-15000J0D01*
G01*
X2910600Y-8650147D02*
G75*
G02*
X2940600Y-8650147I15000J0D01*
G01*
X2940600Y-9716947D02*
G75*
G02*
X2910600Y-9716947I-15000J0D01*
G01*
X2910600Y-9716947D02*
G75*
G02*
X2940600Y-9716947I15000J0D01*
G01*
X2991400Y-8726347D02*
G75*
G02*
X2961400Y-8726347I-15000J0D01*
G01*
X2961400Y-8726347D02*
G75*
G02*
X2991400Y-8726347I15000J0D01*
G01*
X2991400Y-9640747D02*
G75*
G02*
X2961400Y-9640747I-15000J0D01*
G01*
X2961400Y-9640747D02*
G75*
G02*
X2991400Y-9640747I15000J0D01*
G01*
X3023700Y-3056200D02*
G75*
G02*
X2993700Y-3056200I-15000J0D01*
G01*
X2993700Y-3056200D02*
G75*
G02*
X3023700Y-3056200I15000J0D01*
G01*
X3076300Y-5784600D02*
G75*
G02*
X3046300Y-5784600I-15000J0D01*
G01*
X3046300Y-5784600D02*
G75*
G02*
X3076300Y-5784600I15000J0D01*
G01*
X3093000Y-9513747D02*
G75*
G02*
X3063000Y-9513747I-15000J0D01*
G01*
X3063000Y-9513747D02*
G75*
G02*
X3093000Y-9513747I15000J0D01*
G01*
X3118700Y-3213700D02*
G75*
G02*
X3088700Y-3213700I-15000J0D01*
G01*
X3088700Y-3213700D02*
G75*
G02*
X3118700Y-3213700I15000J0D01*
G01*
X3169200Y-8878747D02*
G75*
G02*
X3139200Y-8878747I-15000J0D01*
G01*
X3139200Y-8878747D02*
G75*
G02*
X3169200Y-8878747I15000J0D01*
G01*
X3198700Y-2448700D02*
G75*
G02*
X3168700Y-2448700I-15000J0D01*
G01*
X3168700Y-2448700D02*
G75*
G02*
X3198700Y-2448700I15000J0D01*
G01*
X3203300Y-2330200D02*
G75*
G02*
X3173300Y-2330200I-15000J0D01*
G01*
X3173300Y-2330200D02*
G75*
G02*
X3203300Y-2330200I15000J0D01*
G01*
X3228700Y-5530600D02*
G75*
G02*
X3198700Y-5530600I-15000J0D01*
G01*
X3198700Y-5530600D02*
G75*
G02*
X3228700Y-5530600I15000J0D01*
G01*
X3270800Y-9869347D02*
G75*
G02*
X3240800Y-9869347I-15000J0D01*
G01*
X3240800Y-9869347D02*
G75*
G02*
X3270800Y-9869347I15000J0D01*
G01*
X3271200Y-2448700D02*
G75*
G02*
X3241200Y-2448700I-15000J0D01*
G01*
X3241200Y-2448700D02*
G75*
G02*
X3271200Y-2448700I15000J0D01*
G01*
X3283500Y-9450247D02*
G75*
G02*
X3253500Y-9450247I-15000J0D01*
G01*
X3253500Y-9450247D02*
G75*
G02*
X3283500Y-9450247I15000J0D01*
G01*
X3355700Y-5784600D02*
G75*
G02*
X3325700Y-5784600I-15000J0D01*
G01*
X3325700Y-5784600D02*
G75*
G02*
X3355700Y-5784600I15000J0D01*
G01*
X3474000Y-9869347D02*
G75*
G02*
X3444000Y-9869347I-15000J0D01*
G01*
X3444000Y-9869347D02*
G75*
G02*
X3474000Y-9869347I15000J0D01*
G01*
X3499400Y-8700947D02*
G75*
G02*
X3469400Y-8700947I-15000J0D01*
G01*
X3469400Y-8700947D02*
G75*
G02*
X3499400Y-8700947I15000J0D01*
G01*
X3523700Y-5245600D02*
G75*
G02*
X3493700Y-5245600I-15000J0D01*
G01*
X3493700Y-5245600D02*
G75*
G02*
X3523700Y-5245600I15000J0D01*
G01*
X3548200Y-8635547D02*
G75*
G02*
X3518200Y-8635547I-15000J0D01*
G01*
X3518200Y-8635547D02*
G75*
G02*
X3548200Y-8635547I15000J0D01*
G01*
X3573200Y-8710547D02*
G75*
G02*
X3543200Y-8710547I-15000J0D01*
G01*
X3543200Y-8710547D02*
G75*
G02*
X3573200Y-8710547I15000J0D01*
G01*
X3683700Y-4757700D02*
G75*
G02*
X3653700Y-4757700I-15000J0D01*
G01*
X3653700Y-4757700D02*
G75*
G02*
X3683700Y-4757700I15000J0D01*
G01*
X3812900Y-4051200D02*
G75*
G02*
X3782900Y-4051200I-15000J0D01*
G01*
X3782900Y-4051200D02*
G75*
G02*
X3812900Y-4051200I15000J0D01*
G01*
X3812900Y-4114200D02*
G75*
G02*
X3782900Y-4114200I-15000J0D01*
G01*
X3782900Y-4114200D02*
G75*
G02*
X3812900Y-4114200I15000J0D01*
G01*
X3812900Y-4179200D02*
G75*
G02*
X3782900Y-4179200I-15000J0D01*
G01*
X3782900Y-4179200D02*
G75*
G02*
X3812900Y-4179200I15000J0D01*
G01*
X3812900Y-4248200D02*
G75*
G02*
X3782900Y-4248200I-15000J0D01*
G01*
X3782900Y-4248200D02*
G75*
G02*
X3812900Y-4248200I15000J0D01*
G01*
X3861200Y-3541200D02*
G75*
G02*
X3831200Y-3541200I-15000J0D01*
G01*
X3831200Y-3541200D02*
G75*
G02*
X3861200Y-3541200I15000J0D01*
G01*
X3861200Y-3628700D02*
G75*
G02*
X3831200Y-3628700I-15000J0D01*
G01*
X3831200Y-3628700D02*
G75*
G02*
X3861200Y-3628700I15000J0D01*
G01*
X3898680Y-5225800D02*
G75*
G02*
X3868680Y-5225800I-15000J0D01*
G01*
X3868680Y-5225800D02*
G75*
G02*
X3898680Y-5225800I15000J0D01*
G01*
X3954400Y-3354400D02*
G75*
G02*
X3924400Y-3354400I-15000J0D01*
G01*
X3924400Y-3354400D02*
G75*
G02*
X3954400Y-3354400I15000J0D01*
G01*
X4021000Y-8319947D02*
G75*
G02*
X3991000Y-8319947I-15000J0D01*
G01*
X3991000Y-8319947D02*
G75*
G02*
X4021000Y-8319947I15000J0D01*
G01*
X4033700Y-8243747D02*
G75*
G02*
X4003700Y-8243747I-15000J0D01*
G01*
X4003700Y-8243747D02*
G75*
G02*
X4033700Y-8243747I15000J0D01*
G01*
X4041500Y-3549400D02*
G75*
G02*
X4011500Y-3549400I-15000J0D01*
G01*
X4011500Y-3549400D02*
G75*
G02*
X4041500Y-3549400I15000J0D01*
G01*
X4051080Y-5149600D02*
G75*
G02*
X4021080Y-5149600I-15000J0D01*
G01*
X4021080Y-5149600D02*
G75*
G02*
X4051080Y-5149600I15000J0D01*
G01*
X4065130Y-4632450D02*
G75*
G02*
X4035130Y-4632450I-15000J0D01*
G01*
X4035130Y-4632450D02*
G75*
G02*
X4065130Y-4632450I15000J0D01*
G01*
X4084500Y-7850047D02*
G75*
G02*
X4054500Y-7850047I-15000J0D01*
G01*
X4054500Y-7850047D02*
G75*
G02*
X4084500Y-7850047I15000J0D01*
G01*
X4117700Y-3549400D02*
G75*
G02*
X4087700Y-3549400I-15000J0D01*
G01*
X4087700Y-3549400D02*
G75*
G02*
X4117700Y-3549400I15000J0D01*
G01*
X4117700Y-4006600D02*
G75*
G02*
X4087700Y-4006600I-15000J0D01*
G01*
X4087700Y-4006600D02*
G75*
G02*
X4117700Y-4006600I15000J0D01*
G01*
X4117700Y-4082800D02*
G75*
G02*
X4087700Y-4082800I-15000J0D01*
G01*
X4087700Y-4082800D02*
G75*
G02*
X4117700Y-4082800I15000J0D01*
G01*
X4128700Y-2711200D02*
G75*
G02*
X4098700Y-2711200I-15000J0D01*
G01*
X4098700Y-2711200D02*
G75*
G02*
X4128700Y-2711200I15000J0D01*
G01*
X4131200Y-2601200D02*
G75*
G02*
X4101200Y-2601200I-15000J0D01*
G01*
X4101200Y-2601200D02*
G75*
G02*
X4131200Y-2601200I15000J0D01*
G01*
X4224200Y-7583347D02*
G75*
G02*
X4194200Y-7583347I-15000J0D01*
G01*
X4194200Y-7583347D02*
G75*
G02*
X4224200Y-7583347I15000J0D01*
G01*
X4224200Y-10656747D02*
G75*
G02*
X4194200Y-10656747I-15000J0D01*
G01*
X4194200Y-10656747D02*
G75*
G02*
X4224200Y-10656747I15000J0D01*
G01*
X4224200Y-10758347D02*
G75*
G02*
X4194200Y-10758347I-15000J0D01*
G01*
X4194200Y-10758347D02*
G75*
G02*
X4224200Y-10758347I15000J0D01*
G01*
X4248400Y-8154847D02*
G75*
G02*
X4218400Y-8154847I-15000J0D01*
G01*
X4218400Y-8154847D02*
G75*
G02*
X4248400Y-8154847I15000J0D01*
G01*
X4300400Y-7837347D02*
G75*
G02*
X4270400Y-7837347I-15000J0D01*
G01*
X4270400Y-7837347D02*
G75*
G02*
X4300400Y-7837347I15000J0D01*
G01*
X4325800Y-9691547D02*
G75*
G02*
X4295800Y-9691547I-15000J0D01*
G01*
X4295800Y-9691547D02*
G75*
G02*
X4325800Y-9691547I15000J0D01*
G01*
X4346300Y-2736600D02*
G75*
G02*
X4316300Y-2736600I-15000J0D01*
G01*
X4316300Y-2736600D02*
G75*
G02*
X4346300Y-2736600I15000J0D01*
G01*
X4397100Y-2152400D02*
G75*
G02*
X4367100Y-2152400I-15000J0D01*
G01*
X4367100Y-2152400D02*
G75*
G02*
X4397100Y-2152400I15000J0D01*
G01*
X4400044Y-11317723D02*
G75*
G02*
X4370044Y-11317723I-15000J0D01*
G01*
X4370044Y-11317723D02*
G75*
G02*
X4400044Y-11317723I15000J0D01*
G01*
X4414700Y-11418747D02*
G75*
G02*
X4384700Y-11418747I-15000J0D01*
G01*
X4384700Y-11418747D02*
G75*
G02*
X4414700Y-11418747I15000J0D01*
G01*
X4422500Y-4400300D02*
G75*
G02*
X4392500Y-4400300I-15000J0D01*
G01*
X4392500Y-4400300D02*
G75*
G02*
X4422500Y-4400300I15000J0D01*
G01*
X4422500Y-4489200D02*
G75*
G02*
X4392500Y-4489200I-15000J0D01*
G01*
X4392500Y-4489200D02*
G75*
G02*
X4422500Y-4489200I15000J0D01*
G01*
X4422500Y-5073400D02*
G75*
G02*
X4392500Y-5073400I-15000J0D01*
G01*
X4392500Y-5073400D02*
G75*
G02*
X4422500Y-5073400I15000J0D01*
G01*
X4422500Y-5175000D02*
G75*
G02*
X4392500Y-5175000I-15000J0D01*
G01*
X4392500Y-5175000D02*
G75*
G02*
X4422500Y-5175000I15000J0D01*
G01*
X4473300Y-2431800D02*
G75*
G02*
X4443300Y-2431800I-15000J0D01*
G01*
X4443300Y-2431800D02*
G75*
G02*
X4473300Y-2431800I15000J0D01*
G01*
X4478200Y-8777147D02*
G75*
G02*
X4448200Y-8777147I-15000J0D01*
G01*
X4448200Y-8777147D02*
G75*
G02*
X4478200Y-8777147I15000J0D01*
G01*
X4478200Y-9285147D02*
G75*
G02*
X4448200Y-9285147I-15000J0D01*
G01*
X4448200Y-9285147D02*
G75*
G02*
X4478200Y-9285147I15000J0D01*
G01*
X4486000Y-4438400D02*
G75*
G02*
X4456000Y-4438400I-15000J0D01*
G01*
X4456000Y-4438400D02*
G75*
G02*
X4486000Y-4438400I15000J0D01*
G01*
X4498700Y-2152400D02*
G75*
G02*
X4468700Y-2152400I-15000J0D01*
G01*
X4468700Y-2152400D02*
G75*
G02*
X4498700Y-2152400I15000J0D01*
G01*
X4503600Y-9894747D02*
G75*
G02*
X4473600Y-9894747I-15000J0D01*
G01*
X4473600Y-9894747D02*
G75*
G02*
X4503600Y-9894747I15000J0D01*
G01*
X4529000Y-9386747D02*
G75*
G02*
X4499000Y-9386747I-15000J0D01*
G01*
X4499000Y-9386747D02*
G75*
G02*
X4529000Y-9386747I15000J0D01*
G01*
X4579800Y-7837347D02*
G75*
G02*
X4549800Y-7837347I-15000J0D01*
G01*
X4549800Y-7837347D02*
G75*
G02*
X4579800Y-7837347I15000J0D01*
G01*
X4605200Y-8777147D02*
G75*
G02*
X4575200Y-8777147I-15000J0D01*
G01*
X4575200Y-8777147D02*
G75*
G02*
X4605200Y-8777147I15000J0D01*
G01*
X4605200Y-9285147D02*
G75*
G02*
X4575200Y-9285147I-15000J0D01*
G01*
X4575200Y-9285147D02*
G75*
G02*
X4605200Y-9285147I15000J0D01*
G01*
X4681400Y-7583347D02*
G75*
G02*
X4651400Y-7583347I-15000J0D01*
G01*
X4651400Y-7583347D02*
G75*
G02*
X4681400Y-7583347I15000J0D01*
G01*
X4727300Y-3803400D02*
G75*
G02*
X4697300Y-3803400I-15000J0D01*
G01*
X4697300Y-3803400D02*
G75*
G02*
X4727300Y-3803400I15000J0D01*
G01*
X4732200Y-8421547D02*
G75*
G02*
X4702200Y-8421547I-15000J0D01*
G01*
X4702200Y-8421547D02*
G75*
G02*
X4732200Y-8421547I15000J0D01*
G01*
X4734550Y-8177897D02*
G75*
G02*
X4704550Y-8177897I-15000J0D01*
G01*
X4704550Y-8177897D02*
G75*
G02*
X4734550Y-8177897I15000J0D01*
G01*
X4752700Y-2431800D02*
G75*
G02*
X4722700Y-2431800I-15000J0D01*
G01*
X4722700Y-2431800D02*
G75*
G02*
X4752700Y-2431800I15000J0D01*
G01*
X4752700Y-3739900D02*
G75*
G02*
X4722700Y-3739900I-15000J0D01*
G01*
X4722700Y-3739900D02*
G75*
G02*
X4752700Y-3739900I15000J0D01*
G01*
X4757600Y-11240947D02*
G75*
G02*
X4727600Y-11240947I-15000J0D01*
G01*
X4727600Y-11240947D02*
G75*
G02*
X4757600Y-11240947I15000J0D01*
G01*
X4790800Y-3828800D02*
G75*
G02*
X4760800Y-3828800I-15000J0D01*
G01*
X4760800Y-3828800D02*
G75*
G02*
X4790800Y-3828800I15000J0D01*
G01*
X4794950Y-4794950D02*
G75*
G02*
X4764950Y-4794950I-15000J0D01*
G01*
X4764950Y-4794950D02*
G75*
G02*
X4794950Y-4794950I15000J0D01*
G01*
X4808400Y-8421547D02*
G75*
G02*
X4778400Y-8421547I-15000J0D01*
G01*
X4778400Y-8421547D02*
G75*
G02*
X4808400Y-8421547I15000J0D01*
G01*
X4871900Y-8167547D02*
G75*
G02*
X4841900Y-8167547I-15000J0D01*
G01*
X4841900Y-8167547D02*
G75*
G02*
X4871900Y-8167547I15000J0D01*
G01*
X4892400Y-3638700D02*
G75*
G02*
X4862400Y-3638700I-15000J0D01*
G01*
X4862400Y-3638700D02*
G75*
G02*
X4892400Y-3638700I15000J0D01*
G01*
X4910000Y-9589947D02*
G75*
G02*
X4880000Y-9589947I-15000J0D01*
G01*
X4880000Y-9589947D02*
G75*
G02*
X4910000Y-9589947I15000J0D01*
G01*
X4910000Y-10072547D02*
G75*
G02*
X4880000Y-10072547I-15000J0D01*
G01*
X4880000Y-10072547D02*
G75*
G02*
X4910000Y-10072547I15000J0D01*
G01*
X4930500Y-2152400D02*
G75*
G02*
X4900500Y-2152400I-15000J0D01*
G01*
X4900500Y-2152400D02*
G75*
G02*
X4930500Y-2152400I15000J0D01*
G01*
X4973500Y-8154847D02*
G75*
G02*
X4943500Y-8154847I-15000J0D01*
G01*
X4943500Y-8154847D02*
G75*
G02*
X4973500Y-8154847I15000J0D01*
G01*
X4986200Y-8650147D02*
G75*
G02*
X4956200Y-8650147I-15000J0D01*
G01*
X4956200Y-8650147D02*
G75*
G02*
X4986200Y-8650147I15000J0D01*
G01*
X5011600Y-9589947D02*
G75*
G02*
X4981600Y-9589947I-15000J0D01*
G01*
X4981600Y-9589947D02*
G75*
G02*
X5011600Y-9589947I15000J0D01*
G01*
X5011600Y-10072547D02*
G75*
G02*
X4981600Y-10072547I-15000J0D01*
G01*
X4981600Y-10072547D02*
G75*
G02*
X5011600Y-10072547I15000J0D01*
G01*
X5032100Y-5022600D02*
G75*
G02*
X5002100Y-5022600I-15000J0D01*
G01*
X5002100Y-5022600D02*
G75*
G02*
X5032100Y-5022600I15000J0D01*
G01*
X5032100Y-5581400D02*
G75*
G02*
X5002100Y-5581400I-15000J0D01*
G01*
X5002100Y-5581400D02*
G75*
G02*
X5032100Y-5581400I15000J0D01*
G01*
X5087800Y-7532547D02*
G75*
G02*
X5057800Y-7532547I-15000J0D01*
G01*
X5057800Y-7532547D02*
G75*
G02*
X5087800Y-7532547I15000J0D01*
G01*
X5108300Y-5022600D02*
G75*
G02*
X5078300Y-5022600I-15000J0D01*
G01*
X5078300Y-5022600D02*
G75*
G02*
X5108300Y-5022600I15000J0D01*
G01*
X5158500Y-8492247D02*
G75*
G02*
X5128500Y-8492247I-15000J0D01*
G01*
X5128500Y-8492247D02*
G75*
G02*
X5158500Y-8492247I15000J0D01*
G01*
X5192700Y-2871200D02*
G75*
G02*
X5162700Y-2871200I-15000J0D01*
G01*
X5162700Y-2871200D02*
G75*
G02*
X5192700Y-2871200I15000J0D01*
G01*
X5193700Y-2796200D02*
G75*
G02*
X5163700Y-2796200I-15000J0D01*
G01*
X5163700Y-2796200D02*
G75*
G02*
X5193700Y-2796200I15000J0D01*
G01*
X5214800Y-8396147D02*
G75*
G02*
X5184800Y-8396147I-15000J0D01*
G01*
X5184800Y-8396147D02*
G75*
G02*
X5214800Y-8396147I15000J0D01*
G01*
X5260700Y-5581400D02*
G75*
G02*
X5230700Y-5581400I-15000J0D01*
G01*
X5230700Y-5581400D02*
G75*
G02*
X5260700Y-5581400I15000J0D01*
G01*
X5265600Y-7938947D02*
G75*
G02*
X5235600Y-7938947I-15000J0D01*
G01*
X5235600Y-7938947D02*
G75*
G02*
X5265600Y-7938947I15000J0D01*
G01*
X5292300Y-4121200D02*
G75*
G02*
X5262300Y-4121200I-15000J0D01*
G01*
X5262300Y-4121200D02*
G75*
G02*
X5292300Y-4121200I15000J0D01*
G01*
X5294336Y-4041200D02*
G75*
G02*
X5264336Y-4041200I-15000J0D01*
G01*
X5264336Y-4041200D02*
G75*
G02*
X5294336Y-4041200I15000J0D01*
G01*
X5316400Y-11291747D02*
G75*
G02*
X5286400Y-11291747I-15000J0D01*
G01*
X5286400Y-11291747D02*
G75*
G02*
X5316400Y-11291747I15000J0D01*
G01*
X5381200Y-4121200D02*
G75*
G02*
X5351200Y-4121200I-15000J0D01*
G01*
X5351200Y-4121200D02*
G75*
G02*
X5381200Y-4121200I15000J0D01*
G01*
X5383700Y-4041200D02*
G75*
G02*
X5353700Y-4041200I-15000J0D01*
G01*
X5353700Y-4041200D02*
G75*
G02*
X5383700Y-4041200I15000J0D01*
G01*
X5392600Y-7634147D02*
G75*
G02*
X5362600Y-7634147I-15000J0D01*
G01*
X5362600Y-7634147D02*
G75*
G02*
X5392600Y-7634147I15000J0D01*
G01*
X5392600Y-7735747D02*
G75*
G02*
X5362600Y-7735747I-15000J0D01*
G01*
X5362600Y-7735747D02*
G75*
G02*
X5392600Y-7735747I15000J0D01*
G01*
X5418000Y-10072547D02*
G75*
G02*
X5388000Y-10072547I-15000J0D01*
G01*
X5388000Y-10072547D02*
G75*
G02*
X5418000Y-10072547I15000J0D01*
G01*
X5438500Y-4362200D02*
G75*
G02*
X5408500Y-4362200I-15000J0D01*
G01*
X5408500Y-4362200D02*
G75*
G02*
X5438500Y-4362200I15000J0D01*
G01*
X5468800Y-7684947D02*
G75*
G02*
X5438800Y-7684947I-15000J0D01*
G01*
X5438800Y-7684947D02*
G75*
G02*
X5468800Y-7684947I15000J0D01*
G01*
X5489300Y-2152400D02*
G75*
G02*
X5459300Y-2152400I-15000J0D01*
G01*
X5459300Y-2152400D02*
G75*
G02*
X5489300Y-2152400I15000J0D01*
G01*
X5508700Y-2396200D02*
G75*
G02*
X5478700Y-2396200I-15000J0D01*
G01*
X5478700Y-2396200D02*
G75*
G02*
X5508700Y-2396200I15000J0D01*
G01*
X5514700Y-5581400D02*
G75*
G02*
X5484700Y-5581400I-15000J0D01*
G01*
X5484700Y-5581400D02*
G75*
G02*
X5514700Y-5581400I15000J0D01*
G01*
X5548700Y-3381200D02*
G75*
G02*
X5518700Y-3381200I-15000J0D01*
G01*
X5518700Y-3381200D02*
G75*
G02*
X5548700Y-3381200I15000J0D01*
G01*
X5570400Y-8218347D02*
G75*
G02*
X5540400Y-8218347I-15000J0D01*
G01*
X5540400Y-8218347D02*
G75*
G02*
X5570400Y-8218347I15000J0D01*
G01*
X5626200Y-3381200D02*
G75*
G02*
X5596200Y-3381200I-15000J0D01*
G01*
X5596200Y-3381200D02*
G75*
G02*
X5626200Y-3381200I15000J0D01*
G01*
X5641700Y-4362200D02*
G75*
G02*
X5611700Y-4362200I-15000J0D01*
G01*
X5611700Y-4362200D02*
G75*
G02*
X5641700Y-4362200I15000J0D01*
G01*
X5672000Y-11647347D02*
G75*
G02*
X5642000Y-11647347I-15000J0D01*
G01*
X5642000Y-11647347D02*
G75*
G02*
X5672000Y-11647347I15000J0D01*
G01*
X5696200Y-3383700D02*
G75*
G02*
X5666200Y-3383700I-15000J0D01*
G01*
X5666200Y-3383700D02*
G75*
G02*
X5696200Y-3383700I15000J0D01*
G01*
X5760900Y-9399447D02*
G75*
G02*
X5730900Y-9399447I-15000J0D01*
G01*
X5730900Y-9399447D02*
G75*
G02*
X5760900Y-9399447I15000J0D01*
G01*
X5816998Y-8366931D02*
G75*
G02*
X5786998Y-8366931I-15000J0D01*
G01*
X5786998Y-8366931D02*
G75*
G02*
X5816998Y-8366931I15000J0D01*
G01*
X5824400Y-10859947D02*
G75*
G02*
X5794400Y-10859947I-15000J0D01*
G01*
X5794400Y-10859947D02*
G75*
G02*
X5824400Y-10859947I15000J0D01*
G01*
X5824400Y-10936147D02*
G75*
G02*
X5794400Y-10936147I-15000J0D01*
G01*
X5794400Y-10936147D02*
G75*
G02*
X5824400Y-10936147I15000J0D01*
G01*
X5827050Y-11434097D02*
G75*
G02*
X5797050Y-11434097I-15000J0D01*
G01*
X5797050Y-11434097D02*
G75*
G02*
X5827050Y-11434097I15000J0D01*
G01*
X5844900Y-5581400D02*
G75*
G02*
X5814900Y-5581400I-15000J0D01*
G01*
X5814900Y-5581400D02*
G75*
G02*
X5844900Y-5581400I15000J0D01*
G01*
X5870300Y-2990600D02*
G75*
G02*
X5840300Y-2990600I-15000J0D01*
G01*
X5840300Y-2990600D02*
G75*
G02*
X5870300Y-2990600I15000J0D01*
G01*
X5875200Y-10377347D02*
G75*
G02*
X5845200Y-10377347I-15000J0D01*
G01*
X5845200Y-10377347D02*
G75*
G02*
X5875200Y-10377347I15000J0D01*
G01*
X5895700Y-4362200D02*
G75*
G02*
X5865700Y-4362200I-15000J0D01*
G01*
X5865700Y-4362200D02*
G75*
G02*
X5895700Y-4362200I15000J0D01*
G01*
X5913300Y-10453547D02*
G75*
G02*
X5883300Y-10453547I-15000J0D01*
G01*
X5883300Y-10453547D02*
G75*
G02*
X5913300Y-10453547I15000J0D01*
G01*
X5964100Y-10390047D02*
G75*
G02*
X5934100Y-10390047I-15000J0D01*
G01*
X5934100Y-10390047D02*
G75*
G02*
X5964100Y-10390047I15000J0D01*
G01*
X5971900Y-3117600D02*
G75*
G02*
X5941900Y-3117600I-15000J0D01*
G01*
X5941900Y-3117600D02*
G75*
G02*
X5971900Y-3117600I15000J0D01*
G01*
X6027600Y-7557947D02*
G75*
G02*
X5997600Y-7557947I-15000J0D01*
G01*
X5997600Y-7557947D02*
G75*
G02*
X6027600Y-7557947I15000J0D01*
G01*
X6027600Y-8446947D02*
G75*
G02*
X5997600Y-8446947I-15000J0D01*
G01*
X5997600Y-8446947D02*
G75*
G02*
X6027600Y-8446947I15000J0D01*
G01*
X6053000Y-8269147D02*
G75*
G02*
X6023000Y-8269147I-15000J0D01*
G01*
X6023000Y-8269147D02*
G75*
G02*
X6053000Y-8269147I15000J0D01*
G01*
X6078400Y-8599347D02*
G75*
G02*
X6048400Y-8599347I-15000J0D01*
G01*
X6048400Y-8599347D02*
G75*
G02*
X6078400Y-8599347I15000J0D01*
G01*
X6149700Y-3016000D02*
G75*
G02*
X6119700Y-3016000I-15000J0D01*
G01*
X6119700Y-3016000D02*
G75*
G02*
X6149700Y-3016000I15000J0D01*
G01*
X6200500Y-4362200D02*
G75*
G02*
X6170500Y-4362200I-15000J0D01*
G01*
X6170500Y-4362200D02*
G75*
G02*
X6200500Y-4362200I15000J0D01*
G01*
X6224100Y-10536447D02*
G75*
G02*
X6194100Y-10536447I-15000J0D01*
G01*
X6194100Y-10536447D02*
G75*
G02*
X6224100Y-10536447I15000J0D01*
G01*
X6241200Y-2418700D02*
G75*
G02*
X6211200Y-2418700I-15000J0D01*
G01*
X6211200Y-2418700D02*
G75*
G02*
X6241200Y-2418700I15000J0D01*
G01*
X6276700Y-2152400D02*
G75*
G02*
X6246700Y-2152400I-15000J0D01*
G01*
X6246700Y-2152400D02*
G75*
G02*
X6276700Y-2152400I15000J0D01*
G01*
X6276700Y-5581400D02*
G75*
G02*
X6246700Y-5581400I-15000J0D01*
G01*
X6246700Y-5581400D02*
G75*
G02*
X6276700Y-5581400I15000J0D01*
G01*
X6281600Y-9767747D02*
G75*
G02*
X6251600Y-9767747I-15000J0D01*
G01*
X6251600Y-9767747D02*
G75*
G02*
X6281600Y-9767747I15000J0D01*
G01*
X6352900Y-2152400D02*
G75*
G02*
X6322900Y-2152400I-15000J0D01*
G01*
X6322900Y-2152400D02*
G75*
G02*
X6352900Y-2152400I15000J0D01*
G01*
X6357800Y-9742347D02*
G75*
G02*
X6327800Y-9742347I-15000J0D01*
G01*
X6327800Y-9742347D02*
G75*
G02*
X6357800Y-9742347I15000J0D01*
G01*
X6383200Y-11215547D02*
G75*
G02*
X6353200Y-11215547I-15000J0D01*
G01*
X6353200Y-11215547D02*
G75*
G02*
X6383200Y-11215547I15000J0D01*
G01*
X6408600Y-8015147D02*
G75*
G02*
X6378600Y-8015147I-15000J0D01*
G01*
X6378600Y-8015147D02*
G75*
G02*
X6408600Y-8015147I15000J0D01*
G01*
X6408600Y-9412147D02*
G75*
G02*
X6378600Y-9412147I-15000J0D01*
G01*
X6378600Y-9412147D02*
G75*
G02*
X6408600Y-9412147I15000J0D01*
G01*
X6408600Y-11068227D02*
G75*
G02*
X6378600Y-11068227I-15000J0D01*
G01*
X6378600Y-11068227D02*
G75*
G02*
X6408600Y-11068227I15000J0D01*
G01*
X6434000Y-7786547D02*
G75*
G02*
X6404000Y-7786547I-15000J0D01*
G01*
X6404000Y-7786547D02*
G75*
G02*
X6434000Y-7786547I15000J0D01*
G01*
X6434000Y-11520347D02*
G75*
G02*
X6404000Y-11520347I-15000J0D01*
G01*
X6404000Y-11520347D02*
G75*
G02*
X6434000Y-11520347I15000J0D01*
G01*
X6530700Y-5581400D02*
G75*
G02*
X6500700Y-5581400I-15000J0D01*
G01*
X6500700Y-5581400D02*
G75*
G02*
X6530700Y-5581400I15000J0D01*
G01*
X6637200Y-10732947D02*
G75*
G02*
X6607200Y-10732947I-15000J0D01*
G01*
X6607200Y-10732947D02*
G75*
G02*
X6637200Y-10732947I15000J0D01*
G01*
X6713400Y-10504347D02*
G75*
G02*
X6683400Y-10504347I-15000J0D01*
G01*
X6683400Y-10504347D02*
G75*
G02*
X6713400Y-10504347I15000J0D01*
G01*
X6738800Y-7888147D02*
G75*
G02*
X6708800Y-7888147I-15000J0D01*
G01*
X6708800Y-7888147D02*
G75*
G02*
X6738800Y-7888147I15000J0D01*
G01*
X6738800Y-8700947D02*
G75*
G02*
X6708800Y-8700947I-15000J0D01*
G01*
X6708800Y-8700947D02*
G75*
G02*
X6738800Y-8700947I15000J0D01*
G01*
X6738800Y-10732947D02*
G75*
G02*
X6708800Y-10732947I-15000J0D01*
G01*
X6708800Y-10732947D02*
G75*
G02*
X6738800Y-10732947I15000J0D01*
G01*
X6770000Y-9304747D02*
G75*
G02*
X6740000Y-9304747I-15000J0D01*
G01*
X6740000Y-9304747D02*
G75*
G02*
X6770000Y-9304747I15000J0D01*
G01*
X6789600Y-10275747D02*
G75*
G02*
X6759600Y-10275747I-15000J0D01*
G01*
X6759600Y-10275747D02*
G75*
G02*
X6789600Y-10275747I15000J0D01*
G01*
X6810100Y-4895600D02*
G75*
G02*
X6780100Y-4895600I-15000J0D01*
G01*
X6780100Y-4895600D02*
G75*
G02*
X6810100Y-4895600I15000J0D01*
G01*
X6810100Y-5581400D02*
G75*
G02*
X6780100Y-5581400I-15000J0D01*
G01*
X6780100Y-5581400D02*
G75*
G02*
X6810100Y-5581400I15000J0D01*
G01*
X6886300Y-4921000D02*
G75*
G02*
X6856300Y-4921000I-15000J0D01*
G01*
X6856300Y-4921000D02*
G75*
G02*
X6886300Y-4921000I15000J0D01*
G01*
X6929300Y-10948847D02*
G75*
G02*
X6899300Y-10948847I-15000J0D01*
G01*
X6899300Y-10948847D02*
G75*
G02*
X6929300Y-10948847I15000J0D01*
G01*
X6967400Y-10504347D02*
G75*
G02*
X6937400Y-10504347I-15000J0D01*
G01*
X6937400Y-10504347D02*
G75*
G02*
X6967400Y-10504347I15000J0D01*
G01*
X6992800Y-8294547D02*
G75*
G02*
X6962800Y-8294547I-15000J0D01*
G01*
X6962800Y-8294547D02*
G75*
G02*
X6992800Y-8294547I15000J0D01*
G01*
X6992800Y-11240947D02*
G75*
G02*
X6962800Y-11240947I-15000J0D01*
G01*
X6962800Y-11240947D02*
G75*
G02*
X6992800Y-11240947I15000J0D01*
G01*
X7013300Y-5581400D02*
G75*
G02*
X6983300Y-5581400I-15000J0D01*
G01*
X6983300Y-5581400D02*
G75*
G02*
X7013300Y-5581400I15000J0D01*
G01*
X7030900Y-9310547D02*
G75*
G02*
X7000900Y-9310547I-15000J0D01*
G01*
X7000900Y-9310547D02*
G75*
G02*
X7030900Y-9310547I15000J0D01*
G01*
X7064100Y-3143000D02*
G75*
G02*
X7034100Y-3143000I-15000J0D01*
G01*
X7034100Y-3143000D02*
G75*
G02*
X7064100Y-3143000I15000J0D01*
G01*
X7072200Y-9814547D02*
G75*
G02*
X7042200Y-9814547I-15000J0D01*
G01*
X7042200Y-9814547D02*
G75*
G02*
X7072200Y-9814547I15000J0D01*
G01*
X7089500Y-3066800D02*
G75*
G02*
X7059500Y-3066800I-15000J0D01*
G01*
X7059500Y-3066800D02*
G75*
G02*
X7089500Y-3066800I15000J0D01*
G01*
X7114900Y-4743200D02*
G75*
G02*
X7084900Y-4743200I-15000J0D01*
G01*
X7084900Y-4743200D02*
G75*
G02*
X7114900Y-4743200I15000J0D01*
G01*
X7140300Y-3143000D02*
G75*
G02*
X7110300Y-3143000I-15000J0D01*
G01*
X7110300Y-3143000D02*
G75*
G02*
X7140300Y-3143000I15000J0D01*
G01*
X7170600Y-10326547D02*
G75*
G02*
X7140600Y-10326547I-15000J0D01*
G01*
X7140600Y-10326547D02*
G75*
G02*
X7170600Y-10326547I15000J0D01*
G01*
X7191100Y-4743200D02*
G75*
G02*
X7161100Y-4743200I-15000J0D01*
G01*
X7161100Y-4743200D02*
G75*
G02*
X7191100Y-4743200I15000J0D01*
G01*
X7259500Y-9843947D02*
G75*
G02*
X7229500Y-9843947I-15000J0D01*
G01*
X7229500Y-9843947D02*
G75*
G02*
X7259500Y-9843947I15000J0D01*
G01*
X7263700Y-5061200D02*
G75*
G02*
X7233700Y-5061200I-15000J0D01*
G01*
X7233700Y-5061200D02*
G75*
G02*
X7263700Y-5061200I15000J0D01*
G01*
X7267300Y-2152400D02*
G75*
G02*
X7237300Y-2152400I-15000J0D01*
G01*
X7237300Y-2152400D02*
G75*
G02*
X7267300Y-2152400I15000J0D01*
G01*
X7292700Y-2431800D02*
G75*
G02*
X7262700Y-2431800I-15000J0D01*
G01*
X7262700Y-2431800D02*
G75*
G02*
X7292700Y-2431800I15000J0D01*
G01*
X7292700Y-2533400D02*
G75*
G02*
X7262700Y-2533400I-15000J0D01*
G01*
X7262700Y-2533400D02*
G75*
G02*
X7292700Y-2533400I15000J0D01*
G01*
X7292700Y-3524000D02*
G75*
G02*
X7262700Y-3524000I-15000J0D01*
G01*
X7262700Y-3524000D02*
G75*
G02*
X7292700Y-3524000I15000J0D01*
G01*
X7323000Y-9297847D02*
G75*
G02*
X7293000Y-9297847I-15000J0D01*
G01*
X7293000Y-9297847D02*
G75*
G02*
X7323000Y-9297847I15000J0D01*
G01*
X7343500Y-3447800D02*
G75*
G02*
X7313500Y-3447800I-15000J0D01*
G01*
X7313500Y-3447800D02*
G75*
G02*
X7343500Y-3447800I15000J0D01*
G01*
X7369700Y-5810200D02*
G75*
G02*
X7339700Y-5810200I-15000J0D01*
G01*
X7339700Y-5810200D02*
G75*
G02*
X7369700Y-5810200I15000J0D01*
G01*
X7373800Y-8294547D02*
G75*
G02*
X7343800Y-8294547I-15000J0D01*
G01*
X7343800Y-8294547D02*
G75*
G02*
X7373800Y-8294547I15000J0D01*
G01*
X7378200Y-11647547D02*
G75*
G02*
X7348200Y-11647547I-15000J0D01*
G01*
X7348200Y-11647547D02*
G75*
G02*
X7378200Y-11647547I15000J0D01*
G01*
X7394300Y-3524000D02*
G75*
G02*
X7364300Y-3524000I-15000J0D01*
G01*
X7364300Y-3524000D02*
G75*
G02*
X7394300Y-3524000I15000J0D01*
G01*
X7399200Y-7684947D02*
G75*
G02*
X7369200Y-7684947I-15000J0D01*
G01*
X7369200Y-7684947D02*
G75*
G02*
X7399200Y-7684947I15000J0D01*
G01*
X7419700Y-2482600D02*
G75*
G02*
X7389700Y-2482600I-15000J0D01*
G01*
X7389700Y-2482600D02*
G75*
G02*
X7419700Y-2482600I15000J0D01*
G01*
X7500800Y-11304447D02*
G75*
G02*
X7470800Y-11304447I-15000J0D01*
G01*
X7470800Y-11304447D02*
G75*
G02*
X7500800Y-11304447I15000J0D01*
G01*
X7534300Y-3723200D02*
G75*
G02*
X7504300Y-3723200I-15000J0D01*
G01*
X7504300Y-3723200D02*
G75*
G02*
X7534300Y-3723200I15000J0D01*
G01*
X7535700Y-3545400D02*
G75*
G02*
X7505700Y-3545400I-15000J0D01*
G01*
X7505700Y-3545400D02*
G75*
G02*
X7535700Y-3545400I15000J0D01*
G01*
X7535700Y-3625600D02*
G75*
G02*
X7505700Y-3625600I-15000J0D01*
G01*
X7505700Y-3625600D02*
G75*
G02*
X7535700Y-3625600I15000J0D01*
G01*
X7551600Y-9310547D02*
G75*
G02*
X7521600Y-9310547I-15000J0D01*
G01*
X7521600Y-9310547D02*
G75*
G02*
X7551600Y-9310547I15000J0D01*
G01*
X7577000Y-11164747D02*
G75*
G02*
X7547000Y-11164747I-15000J0D01*
G01*
X7547000Y-11164747D02*
G75*
G02*
X7577000Y-11164747I15000J0D01*
G01*
X7615100Y-11317147D02*
G75*
G02*
X7585100Y-11317147I-15000J0D01*
G01*
X7585100Y-11317147D02*
G75*
G02*
X7615100Y-11317147I15000J0D01*
G01*
X7622000Y-7889547D02*
G75*
G02*
X7592000Y-7889547I-15000J0D01*
G01*
X7592000Y-7889547D02*
G75*
G02*
X7622000Y-7889547I15000J0D01*
G01*
X7627800Y-9310547D02*
G75*
G02*
X7597800Y-9310547I-15000J0D01*
G01*
X7597800Y-9310547D02*
G75*
G02*
X7627800Y-9310547I15000J0D01*
G01*
X7643200Y-9733547D02*
G75*
G02*
X7613200Y-9733547I-15000J0D01*
G01*
X7613200Y-9733547D02*
G75*
G02*
X7643200Y-9733547I15000J0D01*
G01*
X7653200Y-7481747D02*
G75*
G02*
X7623200Y-7481747I-15000J0D01*
G01*
X7623200Y-7481747D02*
G75*
G02*
X7653200Y-7481747I15000J0D01*
G01*
X7666200Y-9799547D02*
G75*
G02*
X7636200Y-9799547I-15000J0D01*
G01*
X7636200Y-9799547D02*
G75*
G02*
X7666200Y-9799547I15000J0D01*
G01*
X7673700Y-5835400D02*
G75*
G02*
X7643700Y-5835400I-15000J0D01*
G01*
X7643700Y-5835400D02*
G75*
G02*
X7673700Y-5835400I15000J0D01*
G01*
X7683700Y-4863700D02*
G75*
G02*
X7653700Y-4863700I-15000J0D01*
G01*
X7653700Y-4863700D02*
G75*
G02*
X7683700Y-4863700I15000J0D01*
G01*
X7691300Y-10936147D02*
G75*
G02*
X7661300Y-10936147I-15000J0D01*
G01*
X7661300Y-10936147D02*
G75*
G02*
X7691300Y-10936147I15000J0D01*
G01*
X7699100Y-2152400D02*
G75*
G02*
X7669100Y-2152400I-15000J0D01*
G01*
X7669100Y-2152400D02*
G75*
G02*
X7699100Y-2152400I15000J0D01*
G01*
X7716200Y-9743547D02*
G75*
G02*
X7686200Y-9743547I-15000J0D01*
G01*
X7686200Y-9743547D02*
G75*
G02*
X7716200Y-9743547I15000J0D01*
G01*
X7716700Y-10351947D02*
G75*
G02*
X7686700Y-10351947I-15000J0D01*
G01*
X7686700Y-10351947D02*
G75*
G02*
X7716700Y-10351947I15000J0D01*
G01*
X7718200Y-7889547D02*
G75*
G02*
X7688200Y-7889547I-15000J0D01*
G01*
X7688200Y-7889547D02*
G75*
G02*
X7718200Y-7889547I15000J0D01*
G01*
X7739560Y-9539147D02*
G75*
G02*
X7709560Y-9539147I-15000J0D01*
G01*
X7709560Y-9539147D02*
G75*
G02*
X7739560Y-9539147I15000J0D01*
G01*
X7775300Y-2533400D02*
G75*
G02*
X7745300Y-2533400I-15000J0D01*
G01*
X7745300Y-2533400D02*
G75*
G02*
X7775300Y-2533400I15000J0D01*
G01*
X7775300Y-2685800D02*
G75*
G02*
X7745300Y-2685800I-15000J0D01*
G01*
X7745300Y-2685800D02*
G75*
G02*
X7775300Y-2685800I15000J0D01*
G01*
X7775300Y-2863600D02*
G75*
G02*
X7745300Y-2863600I-15000J0D01*
G01*
X7745300Y-2863600D02*
G75*
G02*
X7775300Y-2863600I15000J0D01*
G01*
X7775300Y-3930400D02*
G75*
G02*
X7745300Y-3930400I-15000J0D01*
G01*
X7745300Y-3930400D02*
G75*
G02*
X7775300Y-3930400I15000J0D01*
G01*
X7805600Y-7481747D02*
G75*
G02*
X7775600Y-7481747I-15000J0D01*
G01*
X7775600Y-7481747D02*
G75*
G02*
X7805600Y-7481747I15000J0D01*
G01*
X7823700Y-3053700D02*
G75*
G02*
X7793700Y-3053700I-15000J0D01*
G01*
X7793700Y-3053700D02*
G75*
G02*
X7823700Y-3053700I15000J0D01*
G01*
X7833000Y-5396750D02*
G75*
G02*
X7803000Y-5396750I-15000J0D01*
G01*
X7803000Y-5396750D02*
G75*
G02*
X7833000Y-5396750I15000J0D01*
G01*
X7841200Y-3703700D02*
G75*
G02*
X7811200Y-3703700I-15000J0D01*
G01*
X7811200Y-3703700D02*
G75*
G02*
X7841200Y-3703700I15000J0D01*
G01*
X7866700Y-3811200D02*
G75*
G02*
X7836700Y-3811200I-15000J0D01*
G01*
X7836700Y-3811200D02*
G75*
G02*
X7866700Y-3811200I15000J0D01*
G01*
X7876900Y-4413000D02*
G75*
G02*
X7846900Y-4413000I-15000J0D01*
G01*
X7846900Y-4413000D02*
G75*
G02*
X7876900Y-4413000I15000J0D01*
G01*
X7876900Y-5352800D02*
G75*
G02*
X7846900Y-5352800I-15000J0D01*
G01*
X7846900Y-5352800D02*
G75*
G02*
X7876900Y-5352800I15000J0D01*
G01*
X7904000Y-5810000D02*
G75*
G02*
X7874000Y-5810000I-15000J0D01*
G01*
X7874000Y-5810000D02*
G75*
G02*
X7904000Y-5810000I15000J0D01*
G01*
X7932600Y-9549307D02*
G75*
G02*
X7902600Y-9549307I-15000J0D01*
G01*
X7902600Y-9549307D02*
G75*
G02*
X7932600Y-9549307I15000J0D01*
G01*
X7953694Y-4261194D02*
G75*
G02*
X7923694Y-4261194I-15000J0D01*
G01*
X7923694Y-4261194D02*
G75*
G02*
X7953694Y-4261194I15000J0D01*
G01*
X7965800Y-4578100D02*
G75*
G02*
X7935800Y-4578100I-15000J0D01*
G01*
X7935800Y-4578100D02*
G75*
G02*
X7965800Y-4578100I15000J0D01*
G01*
X7978500Y-4336800D02*
G75*
G02*
X7948500Y-4336800I-15000J0D01*
G01*
X7948500Y-4336800D02*
G75*
G02*
X7978500Y-4336800I15000J0D01*
G01*
X7978500Y-4425700D02*
G75*
G02*
X7948500Y-4425700I-15000J0D01*
G01*
X7948500Y-4425700D02*
G75*
G02*
X7978500Y-4425700I15000J0D01*
G01*
X8034200Y-11215547D02*
G75*
G02*
X8004200Y-11215547I-15000J0D01*
G01*
X8004200Y-11215547D02*
G75*
G02*
X8034200Y-11215547I15000J0D01*
G01*
X8075700Y-3516200D02*
G75*
G02*
X8045700Y-3516200I-15000J0D01*
G01*
X8045700Y-3516200D02*
G75*
G02*
X8075700Y-3516200I15000J0D01*
G01*
X8105500Y-3371600D02*
G75*
G02*
X8075500Y-3371600I-15000J0D01*
G01*
X8075500Y-3371600D02*
G75*
G02*
X8105500Y-3371600I15000J0D01*
G01*
X8105500Y-4247900D02*
G75*
G02*
X8075500Y-4247900I-15000J0D01*
G01*
X8075500Y-4247900D02*
G75*
G02*
X8105500Y-4247900I15000J0D01*
G01*
X8105500Y-4641600D02*
G75*
G02*
X8075500Y-4641600I-15000J0D01*
G01*
X8075500Y-4641600D02*
G75*
G02*
X8105500Y-4641600I15000J0D01*
G01*
X8130900Y-4387600D02*
G75*
G02*
X8100900Y-4387600I-15000J0D01*
G01*
X8100900Y-4387600D02*
G75*
G02*
X8130900Y-4387600I15000J0D01*
G01*
X8135800Y-11215547D02*
G75*
G02*
X8105800Y-11215547I-15000J0D01*
G01*
X8105800Y-11215547D02*
G75*
G02*
X8135800Y-11215547I15000J0D01*
G01*
X8158700Y-4796200D02*
G75*
G02*
X8128700Y-4796200I-15000J0D01*
G01*
X8128700Y-4796200D02*
G75*
G02*
X8158700Y-4796200I15000J0D01*
G01*
X8181700Y-2660400D02*
G75*
G02*
X8151700Y-2660400I-15000J0D01*
G01*
X8151700Y-2660400D02*
G75*
G02*
X8181700Y-2660400I15000J0D01*
G01*
X8203700Y-4963700D02*
G75*
G02*
X8173700Y-4963700I-15000J0D01*
G01*
X8173700Y-4963700D02*
G75*
G02*
X8203700Y-4963700I15000J0D01*
G01*
X8245200Y-4006600D02*
G75*
G02*
X8215200Y-4006600I-15000J0D01*
G01*
X8215200Y-4006600D02*
G75*
G02*
X8245200Y-4006600I15000J0D01*
G01*
X8248700Y-5008700D02*
G75*
G02*
X8218700Y-5008700I-15000J0D01*
G01*
X8218700Y-5008700D02*
G75*
G02*
X8248700Y-5008700I15000J0D01*
G01*
X8283300Y-2762000D02*
G75*
G02*
X8253300Y-2762000I-15000J0D01*
G01*
X8253300Y-2762000D02*
G75*
G02*
X8283300Y-2762000I15000J0D01*
G01*
X8283300Y-3811200D02*
G75*
G02*
X8253300Y-3811200I-15000J0D01*
G01*
X8253300Y-3811200D02*
G75*
G02*
X8283300Y-3811200I15000J0D01*
G01*
X8334100Y-4946400D02*
G75*
G02*
X8304100Y-4946400I-15000J0D01*
G01*
X8304100Y-4946400D02*
G75*
G02*
X8334100Y-4946400I15000J0D01*
G01*
X8346800Y-2698500D02*
G75*
G02*
X8316800Y-2698500I-15000J0D01*
G01*
X8316800Y-2698500D02*
G75*
G02*
X8346800Y-2698500I15000J0D01*
G01*
X8401700Y-3867200D02*
G75*
G02*
X8371700Y-3867200I-15000J0D01*
G01*
X8371700Y-3867200D02*
G75*
G02*
X8401700Y-3867200I15000J0D01*
G01*
X8410300Y-4514600D02*
G75*
G02*
X8380300Y-4514600I-15000J0D01*
G01*
X8380300Y-4514600D02*
G75*
G02*
X8410300Y-4514600I15000J0D01*
G01*
X8410300Y-5429000D02*
G75*
G02*
X8380300Y-5429000I-15000J0D01*
G01*
X8380300Y-5429000D02*
G75*
G02*
X8410300Y-5429000I15000J0D01*
G01*
X8435700Y-4946400D02*
G75*
G02*
X8405700Y-4946400I-15000J0D01*
G01*
X8405700Y-4946400D02*
G75*
G02*
X8435700Y-4946400I15000J0D01*
G01*
X8511900Y-5429000D02*
G75*
G02*
X8481900Y-5429000I-15000J0D01*
G01*
X8481900Y-5429000D02*
G75*
G02*
X8511900Y-5429000I15000J0D01*
G01*
X8638900Y-5860800D02*
G75*
G02*
X8608900Y-5860800I-15000J0D01*
G01*
X8608900Y-5860800D02*
G75*
G02*
X8638900Y-5860800I15000J0D01*
G01*
X8638900Y-5937000D02*
G75*
G02*
X8608900Y-5937000I-15000J0D01*
G01*
X8608900Y-5937000D02*
G75*
G02*
X8638900Y-5937000I15000J0D01*
G01*
X8651600Y-2762000D02*
G75*
G02*
X8621600Y-2762000I-15000J0D01*
G01*
X8621600Y-2762000D02*
G75*
G02*
X8651600Y-2762000I15000J0D01*
G01*
X8740500Y-2762000D02*
G75*
G02*
X8710500Y-2762000I-15000J0D01*
G01*
X8710500Y-2762000D02*
G75*
G02*
X8740500Y-2762000I15000J0D01*
G01*
X8821200Y-5223700D02*
G75*
G02*
X8791200Y-5223700I-15000J0D01*
G01*
X8791200Y-5223700D02*
G75*
G02*
X8821200Y-5223700I15000J0D01*
G01*
X8871200Y-3231200D02*
G75*
G02*
X8841200Y-3231200I-15000J0D01*
G01*
X8841200Y-3231200D02*
G75*
G02*
X8871200Y-3231200I15000J0D01*
G01*
X8891200Y-5223700D02*
G75*
G02*
X8861200Y-5223700I-15000J0D01*
G01*
X8861200Y-5223700D02*
G75*
G02*
X8891200Y-5223700I15000J0D01*
G01*
X9146900Y-5454400D02*
G75*
G02*
X9116900Y-5454400I-15000J0D01*
G01*
X9116900Y-5454400D02*
G75*
G02*
X9146900Y-5454400I15000J0D01*
G01*
X9210400Y-3257300D02*
G75*
G02*
X9180400Y-3257300I-15000J0D01*
G01*
X9180400Y-3257300D02*
G75*
G02*
X9210400Y-3257300I15000J0D01*
G01*
X9223100Y-3079500D02*
G75*
G02*
X9193100Y-3079500I-15000J0D01*
G01*
X9193100Y-3079500D02*
G75*
G02*
X9223100Y-3079500I15000J0D01*
G01*
X3088200Y-8490547D02*
X3088200Y-8530547D01*
X3068200Y-8510547D02*
X3108200Y-8510547D01*
X3136527Y-8373875D02*
X3136527Y-8413875D01*
X3116527Y-8393875D02*
X3156527Y-8393875D01*
X3136527Y-8607220D02*
X3136527Y-8647220D01*
X3116527Y-8627220D02*
X3156527Y-8627220D01*
X3253200Y-8325547D02*
X3253200Y-8365547D01*
X3233200Y-8345547D02*
X3273200Y-8345547D01*
X3253200Y-8655547D02*
X3253200Y-8695547D01*
X3233200Y-8675547D02*
X3273200Y-8675547D01*
X3369873Y-8373875D02*
X3369873Y-8413875D01*
X3349873Y-8393875D02*
X3389873Y-8393875D01*
X3369873Y-8607220D02*
X3369873Y-8647220D01*
X3349873Y-8627220D02*
X3389873Y-8627220D01*
X3418200Y-8490547D02*
X3418200Y-8530547D01*
X3398200Y-8510547D02*
X3438200Y-8510547D01*
X4420300Y-4113600D02*
X4420300Y-4153600D01*
X4400300Y-4133600D02*
X4440300Y-4133600D01*
X4468627Y-3996927D02*
X4468627Y-4036927D01*
X4448627Y-4016927D02*
X4488627Y-4016927D01*
X4468627Y-4230273D02*
X4468627Y-4270273D01*
X4448627Y-4250273D02*
X4488627Y-4250273D01*
X4585300Y-3948600D02*
X4585300Y-3988600D01*
X4565300Y-3968600D02*
X4605300Y-3968600D01*
X4585300Y-4278600D02*
X4585300Y-4318600D01*
X4565300Y-4298600D02*
X4605300Y-4298600D01*
X4701973Y-3996927D02*
X4701973Y-4036927D01*
X4681973Y-4016927D02*
X4721973Y-4016927D01*
X4701973Y-4230273D02*
X4701973Y-4270273D01*
X4681973Y-4250273D02*
X4721973Y-4250273D01*
X4750300Y-4113600D02*
X4750300Y-4153600D01*
X4730300Y-4133600D02*
X4770300Y-4133600D01*
X5822200Y-9862047D02*
X5822200Y-9902047D01*
X5802200Y-9882047D02*
X5842200Y-9882047D01*
X5870527Y-9745375D02*
X5870527Y-9785375D01*
X5850527Y-9765375D02*
X5890527Y-9765375D01*
X5870527Y-9978720D02*
X5870527Y-10018720D01*
X5850527Y-9998720D02*
X5890527Y-9998720D01*
X5987200Y-9697047D02*
X5987200Y-9737047D01*
X5967200Y-9717047D02*
X6007200Y-9717047D01*
X5987200Y-10027047D02*
X5987200Y-10067047D01*
X5967200Y-10047047D02*
X6007200Y-10047047D01*
X6103873Y-9745375D02*
X6103873Y-9785375D01*
X6083873Y-9765375D02*
X6123873Y-9765375D01*
X6103873Y-9978720D02*
X6103873Y-10018720D01*
X6083873Y-9998720D02*
X6123873Y-9998720D01*
X6152200Y-9862047D02*
X6152200Y-9902047D01*
X6132200Y-9882047D02*
X6172200Y-9882047D01*
X2806793Y-4484813D02*
X2806793Y-4442387D01*
X2764366Y-4442387D01*
X2764366Y-4484813D01*
X2806793Y-4484813D01*
X2825580Y-4433600D02*
X2745580Y-4433600D01*
X2745580Y-4493600D02*
G75*
G02*
X2745580Y-4433600I0J30000D01*
G01*
X2745580Y-4493600D02*
X2825580Y-4493600D01*
X2825580Y-4493600D02*
G75*
G03*
X2825580Y-4433600I0J30000D01*
G01*
X2806793Y-5348813D02*
X2806793Y-5306387D01*
X2764366Y-5306387D01*
X2764366Y-5348813D01*
X2806793Y-5348813D01*
X2825580Y-5297600D02*
X2745580Y-5297600D01*
X2745580Y-5357600D02*
G75*
G02*
X2745580Y-5297600I0J30000D01*
G01*
X2745580Y-5357600D02*
X2825580Y-5357600D01*
X2825580Y-5357600D02*
G75*
G03*
X2825580Y-5297600I0J30000D01*
G01*
X3224793Y-4484813D02*
X3224793Y-4442387D01*
X3182366Y-4442387D01*
X3182366Y-4484813D01*
X3224793Y-4484813D01*
X3258580Y-4433600D02*
X3148580Y-4433600D01*
X3148580Y-4493600D02*
G75*
G02*
X3148580Y-4433600I0J30000D01*
G01*
X3148580Y-4493600D02*
X3258580Y-4493600D01*
X3258580Y-4493600D02*
G75*
G03*
X3258580Y-4433600I0J30000D01*
G01*
X3224793Y-5348813D02*
X3224793Y-5306387D01*
X3182366Y-5306387D01*
X3182366Y-5348813D01*
X3224793Y-5348813D01*
X3258580Y-5297600D02*
X3148580Y-5297600D01*
X3148580Y-5357600D02*
G75*
G02*
X3148580Y-5297600I0J30000D01*
G01*
X3148580Y-5357600D02*
X3258580Y-5357600D01*
X3258580Y-5357600D02*
G75*
G03*
X3258580Y-5297600I0J30000D01*
G01*
X4062613Y-7611661D02*
X4062613Y-7569234D01*
X4020187Y-7569234D01*
X4020187Y-7611661D01*
X4062613Y-7611661D01*
X4071400Y-7630447D02*
X4071400Y-7550447D01*
X4011400Y-7550447D02*
G75*
G02*
X4071400Y-7550447I30000J0D01*
G01*
X4011400Y-7550447D02*
X4011400Y-7630447D01*
X4011400Y-7630447D02*
G75*
G03*
X4071400Y-7630447I30000J0D01*
G01*
X4062613Y-8029661D02*
X4062613Y-7987234D01*
X4020187Y-7987234D01*
X4020187Y-8029661D01*
X4062613Y-8029661D01*
X4071400Y-8063447D02*
X4071400Y-7953447D01*
X4011400Y-7953447D02*
G75*
G02*
X4071400Y-7953447I30000J0D01*
G01*
X4011400Y-7953447D02*
X4011400Y-8063447D01*
X4011400Y-8063447D02*
G75*
G03*
X4071400Y-8063447I30000J0D01*
G01*
X4926613Y-7611661D02*
X4926613Y-7569234D01*
X4884187Y-7569234D01*
X4884187Y-7611661D01*
X4926613Y-7611661D01*
X4935400Y-7630447D02*
X4935400Y-7550447D01*
X4875400Y-7550447D02*
G75*
G02*
X4935400Y-7550447I30000J0D01*
G01*
X4875400Y-7550447D02*
X4875400Y-7630447D01*
X4875400Y-7630447D02*
G75*
G03*
X4935400Y-7630447I30000J0D01*
G01*
X4926613Y-8029661D02*
X4926613Y-7987234D01*
X4884187Y-7987234D01*
X4884187Y-8029661D01*
X4926613Y-8029661D01*
X4935400Y-8063447D02*
X4935400Y-7953447D01*
X4875400Y-7953447D02*
G75*
G02*
X4935400Y-7953447I30000J0D01*
G01*
X4875400Y-7953447D02*
X4875400Y-8063447D01*
X4875400Y-8063447D02*
G75*
G03*
X4935400Y-8063447I30000J0D01*
G01*
X4133000Y-8877947D02*
X4183000Y-8827947D01*
X4133000Y-8777947D01*
X4083000Y-8827947D01*
X4133000Y-8877947D01*
X4133000Y-9131947D02*
X4183000Y-9081947D01*
X4133000Y-9031947D01*
X4083000Y-9081947D01*
X4133000Y-9131947D01*
X4133000Y-9385947D02*
X4183000Y-9335947D01*
X4133000Y-9285947D01*
X4083000Y-9335947D01*
X4133000Y-9385947D01*
X4133000Y-9639947D02*
X4183000Y-9589947D01*
X4133000Y-9539947D01*
X4083000Y-9589947D01*
X4133000Y-9639947D01*
X4133000Y-9893947D02*
X4183000Y-9843947D01*
X4133000Y-9793947D01*
X4083000Y-9843947D01*
X4133000Y-9893947D01*
X4133000Y-10147947D02*
X4183000Y-10097947D01*
X4133000Y-10047947D01*
X4083000Y-10097947D01*
X4133000Y-10147947D01*
X4133000Y-10401947D02*
X4183000Y-10351947D01*
X4133000Y-10301947D01*
X4083000Y-10351947D01*
X4133000Y-10401947D01*
X4741600Y-11570347D02*
X4791600Y-11520347D01*
X4741600Y-11470347D01*
X4691600Y-11520347D01*
X4741600Y-11570347D01*
X4995600Y-11570347D02*
X5045600Y-11520347D01*
X4995600Y-11470347D01*
X4945600Y-11520347D01*
X4995600Y-11570347D01*
X5118700Y-5402800D02*
X5168700Y-5352800D01*
X5118700Y-5302800D01*
X5068700Y-5352800D01*
X5118700Y-5402800D01*
X5118700Y-5860000D02*
X5168700Y-5810000D01*
X5118700Y-5760000D01*
X5068700Y-5810000D01*
X5118700Y-5860000D01*
X5249600Y-11570347D02*
X5299600Y-11520347D01*
X5249600Y-11470347D01*
X5199600Y-11520347D01*
X5249600Y-11570347D01*
X5372700Y-5402800D02*
X5422700Y-5352800D01*
X5372700Y-5302800D01*
X5322700Y-5352800D01*
X5372700Y-5402800D01*
X5372700Y-5860000D02*
X5422700Y-5810000D01*
X5372700Y-5760000D01*
X5322700Y-5810000D01*
X5372700Y-5860000D01*
X5503600Y-11570347D02*
X5553600Y-11520347D01*
X5503600Y-11470347D01*
X5453600Y-11520347D01*
X5503600Y-11570347D01*
X5626700Y-5402800D02*
X5676700Y-5352800D01*
X5626700Y-5302800D01*
X5576700Y-5352800D01*
X5626700Y-5402800D01*
X5626700Y-5860000D02*
X5676700Y-5810000D01*
X5626700Y-5760000D01*
X5576700Y-5810000D01*
X5626700Y-5860000D01*
X5880700Y-5402800D02*
X5930700Y-5352800D01*
X5880700Y-5302800D01*
X5830700Y-5352800D01*
X5880700Y-5402800D01*
X5880700Y-5860000D02*
X5930700Y-5810000D01*
X5880700Y-5760000D01*
X5830700Y-5810000D01*
X5880700Y-5860000D01*
X6134700Y-5402800D02*
X6184700Y-5352800D01*
X6134700Y-5302800D01*
X6084700Y-5352800D01*
X6134700Y-5402800D01*
X6134700Y-5860000D02*
X6184700Y-5810000D01*
X6134700Y-5760000D01*
X6084700Y-5810000D01*
X6134700Y-5860000D01*
X6388700Y-5402800D02*
X6438700Y-5352800D01*
X6388700Y-5302800D01*
X6338700Y-5352800D01*
X6388700Y-5402800D01*
X6388700Y-5860000D02*
X6438700Y-5810000D01*
X6388700Y-5760000D01*
X6338700Y-5810000D01*
X6388700Y-5860000D01*
X6642700Y-5402800D02*
X6692700Y-5352800D01*
X6642700Y-5302800D01*
X6592700Y-5352800D01*
X6642700Y-5402800D01*
X6642700Y-5860000D02*
X6692700Y-5810000D01*
X6642700Y-5760000D01*
X6592700Y-5810000D01*
X6642700Y-5860000D01*
X6896700Y-5402800D02*
X6946700Y-5352800D01*
X6896700Y-5302800D01*
X6846700Y-5352800D01*
X6896700Y-5402800D01*
X6896700Y-5860000D02*
X6946700Y-5810000D01*
X6896700Y-5760000D01*
X6846700Y-5810000D01*
X6896700Y-5860000D01*
X7150700Y-5402800D02*
X7200700Y-5352800D01*
X7150700Y-5302800D01*
X7100700Y-5352800D01*
X7150700Y-5402800D01*
X7150700Y-5860000D02*
X7200700Y-5810000D01*
X7150700Y-5760000D01*
X7100700Y-5810000D01*
X7150700Y-5860000D01*
D13*
X6948200Y-11417547D02*
X7058200Y-11527547D01*
X7058200Y-11417547D02*
X6948200Y-11527547D01*
X7058200Y-11472547D02*
G75*
G02*
X6948200Y-11472547I-55000J0D01*
G01*
X6948200Y-11472547D02*
G75*
G02*
X7058200Y-11472547I55000J0D01*
G01*
X7202200Y-11417547D02*
X7312200Y-11527547D01*
X7312200Y-11417547D02*
X7202200Y-11527547D01*
X7312200Y-11472547D02*
G75*
G02*
X7202200Y-11472547I-55000J0D01*
G01*
X7202200Y-11472547D02*
G75*
G02*
X7312200Y-11472547I55000J0D01*
G01*
X7456200Y-11417547D02*
X7566200Y-11527547D01*
X7566200Y-11417547D02*
X7456200Y-11527547D01*
X7566200Y-11472547D02*
G75*
G02*
X7456200Y-11472547I-55000J0D01*
G01*
X7456200Y-11472547D02*
G75*
G02*
X7566200Y-11472547I55000J0D01*
G01*
X7710200Y-11417547D02*
X7820200Y-11527547D01*
X7820200Y-11417547D02*
X7710200Y-11527547D01*
X7820200Y-11472547D02*
G75*
G02*
X7710200Y-11472547I-55000J0D01*
G01*
X7710200Y-11472547D02*
G75*
G02*
X7820200Y-11472547I55000J0D01*
G01*
X7925700Y-2391200D02*
X8035700Y-2501200D01*
X8035700Y-2391200D02*
X7925700Y-2501200D01*
X8035700Y-2446200D02*
G75*
G02*
X7925700Y-2446200I-55000J0D01*
G01*
X7925700Y-2446200D02*
G75*
G02*
X8035700Y-2446200I55000J0D01*
G01*
X7964200Y-11417547D02*
X8074200Y-11527547D01*
X8074200Y-11417547D02*
X7964200Y-11527547D01*
X8074200Y-11472547D02*
G75*
G02*
X7964200Y-11472547I-55000J0D01*
G01*
X7964200Y-11472547D02*
G75*
G02*
X8074200Y-11472547I55000J0D01*
G01*
X8179700Y-2391200D02*
X8289700Y-2501200D01*
X8289700Y-2391200D02*
X8179700Y-2501200D01*
X8289700Y-2446200D02*
G75*
G02*
X8179700Y-2446200I-55000J0D01*
G01*
X8179700Y-2446200D02*
G75*
G02*
X8289700Y-2446200I55000J0D01*
G01*
X8433700Y-2391200D02*
X8543700Y-2501200D01*
X8543700Y-2391200D02*
X8433700Y-2501200D01*
X8543700Y-2446200D02*
G75*
G02*
X8433700Y-2446200I-55000J0D01*
G01*
X8433700Y-2446200D02*
G75*
G02*
X8543700Y-2446200I55000J0D01*
G01*
X8687700Y-2391200D02*
X8797700Y-2501200D01*
X8797700Y-2391200D02*
X8687700Y-2501200D01*
X8797700Y-2446200D02*
G75*
G02*
X8687700Y-2446200I-55000J0D01*
G01*
X8687700Y-2446200D02*
G75*
G02*
X8797700Y-2446200I55000J0D01*
G01*
X8941700Y-2391200D02*
X9051700Y-2501200D01*
X9051700Y-2391200D02*
X8941700Y-2501200D01*
X9051700Y-2446200D02*
G75*
G02*
X8941700Y-2446200I-55000J0D01*
G01*
X8941700Y-2446200D02*
G75*
G02*
X9051700Y-2446200I55000J0D01*
G01*
D14*
X3143200Y-8400547D02*
X3363200Y-8620547D01*
X3363200Y-8400547D02*
X3143200Y-8620547D01*
X3253200Y-8400547D02*
X3253200Y-8620547D01*
X3143200Y-8510547D02*
X3363200Y-8510547D01*
X4475300Y-4023600D02*
X4695300Y-4243600D01*
X4695300Y-4023600D02*
X4475300Y-4243600D01*
X4585300Y-4023600D02*
X4585300Y-4243600D01*
X4475300Y-4133600D02*
X4695300Y-4133600D01*
X5877200Y-9772047D02*
X6097200Y-9992047D01*
X6097200Y-9772047D02*
X5877200Y-9992047D01*
X5987200Y-9772047D02*
X5987200Y-9992047D01*
X5877200Y-9882047D02*
X6097200Y-9882047D01*
D11*
X2776977Y-12159531D02*
X2776977Y-11959531D01*
X2776977Y-11959531D02*
X2824596Y-11959531D01*
X2824596Y-11959531D02*
X2853167Y-11969055D01*
X2853167Y-11969055D02*
X2872215Y-11988102D01*
X2872215Y-11988102D02*
X2881739Y-12007150D01*
X2881739Y-12007150D02*
X2891262Y-12045245D01*
X2891262Y-12045245D02*
X2891262Y-12073817D01*
X2891262Y-12073817D02*
X2881739Y-12111912D01*
X2881739Y-12111912D02*
X2872215Y-12130959D01*
X2872215Y-12130959D02*
X2853167Y-12150007D01*
X2853167Y-12150007D02*
X2824596Y-12159531D01*
X2824596Y-12159531D02*
X2776977Y-12159531D01*
X2976977Y-12159531D02*
X2976977Y-12026198D01*
X2976977Y-12064293D02*
X2986501Y-12045245D01*
X2986501Y-12045245D02*
X2996024Y-12035721D01*
X2996024Y-12035721D02*
X3015072Y-12026198D01*
X3015072Y-12026198D02*
X3034120Y-12026198D01*
X3100786Y-12159531D02*
X3100786Y-12026198D01*
X3100786Y-11959531D02*
X3091262Y-11969055D01*
X3091262Y-11969055D02*
X3100786Y-11978579D01*
X3100786Y-11978579D02*
X3110310Y-11969055D01*
X3110310Y-11969055D02*
X3100786Y-11959531D01*
X3100786Y-11959531D02*
X3100786Y-11978579D01*
X3224596Y-12159531D02*
X3205548Y-12150007D01*
X3205548Y-12150007D02*
X3196024Y-12130959D01*
X3196024Y-12130959D02*
X3196024Y-11959531D01*
X3329358Y-12159531D02*
X3310310Y-12150007D01*
X3310310Y-12150007D02*
X3300786Y-12130959D01*
X3300786Y-12130959D02*
X3300786Y-11959531D01*
X3557929Y-12159531D02*
X3557929Y-11959531D01*
X3557929Y-11959531D02*
X3624596Y-12102388D01*
X3624596Y-12102388D02*
X3691262Y-11959531D01*
X3691262Y-11959531D02*
X3691262Y-12159531D01*
X3872215Y-12159531D02*
X3872215Y-12054769D01*
X3872215Y-12054769D02*
X3862691Y-12035721D01*
X3862691Y-12035721D02*
X3843643Y-12026198D01*
X3843643Y-12026198D02*
X3805548Y-12026198D01*
X3805548Y-12026198D02*
X3786501Y-12035721D01*
X3872215Y-12150007D02*
X3853167Y-12159531D01*
X3853167Y-12159531D02*
X3805548Y-12159531D01*
X3805548Y-12159531D02*
X3786501Y-12150007D01*
X3786501Y-12150007D02*
X3776977Y-12130959D01*
X3776977Y-12130959D02*
X3776977Y-12111912D01*
X3776977Y-12111912D02*
X3786501Y-12092864D01*
X3786501Y-12092864D02*
X3805548Y-12083340D01*
X3805548Y-12083340D02*
X3853167Y-12083340D01*
X3853167Y-12083340D02*
X3872215Y-12073817D01*
X3967453Y-12026198D02*
X3967453Y-12226198D01*
X3967453Y-12035721D02*
X3986501Y-12026198D01*
X3986501Y-12026198D02*
X4024596Y-12026198D01*
X4024596Y-12026198D02*
X4043643Y-12035721D01*
X4043643Y-12035721D02*
X4053167Y-12045245D01*
X4053167Y-12045245D02*
X4062691Y-12064293D01*
X4062691Y-12064293D02*
X4062691Y-12121436D01*
X4062691Y-12121436D02*
X4053167Y-12140483D01*
X4053167Y-12140483D02*
X4043643Y-12150007D01*
X4043643Y-12150007D02*
X4024596Y-12159531D01*
X4024596Y-12159531D02*
X3986501Y-12159531D01*
X3986501Y-12159531D02*
X3967453Y-12150007D01*
X4148405Y-12140483D02*
X4157929Y-12150007D01*
X4157929Y-12150007D02*
X4148405Y-12159531D01*
X4148405Y-12159531D02*
X4138882Y-12150007D01*
X4138882Y-12150007D02*
X4148405Y-12140483D01*
X4148405Y-12140483D02*
X4148405Y-12159531D01*
X4148405Y-12035721D02*
X4157929Y-12045245D01*
X4157929Y-12045245D02*
X4148405Y-12054769D01*
X4148405Y-12054769D02*
X4138882Y-12045245D01*
X4138882Y-12045245D02*
X4148405Y-12035721D01*
X4148405Y-12035721D02*
X4148405Y-12054769D01*
D12*
X2496200Y-12478047D02*
X2516200Y-12498047D01*
X2516200Y-12478047D02*
X2496200Y-12498047D01*
D11*
X2815072Y-12379531D02*
X2834120Y-12379531D01*
X2834120Y-12379531D02*
X2853167Y-12389055D01*
X2853167Y-12389055D02*
X2862691Y-12398579D01*
X2862691Y-12398579D02*
X2872215Y-12417626D01*
X2872215Y-12417626D02*
X2881739Y-12455721D01*
X2881739Y-12455721D02*
X2881739Y-12503340D01*
X2881739Y-12503340D02*
X2872215Y-12541436D01*
X2872215Y-12541436D02*
X2862691Y-12560483D01*
X2862691Y-12560483D02*
X2853167Y-12570007D01*
X2853167Y-12570007D02*
X2834120Y-12579531D01*
X2834120Y-12579531D02*
X2815072Y-12579531D01*
X2815072Y-12579531D02*
X2796024Y-12570007D01*
X2796024Y-12570007D02*
X2786501Y-12560483D01*
X2786501Y-12560483D02*
X2776977Y-12541436D01*
X2776977Y-12541436D02*
X2767453Y-12503340D01*
X2767453Y-12503340D02*
X2767453Y-12455721D01*
X2767453Y-12455721D02*
X2776977Y-12417626D01*
X2776977Y-12417626D02*
X2786501Y-12398579D01*
X2786501Y-12398579D02*
X2796024Y-12389055D01*
X2796024Y-12389055D02*
X2815072Y-12379531D01*
X2967453Y-12560483D02*
X2976977Y-12570007D01*
X2976977Y-12570007D02*
X2967453Y-12579531D01*
X2967453Y-12579531D02*
X2957929Y-12570007D01*
X2957929Y-12570007D02*
X2967453Y-12560483D01*
X2967453Y-12560483D02*
X2967453Y-12579531D01*
X3053167Y-12398579D02*
X3062691Y-12389055D01*
X3062691Y-12389055D02*
X3081739Y-12379531D01*
X3081739Y-12379531D02*
X3129358Y-12379531D01*
X3129358Y-12379531D02*
X3148405Y-12389055D01*
X3148405Y-12389055D02*
X3157929Y-12398579D01*
X3157929Y-12398579D02*
X3167453Y-12417626D01*
X3167453Y-12417626D02*
X3167453Y-12436674D01*
X3167453Y-12436674D02*
X3157929Y-12465245D01*
X3157929Y-12465245D02*
X3043643Y-12579531D01*
X3043643Y-12579531D02*
X3167453Y-12579531D01*
X3291262Y-12379531D02*
X3310310Y-12379531D01*
X3310310Y-12379531D02*
X3329358Y-12389055D01*
X3329358Y-12389055D02*
X3338882Y-12398579D01*
X3338882Y-12398579D02*
X3348405Y-12417626D01*
X3348405Y-12417626D02*
X3357929Y-12455721D01*
X3357929Y-12455721D02*
X3357929Y-12503340D01*
X3357929Y-12503340D02*
X3348405Y-12541436D01*
X3348405Y-12541436D02*
X3338882Y-12560483D01*
X3338882Y-12560483D02*
X3329358Y-12570007D01*
X3329358Y-12570007D02*
X3310310Y-12579531D01*
X3310310Y-12579531D02*
X3291262Y-12579531D01*
X3291262Y-12579531D02*
X3272215Y-12570007D01*
X3272215Y-12570007D02*
X3262691Y-12560483D01*
X3262691Y-12560483D02*
X3253167Y-12541436D01*
X3253167Y-12541436D02*
X3243643Y-12503340D01*
X3243643Y-12503340D02*
X3243643Y-12455721D01*
X3243643Y-12455721D02*
X3253167Y-12417626D01*
X3253167Y-12417626D02*
X3262691Y-12398579D01*
X3262691Y-12398579D02*
X3272215Y-12389055D01*
X3272215Y-12389055D02*
X3291262Y-12379531D01*
X3481739Y-12379531D02*
X3500786Y-12379531D01*
X3500786Y-12379531D02*
X3519834Y-12389055D01*
X3519834Y-12389055D02*
X3529358Y-12398579D01*
X3529358Y-12398579D02*
X3538882Y-12417626D01*
X3538882Y-12417626D02*
X3548405Y-12455721D01*
X3548405Y-12455721D02*
X3548405Y-12503340D01*
X3548405Y-12503340D02*
X3538882Y-12541436D01*
X3538882Y-12541436D02*
X3529358Y-12560483D01*
X3529358Y-12560483D02*
X3519834Y-12570007D01*
X3519834Y-12570007D02*
X3500786Y-12579531D01*
X3500786Y-12579531D02*
X3481739Y-12579531D01*
X3481739Y-12579531D02*
X3462691Y-12570007D01*
X3462691Y-12570007D02*
X3453167Y-12560483D01*
X3453167Y-12560483D02*
X3443643Y-12541436D01*
X3443643Y-12541436D02*
X3434120Y-12503340D01*
X3434120Y-12503340D02*
X3434120Y-12455721D01*
X3434120Y-12455721D02*
X3443643Y-12417626D01*
X3443643Y-12417626D02*
X3453167Y-12398579D01*
X3453167Y-12398579D02*
X3462691Y-12389055D01*
X3462691Y-12389055D02*
X3481739Y-12379531D01*
X3634120Y-12579531D02*
X3634120Y-12446198D01*
X3634120Y-12465245D02*
X3643643Y-12455721D01*
X3643643Y-12455721D02*
X3662691Y-12446198D01*
X3662691Y-12446198D02*
X3691263Y-12446198D01*
X3691263Y-12446198D02*
X3710310Y-12455721D01*
X3710310Y-12455721D02*
X3719834Y-12474769D01*
X3719834Y-12474769D02*
X3719834Y-12579531D01*
X3719834Y-12474769D02*
X3729358Y-12455721D01*
X3729358Y-12455721D02*
X3748405Y-12446198D01*
X3748405Y-12446198D02*
X3776977Y-12446198D01*
X3776977Y-12446198D02*
X3796024Y-12455721D01*
X3796024Y-12455721D02*
X3805548Y-12474769D01*
X3805548Y-12474769D02*
X3805548Y-12579531D01*
X3900786Y-12579531D02*
X3900786Y-12446198D01*
X3900786Y-12465245D02*
X3910310Y-12455721D01*
X3910310Y-12455721D02*
X3929358Y-12446198D01*
X3929358Y-12446198D02*
X3957929Y-12446198D01*
X3957929Y-12446198D02*
X3976977Y-12455721D01*
X3976977Y-12455721D02*
X3986501Y-12474769D01*
X3986501Y-12474769D02*
X3986501Y-12579531D01*
X3986501Y-12474769D02*
X3996024Y-12455721D01*
X3996024Y-12455721D02*
X4015072Y-12446198D01*
X4015072Y-12446198D02*
X4043643Y-12446198D01*
X4043643Y-12446198D02*
X4062691Y-12455721D01*
X4062691Y-12455721D02*
X4072215Y-12474769D01*
X4072215Y-12474769D02*
X4072215Y-12579531D01*
X4462691Y-12370007D02*
X4291263Y-12627150D01*
X4719834Y-12379531D02*
X4738882Y-12379531D01*
X4738882Y-12379531D02*
X4757929Y-12389055D01*
X4757929Y-12389055D02*
X4767453Y-12398579D01*
X4767453Y-12398579D02*
X4776977Y-12417626D01*
X4776977Y-12417626D02*
X4786501Y-12455721D01*
X4786501Y-12455721D02*
X4786501Y-12503340D01*
X4786501Y-12503340D02*
X4776977Y-12541436D01*
X4776977Y-12541436D02*
X4767453Y-12560483D01*
X4767453Y-12560483D02*
X4757929Y-12570007D01*
X4757929Y-12570007D02*
X4738882Y-12579531D01*
X4738882Y-12579531D02*
X4719834Y-12579531D01*
X4719834Y-12579531D02*
X4700787Y-12570007D01*
X4700787Y-12570007D02*
X4691263Y-12560483D01*
X4691263Y-12560483D02*
X4681739Y-12541436D01*
X4681739Y-12541436D02*
X4672215Y-12503340D01*
X4672215Y-12503340D02*
X4672215Y-12455721D01*
X4672215Y-12455721D02*
X4681739Y-12417626D01*
X4681739Y-12417626D02*
X4691263Y-12398579D01*
X4691263Y-12398579D02*
X4700787Y-12389055D01*
X4700787Y-12389055D02*
X4719834Y-12379531D01*
X4872215Y-12560483D02*
X4881739Y-12570007D01*
X4881739Y-12570007D02*
X4872215Y-12579531D01*
X4872215Y-12579531D02*
X4862691Y-12570007D01*
X4862691Y-12570007D02*
X4872215Y-12560483D01*
X4872215Y-12560483D02*
X4872215Y-12579531D01*
X5005548Y-12379531D02*
X5024596Y-12379531D01*
X5024596Y-12379531D02*
X5043644Y-12389055D01*
X5043644Y-12389055D02*
X5053168Y-12398579D01*
X5053168Y-12398579D02*
X5062691Y-12417626D01*
X5062691Y-12417626D02*
X5072215Y-12455721D01*
X5072215Y-12455721D02*
X5072215Y-12503340D01*
X5072215Y-12503340D02*
X5062691Y-12541436D01*
X5062691Y-12541436D02*
X5053168Y-12560483D01*
X5053168Y-12560483D02*
X5043644Y-12570007D01*
X5043644Y-12570007D02*
X5024596Y-12579531D01*
X5024596Y-12579531D02*
X5005548Y-12579531D01*
X5005548Y-12579531D02*
X4986501Y-12570007D01*
X4986501Y-12570007D02*
X4976977Y-12560483D01*
X4976977Y-12560483D02*
X4967453Y-12541436D01*
X4967453Y-12541436D02*
X4957929Y-12503340D01*
X4957929Y-12503340D02*
X4957929Y-12455721D01*
X4957929Y-12455721D02*
X4967453Y-12417626D01*
X4967453Y-12417626D02*
X4976977Y-12398579D01*
X4976977Y-12398579D02*
X4986501Y-12389055D01*
X4986501Y-12389055D02*
X5005548Y-12379531D01*
X5196025Y-12379531D02*
X5215072Y-12379531D01*
X5215072Y-12379531D02*
X5234120Y-12389055D01*
X5234120Y-12389055D02*
X5243644Y-12398579D01*
X5243644Y-12398579D02*
X5253168Y-12417626D01*
X5253168Y-12417626D02*
X5262691Y-12455721D01*
X5262691Y-12455721D02*
X5262691Y-12503340D01*
X5262691Y-12503340D02*
X5253168Y-12541436D01*
X5253168Y-12541436D02*
X5243644Y-12560483D01*
X5243644Y-12560483D02*
X5234120Y-12570007D01*
X5234120Y-12570007D02*
X5215072Y-12579531D01*
X5215072Y-12579531D02*
X5196025Y-12579531D01*
X5196025Y-12579531D02*
X5176977Y-12570007D01*
X5176977Y-12570007D02*
X5167453Y-12560483D01*
X5167453Y-12560483D02*
X5157929Y-12541436D01*
X5157929Y-12541436D02*
X5148406Y-12503340D01*
X5148406Y-12503340D02*
X5148406Y-12455721D01*
X5148406Y-12455721D02*
X5157929Y-12417626D01*
X5157929Y-12417626D02*
X5167453Y-12398579D01*
X5167453Y-12398579D02*
X5176977Y-12389055D01*
X5176977Y-12389055D02*
X5196025Y-12379531D01*
X5329358Y-12379531D02*
X5462691Y-12379531D01*
X5462691Y-12379531D02*
X5376977Y-12579531D01*
X5548406Y-12579531D02*
X5586501Y-12579531D01*
X5586501Y-12579531D02*
X5605548Y-12570007D01*
X5605548Y-12570007D02*
X5615072Y-12560483D01*
X5615072Y-12560483D02*
X5634120Y-12531912D01*
X5634120Y-12531912D02*
X5643644Y-12493817D01*
X5643644Y-12493817D02*
X5643644Y-12417626D01*
X5643644Y-12417626D02*
X5634120Y-12398579D01*
X5634120Y-12398579D02*
X5624596Y-12389055D01*
X5624596Y-12389055D02*
X5605548Y-12379531D01*
X5605548Y-12379531D02*
X5567453Y-12379531D01*
X5567453Y-12379531D02*
X5548406Y-12389055D01*
X5548406Y-12389055D02*
X5538882Y-12398579D01*
X5538882Y-12398579D02*
X5529358Y-12417626D01*
X5529358Y-12417626D02*
X5529358Y-12465245D01*
X5529358Y-12465245D02*
X5538882Y-12484293D01*
X5538882Y-12484293D02*
X5548406Y-12493817D01*
X5548406Y-12493817D02*
X5567453Y-12503340D01*
X5567453Y-12503340D02*
X5605548Y-12503340D01*
X5605548Y-12503340D02*
X5624596Y-12493817D01*
X5624596Y-12493817D02*
X5634120Y-12484293D01*
X5634120Y-12484293D02*
X5643644Y-12465245D01*
X5719834Y-12379531D02*
X5719834Y-12417626D01*
X5796025Y-12379531D02*
X5796025Y-12417626D01*
X6091263Y-12655721D02*
X6081739Y-12646198D01*
X6081739Y-12646198D02*
X6062691Y-12617626D01*
X6062691Y-12617626D02*
X6053168Y-12598579D01*
X6053168Y-12598579D02*
X6043644Y-12570007D01*
X6043644Y-12570007D02*
X6034120Y-12522388D01*
X6034120Y-12522388D02*
X6034120Y-12484293D01*
X6034120Y-12484293D02*
X6043644Y-12436674D01*
X6043644Y-12436674D02*
X6053168Y-12408102D01*
X6053168Y-12408102D02*
X6062691Y-12389055D01*
X6062691Y-12389055D02*
X6081739Y-12360483D01*
X6081739Y-12360483D02*
X6091263Y-12350959D01*
X6272215Y-12579531D02*
X6157929Y-12579531D01*
X6215072Y-12579531D02*
X6215072Y-12379531D01*
X6215072Y-12379531D02*
X6196025Y-12408102D01*
X6196025Y-12408102D02*
X6176977Y-12427150D01*
X6176977Y-12427150D02*
X6157929Y-12436674D01*
X6348406Y-12398579D02*
X6357929Y-12389055D01*
X6357929Y-12389055D02*
X6376977Y-12379531D01*
X6376977Y-12379531D02*
X6424596Y-12379531D01*
X6424596Y-12379531D02*
X6443644Y-12389055D01*
X6443644Y-12389055D02*
X6453168Y-12398579D01*
X6453168Y-12398579D02*
X6462691Y-12417626D01*
X6462691Y-12417626D02*
X6462691Y-12436674D01*
X6462691Y-12436674D02*
X6453168Y-12465245D01*
X6453168Y-12465245D02*
X6338882Y-12579531D01*
X6338882Y-12579531D02*
X6462691Y-12579531D01*
X6700787Y-12579531D02*
X6700787Y-12379531D01*
X6786501Y-12579531D02*
X6786501Y-12474769D01*
X6786501Y-12474769D02*
X6776977Y-12455721D01*
X6776977Y-12455721D02*
X6757930Y-12446198D01*
X6757930Y-12446198D02*
X6729358Y-12446198D01*
X6729358Y-12446198D02*
X6710310Y-12455721D01*
X6710310Y-12455721D02*
X6700787Y-12465245D01*
X6910310Y-12579531D02*
X6891263Y-12570007D01*
X6891263Y-12570007D02*
X6881739Y-12560483D01*
X6881739Y-12560483D02*
X6872215Y-12541436D01*
X6872215Y-12541436D02*
X6872215Y-12484293D01*
X6872215Y-12484293D02*
X6881739Y-12465245D01*
X6881739Y-12465245D02*
X6891263Y-12455721D01*
X6891263Y-12455721D02*
X6910310Y-12446198D01*
X6910310Y-12446198D02*
X6938882Y-12446198D01*
X6938882Y-12446198D02*
X6957930Y-12455721D01*
X6957930Y-12455721D02*
X6967453Y-12465245D01*
X6967453Y-12465245D02*
X6976977Y-12484293D01*
X6976977Y-12484293D02*
X6976977Y-12541436D01*
X6976977Y-12541436D02*
X6967453Y-12560483D01*
X6967453Y-12560483D02*
X6957930Y-12570007D01*
X6957930Y-12570007D02*
X6938882Y-12579531D01*
X6938882Y-12579531D02*
X6910310Y-12579531D01*
X7091263Y-12579531D02*
X7072215Y-12570007D01*
X7072215Y-12570007D02*
X7062691Y-12550959D01*
X7062691Y-12550959D02*
X7062691Y-12379531D01*
X7243644Y-12570007D02*
X7224596Y-12579531D01*
X7224596Y-12579531D02*
X7186501Y-12579531D01*
X7186501Y-12579531D02*
X7167453Y-12570007D01*
X7167453Y-12570007D02*
X7157930Y-12550959D01*
X7157930Y-12550959D02*
X7157930Y-12474769D01*
X7157930Y-12474769D02*
X7167453Y-12455721D01*
X7167453Y-12455721D02*
X7186501Y-12446198D01*
X7186501Y-12446198D02*
X7224596Y-12446198D01*
X7224596Y-12446198D02*
X7243644Y-12455721D01*
X7243644Y-12455721D02*
X7253168Y-12474769D01*
X7253168Y-12474769D02*
X7253168Y-12493817D01*
X7253168Y-12493817D02*
X7157930Y-12512864D01*
X7329358Y-12570007D02*
X7348406Y-12579531D01*
X7348406Y-12579531D02*
X7386501Y-12579531D01*
X7386501Y-12579531D02*
X7405549Y-12570007D01*
X7405549Y-12570007D02*
X7415072Y-12550959D01*
X7415072Y-12550959D02*
X7415072Y-12541436D01*
X7415072Y-12541436D02*
X7405549Y-12522388D01*
X7405549Y-12522388D02*
X7386501Y-12512864D01*
X7386501Y-12512864D02*
X7357930Y-12512864D01*
X7357930Y-12512864D02*
X7338882Y-12503340D01*
X7338882Y-12503340D02*
X7329358Y-12484293D01*
X7329358Y-12484293D02*
X7329358Y-12474769D01*
X7329358Y-12474769D02*
X7338882Y-12455721D01*
X7338882Y-12455721D02*
X7357930Y-12446198D01*
X7357930Y-12446198D02*
X7386501Y-12446198D01*
X7386501Y-12446198D02*
X7405549Y-12455721D01*
X7481739Y-12655721D02*
X7491263Y-12646198D01*
X7491263Y-12646198D02*
X7510311Y-12617626D01*
X7510311Y-12617626D02*
X7519834Y-12598579D01*
X7519834Y-12598579D02*
X7529358Y-12570007D01*
X7529358Y-12570007D02*
X7538882Y-12522388D01*
X7538882Y-12522388D02*
X7538882Y-12484293D01*
X7538882Y-12484293D02*
X7529358Y-12436674D01*
X7529358Y-12436674D02*
X7519834Y-12408102D01*
X7519834Y-12408102D02*
X7510311Y-12389055D01*
X7510311Y-12389055D02*
X7491263Y-12360483D01*
X7491263Y-12360483D02*
X7481739Y-12350959D01*
D12*
X2516200Y-12752047D02*
G75*
G02*
X2486200Y-12752047I-15000J0D01*
G01*
X2486200Y-12752047D02*
G75*
G02*
X2516200Y-12752047I15000J0D01*
G01*
D11*
X2815072Y-12643531D02*
X2834120Y-12643531D01*
X2834120Y-12643531D02*
X2853167Y-12653055D01*
X2853167Y-12653055D02*
X2862691Y-12662579D01*
X2862691Y-12662579D02*
X2872215Y-12681626D01*
X2872215Y-12681626D02*
X2881739Y-12719721D01*
X2881739Y-12719721D02*
X2881739Y-12767340D01*
X2881739Y-12767340D02*
X2872215Y-12805436D01*
X2872215Y-12805436D02*
X2862691Y-12824483D01*
X2862691Y-12824483D02*
X2853167Y-12834007D01*
X2853167Y-12834007D02*
X2834120Y-12843531D01*
X2834120Y-12843531D02*
X2815072Y-12843531D01*
X2815072Y-12843531D02*
X2796024Y-12834007D01*
X2796024Y-12834007D02*
X2786501Y-12824483D01*
X2786501Y-12824483D02*
X2776977Y-12805436D01*
X2776977Y-12805436D02*
X2767453Y-12767340D01*
X2767453Y-12767340D02*
X2767453Y-12719721D01*
X2767453Y-12719721D02*
X2776977Y-12681626D01*
X2776977Y-12681626D02*
X2786501Y-12662579D01*
X2786501Y-12662579D02*
X2796024Y-12653055D01*
X2796024Y-12653055D02*
X2815072Y-12643531D01*
X2967453Y-12824483D02*
X2976977Y-12834007D01*
X2976977Y-12834007D02*
X2967453Y-12843531D01*
X2967453Y-12843531D02*
X2957929Y-12834007D01*
X2957929Y-12834007D02*
X2967453Y-12824483D01*
X2967453Y-12824483D02*
X2967453Y-12843531D01*
X3043643Y-12643531D02*
X3167453Y-12643531D01*
X3167453Y-12643531D02*
X3100786Y-12719721D01*
X3100786Y-12719721D02*
X3129358Y-12719721D01*
X3129358Y-12719721D02*
X3148405Y-12729245D01*
X3148405Y-12729245D02*
X3157929Y-12738769D01*
X3157929Y-12738769D02*
X3167453Y-12757817D01*
X3167453Y-12757817D02*
X3167453Y-12805436D01*
X3167453Y-12805436D02*
X3157929Y-12824483D01*
X3157929Y-12824483D02*
X3148405Y-12834007D01*
X3148405Y-12834007D02*
X3129358Y-12843531D01*
X3129358Y-12843531D02*
X3072215Y-12843531D01*
X3072215Y-12843531D02*
X3053167Y-12834007D01*
X3053167Y-12834007D02*
X3043643Y-12824483D01*
X3291262Y-12643531D02*
X3310310Y-12643531D01*
X3310310Y-12643531D02*
X3329358Y-12653055D01*
X3329358Y-12653055D02*
X3338882Y-12662579D01*
X3338882Y-12662579D02*
X3348405Y-12681626D01*
X3348405Y-12681626D02*
X3357929Y-12719721D01*
X3357929Y-12719721D02*
X3357929Y-12767340D01*
X3357929Y-12767340D02*
X3348405Y-12805436D01*
X3348405Y-12805436D02*
X3338882Y-12824483D01*
X3338882Y-12824483D02*
X3329358Y-12834007D01*
X3329358Y-12834007D02*
X3310310Y-12843531D01*
X3310310Y-12843531D02*
X3291262Y-12843531D01*
X3291262Y-12843531D02*
X3272215Y-12834007D01*
X3272215Y-12834007D02*
X3262691Y-12824483D01*
X3262691Y-12824483D02*
X3253167Y-12805436D01*
X3253167Y-12805436D02*
X3243643Y-12767340D01*
X3243643Y-12767340D02*
X3243643Y-12719721D01*
X3243643Y-12719721D02*
X3253167Y-12681626D01*
X3253167Y-12681626D02*
X3262691Y-12662579D01*
X3262691Y-12662579D02*
X3272215Y-12653055D01*
X3272215Y-12653055D02*
X3291262Y-12643531D01*
X3481739Y-12643531D02*
X3500786Y-12643531D01*
X3500786Y-12643531D02*
X3519834Y-12653055D01*
X3519834Y-12653055D02*
X3529358Y-12662579D01*
X3529358Y-12662579D02*
X3538882Y-12681626D01*
X3538882Y-12681626D02*
X3548405Y-12719721D01*
X3548405Y-12719721D02*
X3548405Y-12767340D01*
X3548405Y-12767340D02*
X3538882Y-12805436D01*
X3538882Y-12805436D02*
X3529358Y-12824483D01*
X3529358Y-12824483D02*
X3519834Y-12834007D01*
X3519834Y-12834007D02*
X3500786Y-12843531D01*
X3500786Y-12843531D02*
X3481739Y-12843531D01*
X3481739Y-12843531D02*
X3462691Y-12834007D01*
X3462691Y-12834007D02*
X3453167Y-12824483D01*
X3453167Y-12824483D02*
X3443643Y-12805436D01*
X3443643Y-12805436D02*
X3434120Y-12767340D01*
X3434120Y-12767340D02*
X3434120Y-12719721D01*
X3434120Y-12719721D02*
X3443643Y-12681626D01*
X3443643Y-12681626D02*
X3453167Y-12662579D01*
X3453167Y-12662579D02*
X3462691Y-12653055D01*
X3462691Y-12653055D02*
X3481739Y-12643531D01*
X3634120Y-12843531D02*
X3634120Y-12710198D01*
X3634120Y-12729245D02*
X3643643Y-12719721D01*
X3643643Y-12719721D02*
X3662691Y-12710198D01*
X3662691Y-12710198D02*
X3691263Y-12710198D01*
X3691263Y-12710198D02*
X3710310Y-12719721D01*
X3710310Y-12719721D02*
X3719834Y-12738769D01*
X3719834Y-12738769D02*
X3719834Y-12843531D01*
X3719834Y-12738769D02*
X3729358Y-12719721D01*
X3729358Y-12719721D02*
X3748405Y-12710198D01*
X3748405Y-12710198D02*
X3776977Y-12710198D01*
X3776977Y-12710198D02*
X3796024Y-12719721D01*
X3796024Y-12719721D02*
X3805548Y-12738769D01*
X3805548Y-12738769D02*
X3805548Y-12843531D01*
X3900786Y-12843531D02*
X3900786Y-12710198D01*
X3900786Y-12729245D02*
X3910310Y-12719721D01*
X3910310Y-12719721D02*
X3929358Y-12710198D01*
X3929358Y-12710198D02*
X3957929Y-12710198D01*
X3957929Y-12710198D02*
X3976977Y-12719721D01*
X3976977Y-12719721D02*
X3986501Y-12738769D01*
X3986501Y-12738769D02*
X3986501Y-12843531D01*
X3986501Y-12738769D02*
X3996024Y-12719721D01*
X3996024Y-12719721D02*
X4015072Y-12710198D01*
X4015072Y-12710198D02*
X4043643Y-12710198D01*
X4043643Y-12710198D02*
X4062691Y-12719721D01*
X4062691Y-12719721D02*
X4072215Y-12738769D01*
X4072215Y-12738769D02*
X4072215Y-12843531D01*
X4462691Y-12634007D02*
X4291263Y-12891150D01*
X4719834Y-12643531D02*
X4738882Y-12643531D01*
X4738882Y-12643531D02*
X4757929Y-12653055D01*
X4757929Y-12653055D02*
X4767453Y-12662579D01*
X4767453Y-12662579D02*
X4776977Y-12681626D01*
X4776977Y-12681626D02*
X4786501Y-12719721D01*
X4786501Y-12719721D02*
X4786501Y-12767340D01*
X4786501Y-12767340D02*
X4776977Y-12805436D01*
X4776977Y-12805436D02*
X4767453Y-12824483D01*
X4767453Y-12824483D02*
X4757929Y-12834007D01*
X4757929Y-12834007D02*
X4738882Y-12843531D01*
X4738882Y-12843531D02*
X4719834Y-12843531D01*
X4719834Y-12843531D02*
X4700787Y-12834007D01*
X4700787Y-12834007D02*
X4691263Y-12824483D01*
X4691263Y-12824483D02*
X4681739Y-12805436D01*
X4681739Y-12805436D02*
X4672215Y-12767340D01*
X4672215Y-12767340D02*
X4672215Y-12719721D01*
X4672215Y-12719721D02*
X4681739Y-12681626D01*
X4681739Y-12681626D02*
X4691263Y-12662579D01*
X4691263Y-12662579D02*
X4700787Y-12653055D01*
X4700787Y-12653055D02*
X4719834Y-12643531D01*
X4872215Y-12824483D02*
X4881739Y-12834007D01*
X4881739Y-12834007D02*
X4872215Y-12843531D01*
X4872215Y-12843531D02*
X4862691Y-12834007D01*
X4862691Y-12834007D02*
X4872215Y-12824483D01*
X4872215Y-12824483D02*
X4872215Y-12843531D01*
X5005548Y-12643531D02*
X5024596Y-12643531D01*
X5024596Y-12643531D02*
X5043644Y-12653055D01*
X5043644Y-12653055D02*
X5053168Y-12662579D01*
X5053168Y-12662579D02*
X5062691Y-12681626D01*
X5062691Y-12681626D02*
X5072215Y-12719721D01*
X5072215Y-12719721D02*
X5072215Y-12767340D01*
X5072215Y-12767340D02*
X5062691Y-12805436D01*
X5062691Y-12805436D02*
X5053168Y-12824483D01*
X5053168Y-12824483D02*
X5043644Y-12834007D01*
X5043644Y-12834007D02*
X5024596Y-12843531D01*
X5024596Y-12843531D02*
X5005548Y-12843531D01*
X5005548Y-12843531D02*
X4986501Y-12834007D01*
X4986501Y-12834007D02*
X4976977Y-12824483D01*
X4976977Y-12824483D02*
X4967453Y-12805436D01*
X4967453Y-12805436D02*
X4957929Y-12767340D01*
X4957929Y-12767340D02*
X4957929Y-12719721D01*
X4957929Y-12719721D02*
X4967453Y-12681626D01*
X4967453Y-12681626D02*
X4976977Y-12662579D01*
X4976977Y-12662579D02*
X4986501Y-12653055D01*
X4986501Y-12653055D02*
X5005548Y-12643531D01*
X5262691Y-12843531D02*
X5148406Y-12843531D01*
X5205548Y-12843531D02*
X5205548Y-12643531D01*
X5205548Y-12643531D02*
X5186501Y-12672102D01*
X5186501Y-12672102D02*
X5167453Y-12691150D01*
X5167453Y-12691150D02*
X5148406Y-12700674D01*
X5453168Y-12843531D02*
X5338882Y-12843531D01*
X5396025Y-12843531D02*
X5396025Y-12643531D01*
X5396025Y-12643531D02*
X5376977Y-12672102D01*
X5376977Y-12672102D02*
X5357929Y-12691150D01*
X5357929Y-12691150D02*
X5338882Y-12700674D01*
X5567453Y-12729245D02*
X5548406Y-12719721D01*
X5548406Y-12719721D02*
X5538882Y-12710198D01*
X5538882Y-12710198D02*
X5529358Y-12691150D01*
X5529358Y-12691150D02*
X5529358Y-12681626D01*
X5529358Y-12681626D02*
X5538882Y-12662579D01*
X5538882Y-12662579D02*
X5548406Y-12653055D01*
X5548406Y-12653055D02*
X5567453Y-12643531D01*
X5567453Y-12643531D02*
X5605548Y-12643531D01*
X5605548Y-12643531D02*
X5624596Y-12653055D01*
X5624596Y-12653055D02*
X5634120Y-12662579D01*
X5634120Y-12662579D02*
X5643644Y-12681626D01*
X5643644Y-12681626D02*
X5643644Y-12691150D01*
X5643644Y-12691150D02*
X5634120Y-12710198D01*
X5634120Y-12710198D02*
X5624596Y-12719721D01*
X5624596Y-12719721D02*
X5605548Y-12729245D01*
X5605548Y-12729245D02*
X5567453Y-12729245D01*
X5567453Y-12729245D02*
X5548406Y-12738769D01*
X5548406Y-12738769D02*
X5538882Y-12748293D01*
X5538882Y-12748293D02*
X5529358Y-12767340D01*
X5529358Y-12767340D02*
X5529358Y-12805436D01*
X5529358Y-12805436D02*
X5538882Y-12824483D01*
X5538882Y-12824483D02*
X5548406Y-12834007D01*
X5548406Y-12834007D02*
X5567453Y-12843531D01*
X5567453Y-12843531D02*
X5605548Y-12843531D01*
X5605548Y-12843531D02*
X5624596Y-12834007D01*
X5624596Y-12834007D02*
X5634120Y-12824483D01*
X5634120Y-12824483D02*
X5643644Y-12805436D01*
X5643644Y-12805436D02*
X5643644Y-12767340D01*
X5643644Y-12767340D02*
X5634120Y-12748293D01*
X5634120Y-12748293D02*
X5624596Y-12738769D01*
X5624596Y-12738769D02*
X5605548Y-12729245D01*
X5719834Y-12643531D02*
X5719834Y-12681626D01*
X5796025Y-12643531D02*
X5796025Y-12681626D01*
X6091263Y-12919721D02*
X6081739Y-12910198D01*
X6081739Y-12910198D02*
X6062691Y-12881626D01*
X6062691Y-12881626D02*
X6053168Y-12862579D01*
X6053168Y-12862579D02*
X6043644Y-12834007D01*
X6043644Y-12834007D02*
X6034120Y-12786388D01*
X6034120Y-12786388D02*
X6034120Y-12748293D01*
X6034120Y-12748293D02*
X6043644Y-12700674D01*
X6043644Y-12700674D02*
X6053168Y-12672102D01*
X6053168Y-12672102D02*
X6062691Y-12653055D01*
X6062691Y-12653055D02*
X6081739Y-12624483D01*
X6081739Y-12624483D02*
X6091263Y-12614959D01*
X6157929Y-12662579D02*
X6167453Y-12653055D01*
X6167453Y-12653055D02*
X6186501Y-12643531D01*
X6186501Y-12643531D02*
X6234120Y-12643531D01*
X6234120Y-12643531D02*
X6253168Y-12653055D01*
X6253168Y-12653055D02*
X6262691Y-12662579D01*
X6262691Y-12662579D02*
X6272215Y-12681626D01*
X6272215Y-12681626D02*
X6272215Y-12700674D01*
X6272215Y-12700674D02*
X6262691Y-12729245D01*
X6262691Y-12729245D02*
X6148406Y-12843531D01*
X6148406Y-12843531D02*
X6272215Y-12843531D01*
X6453168Y-12643531D02*
X6357929Y-12643531D01*
X6357929Y-12643531D02*
X6348406Y-12738769D01*
X6348406Y-12738769D02*
X6357929Y-12729245D01*
X6357929Y-12729245D02*
X6376977Y-12719721D01*
X6376977Y-12719721D02*
X6424596Y-12719721D01*
X6424596Y-12719721D02*
X6443644Y-12729245D01*
X6443644Y-12729245D02*
X6453168Y-12738769D01*
X6453168Y-12738769D02*
X6462691Y-12757817D01*
X6462691Y-12757817D02*
X6462691Y-12805436D01*
X6462691Y-12805436D02*
X6453168Y-12824483D01*
X6453168Y-12824483D02*
X6443644Y-12834007D01*
X6443644Y-12834007D02*
X6424596Y-12843531D01*
X6424596Y-12843531D02*
X6376977Y-12843531D01*
X6376977Y-12843531D02*
X6357929Y-12834007D01*
X6357929Y-12834007D02*
X6348406Y-12824483D01*
X6576977Y-12729245D02*
X6557929Y-12719721D01*
X6557929Y-12719721D02*
X6548406Y-12710198D01*
X6548406Y-12710198D02*
X6538882Y-12691150D01*
X6538882Y-12691150D02*
X6538882Y-12681626D01*
X6538882Y-12681626D02*
X6548406Y-12662579D01*
X6548406Y-12662579D02*
X6557929Y-12653055D01*
X6557929Y-12653055D02*
X6576977Y-12643531D01*
X6576977Y-12643531D02*
X6615072Y-12643531D01*
X6615072Y-12643531D02*
X6634120Y-12653055D01*
X6634120Y-12653055D02*
X6643644Y-12662579D01*
X6643644Y-12662579D02*
X6653168Y-12681626D01*
X6653168Y-12681626D02*
X6653168Y-12691150D01*
X6653168Y-12691150D02*
X6643644Y-12710198D01*
X6643644Y-12710198D02*
X6634120Y-12719721D01*
X6634120Y-12719721D02*
X6615072Y-12729245D01*
X6615072Y-12729245D02*
X6576977Y-12729245D01*
X6576977Y-12729245D02*
X6557929Y-12738769D01*
X6557929Y-12738769D02*
X6548406Y-12748293D01*
X6548406Y-12748293D02*
X6538882Y-12767340D01*
X6538882Y-12767340D02*
X6538882Y-12805436D01*
X6538882Y-12805436D02*
X6548406Y-12824483D01*
X6548406Y-12824483D02*
X6557929Y-12834007D01*
X6557929Y-12834007D02*
X6576977Y-12843531D01*
X6576977Y-12843531D02*
X6615072Y-12843531D01*
X6615072Y-12843531D02*
X6634120Y-12834007D01*
X6634120Y-12834007D02*
X6643644Y-12824483D01*
X6643644Y-12824483D02*
X6653168Y-12805436D01*
X6653168Y-12805436D02*
X6653168Y-12767340D01*
X6653168Y-12767340D02*
X6643644Y-12748293D01*
X6643644Y-12748293D02*
X6634120Y-12738769D01*
X6634120Y-12738769D02*
X6615072Y-12729245D01*
X6891263Y-12843531D02*
X6891263Y-12643531D01*
X6976977Y-12843531D02*
X6976977Y-12738769D01*
X6976977Y-12738769D02*
X6967453Y-12719721D01*
X6967453Y-12719721D02*
X6948406Y-12710198D01*
X6948406Y-12710198D02*
X6919834Y-12710198D01*
X6919834Y-12710198D02*
X6900787Y-12719721D01*
X6900787Y-12719721D02*
X6891263Y-12729245D01*
X7100787Y-12843531D02*
X7081739Y-12834007D01*
X7081739Y-12834007D02*
X7072215Y-12824483D01*
X7072215Y-12824483D02*
X7062691Y-12805436D01*
X7062691Y-12805436D02*
X7062691Y-12748293D01*
X7062691Y-12748293D02*
X7072215Y-12729245D01*
X7072215Y-12729245D02*
X7081739Y-12719721D01*
X7081739Y-12719721D02*
X7100787Y-12710198D01*
X7100787Y-12710198D02*
X7129358Y-12710198D01*
X7129358Y-12710198D02*
X7148406Y-12719721D01*
X7148406Y-12719721D02*
X7157930Y-12729245D01*
X7157930Y-12729245D02*
X7167453Y-12748293D01*
X7167453Y-12748293D02*
X7167453Y-12805436D01*
X7167453Y-12805436D02*
X7157930Y-12824483D01*
X7157930Y-12824483D02*
X7148406Y-12834007D01*
X7148406Y-12834007D02*
X7129358Y-12843531D01*
X7129358Y-12843531D02*
X7100787Y-12843531D01*
X7281739Y-12843531D02*
X7262691Y-12834007D01*
X7262691Y-12834007D02*
X7253168Y-12814959D01*
X7253168Y-12814959D02*
X7253168Y-12643531D01*
X7434120Y-12834007D02*
X7415072Y-12843531D01*
X7415072Y-12843531D02*
X7376977Y-12843531D01*
X7376977Y-12843531D02*
X7357930Y-12834007D01*
X7357930Y-12834007D02*
X7348406Y-12814959D01*
X7348406Y-12814959D02*
X7348406Y-12738769D01*
X7348406Y-12738769D02*
X7357930Y-12719721D01*
X7357930Y-12719721D02*
X7376977Y-12710198D01*
X7376977Y-12710198D02*
X7415072Y-12710198D01*
X7415072Y-12710198D02*
X7434120Y-12719721D01*
X7434120Y-12719721D02*
X7443644Y-12738769D01*
X7443644Y-12738769D02*
X7443644Y-12757817D01*
X7443644Y-12757817D02*
X7348406Y-12776864D01*
X7519834Y-12834007D02*
X7538882Y-12843531D01*
X7538882Y-12843531D02*
X7576977Y-12843531D01*
X7576977Y-12843531D02*
X7596025Y-12834007D01*
X7596025Y-12834007D02*
X7605549Y-12814959D01*
X7605549Y-12814959D02*
X7605549Y-12805436D01*
X7605549Y-12805436D02*
X7596025Y-12786388D01*
X7596025Y-12786388D02*
X7576977Y-12776864D01*
X7576977Y-12776864D02*
X7548406Y-12776864D01*
X7548406Y-12776864D02*
X7529358Y-12767340D01*
X7529358Y-12767340D02*
X7519834Y-12748293D01*
X7519834Y-12748293D02*
X7519834Y-12738769D01*
X7519834Y-12738769D02*
X7529358Y-12719721D01*
X7529358Y-12719721D02*
X7548406Y-12710198D01*
X7548406Y-12710198D02*
X7576977Y-12710198D01*
X7576977Y-12710198D02*
X7596025Y-12719721D01*
X7672215Y-12919721D02*
X7681739Y-12910198D01*
X7681739Y-12910198D02*
X7700787Y-12881626D01*
X7700787Y-12881626D02*
X7710311Y-12862579D01*
X7710311Y-12862579D02*
X7719834Y-12834007D01*
X7719834Y-12834007D02*
X7729358Y-12786388D01*
X7729358Y-12786388D02*
X7729358Y-12748293D01*
X7729358Y-12748293D02*
X7719834Y-12700674D01*
X7719834Y-12700674D02*
X7710311Y-12672102D01*
X7710311Y-12672102D02*
X7700787Y-12653055D01*
X7700787Y-12653055D02*
X7681739Y-12624483D01*
X7681739Y-12624483D02*
X7672215Y-12614959D01*
D12*
X2496200Y-12996047D02*
X2496200Y-13036047D01*
X2476200Y-13016047D02*
X2516200Y-13016047D01*
D11*
X2815072Y-12907531D02*
X2834120Y-12907531D01*
X2834120Y-12907531D02*
X2853167Y-12917055D01*
X2853167Y-12917055D02*
X2862691Y-12926579D01*
X2862691Y-12926579D02*
X2872215Y-12945626D01*
X2872215Y-12945626D02*
X2881739Y-12983721D01*
X2881739Y-12983721D02*
X2881739Y-13031340D01*
X2881739Y-13031340D02*
X2872215Y-13069436D01*
X2872215Y-13069436D02*
X2862691Y-13088483D01*
X2862691Y-13088483D02*
X2853167Y-13098007D01*
X2853167Y-13098007D02*
X2834120Y-13107531D01*
X2834120Y-13107531D02*
X2815072Y-13107531D01*
X2815072Y-13107531D02*
X2796024Y-13098007D01*
X2796024Y-13098007D02*
X2786501Y-13088483D01*
X2786501Y-13088483D02*
X2776977Y-13069436D01*
X2776977Y-13069436D02*
X2767453Y-13031340D01*
X2767453Y-13031340D02*
X2767453Y-12983721D01*
X2767453Y-12983721D02*
X2776977Y-12945626D01*
X2776977Y-12945626D02*
X2786501Y-12926579D01*
X2786501Y-12926579D02*
X2796024Y-12917055D01*
X2796024Y-12917055D02*
X2815072Y-12907531D01*
X2967453Y-13088483D02*
X2976977Y-13098007D01*
X2976977Y-13098007D02*
X2967453Y-13107531D01*
X2967453Y-13107531D02*
X2957929Y-13098007D01*
X2957929Y-13098007D02*
X2967453Y-13088483D01*
X2967453Y-13088483D02*
X2967453Y-13107531D01*
X3148405Y-12974198D02*
X3148405Y-13107531D01*
X3100786Y-12898007D02*
X3053167Y-13040864D01*
X3053167Y-13040864D02*
X3176977Y-13040864D01*
X3291262Y-12907531D02*
X3310310Y-12907531D01*
X3310310Y-12907531D02*
X3329358Y-12917055D01*
X3329358Y-12917055D02*
X3338882Y-12926579D01*
X3338882Y-12926579D02*
X3348405Y-12945626D01*
X3348405Y-12945626D02*
X3357929Y-12983721D01*
X3357929Y-12983721D02*
X3357929Y-13031340D01*
X3357929Y-13031340D02*
X3348405Y-13069436D01*
X3348405Y-13069436D02*
X3338882Y-13088483D01*
X3338882Y-13088483D02*
X3329358Y-13098007D01*
X3329358Y-13098007D02*
X3310310Y-13107531D01*
X3310310Y-13107531D02*
X3291262Y-13107531D01*
X3291262Y-13107531D02*
X3272215Y-13098007D01*
X3272215Y-13098007D02*
X3262691Y-13088483D01*
X3262691Y-13088483D02*
X3253167Y-13069436D01*
X3253167Y-13069436D02*
X3243643Y-13031340D01*
X3243643Y-13031340D02*
X3243643Y-12983721D01*
X3243643Y-12983721D02*
X3253167Y-12945626D01*
X3253167Y-12945626D02*
X3262691Y-12926579D01*
X3262691Y-12926579D02*
X3272215Y-12917055D01*
X3272215Y-12917055D02*
X3291262Y-12907531D01*
X3481739Y-12907531D02*
X3500786Y-12907531D01*
X3500786Y-12907531D02*
X3519834Y-12917055D01*
X3519834Y-12917055D02*
X3529358Y-12926579D01*
X3529358Y-12926579D02*
X3538882Y-12945626D01*
X3538882Y-12945626D02*
X3548405Y-12983721D01*
X3548405Y-12983721D02*
X3548405Y-13031340D01*
X3548405Y-13031340D02*
X3538882Y-13069436D01*
X3538882Y-13069436D02*
X3529358Y-13088483D01*
X3529358Y-13088483D02*
X3519834Y-13098007D01*
X3519834Y-13098007D02*
X3500786Y-13107531D01*
X3500786Y-13107531D02*
X3481739Y-13107531D01*
X3481739Y-13107531D02*
X3462691Y-13098007D01*
X3462691Y-13098007D02*
X3453167Y-13088483D01*
X3453167Y-13088483D02*
X3443643Y-13069436D01*
X3443643Y-13069436D02*
X3434120Y-13031340D01*
X3434120Y-13031340D02*
X3434120Y-12983721D01*
X3434120Y-12983721D02*
X3443643Y-12945626D01*
X3443643Y-12945626D02*
X3453167Y-12926579D01*
X3453167Y-12926579D02*
X3462691Y-12917055D01*
X3462691Y-12917055D02*
X3481739Y-12907531D01*
X3634120Y-13107531D02*
X3634120Y-12974198D01*
X3634120Y-12993245D02*
X3643643Y-12983721D01*
X3643643Y-12983721D02*
X3662691Y-12974198D01*
X3662691Y-12974198D02*
X3691263Y-12974198D01*
X3691263Y-12974198D02*
X3710310Y-12983721D01*
X3710310Y-12983721D02*
X3719834Y-13002769D01*
X3719834Y-13002769D02*
X3719834Y-13107531D01*
X3719834Y-13002769D02*
X3729358Y-12983721D01*
X3729358Y-12983721D02*
X3748405Y-12974198D01*
X3748405Y-12974198D02*
X3776977Y-12974198D01*
X3776977Y-12974198D02*
X3796024Y-12983721D01*
X3796024Y-12983721D02*
X3805548Y-13002769D01*
X3805548Y-13002769D02*
X3805548Y-13107531D01*
X3900786Y-13107531D02*
X3900786Y-12974198D01*
X3900786Y-12993245D02*
X3910310Y-12983721D01*
X3910310Y-12983721D02*
X3929358Y-12974198D01*
X3929358Y-12974198D02*
X3957929Y-12974198D01*
X3957929Y-12974198D02*
X3976977Y-12983721D01*
X3976977Y-12983721D02*
X3986501Y-13002769D01*
X3986501Y-13002769D02*
X3986501Y-13107531D01*
X3986501Y-13002769D02*
X3996024Y-12983721D01*
X3996024Y-12983721D02*
X4015072Y-12974198D01*
X4015072Y-12974198D02*
X4043643Y-12974198D01*
X4043643Y-12974198D02*
X4062691Y-12983721D01*
X4062691Y-12983721D02*
X4072215Y-13002769D01*
X4072215Y-13002769D02*
X4072215Y-13107531D01*
X4462691Y-12898007D02*
X4291263Y-13155150D01*
X4719834Y-12907531D02*
X4738882Y-12907531D01*
X4738882Y-12907531D02*
X4757929Y-12917055D01*
X4757929Y-12917055D02*
X4767453Y-12926579D01*
X4767453Y-12926579D02*
X4776977Y-12945626D01*
X4776977Y-12945626D02*
X4786501Y-12983721D01*
X4786501Y-12983721D02*
X4786501Y-13031340D01*
X4786501Y-13031340D02*
X4776977Y-13069436D01*
X4776977Y-13069436D02*
X4767453Y-13088483D01*
X4767453Y-13088483D02*
X4757929Y-13098007D01*
X4757929Y-13098007D02*
X4738882Y-13107531D01*
X4738882Y-13107531D02*
X4719834Y-13107531D01*
X4719834Y-13107531D02*
X4700787Y-13098007D01*
X4700787Y-13098007D02*
X4691263Y-13088483D01*
X4691263Y-13088483D02*
X4681739Y-13069436D01*
X4681739Y-13069436D02*
X4672215Y-13031340D01*
X4672215Y-13031340D02*
X4672215Y-12983721D01*
X4672215Y-12983721D02*
X4681739Y-12945626D01*
X4681739Y-12945626D02*
X4691263Y-12926579D01*
X4691263Y-12926579D02*
X4700787Y-12917055D01*
X4700787Y-12917055D02*
X4719834Y-12907531D01*
X4872215Y-13088483D02*
X4881739Y-13098007D01*
X4881739Y-13098007D02*
X4872215Y-13107531D01*
X4872215Y-13107531D02*
X4862691Y-13098007D01*
X4862691Y-13098007D02*
X4872215Y-13088483D01*
X4872215Y-13088483D02*
X4872215Y-13107531D01*
X5005548Y-12907531D02*
X5024596Y-12907531D01*
X5024596Y-12907531D02*
X5043644Y-12917055D01*
X5043644Y-12917055D02*
X5053168Y-12926579D01*
X5053168Y-12926579D02*
X5062691Y-12945626D01*
X5062691Y-12945626D02*
X5072215Y-12983721D01*
X5072215Y-12983721D02*
X5072215Y-13031340D01*
X5072215Y-13031340D02*
X5062691Y-13069436D01*
X5062691Y-13069436D02*
X5053168Y-13088483D01*
X5053168Y-13088483D02*
X5043644Y-13098007D01*
X5043644Y-13098007D02*
X5024596Y-13107531D01*
X5024596Y-13107531D02*
X5005548Y-13107531D01*
X5005548Y-13107531D02*
X4986501Y-13098007D01*
X4986501Y-13098007D02*
X4976977Y-13088483D01*
X4976977Y-13088483D02*
X4967453Y-13069436D01*
X4967453Y-13069436D02*
X4957929Y-13031340D01*
X4957929Y-13031340D02*
X4957929Y-12983721D01*
X4957929Y-12983721D02*
X4967453Y-12945626D01*
X4967453Y-12945626D02*
X4976977Y-12926579D01*
X4976977Y-12926579D02*
X4986501Y-12917055D01*
X4986501Y-12917055D02*
X5005548Y-12907531D01*
X5262691Y-13107531D02*
X5148406Y-13107531D01*
X5205548Y-13107531D02*
X5205548Y-12907531D01*
X5205548Y-12907531D02*
X5186501Y-12936102D01*
X5186501Y-12936102D02*
X5167453Y-12955150D01*
X5167453Y-12955150D02*
X5148406Y-12964674D01*
X5443644Y-12907531D02*
X5348406Y-12907531D01*
X5348406Y-12907531D02*
X5338882Y-13002769D01*
X5338882Y-13002769D02*
X5348406Y-12993245D01*
X5348406Y-12993245D02*
X5367453Y-12983721D01*
X5367453Y-12983721D02*
X5415072Y-12983721D01*
X5415072Y-12983721D02*
X5434120Y-12993245D01*
X5434120Y-12993245D02*
X5443644Y-13002769D01*
X5443644Y-13002769D02*
X5453168Y-13021817D01*
X5453168Y-13021817D02*
X5453168Y-13069436D01*
X5453168Y-13069436D02*
X5443644Y-13088483D01*
X5443644Y-13088483D02*
X5434120Y-13098007D01*
X5434120Y-13098007D02*
X5415072Y-13107531D01*
X5415072Y-13107531D02*
X5367453Y-13107531D01*
X5367453Y-13107531D02*
X5348406Y-13098007D01*
X5348406Y-13098007D02*
X5338882Y-13088483D01*
X5519834Y-12907531D02*
X5653167Y-12907531D01*
X5653167Y-12907531D02*
X5567453Y-13107531D01*
X5719834Y-12907531D02*
X5719834Y-12945626D01*
X5796025Y-12907531D02*
X5796025Y-12945626D01*
X6091263Y-13183721D02*
X6081739Y-13174198D01*
X6081739Y-13174198D02*
X6062691Y-13145626D01*
X6062691Y-13145626D02*
X6053168Y-13126579D01*
X6053168Y-13126579D02*
X6043644Y-13098007D01*
X6043644Y-13098007D02*
X6034120Y-13050388D01*
X6034120Y-13050388D02*
X6034120Y-13012293D01*
X6034120Y-13012293D02*
X6043644Y-12964674D01*
X6043644Y-12964674D02*
X6053168Y-12936102D01*
X6053168Y-12936102D02*
X6062691Y-12917055D01*
X6062691Y-12917055D02*
X6081739Y-12888483D01*
X6081739Y-12888483D02*
X6091263Y-12878959D01*
X6157929Y-12926579D02*
X6167453Y-12917055D01*
X6167453Y-12917055D02*
X6186501Y-12907531D01*
X6186501Y-12907531D02*
X6234120Y-12907531D01*
X6234120Y-12907531D02*
X6253168Y-12917055D01*
X6253168Y-12917055D02*
X6262691Y-12926579D01*
X6262691Y-12926579D02*
X6272215Y-12945626D01*
X6272215Y-12945626D02*
X6272215Y-12964674D01*
X6272215Y-12964674D02*
X6262691Y-12993245D01*
X6262691Y-12993245D02*
X6148406Y-13107531D01*
X6148406Y-13107531D02*
X6272215Y-13107531D01*
X6443644Y-12974198D02*
X6443644Y-13107531D01*
X6396025Y-12898007D02*
X6348406Y-13040864D01*
X6348406Y-13040864D02*
X6472215Y-13040864D01*
X6700787Y-13107531D02*
X6700787Y-12907531D01*
X6786501Y-13107531D02*
X6786501Y-13002769D01*
X6786501Y-13002769D02*
X6776977Y-12983721D01*
X6776977Y-12983721D02*
X6757930Y-12974198D01*
X6757930Y-12974198D02*
X6729358Y-12974198D01*
X6729358Y-12974198D02*
X6710310Y-12983721D01*
X6710310Y-12983721D02*
X6700787Y-12993245D01*
X6910310Y-13107531D02*
X6891263Y-13098007D01*
X6891263Y-13098007D02*
X6881739Y-13088483D01*
X6881739Y-13088483D02*
X6872215Y-13069436D01*
X6872215Y-13069436D02*
X6872215Y-13012293D01*
X6872215Y-13012293D02*
X6881739Y-12993245D01*
X6881739Y-12993245D02*
X6891263Y-12983721D01*
X6891263Y-12983721D02*
X6910310Y-12974198D01*
X6910310Y-12974198D02*
X6938882Y-12974198D01*
X6938882Y-12974198D02*
X6957930Y-12983721D01*
X6957930Y-12983721D02*
X6967453Y-12993245D01*
X6967453Y-12993245D02*
X6976977Y-13012293D01*
X6976977Y-13012293D02*
X6976977Y-13069436D01*
X6976977Y-13069436D02*
X6967453Y-13088483D01*
X6967453Y-13088483D02*
X6957930Y-13098007D01*
X6957930Y-13098007D02*
X6938882Y-13107531D01*
X6938882Y-13107531D02*
X6910310Y-13107531D01*
X7091263Y-13107531D02*
X7072215Y-13098007D01*
X7072215Y-13098007D02*
X7062691Y-13078959D01*
X7062691Y-13078959D02*
X7062691Y-12907531D01*
X7243644Y-13098007D02*
X7224596Y-13107531D01*
X7224596Y-13107531D02*
X7186501Y-13107531D01*
X7186501Y-13107531D02*
X7167453Y-13098007D01*
X7167453Y-13098007D02*
X7157930Y-13078959D01*
X7157930Y-13078959D02*
X7157930Y-13002769D01*
X7157930Y-13002769D02*
X7167453Y-12983721D01*
X7167453Y-12983721D02*
X7186501Y-12974198D01*
X7186501Y-12974198D02*
X7224596Y-12974198D01*
X7224596Y-12974198D02*
X7243644Y-12983721D01*
X7243644Y-12983721D02*
X7253168Y-13002769D01*
X7253168Y-13002769D02*
X7253168Y-13021817D01*
X7253168Y-13021817D02*
X7157930Y-13040864D01*
X7329358Y-13098007D02*
X7348406Y-13107531D01*
X7348406Y-13107531D02*
X7386501Y-13107531D01*
X7386501Y-13107531D02*
X7405549Y-13098007D01*
X7405549Y-13098007D02*
X7415072Y-13078959D01*
X7415072Y-13078959D02*
X7415072Y-13069436D01*
X7415072Y-13069436D02*
X7405549Y-13050388D01*
X7405549Y-13050388D02*
X7386501Y-13040864D01*
X7386501Y-13040864D02*
X7357930Y-13040864D01*
X7357930Y-13040864D02*
X7338882Y-13031340D01*
X7338882Y-13031340D02*
X7329358Y-13012293D01*
X7329358Y-13012293D02*
X7329358Y-13002769D01*
X7329358Y-13002769D02*
X7338882Y-12983721D01*
X7338882Y-12983721D02*
X7357930Y-12974198D01*
X7357930Y-12974198D02*
X7386501Y-12974198D01*
X7386501Y-12974198D02*
X7405549Y-12983721D01*
X7481739Y-13183721D02*
X7491263Y-13174198D01*
X7491263Y-13174198D02*
X7510311Y-13145626D01*
X7510311Y-13145626D02*
X7519834Y-13126579D01*
X7519834Y-13126579D02*
X7529358Y-13098007D01*
X7529358Y-13098007D02*
X7538882Y-13050388D01*
X7538882Y-13050388D02*
X7538882Y-13012293D01*
X7538882Y-13012293D02*
X7529358Y-12964674D01*
X7529358Y-12964674D02*
X7519834Y-12936102D01*
X7519834Y-12936102D02*
X7510311Y-12917055D01*
X7510311Y-12917055D02*
X7491263Y-12888483D01*
X7491263Y-12888483D02*
X7481739Y-12878959D01*
D12*
X2507413Y-13301261D02*
X2507413Y-13258834D01*
X2464987Y-13258834D01*
X2464987Y-13301261D01*
X2507413Y-13301261D01*
D11*
X2815072Y-13171531D02*
X2834120Y-13171531D01*
X2834120Y-13171531D02*
X2853167Y-13181055D01*
X2853167Y-13181055D02*
X2862691Y-13190579D01*
X2862691Y-13190579D02*
X2872215Y-13209626D01*
X2872215Y-13209626D02*
X2881739Y-13247721D01*
X2881739Y-13247721D02*
X2881739Y-13295340D01*
X2881739Y-13295340D02*
X2872215Y-13333436D01*
X2872215Y-13333436D02*
X2862691Y-13352483D01*
X2862691Y-13352483D02*
X2853167Y-13362007D01*
X2853167Y-13362007D02*
X2834120Y-13371531D01*
X2834120Y-13371531D02*
X2815072Y-13371531D01*
X2815072Y-13371531D02*
X2796024Y-13362007D01*
X2796024Y-13362007D02*
X2786501Y-13352483D01*
X2786501Y-13352483D02*
X2776977Y-13333436D01*
X2776977Y-13333436D02*
X2767453Y-13295340D01*
X2767453Y-13295340D02*
X2767453Y-13247721D01*
X2767453Y-13247721D02*
X2776977Y-13209626D01*
X2776977Y-13209626D02*
X2786501Y-13190579D01*
X2786501Y-13190579D02*
X2796024Y-13181055D01*
X2796024Y-13181055D02*
X2815072Y-13171531D01*
X2967453Y-13352483D02*
X2976977Y-13362007D01*
X2976977Y-13362007D02*
X2967453Y-13371531D01*
X2967453Y-13371531D02*
X2957929Y-13362007D01*
X2957929Y-13362007D02*
X2967453Y-13352483D01*
X2967453Y-13352483D02*
X2967453Y-13371531D01*
X3148405Y-13171531D02*
X3110310Y-13171531D01*
X3110310Y-13171531D02*
X3091262Y-13181055D01*
X3091262Y-13181055D02*
X3081739Y-13190579D01*
X3081739Y-13190579D02*
X3062691Y-13219150D01*
X3062691Y-13219150D02*
X3053167Y-13257245D01*
X3053167Y-13257245D02*
X3053167Y-13333436D01*
X3053167Y-13333436D02*
X3062691Y-13352483D01*
X3062691Y-13352483D02*
X3072215Y-13362007D01*
X3072215Y-13362007D02*
X3091262Y-13371531D01*
X3091262Y-13371531D02*
X3129358Y-13371531D01*
X3129358Y-13371531D02*
X3148405Y-13362007D01*
X3148405Y-13362007D02*
X3157929Y-13352483D01*
X3157929Y-13352483D02*
X3167453Y-13333436D01*
X3167453Y-13333436D02*
X3167453Y-13285817D01*
X3167453Y-13285817D02*
X3157929Y-13266769D01*
X3157929Y-13266769D02*
X3148405Y-13257245D01*
X3148405Y-13257245D02*
X3129358Y-13247721D01*
X3129358Y-13247721D02*
X3091262Y-13247721D01*
X3091262Y-13247721D02*
X3072215Y-13257245D01*
X3072215Y-13257245D02*
X3062691Y-13266769D01*
X3062691Y-13266769D02*
X3053167Y-13285817D01*
X3291262Y-13171531D02*
X3310310Y-13171531D01*
X3310310Y-13171531D02*
X3329358Y-13181055D01*
X3329358Y-13181055D02*
X3338882Y-13190579D01*
X3338882Y-13190579D02*
X3348405Y-13209626D01*
X3348405Y-13209626D02*
X3357929Y-13247721D01*
X3357929Y-13247721D02*
X3357929Y-13295340D01*
X3357929Y-13295340D02*
X3348405Y-13333436D01*
X3348405Y-13333436D02*
X3338882Y-13352483D01*
X3338882Y-13352483D02*
X3329358Y-13362007D01*
X3329358Y-13362007D02*
X3310310Y-13371531D01*
X3310310Y-13371531D02*
X3291262Y-13371531D01*
X3291262Y-13371531D02*
X3272215Y-13362007D01*
X3272215Y-13362007D02*
X3262691Y-13352483D01*
X3262691Y-13352483D02*
X3253167Y-13333436D01*
X3253167Y-13333436D02*
X3243643Y-13295340D01*
X3243643Y-13295340D02*
X3243643Y-13247721D01*
X3243643Y-13247721D02*
X3253167Y-13209626D01*
X3253167Y-13209626D02*
X3262691Y-13190579D01*
X3262691Y-13190579D02*
X3272215Y-13181055D01*
X3272215Y-13181055D02*
X3291262Y-13171531D01*
X3481739Y-13171531D02*
X3500786Y-13171531D01*
X3500786Y-13171531D02*
X3519834Y-13181055D01*
X3519834Y-13181055D02*
X3529358Y-13190579D01*
X3529358Y-13190579D02*
X3538882Y-13209626D01*
X3538882Y-13209626D02*
X3548405Y-13247721D01*
X3548405Y-13247721D02*
X3548405Y-13295340D01*
X3548405Y-13295340D02*
X3538882Y-13333436D01*
X3538882Y-13333436D02*
X3529358Y-13352483D01*
X3529358Y-13352483D02*
X3519834Y-13362007D01*
X3519834Y-13362007D02*
X3500786Y-13371531D01*
X3500786Y-13371531D02*
X3481739Y-13371531D01*
X3481739Y-13371531D02*
X3462691Y-13362007D01*
X3462691Y-13362007D02*
X3453167Y-13352483D01*
X3453167Y-13352483D02*
X3443643Y-13333436D01*
X3443643Y-13333436D02*
X3434120Y-13295340D01*
X3434120Y-13295340D02*
X3434120Y-13247721D01*
X3434120Y-13247721D02*
X3443643Y-13209626D01*
X3443643Y-13209626D02*
X3453167Y-13190579D01*
X3453167Y-13190579D02*
X3462691Y-13181055D01*
X3462691Y-13181055D02*
X3481739Y-13171531D01*
X3634120Y-13371531D02*
X3634120Y-13238198D01*
X3634120Y-13257245D02*
X3643643Y-13247721D01*
X3643643Y-13247721D02*
X3662691Y-13238198D01*
X3662691Y-13238198D02*
X3691263Y-13238198D01*
X3691263Y-13238198D02*
X3710310Y-13247721D01*
X3710310Y-13247721D02*
X3719834Y-13266769D01*
X3719834Y-13266769D02*
X3719834Y-13371531D01*
X3719834Y-13266769D02*
X3729358Y-13247721D01*
X3729358Y-13247721D02*
X3748405Y-13238198D01*
X3748405Y-13238198D02*
X3776977Y-13238198D01*
X3776977Y-13238198D02*
X3796024Y-13247721D01*
X3796024Y-13247721D02*
X3805548Y-13266769D01*
X3805548Y-13266769D02*
X3805548Y-13371531D01*
X3900786Y-13371531D02*
X3900786Y-13238198D01*
X3900786Y-13257245D02*
X3910310Y-13247721D01*
X3910310Y-13247721D02*
X3929358Y-13238198D01*
X3929358Y-13238198D02*
X3957929Y-13238198D01*
X3957929Y-13238198D02*
X3976977Y-13247721D01*
X3976977Y-13247721D02*
X3986501Y-13266769D01*
X3986501Y-13266769D02*
X3986501Y-13371531D01*
X3986501Y-13266769D02*
X3996024Y-13247721D01*
X3996024Y-13247721D02*
X4015072Y-13238198D01*
X4015072Y-13238198D02*
X4043643Y-13238198D01*
X4043643Y-13238198D02*
X4062691Y-13247721D01*
X4062691Y-13247721D02*
X4072215Y-13266769D01*
X4072215Y-13266769D02*
X4072215Y-13371531D01*
X4462691Y-13162007D02*
X4291263Y-13419150D01*
X4719834Y-13171531D02*
X4738882Y-13171531D01*
X4738882Y-13171531D02*
X4757929Y-13181055D01*
X4757929Y-13181055D02*
X4767453Y-13190579D01*
X4767453Y-13190579D02*
X4776977Y-13209626D01*
X4776977Y-13209626D02*
X4786501Y-13247721D01*
X4786501Y-13247721D02*
X4786501Y-13295340D01*
X4786501Y-13295340D02*
X4776977Y-13333436D01*
X4776977Y-13333436D02*
X4767453Y-13352483D01*
X4767453Y-13352483D02*
X4757929Y-13362007D01*
X4757929Y-13362007D02*
X4738882Y-13371531D01*
X4738882Y-13371531D02*
X4719834Y-13371531D01*
X4719834Y-13371531D02*
X4700787Y-13362007D01*
X4700787Y-13362007D02*
X4691263Y-13352483D01*
X4691263Y-13352483D02*
X4681739Y-13333436D01*
X4681739Y-13333436D02*
X4672215Y-13295340D01*
X4672215Y-13295340D02*
X4672215Y-13247721D01*
X4672215Y-13247721D02*
X4681739Y-13209626D01*
X4681739Y-13209626D02*
X4691263Y-13190579D01*
X4691263Y-13190579D02*
X4700787Y-13181055D01*
X4700787Y-13181055D02*
X4719834Y-13171531D01*
X4872215Y-13352483D02*
X4881739Y-13362007D01*
X4881739Y-13362007D02*
X4872215Y-13371531D01*
X4872215Y-13371531D02*
X4862691Y-13362007D01*
X4862691Y-13362007D02*
X4872215Y-13352483D01*
X4872215Y-13352483D02*
X4872215Y-13371531D01*
X5005548Y-13171531D02*
X5024596Y-13171531D01*
X5024596Y-13171531D02*
X5043644Y-13181055D01*
X5043644Y-13181055D02*
X5053168Y-13190579D01*
X5053168Y-13190579D02*
X5062691Y-13209626D01*
X5062691Y-13209626D02*
X5072215Y-13247721D01*
X5072215Y-13247721D02*
X5072215Y-13295340D01*
X5072215Y-13295340D02*
X5062691Y-13333436D01*
X5062691Y-13333436D02*
X5053168Y-13352483D01*
X5053168Y-13352483D02*
X5043644Y-13362007D01*
X5043644Y-13362007D02*
X5024596Y-13371531D01*
X5024596Y-13371531D02*
X5005548Y-13371531D01*
X5005548Y-13371531D02*
X4986501Y-13362007D01*
X4986501Y-13362007D02*
X4976977Y-13352483D01*
X4976977Y-13352483D02*
X4967453Y-13333436D01*
X4967453Y-13333436D02*
X4957929Y-13295340D01*
X4957929Y-13295340D02*
X4957929Y-13247721D01*
X4957929Y-13247721D02*
X4967453Y-13209626D01*
X4967453Y-13209626D02*
X4976977Y-13190579D01*
X4976977Y-13190579D02*
X4986501Y-13181055D01*
X4986501Y-13181055D02*
X5005548Y-13171531D01*
X5148406Y-13190579D02*
X5157929Y-13181055D01*
X5157929Y-13181055D02*
X5176977Y-13171531D01*
X5176977Y-13171531D02*
X5224596Y-13171531D01*
X5224596Y-13171531D02*
X5243644Y-13181055D01*
X5243644Y-13181055D02*
X5253168Y-13190579D01*
X5253168Y-13190579D02*
X5262691Y-13209626D01*
X5262691Y-13209626D02*
X5262691Y-13228674D01*
X5262691Y-13228674D02*
X5253168Y-13257245D01*
X5253168Y-13257245D02*
X5138882Y-13371531D01*
X5138882Y-13371531D02*
X5262691Y-13371531D01*
X5329358Y-13171531D02*
X5453168Y-13171531D01*
X5453168Y-13171531D02*
X5386501Y-13247721D01*
X5386501Y-13247721D02*
X5415072Y-13247721D01*
X5415072Y-13247721D02*
X5434120Y-13257245D01*
X5434120Y-13257245D02*
X5443644Y-13266769D01*
X5443644Y-13266769D02*
X5453168Y-13285817D01*
X5453168Y-13285817D02*
X5453168Y-13333436D01*
X5453168Y-13333436D02*
X5443644Y-13352483D01*
X5443644Y-13352483D02*
X5434120Y-13362007D01*
X5434120Y-13362007D02*
X5415072Y-13371531D01*
X5415072Y-13371531D02*
X5357929Y-13371531D01*
X5357929Y-13371531D02*
X5338882Y-13362007D01*
X5338882Y-13362007D02*
X5329358Y-13352483D01*
X5624596Y-13171531D02*
X5586501Y-13171531D01*
X5586501Y-13171531D02*
X5567453Y-13181055D01*
X5567453Y-13181055D02*
X5557929Y-13190579D01*
X5557929Y-13190579D02*
X5538882Y-13219150D01*
X5538882Y-13219150D02*
X5529358Y-13257245D01*
X5529358Y-13257245D02*
X5529358Y-13333436D01*
X5529358Y-13333436D02*
X5538882Y-13352483D01*
X5538882Y-13352483D02*
X5548406Y-13362007D01*
X5548406Y-13362007D02*
X5567453Y-13371531D01*
X5567453Y-13371531D02*
X5605548Y-13371531D01*
X5605548Y-13371531D02*
X5624596Y-13362007D01*
X5624596Y-13362007D02*
X5634120Y-13352483D01*
X5634120Y-13352483D02*
X5643644Y-13333436D01*
X5643644Y-13333436D02*
X5643644Y-13285817D01*
X5643644Y-13285817D02*
X5634120Y-13266769D01*
X5634120Y-13266769D02*
X5624596Y-13257245D01*
X5624596Y-13257245D02*
X5605548Y-13247721D01*
X5605548Y-13247721D02*
X5567453Y-13247721D01*
X5567453Y-13247721D02*
X5548406Y-13257245D01*
X5548406Y-13257245D02*
X5538882Y-13266769D01*
X5538882Y-13266769D02*
X5529358Y-13285817D01*
X5719834Y-13171531D02*
X5719834Y-13209626D01*
X5796025Y-13171531D02*
X5796025Y-13209626D01*
X6091263Y-13447721D02*
X6081739Y-13438198D01*
X6081739Y-13438198D02*
X6062691Y-13409626D01*
X6062691Y-13409626D02*
X6053168Y-13390579D01*
X6053168Y-13390579D02*
X6043644Y-13362007D01*
X6043644Y-13362007D02*
X6034120Y-13314388D01*
X6034120Y-13314388D02*
X6034120Y-13276293D01*
X6034120Y-13276293D02*
X6043644Y-13228674D01*
X6043644Y-13228674D02*
X6053168Y-13200102D01*
X6053168Y-13200102D02*
X6062691Y-13181055D01*
X6062691Y-13181055D02*
X6081739Y-13152483D01*
X6081739Y-13152483D02*
X6091263Y-13142959D01*
X6205548Y-13171531D02*
X6224596Y-13171531D01*
X6224596Y-13171531D02*
X6243644Y-13181055D01*
X6243644Y-13181055D02*
X6253168Y-13190579D01*
X6253168Y-13190579D02*
X6262691Y-13209626D01*
X6262691Y-13209626D02*
X6272215Y-13247721D01*
X6272215Y-13247721D02*
X6272215Y-13295340D01*
X6272215Y-13295340D02*
X6262691Y-13333436D01*
X6262691Y-13333436D02*
X6253168Y-13352483D01*
X6253168Y-13352483D02*
X6243644Y-13362007D01*
X6243644Y-13362007D02*
X6224596Y-13371531D01*
X6224596Y-13371531D02*
X6205548Y-13371531D01*
X6205548Y-13371531D02*
X6186501Y-13362007D01*
X6186501Y-13362007D02*
X6176977Y-13352483D01*
X6176977Y-13352483D02*
X6167453Y-13333436D01*
X6167453Y-13333436D02*
X6157929Y-13295340D01*
X6157929Y-13295340D02*
X6157929Y-13247721D01*
X6157929Y-13247721D02*
X6167453Y-13209626D01*
X6167453Y-13209626D02*
X6176977Y-13190579D01*
X6176977Y-13190579D02*
X6186501Y-13181055D01*
X6186501Y-13181055D02*
X6205548Y-13171531D01*
X6510310Y-13371531D02*
X6510310Y-13171531D01*
X6596025Y-13371531D02*
X6596025Y-13266769D01*
X6596025Y-13266769D02*
X6586501Y-13247721D01*
X6586501Y-13247721D02*
X6567453Y-13238198D01*
X6567453Y-13238198D02*
X6538882Y-13238198D01*
X6538882Y-13238198D02*
X6519834Y-13247721D01*
X6519834Y-13247721D02*
X6510310Y-13257245D01*
X6719834Y-13371531D02*
X6700787Y-13362007D01*
X6700787Y-13362007D02*
X6691263Y-13352483D01*
X6691263Y-13352483D02*
X6681739Y-13333436D01*
X6681739Y-13333436D02*
X6681739Y-13276293D01*
X6681739Y-13276293D02*
X6691263Y-13257245D01*
X6691263Y-13257245D02*
X6700787Y-13247721D01*
X6700787Y-13247721D02*
X6719834Y-13238198D01*
X6719834Y-13238198D02*
X6748406Y-13238198D01*
X6748406Y-13238198D02*
X6767453Y-13247721D01*
X6767453Y-13247721D02*
X6776977Y-13257245D01*
X6776977Y-13257245D02*
X6786501Y-13276293D01*
X6786501Y-13276293D02*
X6786501Y-13333436D01*
X6786501Y-13333436D02*
X6776977Y-13352483D01*
X6776977Y-13352483D02*
X6767453Y-13362007D01*
X6767453Y-13362007D02*
X6748406Y-13371531D01*
X6748406Y-13371531D02*
X6719834Y-13371531D01*
X6900787Y-13371531D02*
X6881739Y-13362007D01*
X6881739Y-13362007D02*
X6872215Y-13342959D01*
X6872215Y-13342959D02*
X6872215Y-13171531D01*
X7053168Y-13362007D02*
X7034120Y-13371531D01*
X7034120Y-13371531D02*
X6996025Y-13371531D01*
X6996025Y-13371531D02*
X6976977Y-13362007D01*
X6976977Y-13362007D02*
X6967453Y-13342959D01*
X6967453Y-13342959D02*
X6967453Y-13266769D01*
X6967453Y-13266769D02*
X6976977Y-13247721D01*
X6976977Y-13247721D02*
X6996025Y-13238198D01*
X6996025Y-13238198D02*
X7034120Y-13238198D01*
X7034120Y-13238198D02*
X7053168Y-13247721D01*
X7053168Y-13247721D02*
X7062691Y-13266769D01*
X7062691Y-13266769D02*
X7062691Y-13285817D01*
X7062691Y-13285817D02*
X6967453Y-13304864D01*
X7138882Y-13362007D02*
X7157930Y-13371531D01*
X7157930Y-13371531D02*
X7196025Y-13371531D01*
X7196025Y-13371531D02*
X7215072Y-13362007D01*
X7215072Y-13362007D02*
X7224596Y-13342959D01*
X7224596Y-13342959D02*
X7224596Y-13333436D01*
X7224596Y-13333436D02*
X7215072Y-13314388D01*
X7215072Y-13314388D02*
X7196025Y-13304864D01*
X7196025Y-13304864D02*
X7167453Y-13304864D01*
X7167453Y-13304864D02*
X7148406Y-13295340D01*
X7148406Y-13295340D02*
X7138882Y-13276293D01*
X7138882Y-13276293D02*
X7138882Y-13266769D01*
X7138882Y-13266769D02*
X7148406Y-13247721D01*
X7148406Y-13247721D02*
X7167453Y-13238198D01*
X7167453Y-13238198D02*
X7196025Y-13238198D01*
X7196025Y-13238198D02*
X7215072Y-13247721D01*
X7462692Y-13295340D02*
X7615073Y-13295340D01*
X7538882Y-13371531D02*
X7538882Y-13219150D01*
X7891263Y-13257245D02*
X7872215Y-13247721D01*
X7872215Y-13247721D02*
X7862692Y-13238198D01*
X7862692Y-13238198D02*
X7853168Y-13219150D01*
X7853168Y-13219150D02*
X7853168Y-13209626D01*
X7853168Y-13209626D02*
X7862692Y-13190579D01*
X7862692Y-13190579D02*
X7872215Y-13181055D01*
X7872215Y-13181055D02*
X7891263Y-13171531D01*
X7891263Y-13171531D02*
X7929358Y-13171531D01*
X7929358Y-13171531D02*
X7948406Y-13181055D01*
X7948406Y-13181055D02*
X7957930Y-13190579D01*
X7957930Y-13190579D02*
X7967453Y-13209626D01*
X7967453Y-13209626D02*
X7967453Y-13219150D01*
X7967453Y-13219150D02*
X7957930Y-13238198D01*
X7957930Y-13238198D02*
X7948406Y-13247721D01*
X7948406Y-13247721D02*
X7929358Y-13257245D01*
X7929358Y-13257245D02*
X7891263Y-13257245D01*
X7891263Y-13257245D02*
X7872215Y-13266769D01*
X7872215Y-13266769D02*
X7862692Y-13276293D01*
X7862692Y-13276293D02*
X7853168Y-13295340D01*
X7853168Y-13295340D02*
X7853168Y-13333436D01*
X7853168Y-13333436D02*
X7862692Y-13352483D01*
X7862692Y-13352483D02*
X7872215Y-13362007D01*
X7872215Y-13362007D02*
X7891263Y-13371531D01*
X7891263Y-13371531D02*
X7929358Y-13371531D01*
X7929358Y-13371531D02*
X7948406Y-13362007D01*
X7948406Y-13362007D02*
X7957930Y-13352483D01*
X7957930Y-13352483D02*
X7967453Y-13333436D01*
X7967453Y-13333436D02*
X7967453Y-13295340D01*
X7967453Y-13295340D02*
X7957930Y-13276293D01*
X7957930Y-13276293D02*
X7948406Y-13266769D01*
X7948406Y-13266769D02*
X7929358Y-13257245D01*
X8196025Y-13362007D02*
X8215073Y-13371531D01*
X8215073Y-13371531D02*
X8253168Y-13371531D01*
X8253168Y-13371531D02*
X8272215Y-13362007D01*
X8272215Y-13362007D02*
X8281739Y-13342959D01*
X8281739Y-13342959D02*
X8281739Y-13333436D01*
X8281739Y-13333436D02*
X8272215Y-13314388D01*
X8272215Y-13314388D02*
X8253168Y-13304864D01*
X8253168Y-13304864D02*
X8224596Y-13304864D01*
X8224596Y-13304864D02*
X8205549Y-13295340D01*
X8205549Y-13295340D02*
X8196025Y-13276293D01*
X8196025Y-13276293D02*
X8196025Y-13266769D01*
X8196025Y-13266769D02*
X8205549Y-13247721D01*
X8205549Y-13247721D02*
X8224596Y-13238198D01*
X8224596Y-13238198D02*
X8253168Y-13238198D01*
X8253168Y-13238198D02*
X8272215Y-13247721D01*
X8396025Y-13371531D02*
X8376977Y-13362007D01*
X8376977Y-13362007D02*
X8367454Y-13342959D01*
X8367454Y-13342959D02*
X8367454Y-13171531D01*
X8500787Y-13371531D02*
X8481739Y-13362007D01*
X8481739Y-13362007D02*
X8472216Y-13352483D01*
X8472216Y-13352483D02*
X8462692Y-13333436D01*
X8462692Y-13333436D02*
X8462692Y-13276293D01*
X8462692Y-13276293D02*
X8472216Y-13257245D01*
X8472216Y-13257245D02*
X8481739Y-13247721D01*
X8481739Y-13247721D02*
X8500787Y-13238198D01*
X8500787Y-13238198D02*
X8529358Y-13238198D01*
X8529358Y-13238198D02*
X8548406Y-13247721D01*
X8548406Y-13247721D02*
X8557930Y-13257245D01*
X8557930Y-13257245D02*
X8567454Y-13276293D01*
X8567454Y-13276293D02*
X8567454Y-13333436D01*
X8567454Y-13333436D02*
X8557930Y-13352483D01*
X8557930Y-13352483D02*
X8548406Y-13362007D01*
X8548406Y-13362007D02*
X8529358Y-13371531D01*
X8529358Y-13371531D02*
X8500787Y-13371531D01*
X8624597Y-13238198D02*
X8700787Y-13238198D01*
X8653168Y-13171531D02*
X8653168Y-13342959D01*
X8653168Y-13342959D02*
X8662692Y-13362007D01*
X8662692Y-13362007D02*
X8681739Y-13371531D01*
X8681739Y-13371531D02*
X8700787Y-13371531D01*
X8757930Y-13362007D02*
X8776977Y-13371531D01*
X8776977Y-13371531D02*
X8815073Y-13371531D01*
X8815073Y-13371531D02*
X8834120Y-13362007D01*
X8834120Y-13362007D02*
X8843644Y-13342959D01*
X8843644Y-13342959D02*
X8843644Y-13333436D01*
X8843644Y-13333436D02*
X8834120Y-13314388D01*
X8834120Y-13314388D02*
X8815073Y-13304864D01*
X8815073Y-13304864D02*
X8786501Y-13304864D01*
X8786501Y-13304864D02*
X8767454Y-13295340D01*
X8767454Y-13295340D02*
X8757930Y-13276293D01*
X8757930Y-13276293D02*
X8757930Y-13266769D01*
X8757930Y-13266769D02*
X8767454Y-13247721D01*
X8767454Y-13247721D02*
X8786501Y-13238198D01*
X8786501Y-13238198D02*
X8815073Y-13238198D01*
X8815073Y-13238198D02*
X8834120Y-13247721D01*
X8910311Y-13447721D02*
X8919835Y-13438198D01*
X8919835Y-13438198D02*
X8938882Y-13409626D01*
X8938882Y-13409626D02*
X8948406Y-13390579D01*
X8948406Y-13390579D02*
X8957930Y-13362007D01*
X8957930Y-13362007D02*
X8967454Y-13314388D01*
X8967454Y-13314388D02*
X8967454Y-13276293D01*
X8967454Y-13276293D02*
X8957930Y-13228674D01*
X8957930Y-13228674D02*
X8948406Y-13200102D01*
X8948406Y-13200102D02*
X8938882Y-13181055D01*
X8938882Y-13181055D02*
X8919835Y-13152483D01*
X8919835Y-13152483D02*
X8910311Y-13142959D01*
D12*
X2466200Y-13594047D02*
X2516200Y-13544047D01*
X2466200Y-13494047D01*
X2416200Y-13544047D01*
X2466200Y-13594047D01*
D11*
X2881739Y-13635531D02*
X2767453Y-13635531D01*
X2824596Y-13635531D02*
X2824596Y-13435531D01*
X2824596Y-13435531D02*
X2805548Y-13464102D01*
X2805548Y-13464102D02*
X2786501Y-13483150D01*
X2786501Y-13483150D02*
X2767453Y-13492674D01*
X2967453Y-13616483D02*
X2976977Y-13626007D01*
X2976977Y-13626007D02*
X2967453Y-13635531D01*
X2967453Y-13635531D02*
X2957929Y-13626007D01*
X2957929Y-13626007D02*
X2967453Y-13616483D01*
X2967453Y-13616483D02*
X2967453Y-13635531D01*
X3100786Y-13435531D02*
X3119834Y-13435531D01*
X3119834Y-13435531D02*
X3138882Y-13445055D01*
X3138882Y-13445055D02*
X3148405Y-13454579D01*
X3148405Y-13454579D02*
X3157929Y-13473626D01*
X3157929Y-13473626D02*
X3167453Y-13511721D01*
X3167453Y-13511721D02*
X3167453Y-13559340D01*
X3167453Y-13559340D02*
X3157929Y-13597436D01*
X3157929Y-13597436D02*
X3148405Y-13616483D01*
X3148405Y-13616483D02*
X3138882Y-13626007D01*
X3138882Y-13626007D02*
X3119834Y-13635531D01*
X3119834Y-13635531D02*
X3100786Y-13635531D01*
X3100786Y-13635531D02*
X3081739Y-13626007D01*
X3081739Y-13626007D02*
X3072215Y-13616483D01*
X3072215Y-13616483D02*
X3062691Y-13597436D01*
X3062691Y-13597436D02*
X3053167Y-13559340D01*
X3053167Y-13559340D02*
X3053167Y-13511721D01*
X3053167Y-13511721D02*
X3062691Y-13473626D01*
X3062691Y-13473626D02*
X3072215Y-13454579D01*
X3072215Y-13454579D02*
X3081739Y-13445055D01*
X3081739Y-13445055D02*
X3100786Y-13435531D01*
X3291262Y-13435531D02*
X3310310Y-13435531D01*
X3310310Y-13435531D02*
X3329358Y-13445055D01*
X3329358Y-13445055D02*
X3338882Y-13454579D01*
X3338882Y-13454579D02*
X3348405Y-13473626D01*
X3348405Y-13473626D02*
X3357929Y-13511721D01*
X3357929Y-13511721D02*
X3357929Y-13559340D01*
X3357929Y-13559340D02*
X3348405Y-13597436D01*
X3348405Y-13597436D02*
X3338882Y-13616483D01*
X3338882Y-13616483D02*
X3329358Y-13626007D01*
X3329358Y-13626007D02*
X3310310Y-13635531D01*
X3310310Y-13635531D02*
X3291262Y-13635531D01*
X3291262Y-13635531D02*
X3272215Y-13626007D01*
X3272215Y-13626007D02*
X3262691Y-13616483D01*
X3262691Y-13616483D02*
X3253167Y-13597436D01*
X3253167Y-13597436D02*
X3243643Y-13559340D01*
X3243643Y-13559340D02*
X3243643Y-13511721D01*
X3243643Y-13511721D02*
X3253167Y-13473626D01*
X3253167Y-13473626D02*
X3262691Y-13454579D01*
X3262691Y-13454579D02*
X3272215Y-13445055D01*
X3272215Y-13445055D02*
X3291262Y-13435531D01*
X3481739Y-13435531D02*
X3500786Y-13435531D01*
X3500786Y-13435531D02*
X3519834Y-13445055D01*
X3519834Y-13445055D02*
X3529358Y-13454579D01*
X3529358Y-13454579D02*
X3538882Y-13473626D01*
X3538882Y-13473626D02*
X3548405Y-13511721D01*
X3548405Y-13511721D02*
X3548405Y-13559340D01*
X3548405Y-13559340D02*
X3538882Y-13597436D01*
X3538882Y-13597436D02*
X3529358Y-13616483D01*
X3529358Y-13616483D02*
X3519834Y-13626007D01*
X3519834Y-13626007D02*
X3500786Y-13635531D01*
X3500786Y-13635531D02*
X3481739Y-13635531D01*
X3481739Y-13635531D02*
X3462691Y-13626007D01*
X3462691Y-13626007D02*
X3453167Y-13616483D01*
X3453167Y-13616483D02*
X3443643Y-13597436D01*
X3443643Y-13597436D02*
X3434120Y-13559340D01*
X3434120Y-13559340D02*
X3434120Y-13511721D01*
X3434120Y-13511721D02*
X3443643Y-13473626D01*
X3443643Y-13473626D02*
X3453167Y-13454579D01*
X3453167Y-13454579D02*
X3462691Y-13445055D01*
X3462691Y-13445055D02*
X3481739Y-13435531D01*
X3634120Y-13635531D02*
X3634120Y-13502198D01*
X3634120Y-13521245D02*
X3643643Y-13511721D01*
X3643643Y-13511721D02*
X3662691Y-13502198D01*
X3662691Y-13502198D02*
X3691263Y-13502198D01*
X3691263Y-13502198D02*
X3710310Y-13511721D01*
X3710310Y-13511721D02*
X3719834Y-13530769D01*
X3719834Y-13530769D02*
X3719834Y-13635531D01*
X3719834Y-13530769D02*
X3729358Y-13511721D01*
X3729358Y-13511721D02*
X3748405Y-13502198D01*
X3748405Y-13502198D02*
X3776977Y-13502198D01*
X3776977Y-13502198D02*
X3796024Y-13511721D01*
X3796024Y-13511721D02*
X3805548Y-13530769D01*
X3805548Y-13530769D02*
X3805548Y-13635531D01*
X3900786Y-13635531D02*
X3900786Y-13502198D01*
X3900786Y-13521245D02*
X3910310Y-13511721D01*
X3910310Y-13511721D02*
X3929358Y-13502198D01*
X3929358Y-13502198D02*
X3957929Y-13502198D01*
X3957929Y-13502198D02*
X3976977Y-13511721D01*
X3976977Y-13511721D02*
X3986501Y-13530769D01*
X3986501Y-13530769D02*
X3986501Y-13635531D01*
X3986501Y-13530769D02*
X3996024Y-13511721D01*
X3996024Y-13511721D02*
X4015072Y-13502198D01*
X4015072Y-13502198D02*
X4043643Y-13502198D01*
X4043643Y-13502198D02*
X4062691Y-13511721D01*
X4062691Y-13511721D02*
X4072215Y-13530769D01*
X4072215Y-13530769D02*
X4072215Y-13635531D01*
X4462691Y-13426007D02*
X4291263Y-13683150D01*
X4719834Y-13435531D02*
X4738882Y-13435531D01*
X4738882Y-13435531D02*
X4757929Y-13445055D01*
X4757929Y-13445055D02*
X4767453Y-13454579D01*
X4767453Y-13454579D02*
X4776977Y-13473626D01*
X4776977Y-13473626D02*
X4786501Y-13511721D01*
X4786501Y-13511721D02*
X4786501Y-13559340D01*
X4786501Y-13559340D02*
X4776977Y-13597436D01*
X4776977Y-13597436D02*
X4767453Y-13616483D01*
X4767453Y-13616483D02*
X4757929Y-13626007D01*
X4757929Y-13626007D02*
X4738882Y-13635531D01*
X4738882Y-13635531D02*
X4719834Y-13635531D01*
X4719834Y-13635531D02*
X4700787Y-13626007D01*
X4700787Y-13626007D02*
X4691263Y-13616483D01*
X4691263Y-13616483D02*
X4681739Y-13597436D01*
X4681739Y-13597436D02*
X4672215Y-13559340D01*
X4672215Y-13559340D02*
X4672215Y-13511721D01*
X4672215Y-13511721D02*
X4681739Y-13473626D01*
X4681739Y-13473626D02*
X4691263Y-13454579D01*
X4691263Y-13454579D02*
X4700787Y-13445055D01*
X4700787Y-13445055D02*
X4719834Y-13435531D01*
X4872215Y-13616483D02*
X4881739Y-13626007D01*
X4881739Y-13626007D02*
X4872215Y-13635531D01*
X4872215Y-13635531D02*
X4862691Y-13626007D01*
X4862691Y-13626007D02*
X4872215Y-13616483D01*
X4872215Y-13616483D02*
X4872215Y-13635531D01*
X5005548Y-13435531D02*
X5024596Y-13435531D01*
X5024596Y-13435531D02*
X5043644Y-13445055D01*
X5043644Y-13445055D02*
X5053168Y-13454579D01*
X5053168Y-13454579D02*
X5062691Y-13473626D01*
X5062691Y-13473626D02*
X5072215Y-13511721D01*
X5072215Y-13511721D02*
X5072215Y-13559340D01*
X5072215Y-13559340D02*
X5062691Y-13597436D01*
X5062691Y-13597436D02*
X5053168Y-13616483D01*
X5053168Y-13616483D02*
X5043644Y-13626007D01*
X5043644Y-13626007D02*
X5024596Y-13635531D01*
X5024596Y-13635531D02*
X5005548Y-13635531D01*
X5005548Y-13635531D02*
X4986501Y-13626007D01*
X4986501Y-13626007D02*
X4976977Y-13616483D01*
X4976977Y-13616483D02*
X4967453Y-13597436D01*
X4967453Y-13597436D02*
X4957929Y-13559340D01*
X4957929Y-13559340D02*
X4957929Y-13511721D01*
X4957929Y-13511721D02*
X4967453Y-13473626D01*
X4967453Y-13473626D02*
X4976977Y-13454579D01*
X4976977Y-13454579D02*
X4986501Y-13445055D01*
X4986501Y-13445055D02*
X5005548Y-13435531D01*
X5138882Y-13435531D02*
X5262691Y-13435531D01*
X5262691Y-13435531D02*
X5196025Y-13511721D01*
X5196025Y-13511721D02*
X5224596Y-13511721D01*
X5224596Y-13511721D02*
X5243644Y-13521245D01*
X5243644Y-13521245D02*
X5253168Y-13530769D01*
X5253168Y-13530769D02*
X5262691Y-13549817D01*
X5262691Y-13549817D02*
X5262691Y-13597436D01*
X5262691Y-13597436D02*
X5253168Y-13616483D01*
X5253168Y-13616483D02*
X5243644Y-13626007D01*
X5243644Y-13626007D02*
X5224596Y-13635531D01*
X5224596Y-13635531D02*
X5167453Y-13635531D01*
X5167453Y-13635531D02*
X5148406Y-13626007D01*
X5148406Y-13626007D02*
X5138882Y-13616483D01*
X5357929Y-13635531D02*
X5396025Y-13635531D01*
X5396025Y-13635531D02*
X5415072Y-13626007D01*
X5415072Y-13626007D02*
X5424596Y-13616483D01*
X5424596Y-13616483D02*
X5443644Y-13587912D01*
X5443644Y-13587912D02*
X5453168Y-13549817D01*
X5453168Y-13549817D02*
X5453168Y-13473626D01*
X5453168Y-13473626D02*
X5443644Y-13454579D01*
X5443644Y-13454579D02*
X5434120Y-13445055D01*
X5434120Y-13445055D02*
X5415072Y-13435531D01*
X5415072Y-13435531D02*
X5376977Y-13435531D01*
X5376977Y-13435531D02*
X5357929Y-13445055D01*
X5357929Y-13445055D02*
X5348406Y-13454579D01*
X5348406Y-13454579D02*
X5338882Y-13473626D01*
X5338882Y-13473626D02*
X5338882Y-13521245D01*
X5338882Y-13521245D02*
X5348406Y-13540293D01*
X5348406Y-13540293D02*
X5357929Y-13549817D01*
X5357929Y-13549817D02*
X5376977Y-13559340D01*
X5376977Y-13559340D02*
X5415072Y-13559340D01*
X5415072Y-13559340D02*
X5434120Y-13549817D01*
X5434120Y-13549817D02*
X5443644Y-13540293D01*
X5443644Y-13540293D02*
X5453168Y-13521245D01*
X5624596Y-13502198D02*
X5624596Y-13635531D01*
X5576977Y-13426007D02*
X5529358Y-13568864D01*
X5529358Y-13568864D02*
X5653167Y-13568864D01*
X5719834Y-13435531D02*
X5719834Y-13473626D01*
X5796025Y-13435531D02*
X5796025Y-13473626D01*
X6091263Y-13711721D02*
X6081739Y-13702198D01*
X6081739Y-13702198D02*
X6062691Y-13673626D01*
X6062691Y-13673626D02*
X6053168Y-13654579D01*
X6053168Y-13654579D02*
X6043644Y-13626007D01*
X6043644Y-13626007D02*
X6034120Y-13578388D01*
X6034120Y-13578388D02*
X6034120Y-13540293D01*
X6034120Y-13540293D02*
X6043644Y-13492674D01*
X6043644Y-13492674D02*
X6053168Y-13464102D01*
X6053168Y-13464102D02*
X6062691Y-13445055D01*
X6062691Y-13445055D02*
X6081739Y-13416483D01*
X6081739Y-13416483D02*
X6091263Y-13406959D01*
X6157929Y-13454579D02*
X6167453Y-13445055D01*
X6167453Y-13445055D02*
X6186501Y-13435531D01*
X6186501Y-13435531D02*
X6234120Y-13435531D01*
X6234120Y-13435531D02*
X6253168Y-13445055D01*
X6253168Y-13445055D02*
X6262691Y-13454579D01*
X6262691Y-13454579D02*
X6272215Y-13473626D01*
X6272215Y-13473626D02*
X6272215Y-13492674D01*
X6272215Y-13492674D02*
X6262691Y-13521245D01*
X6262691Y-13521245D02*
X6148406Y-13635531D01*
X6148406Y-13635531D02*
X6272215Y-13635531D01*
X6367453Y-13635531D02*
X6405548Y-13635531D01*
X6405548Y-13635531D02*
X6424596Y-13626007D01*
X6424596Y-13626007D02*
X6434120Y-13616483D01*
X6434120Y-13616483D02*
X6453168Y-13587912D01*
X6453168Y-13587912D02*
X6462691Y-13549817D01*
X6462691Y-13549817D02*
X6462691Y-13473626D01*
X6462691Y-13473626D02*
X6453168Y-13454579D01*
X6453168Y-13454579D02*
X6443644Y-13445055D01*
X6443644Y-13445055D02*
X6424596Y-13435531D01*
X6424596Y-13435531D02*
X6386501Y-13435531D01*
X6386501Y-13435531D02*
X6367453Y-13445055D01*
X6367453Y-13445055D02*
X6357929Y-13454579D01*
X6357929Y-13454579D02*
X6348406Y-13473626D01*
X6348406Y-13473626D02*
X6348406Y-13521245D01*
X6348406Y-13521245D02*
X6357929Y-13540293D01*
X6357929Y-13540293D02*
X6367453Y-13549817D01*
X6367453Y-13549817D02*
X6386501Y-13559340D01*
X6386501Y-13559340D02*
X6424596Y-13559340D01*
X6424596Y-13559340D02*
X6443644Y-13549817D01*
X6443644Y-13549817D02*
X6453168Y-13540293D01*
X6453168Y-13540293D02*
X6462691Y-13521245D01*
X6700787Y-13635531D02*
X6700787Y-13435531D01*
X6786501Y-13635531D02*
X6786501Y-13530769D01*
X6786501Y-13530769D02*
X6776977Y-13511721D01*
X6776977Y-13511721D02*
X6757930Y-13502198D01*
X6757930Y-13502198D02*
X6729358Y-13502198D01*
X6729358Y-13502198D02*
X6710310Y-13511721D01*
X6710310Y-13511721D02*
X6700787Y-13521245D01*
X6910310Y-13635531D02*
X6891263Y-13626007D01*
X6891263Y-13626007D02*
X6881739Y-13616483D01*
X6881739Y-13616483D02*
X6872215Y-13597436D01*
X6872215Y-13597436D02*
X6872215Y-13540293D01*
X6872215Y-13540293D02*
X6881739Y-13521245D01*
X6881739Y-13521245D02*
X6891263Y-13511721D01*
X6891263Y-13511721D02*
X6910310Y-13502198D01*
X6910310Y-13502198D02*
X6938882Y-13502198D01*
X6938882Y-13502198D02*
X6957930Y-13511721D01*
X6957930Y-13511721D02*
X6967453Y-13521245D01*
X6967453Y-13521245D02*
X6976977Y-13540293D01*
X6976977Y-13540293D02*
X6976977Y-13597436D01*
X6976977Y-13597436D02*
X6967453Y-13616483D01*
X6967453Y-13616483D02*
X6957930Y-13626007D01*
X6957930Y-13626007D02*
X6938882Y-13635531D01*
X6938882Y-13635531D02*
X6910310Y-13635531D01*
X7091263Y-13635531D02*
X7072215Y-13626007D01*
X7072215Y-13626007D02*
X7062691Y-13606959D01*
X7062691Y-13606959D02*
X7062691Y-13435531D01*
X7243644Y-13626007D02*
X7224596Y-13635531D01*
X7224596Y-13635531D02*
X7186501Y-13635531D01*
X7186501Y-13635531D02*
X7167453Y-13626007D01*
X7167453Y-13626007D02*
X7157930Y-13606959D01*
X7157930Y-13606959D02*
X7157930Y-13530769D01*
X7157930Y-13530769D02*
X7167453Y-13511721D01*
X7167453Y-13511721D02*
X7186501Y-13502198D01*
X7186501Y-13502198D02*
X7224596Y-13502198D01*
X7224596Y-13502198D02*
X7243644Y-13511721D01*
X7243644Y-13511721D02*
X7253168Y-13530769D01*
X7253168Y-13530769D02*
X7253168Y-13549817D01*
X7253168Y-13549817D02*
X7157930Y-13568864D01*
X7329358Y-13626007D02*
X7348406Y-13635531D01*
X7348406Y-13635531D02*
X7386501Y-13635531D01*
X7386501Y-13635531D02*
X7405549Y-13626007D01*
X7405549Y-13626007D02*
X7415072Y-13606959D01*
X7415072Y-13606959D02*
X7415072Y-13597436D01*
X7415072Y-13597436D02*
X7405549Y-13578388D01*
X7405549Y-13578388D02*
X7386501Y-13568864D01*
X7386501Y-13568864D02*
X7357930Y-13568864D01*
X7357930Y-13568864D02*
X7338882Y-13559340D01*
X7338882Y-13559340D02*
X7329358Y-13540293D01*
X7329358Y-13540293D02*
X7329358Y-13530769D01*
X7329358Y-13530769D02*
X7338882Y-13511721D01*
X7338882Y-13511721D02*
X7357930Y-13502198D01*
X7357930Y-13502198D02*
X7386501Y-13502198D01*
X7386501Y-13502198D02*
X7405549Y-13511721D01*
X7481739Y-13711721D02*
X7491263Y-13702198D01*
X7491263Y-13702198D02*
X7510311Y-13673626D01*
X7510311Y-13673626D02*
X7519834Y-13654579D01*
X7519834Y-13654579D02*
X7529358Y-13626007D01*
X7529358Y-13626007D02*
X7538882Y-13578388D01*
X7538882Y-13578388D02*
X7538882Y-13540293D01*
X7538882Y-13540293D02*
X7529358Y-13492674D01*
X7529358Y-13492674D02*
X7519834Y-13464102D01*
X7519834Y-13464102D02*
X7510311Y-13445055D01*
X7510311Y-13445055D02*
X7491263Y-13416483D01*
X7491263Y-13416483D02*
X7481739Y-13406959D01*
D13*
X2406200Y-13753047D02*
X2516200Y-13863047D01*
X2516200Y-13753047D02*
X2406200Y-13863047D01*
X2516200Y-13808047D02*
G75*
G02*
X2406200Y-13808047I-55000J0D01*
G01*
X2406200Y-13808047D02*
G75*
G02*
X2516200Y-13808047I55000J0D01*
G01*
D11*
X2881739Y-13899531D02*
X2767453Y-13899531D01*
X2824596Y-13899531D02*
X2824596Y-13699531D01*
X2824596Y-13699531D02*
X2805548Y-13728102D01*
X2805548Y-13728102D02*
X2786501Y-13747150D01*
X2786501Y-13747150D02*
X2767453Y-13756674D01*
X2967453Y-13880483D02*
X2976977Y-13890007D01*
X2976977Y-13890007D02*
X2967453Y-13899531D01*
X2967453Y-13899531D02*
X2957929Y-13890007D01*
X2957929Y-13890007D02*
X2967453Y-13880483D01*
X2967453Y-13880483D02*
X2967453Y-13899531D01*
X3167453Y-13899531D02*
X3053167Y-13899531D01*
X3110310Y-13899531D02*
X3110310Y-13699531D01*
X3110310Y-13699531D02*
X3091262Y-13728102D01*
X3091262Y-13728102D02*
X3072215Y-13747150D01*
X3072215Y-13747150D02*
X3053167Y-13756674D01*
X3291262Y-13699531D02*
X3310310Y-13699531D01*
X3310310Y-13699531D02*
X3329358Y-13709055D01*
X3329358Y-13709055D02*
X3338882Y-13718579D01*
X3338882Y-13718579D02*
X3348405Y-13737626D01*
X3348405Y-13737626D02*
X3357929Y-13775721D01*
X3357929Y-13775721D02*
X3357929Y-13823340D01*
X3357929Y-13823340D02*
X3348405Y-13861436D01*
X3348405Y-13861436D02*
X3338882Y-13880483D01*
X3338882Y-13880483D02*
X3329358Y-13890007D01*
X3329358Y-13890007D02*
X3310310Y-13899531D01*
X3310310Y-13899531D02*
X3291262Y-13899531D01*
X3291262Y-13899531D02*
X3272215Y-13890007D01*
X3272215Y-13890007D02*
X3262691Y-13880483D01*
X3262691Y-13880483D02*
X3253167Y-13861436D01*
X3253167Y-13861436D02*
X3243643Y-13823340D01*
X3243643Y-13823340D02*
X3243643Y-13775721D01*
X3243643Y-13775721D02*
X3253167Y-13737626D01*
X3253167Y-13737626D02*
X3262691Y-13718579D01*
X3262691Y-13718579D02*
X3272215Y-13709055D01*
X3272215Y-13709055D02*
X3291262Y-13699531D01*
X3481739Y-13699531D02*
X3500786Y-13699531D01*
X3500786Y-13699531D02*
X3519834Y-13709055D01*
X3519834Y-13709055D02*
X3529358Y-13718579D01*
X3529358Y-13718579D02*
X3538882Y-13737626D01*
X3538882Y-13737626D02*
X3548405Y-13775721D01*
X3548405Y-13775721D02*
X3548405Y-13823340D01*
X3548405Y-13823340D02*
X3538882Y-13861436D01*
X3538882Y-13861436D02*
X3529358Y-13880483D01*
X3529358Y-13880483D02*
X3519834Y-13890007D01*
X3519834Y-13890007D02*
X3500786Y-13899531D01*
X3500786Y-13899531D02*
X3481739Y-13899531D01*
X3481739Y-13899531D02*
X3462691Y-13890007D01*
X3462691Y-13890007D02*
X3453167Y-13880483D01*
X3453167Y-13880483D02*
X3443643Y-13861436D01*
X3443643Y-13861436D02*
X3434120Y-13823340D01*
X3434120Y-13823340D02*
X3434120Y-13775721D01*
X3434120Y-13775721D02*
X3443643Y-13737626D01*
X3443643Y-13737626D02*
X3453167Y-13718579D01*
X3453167Y-13718579D02*
X3462691Y-13709055D01*
X3462691Y-13709055D02*
X3481739Y-13699531D01*
X3634120Y-13899531D02*
X3634120Y-13766198D01*
X3634120Y-13785245D02*
X3643643Y-13775721D01*
X3643643Y-13775721D02*
X3662691Y-13766198D01*
X3662691Y-13766198D02*
X3691263Y-13766198D01*
X3691263Y-13766198D02*
X3710310Y-13775721D01*
X3710310Y-13775721D02*
X3719834Y-13794769D01*
X3719834Y-13794769D02*
X3719834Y-13899531D01*
X3719834Y-13794769D02*
X3729358Y-13775721D01*
X3729358Y-13775721D02*
X3748405Y-13766198D01*
X3748405Y-13766198D02*
X3776977Y-13766198D01*
X3776977Y-13766198D02*
X3796024Y-13775721D01*
X3796024Y-13775721D02*
X3805548Y-13794769D01*
X3805548Y-13794769D02*
X3805548Y-13899531D01*
X3900786Y-13899531D02*
X3900786Y-13766198D01*
X3900786Y-13785245D02*
X3910310Y-13775721D01*
X3910310Y-13775721D02*
X3929358Y-13766198D01*
X3929358Y-13766198D02*
X3957929Y-13766198D01*
X3957929Y-13766198D02*
X3976977Y-13775721D01*
X3976977Y-13775721D02*
X3986501Y-13794769D01*
X3986501Y-13794769D02*
X3986501Y-13899531D01*
X3986501Y-13794769D02*
X3996024Y-13775721D01*
X3996024Y-13775721D02*
X4015072Y-13766198D01*
X4015072Y-13766198D02*
X4043643Y-13766198D01*
X4043643Y-13766198D02*
X4062691Y-13775721D01*
X4062691Y-13775721D02*
X4072215Y-13794769D01*
X4072215Y-13794769D02*
X4072215Y-13899531D01*
X4462691Y-13690007D02*
X4291263Y-13947150D01*
X4719834Y-13699531D02*
X4738882Y-13699531D01*
X4738882Y-13699531D02*
X4757929Y-13709055D01*
X4757929Y-13709055D02*
X4767453Y-13718579D01*
X4767453Y-13718579D02*
X4776977Y-13737626D01*
X4776977Y-13737626D02*
X4786501Y-13775721D01*
X4786501Y-13775721D02*
X4786501Y-13823340D01*
X4786501Y-13823340D02*
X4776977Y-13861436D01*
X4776977Y-13861436D02*
X4767453Y-13880483D01*
X4767453Y-13880483D02*
X4757929Y-13890007D01*
X4757929Y-13890007D02*
X4738882Y-13899531D01*
X4738882Y-13899531D02*
X4719834Y-13899531D01*
X4719834Y-13899531D02*
X4700787Y-13890007D01*
X4700787Y-13890007D02*
X4691263Y-13880483D01*
X4691263Y-13880483D02*
X4681739Y-13861436D01*
X4681739Y-13861436D02*
X4672215Y-13823340D01*
X4672215Y-13823340D02*
X4672215Y-13775721D01*
X4672215Y-13775721D02*
X4681739Y-13737626D01*
X4681739Y-13737626D02*
X4691263Y-13718579D01*
X4691263Y-13718579D02*
X4700787Y-13709055D01*
X4700787Y-13709055D02*
X4719834Y-13699531D01*
X4872215Y-13880483D02*
X4881739Y-13890007D01*
X4881739Y-13890007D02*
X4872215Y-13899531D01*
X4872215Y-13899531D02*
X4862691Y-13890007D01*
X4862691Y-13890007D02*
X4872215Y-13880483D01*
X4872215Y-13880483D02*
X4872215Y-13899531D01*
X5005548Y-13699531D02*
X5024596Y-13699531D01*
X5024596Y-13699531D02*
X5043644Y-13709055D01*
X5043644Y-13709055D02*
X5053168Y-13718579D01*
X5053168Y-13718579D02*
X5062691Y-13737626D01*
X5062691Y-13737626D02*
X5072215Y-13775721D01*
X5072215Y-13775721D02*
X5072215Y-13823340D01*
X5072215Y-13823340D02*
X5062691Y-13861436D01*
X5062691Y-13861436D02*
X5053168Y-13880483D01*
X5053168Y-13880483D02*
X5043644Y-13890007D01*
X5043644Y-13890007D02*
X5024596Y-13899531D01*
X5024596Y-13899531D02*
X5005548Y-13899531D01*
X5005548Y-13899531D02*
X4986501Y-13890007D01*
X4986501Y-13890007D02*
X4976977Y-13880483D01*
X4976977Y-13880483D02*
X4967453Y-13861436D01*
X4967453Y-13861436D02*
X4957929Y-13823340D01*
X4957929Y-13823340D02*
X4957929Y-13775721D01*
X4957929Y-13775721D02*
X4967453Y-13737626D01*
X4967453Y-13737626D02*
X4976977Y-13718579D01*
X4976977Y-13718579D02*
X4986501Y-13709055D01*
X4986501Y-13709055D02*
X5005548Y-13699531D01*
X5243644Y-13766198D02*
X5243644Y-13899531D01*
X5196025Y-13690007D02*
X5148406Y-13832864D01*
X5148406Y-13832864D02*
X5272215Y-13832864D01*
X5329358Y-13699531D02*
X5453168Y-13699531D01*
X5453168Y-13699531D02*
X5386501Y-13775721D01*
X5386501Y-13775721D02*
X5415072Y-13775721D01*
X5415072Y-13775721D02*
X5434120Y-13785245D01*
X5434120Y-13785245D02*
X5443644Y-13794769D01*
X5443644Y-13794769D02*
X5453168Y-13813817D01*
X5453168Y-13813817D02*
X5453168Y-13861436D01*
X5453168Y-13861436D02*
X5443644Y-13880483D01*
X5443644Y-13880483D02*
X5434120Y-13890007D01*
X5434120Y-13890007D02*
X5415072Y-13899531D01*
X5415072Y-13899531D02*
X5357929Y-13899531D01*
X5357929Y-13899531D02*
X5338882Y-13890007D01*
X5338882Y-13890007D02*
X5329358Y-13880483D01*
X5519834Y-13699531D02*
X5643644Y-13699531D01*
X5643644Y-13699531D02*
X5576977Y-13775721D01*
X5576977Y-13775721D02*
X5605548Y-13775721D01*
X5605548Y-13775721D02*
X5624596Y-13785245D01*
X5624596Y-13785245D02*
X5634120Y-13794769D01*
X5634120Y-13794769D02*
X5643644Y-13813817D01*
X5643644Y-13813817D02*
X5643644Y-13861436D01*
X5643644Y-13861436D02*
X5634120Y-13880483D01*
X5634120Y-13880483D02*
X5624596Y-13890007D01*
X5624596Y-13890007D02*
X5605548Y-13899531D01*
X5605548Y-13899531D02*
X5548406Y-13899531D01*
X5548406Y-13899531D02*
X5529358Y-13890007D01*
X5529358Y-13890007D02*
X5519834Y-13880483D01*
X5719834Y-13699531D02*
X5719834Y-13737626D01*
X5796025Y-13699531D02*
X5796025Y-13737626D01*
X6091263Y-13975721D02*
X6081739Y-13966198D01*
X6081739Y-13966198D02*
X6062691Y-13937626D01*
X6062691Y-13937626D02*
X6053168Y-13918579D01*
X6053168Y-13918579D02*
X6043644Y-13890007D01*
X6043644Y-13890007D02*
X6034120Y-13842388D01*
X6034120Y-13842388D02*
X6034120Y-13804293D01*
X6034120Y-13804293D02*
X6043644Y-13756674D01*
X6043644Y-13756674D02*
X6053168Y-13728102D01*
X6053168Y-13728102D02*
X6062691Y-13709055D01*
X6062691Y-13709055D02*
X6081739Y-13680483D01*
X6081739Y-13680483D02*
X6091263Y-13670959D01*
X6272215Y-13899531D02*
X6157929Y-13899531D01*
X6215072Y-13899531D02*
X6215072Y-13699531D01*
X6215072Y-13699531D02*
X6196025Y-13728102D01*
X6196025Y-13728102D02*
X6176977Y-13747150D01*
X6176977Y-13747150D02*
X6157929Y-13756674D01*
X6396025Y-13699531D02*
X6415072Y-13699531D01*
X6415072Y-13699531D02*
X6434120Y-13709055D01*
X6434120Y-13709055D02*
X6443644Y-13718579D01*
X6443644Y-13718579D02*
X6453168Y-13737626D01*
X6453168Y-13737626D02*
X6462691Y-13775721D01*
X6462691Y-13775721D02*
X6462691Y-13823340D01*
X6462691Y-13823340D02*
X6453168Y-13861436D01*
X6453168Y-13861436D02*
X6443644Y-13880483D01*
X6443644Y-13880483D02*
X6434120Y-13890007D01*
X6434120Y-13890007D02*
X6415072Y-13899531D01*
X6415072Y-13899531D02*
X6396025Y-13899531D01*
X6396025Y-13899531D02*
X6376977Y-13890007D01*
X6376977Y-13890007D02*
X6367453Y-13880483D01*
X6367453Y-13880483D02*
X6357929Y-13861436D01*
X6357929Y-13861436D02*
X6348406Y-13823340D01*
X6348406Y-13823340D02*
X6348406Y-13775721D01*
X6348406Y-13775721D02*
X6357929Y-13737626D01*
X6357929Y-13737626D02*
X6367453Y-13718579D01*
X6367453Y-13718579D02*
X6376977Y-13709055D01*
X6376977Y-13709055D02*
X6396025Y-13699531D01*
X6700787Y-13899531D02*
X6700787Y-13699531D01*
X6786501Y-13899531D02*
X6786501Y-13794769D01*
X6786501Y-13794769D02*
X6776977Y-13775721D01*
X6776977Y-13775721D02*
X6757930Y-13766198D01*
X6757930Y-13766198D02*
X6729358Y-13766198D01*
X6729358Y-13766198D02*
X6710310Y-13775721D01*
X6710310Y-13775721D02*
X6700787Y-13785245D01*
X6910310Y-13899531D02*
X6891263Y-13890007D01*
X6891263Y-13890007D02*
X6881739Y-13880483D01*
X6881739Y-13880483D02*
X6872215Y-13861436D01*
X6872215Y-13861436D02*
X6872215Y-13804293D01*
X6872215Y-13804293D02*
X6881739Y-13785245D01*
X6881739Y-13785245D02*
X6891263Y-13775721D01*
X6891263Y-13775721D02*
X6910310Y-13766198D01*
X6910310Y-13766198D02*
X6938882Y-13766198D01*
X6938882Y-13766198D02*
X6957930Y-13775721D01*
X6957930Y-13775721D02*
X6967453Y-13785245D01*
X6967453Y-13785245D02*
X6976977Y-13804293D01*
X6976977Y-13804293D02*
X6976977Y-13861436D01*
X6976977Y-13861436D02*
X6967453Y-13880483D01*
X6967453Y-13880483D02*
X6957930Y-13890007D01*
X6957930Y-13890007D02*
X6938882Y-13899531D01*
X6938882Y-13899531D02*
X6910310Y-13899531D01*
X7091263Y-13899531D02*
X7072215Y-13890007D01*
X7072215Y-13890007D02*
X7062691Y-13870959D01*
X7062691Y-13870959D02*
X7062691Y-13699531D01*
X7243644Y-13890007D02*
X7224596Y-13899531D01*
X7224596Y-13899531D02*
X7186501Y-13899531D01*
X7186501Y-13899531D02*
X7167453Y-13890007D01*
X7167453Y-13890007D02*
X7157930Y-13870959D01*
X7157930Y-13870959D02*
X7157930Y-13794769D01*
X7157930Y-13794769D02*
X7167453Y-13775721D01*
X7167453Y-13775721D02*
X7186501Y-13766198D01*
X7186501Y-13766198D02*
X7224596Y-13766198D01*
X7224596Y-13766198D02*
X7243644Y-13775721D01*
X7243644Y-13775721D02*
X7253168Y-13794769D01*
X7253168Y-13794769D02*
X7253168Y-13813817D01*
X7253168Y-13813817D02*
X7157930Y-13832864D01*
X7329358Y-13890007D02*
X7348406Y-13899531D01*
X7348406Y-13899531D02*
X7386501Y-13899531D01*
X7386501Y-13899531D02*
X7405549Y-13890007D01*
X7405549Y-13890007D02*
X7415072Y-13870959D01*
X7415072Y-13870959D02*
X7415072Y-13861436D01*
X7415072Y-13861436D02*
X7405549Y-13842388D01*
X7405549Y-13842388D02*
X7386501Y-13832864D01*
X7386501Y-13832864D02*
X7357930Y-13832864D01*
X7357930Y-13832864D02*
X7338882Y-13823340D01*
X7338882Y-13823340D02*
X7329358Y-13804293D01*
X7329358Y-13804293D02*
X7329358Y-13794769D01*
X7329358Y-13794769D02*
X7338882Y-13775721D01*
X7338882Y-13775721D02*
X7357930Y-13766198D01*
X7357930Y-13766198D02*
X7386501Y-13766198D01*
X7386501Y-13766198D02*
X7405549Y-13775721D01*
X7481739Y-13975721D02*
X7491263Y-13966198D01*
X7491263Y-13966198D02*
X7510311Y-13937626D01*
X7510311Y-13937626D02*
X7519834Y-13918579D01*
X7519834Y-13918579D02*
X7529358Y-13890007D01*
X7529358Y-13890007D02*
X7538882Y-13842388D01*
X7538882Y-13842388D02*
X7538882Y-13804293D01*
X7538882Y-13804293D02*
X7529358Y-13756674D01*
X7529358Y-13756674D02*
X7519834Y-13728102D01*
X7519834Y-13728102D02*
X7510311Y-13709055D01*
X7510311Y-13709055D02*
X7491263Y-13680483D01*
X7491263Y-13680483D02*
X7481739Y-13670959D01*
X2316200Y-13972047D02*
X2516200Y-14172047D01*
X2516200Y-13972047D02*
X2316200Y-14172047D01*
X2416200Y-13972047D02*
X2416200Y-14172047D01*
X2316200Y-14072047D02*
X2516200Y-14072047D01*
X2767453Y-13982579D02*
X2776977Y-13973055D01*
X2776977Y-13973055D02*
X2796024Y-13963531D01*
X2796024Y-13963531D02*
X2843643Y-13963531D01*
X2843643Y-13963531D02*
X2862691Y-13973055D01*
X2862691Y-13973055D02*
X2872215Y-13982579D01*
X2872215Y-13982579D02*
X2881739Y-14001626D01*
X2881739Y-14001626D02*
X2881739Y-14020674D01*
X2881739Y-14020674D02*
X2872215Y-14049245D01*
X2872215Y-14049245D02*
X2757929Y-14163531D01*
X2757929Y-14163531D02*
X2881739Y-14163531D01*
X2967453Y-14144483D02*
X2976977Y-14154007D01*
X2976977Y-14154007D02*
X2967453Y-14163531D01*
X2967453Y-14163531D02*
X2957929Y-14154007D01*
X2957929Y-14154007D02*
X2967453Y-14144483D01*
X2967453Y-14144483D02*
X2967453Y-14163531D01*
X3053167Y-13982579D02*
X3062691Y-13973055D01*
X3062691Y-13973055D02*
X3081739Y-13963531D01*
X3081739Y-13963531D02*
X3129358Y-13963531D01*
X3129358Y-13963531D02*
X3148405Y-13973055D01*
X3148405Y-13973055D02*
X3157929Y-13982579D01*
X3157929Y-13982579D02*
X3167453Y-14001626D01*
X3167453Y-14001626D02*
X3167453Y-14020674D01*
X3167453Y-14020674D02*
X3157929Y-14049245D01*
X3157929Y-14049245D02*
X3043643Y-14163531D01*
X3043643Y-14163531D02*
X3167453Y-14163531D01*
X3291262Y-13963531D02*
X3310310Y-13963531D01*
X3310310Y-13963531D02*
X3329358Y-13973055D01*
X3329358Y-13973055D02*
X3338882Y-13982579D01*
X3338882Y-13982579D02*
X3348405Y-14001626D01*
X3348405Y-14001626D02*
X3357929Y-14039721D01*
X3357929Y-14039721D02*
X3357929Y-14087340D01*
X3357929Y-14087340D02*
X3348405Y-14125436D01*
X3348405Y-14125436D02*
X3338882Y-14144483D01*
X3338882Y-14144483D02*
X3329358Y-14154007D01*
X3329358Y-14154007D02*
X3310310Y-14163531D01*
X3310310Y-14163531D02*
X3291262Y-14163531D01*
X3291262Y-14163531D02*
X3272215Y-14154007D01*
X3272215Y-14154007D02*
X3262691Y-14144483D01*
X3262691Y-14144483D02*
X3253167Y-14125436D01*
X3253167Y-14125436D02*
X3243643Y-14087340D01*
X3243643Y-14087340D02*
X3243643Y-14039721D01*
X3243643Y-14039721D02*
X3253167Y-14001626D01*
X3253167Y-14001626D02*
X3262691Y-13982579D01*
X3262691Y-13982579D02*
X3272215Y-13973055D01*
X3272215Y-13973055D02*
X3291262Y-13963531D01*
X3481739Y-13963531D02*
X3500786Y-13963531D01*
X3500786Y-13963531D02*
X3519834Y-13973055D01*
X3519834Y-13973055D02*
X3529358Y-13982579D01*
X3529358Y-13982579D02*
X3538882Y-14001626D01*
X3538882Y-14001626D02*
X3548405Y-14039721D01*
X3548405Y-14039721D02*
X3548405Y-14087340D01*
X3548405Y-14087340D02*
X3538882Y-14125436D01*
X3538882Y-14125436D02*
X3529358Y-14144483D01*
X3529358Y-14144483D02*
X3519834Y-14154007D01*
X3519834Y-14154007D02*
X3500786Y-14163531D01*
X3500786Y-14163531D02*
X3481739Y-14163531D01*
X3481739Y-14163531D02*
X3462691Y-14154007D01*
X3462691Y-14154007D02*
X3453167Y-14144483D01*
X3453167Y-14144483D02*
X3443643Y-14125436D01*
X3443643Y-14125436D02*
X3434120Y-14087340D01*
X3434120Y-14087340D02*
X3434120Y-14039721D01*
X3434120Y-14039721D02*
X3443643Y-14001626D01*
X3443643Y-14001626D02*
X3453167Y-13982579D01*
X3453167Y-13982579D02*
X3462691Y-13973055D01*
X3462691Y-13973055D02*
X3481739Y-13963531D01*
X3634120Y-14163531D02*
X3634120Y-14030198D01*
X3634120Y-14049245D02*
X3643643Y-14039721D01*
X3643643Y-14039721D02*
X3662691Y-14030198D01*
X3662691Y-14030198D02*
X3691263Y-14030198D01*
X3691263Y-14030198D02*
X3710310Y-14039721D01*
X3710310Y-14039721D02*
X3719834Y-14058769D01*
X3719834Y-14058769D02*
X3719834Y-14163531D01*
X3719834Y-14058769D02*
X3729358Y-14039721D01*
X3729358Y-14039721D02*
X3748405Y-14030198D01*
X3748405Y-14030198D02*
X3776977Y-14030198D01*
X3776977Y-14030198D02*
X3796024Y-14039721D01*
X3796024Y-14039721D02*
X3805548Y-14058769D01*
X3805548Y-14058769D02*
X3805548Y-14163531D01*
X3900786Y-14163531D02*
X3900786Y-14030198D01*
X3900786Y-14049245D02*
X3910310Y-14039721D01*
X3910310Y-14039721D02*
X3929358Y-14030198D01*
X3929358Y-14030198D02*
X3957929Y-14030198D01*
X3957929Y-14030198D02*
X3976977Y-14039721D01*
X3976977Y-14039721D02*
X3986501Y-14058769D01*
X3986501Y-14058769D02*
X3986501Y-14163531D01*
X3986501Y-14058769D02*
X3996024Y-14039721D01*
X3996024Y-14039721D02*
X4015072Y-14030198D01*
X4015072Y-14030198D02*
X4043643Y-14030198D01*
X4043643Y-14030198D02*
X4062691Y-14039721D01*
X4062691Y-14039721D02*
X4072215Y-14058769D01*
X4072215Y-14058769D02*
X4072215Y-14163531D01*
X4462691Y-13954007D02*
X4291263Y-14211150D01*
X4719834Y-13963531D02*
X4738882Y-13963531D01*
X4738882Y-13963531D02*
X4757929Y-13973055D01*
X4757929Y-13973055D02*
X4767453Y-13982579D01*
X4767453Y-13982579D02*
X4776977Y-14001626D01*
X4776977Y-14001626D02*
X4786501Y-14039721D01*
X4786501Y-14039721D02*
X4786501Y-14087340D01*
X4786501Y-14087340D02*
X4776977Y-14125436D01*
X4776977Y-14125436D02*
X4767453Y-14144483D01*
X4767453Y-14144483D02*
X4757929Y-14154007D01*
X4757929Y-14154007D02*
X4738882Y-14163531D01*
X4738882Y-14163531D02*
X4719834Y-14163531D01*
X4719834Y-14163531D02*
X4700787Y-14154007D01*
X4700787Y-14154007D02*
X4691263Y-14144483D01*
X4691263Y-14144483D02*
X4681739Y-14125436D01*
X4681739Y-14125436D02*
X4672215Y-14087340D01*
X4672215Y-14087340D02*
X4672215Y-14039721D01*
X4672215Y-14039721D02*
X4681739Y-14001626D01*
X4681739Y-14001626D02*
X4691263Y-13982579D01*
X4691263Y-13982579D02*
X4700787Y-13973055D01*
X4700787Y-13973055D02*
X4719834Y-13963531D01*
X4872215Y-14144483D02*
X4881739Y-14154007D01*
X4881739Y-14154007D02*
X4872215Y-14163531D01*
X4872215Y-14163531D02*
X4862691Y-14154007D01*
X4862691Y-14154007D02*
X4872215Y-14144483D01*
X4872215Y-14144483D02*
X4872215Y-14163531D01*
X5005548Y-13963531D02*
X5024596Y-13963531D01*
X5024596Y-13963531D02*
X5043644Y-13973055D01*
X5043644Y-13973055D02*
X5053168Y-13982579D01*
X5053168Y-13982579D02*
X5062691Y-14001626D01*
X5062691Y-14001626D02*
X5072215Y-14039721D01*
X5072215Y-14039721D02*
X5072215Y-14087340D01*
X5072215Y-14087340D02*
X5062691Y-14125436D01*
X5062691Y-14125436D02*
X5053168Y-14144483D01*
X5053168Y-14144483D02*
X5043644Y-14154007D01*
X5043644Y-14154007D02*
X5024596Y-14163531D01*
X5024596Y-14163531D02*
X5005548Y-14163531D01*
X5005548Y-14163531D02*
X4986501Y-14154007D01*
X4986501Y-14154007D02*
X4976977Y-14144483D01*
X4976977Y-14144483D02*
X4967453Y-14125436D01*
X4967453Y-14125436D02*
X4957929Y-14087340D01*
X4957929Y-14087340D02*
X4957929Y-14039721D01*
X4957929Y-14039721D02*
X4967453Y-14001626D01*
X4967453Y-14001626D02*
X4976977Y-13982579D01*
X4976977Y-13982579D02*
X4986501Y-13973055D01*
X4986501Y-13973055D02*
X5005548Y-13963531D01*
X5186501Y-14049245D02*
X5167453Y-14039721D01*
X5167453Y-14039721D02*
X5157929Y-14030198D01*
X5157929Y-14030198D02*
X5148406Y-14011150D01*
X5148406Y-14011150D02*
X5148406Y-14001626D01*
X5148406Y-14001626D02*
X5157929Y-13982579D01*
X5157929Y-13982579D02*
X5167453Y-13973055D01*
X5167453Y-13973055D02*
X5186501Y-13963531D01*
X5186501Y-13963531D02*
X5224596Y-13963531D01*
X5224596Y-13963531D02*
X5243644Y-13973055D01*
X5243644Y-13973055D02*
X5253168Y-13982579D01*
X5253168Y-13982579D02*
X5262691Y-14001626D01*
X5262691Y-14001626D02*
X5262691Y-14011150D01*
X5262691Y-14011150D02*
X5253168Y-14030198D01*
X5253168Y-14030198D02*
X5243644Y-14039721D01*
X5243644Y-14039721D02*
X5224596Y-14049245D01*
X5224596Y-14049245D02*
X5186501Y-14049245D01*
X5186501Y-14049245D02*
X5167453Y-14058769D01*
X5167453Y-14058769D02*
X5157929Y-14068293D01*
X5157929Y-14068293D02*
X5148406Y-14087340D01*
X5148406Y-14087340D02*
X5148406Y-14125436D01*
X5148406Y-14125436D02*
X5157929Y-14144483D01*
X5157929Y-14144483D02*
X5167453Y-14154007D01*
X5167453Y-14154007D02*
X5186501Y-14163531D01*
X5186501Y-14163531D02*
X5224596Y-14163531D01*
X5224596Y-14163531D02*
X5243644Y-14154007D01*
X5243644Y-14154007D02*
X5253168Y-14144483D01*
X5253168Y-14144483D02*
X5262691Y-14125436D01*
X5262691Y-14125436D02*
X5262691Y-14087340D01*
X5262691Y-14087340D02*
X5253168Y-14068293D01*
X5253168Y-14068293D02*
X5243644Y-14058769D01*
X5243644Y-14058769D02*
X5224596Y-14049245D01*
X5434120Y-13963531D02*
X5396025Y-13963531D01*
X5396025Y-13963531D02*
X5376977Y-13973055D01*
X5376977Y-13973055D02*
X5367453Y-13982579D01*
X5367453Y-13982579D02*
X5348406Y-14011150D01*
X5348406Y-14011150D02*
X5338882Y-14049245D01*
X5338882Y-14049245D02*
X5338882Y-14125436D01*
X5338882Y-14125436D02*
X5348406Y-14144483D01*
X5348406Y-14144483D02*
X5357929Y-14154007D01*
X5357929Y-14154007D02*
X5376977Y-14163531D01*
X5376977Y-14163531D02*
X5415072Y-14163531D01*
X5415072Y-14163531D02*
X5434120Y-14154007D01*
X5434120Y-14154007D02*
X5443644Y-14144483D01*
X5443644Y-14144483D02*
X5453168Y-14125436D01*
X5453168Y-14125436D02*
X5453168Y-14077817D01*
X5453168Y-14077817D02*
X5443644Y-14058769D01*
X5443644Y-14058769D02*
X5434120Y-14049245D01*
X5434120Y-14049245D02*
X5415072Y-14039721D01*
X5415072Y-14039721D02*
X5376977Y-14039721D01*
X5376977Y-14039721D02*
X5357929Y-14049245D01*
X5357929Y-14049245D02*
X5348406Y-14058769D01*
X5348406Y-14058769D02*
X5338882Y-14077817D01*
X5624596Y-13963531D02*
X5586501Y-13963531D01*
X5586501Y-13963531D02*
X5567453Y-13973055D01*
X5567453Y-13973055D02*
X5557929Y-13982579D01*
X5557929Y-13982579D02*
X5538882Y-14011150D01*
X5538882Y-14011150D02*
X5529358Y-14049245D01*
X5529358Y-14049245D02*
X5529358Y-14125436D01*
X5529358Y-14125436D02*
X5538882Y-14144483D01*
X5538882Y-14144483D02*
X5548406Y-14154007D01*
X5548406Y-14154007D02*
X5567453Y-14163531D01*
X5567453Y-14163531D02*
X5605548Y-14163531D01*
X5605548Y-14163531D02*
X5624596Y-14154007D01*
X5624596Y-14154007D02*
X5634120Y-14144483D01*
X5634120Y-14144483D02*
X5643644Y-14125436D01*
X5643644Y-14125436D02*
X5643644Y-14077817D01*
X5643644Y-14077817D02*
X5634120Y-14058769D01*
X5634120Y-14058769D02*
X5624596Y-14049245D01*
X5624596Y-14049245D02*
X5605548Y-14039721D01*
X5605548Y-14039721D02*
X5567453Y-14039721D01*
X5567453Y-14039721D02*
X5548406Y-14049245D01*
X5548406Y-14049245D02*
X5538882Y-14058769D01*
X5538882Y-14058769D02*
X5529358Y-14077817D01*
X5719834Y-13963531D02*
X5719834Y-14001626D01*
X5796025Y-13963531D02*
X5796025Y-14001626D01*
X6091263Y-14239721D02*
X6081739Y-14230198D01*
X6081739Y-14230198D02*
X6062691Y-14201626D01*
X6062691Y-14201626D02*
X6053168Y-14182579D01*
X6053168Y-14182579D02*
X6043644Y-14154007D01*
X6043644Y-14154007D02*
X6034120Y-14106388D01*
X6034120Y-14106388D02*
X6034120Y-14068293D01*
X6034120Y-14068293D02*
X6043644Y-14020674D01*
X6043644Y-14020674D02*
X6053168Y-13992102D01*
X6053168Y-13992102D02*
X6062691Y-13973055D01*
X6062691Y-13973055D02*
X6081739Y-13944483D01*
X6081739Y-13944483D02*
X6091263Y-13934959D01*
X6148406Y-13963531D02*
X6272215Y-13963531D01*
X6272215Y-13963531D02*
X6205548Y-14039721D01*
X6205548Y-14039721D02*
X6234120Y-14039721D01*
X6234120Y-14039721D02*
X6253168Y-14049245D01*
X6253168Y-14049245D02*
X6262691Y-14058769D01*
X6262691Y-14058769D02*
X6272215Y-14077817D01*
X6272215Y-14077817D02*
X6272215Y-14125436D01*
X6272215Y-14125436D02*
X6262691Y-14144483D01*
X6262691Y-14144483D02*
X6253168Y-14154007D01*
X6253168Y-14154007D02*
X6234120Y-14163531D01*
X6234120Y-14163531D02*
X6176977Y-14163531D01*
X6176977Y-14163531D02*
X6157929Y-14154007D01*
X6157929Y-14154007D02*
X6148406Y-14144483D01*
X6510310Y-14163531D02*
X6510310Y-13963531D01*
X6596025Y-14163531D02*
X6596025Y-14058769D01*
X6596025Y-14058769D02*
X6586501Y-14039721D01*
X6586501Y-14039721D02*
X6567453Y-14030198D01*
X6567453Y-14030198D02*
X6538882Y-14030198D01*
X6538882Y-14030198D02*
X6519834Y-14039721D01*
X6519834Y-14039721D02*
X6510310Y-14049245D01*
X6719834Y-14163531D02*
X6700787Y-14154007D01*
X6700787Y-14154007D02*
X6691263Y-14144483D01*
X6691263Y-14144483D02*
X6681739Y-14125436D01*
X6681739Y-14125436D02*
X6681739Y-14068293D01*
X6681739Y-14068293D02*
X6691263Y-14049245D01*
X6691263Y-14049245D02*
X6700787Y-14039721D01*
X6700787Y-14039721D02*
X6719834Y-14030198D01*
X6719834Y-14030198D02*
X6748406Y-14030198D01*
X6748406Y-14030198D02*
X6767453Y-14039721D01*
X6767453Y-14039721D02*
X6776977Y-14049245D01*
X6776977Y-14049245D02*
X6786501Y-14068293D01*
X6786501Y-14068293D02*
X6786501Y-14125436D01*
X6786501Y-14125436D02*
X6776977Y-14144483D01*
X6776977Y-14144483D02*
X6767453Y-14154007D01*
X6767453Y-14154007D02*
X6748406Y-14163531D01*
X6748406Y-14163531D02*
X6719834Y-14163531D01*
X6900787Y-14163531D02*
X6881739Y-14154007D01*
X6881739Y-14154007D02*
X6872215Y-14134959D01*
X6872215Y-14134959D02*
X6872215Y-13963531D01*
X7053168Y-14154007D02*
X7034120Y-14163531D01*
X7034120Y-14163531D02*
X6996025Y-14163531D01*
X6996025Y-14163531D02*
X6976977Y-14154007D01*
X6976977Y-14154007D02*
X6967453Y-14134959D01*
X6967453Y-14134959D02*
X6967453Y-14058769D01*
X6967453Y-14058769D02*
X6976977Y-14039721D01*
X6976977Y-14039721D02*
X6996025Y-14030198D01*
X6996025Y-14030198D02*
X7034120Y-14030198D01*
X7034120Y-14030198D02*
X7053168Y-14039721D01*
X7053168Y-14039721D02*
X7062691Y-14058769D01*
X7062691Y-14058769D02*
X7062691Y-14077817D01*
X7062691Y-14077817D02*
X6967453Y-14096864D01*
X7138882Y-14154007D02*
X7157930Y-14163531D01*
X7157930Y-14163531D02*
X7196025Y-14163531D01*
X7196025Y-14163531D02*
X7215072Y-14154007D01*
X7215072Y-14154007D02*
X7224596Y-14134959D01*
X7224596Y-14134959D02*
X7224596Y-14125436D01*
X7224596Y-14125436D02*
X7215072Y-14106388D01*
X7215072Y-14106388D02*
X7196025Y-14096864D01*
X7196025Y-14096864D02*
X7167453Y-14096864D01*
X7167453Y-14096864D02*
X7148406Y-14087340D01*
X7148406Y-14087340D02*
X7138882Y-14068293D01*
X7138882Y-14068293D02*
X7138882Y-14058769D01*
X7138882Y-14058769D02*
X7148406Y-14039721D01*
X7148406Y-14039721D02*
X7167453Y-14030198D01*
X7167453Y-14030198D02*
X7196025Y-14030198D01*
X7196025Y-14030198D02*
X7215072Y-14039721D01*
X7291263Y-14239721D02*
X7300787Y-14230198D01*
X7300787Y-14230198D02*
X7319834Y-14201626D01*
X7319834Y-14201626D02*
X7329358Y-14182579D01*
X7329358Y-14182579D02*
X7338882Y-14154007D01*
X7338882Y-14154007D02*
X7348406Y-14106388D01*
X7348406Y-14106388D02*
X7348406Y-14068293D01*
X7348406Y-14068293D02*
X7338882Y-14020674D01*
X7338882Y-14020674D02*
X7329358Y-13992102D01*
X7329358Y-13992102D02*
X7319834Y-13973055D01*
X7319834Y-13973055D02*
X7300787Y-13944483D01*
X7300787Y-13944483D02*
X7291263Y-13934959D01*
M02*
