%TF.GenerationSoftware,KiCad,Pcbnew,8.0.5*%
%TF.CreationDate,2024-10-21T18:47:46+02:00*%
%TF.ProjectId,both,626f7468-2e6b-4696-9361-645f70636258,rev?*%
%TF.SameCoordinates,Original*%
%TF.FileFunction,Profile,NP*%
%FSLAX46Y46*%
G04 Gerber Fmt 4.6, Leading zero omitted, Abs format (unit mm)*
G04 Created by KiCad (PCBNEW 8.0.5) date 2024-10-21 18:47:46*
%MOMM*%
%LPD*%
G01*
G04 APERTURE LIST*
%TA.AperFunction,Profile*%
%ADD10C,0.050000*%
%TD*%
G04 APERTURE END LIST*
D10*
X37032000Y-90955472D02*
X37032000Y-86455472D01*
X26387000Y-60262000D02*
G75*
G02*
X25187000Y-59062000I0J1200000D01*
G01*
X37032000Y-99455472D02*
G75*
G02*
X36015870Y-100455370I-1000000J-28D01*
G01*
X93187000Y-59062000D02*
X93187000Y-21460528D01*
X81332000Y-73455472D02*
G75*
G02*
X82532028Y-74655472I0J-1200028D01*
G01*
X91987000Y-20260528D02*
G75*
G02*
X93186972Y-21460528I0J-1199972D01*
G01*
X93187000Y-59062000D02*
G75*
G02*
X91987000Y-60262000I-1200000J0D01*
G01*
X40232000Y-73455472D02*
X81332000Y-73455472D01*
X28032000Y-86455472D02*
G75*
G02*
X37032000Y-86455472I4500000J0D01*
G01*
X39032000Y-117255472D02*
X39032000Y-95455472D01*
X39032000Y-90955472D02*
G75*
G02*
X37032000Y-90955472I-1000000J0D01*
G01*
X37032000Y-95455472D02*
G75*
G02*
X39032000Y-95455472I1000000J0D01*
G01*
X28032000Y-86455472D02*
X28032000Y-99455472D01*
X82532000Y-117255472D02*
G75*
G02*
X81332000Y-118455500I-1200000J-28D01*
G01*
X29032000Y-100455472D02*
X36015868Y-100455472D01*
X29032000Y-100455472D02*
G75*
G02*
X28032028Y-99455472I0J999972D01*
G01*
X37032000Y-95455472D02*
X37032000Y-99455472D01*
X39032000Y-74655473D02*
G75*
G02*
X40232000Y-73455500I1200000J-27D01*
G01*
X26387000Y-60262000D02*
X91987000Y-60262000D01*
X82532000Y-74655472D02*
X82532000Y-117255472D01*
X39032000Y-90955472D02*
X39032000Y-74655473D01*
X91987000Y-20260528D02*
X26387000Y-20262000D01*
X25187000Y-21462000D02*
G75*
G02*
X26387000Y-20262000I1200000J0D01*
G01*
X25187000Y-59062000D02*
X25187000Y-21462000D01*
X40232000Y-118455472D02*
G75*
G02*
X39032028Y-117255472I0J1199972D01*
G01*
X81332000Y-118455472D02*
X40232000Y-118455472D01*
M02*
